ply
format ascii 1.0
element vertex 889
property float x
property float y
property float z
end_header
13.942094802856445 8.816459655761719 4.420037746429443
-3.405825138092041 28.049407958984375 7.571014404296875
-0.9482763409614563 4.644975662231445 1.2702898979187012
-11.919838905334473 25.1204833984375 7.450340270996094
-13.971733093261719 24.199710845947266 7.487416744232178
13.941713333129883 8.8162202835083 4.224575042724609
-3.405825138092041 28.049407958984375 7.236403465270996
-9.619555473327637 25.364643096923828 6.947535991668701
-11.971498489379883 25.229379653930664 7.151930332183838
-16.164209365844727 23.417837142944336 7.28747034072876
-3.405829906463623 28.04940414428711 6.903687000274658
-7.599750995635986 26.23733901977539 6.674111366271973
-9.619545936584473 25.364648818969727 6.62809944152832
-11.971503257751465 25.229373931884766 6.823096752166748
-18.32861328125 22.44843292236328 7.080849647521973
-3.4199461936950684 28.165678024291992 6.600009441375732
-0.9481884837150574 4.644526481628418 1.1026928424835205
-7.893754482269287 27.25233268737793 6.600010395050049
-9.841127395629883 25.948925018310547 6.455748081207275
-13.954633712768555 24.170116424560547 6.492239952087402
-18.328603744506836 22.448442459106445 6.74143648147583
13.940595626831055 8.81551742553711 3.644657611846924
9.549975395202637 16.54104995727539 4.220481872558594
-0.9481298327445984 4.644248008728027 1.047397494316101
-7.845717430114746 27.08649444580078 6.231278419494629
-9.954081535339355 26.246732711791992 6.2027716636657715
-16.138574600219727 23.380706787109375 6.2776408195495605
9.54311466217041 16.5291690826416 3.9961535930633545
-0.9480712413787842 4.643964767456055 0.9923779368400574
-7.876410961151123 27.192489624023438 5.927408695220947
-9.969740867614746 26.288026809692383 5.886542797088623
-11.971894264221191 25.230194091796875 5.847064018249512
-14.048612594604492 24.332895278930664 5.882810115814209
-16.164731979370117 23.41859245300293 5.9578776359558105
-18.349857330322266 22.474456787109375 6.0747809410095215
13.939858436584473 8.815048217773438 3.2628862857818604
9.536298751831055 16.517358779907227 3.773181676864624
-0.9480175375938416 4.643686294555664 0.9376208186149597
-11.971903800964355 25.23019027709961 5.524768352508545
-18.3498477935791 22.474462509155273 5.739935398101807
13.939492225646973 8.814809799194336 3.073291540145874
9.529520988464355 16.505619049072266 3.5515012741088867
0.7640575766563416 18.96044921875 3.536001443862915
-0.9479589462280273 4.643408298492432 0.8831103444099426
-11.971884727478027 25.230194091796875 5.203881740570068
-18.3498477935791 22.474462509155273 5.406549453735352
9.522772789001465 16.49394416809082 3.331049680709839
-3.5298047065734863 29.070526123046875 5.1217498779296875
-0.9478515386581421 4.642866134643555 0.7747650146484375
-7.876410961151123 27.192489624023438 4.628732204437256
-11.971894264221191 25.230194091796875 4.565987586975098
-14.048612594604492 24.332895278930664 4.59390115737915
-16.164731979370117 23.41859245300293 4.652522087097168
-18.349838256835938 22.47446632385254 4.743813514709473
-7.772382736206055 26.83333969116211 4.250308513641357
-9.842997550964355 25.953832626342773 4.223121643066406
-18.349857330322266 22.474456787109375 4.414285659790039
9.502753257751465 16.45926284790039 2.6764237880706787
0.7635937333106995 18.94877815246582 2.670598030090332
-3.499340772628784 28.819618225097656 4.08828592300415
-0.9477343559265137 4.642314434051514 0.6672301888465881
-7.827167987823486 27.022470474243164 3.961817502975464
-9.9074068069458 26.123666763305664 3.9345037937164307
-11.971894264221191 25.23019027709961 3.932704448699951
-14.048603057861328 24.332895278930664 3.9567461013793945
-16.164731979370117 23.41859245300293 4.007235527038574
9.496147155761719 16.447813034057617 2.460249185562134
-0.947680652141571 4.642035961151123 0.613728940486908
-7.827172756195068 27.022470474243164 3.6443591117858887
-11.97188949584961 25.23018455505371 3.61757755279541
-16.164731979370117 23.41859245300293 3.6861376762390137
9.4895601272583 16.43641471862793 2.2449965476989746
-3.514658212661743 28.94563865661621 3.44905948638916
-0.9476269483566284 4.641762733459473 0.5603885054588318
-14.048612594604492 24.332895278930664 3.3235528469085693
-16.16474151611328 23.41859245300293 3.3659605979919434
13.936960220336914 8.813217163085938 1.765533685684204
9.483007431030273 16.425052642822266 2.030601739883423
0.7476171851158142 18.5523624420166 1.9879287481307983
-0.9475683569908142 4.641494274139404 0.5071923732757568
-7.842587947845459 27.0756778717041 3.018021821975708
-14.048623085021973 24.332889556884766 3.008234739303589
-16.164731979370117 23.41859245300293 3.046621561050415
-18.349857330322266 22.474456787109375 3.106401205062866
9.476469039916992 16.41374969482422 1.8170123100280762
-3.5146484375 28.94564437866211 2.795389413833618
-14.048612594604492 24.332895278930664 2.6936676502227783
-18.3498477935791 22.474462509155273 2.781569242477417
9.469965934753418 16.402475357055664 1.6041686534881592
-0.9474608898162842 4.640952110290527 0.4011853039264679
-9.926918983459473 26.17510223388672 2.3710503578186035
-16.164731979370117 23.41859245300293 2.410134792327881
0.7457373142242432 18.50570297241211 1.3621419668197632
-3.5146484375 28.945648193359375 2.1444952487945557
-0.94740229845047 4.640678405761719 0.3483465611934662
-7.876415729522705 27.192489624023438 2.082125425338745
-9.969731330871582 26.288026809692383 2.0677709579467773
-16.16474151611328 23.41859245300293 2.092827320098877
-18.3498477935791 22.474462509155273 2.1338930130004883
-0.9473485946655273 4.64040994644165 0.2956005930900574
-7.876410961151123 27.192489624023438 1.766953706741333
-9.969740867614746 26.288026809692383 1.7547719478607178
-14.048612594604492 24.332895278930664 1.753658413887024
2.187382698059082 18.01478385925293 0.9308865070343018
-3.5077390670776367 28.888763427734375 1.4927788972854614
-7.827182292938232 27.022470474243164 1.443137764930725
-11.97188949584961 25.23018455505371 1.4325329065322876
-14.048612594604492 24.332895278930664 1.4412904977798462
9.444120407104492 16.35771942138672 0.759153425693512
-0.740966796875 18.38677215576172 0.739599883556366
-3.488662004470825 28.731586456298828 1.1632555723190308
-0.9472411870956421 4.639887809753418 0.19033141434192657
-9.853506088256836 25.98153305053711 1.1168200969696045
-11.97188949584961 25.23018455505371 1.1224157810211182
-16.16474151611328 23.41859245300293 1.1436880826950073
-18.25001335144043 22.352182388305664 1.1597851514816284
2.187382698059082 18.014789581298828 0.5280269980430603
-3.507744073867798 28.88875961303711 0.8467486500740051
-9.926908493041992 26.17510223388672 0.8145483136177063
-16.16474151611328 23.41859245300293 0.8279754519462585
-18.3498477935791 22.474462509155273 0.8442217707633972
13.932401657104492 8.810332298278809 0.29687070846557617
2.187382698059082 18.01478385925293 0.32681700587272644
-0.7409716844558716 18.386781692504883 0.3314022719860077
-3.514643430709839 28.945648193359375 0.5251171588897705
-7.876410961151123 27.192489624023438 0.5098452568054199
-11.97188949584961 25.23018455505371 0.5029342770576477
-14.189492225646973 8.972875595092773 0.3023480176925659
2.187387704849243 18.014789581298828 0.12568755447864532
0.7029833793640137 17.444671630859375 0.12092040479183197
-0.7409619092941284 18.386762619018555 0.1274508684873581
-3.514638662338257 28.945648193359375 0.20194701850414276
-14.184809684753418 8.969922065734863 0.11623778939247131
2.187392473220825 18.014789581298828 -0.0754113718867302
0.7029833793640137 17.444671630859375 -0.07255157083272934
-0.740966796875 18.386781692504883 -0.07646942138671875
-3.5298047065734863 29.070526123046875 -0.12169478833675385
-0.9470165967941284 4.638813495635986 -0.019675597548484802
-16.164731979370117 23.41859245300293 -0.11825194954872131
9.41213321685791 16.302309036254883 -0.28684723377227783
0.7029833793640137 17.444671630859375 -0.2660386562347412
-0.740966796875 18.386781692504883 -0.28040632605552673
-0.9469677805900574 4.638539791107178 -0.07214111089706421
-11.971879959106445 25.23018455505371 -0.42554840445518494
-14.048612594604492 24.332895278930664 -0.428149551153183
-16.164731979370117 23.41859245300293 -0.4336135685443878
-18.349857330322266 22.474456787109375 -0.44212156534194946
-14.1754732131958 8.964018821716309 -0.25557342171669006
13.92946720123291 8.8084716796875 -0.4338482618331909
0.7029833793640137 17.444671630859375 -0.4595913589000702
-3.5298047065734863 29.070526123046875 -0.7708845138549805
-0.94691401720047 4.638281345367432 -0.12461929023265839
-7.864037990570068 27.1497802734375 -0.7440789341926575
-18.3498477935791 22.474462509155273 -0.7637786865234375
-14.170804977416992 8.961069107055664 -0.441365510225296
9.399394035339355 16.28023910522461 -0.7034008502960205
0.7029833793640137 17.444671630859375 -0.6532617211341858
-9.969740867614746 26.288026809692383 -1.0519901514053345
-11.97188949584961 25.23018455505371 -1.0449345111846924
-14.048612594604492 24.332895278930664 -1.05132257938385
-16.164731979370117 23.41859245300293 -1.064738154411316
13.927988052368164 8.807538986206055 -0.7995564341545105
9.39303207397461 16.269224166870117 -0.9114884734153748
3.7514843940734863 18.376001358032227 -0.9099807739257812
2.187387704849243 18.014789581298828 -0.8804847598075867
0.7029833793640137 17.444671630859375 -0.8470904231071472
-0.740966796875 18.386781692504883 -0.8928375244140625
-0.9468066096305847 4.637739181518555 -0.22966216504573822
-7.794037818908691 26.908084869384766 -1.3592281341552734
-9.863149642944336 26.00699234008789 -1.3495407104492188
-11.918231964111328 25.117103576660156 -1.3489021062850952
-13.988539695739746 24.228832244873047 -1.3574286699295044
-14.168061256408691 8.959321022033691 -0.8133367896080017
13.927250862121582 8.807074546813965 -0.9826532006263733
8.010019302368164 13.87376880645752 -0.9553292393684387
2.187387704849243 18.014789581298828 -1.0821715593338013
-2.083022356033325 17.15518569946289 -1.0305336713790894
-0.9467529058456421 4.637475490570068 -0.28225311636924744
-9.9074068069458 26.123666763305664 -1.666111707687378
-11.97188949584961 25.23018455505371 -1.6653499603271484
-16.164731979370117 23.41859245300293 -1.6969109773635864
13.926513671875 8.80660629272461 -1.1659725904464722
7.947368144989014 13.7652587890625 -1.1247442960739136
2.187387704849243 18.014789581298828 -1.2841250896453857
-0.6481640338897705 16.083906173706055 -1.139052391052246
-0.9466943144798279 4.637216567993164 -0.3349069058895111
-7.827172756195068 27.022470474243164 -1.9907641410827637
-9.9074068069458 26.123666763305664 -1.977038860321045
-14.048612594604492 24.332895278930664 -1.9882158041000366
-16.16474151611328 23.41859245300293 -2.0135858058929443
-18.3498477935791 22.474462509155273 -2.0530970096588135
13.74319076538086 3.387397289276123 -1.1593682765960693
7.924428462982178 13.725526809692383 -1.2981517314910889
12.286904335021973 25.894134521484375 -2.347599983215332
10.1634521484375 26.798847198486328 -2.347599983215332
7.974076747894287 27.529769897460938 -2.347599983215332
0.6244921684265137 15.496923446655273 -1.2703542709350586
-2.060976505279541 16.97366714477539 -1.4004933834075928
-0.9466406106948853 4.636943340301514 -0.38763853907585144
-7.827167987823486 27.022470474243164 -2.3043410778045654
-18.12675666809082 22.201234817504883 -2.347599983215332
-21.45332908630371 19.006006240844727 -2.347599983215332
-14.164301872253418 8.956948280334473 -1.3726751804351807
26.86016082763672 1.9531249563442543e-05 -2.5
26.77305793762207 2.1613574028015137 -2.5
26.512325286865234 4.308671951293945 -2.5
15.323495864868164 5.115736961364746 -1.5036098957061768
23.783485412597656 12.482548713684082 -2.5
10.912348747253418 15.809287071228027 -1.7879363298416138
7.910981178283691 13.702226638793945 -1.47262442111969
3.377070188522339 16.541976928710938 -1.571394920349121
0.6244921684265137 15.496923446655273 -1.443541169166565
-0.6389746069908142 15.855868339538574 -1.4769768714904785
-2.060976505279541 16.973661422729492 -1.5914205312728882
-0.946582019329071 4.636674880981445 -0.4404585063457489
-7.017397403717041 24.2269287109375 -2.347599983215332
-10.812811851501465 22.78750991821289 -2.347599983215332
-17.472415924072266 18.190711975097656 -2.347599983215332
-20.164154052734375 15.152377128601074 -2.347599983215332
-24.710790634155273 10.528276443481445 -2.5
-25.47783660888672 8.505742073059082 -2.5
-26.07964324951172 6.428031921386719 -2.5
-26.512319564819336 4.308681488037109 -2.5
-26.77305030822754 2.161332845687866 -2.5
23.977577209472656 2.9296874345163815e-05 -2.5
13.005138397216797 3.2054834365844727 -1.3965487480163574
15.641579627990723 5.221923828125 -1.7193365097045898
22.058876037597656 9.398417472839355 -2.5
18.00015640258789 13.52626895904541 -2.347599983215332
16.853403091430664 14.930825233459473 -2.347599983215332
14.240087509155273 17.440946578979492 -2.347599983215332
10.912348747253418 15.809287071228027 -2.0028836727142334
7.856953144073486 13.60866641998291 -1.6383986473083496
8.1021728515625 17.074989318847656 -1.9705660343170166
7.984242916107178 21.052753448486328 -2.347599983215332
6.264301776885986 21.626943588256836 -2.347599983215332
3.377065420150757 16.541973114013672 -1.760306715965271
1.9022314548492432 15.66624927520752 -1.6454241275787354
0.6244921684265137 15.496923446655273 -1.617084264755249
-0.6389794945716858 15.855868339538574 -1.654537320137024
-2.060976505279541 16.97366714477539 -1.782741665840149
-0.946533203125 4.636401176452637 -0.4933813512325287
-9.6524658203125 20.34196662902832 -2.347599983215332
-12.79042911529541 18.530258178710938 -2.347599983215332
-15.597323417663574 16.23853874206543 -2.347599983215332
-16.853515625 14.930648803710938 -2.347599983215332
-14.07603931427002 8.901137351989746 -1.7364422082901
-21.2310791015625 11.14293384552002 -2.5
-22.05887222290039 9.398393630981445 -2.5
-22.743627548217773 7.59292459487915 -2.5
-23.280853271484375 5.738183498382568 -2.5
-23.667055130004883 3.8462841510772705 -2.5
-23.89981460571289 1.929384708404541 -2.5
21.648895263671875 1.9531249563442543e-05 -2.5
21.57869529724121 1.7420116662979126 -2.5
21.368549346923828 3.472734212875366 -2.5
12.973146438598633 3.1975927352905273 -1.5429656505584717
16.25200080871582 12.212616920471191 -2.347599983215332
15.216598510742188 13.480741500854492 -2.347599983215332
7.840537071228027 13.580214500427246 -1.8108413219451904
7.208823204040527 19.008113861083984 -2.347599983215332
5.655922889709473 19.52653694152832 -2.347599983215332
3.36669921875 16.491195678710938 -1.9436721801757812
1.9022216796875 15.666244506835938 -1.822414755821228
-0.6389746069908142 15.855868339538574 -1.832511067390442
-2.0331785678863525 16.744638442993164 -1.9478617906570435
-10.164569854736328 17.605594635009766 -2.347599983215332
-11.548291206359863 16.730581283569336 -2.347599983215332
-12.85707950592041 15.747079849243164 -2.347599983215332
-14.082514762878418 14.661444664001465 -2.347599983215332
-14.06375503540039 8.893363952636719 -1.9215471744537354
-19.16913604736328 10.060742378234863 -2.5
-21.36854362487793 3.472729444503784 -2.5
-21.578691482543945 1.7420018911361694 -2.5
19.72798728942871 1.9531249563442543e-05 -2.5
19.472517013549805 3.164604425430298 -2.5
15.521162033081055 5.181728363037109 -2.07361102104187
13.841208457946777 8.752655982971191 -2.0752806663513184
14.80996322631836 11.128984451293945 -2.347599983215332
12.832968711853027 13.360536575317383 -2.347599983215332
10.523598670959473 15.24608325958252 -2.347599983215332
6.569174766540527 17.321523666381836 -2.347599983215332
3.2248144149780273 15.796186447143555 -2.043037176132202
1.8527636528015137 15.258881568908691 -1.9478617906570435
0.6189111471176147 15.35848617553711 -1.9478617906570435
-0.6189355254173279 15.35848617553711 -1.9478617906570435
-1.9677783250808716 16.206064224243164 -2.0687739849090576
-0.9464208483695984 4.635859489440918 -0.5995905995368958
-5.154047966003418 17.793970108032227 -2.347599983215332
-6.569199085235596 17.321502685546875 -2.347599983215332
-6.056288719177246 12.763407707214355 -1.790272831916809
-7.108188152313232 12.311762809753418 -1.8015499114990234
-12.832968711853027 13.3605318069458 -2.347599983215332
-17.4682559967041 9.168051719665527 -2.5
-18.149335861206055 7.732705116271973 -2.5
-18.71271514892578 6.247201919555664 -2.5
-19.472509384155273 3.1645848751068115 -2.5
-19.66400909423828 1.5874218940734863 -2.5
17.88145637512207 2.9060254096984863 -2.5
12.935619354248047 3.1883397102355957 -1.8385283946990967
15.719772338867188 5.248032093048096 -2.2870125770568848
16.04097557067871 8.418954849243164 -2.5
13.824973106384277 8.742392539978027 -2.25728440284729
12.73343276977539 11.28084945678711 -2.347599983215332
9.663740158081055 14.000361442565918 -2.347599983215332
4.73293924331665 16.340044021606445 -2.347599983215332
1.8447802066802979 15.193148612976074 -2.1120402812957764
0.5956494212150574 14.781195640563965 -2.0414481163024902
-0.604907214641571 15.010326385498047 -2.0730929374694824
-0.9463622570037842 4.635590553283691 -0.6529026627540588
-6.056298732757568 12.763402938842773 -1.949567198753357
-7.108188152313232 12.311762809753418 -1.9618483781814575
-10.758964538574219 13.177338600158691 -2.347599983215332
-16.666406631469727 7.100893497467041 -2.5
-17.183740615844727 5.736762523651123 -2.5
-17.881460189819336 2.906020402908325 -2.5
-18.057310104370117 1.4577147960662842 -2.5
16.743764877319336 9.765624781721272e-06 -2.5
12.94167709350586 3.1898388862609863 -1.990143060684204
15.403910636901855 6.562993049621582 -2.5
14.8258638381958 7.781225204467773 -2.5
11.768872261047363 10.4263277053833 -2.347599983215332
9.943974494934082 12.17916488647461 -2.347599983215332
7.861523151397705 13.616572380065918 -2.347599983215332
6.740346431732178 14.205009460449219 -2.347599983215332
5.575473308563232 14.701313018798828 -2.347599983215332
3.145009756088257 15.405302047729492 -2.347599983215332
1.8447802066802979 15.193148612976074 -2.2851409912109375
0.5956494212150574 14.781195640563965 -2.20876407623291
-0.6048974394798279 15.010326385498047 -2.24300217628479
-5.575473308563232 14.701313018798828 -2.347599983215332
-7.108188152313232 12.311762809753418 -2.122638702392578
-8.93172836303711 12.939814567565918 -2.347599983215332
-9.943984031677246 12.179155349731445 -2.347599983215332
-11.768872261047363 10.426318168640137 -2.347599983215332
-12.569682121276855 9.4454927444458 -2.347599983215332
-14.825849533081055 7.781205654144287 -2.5
-15.882060050964355 5.302202224731445 -2.5
-16.25723648071289 4.007026195526123 -2.5
-16.68946647644043 1.3472851514816284 -2.5
14.315885543823242 6.099443435668945 -2.5
11.681840896606445 8.778359413146973 -2.347599983215332
10.937602043151855 9.6898775100708 -2.347599983215332
9.24160099029541 11.3189058303833 -2.347599983215332
8.300825119018555 12.025849342346191 -2.347599983215332
4.065444469451904 14.035561561584473 -2.347599983215332
0.58837890625 14.600629806518555 -2.347599983215332
-0.5883837938308716 14.600634574890137 -2.347599983215332
-0.9462499618530273 4.635048866271973 -0.7600128054618835
-7.059902191162109 12.228119850158691 -2.2684473991394043
-9.241591453552246 11.318901062011719 -2.347599983215332
-10.122426986694336 10.538549423217773 -2.347599983215332
-11.681845664978027 8.778339385986328 -2.347599983215332
-12.350321769714355 7.809873104095459 -2.347599983215332
-13.778656959533691 7.23159646987915 -2.5
-15.359564781188965 2.4961767196655273 -2.5
14.48393726348877 1.1692675352096558 -2.5
14.34288501739502 2.3309521675109863 -2.5
13.78323745727539 4.601523399353027 -2.5
10.908588409423828 8.19728946685791 -2.347599983215332
8.629867553710938 10.569677352905273 -2.347599983215332
7.751367092132568 11.229814529418945 -2.347599983215332
5.84960412979126 12.327802658081055 -2.347599983215332
4.838666915893555 12.758520126342773 -2.347599983215332
3.796328067779541 13.106493949890137 -2.347599983215332
0.5494238138198853 13.634169578552246 -2.347599983215332
-1.6447558403015137 13.545751571655273 -2.347599983215332
-0.9461962580680847 4.634770393371582 -0.8138383030891418
-3.7963671684265137 13.106484413146973 -2.347599983215332
-5.849594593048096 12.327807426452637 -2.347599983215332
-6.822612285614014 11.81712818145752 -2.347599983215332
-8.6298828125 10.569658279418945 -2.347599983215332
-10.213607788085938 9.048466682434082 -2.347599983215332
-11.532816886901855 7.292910099029541 -2.347599983215332
-13.368270874023438 5.69567346572876 -2.5
-13.78323745727539 4.601508617401123 -2.5
-14.108808517456055 3.477485179901123 -2.5
-14.342880249023438 2.3309521675109863 -2.5
13.625680923461914 9.765624781721272e-06 -2.5
12.064936637878418 6.332167625427246 -2.5
10.228910446166992 7.686537742614746 -2.347599983215332
7.268413066864014 10.530121803283691 -2.347599983215332
-0.515209972858429 12.784672737121582 -2.347599983215332
-1.542260766029358 12.701762199401855 -2.347599983215332
-4.537187576293945 11.963574409484863 -2.347599983215332
-5.485151290893555 11.559677124023438 -2.347599983215332
-6.397524356842041 11.08083438873291 -2.347599983215332
-7.268413066864014 10.530112266540527 -2.347599983215332
-8.092177391052246 9.911117553710938 -2.347599983215332
-8.863442420959473 9.22781753540039 -2.347599983215332
-10.228910446166992 7.6865234375 -2.347599983215332
-10.814248085021973 6.838515281677246 -2.347599983215332
-12.064946174621582 6.332158088684082 -2.5
-12.924443244934082 4.314804553985596 -2.5
-13.449223518371582 2.185717821121216 -2.5
-13.581493377685547 1.0963964462280273 -2.5
12.82345199584961 1.9531249563442543e-05 -2.5
12.781879425048828 1.0318652391433716 -2.5
12.657392501831055 2.0570263862609863 -2.5
12.450824737548828 3.068857431411743 -2.5
11.797314643859863 5.026371955871582 -2.5
11.354594230651855 5.959355354309082 -2.5
10.177553176879883 6.43590784072876 -2.347599983215332
9.62667465209961 7.233989238739014 -2.347599983215332
6.840478420257568 9.910151481628418 -2.347599983215332
6.020859241485596 10.428442001342773 -2.347599983215332
5.162187576293945 10.879101753234863 -2.347599983215332
3.350214719772339 11.566298484802246 -2.347599983215332
1.4514696598052979 11.953930854797363 -2.347599983215332
-1.4514696598052979 11.953930854797363 -2.347599983215332
-3.3502538204193115 11.566279411315918 -2.347599983215332
-9.013359069824219 7.985146522521973 -2.347599983215332
-9.626669883728027 7.233974456787109 -2.347599983215332
-11.7972993850708 5.026362419128418 -2.5
-12.163500785827637 4.060776233673096 -2.5
-12.65738296508789 2.0570263862609863 -2.5
11.755688667297363 2.897514581680298 -2.5
10.02432632446289 6.33901834487915 -2.4489853382110596
8.510146141052246 7.539340496063232 -2.347599983215332
7.19054651260376 8.806825637817383 -2.347599983215332
6.458574295043945 9.356864929199219 -2.347599983215332
5.68472146987915 9.846220016479492 -2.347599983215332
4.873993873596191 10.271723747253418 -2.347599983215332
2.274184465408325 11.13967227935791 -2.347599983215332
1.3704345226287842 11.286542892456055 -2.347599983215332
-0.4577978551387787 11.360214233398438 -2.347599983215332
-1.3704345226287842 11.286538124084473 -2.347599983215332
-4.873989105224609 10.271718978881836 -2.347599983215332
-5.684726238250732 9.846220016479492 -2.347599983215332
-7.1905517578125 8.8068208694458 -2.347599983215332
-9.609335899353027 6.076571941375732 -2.347599983215332
-11.755688667297363 2.8975000381469727 -2.5
-11.95071792602539 1.942177653312683 -2.5
-12.068251609802246 0.9742285013198853 -2.5
11.464521408081055 9.765624781721272e-06 -2.5
11.427343368530273 0.9225097298622131 -2.5
11.316059112548828 1.8390429019927979 -2.5
11.13138198852539 2.743642568588257 -2.5
10.874516487121582 3.6304588317871094 -2.5
8.606513023376465 6.467377662658691 -2.347599983215332
6.808681488037109 8.339111328125 -2.347599983215332
3.8175437450408936 10.066044807434082 -2.347599983215332
2.995185375213623 10.340590476989746 -2.347599983215332
2.1534032821655273 10.548066139221191 -2.347599983215332
1.2976512908935547 10.687138557434082 -2.347599983215332
0.4334814250469208 10.7568941116333 -2.347599983215332
-0.43349120020866394 10.756903648376465 -2.347599983215332
-1.297646403312683 10.687138557434082 -2.347599983215332
-2.995190382003784 10.340585708618164 -2.347599983215332
-3.8175437450408936 10.066044807434082 -2.347599983215332
-4.615151405334473 9.726215362548828 -2.347599983215332
-6.115585803985596 8.859930992126465 -2.347599983215332
-6.808676719665527 8.339120864868164 -2.347599983215332
-7.457616806030273 7.764204025268555 -2.347599983215332
-8.058188438415527 7.138935565948486 -2.347599983215332
-8.606508255004883 6.467377662658691 -2.347599983215332
-11.131376266479492 2.7436327934265137 -2.5
-11.316059112548828 1.8390331268310547 -2.5
-11.427338600158691 0.9224902391433716 -2.5
10.848407745361328 0.875781238079071 -2.5
10.567456245422363 2.6046435832977295 -2.5
10.012787818908691 4.266054630279541 -2.5
9.180986404418945 5.805703163146973 -2.4951601028442383
8.170488357543945 6.139731407165527 -2.347599983215332
7.649955749511719 6.777275085449219 -2.347599983215332
6.46373987197876 7.916635513305664 -2.347599983215332
5.805751800537109 8.411084175109863 -2.347599983215332
5.110112190246582 8.85097599029541 -2.347599983215332
4.381332874298096 9.233471870422363 -2.347599983215332
3.624140501022339 9.556078910827637 -2.347599983215332
2.843437433242798 9.816718101501465 -2.347599983215332
0.4115234315395355 10.21193790435791 -2.347599983215332
-0.4115332067012787 10.211942672729492 -2.347599983215332
-0.9459081888198853 4.633388519287109 -1.0862470865249634
-2.84344220161438 9.816718101501465 -2.347599983215332
-3.6241455078125 9.556083679199219 -2.347599983215332
-4.381337642669678 9.233466148376465 -2.347599983215332
-6.46373987197876 7.916630744934082 -2.347599983215332
-7.079809188842773 7.370859146118164 -2.347599983215332
-8.170488357543945 6.139721393585205 -2.347599983215332
-9.1743745803833 5.801523208618164 -2.493361234664917
-9.637036323547363 5.057909965515137 -2.5
-10.323588371276855 3.446523427963257 -2.5
-10.567450523376465 2.604624032974243 -2.5
-10.74276351928711 1.74587881565094 -2.5
-10.848398208618164 0.8757616877555847 -2.5
10.35635757446289 9.765624781721272e-06 -2.5
9.527631759643555 4.059350490570068 -2.5
0.39158201217651367 9.717138290405273 -2.347599983215332
-0.9458544850349426 4.633100509643555 -1.1414892673492432
-3.448539972305298 9.093056678771973 -2.347599983215332
-6.736767292022705 7.013710975646973 -2.347599983215332
-7.774609088897705 5.842226505279541 -2.347599983215332
-10.055419921875 2.4784326553344727 -2.5
-10.322763442993164 0.8333398103713989 -2.5
9.843280792236328 0.794628918170929 -2.5
9.58834457397461 2.3633153438568115 -2.5
9.36708927154541 3.127202033996582 -2.5
9.085078239440918 3.870790958404541 -2.5
8.342138290405273 5.275249004364014 -2.4986908435821533
7.413471698760986 5.570873737335205 -2.347599983215332
6.423842430114746 6.687929630279541 -2.347599983215332
5.267831802368164 7.631777286529541 -2.347599983215332
4.636650085449219 8.03091812133789 -2.347599983215332
3.975395441055298 8.377968788146973 -2.347599983215332
3.2883543968200684 8.67068862915039 -2.347599983215332
-1.117773413658142 9.2056884765625 -2.347599983215332
-0.9457958936691284 4.632817268371582 -1.1970216035842896
-3.288344621658325 8.670698165893555 -2.347599983215332
-4.636655330657959 8.030913352966309 -2.347599983215332
-5.86486291885376 7.183139324188232 -2.347599983215332
-8.744145393371582 4.589272499084473 -2.5
-9.58834457397461 2.3633105754852295 -2.5
-9.747416496276855 1.5841113328933716 -2.5
9.312426567077637 1.5134179592132568 -2.5
9.1604585647583 2.2578516006469727 -2.5
8.679643630981445 3.6980466842651367 -2.5
7.974032878875732 5.04248046875 -2.5
7.0826416015625 5.322255611419678 -2.347599983215332
5.603129863739014 6.862587928771973 -2.347599983215332
5.032748699188232 7.291205883026123 -2.347599983215332
3.797988176345825 8.004091262817383 -2.347599983215332
2.464858293533325 8.50967788696289 -2.347599983215332
1.0678906440734863 8.794873237609863 -2.347599983215332
0.35673338174819946 8.852279663085938 -2.347599983215332
-0.9457373023033142 4.632529258728027 -1.2528584003448486
-3.141606330871582 8.283744812011719 -2.347599983215332
-3.797988176345825 8.004081726074219 -2.347599983215332
-4.429736137390137 7.672519207000732 -2.347599983215332
-5.032763481140137 7.291196346282959 -2.347599983215332
-6.137167930603027 6.389467716217041 -2.347599983215332
-6.631406307220459 5.87490701675415 -2.347599983215332
-7.0826416015625 5.322260856628418 -2.347599983215332
-7.970253944396973 5.040078163146973 -2.498814344406128
-8.679633140563965 3.6980369091033936 -2.5
-8.94906234741211 2.9876365661621094 -2.5
-9.1604585647583 2.257827043533325 -2.5
-9.312431335449219 1.5134179592132568 -2.5
-9.404013633728027 0.7591601610183716 -2.5
9.029292106628418 0.0 -2.5
8.912358283996582 1.4483983516693115 -2.5
8.306753158569336 3.539189338684082 -2.5
7.995034217834473 4.196117877960205 -2.5
4.816533088684082 6.977963924407959 -2.347599983215332
4.239418983459473 7.3428955078125 -2.347599983215332
3.6348142623901367 7.660224437713623 -2.347599983215332
3.0066356658935547 7.927870750427246 -2.347599983215332
2.358964681625366 8.144091606140137 -2.347599983215332
0.3414062559604645 8.471967697143555 -2.347599983215332
-0.34141111373901367 8.471977233886719 -2.347599983215332
-2.3589696884155273 8.144086837768555 -2.347599983215332
-3.0066356658935547 7.927870750427246 -2.347599983215332
-4.816537857055664 6.977958679199219 -2.347599983215332
-5.873505592346191 6.114965915679932 -2.347599983215332
-6.346513748168945 5.622514724731445 -2.347599983215332
-6.818041801452637 5.123427391052246 -2.3613440990448
-7.995009422302246 4.196117877960205 -2.5
-8.306742668151855 3.5391697883605957 -2.5
-8.564594268798828 2.8592822551727295 -2.5
-8.766908645629883 2.160835027694702 -2.5
-8.999995231628418 0.7265527248382568 -2.5
8.655160903930664 9.765624781721272e-06 -2.5
8.627089500427246 0.6964550614356995 -2.5
8.543070793151855 1.3883886337280273 -2.5
8.209735870361328 2.7408103942871094 -2.5
5.630136489868164 5.86160135269165 -2.347599983215332
5.140229225158691 6.295629978179932 -2.347599983215332
3.484199047088623 7.342822074890137 -2.347599983215332
2.8820605278015137 7.599374771118164 -2.347599983215332
1.6257177591323853 7.963281154632568 -2.347599983215332
0.979663074016571 8.06827163696289 -2.347599983215332
0.32725584506988525 8.12093734741211 -2.347599983215332
-0.3272656202316284 8.120932579040527 -2.347599983215332
-0.979663074016571 8.06827163696289 -2.347599983215332
-0.9456201195716858 4.631962776184082 -1.3655169010162354
-2.8820605278015137 7.599374771118164 -2.347599983215332
-3.484204053878784 7.342826843261719 -2.347599983215332
-4.063774108886719 7.038647174835205 -2.347599983215332
-4.61697244644165 6.688817977905273 -2.347599983215332
-5.140219688415527 6.295629978179932 -2.347599983215332
-5.630141258239746 5.861596584320068 -2.347599983215332
-6.781874656677246 5.096250057220459 -2.450347661972046
-7.315253734588623 4.625874042510986 -2.5
-7.663754940032959 4.022241115570068 -2.5
8.30868148803711 9.765624781721272e-06 -2.5
8.281743049621582 0.6685546636581421 -2.5
8.201088905334473 1.3327929973602295 -2.5
8.067245483398438 1.9883984327316284 -2.5
7.88109827041626 2.631098508834839 -2.5
7.356972694396973 3.8612401485443115 -2.5
6.628368854522705 4.980898380279541 -2.4947524070739746
5.840019226074219 5.173808574676514 -2.347599983215332
4.934453010559082 6.043612957000732 -2.347599983215332
3.9010984897613525 6.756889343261719 -2.347599983215332
2.170703172683716 7.49413537979126 -2.347599983215332
1.5606396198272705 7.644506454467773 -2.347599983215332
-0.31416013836860657 7.795844554901123 -2.347599983215332
-0.94044429063797 7.745292663574219 -2.347599983215332
-0.945556640625 4.631674766540527 -1.4223705530166626
-2.170712947845459 7.494130611419678 -2.347599983215332
-3.344731330871582 7.048886775970459 -2.347599983215332
-3.9010887145996094 6.756889343261719 -2.347599983215332
-6.624936580657959 4.978320121765137 -2.4934604167938232
-7.022417068481445 4.44070291519165 -2.5
-7.643808364868164 3.256723642349243 -2.5
-7.881083965301514 2.6310887336730957 -2.5
-8.201079368591309 1.3328124284744263 -2.5
7.960912704467773 0.6426659822463989 -2.5
7.754731178283691 1.9113671779632568 -2.5
7.575795650482178 2.529169797897339 -2.5
7.071977615356445 3.7116551399230957 -2.5
5.195395469665527 5.408969402313232 -2.347599983215332
4.743305683135986 5.809487342834473 -2.347599983215332
4.260454177856445 6.172328948974609 -2.347599983215332
3.7499754428863525 6.495136737823486 -2.347599983215332
3.215165853500366 6.775815486907959 -2.347599983215332
2.6595165729522705 7.012563228607178 -2.347599983215332
2.086606502532959 7.203823089599609 -2.347599983215332
1.5001806020736694 7.348369121551514 -2.347599983215332
0.9040185213088989 7.445253849029541 -2.347599983215332
-0.9040185213088989 7.445249080657959 -2.347599983215332
-2.086611270904541 7.203813552856445 -2.347599983215332
-4.743305683135986 5.809492111206055 -2.347599983215332
-5.61376953125 4.973383903503418 -2.347599983215332
-6.373256683349609 4.789194107055664 -2.4954047203063965
-6.750375747680664 4.2686767578125 -2.5
-7.071972370147705 3.7116503715515137 -2.5
-7.575786113739014 2.529165029525757 -2.5
-7.754731178283691 1.9113671779632568 -2.5
-7.883393287658691 1.281191349029541 -2.5
-7.960912704467773 0.6426659822463989 -2.5
7.587426662445068 1.2330760955810547 -2.5
7.463603496551514 1.8396093845367432 -2.5
7.291367053985596 2.4342236518859863 -2.5
7.071855545043945 3.0130419731140137 -2.5
6.4969482421875 4.10842752456665 -2.5
6.141737937927246 4.615214824676514 -2.498555898666382
5.000346660614014 5.205903053283691 -2.347599983215332
4.100502967834473 5.940600395202637 -2.347599983215332
3.609184503555298 6.251298904418945 -2.347599983215332
3.0944578647613525 6.521435260772705 -2.347599983215332
-0.2906543016433716 7.212514400482178 -2.347599983215332
-0.9454442858695984 4.631083965301514 -1.537216305732727
-2.0082762241363525 6.933369159698486 -2.347599983215332
-2.5596630573272705 6.749287128448486 -2.347599983215332
-4.100507736206055 5.940595626831055 -2.347599983215332
-4.565219402313232 5.591381549835205 -2.347599983215332
-5.404726505279541 4.788173675537109 -2.3483409881591797
-6.13891077041626 4.613085746765137 -2.497405529022217
-6.496953010559082 4.108413219451904 -2.5
-6.806464672088623 3.5723094940185547 -2.5
-7.071850299835205 3.0130321979522705 -2.5
-7.662035942077637 0.6185253858566284 -2.5
7.310971736907959 1.1881444454193115 -2.5
7.025698184967041 2.345522403717041 -2.5
6.5584716796875 3.4421582221984863 -2.5
5.461899280548096 4.838823318481445 -2.4629220962524414
4.81814432144165 5.016220569610596 -2.347599983215332
4.398881912231445 5.387641429901123 -2.347599983215332
3.9510886669158936 5.724145412445068 -2.347599983215332
3.4776806831359863 6.023505687713623 -2.347599983215332
2.9817137718200684 6.2838134765625 -2.347599983215332
2.4664013385772705 6.503364086151123 -2.347599983215332
0.83837890625 6.904633522033691 -2.347599983215332
-0.2800634801387787 6.94970178604126 -2.347599983215332
-0.9453856945037842 4.630785942077637 -1.59524405002594
-1.935097575187683 6.680737018585205 -2.347599983215332
-2.4664013385772705 6.503368854522705 -2.347599983215332
-2.9817090034484863 6.28380823135376 -2.347599983215332
-3.4776806831359863 6.023505687713623 -2.347599983215332
-3.9510936737060547 5.724130630493164 -2.347599983215332
-4.398876667022705 5.387641429901123 -2.347599983215332
-4.81814432144165 5.016205787658691 -2.347599983215332
-5.9197998046875 4.448432445526123 -2.4993345737457275
-6.260219573974609 3.9587109088897705 -2.5
-7.025698184967041 2.345517635345459 -2.5
7.144594669342041 9.765624781721272e-06 -2.5
7.052074909210205 1.1460644006729126 -2.5
6.572880744934082 2.8004345893859863 -2.5
6.038539886474609 3.818544864654541 -2.5
5.711689472198486 4.292060375213623 -2.5
5.334267616271973 4.725751876831055 -2.493673324584961
4.243110179901123 5.196860313415527 -2.347599983215332
2.3790576457977295 6.273076057434082 -2.347599983215332
1.8665722608566284 6.444159984588623 -2.347599983215332
1.3419872522354126 6.573471546173096 -2.347599983215332
0.2701416015625 6.703618049621582 -2.347599983215332
-0.9417040944099426 4.612788200378418 -1.647377848625183
-2.3790674209594727 6.2730712890625 -2.347599983215332
-3.8111815452575684 5.521435260772705 -2.347599983215332
-4.647524356842041 4.838579177856445 -2.347599983215332
-5.332036018371582 4.72378396987915 -2.4926345348358154
-5.711684226989746 4.292055606842041 -2.5
-6.038539886474609 3.8185300827026367 -2.5
-6.326220512390137 3.320253849029541 -2.5
-6.572885513305664 2.800429582595825 -2.5
-6.776908874511719 2.262460947036743 -2.5
-6.936977386474609 1.709804654121399 -2.5
-7.052065372467041 1.146083950996399 -2.5
6.876044750213623 0.5550878643989563 -2.5
6.80907678604126 1.1065820455551147 -2.5
6.543403148651123 2.184506893157959 -2.5
6.346401214599609 2.7039451599121094 -2.5
6.108242034912109 3.2058496475219727 -2.5
5.830478191375732 3.6869726181030273 -2.5
5.514892578125 4.144174575805664 -2.5
3.6798534393310547 5.331196308135986 -2.347599983215332
2.7770214080810547 5.852441310882568 -2.347599983215332
2.2970898151397705 6.056918621063232 -2.347599983215332
1.8022607564926147 6.222124099731445 -2.347599983215332
0.7808251976966858 6.430644512176514 -2.347599983215332
-0.7808251976966858 6.430649280548096 -2.347599983215332
-2.7770068645477295 5.852441310882568 -2.347599983215332
-5.830468654632568 3.686953067779541 -2.5
-6.108237266540527 3.2058398723602295 -2.5
-6.346391677856445 2.7039403915405273 -2.5
-6.543393611907959 2.184501886367798 -2.5
-6.697954177856445 1.6508984565734863 -2.5
-6.80907678604126 1.1065820455551147 -2.5
6.580512523651123 1.069433569908142 -2.5
6.473119735717773 1.5954785346984863 -2.5
5.9031982421875 3.0982372760772705 -2.5
5.634750843048096 3.5632078647613525 -2.5
5.329760551452637 4.005053520202637 -2.5
4.985146522521973 4.416450023651123 -2.497464179992676
3.9593944549560547 4.849360466003418 -2.347599983215332
3.55633282661438 5.152235984802246 -2.347599983215332
3.1302196979522705 5.421699047088623 -2.347599983215332
2.6838035583496094 5.655986309051514 -2.347599983215332
2.219975471496582 5.853598594665527 -2.347599983215332
1.7417528629302979 6.013256549835205 -2.347599983215332
-0.9329442977905273 4.569872856140137 -1.7490054368972778
-2.219975471496582 5.853598594665527 -2.347599983215332
-3.55633282661438 5.152231216430664 -2.347599983215332
-3.9593799114227295 4.849365234375 -2.347599983215332
-4.402822017669678 4.583808422088623 -2.383361577987671
-5.329755783081055 4.005053520202637 -2.5
-6.323744773864746 2.1111717224121094 -2.5
-6.473110198974609 1.5954785346984863 -2.5
-6.580512523651123 1.0694433450698853 -2.5
6.365063190460205 1.0344336032867432 -2.5
6.261176586151123 1.5432714223861694 -2.5
5.450268268585205 3.446542978286743 -2.5
5.155263423919678 3.8739306926727295 -2.5
3.439892530441284 4.98354959487915 -2.347599983215332
2.1472997665405273 5.661952972412109 -2.347599983215332
1.6847362518310547 5.816381931304932 -2.347599983215332
1.2112499475479126 5.933090686798096 -2.347599983215332
-0.2438330054283142 6.050541877746582 -2.347599983215332
-0.9317626953125 4.5640869140625 -1.8059180974960327
-1.684731364250183 5.816371917724609 -2.347599983215332
-2.5959277153015137 5.470805644989014 -2.347599983215332
-3.0277295112609863 5.244184494018555 -2.347599983215332
-5.450263500213623 3.446537971496582 -2.5
-5.932543754577637 2.5276219844818115 -2.5
-6.261186599731445 1.5432324409484863 -2.5
-6.427651405334473 0.5188866853713989 -2.5
6.06102991104126 1.4939160346984863 -2.5
4.990458965301514 3.7500877380371094 -2.5
4.672524452209473 4.139487266540527 -2.5
2.0786571502685547 5.48095703125 -2.347599983215332
0.7065771222114563 5.819135665893555 -2.347599983215332
0.23603026568889618 5.857119083404541 -2.347599983215332
-0.23603515326976776 5.857123851776123 -2.347599983215332
-0.7065673470497131 5.819140434265137 -2.347599983215332
-0.9305761456489563 4.558261394500732 -1.8631752729415894
-1.6308789253234863 5.630434513092041 -2.347599983215332
-2.0786523818969727 5.480942249298096 -2.347599983215332
-2.512949228286743 5.295912742614746 -2.347599983215332
-2.9309375286102295 5.0765380859375 -2.347599983215332
-3.3299314975738525 4.824223518371582 -2.347599983215332
-3.7073192596435547 4.540634632110596 -2.347599983215332
-4.672519207000732 4.139487266540527 -2.5
-4.990454196929932 3.750073194503784 -2.5
-5.27603006362915 3.3363475799560547 -2.5
-6.06102991104126 1.4939062595367432 -2.5
-6.222177505493164 0.5022948980331421 -2.5
6.047382831573486 9.765624781721272e-06 -2.5
5.969072341918945 0.9700683355331421 -2.5
5.871654987335205 1.4472362995147705 -2.5
5.736156940460205 1.9150097370147705 -2.5
5.354697227478027 2.810370922088623 -2.5
5.111186504364014 3.232119083404541 -2.5
4.834526062011719 3.6329197883605957 -2.5
3.679926633834839 4.507080078125 -2.4054038524627686
2.8393750190734863 4.917919635772705 -2.347599983215332
2.0137059688568115 5.309706687927246 -2.347599983215332
1.5799267292022705 5.454521179199219 -2.347599983215332
0.684497058391571 5.63732385635376 -2.347599983215332
0.22865234315395355 5.674116134643555 -2.347599983215332
-0.6844921708106995 5.637319087982178 -2.347599983215332
-0.9293847680091858 4.552407264709473 -1.9207957983016968
-2.0137059688568115 5.309701919555664 -2.347599983215332
-3.225883722305298 4.673501014709473 -2.347599983215332
-4.1812744140625 4.35317850112915 -2.4952948093414307
-5.111181735992432 3.232109308242798 -2.5
-5.736152172088623 1.9150097370147705 -2.5
-5.969057559967041 0.9700683355331421 -2.5
-6.027758598327637 0.4866015613079071 -2.5
5.862529277801514 9.765624781721272e-06 -2.5
5.843520164489746 0.47172850370407104 -2.5
5.786606311798096 0.9404101371765137 -2.5
5.69216775894165 1.4029881954193115 -2.5
5.191010475158691 2.7244529724121094 -2.5
4.686748027801514 3.521865129470825 -2.5
4.057719707489014 4.224531173706055 -2.4979119300842285
3.127275228500366 4.530634880065918 -2.347599983215332
2.752578020095825 4.767587661743164 -2.347599983215332
2.3600146770477295 4.973618030548096 -2.347599983215332
1.9521484375 5.147392272949219 -2.347599983215332
1.5316259860992432 5.287783145904541 -2.347599983215332
0.66357421875 5.464999675750732 -2.347599983215332
-0.22167479991912842 5.500669002532959 -2.347599983215332
-0.9281737804412842 4.546513557434082 -1.9787962436676025
-1.9521435499191284 5.147392272949219 -2.347599983215332
-2.3600146770477295 4.973622798919678 -2.347599983215332
-3.127275228500366 4.5306396484375 -2.347599983215332
-3.6301023960113525 4.44607400894165 -2.4476654529571533
-4.056440353393555 4.223217487335205 -2.4971299171447754
-4.388149261474609 3.887568235397339 -2.5
-5.191005706787109 2.7244482040405273 -2.5
-5.393393516540527 2.297910213470459 -2.5
-5.786596775054932 0.9404101371765137 -2.5
-5.843510627746582 0.47172850370407104 -2.5
5.687026023864746 0.0 -2.5
5.613383769989014 0.9122655987739563 -2.5
5.521772384643555 1.3609960079193115 -2.5
5.394350528717041 1.8009082078933716 -2.5
5.231953144073486 2.2291259765625 -2.5
5.035610198974609 2.642890453338623 -2.5
4.546454906463623 3.41644024848938 -2.5
3.938969612121582 4.100903034210205 -2.4996373653411865
3.587714672088623 4.394145488739014 -2.493729829788208
3.057319164276123 4.429291725158691 -2.365906000137329
2.289365291595459 4.82473611831665 -2.347599983215332
1.068212866783142 5.232411861419678 -2.347599983215332
0.2150292992591858 5.336005687713623 -2.347599983215332
-0.21503417193889618 5.336010456085205 -2.347599983215332
-1.893715739250183 4.993305683135986 -2.347599983215332
-2.670170783996582 4.624867916107178 -2.347599983215332
-3.586674690246582 4.392880916595459 -2.493011474609375
-4.256792068481445 3.771191358566284 -2.5
-5.035610198974609 2.642890453338623 -2.5
-5.231943130493164 2.229120969772339 -2.5
-5.394345760345459 1.8009082078933716 -2.5
-5.521767616271973 1.360986351966858 -2.5
-5.668583869934082 0.4576074182987213 -2.5
5.520165920257568 -9.765624781721272e-06 -2.5
5.502260684967041 0.4441894292831421 -2.5
5.448681354522705 0.8854882717132568 -2.5
5.359760761260986 1.3210546970367432 -2.5
4.887861251831055 2.5653514862060547 -2.5
4.131904125213623 3.6605420112609863 -2.5
3.8239598274230957 3.981157064437866 -2.5
3.048330068588257 4.416259765625 -2.430253744125366
1.8381494283676147 4.846796989440918 -2.347599983215332
1.0368701219558716 5.078896522521973 -2.347599983215332
0.6248242259025574 5.145844459533691 -2.347599983215332
0.20872558653354645 5.179443359375 -2.347599983215332
-0.20872069895267487 5.179438591003418 -2.347599983215332
-0.9257421493530273 4.534589767456055 -2.0960118770599365
-1.4421825408935547 4.978984355926514 -2.347599983215332
-1.8381445407867432 4.846786975860596 -2.347599983215332
-3.484062433242798 4.267197132110596 -2.494889974594116
-3.8239402770996094 3.981152296066284 -2.5
-4.413046836853027 3.3161962032318115 -2.5
-5.359760761260986 1.321044921875 -2.5
5.361279010772705 9.765624781721272e-06 -2.5
5.205488204956055 1.2830370664596558 -2.5
4.747172832489014 2.491508722305298 -2.5
4.531298637390137 2.86541485786438 -2.5
3.0363574028015137 4.398915767669678 -2.4924538135528564
2.1582274436950684 4.54836893081665 -2.347599983215332
1.785244107246399 4.707299709320068 -2.347599983215332
1.007021427154541 4.932704925537109 -2.347599983215332
0.20271971821784973 5.030356407165527 -2.347599983215332
-0.20271484553813934 5.030361175537109 -2.347599983215332
-0.6068310141563416 4.997729301452637 -2.347599983215332
-1.7852392196655273 4.707284927368164 -2.347599983215332
-3.015942335128784 4.369345664978027 -2.475696563720703
-3.3862743377685547 4.147441387176514 -2.4967336654663086
-3.713876962661743 3.8665478229522705 -2.5
-4.012959003448486 3.55517578125 -2.5
-4.286030292510986 3.2207372188568115 -2.5
-4.531289100646973 2.865410089492798 -2.5
-4.747168064117432 2.491503953933716 -2.5
-4.932255744934082 2.101435422897339 -2.5
-5.291840553283691 0.85999995470047 -2.5
-5.343886375427246 0.43138670921325684 -2.5
