ply
format ascii 1.0
element vertex 856
property float x
property float y
property float z
end_header
-1.153540015220642 28.624467849731445 7.676122665405273
-6.359633445739746 13.402694702148438 3.9750237464904785
-18.188188552856445 22.276473999023438 7.705812931060791
-3.3750391006469727 27.795839309692383 7.170983791351318
-5.488178730010986 26.8828125 7.026877403259277
-7.531054496765137 26.000150680541992 6.932522296905518
-13.909042358398438 24.091136932373047 7.124392032623291
-16.022319793701172 23.2122745513916 7.223498344421387
-3.3750391006469727 27.795839309692383 6.841274261474609
-5.488173484802246 26.882816314697266 6.703794002532959
-6.35473108291626 13.392377853393555 3.62186336517334
-3.4199461936950684 28.16568374633789 6.600009441375732
-7.706113338470459 26.60452651977539 6.443120002746582
-9.777504920959473 25.78116226196289 6.414008617401123
-6.352309226989746 13.3872652053833 3.446937084197998
-13.831313133239746 23.956527709960938 6.434865474700928
-3.4647607803344727 28.5347900390625 6.35159158706665
-5.651523113250732 27.682952880859375 6.243220806121826
-6.349902153015137 13.382182121276855 3.2730424404144287
-14.013690948486328 24.272401809692383 6.193152904510498
-16.022216796875 23.21213722229004 6.232378005981445
-18.125 22.199081420898438 6.332635402679443
-3.4769580364227295 28.635194778442383 6.0394792556762695
-5.653901100158691 27.694602966308594 5.918111324310303
-7.758466720581055 26.785282135009766 5.838644981384277
-6.347495079040527 13.377128601074219 3.1001274585723877
-13.991494178771973 24.23395538330078 5.858887672424316
-18.188779830932617 22.27718734741211 6.021456241607666
-7.758466720581055 26.785282135009766 5.5168137550354
-6.345117092132568 13.37210464477539 2.9281444549560547
-14.013690948486328 24.272401809692383 5.544722557067871
-18.18876838684082 22.27718734741211 5.689549446105957
-3.4769628047943115 28.635194778442383 5.375131130218506
-5.653901100158691 27.694602966308594 5.267114162445068
-7.758466720581055 26.785282135009766 5.196389675140381
-6.342739105224609 13.367109298706055 2.757042169570923
-14.013690948486328 24.272401809692383 5.2226762771606445
-3.4769482612609863 28.635194778442383 5.045050144195557
-9.882787704467773 26.05872917175293 4.87440299987793
-16.02284049987793 23.213031768798828 4.933192729949951
-7.758466720581055 26.785282135009766 4.559414386749268
-9.88277816772461 26.058734893798828 4.55672025680542
-14.013690948486328 24.272401809692383 4.582479000091553
-18.18876838684082 22.27718734741211 4.702171325683594
-3.4769482612609863 28.635194778442383 4.388633728027344
-5.612065315246582 27.489686965942383 4.268617630004883
-6.335683345794678 13.352240562438965 2.248539447784424
-1.1874462366104126 29.46587371826172 4.152852535247803
-3.468559503555298 28.56605339050293 4.052314281463623
-5.653901100158691 27.694602966308594 3.9804911613464355
-7.758466720581055 26.785282135009766 3.927042245864868
-9.820444107055664 25.89436912536621 3.899967670440674
-16.02284049987793 23.213031768798828 3.972059965133667
-1.1937255859375 29.6216983795166 3.8402891159057617
-3.4769482612609863 28.635194778442383 3.736626386642456
-9.820444107055664 25.89436912536621 3.5874650478363037
-16.02284049987793 23.213031768798828 3.6537797451019287
-18.18876838684082 22.27718734741211 3.725475311279297
23.325162887573242 5.749189376831055 2.8416528701782227
22.561805725097656 7.532240867614746 2.8135790824890137
-3.4769678115844727 28.635189056396484 3.4120678901672363
-7.758466720581055 26.785282135009766 3.298602819442749
-9.839961051940918 25.945804595947266 3.2823686599731445
-6.328725337982178 13.337563514709473 1.7462682723999023
-16.022851943969727 23.21302604675293 3.336416006088257
-18.18876838684082 22.27718734741211 3.401883363723755
-5.653901100158691 27.694602966308594 3.0262866020202637
-7.758476257324219 26.785282135009766 2.9856512546539307
-9.839950561523438 25.945810317993164 2.9709575176239014
-6.326416015625 13.3326997756958 1.58001708984375
-16.02284049987793 23.213031768798828 3.0198779106140137
-18.188779830932617 22.27718734741211 3.079134464263916
-1.1937353610992432 29.6216983795166 2.8421239852905273
-5.653901100158691 27.694602966308594 2.709831476211548
-7.758466720581055 26.785282135009766 2.6734459400177
-9.839961051940918 25.945804595947266 2.660288095474243
-6.324116230010986 13.327856063842773 1.4142833948135376
-14.013700485229492 24.272411346435547 2.686971426010132
-16.022851943969727 23.21302604675293 2.704092264175415
-18.188779830932617 22.27718734741211 2.757153272628784
-1.1937353610992432 29.6216983795166 2.5109245777130127
-9.839961051940918 25.945804595947266 2.3502790927886963
-6.321825981140137 13.323026657104492 1.2490209341049194
-14.01370620727539 24.27240753173828 2.3738532066345215
-16.02284049987793 23.213031768798828 2.3889787197113037
-1.1937255859375 29.6216983795166 2.180347204208374
-7.758466720581055 26.785282135009766 2.050945281982422
2.1350536346435547 17.583831787109375 1.1055392026901245
-1.1937353610992432 29.6216983795166 1.8503081798553467
-3.4769482612609863 28.635194778442383 1.800362229347229
-5.653901100158691 27.694602966308594 1.764182448387146
-7.758466720581055 26.785282135009766 1.7404937744140625
-6.3172607421875 13.313403129577637 0.9197421073913574
-16.02284049987793 23.213031768798828 1.7604458332061768
-18.188779830932617 22.27718734741211 1.794988989830017
0.708984375 17.593759536743164 0.9032345414161682
-1.1937353610992432 29.6216983795166 1.520723819732666
-5.653901100158691 27.694602966308594 1.4499402046203613
-7.758476257324219 26.785282135009766 1.430470585823059
-6.314985275268555 13.308608055114746 0.7556430101394653
-16.02284049987793 23.213031768798828 1.4468683004379272
2.1325879096984863 17.563446044921875 0.7110928297042847
0.708984375 17.593759536743164 0.7077010869979858
-1.1885350942611694 29.492733001708984 1.1863280534744263
-5.61767578125 27.51713752746582 1.1287750005722046
-7.715883731842041 26.638261795043945 1.114648461341858
-6.312714576721191 13.303828239440918 0.5918465852737427
-13.84371566772461 23.978012084960938 1.1128076314926147
-16.022851943969727 23.21302604675293 1.1336486339569092
-18.08893585205078 22.154911041259766 1.1495486497879028
-1.1937255859375 29.6216983795166 0.8626006841659546
-7.758466720581055 26.785282135009766 0.8114058971405029
-9.839950561523438 25.945810317993164 0.8074123859405518
-18.18876838684082 22.27718734741211 0.8368111848831177
2.132578134536743 17.563446044921875 0.3186291456222534
-1.1937353610992432 29.6216983795166 0.533896803855896
-3.4769482612609863 28.635194778442383 0.5194851756095886
-7.758466720581055 26.785287857055664 0.5022106766700745
-9.839956283569336 25.945804595947266 0.49973875284194946
-6.308178424835205 13.294261932373047 0.265005499124527
-16.02284049987793 23.213031768798828 0.5079672336578369
2.132578134536743 17.563446044921875 0.12253844738006592
0.708984375 17.593759536743164 0.1219540387392044
-5.646284103393555 27.657255172729492 0.19550292193889618
-7.758466720581055 26.785282135009766 0.19313842058181763
-13.977797508239746 24.21021842956543 0.19361785054206848
-16.02284049987793 23.213031768798828 0.19535216689109802
-18.188779830932617 22.27718734741211 0.1991857886314392
2.1325879096984863 17.563446044921875 -0.073522187769413
0.708984375 17.593759536743164 -0.0731712356209755
-7.758466720581055 26.785282135009766 -0.11588577181100845
-9.839950561523438 25.945810317993164 -0.11531554907560349
-16.02284049987793 23.213031768798828 -0.11721435189247131
-18.188779830932617 22.27718734741211 -0.11951430886983871
-1.1937353610992432 29.6216983795166 -0.4517461955547333
-3.4769482612609863 28.635194778442383 -0.43955230712890625
-7.758466720581055 26.785282135009766 -0.42493560910224915
-9.88277816772461 26.058734893798828 -0.4246845841407776
-6.3013916015625 13.279979705810547 -0.22398772835731506
-13.977797508239746 24.21021842956543 -0.42599213123321533
-16.02284049987793 23.213031768798828 -0.42980682849884033
-18.188779830932617 22.27718734741211 -0.43824049830436707
0.708984375 17.593759536743164 -0.463519424200058
-3.4769482612609863 28.635194778442383 -0.7593401670455933
-5.646274089813232 27.657255172729492 -0.7430770993232727
-9.867114067077637 26.017446517944336 -0.7324932813644409
-16.02284049987793 23.213031768798828 -0.7425045371055603
-18.18876838684082 22.27718734741211 -0.757074236869812
-1.1937353610992432 29.6216983795166 -1.1092642545700073
-5.646284103393555 27.657255172729492 -1.0562057495117188
-9.882787704467773 26.05872917175293 -1.0428138971328735
-13.977797508239746 24.21021842956543 -1.0460212230682373
-16.02284049987793 23.213031768798828 -1.0553916692733765
-18.18876838684082 22.27718734741211 -1.0761007070541382
5.240195274353027 18.091312408447266 -0.91385817527771
3.298598527908325 16.15766143798828 -0.8001264929771423
2.132578134536743 17.563446044921875 -0.8584244847297668
0.708984375 17.593759536743164 -0.8543292284011841
-2.370781183242798 19.52503776550293 -0.9542986750602722
-5.630649089813232 27.580760955810547 -1.365802526473999
-15.955810546875 23.115907669067383 -1.362809419631958
-18.12492561340332 22.198978424072266 -1.3904900550842285
2.1325879096984863 17.563446044921875 -1.055058240890503
-2.3707714080810547 19.525033950805664 -1.1728935241699219
-9.820444107055664 25.89436912536621 -1.651487112045288
-13.977797508239746 24.21021842956543 -1.6670833826065063
-16.02284049987793 23.213031768798828 -1.682015299797058
5.240195274353027 18.091312408447266 -1.332797646522522
3.2715721130371094 16.025238037109375 -1.1573666334152222
-9.820444107055664 25.89436912536621 -1.9596853256225586
-18.188779830932617 22.27718734741211 -2.0350749492645264
18.126720428466797 22.20121955871582 -2.347599983215332
16.281522750854492 23.587894439697266 -2.347599983215332
-0.6524609327316284 16.19039535522461 -1.3271992206573486
-2.370781183242798 19.52503776550293 -1.611006736755371
-16.02284049987793 23.213031768798828 -2.3103010654449463
-18.12676239013672 22.201234817504883 -2.347599983215332
26.86016082763672 3.9062499126885086e-05 -2.5
26.773061752319336 2.161367177963257 -2.5
26.512325286865234 4.308686256408691 -2.5
26.079647064208984 6.428061485290527 -2.5
25.477834701538086 8.505776405334473 -2.5
18.87950325012207 16.725811004638672 -2.347599983215332
17.472415924072266 18.19072723388672 -2.347599983215332
15.952028274536133 19.537700653076172 -2.347599983215332
10.665228843688965 15.451308250427246 -1.7474528551101685
12.611376762390137 21.843568801879883 -2.347599983215332
10.812788009643555 22.787532806396484 -2.347599983215332
8.944101333618164 23.583709716796875 -2.347599983215332
3.267519474029541 16.005395889282227 -1.5204218626022339
-0.6524609327316284 16.19039535522461 -1.5081374645233154
-2.370781183242798 19.52503776550293 -1.8306325674057007
-5.045175552368164 24.71304702758789 -2.347599983215332
-8.94412612915039 23.583696365356445 -2.347599983215332
-14.328168869018555 20.7579288482666 -2.347599983215332
-17.472415924072266 18.19072151184082 -2.347599983215332
-20.164154052734375 15.152377128601074 -2.347599983215332
-22.701942443847656 14.355830192565918 -2.5
-26.079647064208984 6.428041934967041 -2.5
23.97757339477539 2.9296874345163815e-05 -2.5
21.2310791015625 11.142953872680664 -2.5
10.690400123596191 15.487763404846191 -1.962148666381836
9.65237808227539 20.342010498046875 -2.347599983215332
7.984238147735596 21.052762985229492 -2.347599983215332
3.267519474029541 16.005395889282227 -1.703206181526184
0.6150488257408142 15.262636184692383 -1.5926358699798584
-0.6524609327316284 16.190399169921875 -1.6894441843032837
-4.503749847412109 22.060916900634766 -2.347599983215332
-6.264316082000732 21.626937866210938 -2.347599983215332
-6.283310413360596 13.241860389709473 -1.528193473815918
-15.597329139709473 16.238544464111328 -2.347599983215332
-16.8533878326416 14.93080997467041 -2.347599983215332
-18.00017547607422 13.526249885559082 -2.347599983215332
-21.2310791015625 11.142939567565918 -2.5
-22.05887222290039 9.39840316772461 -2.5
9.458832740783691 0.7636035084724426 -1.0958536863327026
20.534765243530273 6.855527400970459 -2.5
19.91653823852539 8.485663414001465 -2.5
19.169139862060547 10.060761451721191 -2.5
17.182016372680664 10.865273475646973 -2.347599983215332
16.25200080871582 12.212607383728027 -2.347599983215332
15.216591835021973 13.480756759643555 -2.347599983215332
14.082511901855469 14.66146469116211 -2.347599983215332
10.690409660339355 15.487763404846191 -2.1732099056243896
4.895361423492432 16.900815963745117 -2.0319180488586426
3.267524242401123 16.005395889282227 -1.886414647102356
-0.6524609327316284 16.19039535522461 -1.8711724281311035
-5.655937194824219 19.52654266357422 -2.347599983215332
-6.28103494644165 13.237079620361328 -1.6919643878936768
-8.1781587600708 14.165034294128418 -1.8888195753097534
-11.548319816589355 16.730560302734375 -2.347599983215332
-15.2166109085083 13.480741500854492 -2.347599983215332
-16.25202178955078 12.212592124938965 -2.347599983215332
-19.169139862060547 10.060751914978027 -2.5
-20.534770965576172 6.855507850646973 -2.5
-21.01984405517578 5.180912971496582 -2.5
19.72799301147461 2.9296874345163815e-05 -2.5
8.806113243103027 1.4311425685882568 -1.1305831670761108
18.149337768554688 7.732734203338623 -2.5
17.43846321105957 9.152436256408691 -2.4957356452941895
15.657450675964355 9.901190757751465 -2.347599983215332
13.86642837524414 12.28458023071289 -2.347599983215332
12.832968711853027 13.360551834106445 -2.347599983215332
11.716279029846191 14.349853515625 -2.347599983215332
10.52359390258789 15.24609375 -2.347599983215332
9.09341812133789 15.750292778015137 -2.304703950881958
7.941674709320068 16.736757278442383 -2.347599983215332
4.895361423492432 16.90081024169922 -2.229763984680176
0.6150488257408142 15.262636184692383 -1.9357045888900757
-6.569179534912109 17.3215274810791 -2.347599983215332
-5.941054344177246 12.520483016967773 -1.7561990022659302
-12.832968711853027 13.360541343688965 -2.347599983215332
-18.14933967590332 7.732714653015137 -2.5
-19.15473175048828 4.721200942993164 -2.5
-19.47249984741211 3.16460919380188 -2.5
8.794057846069336 0.7099413871765137 -1.217521071434021
17.183732986450195 5.736792087554932 -2.5
16.66639518737793 7.100913047790527 -2.5
16.022804260253906 8.409428596496582 -2.497168779373169
12.733427047729492 11.280858993530273 -2.347599983215332
11.784403800964355 12.268891334533691 -2.347599983215332
10.758964538574219 13.17735767364502 -2.347599983215332
9.663735389709473 14.000370979309082 -2.347599983215332
8.505834579467773 14.732572555541992 -2.347599983215332
7.292773246765137 15.369237899780273 -2.347599983215332
6.032421588897705 15.906225204467773 -2.347599983215332
1.8353271484375 15.115326881408691 -2.1012206077575684
-0.6311864852905273 15.662416458129883 -2.1631529331207275
-2.050541877746582 16.887676239013672 -2.347599983215332
-4.732924461364746 16.340078353881836 -2.347599983215332
-6.032436370849609 15.906220436096191 -2.347599983215332
-5.951728343963623 12.543036460876465 -1.9159047603607178
-6.985448837280273 12.099194526672363 -1.9279742240905762
-9.663793563842773 14.00033187866211 -2.347599983215332
-11.784408569335938 12.268896102905273 -2.347599983215332
-13.599867820739746 10.2196626663208 -2.347599983215332
-16.04097557067871 8.418954849243164 -2.5
-17.589643478393555 4.33544921875 -2.5
8.559345245361328 0.6909960508346558 -1.2821485996246338
8.376728057861328 1.361367106437683 -1.2671334743499756
15.882064819335938 5.302231311798096 -2.5
15.403910636901855 6.563007831573486 -2.5
12.569677352905273 9.44552230834961 -2.347599983215332
10.891737937927246 11.339521408081055 -2.347599983215332
7.861518383026123 13.6165771484375 -2.347599983215332
6.740341663360596 14.205009460449219 -2.347599983215332
5.57546854019165 14.70131778717041 -2.347599983215332
4.374413967132568 15.102290153503418 -2.347599983215332
3.145014524459839 15.405317306518555 -2.347599983215332
-0.6311815977096558 15.662416458129883 -2.340441942214966
-3.1449804306030273 15.405341148376465 -2.347599983215332
-5.57546854019165 14.701327323913574 -2.347599983215332
-6.985448837280273 12.099194526672363 -2.0859885215759277
-8.931703567504883 12.939847946166992 -2.347599983215332
-13.288984298706055 8.403432846069336 -2.347599983215332
-14.8258638381958 7.781215667724609 -2.5
-15.403910636901855 6.562997817993164 -2.5
-15.88206958770752 5.302202224731445 -2.5
-16.68946647644043 1.3473047018051147 -2.5
15.5610933303833 2.9296874345163815e-05 -2.5
8.199843406677246 1.332617163658142 -1.3346465826034546
9.496191024780273 2.3406152725219727 -1.5712896585464478
13.778447151184082 7.231503963470459 -2.4999618530273438
10.937597274780273 9.689887046813965 -2.347599983215332
10.122416496276855 10.538569450378418 -2.347599983215332
9.241591453552246 11.318921089172363 -2.347599983215332
7.306240081787109 12.654794692993164 -2.347599983215332
5.181654930114746 13.662924766540527 -2.347599983215332
2.9228711128234863 14.317177772521973 -2.347599983215332
-4.065468788146973 14.035551071166992 -2.347599983215332
-5.910585880279541 12.45633316040039 -2.215057849884033
-6.93716287612915 12.015546798706055 -2.2290115356445312
-10.122421264648438 10.538569450378418 -2.347599983215332
-10.937606811523438 9.689863204956055 -2.347599983215332
-11.681845664978027 8.77834415435791 -2.347599983215332
-12.350337028503418 7.809867858886719 -2.347599983215332
-14.31588363647461 6.099433422088623 -2.5
-14.760263442993164 4.927700042724609 -2.5
-15.10891056060791 3.7239990234375 -2.5
8.1307373046875 0.6563964486122131 -1.403406023979187
9.294604301452637 2.2909228801727295 -1.646951675415039
13.368268966674805 5.69570779800415 -2.5
12.866605758666992 6.752939224243164 -2.5
10.908583641052246 8.197295188903809 -2.347599983215332
10.213598251342773 9.048480987548828 -2.347599983215332
9.452377319335938 9.840995788574219 -2.347599983215332
7.75137186050415 11.229828834533691 -2.347599983215332
5.849599361419678 12.327807426452637 -2.347599983215332
2.7293896675109863 13.369477272033691 -2.347599983215332
1.644741177558899 13.545751571655273 -2.347599983215332
0.5494531393051147 13.634203910827637 -2.347599983215332
-0.5494433641433716 13.63417911529541 -2.347599983215332
-2.729384660720825 13.36949634552002 -2.347599983215332
-4.838662147521973 12.758529663085938 -2.347599983215332
-5.849609375 12.327812194824219 -2.347599983215332
-10.908588409423828 8.197279930114746 -2.347599983215332
-11.532821655273438 7.292924404144287 -2.347599983215332
-13.783246994018555 4.601523399353027 -2.5
-14.342870712280273 2.3309667110443115 -2.5
-14.483930587768555 1.1692675352096558 -2.5
13.625676155090332 2.9296874345163815e-05 -2.5
7.95385217666626 1.2926366329193115 -1.478496789932251
9.177958488464355 2.2621726989746094 -1.7343425750732422
12.535341262817383 5.3408203125 -2.5
8.863442420959473 9.227836608886719 -2.347599983215332
7.268407821655273 10.530131340026855 -2.347599983215332
6.397524356842041 11.080849647521973 -2.347599983215332
4.537182331085205 11.96358871459961 -2.347599983215332
2.559335947036743 12.536474227905273 -2.347599983215332
-0.515185534954071 12.78470230102539 -2.347599983215332
-4.537207126617432 11.963574409484863 -2.347599983215332
-6.397529125213623 11.08084487915039 -2.347599983215332
-9.577226638793945 8.484697341918945 -2.347599983215332
-10.22891616821289 7.686528205871582 -2.347599983215332
-10.906176567077637 6.896655082702637 -2.3675553798675537
-12.535341262817383 5.340800762176514 -2.5
-12.924448013305664 4.3148193359375 -2.5
-13.581499099731445 1.0963964462280273 -2.5
7.945775985717773 1.2913280725479126 -1.569395899772644
11.797304153442383 5.026376724243164 -2.5
11.354598999023438 5.959370136260986 -2.5
10.1775484085083 6.4359130859375 -2.347599983215332
6.020859241485596 10.428451538085938 -2.347599983215332
3.350209951400757 11.56630802154541 -2.347599983215332
1.4514696598052979 11.953940391540527 -2.347599983215332
0.4848583936691284 12.031967163085938 -2.347599983215332
-0.48488280177116394 12.03197193145752 -2.347599983215332
-6.0208740234375 10.428446769714355 -2.347599983215332
-6.840497970581055 9.910146713256836 -2.347599983215332
-7.615736961364746 9.327588081359863 -2.347599983215332
-8.341601371765137 8.684526443481445 -2.347599983215332
-9.013368606567383 7.985151290893555 -2.347599983215332
-9.62667465209961 7.233974456787109 -2.347599983215332
-10.760351181030273 6.80443811416626 -2.4820315837860107
-11.354609489440918 5.959360122680664 -2.5
-11.797308921813965 5.0263671875 -2.5
-12.450824737548828 3.068842649459839 -2.5
-12.657392501831055 2.0570409297943115 -2.5
7.927138328552246 1.2882909774780273 -1.6582980155944824
11.484418869018555 3.8340771198272705 -2.5
9.609335899353027 6.076601505279541 -2.347599983215332
7.1905517578125 8.806836128234863 -2.347599983215332
4.873989105224609 10.271728515625 -2.347599983215332
3.1631736755371094 10.92055606842041 -2.347599983215332
0.4577929675579071 11.360224723815918 -2.347599983215332
-0.45780760049819946 11.360224723815918 -2.347599983215332
-2.274179697036743 11.139667510986328 -2.347599983215332
-3.163203001022339 10.920536994934082 -2.347599983215332
-4.031669616699219 10.630610466003418 -2.347599983215332
-5.684716701507568 9.846230506896973 -2.347599983215332
-6.458579063415527 9.3568696975708 -2.347599983215332
-7.875888347625732 8.19967269897461 -2.347599983215332
-8.510146141052246 7.53933572769165 -2.347599983215332
-9.089208602905273 6.830111980438232 -2.347599983215332
-10.207563400268555 6.454877853393555 -2.493748664855957
-11.138667106628418 4.745751857757568 -2.5
-11.48440933227539 3.8340721130371094 -2.5
-11.755693435668945 2.897514581680298 -2.5
-11.950722694396973 1.9421874284744263 -2.5
11.464516639709473 1.9531249563442543e-05 -2.5
7.90652322769165 1.2849414348602295 -1.7467504739761353
8.948715209960938 2.2056689262390137 -2.0097954273223877
10.87451171875 3.6304638385772705 -2.5
6.115576267242432 8.859955787658691 -2.347599983215332
5.382817268371582 9.32332992553711 -2.347599983215332
4.61514139175415 9.726224899291992 -2.347599983215332
3.8175389766693115 10.066054344177246 -2.347599983215332
1.297646403312683 10.68715763092041 -2.347599983215332
0.4334765672683716 10.756909370422363 -2.347599983215332
-2.1534080505371094 10.548075675964355 -2.347599983215332
-2.995190382003784 10.340595245361328 -2.347599983215332
-4.615146160125732 9.72623062133789 -2.347599983215332
-5.382822036743164 9.323325157165527 -2.347599983215332
-7.457631587982178 7.764199256896973 -2.347599983215332
-8.606518745422363 6.467372894287109 -2.347599983215332
-9.670868873596191 6.115492820739746 -2.495142698287964
-10.151337623596191 5.327822208404541 -2.5
-10.547123908996582 4.493705749511719 -2.5
-10.874506950378418 3.630449056625366 -2.5
-11.13138198852539 2.7436277866363525 -2.5
-11.316049575805664 1.8390429019927979 -2.5
10.88370132446289 1.9531249563442543e-05 -2.5
7.884902000427246 1.2814257144927979 -1.8349344730377197
9.04110336303711 2.228442430496216 -2.138906717300415
10.323588371276855 3.446533203125 -2.5
10.012778282165527 4.266054630279541 -2.5
8.997685432434082 5.6898193359375 -2.4453444480895996
8.170477867126465 6.139750957489014 -2.347599983215332
7.079804420471191 7.370869159698486 -2.347599983215332
5.805742263793945 8.41109848022461 -2.347599983215332
5.110112190246582 8.850981712341309 -2.347599983215332
3.624140501022339 9.556093215942383 -2.347599983215332
2.044301748275757 10.013690948486328 -2.347599983215332
1.2319189310073853 10.145727157592773 -2.347599983215332
0.41151854395866394 10.21194839477539 -2.347599983215332
-0.4115380644798279 10.211953163146973 -2.347599983215332
-1.2319140434265137 10.145722389221191 -2.347599983215332
-2.0443115234375 10.01369571685791 -2.347599983215332
-2.843451976776123 9.816728591918945 -2.347599983215332
-4.381342887878418 9.233481407165527 -2.347599983215332
-6.46373987197876 7.916645526885986 -2.347599983215332
-7.079809188842773 7.370859146118164 -2.347599983215332
-7.649950981140137 6.777280330657959 -2.347599983215332
-8.17049789428711 6.139731407165527 -2.347599983215332
-9.637041091918945 5.057924747467041 -2.5
-10.323588371276855 3.446523427963257 -2.5
-10.567456245422363 2.6046385765075684 -2.5
-10.848407745361328 0.8757714629173279 -2.5
10.35635757446289 1.9531249563442543e-05 -2.5
8.063672065734863 0.6509765386581421 -1.9528850317001343
7.861001014709473 1.2775487899780273 -1.9225249290466309
10.055419921875 2.478447198867798 -2.5
7.774604320526123 5.842250823974609 -2.347599983215332
4.862504959106445 8.422133445739746 -2.347599983215332
4.169043064117432 8.786093711853027 -2.347599983215332
3.4485349655151367 9.093066215515137 -2.347599983215332
1.9452587366104126 9.5285005569458 -2.347599983215332
1.172216773033142 9.654130935668945 -2.347599983215332
0.39158201217651367 9.717153549194336 -2.347599983215332
-3.44854474067688 9.093070983886719 -2.347599983215332
-4.169057369232178 8.786084175109863 -2.347599983215332
-4.862519264221191 8.422123908996582 -2.347599983215332
-5.524457931518555 8.003544807434082 -2.347599983215332
-6.150551795959473 7.533061504364014 -2.347599983215332
-6.736767292022705 7.013735294342041 -2.347599983215332
-7.27929162979126 6.448896408081055 -2.347599983215332
-7.774604320526123 5.842250823974609 -2.347599983215332
-8.747812271118164 5.531777381896973 -2.4984920024871826
-9.170097351074219 4.812836647033691 -2.5
-9.527636528015137 4.05935525894165 -2.5
-9.823378562927246 3.279531240463257 -2.5
-10.055419921875 2.4784326553344727 -2.5
-10.222241401672363 1.6612889766693115 -2.5
9.58834457397461 2.3633153438568115 -2.5
9.36708927154541 3.127207040786743 -2.5
8.744150161743164 4.589296817779541 -2.5
8.330693244934082 5.268022537231445 -2.4952621459960938
6.941171646118164 6.149350643157959 -2.347599983215332
5.267827033996582 7.631791591644287 -2.347599983215332
4.636650085449219 8.030927658081055 -2.347599983215332
3.2883496284484863 8.670693397521973 -2.347599983215332
1.117773413658142 9.205693244934082 -2.347599983215332
0.3733886778354645 9.265786170959473 -2.347599983215332
-1.1177831888198853 9.205693244934082 -2.347599983215332
-1.8549022674560547 9.085907936096191 -2.347599983215332
-2.580004930496216 8.907172203063965 -2.347599983215332
-3.2883594036102295 8.670702934265137 -2.347599983215332
-3.975395441055298 8.377978324890137 -2.347599983215332
-5.267841815948486 7.631782054901123 -2.347599983215332
-5.864858150482178 7.183154106140137 -2.347599983215332
-6.941171646118164 6.149340629577637 -2.347599983215332
-7.413491249084473 5.570859432220459 -2.347599983215332
-8.346513748168945 5.278022289276123 -2.5
-8.744150161743164 4.589286804199219 -2.5
-9.367084503173828 3.127192258834839 -2.5
-9.588349342346191 2.3633105754852295 -2.5
-9.747416496276855 1.5841211080551147 -2.5
-9.843280792236328 0.7946386337280273 -2.5
9.434598922729492 1.9531249563442543e-05 -2.5
7.928681373596191 1.2885448932647705 -2.1285219192504883
9.1604585647583 2.2578465938568115 -2.5
8.949067115783691 2.9876415729522705 -2.5
8.679643630981445 3.698051691055298 -2.5
8.353930473327637 4.384491920471191 -2.5
7.08263635635376 5.322260856628418 -2.347599983215332
6.631406307220459 5.874921798706055 -2.347599983215332
6.137167930603027 6.389482498168945 -2.347599983215332
5.603134632110596 6.862592697143555 -2.347599983215332
5.032753944396973 7.291215419769287 -2.347599983215332
4.429731369018555 7.672538757324219 -2.347599983215332
3.797978401184082 8.004096031188965 -2.347599983215332
3.141606330871582 8.283754348754883 -2.347599983215332
1.0678906440734863 8.794878005981445 -2.347599983215332
-3.141606330871582 8.283759117126465 -2.347599983215332
-3.797988176345825 8.004096031188965 -2.347599983215332
-5.603134632110596 6.862587928771973 -2.347599983215332
-7.974042892456055 5.042475700378418 -2.5
-8.353930473327637 4.384482383728027 -2.5
-9.160453796386719 2.2578418254852295 -2.5
7.959057331085205 1.2934863567352295 -2.2325918674468994
8.766913414001465 2.1608495712280273 -2.5
6.346508502960205 5.622529029846191 -2.347599983215332
4.8165283203125 6.977968692779541 -2.347599983215332
3.6348142623901367 7.660233974456787 -2.347599983215332
3.006640672683716 7.927875995635986 -2.347599983215332
2.358950138092041 8.144096374511719 -2.347599983215332
0.3413964807987213 8.471977233886719 -2.347599983215332
-1.022011637687683 8.417040824890137 -2.347599983215332
-1.695986270904541 8.307509422302246 -2.347599983215332
-2.3589696884155273 8.144096374511719 -2.347599983215332
-3.006640672683716 7.927875995635986 -2.347599983215332
-3.63482403755188 7.660233974456787 -2.347599983215332
-4.816542625427246 6.977958679199219 -2.347599983215332
-5.873510837554932 6.114975452423096 -2.347599983215332
-7.631454944610596 4.825849533081055 -2.5
-7.99502420425415 4.196123123168945 -2.5
-8.306757926940918 3.539174795150757 -2.5
-8.56459903717041 2.8592822551727295 -2.5
-9.000004768371582 0.7265527248382568 -2.5
8.6551513671875 9.765624781721272e-06 -2.5
6.083544731140137 5.389575004577637 -2.347599983215332
5.630136489868164 5.861606121063232 -2.347599983215332
3.484208822250366 7.342832088470459 -2.347599983215332
2.8820605278015137 7.599384784698486 -2.347599983215332
2.2612156867980957 7.806650161743164 -2.347599983215332
0.32726073265075684 8.120946884155273 -2.347599983215332
-0.3272705078125 8.120951652526855 -2.347599983215332
-2.26123046875 7.806654930114746 -2.347599983215332
-3.4842236042022705 7.342826843261719 -2.347599983215332
-5.630146503448486 5.86160135269165 -2.347599983215332
-6.902260780334473 5.186723709106445 -2.4938437938690186
-7.315253734588623 4.625878810882568 -2.5
-7.663769245147705 4.022255897521973 -2.5
-7.962573051452637 3.3925390243530273 -2.5
-8.209731101989746 2.7408103942871094 -2.5
-8.403656959533691 2.0713086128234863 -2.5
-8.62709903717041 0.6964550614356995 -2.5
8.30868148803711 9.765624781721272e-06 -2.5
8.201088905334473 1.3328222036361694 -2.5
8.067251205444336 1.9884082078933716 -2.5
7.881088733673096 2.631108283996582 -2.5
7.356972694396973 3.8612499237060547 -2.5
7.022411823272705 4.440717697143555 -2.5
6.582172870635986 4.946200847625732 -2.477365493774414
4.934453010559082 6.04360818862915 -2.347599983215332
4.432138442993164 6.421083927154541 -2.347599983215332
2.1706981658935547 7.494150161743164 -2.347599983215332
1.560634732246399 7.644511699676514 -2.347599983215332
0.31416013836860657 7.795859336853027 -2.347599983215332
-0.31416502594947815 7.795868873596191 -2.347599983215332
-2.170703172683716 7.494140625 -2.347599983215332
-2.7666943073272705 7.295170783996582 -2.347599983215332
-3.3447461128234863 7.048886775970459 -2.347599983215332
-3.9010937213897705 6.756889343261719 -2.347599983215332
-4.432153224945068 6.421069145202637 -2.347599983215332
-4.934462547302246 6.043612957000732 -2.347599983215332
-5.840024471282959 5.173798561096191 -2.347599983215332
-7.643813133239746 3.2567334175109863 -2.5
-7.881083965301514 2.631093740463257 -2.5
-8.067251205444336 1.9883984327316284 -2.5
-8.201093673706055 1.3328222036361694 -2.5
-8.281743049621582 0.6685839891433716 -2.5
7.960922718048096 0.6426855325698853 -2.5
7.883388519287109 1.2811815738677979 -2.5
7.347704887390137 3.130571126937866 -2.5
5.195390701293945 5.408984184265137 -2.347599983215332
4.260448932647705 6.172333717346191 -2.347599983215332
3.215161085128784 6.775835037231445 -2.347599983215332
2.086596727371216 7.203832626342773 -2.347599983215332
1.500185489654541 7.348378658294678 -2.347599983215332
0.9040136337280273 7.445258617401123 -2.347599983215332
0.30198240280151367 7.493857383728027 -2.347599983215332
-0.30199217796325684 7.493866920471191 -2.347599983215332
-0.9040234088897705 7.445263385772705 -2.347599983215332
-1.500185489654541 7.348378658294678 -2.347599983215332
-3.215165853500366 6.775829792022705 -2.347599983215332
-4.260454177856445 6.172333717346191 -2.347599983215332
-5.613789081573486 4.973388671875 -2.347599983215332
-7.883388519287109 1.2811717987060547 -2.5
7.686962604522705 1.9531249563442543e-05 -2.5
7.463603496551514 1.8396093845367432 -2.5
7.291371822357178 2.434218645095825 -2.5
6.806469440460205 3.57232403755188 -2.5
6.49694299697876 4.10842752456665 -2.5
5.000331878662109 5.205917835235596 -2.347599983215332
4.565224647521973 5.591391563415527 -2.347599983215332
2.5596630573272705 6.749291896820068 -2.347599983215332
2.0082664489746094 6.93337869644165 -2.347599983215332
0.8700683116912842 7.165741920471191 -2.347599983215332
0.2906445264816284 7.21251916885376 -2.347599983215332
-0.29066404700279236 7.21251916885376 -2.347599983215332
-2.5596678256988525 6.749301433563232 -2.347599983215332
-3.0944676399230957 6.521440505981445 -2.347599983215332
-4.100512504577637 5.940600395202637 -2.347599983215332
-4.565229415893555 5.591386795043945 -2.347599983215332
-5.000341892242432 5.205913066864014 -2.347599983215332
-6.144555568695068 4.617324352264404 -2.49969744682312
-6.4969482421875 4.108422756195068 -2.5
-7.291367053985596 2.4342236518859863 -2.5
-7.662040710449219 0.6185546517372131 -2.5
7.406879901885986 1.9531249563442543e-05 -2.5
7.025693416595459 2.345527410507202 -2.5
6.814169883728027 2.903261661529541 -2.5
4.818139553070068 5.016225337982178 -2.347599983215332
4.398876667022705 5.387656211853027 -2.347599983215332
3.4776806831359863 6.023510456085205 -2.347599983215332
2.981699228286743 6.283823013305664 -2.347599983215332
2.4663963317871094 6.503368854522705 -2.347599983215332
1.9350926876068115 6.680756568908691 -2.347599983215332
-0.28007322549819946 6.949716567993164 -2.347599983215332
-0.83837890625 6.904648303985596 -2.347599983215332
-1.9351024627685547 6.680747032165527 -2.347599983215332
-2.4664013385772705 6.503374099731445 -2.347599983215332
-3.4776854515075684 6.023515701293945 -2.347599983215332
-4.81814432144165 5.016220569610596 -2.347599983215332
-6.260224342346191 3.9587254524230957 -2.5
-6.558461666107178 3.442153215408325 -2.5
-7.025693416595459 2.3455419540405273 -2.5
-7.310966491699219 1.1881542205810547 -2.5
7.144589900970459 1.9531249563442543e-05 -2.5
7.121420860290527 0.574902355670929 -2.5
7.052074909210205 1.146093726158142 -2.5
6.936982154846191 1.7098242044448853 -2.5
6.5728759765625 2.8004491329193115 -2.5
6.038535118103027 3.818554639816284 -2.5
5.254765510559082 4.655317306518555 -2.456505298614502
4.243114948272705 5.196884632110596 -2.347599983215332
3.3545262813568115 5.810214519500732 -2.347599983215332
2.3790624141693115 6.273080825805664 -2.347599983215332
1.8665722608566284 6.444174766540527 -2.347599983215332
0.2701367139816284 6.703618049621582 -2.347599983215332
-0.27015623450279236 6.703618049621582 -2.347599983215332
-0.8086864948272705 6.660146236419678 -2.347599983215332
-1.3419872522354126 6.573471546173096 -2.347599983215332
-2.3790721893310547 6.273085594177246 -2.347599983215332
-2.8761229515075684 6.06130838394165 -2.347599983215332
-3.8111815452575684 5.521435260772705 -2.347599983215332
-6.038535118103027 3.81853985786438 -2.5
-6.326220512390137 3.320253849029541 -2.5
-6.5728759765625 2.8004443645477295 -2.5
-6.936972618103027 1.709814429283142 -2.5
-7.052080154418945 1.146083950996399 -2.5
6.876049518585205 0.5551074147224426 -2.5
6.80908203125 1.106601595878601 -2.5
6.697958946228027 1.65090811252594 -2.5
6.346396446228027 2.7039501667022705 -2.5
5.830463886260986 3.6869773864746094 -2.5
5.514882564544678 4.144179821014404 -2.5
5.150136470794678 4.562641620635986 -2.493516445159912
4.487387657165527 4.671879768371582 -2.347599983215332
4.096909046173096 5.017807483673096 -2.347599983215332
3.6798534393310547 5.331201076507568 -2.347599983215332
2.7770166397094727 5.85244607925415 -2.347599983215332
1.8022509813308716 6.222128868103027 -2.347599983215332
0.26082518696784973 6.472636699676514 -2.347599983215332
-1.8022607564926147 6.222124099731445 -2.347599983215332
-2.2970848083496094 6.056938171386719 -2.347599983215332
-2.7770214080810547 5.852441310882568 -2.347599983215332
-4.518749713897705 4.704535961151123 -2.364009141921997
-5.830468654632568 3.686967611312866 -2.5
-6.346401214599609 2.7039549350738525 -2.5
-6.697963714599609 1.65090811252594 -2.5
-6.80908203125 1.106591820716858 -2.5
6.645224571228027 0.5364648103713989 -2.5
6.580507755279541 1.0694433450698853 -2.5
6.473119735717773 1.59548819065094 -2.5
6.323750019073486 2.1111814975738525 -2.5
6.133354187011719 2.6131885051727295 -2.5
5.9031982421875 3.0982518196105957 -2.5
5.634746074676514 3.5632078647613525 -2.5
5.329755783081055 4.005058288574219 -2.5
2.219975471496582 5.853613376617432 -2.347599983215332
1.2522460222244263 6.133925437927246 -2.347599983215332
-0.7546142339706421 6.214789867401123 -2.347599983215332
-1.7417675256729126 6.013271331787109 -2.347599983215332
-2.6837987899780273 5.655991077423096 -2.347599983215332
-3.9593846797943115 4.849365234375 -2.347599983215332
-5.903203010559082 3.0982420444488525 -2.5
-6.323750019073486 2.1111767292022705 -2.5
-6.473119735717773 1.5954687595367432 -2.5
6.448559284210205 9.765624781721272e-06 -2.5
6.261186599731445 1.543251872062683 -2.5
6.11669397354126 2.042050838470459 -2.5
5.709926605224609 2.9967968463897705 -2.5
5.155258655548096 3.8739306926727295 -2.5
4.821865081787109 4.271811485290527 -2.4974353313446045
3.439892530441284 4.983554363250732 -2.347599983215332
3.0277295112609863 5.244194030761719 -2.347599983215332
2.147294759750366 5.661967754364014 -2.347599983215332
0.7299023270606995 6.011308670043945 -2.347599983215332
0.24381835758686066 6.050556659698486 -2.347599983215332
-0.729907214641571 6.011318206787109 -2.347599983215332
-1.2112499475479126 5.933090686798096 -2.347599983215332
-1.6847362518310547 5.816386699676514 -2.347599983215332
-2.1472997665405273 5.661957740783691 -2.347599983215332
-2.5959277153015137 5.470810413360596 -2.347599983215332
-3.027724504470825 5.244189262390137 -2.347599983215332
-3.8297605514526367 4.690595626831055 -2.347599983215332
-5.155263423919678 3.8739256858825684 -2.5
-5.709921836853027 2.9968066215515137 -2.5
-6.261186599731445 1.54324209690094 -2.5
-6.365068435668945 1.0344336032867432 -2.5
6.222187519073486 0.5023144483566284 -2.5
6.161586761474609 1.001367211341858 -2.5
5.921166896820068 1.9767773151397705 -2.5
5.742895603179932 2.446830987930298 -2.5
4.990448951721191 3.7500927448272705 -2.5
4.671093463897705 4.138232231140137 -2.499235153198242
3.7073192596435547 4.5406494140625 -2.347599983215332
2.9309473037719727 5.076547622680664 -2.347599983215332
2.512934446334839 5.295932292938232 -2.347599983215332
0.2360253781080246 5.857133865356445 -2.347599983215332
-0.19077636301517487 4.734033107757568 -1.897445797920227
-1.1725292205810547 5.743427753448486 -2.347599983215332
-1.6308836936950684 5.630449295043945 -2.347599983215332
-2.512953996658325 5.29592752456665 -2.347599983215332
-2.9309473037719727 5.076542854309082 -2.347599983215332
-3.3299365043640137 4.824238300323486 -2.347599983215332
-3.726513624191284 4.564159870147705 -2.359754800796509
-4.315219402313232 4.492621898651123 -2.4947633743286133
-4.990468502044678 3.7500877380371094 -2.5
-5.276034832000732 3.336371898651123 -2.5
-5.527387619018555 2.900995969772339 -2.5
-5.742909908294678 2.446830987930298 -2.5
-5.92117166519165 1.9767773151397705 -2.5
-6.161586761474609 1.001367211341858 -2.5
-6.222187519073486 0.5023144483566284 -2.5
6.027763366699219 0.4866308569908142 -2.5
5.871654987335205 1.4472265243530273 -2.5
5.354692459106445 2.81036114692688 -2.5
5.111181735992432 3.232128858566284 -2.5
3.22588849067688 4.673510551452637 -2.347599983215332
1.579921841621399 5.454526424407959 -2.347599983215332
1.135888695716858 5.563969612121582 -2.347599983215332
0.6844872832298279 5.63732385635376 -2.347599983215332
0.22865721583366394 5.674140453338623 -2.347599983215332
-0.18402831256389618 4.56640625 -1.8892948627471924
-1.1358935832977295 5.563979148864746 -2.347599983215332
-1.5799365043640137 5.454521179199219 -2.347599983215332
-2.0137109756469727 5.309711933135986 -2.347599983215332
-3.225893497467041 4.673501014709473 -2.347599983215332
-3.714467763900757 4.549394607543945 -2.4279870986938477
-4.183632850646973 4.355634689331055 -2.4966979026794434
-4.526528358459473 4.010151386260986 -2.5
-4.834531307220459 3.6329197883605957 -2.5
-5.111186504364014 3.232123851776123 -2.5
-5.354687213897705 2.81036114692688 -2.5
-5.871654987335205 1.4472362995147705 -2.5
-6.027763366699219 0.4866113066673279 -2.5
5.862524509429932 9.765624781721272e-06 -2.5
5.843505859375 0.471748024225235 -2.5
5.786601543426514 0.9404199123382568 -2.5
5.69216775894165 1.4029979705810547 -2.5
5.56082010269165 1.85647451877594 -2.5
5.191000938415527 2.7244677543640137 -2.5
4.954941272735596 3.1333250999450684 -2.5
4.686743259429932 3.5218799114227295 -2.5
4.388164043426514 3.887587785720825 -2.5
4.054755687713623 4.221455097198486 -2.4960901737213135
3.127265453338623 4.530649185180664 -2.347599983215332
2.752568244934082 4.767602443695068 -2.347599983215332
1.9521484375 5.147407054901123 -2.347599983215332
1.5316259860992432 5.287792682647705 -2.347599983215332
1.1011669635772705 5.393896579742432 -2.347599983215332
0.66357421875 5.465009689331055 -2.347599983215332
-0.18333496153354645 4.549286842346191 -1.9415606260299683
-0.66357421875 5.465009689331055 -2.347599983215332
-2.3600146770477295 4.973622798919678 -2.347599983215332
-3.696596622467041 4.527509689331055 -2.492495536804199
-5.393408298492432 2.297910213470459 -2.5
-5.692172527313232 1.4029979705810547 -2.5
-5.786596775054932 0.9404199123382568 -2.5
5.687026023864746 1.9531249563442543e-05 -2.5
5.668583869934082 0.4576171636581421 -2.5
5.521772384643555 1.3610057830810547 -2.5
5.035610198974609 2.642895460128784 -2.5
4.806616306304932 3.0395262241363525 -2.5
4.546445369720459 3.416455030441284 -2.5
4.256792068481445 3.771196126937866 -2.5
2.670161008834839 4.624882698059082 -2.347599983215332
1.893715739250183 4.993319988250732 -2.347599983215332
1.4857714176177979 5.129501819610596 -2.347599983215332
1.068203091621399 5.232426643371582 -2.347599983215332
-0.18282225728034973 4.536581993103027 -1.9958852529525757
-0.6437060236930847 5.301401138305664 -2.347599983215332
-1.4857763051986694 5.129506587982178 -2.347599983215332
-1.893715739250183 4.993310451507568 -2.347599983215332
-2.670170783996582 4.624873161315918 -2.347599983215332
-3.588696241378784 4.395356178283691 -2.4944136142730713
-4.256796836853027 3.7712011337280273 -2.5
-5.035614967346191 2.642890453338623 -2.5
-5.521772384643555 1.3609960079193115 -2.5
-5.6685791015625 0.4576171636581421 -2.5
5.520155906677246 9.765624781721272e-06 -2.5
5.502265453338623 0.4441894292831421 -2.5
5.236073970794678 1.7480664253234863 -2.5
5.078432559967041 2.1637256145477295 -2.5
4.131894588470459 3.6605517864227295 -2.5
3.823486328125 3.9806737899780273 -2.499696969985962
2.995073080062866 4.339126110076904 -2.3877992630004883
1.8381494283676147 4.8468017578125 -2.347599983215332
1.4421874284744263 4.97900390625 -2.347599983215332
0.6248144507408142 5.145864009857178 -2.347599983215332
-1.036865234375 5.078901290893555 -2.347599983215332
-1.4421825408935547 4.978999137878418 -2.347599983215332
-1.8381494283676147 4.8468017578125 -2.347599983215332
-2.2222020626068115 4.683178424835205 -2.347599983215332
-2.5918262004852295 4.489179611206055 -2.347599983215332
-3.0652928352355957 4.440854549407959 -2.4437828063964844
-4.131904125213623 3.6605517864227295 -2.5
-4.665590763092041 2.9503369331359863 -2.5
-4.887861251831055 2.5653514862060547 -2.5
-5.359760761260986 1.3210644721984863 -2.5
-5.502265453338623 0.44419920444488525 -2.5
5.361269474029541 9.765624781721272e-06 -2.5
5.085361003875732 1.6977441310882568 -2.5
4.747168064117432 2.491523265838623 -2.5
4.531289100646973 2.865419864654541 -2.5
4.286025524139404 3.2207422256469727 -2.5
4.01296854019165 3.555185556411743 -2.5
2.5172314643859863 4.359961032867432 -2.347599983215332
1.7852392196655273 4.707299709320068 -2.347599983215332
1.007021427154541 4.932709693908691 -2.347599983215332
0.6068359017372131 4.997748851776123 -2.347599983215332
0.20270507037639618 5.030371189117432 -2.347599983215332
-0.6068359017372131 4.997748851776123 -2.347599983215332
-1.0070263147354126 4.932704925537109 -2.347599983215332
-1.4006786346435547 4.835688591003418 -2.347599983215332
-3.0368359088897705 4.399594783782959 -2.49284029006958
-3.3879735469818115 4.149516582489014 -2.497981548309326
-3.713881731033325 3.866567373275757 -2.5
-4.012963771820068 3.555185556411743 -2.5
-4.286035060882568 3.2207517623901367 -2.5
-4.531303405761719 2.86541485786438 -2.5
-5.085361003875732 1.69775390625 -2.5
-5.343881607055664 0.4314062297344208 -2.5
