ply
format ascii 1.0
element vertex 766
property float x
property float y
property float z
end_header
-6.244228363037109 -16.464618682861328 4.718283653259277
15.924867630004883 -14.108154296875 5.700721263885498
-6.241757869720459 -16.458114624023438 4.507965087890625
15.920000076293945 -14.10384750366211 5.196657180786133
-6.236869812011719 -16.445215225219727 4.091333389282227
-6.234447956085205 -16.438827514648438 3.8849170207977295
15.915194511413574 -14.099579811096191 4.698328018188477
-6.232040882110596 -16.432470321655273 3.6796441078186035
-6.22964334487915 -16.42616081237793 3.4754748344421387
15.91042423248291 -14.09536075592041 4.205146789550781
15.908061027526855 -14.09326171875 3.9603166580200195
-6.224892616271973 -16.413612365722656 3.0702366828918457
-6.222524166107178 -16.407392501831055 2.86903977394104
15.903356552124023 -14.08910083770752 3.473832845687866
15.90102767944336 -14.087040901184082 3.2320494651794434
-6.217826843261719 -16.39501953125 2.4692678451538086
15.898700714111328 -14.084970474243164 2.9911510944366455
-6.215493202209473 -16.388866424560547 2.270538091659546
15.896376609802246 -14.08292007446289 2.7510693073272705
-23.99769401550293 -10.22445297241211 3.0855352878570557
-6.213173866271973 -16.38274383544922 2.072551727294922
15.89406681060791 -14.0808687210083 2.511749267578125
-23.983455657958984 -10.218388557434082 2.7911436557769775
-23.969266891479492 -10.212343215942383 2.497797727584839
-23.95512580871582 -10.206327438354492 2.2054224014282227
-23.941030502319336 -10.200312614440918 1.9139376878738403
-6.203949928283691 -16.358417510986328 1.2867259979248047
5.430776119232178 -26.6016788482666 1.9968209266662598
15.884880065917969 -14.072733879089355 1.5608068704605103
-15.996821403503418 -23.17544937133789 1.7575939893722534
-6.20166015625 -16.352373123168945 1.0915606021881104
-23.912948608398438 -10.188339233398438 1.3333470821380615
-6.199379920959473 -16.34634780883789 0.89678955078125
5.427665710449219 -26.58642578125 1.391923189163208
-6.197089672088623 -16.34033203125 0.7023806571960449
5.430776119232178 -26.601659774780273 1.0913763046264648
-23.885009765625 -10.176445007324219 0.755430281162262
-6.194814205169678 -16.334325790405273 0.5083276033401489
-6.192538738250732 -16.32832908630371 0.3144952356815338
-6.190263748168945 -16.322324752807617 0.12090393155813217
-6.185717582702637 -16.310361862182617 -0.26581040024757385
5.430776119232178 -26.601659774780273 -0.4138513207435608
-23.81551170349121 -10.146825790405273 -0.6814597845077515
5.430776119232178 -26.601659774780273 -0.7145487666130066
5.430776119232178 -26.601659774780273 -1.0158941745758057
-23.787797927856445 -10.135019302368164 -1.2545497417449951
-6.178925514221191 -16.292430877685547 -0.8454267978668213
24.206310272216797 -3.933906078338623 -1.1898831129074097
-23.774921417236328 -10.12954044342041 -1.541097640991211
23.42115592956543 -14.8106050491333 -1.652504801750183
24.8437442779541 -10.584912300109863 -1.610378384590149
23.696483612060547 -3.8510448932647705 -1.4316396713256836
-14.879404067993164 -3.6674413681030273 -1.084407925605774
-23.776636123657227 -10.130263328552246 -1.82882559299469
-14.643085479736328 -17.93450164794922 -1.6383618116378784
-6.174375057220459 -16.280458450317383 -1.2321193218231201
5.430776119232178 -26.601659774780273 -1.9212144613265991
2.8315770626068115 -9.775712966918945 -0.7201826572418213
4.288964748382568 -9.038779258728027 -0.7079525589942932
23.588197708129883 -14.916239738464355 -1.9748783111572266
24.844364166259766 -10.585175514221191 -1.9109923839569092
23.012487411499023 -3.7398924827575684 -1.6497740745544434
-28.29019546508789 -4.597587585449219 -2.347599983215332
-22.755496978759766 -9.695195198059082 -2.0259833335876465
-19.99588394165039 -20.81791877746582 -2.364323616027832
-14.840307235717773 -18.17607307434082 -1.9219727516174316
-15.906596183776855 -23.04474639892578 -2.2935452461242676
-9.211122512817383 -19.412078857421875 -1.75992751121521
-6.175610065460205 -16.283681869506836 -1.42646324634552
-8.04879379272461 -27.78768539428711 -2.3695974349975586
-5.791352272033691 -28.367919921875 -2.3714935779571533
-3.49236798286438 -28.762332916259766 -2.3731768131256104
-1.167031168937683 -28.96036148071289 -2.374016284942627
5.411796569824219 -26.50874900817871 -2.216071367263794
2.678105354309082 -9.245888710021973 -0.7884435653686523
3.329594612121582 -8.779403686523438 -0.7690829038619995
4.28213357925415 -9.024394035339355 -0.8181614279747009
14.46484375 -25.053817749023438 -2.369572162628174
15.204111099243164 -15.8291015625 -1.7977426052093506
21.542705535888672 -19.08516502380371 -2.357375383377075
22.967838287353516 -17.259180068969727 -2.353207588195801
23.646753311157227 -14.95327091217041 -2.2916293144226074
25.37838363647461 -13.319599151611328 -2.347599983215332
24.844911575317383 -10.585410118103027 -2.2120397090911865
27.828495025634766 -6.859081745147705 -2.347599983215332
-26.77305030822754 -2.1613378524780273 -2.5
-15.462138175964355 -2.5128417015075684 -1.4580140113830566
-23.92471694946289 -7.987246036529541 -2.347599983215332
-22.625789642333984 -9.639931678771973 -2.289060354232788
-22.333642959594727 -11.721611022949219 -2.347599983215332
-20.16413116455078 -15.1524019241333 -2.347599983215332
-18.879497528076172 -16.725770950317383 -2.347599983215332
-17.49124526977539 -18.210302352905273 -2.3501293659210205
-15.990370750427246 -19.584667205810547 -2.3532466888427734
-14.368837356567383 -20.816884994506836 -2.3542675971984863
-12.651689529418945 -21.913387298583984 -2.3551063537597656
-9.289970397949219 -19.578250885009766 -2.0169756412506104
-5.072978496551514 -24.849149703979492 -2.36053204536438
-1.0220556259155273 -25.36250877380371 -2.3625237941741943
1.0223339796066284 -25.368436813354492 -2.3630762100219727
1.8602977991104126 -15.320907592773438 -1.436461091041565
3.324833869934082 -8.766855239868164 -0.8726818561553955
12.66043472290039 -21.928485870361328 -2.356729030609131
14.760102272033691 -15.366826057434082 -1.983168601989746
15.245180130004883 -13.505986213684082 -1.8956807851791382
22.333646774291992 -11.72159194946289 -2.347599983215332
26.079652786254883 -6.428017616271973 -2.5
22.977346420288086 -3.7341794967651367 -2.166666269302368
26.773056030273438 -2.161318302154541 -2.5
-23.977596282958984 1.9531249563442543e-05 -2.5
-15.310751914978027 -2.488232374191284 -1.6173038482666016
-13.81521987915039 -3.4051365852355957 -1.4835387468338013
-19.030223846435547 -12.0339937210083 -2.347599983215332
-16.853374481201172 -14.93080997467041 -2.347599983215332
-14.240068435668945 -17.44091796875 -2.347599983215332
-12.790458679199219 -18.530214309692383 -2.347599983215332
-11.257685661315918 -19.498905181884766 -2.3475475311279297
-4.793784141540527 -16.55000877380371 -1.796495795249939
-4.512641429901123 -22.104413986206055 -2.3522324562072754
-0.908740222454071 -22.550907135009766 -2.353156566619873
3.1002197265625 -15.185869216918945 -1.615997552871704
2.614145517349243 -9.02505874633789 -0.9796685576438904
12.79049301147461 -18.53020477294922 -2.347599983215332
14.24010181427002 -17.440927505493164 -2.347599983215332
15.245180130004883 -13.505986213684082 -2.123579978942871
18.000181198120117 -13.526240348815918 -2.347599983215332
19.03024673461914 -12.033974647521973 -2.347599983215332
22.74359893798828 -7.592909812927246 -2.5
9.677929878234863 -2.385390520095825 -1.039259433746338
23.89983367919922 -1.9293651580810547 -2.5
-21.64889144897461 9.765624781721272e-06 -2.5
-21.57870101928711 -1.7420116662979126 -2.5
-15.23073673248291 -2.475234270095825 -1.781911015510559
-13.173017501831055 -4.397792816162109 -1.6037447452545166
-19.916542053222656 -8.485634803771973 -2.5
-17.374902725219727 -10.987226486206055 -2.3739540576934814
-12.85707950592041 -15.747079849243164 -2.347599983215332
-10.16458511352539 -17.6055850982666 -2.347599983215332
-8.714950561523438 -18.366395950317383 -2.347599983215332
-0.8185546398162842 -20.312685012817383 -2.347599983215332
0.8185839653015137 -20.312685012817383 -2.347599983215332
1.853676676750183 -15.266406059265137 -1.7759029865264893
10.164599418640137 -17.605566024780273 -2.347599983215332
11.548300743103027 -16.730566024780273 -2.347599983215332
12.8571138381958 -15.74705982208252 -2.347599983215332
-19.727977752685547 9.765624781721272e-06 -2.5
-19.664003372192383 -1.587441325187683 -2.5
-15.255390167236328 -2.479238271713257 -1.9585795402526855
-13.622441291809082 -3.3576269149780273 -1.7779476642608643
-13.05336856842041 -4.357841491699219 -1.74391508102417
-18.14933967590332 -7.732724666595459 -2.5
-16.673891067504883 -10.543935775756836 -2.5
-15.581865310668945 -11.709023475646973 -2.469956874847412
-13.927470207214355 -12.3386812210083 -2.3579351902008057
-12.832968711853027 -13.360527038574219 -2.347599983215332
-10.52358341217041 -15.246073722839355 -2.347599983215332
-7.941664695739746 -16.73674774169922 -2.347599983215332
-5.905185222625732 -15.570634841918945 -2.110297679901123
-4.830039024353027 -16.6751651763916 -2.199993133544922
0.7459570169448853 -18.51034164428711 -2.347599983215332
1.853676676750183 -15.266406059265137 -1.948822259902954
2.560683488845825 -8.84048843383789 -1.1663473844528198
3.306757688522339 -8.719189643859863 -1.1817190647125244
9.2626953125 -16.04341697692871 -2.347599983215332
10.523622512817383 -15.246064186096191 -2.347599983215332
17.4682559967041 -9.168046951293945 -2.5
18.149337768554688 -7.732705116271973 -2.5
18.71271514892578 -6.247197151184082 -2.5
8.891845703125 -2.1916308403015137 -1.1605288982391357
-18.11605453491211 0.0 -2.5
-15.279257774353027 -2.4831151962280273 -2.136187791824341
-13.02286148071289 -4.347665786743164 -1.8946478366851807
-16.666406631469727 -7.100888729095459 -2.5
-16.040956497192383 -8.418964385986328 -2.5
-15.311479568481445 -9.682373046875 -2.5
-9.663735389709473 -14.000361442565918 -2.347599983215332
-8.505844116210938 -14.732548713684082 -2.347599983215332
-7.292778015136719 -15.36922836303711 -2.347599983215332
-5.873007774353027 -15.485761642456055 -2.285541534423828
0.6850000023841858 -16.99789047241211 -2.347599983215332
1.853676676750183 -15.266406059265137 -2.1222245693206787
1.8752148151397705 -9.185409545898438 -1.2937246561050415
3.300180673599243 -8.701835632324219 -1.2843055725097656
4.248622894287109 -8.95376968383789 -1.3676583766937256
8.505864143371582 -14.732558250427246 -2.347599983215332
12.511933326721191 -13.02627944946289 -2.492527961730957
13.560065269470215 -12.01317310333252 -2.5
15.311515808105469 -9.682401657104492 -2.5
16.040964126586914 -8.4189453125 -2.5
16.66639518737793 -7.100869178771973 -2.5
8.962798118591309 -2.9922070503234863 -1.3039644956588745
9.641288757324219 -1.5668554306030273 -1.3479442596435547
-16.7437686920166 9.765624781721272e-06 -2.5
-16.689462661743164 -1.3473047018051147 -2.5
-16.526933670043945 -2.6858787536621094 -2.5
-13.613993644714355 -3.355536937713623 -2.0935304164886475
-15.40392017364502 -6.56298828125 -2.5
-14.151659965515137 -8.948974609375 -2.5
-13.385668754577637 -10.058700561523438 -2.5
-11.5988130569458 -12.075624465942383 -2.5
-6.74035120010376 -14.204999923706055 -2.347599983215332
-5.575448989868164 -14.701308250427246 -2.347599983215332
-4.37441873550415 -15.102274894714355 -2.347599983215332
-3.145009756088257 -15.405302047729492 -2.347599983215332
-1.8951903581619263 -15.6083984375 -2.347599983215332
-0.6330907940864563 -15.710302352905273 -2.347599983215332
0.6331152319908142 -15.71029281616211 -2.347599983215332
1.853676676750183 -15.266406059265137 -2.296159505844116
2.4626219272613525 -8.501943588256836 -1.3215986490249634
8.115239143371582 -14.05599594116211 -2.423360586166382
11.598808288574219 -12.075634956359863 -2.5
12.532880783081055 -11.103154182434082 -2.5
14.825861930847168 -7.781210899353027 -2.5
15.403915405273438 -6.562978267669678 -2.5
8.786513328552246 -2.933359384536743 -1.3830876350402832
9.539511680603027 -1.5503125190734863 -1.4430261850357056
-15.561088562011719 1.9531249563442543e-05 -2.5
-15.359564781188965 -2.496161937713623 -2.5
-14.760263442993164 -4.927695274353027 -2.5
-14.315878868103027 -6.099423885345459 -2.5
-13.77865219116211 -7.231601238250732 -2.5
-12.440195083618164 -9.348212242126465 -2.5
-1.7825390100479126 -14.680595397949219 -2.375866413116455
-0.593432605266571 -14.726171493530273 -2.3677868843078613
0.5939111113548279 -14.737343788146973 -2.369584321975708
3.2876172065734863 -8.668740272521973 -1.489486813545227
4.150234222412109 -8.746405601501465 -1.5553406476974487
9.841547966003418 -12.053671836853027 -2.5
12.440199851989746 -9.348193168640137 -2.5
14.315896034240723 -6.099413871765137 -2.5
8.474535942077637 -2.0887792110443115 -1.4022420644760132
9.407949447631836 -1.5289355516433716 -1.5312838554382324
10.90359878540039 -0.8802245855331421 -1.7574410438537598
-14.5310640335083 0.0 -2.5
-13.777802467346191 -3.395927667617798 -2.441345691680908
-11.616738319396973 -8.729423522949219 -2.5
-10.876660346984863 -9.635869026184082 -2.5
-10.066020011901855 -10.479843139648438 -2.5
-9.19008731842041 -11.255820274353027 -2.5
-5.152763366699219 -13.586767196655273 -2.5
-2.9047605991363525 -14.22850513458252 -2.4984421730041504
-1.7492040395736694 -14.405976295471191 -2.4966866970062256
1.069116234779358 -8.804922103881836 -1.5259721279144287
2.435839891433716 -8.409462928771973 -1.5062817335128784
3.2862939834594727 -8.665214538574219 -1.5944225788116455
4.296542644500732 -9.054765701293945 -1.7243120670318604
7.265527248382568 -12.584257125854492 -2.5
10.8766450881958 -9.635869026184082 -2.5
12.281503677368164 -7.766347408294678 -2.5
12.86661148071289 -6.752910137176514 -2.5
10.905644416809082 -0.8803905844688416 -1.8823691606521606
-13.581493377685547 -1.0963964462280273 -2.5
-13.449228286743164 -2.1857128143310547 -2.5
-13.229731559753418 -3.2608299255371094 -2.5
-12.535341262817383 -5.340800762176514 -2.5
-12.06493091583252 -6.332167625427246 -2.5
-11.51626968383789 -7.282451152801514 -2.5
-10.8929443359375 -8.185526847839355 -2.5
-10.198954582214355 -9.035497665405273 -2.5
-9.438838005065918 -9.826865196228027 -2.5
-7.740239143371582 -11.21371078491211 -2.5
-6.812836647033691 -11.800175666809082 -2.5
-5.84121561050415 -12.3101167678833 -2.5
-4.831713676452637 -12.74022388458252 -2.5
-3.790888547897339 -13.0877046585083 -2.5
-2.7254834175109863 -13.350302696228027 -2.5
-1.6423876285552979 -13.526308059692383 -2.5
0.548657238483429 -13.614628791809082 -2.5
1.6649121046066284 -8.155282974243164 -1.5271718502044678
4.126933574676514 -8.6973237991333 -1.766297698020935
6.812841415405273 -11.800155639648438 -2.5
7.740273475646973 -11.213690757751465 -2.5
9.438838005065918 -9.826865196228027 -2.5
11.516279220581055 -7.282441139221191 -2.5
8.494619369506836 -2.8359081745147705 -1.6431310176849365
8.300732612609863 -2.0459375381469727 -1.5685752630233765
9.253192901611328 -1.5037890672683716 -1.7200241088867188
10.903910636901855 -0.8802539110183716 -2.007127285003662
-12.7818603515625 -1.031835913658142 -2.5
-12.1635103225708 -4.060771465301514 -2.5
-10.838241577148438 -6.853681564331055 -2.5
-10.25161075592041 -7.703583717346191 -2.5
-9.598495483398438 -8.503515243530273 -2.5
-7.2845458984375 -10.553485870361328 -2.5
-6.411713600158691 -11.105429649353027 -2.5
-5.497290134429932 -11.585331916809082 -2.5
-3.567690372467041 -12.317138671875 -2.5
-2.565004825592041 -12.564276695251465 -2.5
-1.5456981658935547 -12.729941368103027 -2.5
1.6322948932647705 -7.995536804199219 -1.590926170349121
4.12890625 -8.7014741897583 -1.8776905536651611
6.411728382110596 -11.105420112609863 -2.5
7.284560203552246 -10.553476333618164 -2.5
8.110136985778809 -9.933095932006836 -2.5
9.598485946655273 -8.50350570678711 -2.5
11.354609489440918 -5.95934534072876 -2.5
11.797308921813965 -5.026347637176514 -2.5
8.487035751342773 -2.833388566970825 -1.7443653345108032
9.227313995361328 -1.4995898008346558 -1.8225153684616089
-12.107519149780273 0.0 -2.5
-11.950727462768555 -1.942177653312683 -2.5
-11.13866138458252 -4.745741844177246 -2.5
-10.720673561096191 -5.626650333404541 -2.5
-10.233144760131836 -6.47106409072876 -2.5
-8.387177467346191 -8.731963157653809 -2.5
-6.877841472625732 -9.964286804199219 -2.5
-5.190380573272705 -10.938525199890137 -2.5
-3.3685107231140137 -11.629472732543945 -2.5
-2.421806573867798 -11.862812042236328 -2.5
0.48753905296325684 -12.097684860229492 -2.5
2.3799901008605957 -8.216689109802246 -1.7663497924804688
6.877856254577637 -9.964277267456055 -2.5
7.6573486328125 -9.378524780273438 -2.5
9.679266929626465 -7.273486137390137 -2.5
10.233159065246582 -6.471035003662109 -2.5
11.13866138458252 -4.745732307434082 -2.5
8.471166610717773 -2.8280858993530273 -1.8440574407577515
8.267763137817383 -2.0378026962280273 -1.7582470178604126
-11.464521408081055 9.765624781721272e-06 -2.5
-11.42733383178711 -0.92249995470047 -2.5
-10.547109603881836 -4.493691444396973 -2.5
-9.165224075317383 -6.887216567993164 -2.5
-8.581308364868164 -7.602382659912109 -2.5
-7.941747665405273 -8.268232345581055 -2.5
-5.732245922088623 -9.928564071655273 -2.5
-4.914741039276123 -10.357617378234863 -2.5
-4.065366268157959 -10.719511032104492 -2.5
-3.1896092891693115 -11.011855125427246 -2.5
-1.3818944692611694 -11.380927085876465 -2.5
-0.4616113305091858 -11.455204963684082 -2.5
1.0617040395736694 -8.743935585021973 -1.9207442998886108
3.2091991901397705 -8.461933135986328 -1.9734928607940674
4.132436275482178 -8.708915710449219 -2.1020543575286865
7.941747665405273 -8.268232345581055 -2.5
10.151323318481445 -5.327812194824219 -2.5
8.460331916809082 -2.824462890625 -1.944990634918213
8.248330116271973 -2.033017635345459 -1.8524956703186035
9.218291282653809 -1.4981054067611694 -2.036550760269165
11.11754322052002 -0.8974902033805847 -2.4322245121002197
-10.323588371276855 -3.446523427963257 -2.5
-8.700888633728027 -6.538320064544678 -2.5
-5.441840648651123 -9.425556182861328 -2.5
-4.665747165679932 -9.832870483398438 -2.5
-3.8594043254852295 -10.17642593383789 -2.5
-3.028022289276123 -10.453984260559082 -2.5
-2.177011728286743 -10.663740158081055 -2.5
0.4382568299770355 -10.874862670898438 -2.5
1.6240429878234863 -7.955087661743164 -1.8649827241897583
2.3799901008605957 -8.216689109802246 -1.9649658203125
5.441864967346191 -9.425556182861328 -2.5
6.182651042938232 -8.957098960876465 -2.5
6.883354187011719 -8.43056583404541 -2.5
7.539403915405273 -7.849345684051514 -2.5
8.700898170471191 -6.538290977478027 -2.5
10.01278305053711 -4.266035079956055 -2.5
8.233778953552246 -2.029423713684082 -1.947912573814392
9.220756530761719 -1.4985156059265137 -2.145808458328247
-10.055419921875 -2.4784374237060547 -2.5
-9.82338809967041 -3.2795214653015137 -2.5
-9.527631759643555 -4.059345722198486 -2.5
-9.170092582702637 -4.812831878662109 -2.5
-8.279315948486328 -6.221503734588623 -2.5
-7.174096584320068 -7.46902322769165 -2.5
-6.549824237823486 -8.022079467773438 -2.5
-5.178173542022705 -8.968856811523438 -2.5
-4.439692497253418 -9.3564453125 -2.5
-3.6723926067352295 -9.683359146118164 -2.5
0.4170214831829071 -10.3479585647583 -2.5
1.1486963033676147 -9.460341453552246 -2.3004791736602783
5.883076190948486 -8.52310562133789 -2.5
6.54983377456665 -8.022079467773438 -2.5
7.17410135269165 -7.469013690948486 -2.5
7.751845359802246 -6.867538928985596 -2.5
8.279315948486328 -6.221484184265137 -2.5
8.75308609008789 -5.535107135772705 -2.5
9.1701021194458 -4.812831878662109 -2.5
9.527631759643555 -4.059335708618164 -2.5
8.460375785827637 -2.8244824409484863 -2.1531221866607666
8.247549057006836 -2.0328221321105957 -2.050523519515991
10.322772979736328 -0.8333203196525574 -2.5
-9.843280792236328 -0.794628918170929 -2.5
-9.367084503173828 -3.127187490463257 -2.5
-7.894731044769287 -5.932509422302246 -2.5
-6.245585918426514 -7.64944314956665 -2.5
-5.609809398651123 -8.127206802368164 -2.5
-4.937641620635986 -8.552265167236328 -2.5
-4.233466625213623 -8.921835899353027 -2.5
-2.7474608421325684 -9.485400199890137 -2.5
-1.975307583808899 -9.675712585449219 -2.5
-1.1903271675109863 -9.8032808303833 -2.5
-0.3976220488548279 -9.86727523803711 -2.5
0.3976464867591858 -9.86727523803711 -2.5
1.6245653629302979 -7.957655906677246 -2.056088924407959
2.747490167617798 -9.485380172729492 -2.5
3.501835823059082 -9.23355484008789 -2.5
5.609819412231445 -8.127197265625 -2.5
6.245595455169678 -7.64944314956665 -2.5
7.391762733459473 -6.548525333404541 -2.5
8.346513748168945 -5.278007507324219 -2.5
9.206767082214355 -3.073662042617798 -2.457213878631592
8.271254539489746 -2.0386717319488525 -2.1565916538238525
9.747421264648438 -1.5841015577316284 -2.5
9.843280792236328 -0.794628918170929 -2.5
-9.434609413146973 9.765624781721272e-06 -2.5
-9.404013633728027 -0.7591601610183716 -2.5
-9.160449028015137 -2.257861375808716 -2.5
-8.679633140563965 -3.6980466842651367 -2.5
-8.353920936584473 -4.384472370147705 -2.5
-7.974038124084473 -5.042470455169678 -2.5
-7.542421817779541 -5.667763710021973 -2.5
-7.061899185180664 -6.256298542022705 -2.5
-6.535575866699219 -6.804247856140137 -2.5
-5.966879844665527 -7.308085918426514 -2.5
-4.044531345367432 -8.523700714111328 -2.5
-3.3455517292022705 -8.821503639221191 -2.5
-1.8871630430221558 -9.243935585021973 -2.5
-1.13720703125 -9.365800857543945 -2.5
1.6245360374450684 -7.957480430603027 -2.1520814895629883
4.717309474945068 -8.170595169067383 -2.5
5.359467506408691 -7.764511585235596 -2.5
5.966875076293945 -7.308075904846191 -2.5
7.061899185180664 -6.256298542022705 -2.5
7.974042892456055 -5.042470455169678 -2.5
8.35390567779541 -4.384472370147705 -2.5
8.94906234741211 -2.987626791000366 -2.5
9.160449028015137 -2.2578320503234863 -2.5
9.404013633728027 -0.7591503858566284 -2.5
-9.000004768371582 -0.7265527248382568 -2.5
-8.56459903717041 -2.8592772483825684 -2.5
-7.995028972625732 -4.196113109588623 -2.5
-7.631459712982178 -4.825849533081055 -2.5
-7.218388557434082 -5.424267292022705 -2.5
-6.758515357971191 -5.987519264221191 -2.5
-5.710532188415527 -6.994121074676514 -2.5
-5.129213809967041 -7.430947303771973 -2.5
-3.2018065452575684 -8.442500114440918 -2.5
-1.088344693183899 -8.963427543640137 -2.5
0.3635839819908142 -9.021943092346191 -2.5
1.0883691310882568 -8.9634370803833 -2.5
2.5121092796325684 -8.672773361206055 -2.5
5.710536956787109 -6.994121074676514 -2.5
6.758510589599609 -5.987509727478027 -2.5
8.306747436523438 -3.5391600131988525 -2.5
8.56459903717041 -2.859267473220825 -2.5
8.766908645629883 -2.160839796066284 -2.5
9.0 -0.7265429496765137 -2.5
-8.655160903930664 9.765624781721272e-06 -2.5
-8.62709903717041 -0.6964452862739563 -2.5
-8.543081283569336 -1.3883886337280273 -2.5
-8.209721565246582 -2.7408103942871094 -2.5
-7.962563514709473 -3.392529249191284 -2.5
-7.663754940032959 -4.02224588394165 -2.5
-7.315253734588623 -4.625878810882568 -2.5
-6.91930627822876 -5.199521541595459 -2.5
-5.995639324188232 -6.242109298706055 -2.5
-5.47390604019165 -6.704287052154541 -2.5
-4.327578067779541 -7.495575904846191 -2.5
-3.710400342941284 -7.819501876831055 -2.5
-2.4080028533935547 -8.313427925109863 -2.5
-1.043251872062683 -8.592031478881836 -2.5
-0.34849119186401367 -8.648134231567383 -2.5
3.069164991378784 -8.092695236206055 -2.5
3.7104148864746094 -7.819491863250732 -2.5
4.327582836151123 -7.495556354522705 -2.5
4.916698932647705 -7.123036861419678 -2.5
5.473920822143555 -6.704306602478027 -2.5
5.995639324188232 -6.242109298706055 -2.5
6.478486061096191 -5.739433288574219 -2.5
7.315253734588623 -4.625869274139404 -2.5
7.962563514709473 -3.392529249191284 -2.5
8.209731101989746 -2.740800619125366 -2.5
-8.30868148803711 9.765624781721272e-06 -2.5
-8.28173828125 -0.6685644388198853 -2.5
-8.201093673706055 -1.3327929973602295 -2.5
-8.067245483398438 -1.9883886575698853 -2.5
-7.643818378448486 -3.256718635559082 -2.5
-7.022411823272705 -4.44070291519165 -2.5
-6.642319202423096 -4.991376876831055 -2.5
-5.755624771118164 -5.992236137390137 -2.5
-4.719872951507568 -6.837910175323486 -2.5
-4.154335975646973 -7.195527076721191 -2.5
-3.5618603229522705 -7.506474494934082 -2.5
-2.3116161823272705 -7.980634689331055 -2.5
-1.001489281654358 -8.248085975646973 -2.5
-0.33455076813697815 -8.301933288574219 -2.5
0.3345654308795929 -8.301933288574219 -2.5
2.9463133811950684 -7.768740177154541 -2.5
3.5618748664855957 -7.506474494934082 -2.5
4.154345512390137 -7.195517539978027 -2.5
4.719872951507568 -6.837890625 -2.5
5.755624771118164 -5.992236137390137 -2.5
6.219140529632568 -5.509667873382568 -2.5
7.022417068481445 -4.440693378448486 -2.5
7.356972694396973 -3.8612303733825684 -2.5
7.881088733673096 -2.6310741901397705 -2.5
8.201088905334473 -1.332802653312683 -2.5
8.28173828125 -0.6685546636581421 -2.5
-7.98681640625 9.765624781721272e-06 -2.5
-7.960903167724609 -0.6426659822463989 -2.5
-7.883393287658691 -1.2811717987060547 -2.5
-7.575786113739014 -2.529179573059082 -2.5
-7.347704887390137 -3.130556583404541 -2.5
-6.750375747680664 -4.268671989440918 -2.5
-5.978212833404541 -5.296230316162109 -2.5
-5.532670974731445 -5.760117053985596 -2.5
-3.42388653755188 -7.215683460235596 -2.5
-2.832158088684082 -7.46780252456665 -2.5
-1.5975682735443115 -7.825400352478027 -2.5
-0.962695300579071 -7.928564071655273 -2.5
0.32161131501197815 -7.980321884155273 -2.5
0.9627050757408142 -7.928564071655273 -2.5
1.5975682735443115 -7.825400352478027 -2.5
2.2220799922943115 -7.671464443206787 -2.5
2.832167863845825 -7.467782974243164 -2.5
3.993422746658325 -6.91677713394165 -2.5
5.051230430603027 -6.186611175537109 -2.5
5.532665729522705 -5.760107517242432 -2.5
6.38500452041626 -4.798007488250732 -2.5
6.750380516052246 -4.268671989440918 -2.5
7.071972370147705 -3.7116503715515137 -2.5
7.347704887390137 -3.130556583404541 -2.5
7.883388519287109 -1.2811717987060547 -2.5
-7.686962604522705 9.765624781721272e-06 -2.5
-7.463603496551514 -1.8396190404891968 -2.5
-5.753774166107178 -5.097402095794678 -2.5
-5.324951171875 -5.543857097625732 -2.5
-4.861586570739746 -5.954355239868164 -2.5
-4.366684436798096 -6.326220512390137 -2.5
-3.8434910774230957 -6.657109260559082 -2.5
-0.3095117211341858 -7.680722713470459 -2.5
1.53759765625 -7.531601428985596 -2.5
2.1386523246765137 -7.383456707000732 -2.5
2.7258496284484863 -7.187431335449219 -2.5
3.295356273651123 -6.944775104522705 -2.5
3.8434863090515137 -6.657109260559082 -2.5
4.861591815948486 -5.954345703125 -2.5
5.753774166107178 -5.097392559051514 -2.5
6.145287990570068 -4.617870807647705 -2.5
6.496953010559082 -4.108407974243164 -2.5
6.806469440460205 -3.5723047256469727 -2.5
7.071860313415527 -3.013017416000366 -2.5
7.463598251342773 -1.8396093845367432 -2.5
7.662040710449219 -0.6185351610183716 -2.5
-7.382861137390137 -0.5960058569908142 -2.5
-7.310956954956055 -1.1881250143051147 -2.5
-7.025693416595459 -2.345507860183716 -2.5
-5.544135570526123 -4.91165018081665 -2.5
-2.6265087127685547 -6.925546646118164 -2.5
-2.060717821121216 -7.114423751831055 -2.5
0.8928124904632568 -7.352851390838623 -2.5
1.4815673828125 -7.257177352905273 -2.5
2.626523494720459 -6.925537109375 -2.5
4.6844482421875 -5.737382888793945 -2.5
5.130927562713623 -5.341845512390137 -2.5
5.921371936798096 -4.449618816375732 -2.5
7.025683403015137 -2.345517635345459 -2.5
7.382856369018555 -0.595996081829071 -2.5
-7.144594669342041 1.9531249563442543e-05 -2.5
-7.121425628662109 -0.5748925805091858 -2.5
-7.052060604095459 -1.1460546255111694 -2.5
-6.936982154846191 -1.709804654121399 -2.5
-6.5728759765625 -2.800429582595825 -2.5
-6.038530349731445 -3.818535089492798 -2.5
-4.949238300323486 -5.152685642242432 -2.5
-4.518569469451904 -5.534228324890137 -2.5
-3.5722949504852295 -6.187382698059082 -2.5
-3.0628368854522705 -6.454775333404541 -2.5
0.2876953184604645 -7.138779163360596 -2.5
2.533515453338623 -6.68029260635376 -2.5
3.0628416538238525 -6.454765319824219 -2.5
5.711689472198486 -4.292050838470459 -2.5
6.5728759765625 -2.800429582595825 -2.5
7.052070140838623 -1.1460644006729126 -2.5
-6.697963714599609 -1.6508886814117432 -2.5
-6.543403148651123 -2.184501886367798 -2.5
-6.346405982971191 -2.7039451599121094 -2.5
-6.108232498168945 -3.2058496475219727 -2.5
-5.163535118103027 -4.574482440948486 -2.5
-4.778700828552246 -4.975136756896973 -2.5
-4.362875938415527 -5.34353494644165 -2.5
-3.9187450408935547 -5.677285194396973 -2.5
-3.449213743209839 -5.974199295043945 -2.5
-2.9572949409484863 -6.232372760772705 -2.5
-2.4462108612060547 -6.450126647949219 -2.5
-1.3798534870147705 -6.758994102478027 -2.5
-0.8314940929412842 -6.848105430603027 -2.5
0.8315185308456421 -6.848105430603027 -2.5
1.3798632621765137 -6.758984088897705 -2.5
1.9192724227905273 -6.626035213470459 -2.5
3.9187450408935547 -5.677265644073486 -2.5
4.778700828552246 -4.975146293640137 -2.5
5.514882564544678 -4.144160270690918 -2.5
5.83047342300415 -3.686953067779541 -2.5
6.346396446228027 -2.703935384750366 -2.5
6.80907678604126 -1.1065820455551147 -2.5
6.876044750213623 -0.5550780892372131 -2.5
-6.666845321655273 9.765624781721272e-06 -2.5
-6.580517292022705 -1.069433569908142 -2.5
-6.133359432220459 -2.613173723220825 -2.5
-5.9031982421875 -3.0982322692871094 -2.5
-5.329760551452637 -4.005048751831055 -2.5
-4.990200042724609 -4.420937538146973 -2.5
-4.618281364440918 -4.80813455581665 -2.5
-3.3334178924560547 -5.773652076721191 -2.5
-2.364091634750366 -6.233583927154541 -2.5
-1.3335399627685547 -6.53209924697876 -2.5
-0.8035937547683716 -6.618222713470459 -2.5
0.26845213770866394 -6.661425590515137 -2.5
0.8036083579063416 -6.618222713470459 -2.5
2.858036994934082 -6.023144245147705 -2.5
3.7872068881988525 -5.486689567565918 -2.5
4.216415882110596 -5.164150238037109 -2.5
4.618281364440918 -4.808125019073486 -2.5
5.329765319824219 -4.005048751831055 -2.5
5.634750843048096 -3.563183546066284 -2.5
5.90319299697876 -3.0982322692871094 -2.5
6.323740005493164 -2.1111717224121094 -2.5
-6.427651405334473 -0.5188769698143005 -2.5
-6.365058422088623 -1.0344140529632568 -2.5
-6.261181354522705 -1.5432324409484863 -2.5
-5.155253887176514 -3.873915910720825 -2.5
-3.6631932258605957 -5.307060241699219 -2.5
-3.2242772579193115 -5.584609031677246 -2.5
-2.764453172683716 -5.825947284698486 -2.5
-2.286694288253784 -6.029511451721191 -2.5
-1.794106364250183 -6.193954944610596 -2.5
-0.25966307520866394 -6.443329811096191 -2.5
1.2898876667022705 -6.31823205947876 -2.5
2.286699056625366 -6.029501914978027 -2.5
4.078369140625 -4.995087623596191 -2.5
4.467080116271973 -4.650712966918945 -2.5
4.826826095581055 -4.276181697845459 -2.5
5.155258655548096 -3.873915910720825 -2.5
6.11669397354126 -2.042060613632202 -2.5
6.427651405334473 -0.5188769698143005 -2.5
-6.161591529846191 -1.0013378858566284 -2.5
-6.061025142669678 -1.4939062595367432 -2.5
-5.921166896820068 -1.9767773151397705 -2.5
-5.742895603179932 -2.4468066692352295 -2.5
-4.990454196929932 -3.7500877380371094 -2.5
-3.546093702316284 -5.137412071228027 -2.5
-3.121210813522339 -5.406084060668945 -2.5
-2.676079034805298 -5.639716625213623 -2.5
-2.2135984897613525 -5.836757659912109 -2.5
-0.25136229395866394 -6.237353324890137 -2.5
0.2513720691204071 -6.237353324890137 -2.5
0.7524462938308716 -6.19689416885376 -2.5
2.676088809967041 -5.639707088470459 -2.5
3.5461082458496094 -5.137402057647705 -2.5
3.947993040084839 -4.835390567779541 -2.5
5.527392387390137 -2.9009861946105957 -2.5
6.061025142669678 -1.493896484375 -2.5
6.161581993103027 -1.0013476610183716 -2.5
-6.047382831573486 9.765624781721272e-06 -2.5
-6.027773380279541 -0.4866015613079071 -2.5
-5.969077110290527 -0.9700683355331421 -2.5
-5.871650218963623 -1.4472265243530273 -2.5
-5.563466548919678 -2.370361328125 -2.5
-5.111176490783691 -3.232119083404541 -2.5
-4.834526062011719 -3.6329197883605957 -2.5
-4.189159870147705 -4.361367225646973 -2.5
-3.435302734375 -4.976884841918945 -2.5
-3.023686408996582 -5.237167835235596 -2.5
-2.592465877532959 -5.463496208190918 -2.5
-2.144423723220825 -5.654384613037109 -2.5
-1.6824853420257568 -5.808603286743164 -2.5
-0.7289257645606995 -6.003271579742432 -2.5
-0.2435009777545929 -6.042470455169678 -2.5
0.24350585043430328 -6.042460918426514 -2.5
0.7289404273033142 -6.003271579742432 -2.5
2.592470645904541 -5.463486194610596 -2.5
3.023696184158325 -5.237167835235596 -2.5
3.435302734375 -4.976874828338623 -2.5
3.82464337348938 -4.684316158294678 -2.5
4.834536075592041 -3.6329002380371094 -2.5
5.111181735992432 -3.232109308242798 -2.5
5.354687213897705 -2.810351610183716 -2.5
5.736156940460205 -1.9149999618530273 -2.5
6.027763366699219 -0.4866015613079071 -2.5
-5.862524509429932 0.0 -2.5
-5.786601543426514 -0.9404101371765137 -2.5
-5.69216775894165 -1.4029881954193115 -2.5
-5.560810565948486 -1.8564647436141968 -2.5
-5.393403053283691 -2.297910213470459 -2.5
-5.191005706787109 -2.7244529724121094 -2.5
-3.7077245712280273 -4.541142463684082 -2.5
-2.5132176876068115 -5.296474456787109 -2.5
-1.1726561784744263 -5.744042873382568 -2.5
-0.7066552639007568 -5.819775104522705 -2.5
-0.2360546886920929 -5.857753753662109 -2.5
0.23605956137180328 -5.857753753662109 -2.5
0.7066503763198853 -5.819765567779541 -2.5
1.172646403312683 -5.744042873382568 -2.5
2.0788867473602295 -5.481533050537109 -2.5
2.931269407272339 -5.077079772949219 -2.5
3.3302977085113525 -4.824746131896973 -2.5
3.7077245712280273 -4.541122913360596 -2.5
4.388164043426514 -3.8875584602355957 -2.5
4.686748027801514 -3.521855354309082 -2.5
4.954946041107178 -3.133310556411743 -2.5
5.393398284912109 -2.297900438308716 -2.5
-5.687026023864746 9.765624781721272e-06 -2.5
-5.668583869934082 -0.4576074182987213 -2.5
-5.231953144073486 -2.229120969772339 -2.5
-5.035614967346191 -2.642890453338623 -2.5
-4.806611061096191 -3.0395116806030273 -2.5
-4.546445369720459 -3.4164257049560547 -2.5
-4.256801605224609 -3.771191358566284 -2.5
-3.9395458698272705 -4.101493835449219 -2.5
-3.59673810005188 -4.405185222625732 -2.5
-2.843510627746582 -4.925087928771973 -2.5
-2.43798828125 -5.137939453125 -2.5
-1.1375585794448853 -5.572089672088623 -2.5
-0.685498058795929 -5.645556449890137 -2.5
1.1375536918640137 -5.572089672088623 -2.5
2.843505859375 -4.925097465515137 -2.5
3.230605363845825 -4.680322170257568 -2.5
3.596733331680298 -4.405185222625732 -2.5
3.9395408630371094 -4.101493835449219 -2.5
4.806621074676514 -3.039501905441284 -2.5
5.035614967346191 -2.642880916595459 -2.5
5.394345760345459 -1.8008886575698853 -2.5
5.521772384643555 -1.360986351966858 -2.5
5.613373756408691 -0.9122558236122131 -2.5
5.668588638305664 -0.4576074182987213 -2.5
-5.520155906677246 9.765624781721272e-06 -2.5
-5.502270221710205 -0.4441894292831421 -2.5
-5.448676586151123 -0.8854882717132568 -2.5
-5.359755516052246 -1.321044921875 -2.5
-5.078437328338623 -2.163710832595825 -2.5
-4.887861251831055 -2.5653417110443115 -2.5
-4.665590763092041 -2.950331926345825 -2.5
-3.4912109375 -4.275937557220459 -2.5
-3.135815382003784 -4.543007850646973 -2.5
-2.760077953338623 -4.780595779418945 -2.5
-1.9574755430221558 -5.161425590515137 -2.5
-1.1041796207427979 -5.408603191375732 -2.5
0.22226561605930328 -5.515683650970459 -2.5
0.6653808355331421 -5.479902267456055 -2.5
1.9574657678604126 -5.161435604095459 -2.5
2.760073184967041 -4.780595779418945 -2.5
3.491205930709839 -4.275927543640137 -2.5
3.8239500522613525 -3.981152296066284 -2.5
4.131904125213623 -3.6605467796325684 -2.5
4.413061618804932 -3.316171884536743 -2.5
4.665595531463623 -2.950331926345825 -2.5
4.887861251831055 -2.5653417110443115 -2.5
5.078442096710205 -2.163701057434082 -2.5
5.236079216003418 -1.748046875 -2.5
-5.291840553283691 -0.85999995470047 -2.5
-4.747172832489014 -2.491503953933716 -2.5
-4.531289100646973 -2.865410089492798 -2.5
-4.012963771820068 -3.555166006088257 -2.5
-3.3907225131988525 -4.152871131896973 -2.5
-3.045546770095825 -4.412226676940918 -2.5
-0.2158789038658142 -5.356914043426514 -2.5
0.2158789038658142 -5.356914043426514 -2.5
0.6462304592132568 -5.322167873382568 -2.5
1.4915966987609863 -5.149589538574219 -2.5
1.9011328220367432 -5.012861251831055 -2.5
3.0455517768859863 -4.412226676940918 -2.5
3.3907177448272705 -4.152851581573486 -2.5
4.286035060882568 -3.2207324504852295 -2.5
4.747162818908691 -2.491503953933716 -2.5
4.932255744934082 -2.1014256477355957 -2.5
5.291845798492432 -0.85999995470047 -2.5
