ply
format ascii 1.0
element vertex 844
property float x
property float y
property float z
end_header
-1.153540015220642 28.624467849731445 7.676122665405273
-7.531054496765137 26.000150680541992 7.253081321716309
-6.359633445739746 13.402694702148438 3.9750237464904785
-16.022329330444336 23.212270736694336 7.557511329650879
-18.188188552856445 22.276473999023438 7.705812931060791
-3.3750391006469727 27.795839309692383 7.170983791351318
-6.357177734375 13.3975191116333 3.797874689102173
-13.909042358398438 24.091136932373047 7.124392032623291
-16.022319793701172 23.2122745513916 7.223498344421387
-5.488173484802246 26.882816314697266 6.703794002532959
-7.531054496765137 26.000150680541992 6.613775253295898
-9.578783988952637 25.25716781616211 6.600010395050049
-16.022308349609375 23.212284088134766 6.8913750648498535
-18.167539596557617 22.251161575317383 7.018620491027832
-3.4199461936950684 28.16568374633789 6.600009441375732
-7.706113338470459 26.60452651977539 6.443120002746582
-9.777504920959473 25.78116226196289 6.414008617401123
-6.352309226989746 13.3872652053833 3.446937084197998
-13.831313133239746 23.956527709960938 6.434865474700928
-15.952553749084473 23.1112060546875 6.532476425170898
-3.4647607803344727 28.5347900390625 6.35159158706665
-5.651523113250732 27.682952880859375 6.243220806121826
-7.758466720581055 26.785282135009766 6.161981582641602
-9.88277816772461 26.058734893798828 6.158339500427246
-6.349902153015137 13.382182121276855 3.2730424404144287
-16.022216796875 23.21213722229004 6.232378005981445
-5.653901100158691 27.694602966308594 5.918111324310303
-7.758466720581055 26.785282135009766 5.838644981384277
-13.991494178771973 24.23395538330078 5.858887672424316
-16.02284049987793 23.213031768798828 5.905576705932617
-3.4769530296325684 28.635194778442383 5.706578731536865
-5.653901100158691 27.694602966308594 5.5919013023376465
-7.758466720581055 26.785282135009766 5.5168137550354
-6.345117092132568 13.37210464477539 2.9281444549560547
-14.013690948486328 24.272401809692383 5.544722557067871
-16.02284049987793 23.213031768798828 5.580054759979248
-18.18876838684082 22.27718734741211 5.689549446105957
-3.4769628047943115 28.635194778442383 5.375131130218506
-6.342739105224609 13.367109298706055 2.757042169570923
-14.013690948486328 24.272401809692383 5.2226762771606445
-18.188779830932617 22.27718734741211 5.359090328216553
19.844085693359375 12.548676490783691 4.1064300537109375
-3.4769482612609863 28.635194778442383 5.045050144195557
-5.653896331787109 27.694602966308594 4.94366455078125
-6.340385437011719 13.3621187210083 2.5867717266082764
-3.4769580364227295 28.635194778442383 4.716245651245117
-5.653901100158691 27.694602966308594 4.621469497680664
-7.758466720581055 26.785282135009766 4.559414386749268
-6.338032245635986 13.357172966003418 2.4172863960266113
-5.612065315246582 27.489686965942383 4.268617630004883
-18.188779830932617 22.27718734741211 4.3755364418029785
-5.653901100158691 27.694602966308594 3.9804911613464355
-6.333354473114014 13.347329139709473 2.080484628677368
-13.925302505493164 24.119306564331055 3.922013521194458
-16.02284049987793 23.213031768798828 3.972059965133667
-1.1937255859375 29.6216983795166 3.8402891159057617
-5.653901100158691 27.694602966308594 3.661536693572998
-7.758466720581055 26.785282135009766 3.612370014190674
23.325162887573242 5.749189376831055 2.8416528701782227
22.561805725097656 7.532240867614746 2.8135790824890137
21.80103302001953 9.288549423217773 2.8030974864959717
-1.1937353610992432 29.6216983795166 3.5067241191864014
-5.653901100158691 27.694602966308594 3.3434972763061523
-9.839961051940918 25.945804595947266 3.2823686599731445
-6.328725337982178 13.337563514709473 1.7462682723999023
-18.18876838684082 22.27718734741211 3.401883363723755
-3.4769628047943115 28.635194778442383 3.088350772857666
-5.653901100158691 27.694602966308594 3.0262866020202637
-6.326416015625 13.3326997756958 1.58001708984375
-14.01370620727539 24.27240753173828 3.0007567405700684
-18.188779830932617 22.27718734741211 3.079134464263916
-3.4769530296325684 28.635194778442383 2.76540470123291
-5.653901100158691 27.694602966308594 2.709831476211548
-7.758466720581055 26.785282135009766 2.6734459400177
-6.324116230010986 13.327856063842773 1.4142833948135376
-14.013700485229492 24.272411346435547 2.686971426010132
-1.1937353610992432 29.6216983795166 2.5109245777130127
-5.653901100158691 27.694602966308594 2.3940484523773193
-9.839961051940918 25.945804595947266 2.3502790927886963
-16.02284049987793 23.213031768798828 2.3889787197113037
-18.18876838684082 22.27718734741211 2.435856342315674
-5.653891563415527 27.694608688354492 2.078859806060791
-7.758466720581055 26.785282135009766 2.050945281982422
-9.88277816772461 26.058734893798828 2.049733877182007
-14.013700485229492 24.272411346435547 2.061321258544922
-16.022851943969727 23.213031768798828 2.074456214904785
-18.18876838684082 22.27718734741211 2.115161895751953
2.1350536346435547 17.583831787109375 1.1055392026901245
-3.4769482612609863 28.635194778442383 1.800362229347229
-6.3172607421875 13.313403129577637 0.9197421073913574
-16.02284049987793 23.213031768798828 1.7604458332061768
2.132578134536743 17.56344223022461 0.9075637459754944
0.708984375 17.593759536743164 0.9032345414161682
-1.1937353610992432 29.6216983795166 1.520723819732666
-3.4769530296325684 28.635194778442383 1.47967529296875
-5.653901100158691 27.694602966308594 1.4499402046203613
-7.758476257324219 26.785282135009766 1.430470585823059
-9.820448875427246 25.894365310668945 1.4206085205078125
-6.314985275268555 13.308608055114746 0.7556430101394653
-13.92529296875 24.119300842285156 1.4286389350891113
-16.02284049987793 23.213031768798828 1.4468683004379272
-18.188779830932617 22.27718734741211 1.4752596616744995
0.708984375 17.593759536743164 0.7077010869979858
-3.4578709602355957 28.478017807006836 1.1529889106750488
-16.022851943969727 23.21302604675293 1.1336486339569092
0.708984375 17.593759536743164 0.5123428106307983
-3.4769580364227295 28.635194778442383 0.8393157720565796
-5.646274089813232 27.657255172729492 0.8213406205177307
-7.758466720581055 26.785282135009766 0.8114058971405029
-9.839950561523438 25.945810317993164 0.8074123859405518
-13.977797508239746 24.21021842956543 0.8134222030639648
2.132578134536743 17.563446044921875 0.3186291456222534
-3.4769482612609863 28.635194778442383 0.5194851756095886
-9.839956283569336 25.945804595947266 0.49973875284194946
-6.308178424835205 13.294261932373047 0.265005499124527
-16.02284049987793 23.213031768798828 0.5079672336578369
0.708984375 17.593759536743164 0.1219540387392044
-1.1937255859375 29.6216983795166 0.20532409846782684
-3.4769482612609863 28.635194778442383 0.19978179037570953
-5.646284103393555 27.657255172729492 0.19550292193889618
-6.305917739868164 13.289501190185547 0.10187865793704987
-13.977797508239746 24.21021842956543 0.19361785054206848
-16.02284049987793 23.213031768798828 0.19535216689109802
2.1325879096984863 17.563446044921875 -0.073522187769413
0.708984375 17.593759536743164 -0.0731712356209755
-1.1937353610992432 29.6216983795166 -0.12319763004779816
-3.4769482612609863 28.635194778442383 -0.11987213045358658
-7.758466720581055 26.785282135009766 -0.11588577181100845
-9.839950561523438 25.945810317993164 -0.11531554907560349
-16.02284049987793 23.213031768798828 -0.11721435189247131
-18.188779830932617 22.27718734741211 -0.11951430886983871
-1.1937353610992432 29.6216983795166 -0.4517461955547333
-3.4769482612609863 28.635194778442383 -0.43955230712890625
-6.3013916015625 13.279979705810547 -0.22398772835731506
-18.188779830932617 22.27718734741211 -0.43824049830436707
0.708984375 17.593759536743164 -0.463519424200058
-5.646274089813232 27.657255172729492 -0.7430770993232727
-7.758466720581055 26.785282135009766 -0.7340894937515259
-6.299130916595459 13.275218963623047 -0.38680723309516907
-13.977797508239746 24.21021842956543 -0.7359133958816528
-16.02284049987793 23.213031768798828 -0.7425045371055603
4.35403299331665 21.327489852905273 -0.8144763112068176
0.708984375 17.593759536743164 -0.6588441133499146
-5.646284103393555 27.657255172729492 -1.0562057495117188
-9.882787704467773 26.05872917175293 -1.0428138971328735
-6.296884536743164 13.270453453063965 -0.5496084690093994
-16.02284049987793 23.213031768798828 -1.0553916692733765
-18.18876838684082 22.27718734741211 -1.0761007070541382
5.240195274353027 18.091312408447266 -0.91385817527771
0.708984375 17.593759536743164 -0.8543292284011841
-1.1908299922943115 29.5496826171875 -1.4348950386047363
-5.630649089813232 27.580760955810547 -1.365802526473999
-7.723002910614014 26.662832260131836 -1.3468393087387085
-9.773256301879883 25.769954681396484 -1.3372399806976318
-6.294628620147705 13.265703201293945 -0.7124264240264893
-13.977787971496582 24.210229873657227 -1.356385350227356
2.1325879096984863 17.563446044921875 -1.055058240890503
0.6150488257408142 15.262636184692383 -0.9108993411064148
-2.3707714080810547 19.525033950805664 -1.1728935241699219
-7.758466720581055 26.785282135009766 -1.6629524230957031
-9.820444107055664 25.89436912536621 -1.651487112045288
-6.292367935180664 13.260936737060547 -0.8753028512001038
-16.02284049987793 23.213031768798828 -1.682015299797058
-18.18876838684082 22.27718734741211 -1.7150204181671143
2.1325879096984863 17.563446044921875 -1.2519516944885254
-0.6536523103713989 16.219940185546875 -1.1486859321594238
-2.3707714080810547 19.525033950805664 -1.3917772769927979
-5.653911113739014 27.694599151611328 -2.0001466274261475
-7.758471488952637 26.785282135009766 -1.9732900857925415
-9.820444107055664 25.89436912536621 -1.9596853256225586
-18.188779830932617 22.27718734741211 -2.0350749492645264
19.854398727416992 20.670639038085938 -2.347599983215332
16.281522750854492 23.587894439697266 -2.347599983215332
14.330676078796387 24.821489334106445 -2.347599983215332
5.240195274353027 18.091312408447266 -1.5427345037460327
3.267519474029541 16.005395889282227 -1.338012933731079
1.8908642530441284 15.572714805603027 -1.2849018573760986
0.6150488257408142 15.262636184692383 -1.251147747039795
-5.653906345367432 27.694599151611328 -2.3152050971984863
-7.758466720581055 26.785282135009766 -2.284114360809326
-13.75661563873291 23.82712745666504 -2.2535555362701416
-18.12676239013672 22.201234817504883 -2.347599983215332
-19.85443878173828 20.670644760131836 -2.347599983215332
-22.913124084472656 17.218109130859375 -2.347599983215332
26.512325286865234 4.308686256408691 -2.5
25.477834701538086 8.505776405334473 -2.5
24.710779190063477 10.528310775756836 -2.5
18.87950325012207 16.725811004638672 -2.347599983215332
17.472415924072266 18.19072723388672 -2.347599983215332
15.952028274536133 19.537700653076172 -2.347599983215332
10.665228843688965 15.451308250427246 -1.7474528551101685
12.611376762390137 21.843568801879883 -2.347599983215332
10.812788009643555 22.787532806396484 -2.347599983215332
8.944101333618164 23.583709716796875 -2.347599983215332
3.267519474029541 16.005395889282227 -1.5204218626022339
1.8908642530441284 15.572714805603027 -1.460070013999939
-5.045175552368164 24.71304702758789 -2.347599983215332
-7.017412185668945 24.2269287109375 -2.347599983215332
-8.94412612915039 23.583696365356445 -2.347599983215332
-6.285575866699219 13.2466402053833 -1.364683985710144
-12.611371994018555 21.84355926513672 -2.347599983215332
-14.328168869018555 20.7579288482666 -2.347599983215332
-20.164154052734375 15.152377128601074 -2.347599983215332
-24.710790634155273 10.52828598022461 -2.5
-25.477840423583984 8.505746841430664 -2.5
-26.51230812072754 4.308701038360596 -2.5
-26.773056030273438 2.1613378524780273 -2.5
9.759706497192383 1.5861132144927979 -1.0309370756149292
23.280847549438477 5.738227367401123 -2.5
16.853397369384766 14.930834770202637 -2.347599983215332
14.240087509155273 17.44095230102539 -2.347599983215332
9.155595779418945 15.857993125915527 -1.9092034101486206
7.984238147735596 21.052762985229492 -2.347599983215332
5.197646141052246 17.944427490234375 -1.9478617906570435
-0.6524609327316284 16.190399169921875 -1.6894441843032837
-4.503749847412109 22.060916900634766 -2.347599983215332
-6.264316082000732 21.626937866210938 -2.347599983215332
-7.984355449676514 21.052650451660156 -2.347599983215332
-6.283310413360596 13.241860389709473 -1.528193473815918
-18.00017547607422 13.526249885559082 -2.347599983215332
-20.265625 12.815204620361328 -2.5
-21.2310791015625 11.142939567565918 -2.5
-23.667064666748047 3.8462986946105957 -2.5
21.64889907836914 1.9531249563442543e-05 -2.5
9.458832740783691 0.7636035084724426 -1.0958536863327026
9.127997398376465 1.4834569692611694 -1.0679244995117188
20.534765243530273 6.855527400970459 -2.5
19.91653823852539 8.485663414001465 -2.5
19.169139862060547 10.060761451721191 -2.5
17.182016372680664 10.865273475646973 -2.347599983215332
16.25200080871582 12.212607383728027 -2.347599983215332
15.216591835021973 13.480756759643555 -2.347599983215332
14.082511901855469 14.66146469116211 -2.347599983215332
12.85708999633789 15.74709415435791 -2.347599983215332
10.690409660339355 15.487763404846191 -2.1732099056243896
4.895361423492432 16.900815963745117 -2.0319180488586426
-7.208808422088623 19.008134841918945 -2.347599983215332
-6.28103494644165 13.237079620361328 -1.6919643878936768
-15.2166109085083 13.480741500854492 -2.347599983215332
-16.25202178955078 12.212592124938965 -2.347599983215332
-18.262088775634766 11.548236846923828 -2.4951705932617188
-19.169139862060547 10.060751914978027 -2.5
-19.91653823852539 8.485644340515137 -2.5
-20.534770965576172 6.855507850646973 -2.5
-21.01984405517578 5.180912971496582 -2.5
-21.368555068969727 3.472734212875366 -2.5
-21.578691482543945 1.7420116662979126 -2.5
18.149337768554688 7.732734203338623 -2.5
17.43846321105957 9.152436256408691 -2.4957356452941895
15.657450675964355 9.901190757751465 -2.347599983215332
13.86642837524414 12.28458023071289 -2.347599983215332
12.832968711853027 13.360551834106445 -2.347599983215332
6.569174766540527 17.321533203125 -2.347599983215332
4.895361423492432 16.90081024169922 -2.229763984680176
3.1567821502685547 15.462968826293945 -1.9999390840530396
0.6150488257408142 15.262636184692383 -1.9357045888900757
-2.0585155487060547 16.953290939331055 -2.1641595363616943
-3.7055859565734863 18.150957107543945 -2.347599983215332
-11.716288566589355 14.34984302520752 -2.347599983215332
-12.832968711853027 13.360541343688965 -2.347599983215332
-13.866439819335938 12.284584999084473 -2.347599983215332
-14.809980392456055 11.1289644241333 -2.347599983215332
-15.657465934753418 9.901185989379883 -2.347599983215332
-17.468265533447266 9.16805648803711 -2.5
-18.14933967590332 7.732714653015137 -2.5
18.11604881286621 2.9296874345163815e-05 -2.5
10.041156768798828 2.474926710128784 -1.4271408319473267
16.022804260253906 8.409428596496582 -2.497168779373169
12.733427047729492 11.280858993530273 -2.347599983215332
10.758964538574219 13.17735767364502 -2.347599983215332
9.663735389709473 14.000370979309082 -2.347599983215332
8.505834579467773 14.732572555541992 -2.347599983215332
6.032421588897705 15.906225204467773 -2.347599983215332
4.732934474945068 16.34005355834961 -2.347599983215332
0.5993847250938416 14.873964309692383 -2.0542590618133545
-0.6311864852905273 15.662416458129883 -2.1631529331207275
-2.050541877746582 16.887676239013672 -2.347599983215332
-4.732924461364746 16.340078353881836 -2.347599983215332
-5.951728343963623 12.543036460876465 -1.9159047603607178
-9.663793563842773 14.00033187866211 -2.347599983215332
-13.599867820739746 10.2196626663208 -2.347599983215332
-14.3781099319458 9.092177391052246 -2.347599983215332
-16.04097557067871 8.418954849243164 -2.5
8.559345245361328 0.6909960508346558 -1.2821485996246338
8.376728057861328 1.361367106437683 -1.2671334743499756
15.882064819335938 5.302231311798096 -2.5
14.817960739135742 7.777089595794678 -2.4986681938171387
13.28896427154541 8.403456687927246 -2.347599983215332
12.569677352905273 9.44552230834961 -2.347599983215332
10.891737937927246 11.339521408081055 -2.347599983215332
7.861518383026123 13.6165771484375 -2.347599983215332
-1.8951952457427979 15.608437538146973 -2.347599983215332
-5.951728343963623 12.543036460876465 -2.072929859161377
-6.985448837280273 12.099194526672363 -2.0859885215759277
-8.931703567504883 12.939847946166992 -2.347599983215332
-9.943984031677246 12.179160118103027 -2.347599983215332
-12.569686889648438 9.445512771606445 -2.347599983215332
-14.8258638381958 7.781215667724609 -2.5
-15.88206958770752 5.302202224731445 -2.5
-16.257230758666992 4.007040977478027 -2.5
-16.526927947998047 2.685903310775757 -2.5
-16.68946647644043 1.3473047018051147 -2.5
9.496191024780273 2.3406152725219727 -1.5712896585464478
13.778447151184082 7.231503963470459 -2.4999618530273438
12.350321769714355 7.809887409210205 -2.347599983215332
10.937597274780273 9.689887046813965 -2.347599983215332
10.122416496276855 10.538569450378418 -2.347599983215332
9.241591453552246 11.318921089172363 -2.347599983215332
7.306240081787109 12.654794692993164 -2.347599983215332
5.181654930114746 13.662924766540527 -2.347599983215332
2.9228711128234863 14.317177772521973 -2.347599983215332
1.7613476514816284 14.505956649780273 -2.347599983215332
-0.5883983969688416 14.600629806518555 -2.347599983215332
-1.7613427639007568 14.50594711303711 -2.347599983215332
-2.922856330871582 14.317192077636719 -2.347599983215332
-10.937606811523438 9.689863204956055 -2.347599983215332
-11.681845664978027 8.77834415435791 -2.347599983215332
-12.350337028503418 7.809867858886719 -2.347599983215332
-13.77865219116211 7.231601238250732 -2.5
-14.760263442993164 4.927700042724609 -2.5
-15.10891056060791 3.7239990234375 -2.5
-15.359580039978027 2.4961814880371094 -2.5
14.531059265136719 2.9296874345163815e-05 -2.5
8.1307373046875 0.6563964486122131 -1.403406023979187
8.030835151672363 1.3051464557647705 -1.3997942209243774
9.294604301452637 2.2909228801727295 -1.646951675415039
10.908583641052246 8.197295188903809 -2.347599983215332
8.629862785339355 10.569682121276855 -2.347599983215332
7.75137186050415 11.229828834533691 -2.347599983215332
6.822617053985596 11.81712818145752 -2.347599983215332
5.849599361419678 12.327807426452637 -2.347599983215332
3.796337842941284 13.106508255004883 -2.347599983215332
1.644741177558899 13.545751571655273 -2.347599983215332
-0.5494433641433716 13.63417911529541 -2.347599983215332
-3.7963476181030273 13.106508255004883 -2.347599983215332
-5.849609375 12.327812194824219 -2.347599983215332
-7.751391410827637 11.229814529418945 -2.347599983215332
-8.629878044128418 10.56966781616211 -2.347599983215332
-9.452397346496582 9.840991020202637 -2.347599983215332
-10.213613510131836 9.048476219177246 -2.347599983215332
-10.908588409423828 8.197279930114746 -2.347599983215332
-11.532821655273438 7.292924404144287 -2.347599983215332
-12.866605758666992 6.752919673919678 -2.5
-14.342870712280273 2.3309667110443115 -2.5
9.177958488464355 2.2621726989746094 -1.7343425750732422
12.924443244934082 4.314824104309082 -2.5
12.064936637878418 6.332192420959473 -2.5
10.81424331665039 6.838540077209473 -2.347599983215332
8.092167854309082 9.9111328125 -2.347599983215332
7.268407821655273 10.530131340026855 -2.347599983215332
6.397524356842041 11.080849647521973 -2.347599983215332
5.48513650894165 11.559711456298828 -2.347599983215332
4.537182331085205 11.96358871459961 -2.347599983215332
1.54226553440094 12.701766967773438 -2.347599983215332
-3.5598340034484863 12.289873123168945 -2.347599983215332
-4.537207126617432 11.963574409484863 -2.347599983215332
-5.485190391540527 11.559662818908691 -2.347599983215332
-6.397529125213623 11.08084487915039 -2.347599983215332
-7.268422603607178 10.530131340026855 -2.347599983215332
-9.577226638793945 8.484697341918945 -2.347599983215332
-10.22891616821289 7.686528205871582 -2.347599983215332
-10.906176567077637 6.896655082702637 -2.3675553798675537
-12.064936637878418 6.332167625427246 -2.5
-13.581499099731445 1.0963964462280273 -2.5
12.823447227478027 1.9531249563442543e-05 -2.5
9.021659851074219 2.2236523628234863 -1.811458706855774
11.797304153442383 5.026376724243164 -2.5
11.354598999023438 5.959370136260986 -2.5
10.1775484085083 6.4359130859375 -2.347599983215332
9.626665115356445 7.233998775482178 -2.347599983215332
9.013359069824219 7.985166072845459 -2.347599983215332
7.615727424621582 9.327588081359863 -2.347599983215332
6.840478420257568 9.910161018371582 -2.347599983215332
6.020859241485596 10.428451538085938 -2.347599983215332
3.350209951400757 11.56630802154541 -2.347599983215332
1.4514696598052979 11.953940391540527 -2.347599983215332
0.4848583936691284 12.031967163085938 -2.347599983215332
-1.4514843225479126 11.953935623168945 -2.347599983215332
-4.270058631896973 11.2592134475708 -2.347599983215332
-5.162201881408691 10.879111289978027 -2.347599983215332
-6.840497970581055 9.910146713256836 -2.347599983215332
-7.615736961364746 9.327588081359863 -2.347599983215332
-8.341601371765137 8.684526443481445 -2.347599983215332
-9.013368606567383 7.985151290893555 -2.347599983215332
-11.354609489440918 5.959360122680664 -2.5
-11.797308921813965 5.0263671875 -2.5
-12.657392501831055 2.0570409297943115 -2.5
12.107519149780273 9.765624781721272e-06 -2.5
11.138671875 4.74575662612915 -2.5
9.609335899353027 6.076601505279541 -2.347599983215332
9.089208602905273 6.830126762390137 -2.347599983215332
8.510146141052246 7.539345741271973 -2.347599983215332
6.458574295043945 9.356874465942383 -2.347599983215332
5.684716701507568 9.846235275268555 -2.347599983215332
4.873989105224609 10.271728515625 -2.347599983215332
2.274174690246582 11.13967227935791 -2.347599983215332
1.3704345226287842 11.286552429199219 -2.347599983215332
0.4577929675579071 11.360224723815918 -2.347599983215332
-0.45780760049819946 11.360224723815918 -2.347599983215332
-1.370449185371399 11.286547660827637 -2.347599983215332
-2.274179697036743 11.139667510986328 -2.347599983215332
-3.163203001022339 10.920536994934082 -2.347599983215332
-5.684716701507568 9.846230506896973 -2.347599983215332
-6.458579063415527 9.3568696975708 -2.347599983215332
-8.510146141052246 7.53933572769165 -2.347599983215332
-9.089208602905273 6.830111980438232 -2.347599983215332
-10.207563400268555 6.454877853393555 -2.493748664855957
-10.720664024353027 5.626645565032959 -2.5
-11.138667106628418 4.745751857757568 -2.5
-11.48440933227539 3.8340721130371094 -2.5
-11.755693435668945 2.897514581680298 -2.5
-12.068256378173828 0.9742480516433716 -2.5
11.464516639709473 1.9531249563442543e-05 -2.5
7.90652322769165 1.2849414348602295 -1.7467504739761353
8.948715209960938 2.2056689262390137 -2.0097954273223877
10.87451171875 3.6304638385772705 -2.5
10.151328086853027 5.327841758728027 -2.5
9.099008560180664 5.753876686096191 -2.347599983215332
8.05819320678711 7.138959884643555 -2.347599983215332
6.808676719665527 8.339125633239746 -2.347599983215332
5.382817268371582 9.32332992553711 -2.347599983215332
4.61514139175415 9.726224899291992 -2.347599983215332
3.8175389766693115 10.066054344177246 -2.347599983215332
2.995180606842041 10.340595245361328 -2.347599983215332
2.153398275375366 10.548075675964355 -2.347599983215332
0.4334765672683716 10.756909370422363 -2.347599983215332
-0.4334765672683716 10.756914138793945 -2.347599983215332
-1.2976561784744263 10.687152862548828 -2.347599983215332
-3.8175389766693115 10.066059112548828 -2.347599983215332
-4.615146160125732 9.72623062133789 -2.347599983215332
-6.115590572357178 8.859941482543945 -2.347599983215332
-8.606518745422363 6.467372894287109 -2.347599983215332
-9.670868873596191 6.115492820739746 -2.495142698287964
-10.547123908996582 4.493705749511719 -2.5
-10.874506950378418 3.630449056625366 -2.5
7.884902000427246 1.2814257144927979 -1.8349344730377197
9.04110336303711 2.228442430496216 -2.138906717300415
10.012778282165527 4.266054630279541 -2.5
9.637045860290527 5.057919979095459 -2.5
8.997685432434082 5.6898193359375 -2.4453444480895996
6.46373987197876 7.916650295257568 -2.347599983215332
5.805742263793945 8.41109848022461 -2.347599983215332
5.110112190246582 8.850981712341309 -2.347599983215332
4.381328105926514 9.233481407165527 -2.347599983215332
2.843437433242798 9.816718101501465 -2.347599983215332
2.044301748275757 10.013690948486328 -2.347599983215332
-0.4115380644798279 10.211953163146973 -2.347599983215332
-1.2319140434265137 10.145722389221191 -2.347599983215332
-2.843451976776123 9.816728591918945 -2.347599983215332
-4.381342887878418 9.233481407165527 -2.347599983215332
-5.110126972198486 8.850991249084473 -2.347599983215332
-5.805766582489014 8.411078453063965 -2.347599983215332
-6.46373987197876 7.916645526885986 -2.347599983215332
-7.649950981140137 6.777280330657959 -2.347599983215332
-8.17049789428711 6.139731407165527 -2.347599983215332
-9.187392234802246 5.809751033782959 -2.496896982192993
-9.637041091918945 5.057924747467041 -2.5
-10.012787818908691 4.266064167022705 -2.5
-10.742768287658691 1.74587881565094 -2.5
10.35635757446289 1.9531249563442543e-05 -2.5
8.063672065734863 0.6509765386581421 -1.9528850317001343
10.055419921875 2.478447198867798 -2.5
9.823378562927246 3.279545783996582 -2.5
9.170097351074219 4.812851428985596 -2.5
7.774604320526123 5.842250823974609 -2.347599983215332
7.27929162979126 6.448896408081055 -2.347599983215332
6.150551795959473 7.533066272735596 -2.347599983215332
4.862504959106445 8.422133445739746 -2.347599983215332
4.169043064117432 8.786093711853027 -2.347599983215332
2.7056639194488525 9.341078758239746 -2.347599983215332
-0.39159178733825684 9.717153549194336 -2.347599983215332
-2.705678701400757 9.341073989868164 -2.347599983215332
-6.150551795959473 7.533061504364014 -2.347599983215332
-7.774604320526123 5.842250823974609 -2.347599983215332
-8.747812271118164 5.531777381896973 -2.4984920024871826
-9.527636528015137 4.05935525894165 -2.5
-9.823378562927246 3.279531240463257 -2.5
-10.222241401672363 1.6612889766693115 -2.5
-10.32277774810791 0.8333398103713989 -2.5
9.8753023147583 0.0 -2.5
8.098490715026855 0.6537890434265137 -2.0568578243255615
9.36708927154541 3.127207040786743 -2.5
8.330693244934082 5.268022537231445 -2.4952621459960938
7.413476467132568 5.570888519287109 -2.347599983215332
6.941171646118164 6.149350643157959 -2.347599983215332
5.86486291885376 7.183154106140137 -2.347599983215332
4.636650085449219 8.030927658081055 -2.347599983215332
3.9753904342651367 8.377978324890137 -2.347599983215332
3.2883496284484863 8.670693397521973 -2.347599983215332
-0.3734081983566284 9.26578140258789 -2.347599983215332
-1.1177831888198853 9.205693244934082 -2.347599983215332
-1.8549022674560547 9.085907936096191 -2.347599983215332
-3.2883594036102295 8.670702934265137 -2.347599983215332
-3.975395441055298 8.377978324890137 -2.347599983215332
-4.636650085449219 8.030927658081055 -2.347599983215332
-5.864858150482178 7.183154106140137 -2.347599983215332
-6.423847675323486 6.687934398651123 -2.347599983215332
-8.744150161743164 4.589286804199219 -2.5
-9.085078239440918 3.870790958404541 -2.5
-9.588349342346191 2.3633105754852295 -2.5
-9.747416496276855 1.5841211080551147 -2.5
-9.843280792236328 0.7946386337280273 -2.5
8.138593673706055 0.6570214629173279 -2.16359806060791
7.928681373596191 1.2885448932647705 -2.1285219192504883
9.1604585647583 2.2578465938568115 -2.5
8.949067115783691 2.9876415729522705 -2.5
8.353930473327637 4.384491920471191 -2.5
7.08263635635376 5.322260856628418 -2.347599983215332
5.603134632110596 6.862592697143555 -2.347599983215332
5.032753944396973 7.291215419769287 -2.347599983215332
3.141606330871582 8.283754348754883 -2.347599983215332
-1.0678906440734863 8.79488754272461 -2.347599983215332
-1.77212393283844 8.680429458618164 -2.347599983215332
-2.4648633003234863 8.509682655334473 -2.347599983215332
-3.141606330871582 8.283759117126465 -2.347599983215332
-3.797988176345825 8.004096031188965 -2.347599983215332
-4.429736137390137 7.672533988952637 -2.347599983215332
-5.032753944396973 7.291205883026123 -2.347599983215332
-5.603134632110596 6.862587928771973 -2.347599983215332
-7.974042892456055 5.042475700378418 -2.5
-8.353930473327637 4.384482383728027 -2.5
-8.679643630981445 3.698051691055298 -2.5
-9.160453796386719 2.2578418254852295 -2.5
-9.404004096984863 0.75916987657547 -2.5
9.0 0.7265625 -2.5
7.959057331085205 1.2934863567352295 -2.2325918674468994
8.766913414001465 2.1608495712280273 -2.5
8.56459903717041 2.8592967987060547 -2.5
8.306747436523438 3.539189338684082 -2.5
7.99502420425415 4.196127891540527 -2.5
7.62853479385376 4.824008464813232 -2.4990456104278564
6.778354167938232 5.093623161315918 -2.347599983215332
6.346508502960205 5.622529029846191 -2.347599983215332
5.362411975860596 6.56777811050415 -2.347599983215332
4.8165283203125 6.977968692779541 -2.347599983215332
1.695986270904541 8.307509422302246 -2.347599983215332
1.022011637687683 8.417036056518555 -2.347599983215332
-3.63482403755188 7.660233974456787 -2.347599983215332
-4.239433288574219 7.342905044555664 -2.347599983215332
-4.816542625427246 6.977958679199219 -2.347599983215332
-5.362416744232178 6.567763328552246 -2.347599983215332
-8.56459903717041 2.8592822551727295 -2.5
-8.912358283996582 1.4484081268310547 -2.5
8.6551513671875 9.765624781721272e-06 -2.5
8.627089500427246 0.6964648365974426 -2.5
8.543075561523438 1.3883886337280273 -2.5
8.403656959533691 2.0713231563568115 -2.5
8.20974063873291 2.7408154010772705 -2.5
7.962568283081055 3.3925437927246094 -2.5
7.663759708404541 4.022260665893555 -2.5
5.140224456787109 6.295634746551514 -2.347599983215332
3.484208822250366 7.342832088470459 -2.347599983215332
2.8820605278015137 7.599384784698486 -2.347599983215332
0.9796581864356995 8.068285942077637 -2.347599983215332
0.32726073265075684 8.120946884155273 -2.347599983215332
-0.9796679615974426 8.068281173706055 -2.347599983215332
-2.26123046875 7.806654930114746 -2.347599983215332
-2.8820605278015137 7.599379539489746 -2.347599983215332
-3.4842236042022705 7.342826843261719 -2.347599983215332
-6.083549499511719 5.389550685882568 -2.347599983215332
-7.315253734588623 4.625878810882568 -2.5
-7.962573051452637 3.3925390243530273 -2.5
-8.209731101989746 2.7408103942871094 -2.5
-8.62709903717041 0.6964550614356995 -2.5
8.30868148803711 9.765624781721272e-06 -2.5
8.281733512878418 0.6685839891433716 -2.5
8.201088905334473 1.3328222036361694 -2.5
8.067251205444336 1.9884082078933716 -2.5
7.643818378448486 3.2567431926727295 -2.5
7.022411823272705 4.440717697143555 -2.5
5.840014457702637 5.173813343048096 -2.347599983215332
5.404760837554932 5.626962661743164 -2.347599983215332
2.1706981658935547 7.494150161743164 -2.347599983215332
1.560634732246399 7.644511699676514 -2.347599983215332
0.31416013836860657 7.795859336853027 -2.347599983215332
-1.5606396198272705 7.644506454467773 -2.347599983215332
-3.3447461128234863 7.048886775970459 -2.347599983215332
-3.9010937213897705 6.756889343261719 -2.347599983215332
-4.934462547302246 6.043612957000732 -2.347599983215332
-5.404770374298096 5.626962661743164 -2.347599983215332
-5.840024471282959 5.173798561096191 -2.347599983215332
-6.631513595581055 4.983261585235596 -2.4959352016448975
-7.356967449188232 3.8612449169158936 -2.5
7.960922718048096 0.6426855325698853 -2.5
6.750380516052246 4.268691539764404 -2.5
5.195390701293945 5.408984184265137 -2.347599983215332
4.260448932647705 6.172333717346191 -2.347599983215332
2.6595067977905273 7.0125732421875 -2.347599983215332
2.086596727371216 7.203832626342773 -2.347599983215332
1.500185489654541 7.348378658294678 -2.347599983215332
0.9040136337280273 7.445258617401123 -2.347599983215332
-0.30199217796325684 7.493866920471191 -2.347599983215332
-3.215165853500366 6.775829792022705 -2.347599983215332
-3.7499706745147705 6.495141506195068 -2.347599983215332
-5.613789081573486 4.973388671875 -2.347599983215332
-6.750390529632568 4.2686767578125 -2.5
-7.071967601776123 3.711660146713257 -2.5
-7.347709655761719 3.130566358566284 -2.5
-7.575795650482178 2.529169797897339 -2.5
-7.754741191864014 1.9113671779632568 -2.5
-7.960917949676514 0.6426757574081421 -2.5
7.662040710449219 0.6185546517372131 -2.5
7.587421894073486 1.2330760955810547 -2.5
7.463603496551514 1.8396093845367432 -2.5
7.291371822357178 2.434218645095825 -2.5
6.806469440460205 3.57232403755188 -2.5
6.135908126831055 4.610849380493164 -2.4961864948272705
2.5596630573272705 6.749291896820068 -2.347599983215332
1.4438574314117432 7.072499752044678 -2.347599983215332
0.2906445264816284 7.21251916885376 -2.347599983215332
-0.29066404700279236 7.21251916885376 -2.347599983215332
-2.0082762241363525 6.93337869644165 -2.347599983215332
-2.5596678256988525 6.749301433563232 -2.347599983215332
-3.0944676399230957 6.521440505981445 -2.347599983215332
-4.100512504577637 5.940600395202637 -2.347599983215332
-4.565229415893555 5.591386795043945 -2.347599983215332
-6.144555568695068 4.617324352264404 -2.49969744682312
-6.4969482421875 4.108422756195068 -2.5
-6.806479454040527 3.5723142623901367 -2.5
-7.463603496551514 1.8396093845367432 -2.5
-7.662040710449219 0.6185546517372131 -2.5
7.406879901885986 1.9531249563442543e-05 -2.5
7.19164514541626 1.7725878953933716 -2.5
6.55846643447876 3.4421582221984863 -2.5
5.916816234588623 4.446215629577637 -2.4980783462524414
5.275205135345459 4.673447132110596 -2.378737211227417
4.398876667022705 5.387656211853027 -2.347599983215332
-1.3912451267242432 6.814799785614014 -2.347599983215332
-1.9351024627685547 6.680747032165527 -2.347599983215332
-2.981703996658325 6.283823013305664 -2.347599983215332
-3.4776854515075684 6.023515701293945 -2.347599983215332
-3.9510936737060547 5.724140644073486 -2.347599983215332
-4.398881912231445 5.387656211853027 -2.347599983215332
-5.527411937713623 4.896870136260986 -2.492464542388916
-6.260224342346191 3.9587254524230957 -2.5
-6.558461666107178 3.442153215408325 -2.5
-7.025693416595459 2.3455419540405273 -2.5
-7.191640377044678 1.7725781202316284 -2.5
-7.310966491699219 1.1881542205810547 -2.5
7.121420860290527 0.574902355670929 -2.5
7.052074909210205 1.146093726158142 -2.5
6.936982154846191 1.7098242044448853 -2.5
6.776904106140137 2.262465715408325 -2.5
3.3545262813568115 5.810214519500732 -2.347599983215332
2.8761181831359863 6.06130838394165 -2.347599983215332
1.8665722608566284 6.444174766540527 -2.347599983215332
1.341982364654541 6.573471546173096 -2.347599983215332
0.2701367139816284 6.703618049621582 -2.347599983215332
-1.3419872522354126 6.573471546173096 -2.347599983215332
-1.8665722608566284 6.444174766540527 -2.347599983215332
-2.3790721893310547 6.273085594177246 -2.347599983215332
-2.8761229515075684 6.06130838394165 -2.347599983215332
-3.3545312881469727 5.810224533081055 -2.347599983215332
-4.243110179901123 5.196875095367432 -2.347599983215332
-5.711684226989746 4.292055606842041 -2.5
-6.038535118103027 3.81853985786438 -2.5
-6.326220512390137 3.320253849029541 -2.5
-6.936972618103027 1.709814429283142 -2.5
-7.052080154418945 1.146083950996399 -2.5
-7.121420860290527 0.5749218463897705 -2.5
6.876049518585205 0.5551074147224426 -2.5
6.80908203125 1.106601595878601 -2.5
6.697958946228027 1.65090811252594 -2.5
6.543398380279541 2.184516668319702 -2.5
6.346396446228027 2.7039501667022705 -2.5
6.108242034912109 3.2058591842651367 -2.5
5.514882564544678 4.144179821014404 -2.5
5.150136470794678 4.562641620635986 -2.493516445159912
4.487387657165527 4.671879768371582 -2.347599983215332
4.096909046173096 5.017807483673096 -2.347599983215332
3.6798534393310547 5.331201076507568 -2.347599983215332
3.2389402389526367 5.610024452209473 -2.347599983215332
1.295742154121399 6.346977233886719 -2.347599983215332
-0.7808251976966858 6.4306640625 -2.347599983215332
-1.295742154121399 6.346982479095459 -2.347599983215332
-1.8022607564926147 6.222124099731445 -2.347599983215332
-2.2970848083496094 6.056938171386719 -2.347599983215332
-3.679872989654541 5.331196308135986 -2.347599983215332
-5.514892578125 4.1441650390625 -2.5
-6.108242034912109 3.2058544158935547 -2.5
-6.543393611907959 2.184506893157959 -2.5
-6.697963714599609 1.65090811252594 -2.5
-6.80908203125 1.106591820716858 -2.5
6.645224571228027 0.5364648103713989 -2.5
6.473119735717773 1.59548819065094 -2.5
6.323750019073486 2.1111814975738525 -2.5
5.329755783081055 4.005058288574219 -2.5
4.343476295471191 4.522045612335205 -2.35123872756958
3.9593846797943115 4.849365234375 -2.347599983215332
3.1302146911621094 5.421699047088623 -2.347599983215332
2.683793783187866 5.65600061416626 -2.347599983215332
2.219975471496582 5.853613376617432 -2.347599983215332
0.2520703077316284 6.255356311798096 -2.347599983215332
-0.19151854515075684 4.752353191375732 -1.7835288047790527
-1.2522460222244263 6.133920669555664 -2.347599983215332
-2.219980478286743 5.853613376617432 -2.347599983215332
-2.6837987899780273 5.655991077423096 -2.347599983215332
-3.1302146911621094 5.421709060668945 -2.347599983215332
-5.329765319824219 4.005058288574219 -2.5
-5.634750843048096 3.5631980895996094 -2.5
-5.903203010559082 3.0982420444488525 -2.5
-6.133354187011719 2.6131885051727295 -2.5
-6.580502986907959 1.0694531202316284 -2.5
6.427656173706055 0.5189062356948853 -2.5
6.365053653717041 1.034423828125 -2.5
5.450263500213623 3.446547746658325 -2.5
5.155258655548096 3.8739306926727295 -2.5
4.324765682220459 4.502558708190918 -2.420353889465332
3.8297507762908936 4.690600395202637 -2.347599983215332
3.0277295112609863 5.244194030761719 -2.347599983215332
2.147294759750366 5.661967754364014 -2.347599983215332
1.2112401723861694 5.933090686798096 -2.347599983215332
0.7299023270606995 6.011308670043945 -2.347599983215332
-1.6847362518310547 5.816386699676514 -2.347599983215332
-2.5959277153015137 5.470810413360596 -2.347599983215332
-3.027724504470825 5.244189262390137 -2.347599983215332
-3.439897298812866 4.98354959487915 -2.347599983215332
-4.826816082000732 4.276201248168945 -2.5
-5.155263423919678 3.8739256858825684 -2.5
-5.450263500213623 3.446537971496582 -2.5
-6.116703987121582 2.042050838470459 -2.5
-6.365068435668945 1.0344336032867432 -2.5
6.222187519073486 0.5023144483566284 -2.5
6.161586761474609 1.001367211341858 -2.5
6.06102991104126 1.4939160346984863 -2.5
5.742895603179932 2.446830987930298 -2.5
5.27603006362915 3.336371898651123 -2.5
4.671093463897705 4.138232231140137 -2.499235153198242
4.309409141540527 4.486581802368164 -2.491408586502075
3.3299314975738525 4.82424783706665 -2.347599983215332
2.0786523818969727 5.48095703125 -2.347599983215332
1.6308691501617432 5.630458831787109 -2.347599983215332
-0.19077636301517487 4.734033107757568 -1.897445797920227
-1.1725292205810547 5.743427753448486 -2.347599983215332
-2.078662157058716 5.480966567993164 -2.347599983215332
-2.512953996658325 5.29592752456665 -2.347599983215332
-3.3299365043640137 4.824238300323486 -2.347599983215332
-3.726513624191284 4.564159870147705 -2.359754800796509
-4.315219402313232 4.492621898651123 -2.4947633743286133
-4.990468502044678 3.7500877380371094 -2.5
-6.06102991104126 1.4939160346984863 -2.5
6.047382831573486 9.765624781721272e-06 -2.5
6.027763366699219 0.4866308569908142 -2.5
5.969062328338623 0.9700781106948853 -2.5
5.871654987335205 1.4472265243530273 -2.5
5.736152172088623 1.9150195121765137 -2.5
5.563461780548096 2.3703808784484863 -2.5
5.111181735992432 3.232128858566284 -2.5
4.526523113250732 4.010165691375732 -2.5
4.179550647735596 4.351386547088623 -2.4942641258239746
3.604926586151123 4.415239334106445 -2.3563859462738037
2.839360237121582 4.917924880981445 -2.347599983215332
0.22865721583366394 5.674140453338623 -2.347599983215332
-0.18402831256389618 4.56640625 -1.8892948627471924
-1.5799365043640137 5.454521179199219 -2.347599983215332
-2.8393797874450684 4.917929649353027 -2.347599983215332
-3.714467763900757 4.549394607543945 -2.4279870986938477
-4.183632850646973 4.355634689331055 -2.4966979026794434
-4.526528358459473 4.010151386260986 -2.5
-5.871654987335205 1.4472362995147705 -2.5
-5.969062328338623 0.9700781106948853 -2.5
5.862524509429932 9.765624781721272e-06 -2.5
5.843505859375 0.471748024225235 -2.5
5.786601543426514 0.9404199123382568 -2.5
5.56082010269165 1.85647451877594 -2.5
5.393398284912109 2.297919988632202 -2.5
4.954941272735596 3.1333250999450684 -2.5
4.388164043426514 3.887587785720825 -2.5
4.054755687713623 4.221455097198486 -2.4960901737213135
3.5937206745147705 4.401513576507568 -2.423130512237549
3.127265453338623 4.530649185180664 -2.347599983215332
2.3600146770477295 4.973622798919678 -2.347599983215332
1.1011669635772705 5.393896579742432 -2.347599983215332
0.66357421875 5.465009689331055 -2.347599983215332
-0.18333496153354645 4.549286842346191 -1.9415606260299683
-0.66357421875 5.465009689331055 -2.347599983215332
-1.5316308736801147 5.287797927856445 -2.347599983215332
-1.9521533250808716 5.147402286529541 -2.347599983215332
-2.752578020095825 4.767597675323486 -2.347599983215332
-3.696596622467041 4.527509689331055 -2.492495536804199
-4.058735370635986 4.225581169128418 -2.4985342025756836
-4.388149261474609 3.887583017349243 -2.5
-4.954946041107178 3.1333250999450684 -2.5
-5.393408298492432 2.297910213470459 -2.5
-5.56082010269165 1.85647451877594 -2.5
-5.692172527313232 1.4029979705810547 -2.5
-5.786596775054932 0.9404199123382568 -2.5
5.687026023864746 1.9531249563442543e-05 -2.5
5.668583869934082 0.4576171636581421 -2.5
5.394350528717041 1.8009082078933716 -2.5
5.231943130493164 2.229135751724243 -2.5
4.546445369720459 3.416455030441284 -2.5
3.0336570739746094 4.39501953125 -2.347599983215332
1.893715739250183 4.993319988250732 -2.347599983215332
0.6437011361122131 5.301411151885986 -2.347599983215332
0.2150244116783142 5.336020469665527 -2.347599983215332
-1.0682079792022705 5.232431411743164 -2.347599983215332
-2.670170783996582 4.624873161315918 -2.347599983215332
-3.074697256088257 4.454452991485596 -2.3793509006500244
-3.588696241378784 4.395356178283691 -2.4944136142730713
-3.9395360946655273 4.101499080657959 -2.5
-4.256796836853027 3.7712011337280273 -2.5
-4.546454906463623 3.41644024848938 -2.5
-5.035614967346191 2.642890453338623 -2.5
-5.521772384643555 1.3609960079193115 -2.5
-5.613379001617432 0.9122753739356995 -2.5
5.502265453338623 0.4441894292831421 -2.5
5.359755516052246 1.3210742473602295 -2.5
4.665585994720459 2.9503467082977295 -2.5
4.413051605224609 3.3162059783935547 -2.5
4.131894588470459 3.6605517864227295 -2.5
3.823486328125 3.9806737899780273 -2.499696969985962
3.483144521713257 4.266083717346191 -2.494229316711426
2.995073080062866 4.339126110076904 -2.3877992630004883
-0.18232421576976776 4.524145603179932 -2.0505807399749756
-1.4421825408935547 4.978999137878418 -2.347599983215332
-2.2222020626068115 4.683178424835205 -2.347599983215332
-3.8239452838897705 3.9811668395996094 -2.5
-4.131904125213623 3.6605517864227295 -2.5
-4.413056373596191 3.3162012100219727 -2.5
-4.887861251831055 2.5653514862060547 -2.5
-5.078432559967041 2.1637303829193115 -2.5
-5.236073970794678 1.7480664253234863 -2.5
-5.448671817779541 0.8855078220367432 -2.5
-5.502265453338623 0.44419920444488525 -2.5
5.291840553283691 0.8600195050239563 -2.5
5.085361003875732 1.6977441310882568 -2.5
4.747168064117432 2.491523265838623 -2.5
4.531289100646973 2.865419864654541 -2.5
3.713876962661743 3.866572141647339 -2.5
2.5172314643859863 4.359961032867432 -2.347599983215332
2.1582324504852295 4.548383712768555 -2.347599983215332
1.7852392196655273 4.707299709320068 -2.347599983215332
1.007021427154541 4.932709693908691 -2.347599983215332
0.20270507037639618 5.030371189117432 -2.347599983215332
-1.0070263147354126 4.932704925537109 -2.347599983215332
-1.4006786346435547 4.835688591003418 -2.347599983215332
-1.7852392196655273 4.707299709320068 -2.347599983215332
-2.1582324504852295 4.548378944396973 -2.347599983215332
-3.713881731033325 3.866567373275757 -2.5
-4.531303405761719 2.86541485786438 -2.5
-4.747177600860596 2.491508722305298 -2.5
-5.291840553283691 0.8600195050239563 -2.5
-5.343881607055664 0.4314062297344208 -2.5
