ply
format ascii 1.0
element vertex 867
property float x
property float y
property float z
end_header
-9.532588005065918 25.135351181030273 7.203074932098389
-6.359633445739746 13.402694702148438 3.9750237464904785
-13.848417282104492 23.986122131347656 7.421329021453857
-16.022329330444336 23.212270736694336 7.557511329650879
-3.3750391006469727 27.795839309692383 7.170983791351318
-5.488178730010986 26.8828125 7.026877403259277
-9.532597541809082 25.135351181030273 6.8847270011901855
-18.167539596557617 22.251161575317383 7.356877326965332
-3.3750391006469727 27.795839309692383 6.841274261474609
-7.531054496765137 26.000150680541992 6.613775253295898
-9.578783988952637 25.25716781616211 6.600010395050049
-13.909037590026855 24.091142654418945 6.796822547912598
-18.167539596557617 22.251161575317383 7.018620491027832
-3.4199461936950684 28.16568374633789 6.600009441375732
-5.611166954040527 27.485273361206055 6.525489330291748
-9.777504920959473 25.78116226196289 6.414008617401123
-9.88277816772461 26.058734893798828 6.158339500427246
-6.349902153015137 13.382182121276855 3.2730424404144287
-16.022216796875 23.21213722229004 6.232378005981445
-18.125 22.199081420898438 6.332635402679443
-3.4769580364227295 28.635194778442383 6.0394792556762695
-7.758466720581055 26.785282135009766 5.838644981384277
-9.867749214172363 26.01909637451172 5.826320171356201
-16.02284049987793 23.213031768798828 5.905576705932617
-18.188779830932617 22.27718734741211 6.021456241607666
-9.88277816772461 26.058734893798828 5.513556003570557
-6.345117092132568 13.37210464477539 2.9281444549560547
-16.02284049987793 23.213031768798828 5.580054759979248
-3.4769628047943115 28.635194778442383 5.375131130218506
-5.653901100158691 27.694602966308594 5.267114162445068
-7.758466720581055 26.785282135009766 5.196389675140381
-9.88277816772461 26.05872917175293 5.193318843841553
-14.013690948486328 24.272401809692383 5.2226762771606445
-16.02284049987793 23.213031768798828 5.255955696105957
-18.188779830932617 22.27718734741211 5.359090328216553
19.844085693359375 12.548676490783691 4.1064300537109375
-3.4769482612609863 28.635194778442383 5.045050144195557
-5.653896331787109 27.694602966308594 4.94366455078125
-7.758466720581055 26.785282135009766 4.877284526824951
-9.882787704467773 26.05872917175293 4.87440299987793
-14.013686180114746 24.27240753173828 4.901956558227539
-3.4769580364227295 28.635194778442383 4.716245651245117
-7.758466720581055 26.785282135009766 4.559414386749268
-18.18876838684082 22.27718734741211 4.702171325683594
-3.4769482612609863 28.635194778442383 4.388633728027344
-5.612065315246582 27.489686965942383 4.268617630004883
-9.762319564819336 25.741092681884766 4.188504695892334
-13.837221145629883 23.966747283935547 4.210461139678955
-15.90676212310791 23.04486846923828 4.260241508483887
-7.758466720581055 26.785282135009766 3.927042245864868
-13.925302505493164 24.119306564331055 3.922013521194458
-16.02284049987793 23.213031768798828 3.972059965133667
-18.14485740661621 22.22340202331543 4.040221691131592
-1.1937255859375 29.6216983795166 3.8402891159057617
-6.331035137176514 13.342435836791992 1.9130746126174927
-16.02284049987793 23.213031768798828 3.6537797451019287
-1.1937353610992432 29.6216983795166 3.5067241191864014
-9.839961051940918 25.945804595947266 3.2823686599731445
-1.1937353610992432 29.6216983795166 3.174028158187866
-3.4769628047943115 28.635194778442383 3.088350772857666
-5.653901100158691 27.694602966308594 3.0262866020202637
-16.02284049987793 23.213031768798828 3.0198779106140137
-18.188779830932617 22.27718734741211 3.079134464263916
-1.1937353610992432 29.6216983795166 2.8421239852905273
-3.4769530296325684 28.635194778442383 2.76540470123291
-6.324116230010986 13.327856063842773 1.4142833948135376
-14.013700485229492 24.272411346435547 2.686971426010132
-18.188779830932617 22.27718734741211 2.757153272628784
-1.1937353610992432 29.6216983795166 2.5109245777130127
-5.653901100158691 27.694602966308594 2.3940484523773193
-7.758466720581055 26.785282135009766 2.3619039058685303
-9.839961051940918 25.945804595947266 2.3502790927886963
-6.321825981140137 13.323026657104492 1.2490209341049194
-14.01370620727539 24.27240753173828 2.3738532066345215
-16.02284049987793 23.213031768798828 2.3889787197113037
-18.18876838684082 22.27718734741211 2.435856342315674
-3.4769580364227295 28.635194778442383 2.121492862701416
-5.653891563415527 27.694608688354492 2.078859806060791
-7.758466720581055 26.785282135009766 2.050945281982422
-9.88277816772461 26.058734893798828 2.049733877182007
-6.319550514221191 13.31820297241211 1.0841878652572632
-14.013700485229492 24.272411346435547 2.061321258544922
-16.022851943969727 23.213031768798828 2.074456214904785
-5.653901100158691 27.694602966308594 1.764182448387146
-7.758466720581055 26.785282135009766 1.7404937744140625
-6.3172607421875 13.313403129577637 0.9197421073913574
-14.013690948486328 24.27240753173828 1.7492992877960205
-16.02284049987793 23.213031768798828 1.7604458332061768
-18.188779830932617 22.27718734741211 1.794988989830017
2.132578134536743 17.56344223022461 0.9075637459754944
0.708984375 17.593759536743164 0.9032345414161682
-1.1937353610992432 29.6216983795166 1.520723819732666
-3.4769530296325684 28.635194778442383 1.47967529296875
-5.653901100158691 27.694602966308594 1.4499402046203613
-7.758476257324219 26.785282135009766 1.430470585823059
-9.820448875427246 25.894365310668945 1.4206085205078125
-13.92529296875 24.119300842285156 1.4286389350891113
-16.02284049987793 23.213031768798828 1.4468683004379272
-18.188779830932617 22.27718734741211 1.4752596616744995
0.708984375 17.593759536743164 0.7077010869979858
-3.4578709602355957 28.478017807006836 1.1529889106750488
-7.715883731842041 26.638261795043945 1.114648461341858
-6.312714576721191 13.303828239440918 0.5918465852737427
-16.022851943969727 23.21302604675293 1.1336486339569092
-1.1937255859375 29.6216983795166 0.8626006841659546
-3.4769580364227295 28.635194778442383 0.8393157720565796
-5.646274089813232 27.657255172729492 0.8213406205177307
-7.758466720581055 26.785282135009766 0.8114058971405029
-6.310444355010986 13.299042701721191 0.42831480503082275
-13.977797508239746 24.21021842956543 0.8134222030639648
-16.022851943969727 23.21302604675293 0.8207070827484131
-18.18876838684082 22.27718734741211 0.8368111848831177
-3.4769482612609863 28.635194778442383 0.5194851756095886
-7.758466720581055 26.785287857055664 0.5022106766700745
-6.308178424835205 13.294261932373047 0.265005499124527
-18.188779830932617 22.27718734741211 0.5179348587989807
0.708984375 17.593759536743164 0.1219540387392044
-1.1937255859375 29.6216983795166 0.20532409846782684
-3.4769482612609863 28.635194778442383 0.19978179037570953
-7.758466720581055 26.785282135009766 0.19313842058181763
-6.305917739868164 13.289501190185547 0.10187865793704987
-13.977797508239746 24.21021842956543 0.19361785054206848
-16.02284049987793 23.213031768798828 0.19535216689109802
0.708984375 17.593759536743164 -0.0731712356209755
-1.1937353610992432 29.6216983795166 -0.12319763004779816
-3.4769482612609863 28.635194778442383 -0.11987213045358658
-5.646284103393555 27.657255172729492 -0.117304228246212
-6.303661823272705 13.284735679626465 -0.06110595539212227
-13.977797508239746 24.210224151611328 -0.11617431044578552
-18.188779830932617 22.27718734741211 -0.11951430886983871
2.132578134536743 17.563446044921875 -0.2695985436439514
-1.1937353610992432 29.6216983795166 -0.4517461955547333
-3.4769482612609863 28.635194778442383 -0.43955230712890625
-5.646274089813232 27.657255172729492 -0.43013808131217957
-7.758466720581055 26.785282135009766 -0.42493560910224915
-9.88277816772461 26.058734893798828 -0.4246845841407776
-18.188779830932617 22.27718734741211 -0.43824049830436707
2.1325879096984863 17.563446044921875 -0.46574124693870544
0.708984375 17.593759536743164 -0.463519424200058
-1.1937255859375 29.6216983795166 -0.7804058790206909
-5.646274089813232 27.657255172729492 -0.7430770993232727
-7.758466720581055 26.785282135009766 -0.7340894937515259
-9.867114067077637 26.017446517944336 -0.7324932813644409
-13.977797508239746 24.21021842956543 -0.7359133958816528
-16.02284049987793 23.213031768798828 -0.7425045371055603
-18.18876838684082 22.27718734741211 -0.757074236869812
4.35403299331665 21.327489852905273 -0.8144763112068176
0.708984375 17.593759536743164 -0.6588441133499146
-3.4769580364227295 28.635194778442383 -1.0793217420578003
-7.758466720581055 26.785282135009766 -1.0434304475784302
-6.296884536743164 13.270453453063965 -0.5496084690093994
-13.977797508239746 24.21021842956543 -1.0460212230682373
-16.02284049987793 23.213031768798828 -1.0553916692733765
-18.18876838684082 22.27718734741211 -1.0761007070541382
5.240195274353027 18.091312408447266 -0.91385817527771
2.132578134536743 17.563446044921875 -0.8584244847297668
-2.370781183242798 19.52503776550293 -0.9542986750602722
-6.294628620147705 13.265703201293945 -0.7124264240264893
-13.977787971496582 24.210229873657227 -1.356385350227356
-18.12492561340332 22.198978424072266 -1.3904900550842285
5.240190505981445 18.09130859375 -1.1231895685195923
-2.3707714080810547 19.525033950805664 -1.1728935241699219
-9.820444107055664 25.89436912536621 -1.651487112045288
-18.18876838684082 22.27718734741211 -1.7150204181671143
5.240195274353027 18.091312408447266 -1.332797646522522
3.2715721130371094 16.025238037109375 -1.1573666334152222
2.1325879096984863 17.563446044921875 -1.2519516944885254
0.6150488257408142 15.262636184692383 -1.0808898210525513
-16.022851943969727 23.21302604675293 -1.995910406112671
18.126720428466797 22.20121955871582 -2.347599983215332
16.281522750854492 23.587894439697266 -2.347599983215332
0.6150488257408142 15.262636184692383 -1.251147747039795
-0.6524609327316284 16.19039535522461 -1.3271992206573486
-7.758466720581055 26.785282135009766 -2.284114360809326
-9.820448875427246 25.894365310668945 -2.268369436264038
-6.287846565246582 13.251410484313965 -1.2013903856277466
-13.75661563873291 23.82712745666504 -2.2535555362701416
-16.02284049987793 23.213031768798828 -2.3103010654449463
-19.85443878173828 20.670644760131836 -2.347599983215332
26.773061752319336 2.161367177963257 -2.5
26.079647064208984 6.428061485290527 -2.5
25.477834701538086 8.505776405334473 -2.5
24.710779190063477 10.528310775756836 -2.5
23.783483505249023 12.482558250427246 -2.5
22.701929092407227 14.355863571166992 -2.5
15.952028274536133 19.537700653076172 -2.347599983215332
10.665228843688965 15.451308250427246 -1.7474528551101685
12.611376762390137 21.843568801879883 -2.347599983215332
5.240190505981445 18.09130859375 -1.7530546188354492
3.267519474029541 16.005395889282227 -1.5204218626022339
1.8908642530441284 15.572714805603027 -1.460070013999939
0.6150488257408142 15.262636184692383 -1.421716570854187
-0.6524609327316284 16.19039535522461 -1.5081374645233154
-2.370781183242798 19.52503776550293 -1.8306325674057007
-5.045175552368164 24.71304702758789 -2.347599983215332
-8.94412612915039 23.583696365356445 -2.347599983215332
-6.285575866699219 13.2466402053833 -1.364683985710144
-17.472415924072266 18.19072151184082 -2.347599983215332
-22.701942443847656 14.355830192565918 -2.5
-24.710790634155273 10.52828598022461 -2.5
-26.51230812072754 4.308701038360596 -2.5
-26.773056030273438 2.1613378524780273 -2.5
23.97757339477539 2.9296874345163815e-05 -2.5
9.759706497192383 1.5861132144927979 -1.0309370756149292
23.280847549438477 5.738227367401123 -2.5
22.058866500854492 9.398432731628418 -2.5
19.03024673461914 12.034003257751465 -2.347599983215332
10.690400123596191 15.487763404846191 -1.962148666381836
9.155595779418945 15.857993125915527 -1.9092034101486206
0.6150488257408142 15.262636184692383 -1.5926358699798584
-2.2518749237060547 18.545795440673828 -1.9478617906570435
-4.503749847412109 22.060916900634766 -2.347599983215332
-6.264316082000732 21.626937866210938 -2.347599983215332
-11.257885932922363 19.499418258666992 -2.347599983215332
-14.240097045898438 17.440942764282227 -2.347599983215332
-16.8533878326416 14.93080997467041 -2.347599983215332
-18.00017547607422 13.526249885559082 -2.347599983215332
-21.2310791015625 11.142939567565918 -2.5
-22.05887222290039 9.39840316772461 -2.5
-22.743637084960938 7.592939376831055 -2.5
-23.280853271484375 5.738198280334473 -2.5
-23.667064666748047 3.8462986946105957 -2.5
9.127997398376465 1.4834569692611694 -1.0679244995117188
21.019811630249023 5.180927753448486 -2.5
19.91653823852539 8.485663414001465 -2.5
15.216591835021973 13.480756759643555 -2.347599983215332
12.85708999633789 15.74709415435791 -2.347599983215332
9.155595779418945 15.857988357543945 -2.114567756652832
4.895361423492432 16.900815963745117 -2.0319180488586426
3.267524242401123 16.005395889282227 -1.886414647102356
-2.0615429878234863 16.978281021118164 -1.9750405550003052
-4.066352367401123 19.918344497680664 -2.347599983215332
-5.655937194824219 19.52654266357422 -2.347599983215332
-7.208808422088623 19.008134841918945 -2.347599983215332
-8.1781587600708 14.165034294128418 -1.8888195753097534
-11.548319816589355 16.730560302734375 -2.347599983215332
-12.8571138381958 15.747065544128418 -2.347599983215332
-14.08251953125 14.661455154418945 -2.347599983215332
-16.25202178955078 12.212592124938965 -2.347599983215332
-21.368555068969727 3.472734212875366 -2.5
10.463871955871582 2.5791258811950684 -1.365704894065857
18.149337768554688 7.732734203338623 -2.5
15.657450675964355 9.901190757751465 -2.347599983215332
14.809958457946777 11.12899398803711 -2.347599983215332
7.941674709320068 16.736757278442383 -2.347599983215332
1.8527636528015137 15.258886337280273 -1.9478617906570435
-3.7055859565734863 18.150957107543945 -2.347599983215332
-6.985448837280273 12.099194526672363 -1.7704435586929321
-11.716288566589355 14.34984302520752 -2.347599983215332
-12.832968711853027 13.360541343688965 -2.347599983215332
-13.866439819335938 12.284584999084473 -2.347599983215332
-15.657465934753418 9.901185989379883 -2.347599983215332
-17.468265533447266 9.16805648803711 -2.5
-19.15473175048828 4.721200942993164 -2.5
18.11604881286621 2.9296874345163815e-05 -2.5
8.794057846069336 0.7099413871765137 -1.217521071434021
10.041156768798828 2.474926710128784 -1.4271408319473267
16.022804260253906 8.409428596496582 -2.497168779373169
14.3781099319458 9.092192649841309 -2.347599983215332
13.59987735748291 10.219672203063965 -2.347599983215332
10.758964538574219 13.17735767364502 -2.347599983215332
8.505834579467773 14.732572555541992 -2.347599983215332
3.1567821502685547 15.462968826293945 -2.177889108657837
-0.6311864852905273 15.662416458129883 -2.1631529331207275
-2.050541877746582 16.887676239013672 -2.347599983215332
-3.402783155441284 16.667909622192383 -2.347599983215332
-4.732924461364746 16.340078353881836 -2.347599983215332
-6.032436370849609 15.906220436096191 -2.347599983215332
-6.985448837280273 12.099194526672363 -1.9279742240905762
-10.7589693069458 13.177352905273438 -2.347599983215332
-12.733447074890137 11.280844688415527 -2.347599983215332
-16.04097557067871 8.418954849243164 -2.5
-18.05729866027832 1.4577441215515137 -2.5
8.376728057861328 1.361367106437683 -1.2671334743499756
13.28896427154541 8.403456687927246 -2.347599983215332
12.569677352905273 9.44552230834961 -2.347599983215332
11.768866539001465 10.426337242126465 -2.347599983215332
8.931703567504883 12.939833641052246 -2.347599983215332
6.740341663360596 14.205009460449219 -2.347599983215332
0.5993847250938416 14.873964309692383 -2.2226240634918213
-0.6311815977096558 15.662416458129883 -2.340441942214966
-1.8951952457427979 15.608437538146973 -2.347599983215332
-5.57546854019165 14.701327323913574 -2.347599983215332
-8.931703567504883 12.939847946166992 -2.347599983215332
-9.943984031677246 12.179160118103027 -2.347599983215332
-12.569686889648438 9.445512771606445 -2.347599983215332
-13.288984298706055 8.403432846069336 -2.347599983215332
-14.8258638381958 7.781215667724609 -2.5
-15.403910636901855 6.562997817993164 -2.5
-15.88206958770752 5.302202224731445 -2.5
-16.257230758666992 4.007040977478027 -2.5
15.5610933303833 2.9296874345163815e-05 -2.5
8.337597846984863 0.673095703125 -1.343851923942566
8.199843406677246 1.332617163658142 -1.3346465826034546
14.31588363647461 6.099448204040527 -2.5
13.778447151184082 7.231503963470459 -2.4999618530273438
12.350321769714355 7.809887409210205 -2.347599983215332
10.937597274780273 9.689887046813965 -2.347599983215332
9.241591453552246 11.318921089172363 -2.347599983215332
7.306240081787109 12.654794692993164 -2.347599983215332
6.264257907867432 13.20166015625 -2.347599983215332
5.181654930114746 13.662924766540527 -2.347599983215332
4.065434455871582 14.035566329956055 -2.347599983215332
1.7613476514816284 14.505956649780273 -2.347599983215332
0.5883691310882568 14.600639343261719 -2.347599983215332
-0.5883983969688416 14.600629806518555 -2.347599983215332
-1.7613427639007568 14.50594711303711 -2.347599983215332
-4.065468788146973 14.035551071166992 -2.347599983215332
-4.890200138092041 12.894453048706055 -2.21555757522583
-5.910585880279541 12.45633316040039 -2.215057849884033
-6.93716287612915 12.015546798706055 -2.2290115356445312
-9.241606712341309 11.318901062011719 -2.347599983215332
-10.122421264648438 10.538569450378418 -2.347599983215332
-10.937606811523438 9.689863204956055 -2.347599983215332
-11.681845664978027 8.77834415435791 -2.347599983215332
-15.10891056060791 3.7239990234375 -2.5
-15.359580039978027 2.4961814880371094 -2.5
14.531059265136719 2.9296874345163815e-05 -2.5
8.1307373046875 0.6563964486122131 -1.403406023979187
9.294604301452637 2.2909228801727295 -1.646951675415039
13.783234596252441 4.601542949676514 -2.5
12.866605758666992 6.752939224243164 -2.5
10.908583641052246 8.197295188903809 -2.347599983215332
10.213598251342773 9.048480987548828 -2.347599983215332
8.629862785339355 10.569682121276855 -2.347599983215332
7.75137186050415 11.229828834533691 -2.347599983215332
6.822617053985596 11.81712818145752 -2.347599983215332
4.838662147521973 12.758529663085938 -2.347599983215332
3.796337842941284 13.106508255004883 -2.347599983215332
2.7293896675109863 13.369477272033691 -2.347599983215332
0.5494531393051147 13.634203910827637 -2.347599983215332
-0.5494433641433716 13.63417911529541 -2.347599983215332
-1.6447705030441284 13.545746803283691 -2.347599983215332
-2.729384660720825 13.36949634552002 -2.347599983215332
-3.7963476181030273 13.106508255004883 -2.347599983215332
-4.838662147521973 12.758529663085938 -2.347599983215332
-6.82262659072876 11.81712818145752 -2.347599983215332
-7.751391410827637 11.229814529418945 -2.347599983215332
-8.629878044128418 10.56966781616211 -2.347599983215332
-10.908588409423828 8.197279930114746 -2.347599983215332
-12.866605758666992 6.752919673919678 -2.5
-13.368270874023438 5.695683479309082 -2.5
-13.783246994018555 4.601523399353027 -2.5
-14.108808517456055 3.477494955062866 -2.5
-14.342870712280273 2.3309667110443115 -2.5
-14.483930587768555 1.1692675352096558 -2.5
13.625676155090332 2.9296874345163815e-05 -2.5
8.116215705871582 0.6552148461341858 -1.4939864873886108
7.95385217666626 1.2926366329193115 -1.478496789932251
9.177958488464355 2.2621726989746094 -1.7343425750732422
12.924443244934082 4.314824104309082 -2.5
12.535341262817383 5.3408203125 -2.5
12.064936637878418 6.332192420959473 -2.5
9.577221870422363 8.48470687866211 -2.347599983215332
7.268407821655273 10.530131340026855 -2.347599983215332
6.397524356842041 11.080849647521973 -2.347599983215332
3.5597996711730957 12.289887428283691 -2.347599983215332
2.559335947036743 12.536474227905273 -2.347599983215332
1.54226553440094 12.701766967773438 -2.347599983215332
0.5151904225349426 12.784677505493164 -2.347599983215332
-2.559335947036743 12.536474227905273 -2.347599983215332
-3.5598340034484863 12.289873123168945 -2.347599983215332
-4.537207126617432 11.963574409484863 -2.347599983215332
-5.485190391540527 11.559662818908691 -2.347599983215332
-6.397529125213623 11.08084487915039 -2.347599983215332
-7.268422603607178 10.530131340026855 -2.347599983215332
-8.092182159423828 9.911108016967773 -2.347599983215332
-10.22891616821289 7.686528205871582 -2.347599983215332
-12.064936637878418 6.332167625427246 -2.5
-12.535341262817383 5.340800762176514 -2.5
-12.924448013305664 4.3148193359375 -2.5
-13.229750633239746 3.2608251571655273 -2.5
-13.449223518371582 2.185727596282959 -2.5
7.945775985717773 1.2913280725479126 -1.569395899772644
9.021659851074219 2.2236523628234863 -1.811458706855774
11.797304153442383 5.026376724243164 -2.5
11.354598999023438 5.959370136260986 -2.5
9.626665115356445 7.233998775482178 -2.347599983215332
8.341596603393555 8.684531211853027 -2.347599983215332
7.615727424621582 9.327588081359863 -2.347599983215332
6.840478420257568 9.910161018371582 -2.347599983215332
5.162192344665527 10.87911605834961 -2.347599983215332
4.27004861831665 11.259222984313965 -2.347599983215332
3.350209951400757 11.56630802154541 -2.347599983215332
1.4514696598052979 11.953940391540527 -2.347599983215332
-1.4514843225479126 11.953935623168945 -2.347599983215332
-2.4086523056030273 11.798383712768555 -2.347599983215332
-3.350229501724243 11.566298484802246 -2.347599983215332
-4.270058631896973 11.2592134475708 -2.347599983215332
-5.162201881408691 10.879111289978027 -2.347599983215332
-8.341601371765137 8.684526443481445 -2.347599983215332
-9.013368606567383 7.985151290893555 -2.347599983215332
-9.62667465209961 7.233974456787109 -2.347599983215332
-11.354609489440918 5.959360122680664 -2.5
-12.1635103225708 4.060771465301514 -2.5
-12.450824737548828 3.068842649459839 -2.5
-12.657392501831055 2.0570409297943115 -2.5
7.927138328552246 1.2882909774780273 -1.6582980155944824
11.484418869018555 3.8340771198272705 -2.5
9.089208602905273 6.830126762390137 -2.347599983215332
5.684716701507568 9.846235275268555 -2.347599983215332
4.873989105224609 10.271728515625 -2.347599983215332
3.1631736755371094 10.92055606842041 -2.347599983215332
2.274174690246582 11.13967227935791 -2.347599983215332
-0.45780760049819946 11.360224723815918 -2.347599983215332
-3.163203001022339 10.920536994934082 -2.347599983215332
-4.031669616699219 10.630610466003418 -2.347599983215332
-6.458579063415527 9.3568696975708 -2.347599983215332
-8.510146141052246 7.53933572769165 -2.347599983215332
-10.207563400268555 6.454877853393555 -2.493748664855957
-10.720664024353027 5.626645565032959 -2.5
-11.138667106628418 4.745751857757568 -2.5
-12.068256378173828 0.9742480516433716 -2.5
8.085039138793945 0.6527050733566284 -1.7687935829162598
8.948715209960938 2.2056689262390137 -2.0097954273223877
10.151328086853027 5.327841758728027 -2.5
9.099008560180664 5.753876686096191 -2.347599983215332
8.606513023376465 6.46740198135376 -2.347599983215332
2.995180606842041 10.340595245361328 -2.347599983215332
0.4334765672683716 10.756909370422363 -2.347599983215332
-1.2976561784744263 10.687152862548828 -2.347599983215332
-2.1534080505371094 10.548075675964355 -2.347599983215332
-5.382822036743164 9.323325157165527 -2.347599983215332
-6.115590572357178 8.859941482543945 -2.347599983215332
-6.808686256408691 8.339120864868164 -2.347599983215332
-7.457631587982178 7.764199256896973 -2.347599983215332
-9.670868873596191 6.115492820739746 -2.495142698287964
-10.874506950378418 3.630449056625366 -2.5
10.88370132446289 1.9531249563442543e-05 -2.5
9.04110336303711 2.228442430496216 -2.138906717300415
10.012778282165527 4.266054630279541 -2.5
9.637045860290527 5.057919979095459 -2.5
8.997685432434082 5.6898193359375 -2.4453444480895996
8.170477867126465 6.139750957489014 -2.347599983215332
7.079804420471191 7.370869159698486 -2.347599983215332
6.46373987197876 7.916650295257568 -2.347599983215332
5.805742263793945 8.41109848022461 -2.347599983215332
5.110112190246582 8.850981712341309 -2.347599983215332
2.044301748275757 10.013690948486328 -2.347599983215332
1.2319189310073853 10.145727157592773 -2.347599983215332
0.41151854395866394 10.21194839477539 -2.347599983215332
-2.843451976776123 9.816728591918945 -2.347599983215332
-3.624150276184082 9.5560884475708 -2.347599983215332
-5.805766582489014 8.411078453063965 -2.347599983215332
-7.649950981140137 6.777280330657959 -2.347599983215332
-8.17049789428711 6.139731407165527 -2.347599983215332
-9.637041091918945 5.057924747467041 -2.5
-10.012787818908691 4.266064167022705 -2.5
10.35635757446289 1.9531249563442543e-05 -2.5
8.063672065734863 0.6509765386581421 -1.9528850317001343
10.055419921875 2.478447198867798 -2.5
9.823378562927246 3.279545783996582 -2.5
7.774604320526123 5.842250823974609 -2.347599983215332
7.27929162979126 6.448896408081055 -2.347599983215332
6.736767292022705 7.013725280761719 -2.347599983215332
5.524438381195068 8.003554344177246 -2.347599983215332
4.862504959106445 8.422133445739746 -2.347599983215332
2.7056639194488525 9.341078758239746 -2.347599983215332
1.9452587366104126 9.5285005569458 -2.347599983215332
1.172216773033142 9.654130935668945 -2.347599983215332
-0.39159178733825684 9.717153549194336 -2.347599983215332
-3.44854474067688 9.093070983886719 -2.347599983215332
-5.524457931518555 8.003544807434082 -2.347599983215332
-6.150551795959473 7.533061504364014 -2.347599983215332
-6.736767292022705 7.013735294342041 -2.347599983215332
-7.774604320526123 5.842250823974609 -2.347599983215332
-9.823378562927246 3.279531240463257 -2.5
-10.055419921875 2.4784326553344727 -2.5
-10.222241401672363 1.6612889766693115 -2.5
-10.32277774810791 0.8333398103713989 -2.5
9.8753023147583 0.0 -2.5
8.098490715026855 0.6537890434265137 -2.0568578243255615
9.58834457397461 2.3633153438568115 -2.5
9.36708927154541 3.127207040786743 -2.5
8.744150161743164 4.589296817779541 -2.5
7.413476467132568 5.570888519287109 -2.347599983215332
6.941171646118164 6.149350643157959 -2.347599983215332
5.86486291885376 7.183154106140137 -2.347599983215332
5.267827033996582 7.631791591644287 -2.347599983215332
4.636650085449219 8.030927658081055 -2.347599983215332
3.2883496284484863 8.670693397521973 -2.347599983215332
1.854897379875183 9.085907936096191 -2.347599983215332
1.117773413658142 9.205693244934082 -2.347599983215332
0.3733886778354645 9.265786170959473 -2.347599983215332
-1.1177831888198853 9.205693244934082 -2.347599983215332
-1.8549022674560547 9.085907936096191 -2.347599983215332
-3.2883594036102295 8.670702934265137 -2.347599983215332
-3.975395441055298 8.377978324890137 -2.347599983215332
-4.636650085449219 8.030927658081055 -2.347599983215332
-6.941171646118164 6.149340629577637 -2.347599983215332
-8.346513748168945 5.278022289276123 -2.5
-8.744150161743164 4.589286804199219 -2.5
-9.588349342346191 2.3633105754852295 -2.5
-9.843280792236328 0.7946386337280273 -2.5
9.434598922729492 1.9531249563442543e-05 -2.5
7.928681373596191 1.2885448932647705 -2.1285219192504883
8.949067115783691 2.9876415729522705 -2.5
7.9649658203125 5.036747932434082 -2.497157096862793
7.08263635635376 5.322260856628418 -2.347599983215332
6.631406307220459 5.874921798706055 -2.347599983215332
6.137167930603027 6.389482498168945 -2.347599983215332
5.603134632110596 6.862592697143555 -2.347599983215332
5.032753944396973 7.291215419769287 -2.347599983215332
4.429731369018555 7.672538757324219 -2.347599983215332
2.464848518371582 8.509687423706055 -2.347599983215332
1.7721190452575684 8.680424690246582 -2.347599983215332
1.0678906440734863 8.794878005981445 -2.347599983215332
-1.0678906440734863 8.79488754272461 -2.347599983215332
-1.77212393283844 8.680429458618164 -2.347599983215332
-2.4648633003234863 8.509682655334473 -2.347599983215332
-4.429736137390137 7.672533988952637 -2.347599983215332
-5.032753944396973 7.291205883026123 -2.347599983215332
-6.137172698974609 6.389477252960205 -2.347599983215332
-7.158984184265137 5.379628658294678 -2.3729050159454346
-7.974042892456055 5.042475700378418 -2.5
-8.353930473327637 4.384482383728027 -2.5
-8.679643630981445 3.698051691055298 -2.5
-9.160453796386719 2.2578418254852295 -2.5
-9.404004096984863 0.75916987657547 -2.5
9.029287338256836 1.9531249563442543e-05 -2.5
9.0 0.7265625 -2.5
8.766913414001465 2.1608495712280273 -2.5
6.778354167938232 5.093623161315918 -2.347599983215332
5.873505592346191 6.114975452423096 -2.347599983215332
4.239423751831055 7.342905044555664 -2.347599983215332
3.6348142623901367 7.660233974456787 -2.347599983215332
1.695986270904541 8.307509422302246 -2.347599983215332
-0.34141111373901367 8.471991539001465 -2.347599983215332
-1.022011637687683 8.417040824890137 -2.347599983215332
-3.006640672683716 7.927875995635986 -2.347599983215332
-3.63482403755188 7.660233974456787 -2.347599983215332
-4.239433288574219 7.342905044555664 -2.347599983215332
-5.362416744232178 6.567763328552246 -2.347599983215332
-5.873510837554932 6.114975452423096 -2.347599983215332
-6.346513748168945 5.622519493103027 -2.347599983215332
-7.631454944610596 4.825849533081055 -2.5
-7.99502420425415 4.196123123168945 -2.5
-8.306757926940918 3.539174795150757 -2.5
-8.766913414001465 2.160844564437866 -2.5
-9.000004768371582 0.7265527248382568 -2.5
8.6551513671875 9.765624781721272e-06 -2.5
8.627089500427246 0.6964648365974426 -2.5
8.403656959533691 2.0713231563568115 -2.5
8.20974063873291 2.7408154010772705 -2.5
7.315248966217041 4.625893592834473 -2.5
6.083544731140137 5.389575004577637 -2.347599983215332
5.140224456787109 6.295634746551514 -2.347599983215332
4.063764572143555 7.038657188415527 -2.347599983215332
3.484208822250366 7.342832088470459 -2.347599983215332
2.8820605278015137 7.599384784698486 -2.347599983215332
2.2612156867980957 7.806650161743164 -2.347599983215332
0.9796581864356995 8.068285942077637 -2.347599983215332
0.32726073265075684 8.120946884155273 -2.347599983215332
-0.9796679615974426 8.068281173706055 -2.347599983215332
-2.26123046875 7.806654930114746 -2.347599983215332
-3.4842236042022705 7.342826843261719 -2.347599983215332
-4.063774108886719 7.038661956787109 -2.347599983215332
-4.616977214813232 6.68883752822876 -2.347599983215332
-5.630146503448486 5.86160135269165 -2.347599983215332
-6.902260780334473 5.186723709106445 -2.4938437938690186
-8.209731101989746 2.7408103942871094 -2.5
-8.403656959533691 2.0713086128234863 -2.5
-8.543075561523438 1.3883984088897705 -2.5
-8.62709903717041 0.6964550614356995 -2.5
8.30868148803711 9.765624781721272e-06 -2.5
8.281733512878418 0.6685839891433716 -2.5
8.201088905334473 1.3328222036361694 -2.5
8.067251205444336 1.9884082078933716 -2.5
7.881088733673096 2.631108283996582 -2.5
7.022411823272705 4.440717697143555 -2.5
6.582172870635986 4.946200847625732 -2.477365493774414
5.840014457702637 5.173813343048096 -2.347599983215332
5.404760837554932 5.626962661743164 -2.347599983215332
4.934453010559082 6.04360818862915 -2.347599983215332
3.9010937213897705 6.756889343261719 -2.347599983215332
1.560634732246399 7.644511699676514 -2.347599983215332
0.31416013836860657 7.795859336853027 -2.347599983215332
-0.31416502594947815 7.795868873596191 -2.347599983215332
-0.9404540657997131 7.745297908782959 -2.347599983215332
-1.5606396198272705 7.644506454467773 -2.347599983215332
-5.404770374298096 5.626962661743164 -2.347599983215332
-5.840024471282959 5.173798561096191 -2.347599983215332
-7.881083965301514 2.631093740463257 -2.5
-8.067251205444336 1.9883984327316284 -2.5
-8.201093673706055 1.3328222036361694 -2.5
-8.281743049621582 0.6685839891433716 -2.5
7.960922718048096 0.6426855325698853 -2.5
7.883388519287109 1.2811815738677979 -2.5
7.754735946655273 1.9113867282867432 -2.5
7.575786113739014 2.529184579849243 -2.5
7.071977615356445 3.711669921875 -2.5
5.613789081573486 4.973388671875 -2.347599983215332
4.743300437927246 5.809501647949219 -2.347599983215332
4.260448932647705 6.172333717346191 -2.347599983215332
3.7499656677246094 6.49514627456665 -2.347599983215332
3.215161085128784 6.775835037231445 -2.347599983215332
2.6595067977905273 7.0125732421875 -2.347599983215332
2.086596727371216 7.203832626342773 -2.347599983215332
1.500185489654541 7.348378658294678 -2.347599983215332
0.9040136337280273 7.445258617401123 -2.347599983215332
0.30198240280151367 7.493857383728027 -2.347599983215332
-0.30199217796325684 7.493866920471191 -2.347599983215332
-0.9040234088897705 7.445263385772705 -2.347599983215332
-2.6595165729522705 7.01256799697876 -2.347599983215332
-3.215165853500366 6.775829792022705 -2.347599983215332
-4.260454177856445 6.172333717346191 -2.347599983215332
-5.195390701293945 5.408984184265137 -2.347599983215332
-5.613789081573486 4.973388671875 -2.347599983215332
-6.379599571228027 4.793954849243164 -2.4978816509246826
-7.575795650482178 2.529169797897339 -2.5
-7.754741191864014 1.9113671779632568 -2.5
-7.883388519287109 1.2811717987060547 -2.5
7.686962604522705 1.9531249563442543e-05 -2.5
7.662040710449219 0.6185546517372131 -2.5
7.463603496551514 1.8396093845367432 -2.5
7.291371822357178 2.434218645095825 -2.5
7.071850299835205 3.0130467414855957 -2.5
6.806469440460205 3.57232403755188 -2.5
6.49694299697876 4.10842752456665 -2.5
5.000331878662109 5.205917835235596 -2.347599983215332
4.565224647521973 5.591391563415527 -2.347599983215332
3.0944628715515137 6.521450042724609 -2.347599983215332
2.5596630573272705 6.749291896820068 -2.347599983215332
2.0082664489746094 6.93337869644165 -2.347599983215332
1.4438574314117432 7.072499752044678 -2.347599983215332
0.8700683116912842 7.165741920471191 -2.347599983215332
-0.8700780868530273 7.165741920471191 -2.347599983215332
-1.4438574314117432 7.072494983673096 -2.347599983215332
-3.0944676399230957 6.521440505981445 -2.347599983215332
-4.565229415893555 5.591386795043945 -2.347599983215332
-5.000341892242432 5.205913066864014 -2.347599983215332
-5.557216644287109 4.923266410827637 -2.414594888687134
-6.4969482421875 4.108422756195068 -2.5
-7.291367053985596 2.4342236518859863 -2.5
-7.463603496551514 1.8396093845367432 -2.5
7.406879901885986 1.9531249563442543e-05 -2.5
7.382856369018555 0.5960156321525574 -2.5
7.310961723327637 1.1881542205810547 -2.5
7.025693416595459 2.345527410507202 -2.5
5.916816234588623 4.446215629577637 -2.4980783462524414
4.818139553070068 5.016225337982178 -2.347599983215332
4.398876667022705 5.387656211853027 -2.347599983215332
2.981699228286743 6.283823013305664 -2.347599983215332
0.8383691310882568 6.904643535614014 -2.347599983215332
-0.83837890625 6.904648303985596 -2.347599983215332
-2.4664013385772705 6.503374099731445 -2.347599983215332
-3.4776854515075684 6.023515701293945 -2.347599983215332
-5.921376705169678 4.449624061584473 -2.5
-6.814174652099609 2.903251886367798 -2.5
-7.025693416595459 2.3455419540405273 -2.5
-7.382861137390137 0.5960156321525574 -2.5
7.052074909210205 1.146093726158142 -2.5
6.936982154846191 1.7098242044448853 -2.5
6.776904106140137 2.262465715408325 -2.5
6.326220512390137 3.320268392562866 -2.5
5.711352348327637 4.291816234588623 -2.4998526573181152
5.254765510559082 4.655317306518555 -2.456505298614502
4.647529125213623 4.838598728179932 -2.347599983215332
3.8111767768859863 5.521450042724609 -2.347599983215332
2.8761181831359863 6.06130838394165 -2.347599983215332
1.341982364654541 6.573471546173096 -2.347599983215332
0.8086913824081421 6.660146236419678 -2.347599983215332
0.2701367139816284 6.703618049621582 -2.347599983215332
-0.8086864948272705 6.660146236419678 -2.347599983215332
-1.8665722608566284 6.444174766540527 -2.347599983215332
-2.8761229515075684 6.06130838394165 -2.347599983215332
-4.647529125213623 4.838593482971191 -2.347599983215332
-5.711684226989746 4.292055606842041 -2.5
-6.326220512390137 3.320253849029541 -2.5
-6.936972618103027 1.709814429283142 -2.5
6.898412704467773 1.9531249563442543e-05 -2.5
6.346396446228027 2.7039501667022705 -2.5
4.487387657165527 4.671879768371582 -2.347599983215332
4.096909046173096 5.017807483673096 -2.347599983215332
3.6798534393310547 5.331201076507568 -2.347599983215332
3.2389402389526367 5.610024452209473 -2.347599983215332
2.2970800399780273 6.056933403015137 -2.347599983215332
1.8022509813308716 6.222128868103027 -2.347599983215332
1.295742154121399 6.346977233886719 -2.347599983215332
0.7808203101158142 6.430654048919678 -2.347599983215332
0.26082518696784973 6.472636699676514 -2.347599983215332
-0.26084470748901367 6.472631454467773 -2.347599983215332
-1.8022607564926147 6.222124099731445 -2.347599983215332
-2.2970848083496094 6.056938171386719 -2.347599983215332
-3.238945245742798 5.610004901885986 -2.347599983215332
-4.518749713897705 4.704535961151123 -2.364009141921997
-5.156425476074219 4.568198204040527 -2.496556520462036
-6.543393611907959 2.184506893157959 -2.5
-6.697963714599609 1.65090811252594 -2.5
-6.876044750213623 0.5550878643989563 -2.5
6.666840553283691 1.9531249563442543e-05 -2.5
6.645224571228027 0.5364648103713989 -2.5
6.323750019073486 2.1111814975738525 -2.5
5.9031982421875 3.0982518196105957 -2.5
5.634746074676514 3.5632078647613525 -2.5
3.9593846797943115 4.849365234375 -2.347599983215332
2.219975471496582 5.853613376617432 -2.347599983215332
1.2522460222244263 6.133925437927246 -2.347599983215332
0.7546142339706421 6.214794635772705 -2.347599983215332
0.2520703077316284 6.255356311798096 -2.347599983215332
-0.19151854515075684 4.752353191375732 -1.7835288047790527
-2.219980478286743 5.853613376617432 -2.347599983215332
-2.6837987899780273 5.655991077423096 -2.347599983215332
-3.55633282661438 5.152235984802246 -2.347599983215332
-3.9593846797943115 4.849365234375 -2.347599983215332
-4.501909255981445 4.686992168426514 -2.437001943588257
-5.329765319824219 4.005058288574219 -2.5
-5.634750843048096 3.5631980895996094 -2.5
-6.323750019073486 2.1111767292022705 -2.5
-6.580502986907959 1.0694531202316284 -2.5
-6.645224571228027 0.5364648103713989 -2.5
6.427656173706055 0.5189062356948853 -2.5
5.932548522949219 2.5276269912719727 -2.5
5.709926605224609 2.9967968463897705 -2.5
5.450263500213623 3.446547746658325 -2.5
5.155258655548096 3.8739306926727295 -2.5
4.821865081787109 4.271811485290527 -2.4974353313446045
3.439892530441284 4.983554363250732 -2.347599983215332
2.147294759750366 5.661967754364014 -2.347599983215332
1.684731364250183 5.816386699676514 -2.347599983215332
1.2112401723861694 5.933090686798096 -2.347599983215332
0.7299023270606995 6.011308670043945 -2.347599983215332
0.24381835758686066 6.050556659698486 -2.347599983215332
-0.19106444716453552 4.741078853607178 -1.839526653289795
-0.729907214641571 6.011318206787109 -2.347599983215332
-2.1472997665405273 5.661957740783691 -2.347599983215332
-2.5959277153015137 5.470810413360596 -2.347599983215332
-3.027724504470825 5.244189262390137 -2.347599983215332
-3.8297605514526367 4.690595626831055 -2.347599983215332
-5.155263423919678 3.8739256858825684 -2.5
-5.450263500213623 3.446537971496582 -2.5
-5.709921836853027 2.9968066215515137 -2.5
-6.116703987121582 2.042050838470459 -2.5
-6.261186599731445 1.54324209690094 -2.5
-6.365068435668945 1.0344336032867432 -2.5
6.222187519073486 0.5023144483566284 -2.5
6.161586761474609 1.001367211341858 -2.5
6.06102991104126 1.4939160346984863 -2.5
5.921166896820068 1.9767773151397705 -2.5
5.742895603179932 2.446830987930298 -2.5
5.527392387390137 2.9010009765625 -2.5
5.27603006362915 3.336371898651123 -2.5
3.7073192596435547 4.5406494140625 -2.347599983215332
2.9309473037719727 5.076547622680664 -2.347599983215332
1.6308691501617432 5.630458831787109 -2.347599983215332
1.172519564628601 5.743427753448486 -2.347599983215332
0.7065624594688416 5.819150447845459 -2.347599983215332
0.2360253781080246 5.857133865356445 -2.347599983215332
-2.078662157058716 5.480966567993164 -2.347599983215332
-2.512953996658325 5.29592752456665 -2.347599983215332
-2.9309473037719727 5.076542854309082 -2.347599983215332
-3.726513624191284 4.564159870147705 -2.359754800796509
-4.672524452209473 4.139502048492432 -2.5
-4.990468502044678 3.7500877380371094 -2.5
-5.742909908294678 2.446830987930298 -2.5
-5.92117166519165 1.9767773151397705 -2.5
-6.222187519073486 0.5023144483566284 -2.5
6.027763366699219 0.4866308569908142 -2.5
5.969062328338623 0.9700781106948853 -2.5
5.871654987335205 1.4472265243530273 -2.5
3.604926586151123 4.415239334106445 -2.3563859462738037
2.839360237121582 4.917924880981445 -2.347599983215332
2.4344236850738525 5.130458831787109 -2.347599983215332
0.22865721583366394 5.674140453338623 -2.347599983215332
-0.6845019459724426 5.6373291015625 -2.347599983215332
-1.5799365043640137 5.454521179199219 -2.347599983215332
-2.0137109756469727 5.309711933135986 -2.347599983215332
-2.4344334602355957 5.130449295043945 -2.347599983215332
-2.8393797874450684 4.917929649353027 -2.347599983215332
-3.714467763900757 4.549394607543945 -2.4279870986938477
-4.526528358459473 4.010151386260986 -2.5
-5.56347131729126 2.3703808784484863 -2.5
-5.736156940460205 1.9150195121765137 -2.5
-5.871654987335205 1.4472362995147705 -2.5
5.862524509429932 9.765624781721272e-06 -2.5
5.843505859375 0.471748024225235 -2.5
5.786601543426514 0.9404199123382568 -2.5
5.69216775894165 1.4029979705810547 -2.5
5.393398284912109 2.297919988632202 -2.5
4.686743259429932 3.5218799114227295 -2.5
4.388164043426514 3.887587785720825 -2.5
4.054755687713623 4.221455097198486 -2.4960901737213135
3.5937206745147705 4.401513576507568 -2.423130512237549
1.5316259860992432 5.287792682647705 -2.347599983215332
0.66357421875 5.465009689331055 -2.347599983215332
-0.66357421875 5.465009689331055 -2.347599983215332
-1.1011767387390137 5.393891334533691 -2.347599983215332
-1.9521533250808716 5.147402286529541 -2.347599983215332
-2.3600146770477295 4.973622798919678 -2.347599983215332
-2.752578020095825 4.767597675323486 -2.347599983215332
-3.1272900104522705 4.5306396484375 -2.347599983215332
-3.696596622467041 4.527509689331055 -2.492495536804199
-4.058735370635986 4.225581169128418 -2.4985342025756836
-4.388149261474609 3.887583017349243 -2.5
-4.686752796173096 3.5218701362609863 -2.5
-4.954946041107178 3.1333250999450684 -2.5
-5.191005706787109 2.7244482040405273 -2.5
-5.393408298492432 2.297910213470459 -2.5
-5.56082010269165 1.85647451877594 -2.5
-5.786596775054932 0.9404199123382568 -2.5
5.687026023864746 1.9531249563442543e-05 -2.5
5.613388538360596 0.9122753739356995 -2.5
5.035610198974609 2.642895460128784 -2.5
4.806616306304932 3.0395262241363525 -2.5
3.582465648651123 4.387739181518555 -2.49008846282959
3.0336570739746094 4.39501953125 -2.347599983215332
2.670161008834839 4.624882698059082 -2.347599983215332
1.4857714176177979 5.129501819610596 -2.347599983215332
1.068203091621399 5.232426643371582 -2.347599983215332
0.6437011361122131 5.301411151885986 -2.347599983215332
0.2150244116783142 5.336020469665527 -2.347599983215332
-0.18282225728034973 4.536581993103027 -1.9958852529525757
-1.4857763051986694 5.129506587982178 -2.347599983215332
-1.893715739250183 4.993310451507568 -2.347599983215332
-2.289365291595459 4.824740886688232 -2.347599983215332
-2.670170783996582 4.624873161315918 -2.347599983215332
-3.588696241378784 4.395356178283691 -2.4944136142730713
-3.9395360946655273 4.101499080657959 -2.5
-4.546454906463623 3.41644024848938 -2.5
-5.035614967346191 2.642890453338623 -2.5
-5.231943130493164 2.2291259765625 -2.5
-5.394350528717041 1.8008984327316284 -2.5
-5.613379001617432 0.9122753739356995 -2.5
5.502265453338623 0.4441894292831421 -2.5
5.448681354522705 0.8855078220367432 -2.5
5.236073970794678 1.7480664253234863 -2.5
5.078432559967041 2.1637256145477295 -2.5
4.887861251831055 2.5653514862060547 -2.5
4.665585994720459 2.9503467082977295 -2.5
3.823486328125 3.9806737899780273 -2.499696969985962
3.483144521713257 4.266083717346191 -2.494229316711426
2.5918262004852295 4.489184379577637 -2.347599983215332
2.2221972942352295 4.683188438415527 -2.347599983215332
1.4421874284744263 4.97900390625 -2.347599983215332
1.0368603467941284 5.078901290893555 -2.347599983215332
0.6248144507408142 5.145864009857178 -2.347599983215332
-0.6248242259025574 5.145864009857178 -2.347599983215332
-1.036865234375 5.078901290893555 -2.347599983215332
-1.8381494283676147 4.8468017578125 -2.347599983215332
-2.2222020626068115 4.683178424835205 -2.347599983215332
-3.0652928352355957 4.440854549407959 -2.4437828063964844
-3.485956907272339 4.269511699676514 -2.4962399005889893
-3.8239452838897705 3.9811668395996094 -2.5
-5.078432559967041 2.1637303829193115 -2.5
-5.359760761260986 1.3210644721984863 -2.5
-5.448671817779541 0.8855078220367432 -2.5
-5.502265453338623 0.44419920444488525 -2.5
5.361269474029541 9.765624781721272e-06 -2.5
5.343891620635986 0.4314062297344208 -2.5
5.291840553283691 0.8600195050239563 -2.5
5.085361003875732 1.6977441310882568 -2.5
4.531289100646973 2.865419864654541 -2.5
4.286025524139404 3.2207422256469727 -2.5
3.713876962661743 3.866572141647339 -2.5
3.3853564262390137 4.146323204040527 -2.49605655670166
1.7852392196655273 4.707299709320068 -2.347599983215332
0.6068359017372131 4.997748851776123 -2.347599983215332
0.20270507037639618 5.030371189117432 -2.347599983215332
-0.6068359017372131 4.997748851776123 -2.347599983215332
-1.0070263147354126 4.932704925537109 -2.347599983215332
-3.3879735469818115 4.149516582489014 -2.497981548309326
-4.012963771820068 3.555185556411743 -2.5
-4.286035060882568 3.2207517623901367 -2.5
-4.747177600860596 2.491508722305298 -2.5
-4.932260513305664 2.101445198059082 -2.5
-5.085361003875732 1.69775390625 -2.5
-5.343881607055664 0.4314062297344208 -2.5
