ply
format ascii 1.0
element vertex 868
property float x
property float y
property float z
end_header
-3.3750293254852295 27.79584503173828 7.502569198608398
-5.488173484802246 26.882816314697266 7.351799964904785
-6.359633445739746 13.402694702148438 3.9750237464904785
-13.848417282104492 23.986122131347656 7.421329021453857
-16.022329330444336 23.212270736694336 7.557511329650879
-3.3750391006469727 27.795839309692383 7.170983791351318
-7.531054496765137 26.000150680541992 6.932522296905518
-16.022319793701172 23.2122745513916 7.223498344421387
-5.488173484802246 26.882816314697266 6.703794002532959
-7.531054496765137 26.000150680541992 6.613775253295898
-6.35473108291626 13.392377853393555 3.62186336517334
-13.909037590026855 24.091142654418945 6.796822547912598
-16.022308349609375 23.212284088134766 6.8913750648498535
-3.4199461936950684 28.16568374633789 6.600009441375732
-7.706113338470459 26.60452651977539 6.443120002746582
-13.831313133239746 23.956527709960938 6.434865474700928
-15.952553749084473 23.1112060546875 6.532476425170898
-18.167539596557617 22.251161575317383 6.682191848754883
-7.758466720581055 26.785282135009766 6.161981582641602
-9.88277816772461 26.058734893798828 6.158339500427246
-14.013690948486328 24.272401809692383 6.193152904510498
-16.022216796875 23.21213722229004 6.232378005981445
-18.125 22.199081420898438 6.332635402679443
-3.4769580364227295 28.635194778442383 6.0394792556762695
-5.653901100158691 27.694602966308594 5.918111324310303
-7.758466720581055 26.785282135009766 5.838644981384277
-9.867749214172363 26.01909637451172 5.826320171356201
-6.347495079040527 13.377128601074219 3.1001274585723877
-13.991494178771973 24.23395538330078 5.858887672424316
-16.02284049987793 23.213031768798828 5.905576705932617
-3.4769530296325684 28.635194778442383 5.706578731536865
-5.653901100158691 27.694602966308594 5.5919013023376465
-9.88277816772461 26.058734893798828 5.513556003570557
-14.013690948486328 24.272401809692383 5.544722557067871
-18.18876838684082 22.27718734741211 5.689549446105957
-3.4769628047943115 28.635194778442383 5.375131130218506
-5.653901100158691 27.694602966308594 5.267114162445068
-7.758466720581055 26.785282135009766 5.196389675140381
-14.013690948486328 24.272401809692383 5.2226762771606445
-18.188779830932617 22.27718734741211 5.359090328216553
-3.4769482612609863 28.635194778442383 5.045050144195557
-9.882787704467773 26.05872917175293 4.87440299987793
-6.340385437011719 13.3621187210083 2.5867717266082764
-14.013686180114746 24.27240753173828 4.901956558227539
-18.18876838684082 22.27718734741211 5.029994010925293
-5.653901100158691 27.694602966308594 4.621469497680664
-7.758466720581055 26.785282135009766 4.559414386749268
-1.1937255859375 29.6216983795166 4.510383129119873
-3.4769482612609863 28.635194778442383 4.388633728027344
-5.612065315246582 27.489686965942383 4.268617630004883
-7.708671569824219 26.613388061523438 4.215468883514404
-6.335683345794678 13.352240562438965 2.248539447784424
-18.188779830932617 22.27718734741211 4.3755364418029785
-1.1874462366104126 29.46587371826172 4.152852535247803
-7.758466720581055 26.785282135009766 3.927042245864868
-9.820444107055664 25.89436912536621 3.899967670440674
-6.333354473114014 13.347329139709473 2.080484628677368
-13.925302505493164 24.119306564331055 3.922013521194458
-16.02284049987793 23.213031768798828 3.972059965133667
-3.4769482612609863 28.635194778442383 3.736626386642456
-7.758466720581055 26.785282135009766 3.612370014190674
-9.820444107055664 25.89436912536621 3.5874650478363037
-18.18876838684082 22.27718734741211 3.725475311279297
23.325162887573242 5.749189376831055 2.8416528701782227
22.561805725097656 7.532240867614746 2.8135790824890137
21.80103302001953 9.288549423217773 2.8030974864959717
-1.1937353610992432 29.6216983795166 3.5067241191864014
-9.839961051940918 25.945804595947266 3.2823686599731445
-6.328725337982178 13.337563514709473 1.7462682723999023
-14.013700485229492 24.272411346435547 3.3152904510498047
-16.022851943969727 23.21302604675293 3.336416006088257
-1.1937353610992432 29.6216983795166 3.174028158187866
-6.326416015625 13.3326997756958 1.58001708984375
-18.188779830932617 22.27718734741211 3.079134464263916
-1.1937353610992432 29.6216983795166 2.8421239852905273
-3.4769530296325684 28.635194778442383 2.76540470123291
-5.653901100158691 27.694602966308594 2.709831476211548
-7.758466720581055 26.785282135009766 2.6734459400177
-9.839961051940918 25.945804595947266 2.660288095474243
-6.324116230010986 13.327856063842773 1.4142833948135376
-14.013700485229492 24.272411346435547 2.686971426010132
-16.022851943969727 23.21302604675293 2.704092264175415
-1.1937353610992432 29.6216983795166 2.5109245777130127
-3.4769482612609863 28.635194778442383 2.4431488513946533
-5.653901100158691 27.694602966308594 2.3940484523773193
-6.321825981140137 13.323026657104492 1.2490209341049194
-16.02284049987793 23.213031768798828 2.3889787197113037
-1.1937255859375 29.6216983795166 2.180347204208374
-3.4769580364227295 28.635194778442383 2.121492862701416
-9.88277816772461 26.058734893798828 2.049733877182007
-14.013700485229492 24.272411346435547 2.061321258544922
-16.022851943969727 23.213031768798828 2.074456214904785
-18.18876838684082 22.27718734741211 2.115161895751953
2.1350536346435547 17.583831787109375 1.1055392026901245
-1.1937353610992432 29.6216983795166 1.8503081798553467
-3.4769482612609863 28.635194778442383 1.800362229347229
-5.653901100158691 27.694602966308594 1.764182448387146
-9.88277816772461 26.058734893798828 1.7394652366638184
-6.3172607421875 13.313403129577637 0.9197421073913574
2.132578134536743 17.56344223022461 0.9075637459754944
-1.1937353610992432 29.6216983795166 1.520723819732666
-3.4769530296325684 28.635194778442383 1.47967529296875
-5.653901100158691 27.694602966308594 1.4499402046203613
-9.820448875427246 25.894365310668945 1.4206085205078125
-16.02284049987793 23.213031768798828 1.4468683004379272
-18.188779830932617 22.27718734741211 1.4752596616744995
-6.312714576721191 13.303828239440918 0.5918465852737427
-13.84371566772461 23.978012084960938 1.1128076314926147
-16.022851943969727 23.21302604675293 1.1336486339569092
-18.08893585205078 22.154911041259766 1.1495486497879028
0.708984375 17.593759536743164 0.5123428106307983
-1.1937255859375 29.6216983795166 0.8626006841659546
-3.4769580364227295 28.635194778442383 0.8393157720565796
-7.758466720581055 26.785282135009766 0.8114058971405029
-9.839950561523438 25.945810317993164 0.8074123859405518
-6.310444355010986 13.299042701721191 0.42831480503082275
-16.022851943969727 23.21302604675293 0.8207070827484131
-18.18876838684082 22.27718734741211 0.8368111848831177
0.708984375 17.59376335144043 0.31710904836654663
-1.1937353610992432 29.6216983795166 0.533896803855896
-5.646274089813232 27.657255172729492 0.508359968662262
-6.308178424835205 13.294261932373047 0.265005499124527
-16.02284049987793 23.213031768798828 0.5079672336578369
2.132578134536743 17.563446044921875 0.12253844738006592
0.708984375 17.593759536743164 0.1219540387392044
-5.646284103393555 27.657255172729492 0.19550292193889618
-7.758466720581055 26.785282135009766 0.19313842058181763
-13.977797508239746 24.21021842956543 0.19361785054206848
-16.02284049987793 23.213031768798828 0.19535216689109802
0.708984375 17.593759536743164 -0.0731712356209755
-3.4769482612609863 28.635194778442383 -0.11987213045358658
-7.758466720581055 26.785282135009766 -0.11588577181100845
-9.839950561523438 25.945810317993164 -0.11531554907560349
-6.303661823272705 13.284735679626465 -0.06110595539212227
-16.02284049987793 23.213031768798828 -0.11721435189247131
-18.188779830932617 22.27718734741211 -0.11951430886983871
2.132578134536743 17.563446044921875 -0.2695985436439514
-5.646274089813232 27.657255172729492 -0.43013808131217957
-7.758466720581055 26.785282135009766 -0.42493560910224915
-13.977797508239746 24.21021842956543 -0.42599213123321533
-16.02284049987793 23.213031768798828 -0.42980682849884033
2.1325879096984863 17.563446044921875 -0.46574124693870544
0.708984375 17.593759536743164 -0.463519424200058
-3.4769482612609863 28.635194778442383 -0.7593401670455933
-7.758466720581055 26.785282135009766 -0.7340894937515259
-16.02284049987793 23.213031768798828 -0.7425045371055603
-18.18876838684082 22.27718734741211 -0.757074236869812
2.132578134536743 17.563446044921875 -0.6620023846626282
0.708984375 17.593759536743164 -0.6588441133499146
-1.1937353610992432 29.6216983795166 -1.1092642545700073
-3.4769580364227295 28.635194778442383 -1.0793217420578003
-5.646284103393555 27.657255172729492 -1.0562057495117188
-6.296884536743164 13.270453453063965 -0.5496084690093994
-13.977797508239746 24.21021842956543 -1.0460212230682373
2.132578134536743 17.563446044921875 -0.8584244847297668
0.708984375 17.593759536743164 -0.8543292284011841
-1.1908299922943115 29.5496826171875 -1.4348950386047363
-5.630649089813232 27.580760955810547 -1.365802526473999
-7.723002910614014 26.662832260131836 -1.3468393087387085
-9.773256301879883 25.769954681396484 -1.3372399806976318
-13.977787971496582 24.210229873657227 -1.356385350227356
-18.12492561340332 22.198978424072266 -1.3904900550842285
-2.3707714080810547 19.525033950805664 -1.1728935241699219
-5.653896331787109 27.694602966308594 -1.6855852603912354
-9.820444107055664 25.89436912536621 -1.651487112045288
-6.292367935180664 13.260936737060547 -0.8753028512001038
-16.02284049987793 23.213031768798828 -1.682015299797058
-18.18876838684082 22.27718734741211 -1.7150204181671143
-2.3707714080810547 19.525033950805664 -1.3917772769927979
-7.758471488952637 26.785282135009766 -1.9732900857925415
-9.820444107055664 25.89436912536621 -1.9596853256225586
-13.977797508239746 24.21021842956543 -1.9781917333602905
19.854398727416992 20.670639038085938 -2.347599983215332
18.126720428466797 22.20121955871582 -2.347599983215332
16.281522750854492 23.587894439697266 -2.347599983215332
14.330676078796387 24.821489334106445 -2.347599983215332
1.8908642530441284 15.572714805603027 -1.2849018573760986
-0.6524609327316284 16.19039535522461 -1.3271992206573486
-7.758466720581055 26.785282135009766 -2.284114360809326
-18.12676239013672 22.201234817504883 -2.347599983215332
-19.85443878173828 20.670644760131836 -2.347599983215332
-21.453344345092773 19.006019592285156 -2.347599983215332
26.86016082763672 3.9062499126885086e-05 -2.5
26.079647064208984 6.428061485290527 -2.5
25.477834701538086 8.505776405334473 -2.5
23.783483505249023 12.482558250427246 -2.5
22.701929092407227 14.355863571166992 -2.5
20.164133071899414 15.152406692504883 -2.347599983215332
18.87950325012207 16.725811004638672 -2.347599983215332
17.472415924072266 18.19072723388672 -2.347599983215332
8.944101333618164 23.583709716796875 -2.347599983215332
5.240190505981445 18.09130859375 -1.7530546188354492
3.267519474029541 16.005395889282227 -1.5204218626022339
1.8908642530441284 15.572714805603027 -1.460070013999939
0.6150488257408142 15.262636184692383 -1.421716570854187
-0.6524609327316284 16.19039535522461 -1.5081374645233154
-8.94412612915039 23.583696365356445 -2.347599983215332
-6.285575866699219 13.2466402053833 -1.364683985710144
-12.611371994018555 21.84355926513672 -2.347599983215332
-18.879507064819336 16.72579002380371 -2.347599983215332
-22.701942443847656 14.355830192565918 -2.5
-23.783475875854492 12.482553482055664 -2.5
-24.710790634155273 10.52828598022461 -2.5
23.97757339477539 2.9296874345163815e-05 -2.5
23.280847549438477 5.738227367401123 -2.5
22.058866500854492 9.398432731628418 -2.5
21.2310791015625 11.142953872680664 -2.5
19.03024673461914 12.034003257751465 -2.347599983215332
16.853397369384766 14.930834770202637 -2.347599983215332
15.597311973571777 16.238534927368164 -2.347599983215332
14.240087509155273 17.44095230102539 -2.347599983215332
10.690400123596191 15.487763404846191 -1.962148666381836
9.155595779418945 15.857993125915527 -1.9092034101486206
9.65237808227539 20.342010498046875 -2.347599983215332
5.197646141052246 17.944427490234375 -1.9478617906570435
3.267519474029541 16.005395889282227 -1.703206181526184
0.6150488257408142 15.262636184692383 -1.5926358699798584
-2.2518749237060547 18.545795440673828 -1.9478617906570435
-7.984355449676514 21.052650451660156 -2.347599983215332
-11.257885932922363 19.499418258666992 -2.347599983215332
-12.790532112121582 18.530195236206055 -2.347599983215332
-14.240097045898438 17.440942764282227 -2.347599983215332
-18.00017547607422 13.526249885559082 -2.347599983215332
-20.265625 12.815204620361328 -2.5
-22.05887222290039 9.39840316772461 -2.5
-23.280853271484375 5.738198280334473 -2.5
-23.667064666748047 3.8462986946105957 -2.5
-23.89981460571289 1.929384708404541 -2.5
21.64889907836914 1.9531249563442543e-05 -2.5
9.458832740783691 0.7636035084724426 -1.0958536863327026
20.534765243530273 6.855527400970459 -2.5
19.91653823852539 8.485663414001465 -2.5
19.169139862060547 10.060761451721191 -2.5
17.182016372680664 10.865273475646973 -2.347599983215332
16.25200080871582 12.212607383728027 -2.347599983215332
15.216591835021973 13.480756759643555 -2.347599983215332
14.082511901855469 14.66146469116211 -2.347599983215332
12.85708999633789 15.74709415435791 -2.347599983215332
9.155595779418945 15.857988357543945 -2.114567756652832
4.895361423492432 16.900815963745117 -2.0319180488586426
0.6150488257408142 15.262636184692383 -1.7639487981796265
-0.6524609327316284 16.19039535522461 -1.8711724281311035
-2.0615429878234863 16.978281021118164 -1.9750405550003052
-4.066352367401123 19.918344497680664 -2.347599983215332
-5.655937194824219 19.52654266357422 -2.347599983215332
-8.1781587600708 14.165034294128418 -1.8888195753097534
-11.548319816589355 16.730560302734375 -2.347599983215332
-15.2166109085083 13.480741500854492 -2.347599983215332
-16.25202178955078 12.212592124938965 -2.347599983215332
-18.262088775634766 11.548236846923828 -2.4951705932617188
-19.169139862060547 10.060751914978027 -2.5
-19.91653823852539 8.485644340515137 -2.5
-20.534770965576172 6.855507850646973 -2.5
-21.01984405517578 5.180912971496582 -2.5
-21.368555068969727 3.472734212875366 -2.5
-21.578691482543945 1.7420116662979126 -2.5
19.72799301147461 2.9296874345163815e-05 -2.5
9.094365119934082 0.734179675579071 -1.156219720840454
17.43846321105957 9.152436256408691 -2.4957356452941895
14.809958457946777 11.12899398803711 -2.347599983215332
13.86642837524414 12.28458023071289 -2.347599983215332
11.716279029846191 14.349853515625 -2.347599983215332
10.52359390258789 15.24609375 -2.347599983215332
7.941674709320068 16.736757278442383 -2.347599983215332
4.895361423492432 16.90081024169922 -2.229763984680176
1.8527636528015137 15.258886337280273 -1.9478617906570435
0.6150488257408142 15.262636184692383 -1.9357045888900757
-0.6311815977096558 15.6624116897583 -1.986406683921814
-2.0585155487060547 16.953290939331055 -2.1641595363616943
-6.569179534912109 17.3215274810791 -2.347599983215332
-5.941054344177246 12.520483016967773 -1.7561990022659302
-10.523633003234863 15.246073722839355 -2.347599983215332
-12.832968711853027 13.360541343688965 -2.347599983215332
-13.866439819335938 12.284584999084473 -2.347599983215332
-15.657465934753418 9.901185989379883 -2.347599983215332
-17.468265533447266 9.16805648803711 -2.5
-18.14933967590332 7.732714653015137 -2.5
-19.15473175048828 4.721200942993164 -2.5
-19.664018630981445 1.5874218940734863 -2.5
18.11604881286621 2.9296874345163815e-05 -2.5
8.5685396194458 1.3925292491912842 -1.1979644298553467
10.041156768798828 2.474926710128784 -1.4271408319473267
13.59987735748291 10.219672203063965 -2.347599983215332
12.733427047729492 11.280858993530273 -2.347599983215332
11.784403800964355 12.268891334533691 -2.347599983215332
9.663735389709473 14.000370979309082 -2.347599983215332
7.292773246765137 15.369237899780273 -2.347599983215332
6.032421588897705 15.906225204467773 -2.347599983215332
4.732934474945068 16.34005355834961 -2.347599983215332
3.1567821502685547 15.462968826293945 -2.177889108657837
1.8353271484375 15.115326881408691 -2.1012206077575684
-0.6311864852905273 15.662416458129883 -2.1631529331207275
-2.050541877746582 16.887676239013672 -2.347599983215332
-4.732924461364746 16.340078353881836 -2.347599983215332
-12.733447074890137 11.280844688415527 -2.347599983215332
-14.3781099319458 9.092177391052246 -2.347599983215332
-16.04097557067871 8.418954849243164 -2.5
-17.183744430541992 5.736767292022705 -2.5
-17.589643478393555 4.33544921875 -2.5
-18.05729866027832 1.4577441215515137 -2.5
8.559345245361328 0.6909960508346558 -1.2821485996246338
8.376728057861328 1.361367106437683 -1.2671334743499756
15.403910636901855 6.563007831573486 -2.5
13.28896427154541 8.403456687927246 -2.347599983215332
12.569677352905273 9.44552230834961 -2.347599983215332
11.768866539001465 10.426337242126465 -2.347599983215332
9.943974494934082 12.179179191589355 -2.347599983215332
8.931703567504883 12.939833641052246 -2.347599983215332
7.861518383026123 13.6165771484375 -2.347599983215332
5.57546854019165 14.70131778717041 -2.347599983215332
0.5993847250938416 14.873964309692383 -2.2226240634918213
-0.6311815977096558 15.662416458129883 -2.340441942214966
-3.1449804306030273 15.405341148376465 -2.347599983215332
-4.374433517456055 15.102290153503418 -2.347599983215332
-5.57546854019165 14.701327323913574 -2.347599983215332
-5.951728343963623 12.543036460876465 -2.072929859161377
-10.89174747467041 11.339516639709473 -2.347599983215332
-11.768877029418945 10.4263277053833 -2.347599983215332
-15.403910636901855 6.562997817993164 -2.5
-16.257230758666992 4.007040977478027 -2.5
-16.68946647644043 1.3473047018051147 -2.5
15.5610933303833 2.9296874345163815e-05 -2.5
8.199843406677246 1.332617163658142 -1.3346465826034546
10.937597274780273 9.689887046813965 -2.347599983215332
6.264257907867432 13.20166015625 -2.347599983215332
4.065434455871582 14.035566329956055 -2.347599983215332
2.9228711128234863 14.317177772521973 -2.347599983215332
1.7613476514816284 14.505956649780273 -2.347599983215332
-2.922856330871582 14.317192077636719 -2.347599983215332
-4.065468788146973 14.035551071166992 -2.347599983215332
-5.910585880279541 12.45633316040039 -2.215057849884033
-6.93716287612915 12.015546798706055 -2.2290115356445312
-9.241606712341309 11.318901062011719 -2.347599983215332
-10.122421264648438 10.538569450378418 -2.347599983215332
-11.681845664978027 8.77834415435791 -2.347599983215332
-12.350337028503418 7.809867858886719 -2.347599983215332
-14.31588363647461 6.099433422088623 -2.5
-14.760263442993164 4.927700042724609 -2.5
-15.10891056060791 3.7239990234375 -2.5
-15.359580039978027 2.4961814880371094 -2.5
9.294604301452637 2.2909228801727295 -1.646951675415039
10.908583641052246 8.197295188903809 -2.347599983215332
9.452377319335938 9.840995788574219 -2.347599983215332
7.75137186050415 11.229828834533691 -2.347599983215332
6.822617053985596 11.81712818145752 -2.347599983215332
5.849599361419678 12.327807426452637 -2.347599983215332
4.838662147521973 12.758529663085938 -2.347599983215332
3.796337842941284 13.106508255004883 -2.347599983215332
-1.6447705030441284 13.545746803283691 -2.347599983215332
-3.7963476181030273 13.106508255004883 -2.347599983215332
-5.849609375 12.327812194824219 -2.347599983215332
-6.82262659072876 11.81712818145752 -2.347599983215332
-8.629878044128418 10.56966781616211 -2.347599983215332
-10.213613510131836 9.048476219177246 -2.347599983215332
-10.908588409423828 8.197279930114746 -2.347599983215332
-12.866605758666992 6.752919673919678 -2.5
-13.368270874023438 5.695683479309082 -2.5
-14.108808517456055 3.477494955062866 -2.5
-14.342870712280273 2.3309667110443115 -2.5
-14.483930587768555 1.1692675352096558 -2.5
8.116215705871582 0.6552148461341858 -1.4939864873886108
7.95385217666626 1.2926366329193115 -1.478496789932251
10.81424331665039 6.838540077209473 -2.347599983215332
10.228910446166992 7.686542987823486 -2.347599983215332
9.577221870422363 8.48470687866211 -2.347599983215332
8.863442420959473 9.227836608886719 -2.347599983215332
8.092167854309082 9.9111328125 -2.347599983215332
6.397524356842041 11.080849647521973 -2.347599983215332
1.54226553440094 12.701766967773438 -2.347599983215332
0.5151904225349426 12.784677505493164 -2.347599983215332
-1.5422265529632568 12.701801300048828 -2.347599983215332
-2.559335947036743 12.536474227905273 -2.347599983215332
-3.5598340034484863 12.289873123168945 -2.347599983215332
-6.397529125213623 11.08084487915039 -2.347599983215332
-7.268422603607178 10.530131340026855 -2.347599983215332
-12.064936637878418 6.332167625427246 -2.5
-12.535341262817383 5.340800762176514 -2.5
-13.229750633239746 3.2608251571655273 -2.5
-13.449223518371582 2.185727596282959 -2.5
-13.581499099731445 1.0963964462280273 -2.5
8.11464786529541 0.6550976634025574 -1.5871413946151733
7.945775985717773 1.2913280725479126 -1.569395899772644
11.797304153442383 5.026376724243164 -2.5
10.1775484085083 6.4359130859375 -2.347599983215332
9.626665115356445 7.233998775482178 -2.347599983215332
9.013359069824219 7.985166072845459 -2.347599983215332
7.615727424621582 9.327588081359863 -2.347599983215332
6.840478420257568 9.910161018371582 -2.347599983215332
6.020859241485596 10.428451538085938 -2.347599983215332
2.4086523056030273 11.798383712768555 -2.347599983215332
-1.4514843225479126 11.953935623168945 -2.347599983215332
-2.4086523056030273 11.798383712768555 -2.347599983215332
-5.162201881408691 10.879111289978027 -2.347599983215332
-6.0208740234375 10.428446769714355 -2.347599983215332
-7.615736961364746 9.327588081359863 -2.347599983215332
-9.013368606567383 7.985151290893555 -2.347599983215332
-10.760351181030273 6.80443811416626 -2.4820315837860107
-11.797308921813965 5.0263671875 -2.5
-12.781865119934082 1.0318554639816284 -2.5
12.107519149780273 9.765624781721272e-06 -2.5
8.102875709533691 0.6541405916213989 -1.6785534620285034
8.892191886901855 2.1917333602905273 -1.8910415172576904
11.138671875 4.74575662612915 -2.5
9.609335899353027 6.076601505279541 -2.347599983215332
9.089208602905273 6.830126762390137 -2.347599983215332
8.510146141052246 7.539345741271973 -2.347599983215332
7.875888347625732 8.199667930603027 -2.347599983215332
4.873989105224609 10.271728515625 -2.347599983215332
3.1631736755371094 10.92055606842041 -2.347599983215332
2.274174690246582 11.13967227935791 -2.347599983215332
1.3704345226287842 11.286552429199219 -2.347599983215332
0.4577929675579071 11.360224723815918 -2.347599983215332
-0.45780760049819946 11.360224723815918 -2.347599983215332
-1.370449185371399 11.286547660827637 -2.347599983215332
-4.031669616699219 10.630610466003418 -2.347599983215332
-4.873993873596191 10.271733283996582 -2.347599983215332
-11.48440933227539 3.8340721130371094 -2.5
-11.755693435668945 2.897514581680298 -2.5
-11.950722694396973 1.9421874284744263 -2.5
11.464516639709473 1.9531249563442543e-05 -2.5
7.90652322769165 1.2849414348602295 -1.7467504739761353
10.87451171875 3.6304638385772705 -2.5
9.099008560180664 5.753876686096191 -2.347599983215332
5.382817268371582 9.32332992553711 -2.347599983215332
3.8175389766693115 10.066054344177246 -2.347599983215332
2.995180606842041 10.340595245361328 -2.347599983215332
0.4334765672683716 10.756909370422363 -2.347599983215332
-0.4334765672683716 10.756914138793945 -2.347599983215332
-1.2976561784744263 10.687152862548828 -2.347599983215332
-2.1534080505371094 10.548075675964355 -2.347599983215332
-2.995190382003784 10.340595245361328 -2.347599983215332
-3.8175389766693115 10.066059112548828 -2.347599983215332
-4.615146160125732 9.72623062133789 -2.347599983215332
-5.382822036743164 9.323325157165527 -2.347599983215332
-6.808686256408691 8.339120864868164 -2.347599983215332
-8.05819320678711 7.13894510269165 -2.347599983215332
-8.606518745422363 6.467372894287109 -2.347599983215332
-10.874506950378418 3.630449056625366 -2.5
-11.13138198852539 2.7436277866363525 -2.5
-11.316049575805664 1.8390429019927979 -2.5
7.884902000427246 1.2814257144927979 -1.8349344730377197
9.04110336303711 2.228442430496216 -2.138906717300415
10.323588371276855 3.446533203125 -2.5
9.637045860290527 5.057919979095459 -2.5
8.997685432434082 5.6898193359375 -2.4453444480895996
7.649955749511719 6.777275085449219 -2.347599983215332
6.46373987197876 7.916650295257568 -2.347599983215332
4.381328105926514 9.233481407165527 -2.347599983215332
3.624140501022339 9.556093215942383 -2.347599983215332
2.843437433242798 9.816718101501465 -2.347599983215332
2.044301748275757 10.013690948486328 -2.347599983215332
1.2319189310073853 10.145727157592773 -2.347599983215332
0.41151854395866394 10.21194839477539 -2.347599983215332
-0.4115380644798279 10.211953163146973 -2.347599983215332
-1.2319140434265137 10.145722389221191 -2.347599983215332
-4.381342887878418 9.233481407165527 -2.347599983215332
-5.805766582489014 8.411078453063965 -2.347599983215332
-7.079809188842773 7.370859146118164 -2.347599983215332
-7.649950981140137 6.777280330657959 -2.347599983215332
-9.637041091918945 5.057924747467041 -2.5
-10.012787818908691 4.266064167022705 -2.5
-10.567456245422363 2.6046385765075684 -2.5
-10.742768287658691 1.74587881565094 -2.5
10.35635757446289 1.9531249563442543e-05 -2.5
8.063672065734863 0.6509765386581421 -1.9528850317001343
8.730151176452637 5.5206298828125 -2.4934475421905518
7.27929162979126 6.448896408081055 -2.347599983215332
6.736767292022705 7.013725280761719 -2.347599983215332
5.524438381195068 8.003554344177246 -2.347599983215332
4.862504959106445 8.422133445739746 -2.347599983215332
3.4485349655151367 9.093066215515137 -2.347599983215332
1.172216773033142 9.654130935668945 -2.347599983215332
0.39158201217651367 9.717153549194336 -2.347599983215332
-1.1722265481948853 9.65414047241211 -2.347599983215332
-1.9452685117721558 9.528495788574219 -2.347599983215332
-2.705678701400757 9.341073989868164 -2.347599983215332
-4.862519264221191 8.422123908996582 -2.347599983215332
-5.524457931518555 8.003544807434082 -2.347599983215332
-6.150551795959473 7.533061504364014 -2.347599983215332
-8.747812271118164 5.531777381896973 -2.4984920024871826
-9.527636528015137 4.05935525894165 -2.5
-10.055419921875 2.4784326553344727 -2.5
-10.222241401672363 1.6612889766693115 -2.5
-10.32277774810791 0.8333398103713989 -2.5
7.894184589385986 1.2829394340515137 -2.024685859680176
9.36708927154541 3.127207040786743 -2.5
9.085078239440918 3.870795726776123 -2.5
8.744150161743164 4.589296817779541 -2.5
8.330693244934082 5.268022537231445 -2.4952621459960938
6.941171646118164 6.149350643157959 -2.347599983215332
6.423847675323486 6.687939167022705 -2.347599983215332
3.2883496284484863 8.670693397521973 -2.347599983215332
2.5799901485443115 8.907182693481445 -2.347599983215332
1.117773413658142 9.205693244934082 -2.347599983215332
0.3733886778354645 9.265786170959473 -2.347599983215332
-0.3734081983566284 9.26578140258789 -2.347599983215332
-1.1177831888198853 9.205693244934082 -2.347599983215332
-3.2883594036102295 8.670702934265137 -2.347599983215332
-3.975395441055298 8.377978324890137 -2.347599983215332
-4.636650085449219 8.030927658081055 -2.347599983215332
-5.864858150482178 7.183154106140137 -2.347599983215332
-6.423847675323486 6.687934398651123 -2.347599983215332
-7.413491249084473 5.570859432220459 -2.347599983215332
-8.744150161743164 4.589286804199219 -2.5
-9.588349342346191 2.3633105754852295 -2.5
-9.747416496276855 1.5841211080551147 -2.5
-9.843280792236328 0.7946386337280273 -2.5
9.434598922729492 1.9531249563442543e-05 -2.5
8.138593673706055 0.6570214629173279 -2.16359806060791
7.928681373596191 1.2885448932647705 -2.1285219192504883
8.949067115783691 2.9876415729522705 -2.5
8.679643630981445 3.698051691055298 -2.5
8.353930473327637 4.384491920471191 -2.5
7.9649658203125 5.036747932434082 -2.497157096862793
6.631406307220459 5.874921798706055 -2.347599983215332
4.429731369018555 7.672538757324219 -2.347599983215332
1.7721190452575684 8.680424690246582 -2.347599983215332
0.3567284941673279 8.852290153503418 -2.347599983215332
-0.35673826932907104 8.852294921875 -2.347599983215332
-1.0678906440734863 8.79488754272461 -2.347599983215332
-1.77212393283844 8.680429458618164 -2.347599983215332
-4.429736137390137 7.672533988952637 -2.347599983215332
-5.032753944396973 7.291205883026123 -2.347599983215332
-5.603134632110596 6.862587928771973 -2.347599983215332
-6.631406307220459 5.874921798706055 -2.347599983215332
-7.158984184265137 5.379628658294678 -2.3729050159454346
-9.404004096984863 0.75916987657547 -2.5
9.0 0.7265625 -2.5
7.959057331085205 1.2934863567352295 -2.2325918674468994
7.62853479385376 4.824008464813232 -2.4990456104278564
6.778354167938232 5.093623161315918 -2.347599983215332
6.346508502960205 5.622529029846191 -2.347599983215332
5.362411975860596 6.56777811050415 -2.347599983215332
4.8165283203125 6.977968692779541 -2.347599983215332
3.6348142623901367 7.660233974456787 -2.347599983215332
3.006640672683716 7.927875995635986 -2.347599983215332
2.358950138092041 8.144096374511719 -2.347599983215332
1.695986270904541 8.307509422302246 -2.347599983215332
-0.34141111373901367 8.471991539001465 -2.347599983215332
-1.022011637687683 8.417040824890137 -2.347599983215332
-1.695986270904541 8.307509422302246 -2.347599983215332
-2.3589696884155273 8.144096374511719 -2.347599983215332
-3.006640672683716 7.927875995635986 -2.347599983215332
-3.63482403755188 7.660233974456787 -2.347599983215332
-4.239433288574219 7.342905044555664 -2.347599983215332
-4.816542625427246 6.977958679199219 -2.347599983215332
-7.11562967300415 5.347055435180664 -2.4644105434417725
-7.631454944610596 4.825849533081055 -2.5
-7.99502420425415 4.196123123168945 -2.5
-8.56459903717041 2.8592822551727295 -2.5
-8.766913414001465 2.160844564437866 -2.5
-9.000004768371582 0.7265527248382568 -2.5
8.403656959533691 2.0713231563568115 -2.5
7.962568283081055 3.3925437927246094 -2.5
6.083544731140137 5.389575004577637 -2.347599983215332
5.630136489868164 5.861606121063232 -2.347599983215332
4.616967678070068 6.68883752822876 -2.347599983215332
2.2612156867980957 7.806650161743164 -2.347599983215332
1.6257128715515137 7.963281154632568 -2.347599983215332
0.9796581864356995 8.068285942077637 -2.347599983215332
-1.6257226467132568 7.96328592300415 -2.347599983215332
-2.26123046875 7.806654930114746 -2.347599983215332
-2.8820605278015137 7.599379539489746 -2.347599983215332
-3.4842236042022705 7.342826843261719 -2.347599983215332
-4.063774108886719 7.038661956787109 -2.347599983215332
-5.140219688415527 6.295629978179932 -2.347599983215332
-5.630146503448486 5.86160135269165 -2.347599983215332
-6.902260780334473 5.186723709106445 -2.4938437938690186
-7.315253734588623 4.625878810882568 -2.5
-7.663769245147705 4.022255897521973 -2.5
-7.962573051452637 3.3925390243530273 -2.5
-8.403656959533691 2.0713086128234863 -2.5
-8.543075561523438 1.3883984088897705 -2.5
8.30868148803711 9.765624781721272e-06 -2.5
8.201088905334473 1.3328222036361694 -2.5
8.067251205444336 1.9884082078933716 -2.5
7.881088733673096 2.631108283996582 -2.5
7.356972694396973 3.8612499237060547 -2.5
7.022411823272705 4.440717697143555 -2.5
6.582172870635986 4.946200847625732 -2.477365493774414
5.840014457702637 5.173813343048096 -2.347599983215332
5.404760837554932 5.626962661743164 -2.347599983215332
-0.31416502594947815 7.795868873596191 -2.347599983215332
-0.9404540657997131 7.745297908782959 -2.347599983215332
-1.5606396198272705 7.644506454467773 -2.347599983215332
-2.170703172683716 7.494140625 -2.347599983215332
-2.7666943073272705 7.295170783996582 -2.347599983215332
-3.3447461128234863 7.048886775970459 -2.347599983215332
-3.9010937213897705 6.756889343261719 -2.347599983215332
-4.934462547302246 6.043612957000732 -2.347599983215332
-5.840024471282959 5.173798561096191 -2.347599983215332
-7.022421836853027 4.44070291519165 -2.5
-7.881083965301514 2.631093740463257 -2.5
7.98681640625 9.765624781721272e-06 -2.5
7.960922718048096 0.6426855325698853 -2.5
7.883388519287109 1.2811815738677979 -2.5
7.754735946655273 1.9113867282867432 -2.5
7.347704887390137 3.130571126937866 -2.5
7.071977615356445 3.711669921875 -2.5
5.195390701293945 5.408984184265137 -2.347599983215332
4.260448932647705 6.172333717346191 -2.347599983215332
3.7499656677246094 6.49514627456665 -2.347599983215332
3.215161085128784 6.775835037231445 -2.347599983215332
2.6595067977905273 7.0125732421875 -2.347599983215332
2.086596727371216 7.203832626342773 -2.347599983215332
1.500185489654541 7.348378658294678 -2.347599983215332
0.9040136337280273 7.445258617401123 -2.347599983215332
-0.9040234088897705 7.445263385772705 -2.347599983215332
-2.6595165729522705 7.01256799697876 -2.347599983215332
-3.215165853500366 6.775829792022705 -2.347599983215332
-4.260454177856445 6.172333717346191 -2.347599983215332
-7.347709655761719 3.130566358566284 -2.5
-7.754741191864014 1.9113671779632568 -2.5
-7.883388519287109 1.2811717987060547 -2.5
7.662040710449219 0.6185546517372131 -2.5
7.463603496551514 1.8396093845367432 -2.5
7.291371822357178 2.434218645095825 -2.5
5.403027057647705 4.786674499511719 -2.347599983215332
4.565224647521973 5.591391563415527 -2.347599983215332
4.100502967834473 5.940600395202637 -2.347599983215332
3.609184503555298 6.251303672790527 -2.347599983215332
2.5596630573272705 6.749291896820068 -2.347599983215332
2.0082664489746094 6.93337869644165 -2.347599983215332
1.4438574314117432 7.072499752044678 -2.347599983215332
0.8700683116912842 7.165741920471191 -2.347599983215332
-0.29066404700279236 7.21251916885376 -2.347599983215332
-0.8700780868530273 7.165741920471191 -2.347599983215332
-1.4438574314117432 7.072494983673096 -2.347599983215332
-2.0082762241363525 6.93337869644165 -2.347599983215332
-2.5596678256988525 6.749301433563232 -2.347599983215332
-3.0944676399230957 6.521440505981445 -2.347599983215332
-4.100512504577637 5.940600395202637 -2.347599983215332
-5.557216644287109 4.923266410827637 -2.414594888687134
-6.144555568695068 4.617324352264404 -2.49969744682312
-6.4969482421875 4.108422756195068 -2.5
-6.806479454040527 3.5723142623901367 -2.5
-7.291367053985596 2.4342236518859863 -2.5
7.406879901885986 1.9531249563442543e-05 -2.5
7.19164514541626 1.7725878953933716 -2.5
5.916816234588623 4.446215629577637 -2.4980783462524414
4.398876667022705 5.387656211853027 -2.347599983215332
2.981699228286743 6.283823013305664 -2.347599983215332
2.4663963317871094 6.503368854522705 -2.347599983215332
1.9350926876068115 6.680756568908691 -2.347599983215332
0.8383691310882568 6.904643535614014 -2.347599983215332
0.2800585925579071 6.949716567993164 -2.347599983215332
-0.28007322549819946 6.949716567993164 -2.347599983215332
-1.3912451267242432 6.814799785614014 -2.347599983215332
-1.9351024627685547 6.680747032165527 -2.347599983215332
-2.4664013385772705 6.503374099731445 -2.347599983215332
-3.4776854515075684 6.023515701293945 -2.347599983215332
-4.81814432144165 5.016220569610596 -2.347599983215332
-5.527411937713623 4.896870136260986 -2.492464542388916
-5.921376705169678 4.449624061584473 -2.5
-6.558461666107178 3.442153215408325 -2.5
-7.191640377044678 1.7725781202316284 -2.5
-7.310966491699219 1.1881542205810547 -2.5
7.052074909210205 1.146093726158142 -2.5
6.936982154846191 1.7098242044448853 -2.5
6.5728759765625 2.8004491329193115 -2.5
6.326220512390137 3.320268392562866 -2.5
4.647529125213623 4.838598728179932 -2.347599983215332
3.8111767768859863 5.521450042724609 -2.347599983215332
3.3545262813568115 5.810214519500732 -2.347599983215332
1.8665722608566284 6.444174766540527 -2.347599983215332
-1.8665722608566284 6.444174766540527 -2.347599983215332
-2.3790721893310547 6.273085594177246 -2.347599983215332
-2.8761229515075684 6.06130838394165 -2.347599983215332
-3.8111815452575684 5.521435260772705 -2.347599983215332
-4.243110179901123 5.196875095367432 -2.347599983215332
-6.038535118103027 3.81853985786438 -2.5
-6.326220512390137 3.320253849029541 -2.5
-6.5728759765625 2.8004443645477295 -2.5
-6.776908874511719 2.262465715408325 -2.5
-6.936972618103027 1.709814429283142 -2.5
-7.121420860290527 0.5749218463897705 -2.5
6.898412704467773 1.9531249563442543e-05 -2.5
6.876049518585205 0.5551074147224426 -2.5
6.697958946228027 1.65090811252594 -2.5
6.108242034912109 3.2058591842651367 -2.5
5.830463886260986 3.6869773864746094 -2.5
5.150136470794678 4.562641620635986 -2.493516445159912
4.487387657165527 4.671879768371582 -2.347599983215332
4.096909046173096 5.017807483673096 -2.347599983215332
3.6798534393310547 5.331201076507568 -2.347599983215332
2.7770166397094727 5.85244607925415 -2.347599983215332
1.295742154121399 6.346977233886719 -2.347599983215332
0.26082518696784973 6.472636699676514 -2.347599983215332
-0.26084470748901367 6.472631454467773 -2.347599983215332
-0.7808251976966858 6.4306640625 -2.347599983215332
-1.8022607564926147 6.222124099731445 -2.347599983215332
-3.238945245742798 5.610004901885986 -2.347599983215332
-3.679872989654541 5.331196308135986 -2.347599983215332
-4.096913814544678 5.017797946929932 -2.347599983215332
-5.514892578125 4.1441650390625 -2.5
-5.830468654632568 3.686967611312866 -2.5
-6.876044750213623 0.5550878643989563 -2.5
6.645224571228027 0.5364648103713989 -2.5
6.580507755279541 1.0694433450698853 -2.5
6.323750019073486 2.1111814975738525 -2.5
6.133354187011719 2.6131885051727295 -2.5
5.9031982421875 3.0982518196105957 -2.5
3.9593846797943115 4.849365234375 -2.347599983215332
3.556328058242798 5.152235984802246 -2.347599983215332
3.1302146911621094 5.421699047088623 -2.347599983215332
0.7546142339706421 6.214794635772705 -2.347599983215332
-1.2522460222244263 6.133920669555664 -2.347599983215332
-2.219980478286743 5.853613376617432 -2.347599983215332
-3.1302146911621094 5.421709060668945 -2.347599983215332
-3.55633282661438 5.152235984802246 -2.347599983215332
-5.329765319824219 4.005058288574219 -2.5
-5.634750843048096 3.5631980895996094 -2.5
-6.133354187011719 2.6131885051727295 -2.5
-6.473119735717773 1.5954687595367432 -2.5
-6.645224571228027 0.5364648103713989 -2.5
6.448559284210205 9.765624781721272e-06 -2.5
6.427656173706055 0.5189062356948853 -2.5
6.11669397354126 2.042050838470459 -2.5
5.932548522949219 2.5276269912719727 -2.5
5.450263500213623 3.446547746658325 -2.5
5.155258655548096 3.8739306926727295 -2.5
3.8297507762908936 4.690600395202637 -2.347599983215332
2.5959277153015137 5.470815181732178 -2.347599983215332
1.684731364250183 5.816386699676514 -2.347599983215332
1.2112401723861694 5.933090686798096 -2.347599983215332
0.7299023270606995 6.011308670043945 -2.347599983215332
-0.19106444716453552 4.741078853607178 -1.839526653289795
-0.729907214641571 6.011318206787109 -2.347599983215332
-1.2112499475479126 5.933090686798096 -2.347599983215332
-2.5959277153015137 5.470810413360596 -2.347599983215332
-3.027724504470825 5.244189262390137 -2.347599983215332
-3.439897298812866 4.98354959487915 -2.347599983215332
-4.454316139221191 4.637426853179932 -2.4928534030914307
-4.826816082000732 4.276201248168945 -2.5
-5.450263500213623 3.446537971496582 -2.5
-5.709921836853027 2.9968066215515137 -2.5
-6.116703987121582 2.042050838470459 -2.5
-6.261186599731445 1.54324209690094 -2.5
-6.427656173706055 0.5188964605331421 -2.5
6.242412090301514 9.765624781721272e-06 -2.5
6.222187519073486 0.5023144483566284 -2.5
6.06102991104126 1.4939160346984863 -2.5
5.921166896820068 1.9767773151397705 -2.5
3.7073192596435547 4.5406494140625 -2.347599983215332
2.9309473037719727 5.076547622680664 -2.347599983215332
2.0786523818969727 5.48095703125 -2.347599983215332
1.6308691501617432 5.630458831787109 -2.347599983215332
0.2360253781080246 5.857133865356445 -2.347599983215332
-2.078662157058716 5.480966567993164 -2.347599983215332
-2.9309473037719727 5.076542854309082 -2.347599983215332
-3.3299365043640137 4.824238300323486 -2.347599983215332
-3.726513624191284 4.564159870147705 -2.359754800796509
-4.315219402313232 4.492621898651123 -2.4947633743286133
-4.672524452209473 4.139502048492432 -2.5
-4.990468502044678 3.7500877380371094 -2.5
-5.527387619018555 2.900995969772339 -2.5
-5.92117166519165 1.9767773151397705 -2.5
-6.06102991104126 1.4939160346984863 -2.5
-6.222187519073486 0.5023144483566284 -2.5
6.047382831573486 9.765624781721272e-06 -2.5
5.969062328338623 0.9700781106948853 -2.5
5.736152172088623 1.9150195121765137 -2.5
5.354692459106445 2.81036114692688 -2.5
4.526523113250732 4.010165691375732 -2.5
4.179550647735596 4.351386547088623 -2.4942641258239746
3.604926586151123 4.415239334106445 -2.3563859462738037
2.839360237121582 4.917924880981445 -2.347599983215332
2.0137059688568115 5.309706687927246 -2.347599983215332
1.579921841621399 5.454526424407959 -2.347599983215332
0.6844872832298279 5.63732385635376 -2.347599983215332
0.22865721583366394 5.674140453338623 -2.347599983215332
-0.18402831256389618 4.56640625 -1.8892948627471924
-0.6845019459724426 5.6373291015625 -2.347599983215332
-1.1358935832977295 5.563979148864746 -2.347599983215332
-1.5799365043640137 5.454521179199219 -2.347599983215332
-2.0137109756469727 5.309711933135986 -2.347599983215332
-3.714467763900757 4.549394607543945 -2.4279870986938477
-4.526528358459473 4.010151386260986 -2.5
-5.111186504364014 3.232123851776123 -2.5
-6.027763366699219 0.4866113066673279 -2.5
5.69216775894165 1.4029979705810547 -2.5
4.954941272735596 3.1333250999450684 -2.5
4.686743259429932 3.5218799114227295 -2.5
4.054755687713623 4.221455097198486 -2.4960901737213135
2.752568244934082 4.767602443695068 -2.347599983215332
2.3600146770477295 4.973622798919678 -2.347599983215332
1.9521484375 5.147407054901123 -2.347599983215332
0.66357421875 5.465009689331055 -2.347599983215332
0.22166503965854645 5.500683307647705 -2.347599983215332
-1.1011767387390137 5.393891334533691 -2.347599983215332
-1.5316308736801147 5.287797927856445 -2.347599983215332
-1.9521533250808716 5.147402286529541 -2.347599983215332
-2.3600146770477295 4.973622798919678 -2.347599983215332
-3.1272900104522705 4.5306396484375 -2.347599983215332
-3.696596622467041 4.527509689331055 -2.492495536804199
-4.058735370635986 4.225581169128418 -2.4985342025756836
-4.388149261474609 3.887583017349243 -2.5
-4.686752796173096 3.5218701362609863 -2.5
-4.954946041107178 3.1333250999450684 -2.5
-5.191005706787109 2.7244482040405273 -2.5
-5.393408298492432 2.297910213470459 -2.5
-5.56082010269165 1.85647451877594 -2.5
-5.692172527313232 1.4029979705810547 -2.5
5.687026023864746 1.9531249563442543e-05 -2.5
5.668583869934082 0.4576171636581421 -2.5
5.613388538360596 0.9122753739356995 -2.5
5.521772384643555 1.3610057830810547 -2.5
5.394350528717041 1.8009082078933716 -2.5
4.806616306304932 3.0395262241363525 -2.5
4.256792068481445 3.771196126937866 -2.5
3.936293840408325 4.098120212554932 -2.4979379177093506
3.582465648651123 4.387739181518555 -2.49008846282959
1.068203091621399 5.232426643371582 -2.347599983215332
0.6437011361122131 5.301411151885986 -2.347599983215332
0.2150244116783142 5.336020469665527 -2.347599983215332
-0.18282225728034973 4.536581993103027 -1.9958852529525757
-0.6437060236930847 5.301401138305664 -2.347599983215332
-1.4857763051986694 5.129506587982178 -2.347599983215332
-3.074697256088257 4.454452991485596 -2.3793509006500244
-3.588696241378784 4.395356178283691 -2.4944136142730713
-3.9395360946655273 4.101499080657959 -2.5
-4.256796836853027 3.7712011337280273 -2.5
5.520155906677246 9.765624781721272e-06 -2.5
5.502265453338623 0.4441894292831421 -2.5
5.448681354522705 0.8855078220367432 -2.5
5.359755516052246 1.3210742473602295 -2.5
5.236073970794678 1.7480664253234863 -2.5
5.078432559967041 2.1637256145477295 -2.5
4.887861251831055 2.5653514862060547 -2.5
4.665585994720459 2.9503467082977295 -2.5
4.131894588470459 3.6605517864227295 -2.5
3.823486328125 3.9806737899780273 -2.499696969985962
3.483144521713257 4.266083717346191 -2.494229316711426
2.995073080062866 4.339126110076904 -2.3877992630004883
1.4421874284744263 4.97900390625 -2.347599983215332
0.6248144507408142 5.145864009857178 -2.347599983215332
-0.18232421576976776 4.524145603179932 -2.0505807399749756
-1.8381494283676147 4.8468017578125 -2.347599983215332
-2.2222020626068115 4.683178424835205 -2.347599983215332
-3.485956907272339 4.269511699676514 -2.4962399005889893
-3.8239452838897705 3.9811668395996094 -2.5
-4.413056373596191 3.3162012100219727 -2.5
-4.665590763092041 2.9503369331359863 -2.5
-4.887861251831055 2.5653514862060547 -2.5
-5.078432559967041 2.1637303829193115 -2.5
-5.236073970794678 1.7480664253234863 -2.5
-5.448671817779541 0.8855078220367432 -2.5
-5.502265453338623 0.44419920444488525 -2.5
5.361269474029541 9.765624781721272e-06 -2.5
5.343891620635986 0.4314062297344208 -2.5
5.205483436584473 1.283046841621399 -2.5
5.085361003875732 1.6977441310882568 -2.5
4.747168064117432 2.491523265838623 -2.5
3.713876962661743 3.866572141647339 -2.5
3.3853564262390137 4.146323204040527 -2.49605655670166
2.986201047897339 4.326274394989014 -2.451284170150757
2.1582324504852295 4.548383712768555 -2.347599983215332
0.6068359017372131 4.997748851776123 -2.347599983215332
-0.18192870914936066 4.514428615570068 -2.106820583343506
-1.0070263147354126 4.932704925537109 -2.347599983215332
-2.535405158996582 4.391459941864014 -2.364555597305298
-3.0368359088897705 4.399594783782959 -2.49284029006958
-3.713881731033325 3.866567373275757 -2.5
-4.012963771820068 3.555185556411743 -2.5
-4.531303405761719 2.86541485786438 -2.5
-4.747177600860596 2.491508722305298 -2.5
-5.205492973327637 1.2830370664596558 -2.5
-5.291840553283691 0.8600195050239563 -2.5
