ply
format ascii 1.0
element vertex 766
property float x
property float y
property float z
end_header
15.924867630004883 -14.108154296875 5.700721263885498
-6.241757869720459 -16.458114624023438 4.507965087890625
-6.239306449890137 -16.451650619506836 4.2989935874938965
15.920000076293945 -14.10384750366211 5.196657180786133
15.915194511413574 -14.099579811096191 4.698328018188477
-6.232040882110596 -16.432470321655273 3.6796441078186035
15.91280460357666 -14.0974702835083 4.451124668121338
-6.22964334487915 -16.42616081237793 3.4754748344421387
-6.227255821228027 -16.419872283935547 3.2723662853240967
15.908061027526855 -14.09326171875 3.9603166580200195
-6.224892616271973 -16.413612365722656 3.0702366828918457
15.905702590942383 -14.091181755065918 3.7165660858154297
-6.222524166107178 -16.407392501831055 2.86903977394104
15.903356552124023 -14.08910083770752 3.473832845687866
15.90102767944336 -14.087040901184082 3.2320494651794434
-6.217826843261719 -16.39501953125 2.4692678451538086
15.898700714111328 -14.084970474243164 2.9911510944366455
-6.215493202209473 -16.388866424560547 2.270538091659546
-23.99769401550293 -10.22445297241211 3.0855352878570557
-6.213173866271973 -16.38274383544922 2.072551727294922
-23.983455657958984 -10.218388557434082 2.7911436557769775
15.891757011413574 -14.078837394714355 2.2731194496154785
-23.969266891479492 -10.212343215942383 2.497797727584839
15.8894624710083 -14.076786994934082 2.035127878189087
-23.95512580871582 -10.206327438354492 2.2054224014282227
-6.206249713897705 -16.364471435546875 1.4823434352874756
-23.941030502319336 -10.200312614440918 1.9139376878738403
-16.0015869140625 -23.18233299255371 2.071713447570801
-6.203949928283691 -16.358417510986328 1.2867259979248047
-15.996821403503418 -23.17544937133789 1.7575939893722534
-6.20166015625 -16.352373123168945 1.0915606021881104
5.427665710449219 -26.58642578125 1.391923189163208
-23.898969650268555 -10.182392120361328 1.0440911054611206
-6.197089672088623 -16.34033203125 0.7023806571960449
5.430776119232178 -26.601659774780273 1.0913763046264648
-6.194814205169678 -16.334325790405273 0.5083276033401489
5.430776119232178 -26.601659774780273 0.7899706959724426
-23.87107276916504 -10.170507431030273 0.467292457818985
-6.192538738250732 -16.32832908630371 0.3144952356815338
-23.857162475585938 -10.164579391479492 0.1796041876077652
5.430781364440918 -26.601659774780273 0.18792113661766052
-6.185717582702637 -16.310361862182617 -0.26581040024757385
5.430776119232178 -26.601659774780273 -0.4138513207435608
-23.81551170349121 -10.146825790405273 -0.6814597845077515
-23.80164909362793 -10.140917778015137 -0.968138575553894
-23.787797927856445 -10.135019302368164 -1.2545497417449951
-6.178925514221191 -16.292430877685547 -0.8454267978668213
15.788668632507324 -6.726903915405273 -0.832687497138977
-25.380170822143555 -13.320507049560547 -1.709289789199829
23.42115592956543 -14.8106050491333 -1.652504801750183
15.519511222839355 -8.145254135131836 -1.0452014207839966
15.763285636901855 -6.71609354019165 -1.021780252456665
-14.643085479736328 -17.93450164794922 -1.6383618116378784
-6.174375057220459 -16.280458450317383 -1.2321193218231201
5.430776119232178 -26.601659774780273 -1.9212144613265991
23.588197708129883 -14.916239738464355 -1.9748783111572266
15.357138633728027 -8.060038566589355 -1.2272791862487793
15.733080863952637 -6.703222274780273 -1.2101397514343262
-28.29019546508789 -4.597587585449219 -2.347599983215332
-27.82852554321289 -6.859120845794678 -2.347599983215332
-27.186317443847656 -9.076123237609863 -2.347599983215332
-22.755496978759766 -9.695195198059082 -2.0259833335876465
-15.906596183776855 -23.04474639892578 -2.2935452461242676
-14.438227653503418 -25.007762908935547 -2.365217924118042
-6.175610065460205 -16.283681869506836 -1.42646324634552
-8.04879379272461 -27.78768539428711 -2.3695974349975586
-5.791352272033691 -28.367919921875 -2.3714935779571533
2.4703612327575684 -20.345195770263672 -1.6786763668060303
5.411796569824219 -26.50874900817871 -2.216071367263794
12.414091110229492 -26.16208839416504 -2.3718905448913574
14.46484375 -25.053817749023438 -2.369572162628174
18.257017135620117 -22.360742568969727 -2.3644680976867676
15.204111099243164 -15.8291015625 -1.7977426052093506
23.646753311157227 -14.95327091217041 -2.2916293144226074
14.300333976745605 -7.505390644073486 -1.3228368759155273
15.698808670043945 -6.688622951507568 -1.3977067470550537
27.186317443847656 -9.076112747192383 -2.347599983215332
27.828495025634766 -6.859081745147705 -2.347599983215332
-26.77305030822754 -2.1613378524780273 -2.5
-26.5123291015625 -4.308661937713623 -2.5
-23.92471694946289 -7.987246036529541 -2.347599983215332
-22.625789642333984 -9.639931678771973 -2.289060354232788
-22.333642959594727 -11.721611022949219 -2.347599983215332
-20.16413116455078 -15.1524019241333 -2.347599983215332
-18.879497528076172 -16.725770950317383 -2.347599983215332
-17.49124526977539 -18.210302352905273 -2.3501293659210205
-12.651689529418945 -21.913387298583984 -2.3551063537597656
-9.289970397949219 -19.578250885009766 -2.0169756412506104
-5.072978496551514 -24.849149703979492 -2.36053204536438
-3.0584521293640137 -25.188690185546875 -2.3616509437561035
-1.0220556259155273 -25.36250877380371 -2.3625237941741943
1.0223339796066284 -25.368436813354492 -2.3630762100219727
12.66043472290039 -21.928485870361328 -2.356729030609131
15.979415893554688 -19.57120132446289 -2.351630449295044
15.245180130004883 -13.505986213684082 -1.8956807851791382
21.318037033081055 -13.480673789978027 -2.347599983215332
14.113451957702637 -7.407304286956787 -1.483534812927246
15.68093204498291 -6.681005477905273 -1.5864442586898804
24.542579650878906 -8.193495750427246 -2.4082276821136475
26.512331008911133 -4.308681488037109 -2.5
26.773056030273438 -2.161318302154541 -2.5
-23.977596282958984 1.9531249563442543e-05 -2.5
-23.280853271484375 -5.738212585449219 -2.5
-22.74363136291504 -7.592929363250732 -2.5
-16.853374481201172 -14.93080997467041 -2.347599983215332
-14.240068435668945 -17.44091796875 -2.347599983215332
-12.790458679199219 -18.530214309692383 -2.347599983215332
-11.257685661315918 -19.498905181884766 -2.3475475311279297
-4.512641429901123 -22.104413986206055 -2.3522324562072754
-0.908740222454071 -22.550907135009766 -2.353156566619873
3.1002197265625 -15.185869216918945 -1.615997552871704
7.587470531463623 -20.00650405883789 -2.230938673019409
9.657001495361328 -20.351669311523438 -2.3487157821655273
11.25796890258789 -19.499345779418945 -2.347599983215332
15.245180130004883 -13.505986213684082 -2.123579978942871
19.03024673461914 -12.033974647521973 -2.347599983215332
22.74359893798828 -7.592909812927246 -2.5
10.065224647521973 -1.6357519626617432 -1.0632091760635376
-21.64889144897461 9.765624781721272e-06 -2.5
-21.368539810180664 -3.47271466255188 -2.5
-19.123559951782227 -10.036826133728027 -2.494056463241577
-16.251996994018555 -12.212597846984863 -2.347599983215332
-15.216596603393555 -13.480751991271973 -2.347599983215332
-14.082504272460938 -14.6614351272583 -2.347599983215332
-10.16458511352539 -17.6055850982666 -2.347599983215332
-5.905185222625732 -15.570634841918945 -1.9230506420135498
-2.4504051208496094 -20.180946350097656 -2.347599983215332
-0.8185546398162842 -20.312685012817383 -2.347599983215332
1.853676676750183 -15.266406059265137 -1.7759029865264893
5.655947208404541 -19.52652359008789 -2.347599983215332
7.208842754364014 -19.008094787597656 -2.347599983215332
10.164599418640137 -17.605566024780273 -2.347599983215332
11.548300743103027 -16.730566024780273 -2.347599983215332
12.8571138381958 -15.74705982208252 -2.347599983215332
14.082526206970215 -14.661455154418945 -2.347599983215332
15.151927947998047 -13.423378944396973 -2.337618589401245
16.252017974853516 -12.212587356567383 -2.347599983215332
-19.727977752685547 9.765624781721272e-06 -2.5
-19.664003372192383 -1.587441325187683 -2.5
-19.15471649169922 -4.721210956573486 -2.5
-16.673891067504883 -10.543935775756836 -2.5
-15.581865310668945 -11.709023475646973 -2.469956874847412
-13.927470207214355 -12.3386812210083 -2.3579351902008057
-12.832968711853027 -13.360527038574219 -2.347599983215332
-4.830039024353027 -16.6751651763916 -2.199993133544922
-2.232963800430298 -18.390283584594727 -2.347599983215332
-0.7459276914596558 -18.510351181030273 -2.347599983215332
1.853676676750183 -15.266406059265137 -1.948822259902954
3.094057559967041 -15.155673027038574 -1.9601958990097046
5.154091835021973 -17.793926239013672 -2.347599983215332
6.569199085235596 -17.321502685546875 -2.347599983215332
7.941694259643555 -16.736738204956055 -2.347599983215332
9.2626953125 -16.04341697692871 -2.347599983215332
10.523622512817383 -15.246064186096191 -2.347599983215332
11.716293334960938 -14.349814414978027 -2.347599983215332
12.832968711853027 -13.360536575317383 -2.347599983215332
15.738974571228027 -11.82705020904541 -2.494859457015991
18.149337768554688 -7.732705116271973 -2.5
18.71271514892578 -6.247197151184082 -2.5
9.736928939819336 -1.5823925733566284 -1.2500865459442139
-18.057313919067383 -1.4577343463897705 -2.5
-17.881454467773438 -2.906015634536743 -2.5
-17.183744430541992 -5.736777305603027 -2.5
-16.666406631469727 -7.100888729095459 -2.5
-15.311479568481445 -9.682373046875 -2.5
-14.482738494873047 -10.883085250854492 -2.5
-13.556180953979492 -12.009736061096191 -2.499284505844116
-12.327763557434082 -12.83456039428711 -2.4558417797088623
-10.83646011352539 -13.272255897521973 -2.364508628845215
-8.505844116210938 -14.732548713684082 -2.347599983215332
0.6850000023841858 -16.99789047241211 -2.347599983215332
1.853676676750183 -15.266406059265137 -2.1222245693206787
9.663763999938965 -14.00033187866211 -2.347599983215332
13.560065269470215 -12.01317310333252 -2.5
14.48275375366211 -10.883066177368164 -2.5
13.74319839477539 -7.212978363037109 -2.141889810562134
16.66639518737793 -7.100869178771973 -2.5
9.641288757324219 -1.5668554306030273 -1.3479442596435547
-16.7437686920166 9.765624781721272e-06 -2.5
-16.689462661743164 -1.3473047018051147 -2.5
-16.526933670043945 -2.6858787536621094 -2.5
-16.257205963134766 -4.007040977478027 -2.5
-15.40392017364502 -6.56298828125 -2.5
-14.825854301452637 -7.781220436096191 -2.5
-11.5988130569458 -12.075624465942383 -2.5
-10.581826210021973 -12.960419654846191 -2.498190402984619
-9.392963409423828 -13.608095169067383 -2.4688377380371094
-8.031498908996582 -13.910985946655273 -2.398360252380371
-5.575448989868164 -14.701308250427246 -2.347599983215332
-0.6330907940864563 -15.710302352905273 -2.347599983215332
1.853676676750183 -15.266406059265137 -2.296159505844116
3.091479539871216 -15.143085479736328 -2.30764102935791
6.777695178985596 -14.283652305603027 -2.3606009483337402
10.589516639709473 -12.9697847366333 -2.5
13.850822448730469 -7.269462585449219 -2.3355836868286133
8.603569030761719 -2.1205859184265137 -1.3230394124984741
10.906425476074219 -0.8804491758346558 -1.6337310075759888
-15.510624885559082 -1.252138614654541 -2.5
-15.359564781188965 -2.496161937713623 -2.5
-15.108930587768555 -3.7240331172943115 -2.5
-14.760263442993164 -4.927695274353027 -2.5
-14.315878868103027 -6.099423885345459 -2.5
-10.779545783996582 -11.222695350646973 -2.5
-9.841527938842773 -12.053690910339355 -2.5
-6.655693054199219 -14.026611328125 -2.4942984580993652
-1.9089453220367432 -6.590458869934082 -1.1023250818252563
-1.3572264909744263 -6.648105144500732 -1.0900967121124268
-0.8419530987739563 -6.934140682220459 -1.12220299243927
2.9923486709594727 -14.65746021270752 -2.403398036956787
4.218447208404541 -14.56371021270752 -2.435941696166992
5.472846508026123 -14.430692672729492 -2.479523181915283
6.6612548828125 -14.038251876831055 -2.4963715076446533
8.839712142944336 -12.806513786315918 -2.5
10.779545783996582 -11.222684860229492 -2.5
12.440199851989746 -9.348193168640137 -2.5
14.315896034240723 -6.099413871765137 -2.5
8.474535942077637 -2.0887792110443115 -1.4022420644760132
10.90359878540039 -0.8802245855331421 -1.7574410438537598
-14.5310640335083 0.0 -2.5
-14.483930587768555 -1.1692577600479126 -2.5
-14.342880249023438 -2.330927610397339 -2.5
-13.783231735229492 -4.601523399353027 -2.5
-13.368261337280273 -5.69567346572876 -2.5
-12.86661148071289 -6.7529296875 -2.5
-12.281489372253418 -7.766357421875 -2.5
-11.616738319396973 -8.729423522949219 -2.5
-10.876660346984863 -9.635869026184082 -2.5
-9.19008731842041 -11.255820274353027 -2.5
-8.25455093383789 -11.958807945251465 -2.5
-7.265517234802246 -12.584257125854492 -2.5
-6.229340553283691 -13.12808609008789 -2.5
-2.5345165729522705 -6.682997703552246 -1.2296886444091797
-1.323207974433899 -6.481464862823486 -1.1381057500839233
-0.8031640648841858 -6.614687442779541 -1.1463863849639893
-0.5841211080551147 -14.495468139648438 -2.4959027767181396
0.5842089653015137 -14.496464729309082 -2.4960761070251465
2.905829906463623 -14.233642578125 -2.4993441104888916
4.042802810668945 -13.957324028015137 -2.5
5.152792930603027 -13.586767196655273 -2.5
6.22936487197876 -13.12807559967041 -2.5
8.254584312438965 -11.958818435668945 -2.5
10.8766450881958 -9.635869026184082 -2.5
11.616752624511719 -8.72940444946289 -2.5
12.281503677368164 -7.766347408294678 -2.5
12.86661148071289 -6.752910137176514 -2.5
13.368270874023438 -5.69567346572876 -2.5
8.53548812866211 -2.849550724029541 -1.5481643676757812
8.3643798828125 -2.0616209506988525 -1.4821209907531738
9.279481887817383 -1.508056640625 -1.6174368858337402
10.905644416809082 -0.8803905844688416 -1.8823691606521606
-13.581493377685547 -1.0963964462280273 -2.5
-13.229731559753418 -3.2608299255371094 -2.5
-12.06493091583252 -6.332167625427246 -2.5
-10.8929443359375 -8.185526847839355 -2.5
-9.438838005065918 -9.826865196228027 -2.5
-5.84121561050415 -12.3101167678833 -2.5
-1.3107177019119263 -6.420302391052246 -1.2022753953933716
0.548657238483429 -13.614628791809082 -2.5
1.6423925161361694 -13.526317596435547 -2.5
2.7255029678344727 -13.350292205810547 -2.5
3.790908098220825 -13.087685585021973 -2.5
4.831728458404541 -12.740214347839355 -2.5
8.617499351501465 -10.5545015335083 -2.5
9.438838005065918 -9.826865196228027 -2.5
10.892958641052246 -8.185507774353027 -2.5
8.494619369506836 -2.8359081745147705 -1.6431310176849365
8.300732612609863 -2.0459375381469727 -1.5685752630233765
9.253192901611328 -1.5037890672683716 -1.7200241088867188
10.903910636901855 -0.8802539110183716 -2.007127285003662
-12.823447227478027 9.765624781721272e-06 -2.5
-12.7818603515625 -1.031835913658142 -2.5
-12.657397270202637 -2.057021379470825 -2.5
-12.450824737548828 -3.06884765625 -2.5
-12.1635103225708 -4.060771465301514 -2.5
-10.838241577148438 -6.853681564331055 -2.5
-8.883119583129883 -9.248310089111328 -2.5
-8.110126495361328 -9.933115005493164 -2.5
-3.4228172302246094 -7.213447093963623 -1.5565885305404663
-2.373095750808716 -6.257343769073486 -1.304688811302185
-1.8307127952575684 -6.32034158706665 -1.2828326225280762
-0.7802050709724426 -6.425556659698486 -1.2618991136550903
-0.5163427591323853 -12.8130464553833 -2.5
4.547260761260986 -11.990117073059082 -2.5
5.497323989868164 -11.585331916809082 -2.5
6.411728382110596 -11.105420112609863 -2.5
7.284560203552246 -10.553476333618164 -2.5
8.8831148147583 -9.248300552368164 -2.5
9.598485946655273 -8.50350570678711 -2.5
10.251615524291992 -7.703583717346191 -2.5
8.284253120422363 -2.041874885559082 -1.6633944511413574
9.227313995361328 -1.4995898008346558 -1.8225153684616089
10.895273208618164 -0.8795507550239563 -2.131002426147461
-12.068251609802246 -0.9742480516433716 -2.5
-11.950727462768555 -1.942177653312683 -2.5
-11.13866138458252 -4.745741844177246 -2.5
-10.720673561096191 -5.626650333404541 -2.5
-9.062602043151855 -8.028769493103027 -2.5
-8.387177467346191 -8.731963157653809 -2.5
-1.8183202743530273 -6.277558326721191 -1.3494949340820312
0.2963330149650574 -7.353212833404541 -1.51954984664917
1.4594091176986694 -12.019218444824219 -2.5
3.3685302734375 -11.629472732543945 -2.5
8.387163162231445 -8.731963157653809 -2.5
9.062602043151855 -8.028759956359863 -2.5
10.233159065246582 -6.471035003662109 -2.5
10.720673561096191 -5.626640319824219 -2.5
8.471166610717773 -2.8280858993530273 -1.8440574407577515
8.267763137817383 -2.0378026962280273 -1.7582470178604126
9.216259956359863 -1.4977831840515137 -1.9279721975326538
-11.464521408081055 9.765624781721272e-06 -2.5
-11.42733383178711 -0.92249995470047 -2.5
-11.316049575805664 -1.8390331268310547 -2.5
-10.547109603881836 -4.493691444396973 -2.5
-7.250678539276123 -8.880468368530273 -2.5
-4.415444374084473 -6.396874904632568 -1.6949654817581177
-2.952036142349243 -6.221289157867432 -1.5016225576400757
-1.8060449361801147 -6.235185623168945 -1.415560007095337
-1.2835400104522705 -6.287197113037109 -1.3992913961410522
-0.768505871295929 -6.329247951507568 -1.3903206586837769
2.293203115463257 -11.23281192779541 -2.5
3.189638614654541 -11.011855125427246 -2.5
4.914775371551514 -10.357617378234863 -2.5
5.732260704040527 -9.928544998168945 -2.5
6.512597560882568 -9.435087203979492 -2.5
7.250683307647705 -8.88045883178711 -2.5
7.941747665405273 -8.268232345581055 -2.5
8.581317901611328 -7.602372646331787 -2.5
9.165224075317383 -6.887197017669678 -2.5
10.151323318481445 -5.327812194824219 -2.5
10.547128677368164 -4.493700981140137 -2.5
8.248330116271973 -2.033017635345459 -1.8524956703186035
9.218291282653809 -1.4981054067611694 -2.036550760269165
11.11754322052002 -0.8974902033805847 -2.4322245121002197
-10.883706092834473 0.0 -2.5
-10.84841251373291 -0.8757714629173279 -2.5
-10.74276351928711 -1.745849609375 -2.5
-10.567436218261719 -2.6046385765075684 -2.5
-9.198798179626465 -5.816972732543945 -2.5
-8.146567344665527 -7.217236042022705 -2.5
-6.883349418640137 -8.43057632446289 -2.5
-4.225028991699219 -6.121005535125732 -1.7084206342697144
-3.5308592319488525 -6.115624904632568 -1.6220858097076416
-1.7938719987869263 -6.193173885345459 -1.4810526371002197
-1.274623990058899 -6.243515491485596 -1.463723063468933
1.3118896484375 -10.80434513092041 -2.5
3.0280418395996094 -10.453984260559082 -2.5
4.665766716003418 -9.832870483398438 -2.5
6.883354187011719 -8.43056583404541 -2.5
9.198798179626465 -5.816953182220459 -2.5
9.637041091918945 -5.057900428771973 -2.5
8.460429191589355 -2.8245019912719727 -2.048811197280884
10.848417282104492 -0.8757616877555847 -2.5
-10.356362342834473 0.0 -2.5
-10.322772979736328 -0.8333300352096558 -2.5
-9.527631759643555 -4.059345722198486 -2.5
-9.170092582702637 -4.812831878662109 -2.5
-8.279315948486328 -6.221503734588623 -2.5
-7.7518310546875 -6.867538928985596 -2.5
-4.136054515838623 -5.992109298706055 -1.7576076984405518
-1.7817968130111694 -6.151503562927246 -1.5459970235824585
-1.2657811641693115 -6.2001953125 -1.5275872945785522
-0.7571679353713989 -6.235810279846191 -1.5163668394088745
0.26085448265075684 -6.472763538360596 -1.5637801885604858
1.248329997062683 -10.280839920043945 -2.5
2.8813230991363525 -9.947470664978027 -2.5
5.178178787231445 -8.968856811523438 -2.5
5.883076190948486 -8.52310562133789 -2.5
6.54983377456665 -8.022079467773438 -2.5
7.17410135269165 -7.469013690948486 -2.5
7.751845359802246 -6.867538928985596 -2.5
8.75308609008789 -5.535107135772705 -2.5
9.1701021194458 -4.812831878662109 -2.5
-9.8753023147583 9.765624781721272e-06 -2.5
-9.0850830078125 -3.870790958404541 -2.5
-8.346513748168945 -5.278017520904541 -2.5
-7.894731044769287 -5.932509422302246 -2.5
-6.840873718261719 -7.122089862823486 -2.5
-6.245585918426514 -7.64944314956665 -2.5
-1.2586767673492432 -6.165410041809082 -1.5930086374282837
0.2560058534145355 -6.352548599243164 -1.6094976663589478
1.975317358970642 -9.675712585449219 -2.5
2.747490167617798 -9.485380172729492 -2.5
3.501835823059082 -9.23355484008789 -2.5
4.233476638793945 -8.921835899353027 -2.5
5.609819412231445 -8.127197265625 -2.5
6.245595455169678 -7.64944314956665 -2.5
6.840864181518555 -7.122079849243164 -2.5
7.391762733459473 -6.548525333404541 -2.5
8.744140625 -4.589277267456055 -2.5
9.206767082214355 -3.073662042617798 -2.457213878631592
8.271254539489746 -2.0386717319488525 -2.1565916538238525
-9.434609413146973 9.765624781721272e-06 -2.5
-9.160449028015137 -2.257861375808716 -2.5
-8.949067115783691 -2.9876365661621094 -2.5
-8.353920936584473 -4.384472370147705 -2.5
-7.542421817779541 -5.667763710021973 -2.5
-7.061899185180664 -6.256298542022705 -2.5
-6.535575866699219 -6.804247856140137 -2.5
-4.125224590301514 -5.976416110992432 -1.924269199371338
-3.483842611312866 -6.0341796875 -1.846309781074524
-2.8460545539855957 -5.997939109802246 -1.7591946125030518
-2.2917137145996094 -6.04275369644165 -1.7125078439712524
-1.7645117044448853 -6.091796875 -1.6805692911148071
-1.2534277439117432 -6.139687538146973 -1.6604669094085693
-0.7500683665275574 -6.177324295043945 -1.648903727531433
-0.25120115280151367 -6.233613014221191 -1.6531366109848022
0.2542089819908142 -6.308036804199219 -1.6728767156600952
1.8871679306030273 -9.243926048278809 -2.5
4.717309474945068 -8.170595169067383 -2.5
5.359467506408691 -7.764511585235596 -2.5
5.966875076293945 -7.308075904846191 -2.5
7.061899185180664 -6.256298542022705 -2.5
7.542436122894287 -5.66775369644165 -2.5
7.974042892456055 -5.042470455169678 -2.5
8.35390567779541 -4.384472370147705 -2.5
8.679638862609863 -3.6980369091033936 -2.5
9.312426567077637 -1.5134081840515137 -2.5
-8.912353515625 -1.448388695716858 -2.5
-8.7669038772583 -2.160839796066284 -2.5
-8.56459903717041 -2.8592772483825684 -2.5
-6.758515357971191 -5.987519264221191 -2.5
-5.710532188415527 -6.994121074676514 -2.5
-3.430253744125366 -5.941367149353027 -1.8995184898376465
-2.8480663299560547 -6.002177715301514 -1.8394652605056763
-2.2866063117980957 -6.029286861419678 -1.7853951454162598
-1.7571288347244263 -6.066337585449219 -1.7486703395843506
-1.2480028867721558 -6.113124847412109 -1.7274975776672363
-0.24990233778953552 -6.201571941375732 -1.7184683084487915
1.8060888051986694 -8.846786499023438 -2.5
2.5121092796325684 -8.672773361206055 -2.5
3.201835870742798 -8.442519187927246 -2.5
3.870795726776123 -8.157489776611328 -2.5
5.129228591918945 -7.430947303771973 -2.5
6.254804611206055 -6.511923789978027 -2.5
6.758510589599609 -5.987509727478027 -2.5
7.631454944610596 -4.825829982757568 -2.5
7.995028972625732 -4.196103572845459 -2.5
8.306747436523438 -3.5391600131988525 -2.5
8.56459903717041 -2.859267473220825 -2.5
8.766908645629883 -2.160839796066284 -2.5
9.0 -0.7265429496765137 -2.5
-8.655160903930664 9.765624781721272e-06 -2.5
-8.62709903717041 -0.6964452862739563 -2.5
-8.403656959533691 -2.071298837661743 -2.5
-8.209721565246582 -2.7408103942871094 -2.5
-7.962563514709473 -3.392529249191284 -2.5
-7.663754940032959 -4.02224588394165 -2.5
-7.315253734588623 -4.625878810882568 -2.5
-6.91930627822876 -5.199521541595459 -2.5
-6.478481292724609 -5.739423751831055 -2.5
-5.47390604019165 -6.704287052154541 -2.5
-3.430253744125366 -5.941367149353027 -1.9816265106201172
-1.246987223625183 -6.108163833618164 -1.8007071018218994
-0.767285168170929 -6.319140434265137 -1.8386611938476562
-0.2494482398033142 -6.190116882324219 -1.7894375324249268
0.2529638707637787 -6.277177810668945 -1.814605712890625
1.7312597036361694 -8.480224609375 -2.5
2.408022403717041 -8.313417434692383 -2.5
3.7104148864746094 -7.819491863250732 -2.5
4.327582836151123 -7.495556354522705 -2.5
5.995639324188232 -6.242109298706055 -2.5
6.478486061096191 -5.739433288574219 -2.5
6.9193115234375 -5.199501991271973 -2.5
7.315253734588623 -4.625869274139404 -2.5
7.663759708404541 -4.02224588394165 -2.5
7.962563514709473 -3.392529249191284 -2.5
8.543075561523438 -1.388369083404541 -2.5
8.627089500427246 -0.6964355111122131 -2.5
-8.30868148803711 9.765624781721272e-06 -2.5
-8.28173828125 -0.6685644388198853 -2.5
-8.067245483398438 -1.9883886575698853 -2.5
-7.881083965301514 -2.6310839653015137 -2.5
-7.643818378448486 -3.256718635559082 -2.5
-6.219135761260986 -5.509667873382568 -2.5
-5.755624771118164 -5.992236137390137 -2.5
-5.254785060882568 -6.435946941375732 -2.5
-4.719872951507568 -6.837910175323486 -2.5
-2.8530125617980957 -6.012597560882568 -2.0024707317352295
-2.2915380001068115 -6.042284965515137 -1.9444209337234497
-1.2487059831619263 -6.116523265838623 -1.8783659934997559
-0.7448925375938416 -6.134755611419678 -1.8594497442245483
-0.2489892542362213 -6.178622722625732 -1.860598087310791
0.25248047709465027 -6.265028953552246 -1.8866180181503296
1.0015087127685547 -8.248095512390137 -2.5
3.5618748664855957 -7.506474494934082 -2.5
4.154345512390137 -7.195517539978027 -2.5
4.719872951507568 -6.837890625 -2.5
6.219140529632568 -5.509667873382568 -2.5
6.642309188842773 -4.991366863250732 -2.5
7.356972694396973 -3.8612303733825684 -2.5
7.881088733673096 -2.6310741901397705 -2.5
8.067245483398438 -1.988378882408142 -2.5
8.201088905334473 -1.332802653312683 -2.5
8.28173828125 -0.6685546636581421 -2.5
-7.98681640625 9.765624781721272e-06 -2.5
-7.575786113739014 -2.529179573059082 -2.5
-7.071972370147705 -3.7116503715515137 -2.5
-6.750375747680664 -4.268671989440918 -2.5
-6.38500452041626 -4.798017501831055 -2.5
-5.978212833404541 -5.296230316162109 -2.5
-5.532670974731445 -5.760117053985596 -2.5
-2.8560400009155273 -6.018974304199219 -2.0853798389434814
-2.294018507003784 -6.048828125 -2.0249698162078857
0.9627050757408142 -7.928564071655273 -2.5
2.2220799922943115 -7.671464443206787 -2.5
2.832167863845825 -7.467782974243164 -2.5
3.423906087875366 -7.215673446655273 -2.5
4.537035942077637 -6.573007583618164 -2.5
5.051230430603027 -6.186611175537109 -2.5
7.347704887390137 -3.130556583404541 -2.5
7.575780868530273 -2.5291600227355957 -2.5
7.754726409912109 -1.9113574028015137 -2.5
-7.686962604522705 9.765624781721272e-06 -2.5
-7.587421894073486 -1.2330663204193115 -2.5
-7.463603496551514 -1.8396190404891968 -2.5
-7.291367053985596 -2.434208869934082 -2.5
-6.806469440460205 -3.5723047256469727 -2.5
-6.49694299697876 -4.108407974243164 -2.5
-6.145283222198486 -4.617880821228027 -2.5
-5.324951171875 -5.543857097625732 -2.5
-3.430253744125366 -5.941367149353027 -2.231215715408325
-2.8670995235443115 -6.042284965515137 -2.1751136779785156
-2.296518564224243 -6.055429458618164 -2.1062541007995605
-0.24927733838558197 -6.185741901397705 -2.0133981704711914
0.9265673756599426 -7.630908012390137 -2.5
1.53759765625 -7.531601428985596 -2.5
2.1386523246765137 -7.383456707000732 -2.5
3.295356273651123 -6.944775104522705 -2.5
3.8434863090515137 -6.657109260559082 -2.5
5.324946403503418 -5.543847560882568 -2.5
5.753774166107178 -5.097392559051514 -2.5
6.806469440460205 -3.5723047256469727 -2.5
7.291367053985596 -2.434208869934082 -2.5
7.463598251342773 -1.8396093845367432 -2.5
-7.382861137390137 -0.5960058569908142 -2.5
-7.191640377044678 -1.7725683450698853 -2.5
-7.025693416595459 -2.345507860183716 -2.5
-6.260219573974609 -3.9587206840515137 -2.5
-5.921367168426514 -4.449618816375732 -2.5
-5.544135570526123 -4.91165018081665 -2.5
-5.130927562713623 -5.341845512390137 -2.5
-4.6844482421875 -5.737392425537109 -2.5
-3.1752734184265137 -6.691738128662109 -2.5
-2.314077138900757 -6.101728439331055 -2.2026190757751465
-1.2535839080810547 -6.140449047088623 -2.1153006553649902
-0.24947264790534973 -6.190820217132568 -2.0912513732910156
1.4815673828125 -7.257177352905273 -2.5
2.626523494720459 -6.925537109375 -2.5
4.207582950592041 -6.095722675323486 -2.5
5.544120788574219 -4.911660194396973 -2.5
6.260214805603027 -3.9587109088897705 -2.5
7.025683403015137 -2.345517635345459 -2.5
7.19164514541626 -1.7725683450698853 -2.5
7.310961723327637 -1.1881444454193115 -2.5
7.382856369018555 -0.595996081829071 -2.5
-7.144594669342041 1.9531249563442543e-05 -2.5
-6.936982154846191 -1.709804654121399 -2.5
-6.038530349731445 -3.818535089492798 -2.5
-5.711689472198486 -4.292060375213623 -2.5
-4.949238300323486 -5.152685642242432 -2.5
-4.058588981628418 -5.8798828125 -2.5
-3.430253744125366 -5.941367149353027 -2.400597095489502
-3.0628368854522705 -6.454775333404541 -2.5
-2.533505916595459 -6.680302619934082 -2.5
-1.257592797279358 -6.160117149353027 -2.199978828430176
-0.7448925375938416 -6.134755611419678 -2.1624155044555664
0.2876953184604645 -7.138779163360596 -2.5
0.8611913919448853 -7.092490196228027 -2.5
1.9877440929412842 -6.862499713897705 -2.5
3.5722997188568115 -6.187392234802246 -2.5
4.05859375 -5.879872798919678 -2.5
4.518574237823486 -5.534228324890137 -2.5
5.711689472198486 -4.292050838470459 -2.5
6.038544654846191 -3.8185253143310547 -2.5
6.326215744018555 -3.320244073867798 -2.5
6.776904106140137 -2.262460947036743 -2.5
6.936982154846191 -1.709804654121399 -2.5
7.121420860290527 -0.5748925805091858 -2.5
-6.876049518585205 -0.5550780892372131 -2.5
-6.543403148651123 -2.184501886367798 -2.5
-5.830463886260986 -3.686904191970825 -2.5
-5.163535118103027 -4.574482440948486 -2.5
-4.362875938415527 -5.34353494644165 -2.5
-3.9187450408935547 -5.677285194396973 -2.5
-2.9572949409484863 -6.232372760772705 -2.5
-0.7448925375938416 -6.134755611419678 -2.23958420753479
0.8315185308456421 -6.848105430603027 -2.5
1.3798632621765137 -6.758984088897705 -2.5
1.9192724227905273 -6.626035213470459 -2.5
2.446225643157959 -6.450107097625732 -2.5
2.9573094844818115 -6.232363224029541 -2.5
3.9187450408935547 -5.677265644073486 -2.5
5.83047342300415 -3.686953067779541 -2.5
6.108242034912109 -3.2058398723602295 -2.5
6.543398380279541 -2.184501886367798 -2.5
-6.580517292022705 -1.069433569908142 -2.5
-6.323744773864746 -2.1111717224121094 -2.5
-6.133359432220459 -2.613173723220825 -2.5
-5.9031982421875 -3.0982322692871094 -2.5
-5.634750843048096 -3.5631933212280273 -2.5
-4.216411113739014 -5.164150238037109 -2.5
-2.364091634750366 -6.233583927154541 -2.5
-1.854824185371399 -6.403613090515137 -2.5
-0.7448925375938416 -6.134755611419678 -2.3173747062683105
0.8036083579063416 -6.618222713470459 -2.5
1.8548437356948853 -6.403603553771973 -2.5
3.7872068881988525 -5.486689567565918 -2.5
4.618281364440918 -4.808125019073486 -2.5
4.990204811096191 -4.42092752456665 -2.5
5.329765319824219 -4.005048751831055 -2.5
5.634750843048096 -3.563183546066284 -2.5
6.133359432220459 -2.6131834983825684 -2.5
6.323740005493164 -2.1111717224121094 -2.5
6.473119735717773 -1.5954687595367432 -2.5
6.580512523651123 -1.069423794746399 -2.5
-6.365058422088623 -1.0344140529632568 -2.5
-6.261181354522705 -1.5432324409484863 -2.5
-5.932548522949219 -2.5276269912719727 -2.5
-5.709921836853027 -2.9967870712280273 -2.5
-5.450253963470459 -3.446533203125 -2.5
-5.155253887176514 -3.873915910720825 -2.5
-4.826821327209473 -4.276181697845459 -2.5
-4.467074871063232 -4.650712966918945 -2.5
-4.078369140625 -4.995087623596191 -2.5
-3.6631932258605957 -5.307060241699219 -2.5
-3.2242772579193115 -5.584609031677246 -2.5
-2.764453172683716 -5.825947284698486 -2.5
-2.286694288253784 -6.029511451721191 -2.5
0.2596728503704071 -6.443329811096191 -2.5
1.2898876667022705 -6.31823205947876 -2.5
1.7941112518310547 -6.193954944610596 -2.5
3.2242870330810547 -5.584609031677246 -2.5
3.663203001022339 -5.307050704956055 -2.5
4.078369140625 -4.995087623596191 -2.5
4.467080116271973 -4.650712966918945 -2.5
4.826826095581055 -4.276181697845459 -2.5
5.932548522949219 -2.5276074409484863 -2.5
6.11669397354126 -2.042060613632202 -2.5
6.261176586151123 -1.5432324409484863 -2.5
6.427651405334473 -0.5188769698143005 -2.5
-6.242421627044678 1.9531249563442543e-05 -2.5
-6.222182273864746 -0.5022948980331421 -2.5
-6.161591529846191 -1.0013378858566284 -2.5
-6.061025142669678 -1.4939062595367432 -2.5
-5.276025295257568 -3.336357355117798 -2.5
-4.672524452209473 -4.139482498168945 -2.5
-4.324282169342041 -4.502050876617432 -2.5
-1.7367479801177979 -5.995956897735596 -2.5
-1.2486523389816284 -6.116250038146973 -2.5
0.2513720691204071 -6.237353324890137 -2.5
0.7524462938308716 -6.19689416885376 -2.5
1.7367626428604126 -5.995937347412109 -2.5
2.2136034965515137 -5.836748123168945 -2.5
3.121220588684082 -5.406074047088623 -2.5
4.672519207000732 -4.139472484588623 -2.5
5.742905139923096 -2.4468066692352295 -2.5
6.222182273864746 -0.5023046731948853 -2.5
-6.027773380279541 -0.4866015613079071 -2.5
-5.969077110290527 -0.9700683355331421 -2.5
-5.736152172088623 -1.9149999618530273 -2.5
-5.354687213897705 -2.810351610183716 -2.5
-5.111176490783691 -3.232119083404541 -2.5
-4.834526062011719 -3.6329197883605957 -2.5
-4.189159870147705 -4.361367225646973 -2.5
-3.824638605117798 -4.684316158294678 -2.5
-3.435302734375 -4.976884841918945 -2.5
-2.592465877532959 -5.463496208190918 -2.5
-2.144423723220825 -5.654384613037109 -2.5
-1.209619164466858 -5.925156116485596 -2.5
-0.2435009777545929 -6.042470455169678 -2.5
0.7289404273033142 -6.003271579742432 -2.5
1.6824951171875 -5.808603286743164 -2.5
2.592470645904541 -5.463486194610596 -2.5
3.435302734375 -4.976874828338623 -2.5
4.189169883728027 -4.361367225646973 -2.5
4.526533126831055 -4.010146617889404 -2.5
4.834536075592041 -3.6329002380371094 -2.5
5.354687213897705 -2.810351610183716 -2.5
6.027763366699219 -0.4866015613079071 -2.5
-5.786601543426514 -0.9404101371765137 -2.5
-5.393403053283691 -2.297910213470459 -2.5
-4.061113357543945 -4.22805643081665 -2.5
-3.7077245712280273 -4.541142463684082 -2.5
-2.931269407272339 -5.077089786529541 -2.5
-2.078871965408325 -5.481552600860596 -2.5
-1.1726561784744263 -5.744042873382568 -2.5
-0.2360546886920929 -5.857753753662109 -2.5
0.23605956137180328 -5.857753753662109 -2.5
0.7066503763198853 -5.819765567779541 -2.5
1.172646403312683 -5.744042873382568 -2.5
1.6310546398162842 -5.631044864654541 -2.5
2.513232469558716 -5.296484470367432 -2.5
2.931269407272339 -5.077079772949219 -2.5
4.061108112335205 -4.228046894073486 -2.5
5.191000938415527 -2.724433422088623 -2.5
5.393398284912109 -2.297900438308716 -2.5
-5.668583869934082 -0.4576074182987213 -2.5
-5.613373756408691 -0.91224604845047 -2.5
-5.521772384643555 -1.3609960079193115 -2.5
-5.394345760345459 -1.8008886575698853 -2.5
-5.231953144073486 -2.229120969772339 -2.5
-4.806611061096191 -3.0395116806030273 -2.5
-4.546445369720459 -3.4164257049560547 -2.5
-4.256801605224609 -3.771191358566284 -2.5
-3.9395458698272705 -4.101493835449219 -2.5
-3.230595588684082 -4.680322170257568 -2.5
0.6854931712150574 -5.645546913146973 -2.5
1.1375536918640137 -5.572089672088623 -2.5
1.5822265148162842 -5.462480545043945 -2.5
2.843505859375 -4.925097465515137 -2.5
3.230605363845825 -4.680322170257568 -2.5
3.596733331680298 -4.405185222625732 -2.5
4.256801605224609 -3.771181583404541 -2.5
4.806621074676514 -3.039501905441284 -2.5
5.035614967346191 -2.642880916595459 -2.5
5.231943130493164 -2.229120969772339 -2.5
5.521772384643555 -1.360986351966858 -2.5
5.613373756408691 -0.9122558236122131 -2.5
5.668588638305664 -0.4576074182987213 -2.5
-5.520155906677246 9.765624781721272e-06 -2.5
-5.502270221710205 -0.4441894292831421 -2.5
-5.359755516052246 -1.321044921875 -2.5
-5.236073970794678 -1.748046875 -2.5
-5.078437328338623 -2.163710832595825 -2.5
-4.887861251831055 -2.5653417110443115 -2.5
-4.665590763092041 -2.950331926345825 -2.5
-4.413046836853027 -3.3161914348602295 -2.5
-3.4912109375 -4.275937557220459 -2.5
-2.760077953338623 -4.780595779418945 -2.5
-1.9574755430221558 -5.161425590515137 -2.5
-1.5358006954193115 -5.302206993103027 -2.5
0.6653808355331421 -5.479902267456055 -2.5
1.9574657678604126 -5.161435604095459 -2.5
2.366445302963257 -4.987177848815918 -2.5
2.760073184967041 -4.780595779418945 -2.5
3.135810375213623 -4.542988300323486 -2.5
3.8239500522613525 -3.981152296066284 -2.5
4.131904125213623 -3.6605467796325684 -2.5
4.413061618804932 -3.316171884536743 -2.5
4.665595531463623 -2.950331926345825 -2.5
4.887861251831055 -2.5653417110443115 -2.5
5.078442096710205 -2.163701057434082 -2.5
5.502260684967041 -0.44416990876197815 -2.5
-5.361269474029541 0.0 -2.5
-5.343886375427246 -0.4314062297344208 -2.5
-5.291840553283691 -0.85999995470047 -2.5
-5.20547342300415 -1.2830272912979126 -2.5
-5.085366249084473 -1.6977343559265137 -2.5
-4.747172832489014 -2.491503953933716 -2.5
-4.531289100646973 -2.865410089492798 -2.5
-4.286025524139404 -3.2207324504852295 -2.5
-4.012963771820068 -3.555166006088257 -2.5
-3.713876962661743 -3.8665428161621094 -2.5
-3.3907225131988525 -4.152871131896973 -2.5
-1.491601586341858 -5.149589538574219 -2.5
-1.0723974704742432 -5.252910137176514 -2.5
-0.2158789038658142 -5.356914043426514 -2.5
0.6462304592132568 -5.322167873382568 -2.5
1.0723828077316284 -5.252919673919678 -2.5
1.4915966987609863 -5.149589538574219 -2.5
1.9011328220367432 -5.012861251831055 -2.5
2.298330068588257 -4.843632698059082 -2.5
3.3907177448272705 -4.152851581573486 -2.5
3.713876962661743 -3.8665525913238525 -2.5
5.085361003875732 -1.6977343559265137 -2.5
5.205483436584473 -1.2830272912979126 -2.5
