ply
format ascii 1.0
element vertex 849
property float x
property float y
property float z
end_header
-1.153540015220642 28.624467849731445 7.676122665405273
-6.359633445739746 13.402694702148438 3.9750237464904785
-13.848417282104492 23.986122131347656 7.421329021453857
-16.022329330444336 23.212270736694336 7.557511329650879
-18.188188552856445 22.276473999023438 7.705812931060791
-5.488178730010986 26.8828125 7.026877403259277
-7.531054496765137 26.000150680541992 6.932522296905518
-6.357177734375 13.3975191116333 3.797874689102173
-13.909042358398438 24.091136932373047 7.124392032623291
-16.022319793701172 23.2122745513916 7.223498344421387
-3.3750391006469727 27.795839309692383 6.841274261474609
-7.531054496765137 26.000150680541992 6.613775253295898
-9.578783988952637 25.25716781616211 6.600010395050049
-6.35473108291626 13.392377853393555 3.62186336517334
-16.022308349609375 23.212284088134766 6.8913750648498535
-6.352309226989746 13.3872652053833 3.446937084197998
-3.4647607803344727 28.5347900390625 6.35159158706665
-5.651523113250732 27.682952880859375 6.243220806121826
-9.88277816772461 26.058734893798828 6.158339500427246
-6.349902153015137 13.382182121276855 3.2730424404144287
-18.125 22.199081420898438 6.332635402679443
-5.653901100158691 27.694602966308594 5.918111324310303
-7.758466720581055 26.785282135009766 5.838644981384277
-9.867749214172363 26.01909637451172 5.826320171356201
-16.02284049987793 23.213031768798828 5.905576705932617
-9.88277816772461 26.058734893798828 5.513556003570557
-6.345117092132568 13.37210464477539 2.9281444549560547
-14.013690948486328 24.272401809692383 5.544722557067871
-16.02284049987793 23.213031768798828 5.580054759979248
-3.4769628047943115 28.635194778442383 5.375131130218506
-9.88277816772461 26.05872917175293 5.193318843841553
-14.013690948486328 24.272401809692383 5.2226762771606445
-16.02284049987793 23.213031768798828 5.255955696105957
-18.188779830932617 22.27718734741211 5.359090328216553
19.844085693359375 12.548676490783691 4.1064300537109375
-3.4769482612609863 28.635194778442383 5.045050144195557
-5.653896331787109 27.694602966308594 4.94366455078125
-9.882787704467773 26.05872917175293 4.87440299987793
-6.340385437011719 13.3621187210083 2.5867717266082764
-14.013686180114746 24.27240753173828 4.901956558227539
-16.02284049987793 23.213031768798828 4.933192729949951
-3.4769580364227295 28.635194778442383 4.716245651245117
-5.653901100158691 27.694602966308594 4.621469497680664
-9.88277816772461 26.058734893798828 4.55672025680542
-6.338032245635986 13.357172966003418 2.4172863960266113
-14.013690948486328 24.272401809692383 4.582479000091553
-16.02284049987793 23.213031768798828 4.61168098449707
-1.1937255859375 29.6216983795166 4.510383129119873
-3.4769482612609863 28.635194778442383 4.388633728027344
-9.762319564819336 25.741092681884766 4.188504695892334
-13.837221145629883 23.966747283935547 4.210461139678955
-18.188779830932617 22.27718734741211 4.3755364418029785
-1.1874462366104126 29.46587371826172 4.152852535247803
-5.653901100158691 27.694602966308594 3.9804911613464355
-13.925302505493164 24.119306564331055 3.922013521194458
-16.02284049987793 23.213031768798828 3.972059965133667
-1.1937255859375 29.6216983795166 3.8402891159057617
-6.331035137176514 13.342435836791992 1.9130746126174927
-13.925302505493164 24.119306564331055 3.6077446937561035
-18.18876838684082 22.27718734741211 3.725475311279297
21.80103302001953 9.288549423217773 2.8030974864959717
-3.4769678115844727 28.635189056396484 3.4120678901672363
-5.653901100158691 27.694602966308594 3.3434972763061523
-9.839961051940918 25.945804595947266 3.2823686599731445
-6.328725337982178 13.337563514709473 1.7462682723999023
-16.022851943969727 23.21302604675293 3.336416006088257
-18.18876838684082 22.27718734741211 3.401883363723755
-1.1937353610992432 29.6216983795166 3.174028158187866
-5.653901100158691 27.694602966308594 3.0262866020202637
-18.188779830932617 22.27718734741211 3.079134464263916
-3.4769530296325684 28.635194778442383 2.76540470123291
-5.653901100158691 27.694602966308594 2.709831476211548
-16.022851943969727 23.21302604675293 2.704092264175415
-1.1937353610992432 29.6216983795166 2.5109245777130127
-5.653901100158691 27.694602966308594 2.3940484523773193
-7.758466720581055 26.785282135009766 2.3619039058685303
-14.01370620727539 24.27240753173828 2.3738532066345215
-1.1937255859375 29.6216983795166 2.180347204208374
-3.4769580364227295 28.635194778442383 2.121492862701416
-6.319550514221191 13.31820297241211 1.0841878652572632
-1.1937353610992432 29.6216983795166 1.8503081798553467
-3.4769482612609863 28.635194778442383 1.800362229347229
-5.653901100158691 27.694602966308594 1.764182448387146
-9.88277816772461 26.058734893798828 1.7394652366638184
-14.013690948486328 24.27240753173828 1.7492992877960205
-16.02284049987793 23.213031768798828 1.7604458332061768
0.708984375 17.593759536743164 0.9032345414161682
-7.758476257324219 26.785282135009766 1.430470585823059
-9.820448875427246 25.894365310668945 1.4206085205078125
-13.92529296875 24.119300842285156 1.4286389350891113
-3.4578709602355957 28.478017807006836 1.1529889106750488
-7.715883731842041 26.638261795043945 1.114648461341858
-6.312714576721191 13.303828239440918 0.5918465852737427
-13.84371566772461 23.978012084960938 1.1128076314926147
-16.022851943969727 23.21302604675293 1.1336486339569092
-18.08893585205078 22.154911041259766 1.1495486497879028
2.132578134536743 17.563446044921875 0.5147979855537415
-1.1937255859375 29.6216983795166 0.8626006841659546
-3.4769580364227295 28.635194778442383 0.8393157720565796
-5.646274089813232 27.657255172729492 0.8213406205177307
-7.758466720581055 26.785282135009766 0.8114058971405029
-9.839950561523438 25.945810317993164 0.8074123859405518
-6.310444355010986 13.299042701721191 0.42831480503082275
-16.022851943969727 23.21302604675293 0.8207070827484131
0.708984375 17.59376335144043 0.31710904836654663
-1.1937353610992432 29.6216983795166 0.533896803855896
-6.308178424835205 13.294261932373047 0.265005499124527
-18.188779830932617 22.27718734741211 0.5179348587989807
-7.758466720581055 26.785282135009766 0.19313842058181763
-13.977797508239746 24.21021842956543 0.19361785054206848
-18.188779830932617 22.27718734741211 0.1991857886314392
0.708984375 17.593759536743164 -0.0731712356209755
-1.1937353610992432 29.6216983795166 -0.12319763004779816
-3.4769482612609863 28.635194778442383 -0.11987213045358658
-9.839950561523438 25.945810317993164 -0.11531554907560349
-18.188779830932617 22.27718734741211 -0.11951430886983871
-1.1937353610992432 29.6216983795166 -0.4517461955547333
-3.4769482612609863 28.635194778442383 -0.43955230712890625
-7.758466720581055 26.785282135009766 -0.42493560910224915
-6.3013916015625 13.279979705810547 -0.22398772835731506
-16.02284049987793 23.213031768798828 -0.42980682849884033
2.1325879096984863 17.563446044921875 -0.46574124693870544
0.708984375 17.593759536743164 -0.463519424200058
-3.4769482612609863 28.635194778442383 -0.7593401670455933
-5.646274089813232 27.657255172729492 -0.7430770993232727
-7.758466720581055 26.785282135009766 -0.7340894937515259
-9.867114067077637 26.017446517944336 -0.7324932813644409
-13.977797508239746 24.21021842956543 -0.7359133958816528
-16.02284049987793 23.213031768798828 -0.7425045371055603
-18.18876838684082 22.27718734741211 -0.757074236869812
2.132578134536743 17.563446044921875 -0.6620023846626282
-1.1937353610992432 29.6216983795166 -1.1092642545700073
-3.4769580364227295 28.635194778442383 -1.0793217420578003
-7.758466720581055 26.785282135009766 -1.0434304475784302
-6.296884536743164 13.270453453063965 -0.5496084690093994
-18.18876838684082 22.27718734741211 -1.0761007070541382
5.240195274353027 18.091312408447266 -0.91385817527771
2.132578134536743 17.563446044921875 -0.8584244847297668
0.708984375 17.593759536743164 -0.8543292284011841
-5.630649089813232 27.580760955810547 -1.365802526473999
-9.773256301879883 25.769954681396484 -1.3372399806976318
-15.955810546875 23.115907669067383 -1.362809419631958
-18.12492561340332 22.198978424072266 -1.3904900550842285
5.240190505981445 18.09130859375 -1.1231895685195923
3.297441244125366 16.151996612548828 -0.9830630421638489
-16.02284049987793 23.213031768798828 -1.682015299797058
-18.18876838684082 22.27718734741211 -1.7150204181671143
5.240195274353027 18.091312408447266 -1.332797646522522
3.2715721130371094 16.025238037109375 -1.1573666334152222
-2.3707714080810547 19.525033950805664 -1.3917772769927979
-5.653911113739014 27.694599151611328 -2.0001466274261475
-9.820444107055664 25.89436912536621 -1.9596853256225586
-13.977797508239746 24.21021842956543 -1.9781917333602905
-16.022851943969727 23.21302604675293 -1.995910406112671
-18.188779830932617 22.27718734741211 -2.0350749492645264
18.126720428466797 22.20121955871582 -2.347599983215332
10.1634521484375 26.79886245727539 -2.347599983215332
5.240195274353027 18.091312408447266 -1.5427345037460327
3.267519474029541 16.005395889282227 -1.338012933731079
-2.370781183242798 19.52503776550293 -1.611006736755371
-7.758466720581055 26.785282135009766 -2.284114360809326
-13.75661563873291 23.82712745666504 -2.2535555362701416
-18.12676239013672 22.201234817504883 -2.347599983215332
-19.85443878173828 20.670644760131836 -2.347599983215332
-22.913124084472656 17.218109130859375 -2.347599983215332
26.86016082763672 3.9062499126885086e-05 -2.5
26.773061752319336 2.161367177963257 -2.5
26.512325286865234 4.308686256408691 -2.5
24.710779190063477 10.528310775756836 -2.5
23.783483505249023 12.482558250427246 -2.5
18.87950325012207 16.725811004638672 -2.347599983215332
17.472415924072266 18.19072723388672 -2.347599983215332
15.952028274536133 19.537700653076172 -2.347599983215332
12.611376762390137 21.843568801879883 -2.347599983215332
8.944101333618164 23.583709716796875 -2.347599983215332
3.267519474029541 16.005395889282227 -1.5204218626022339
0.6150488257408142 15.262636184692383 -1.421716570854187
-0.6524609327316284 16.19039535522461 -1.5081374645233154
-2.370781183242798 19.52503776550293 -1.8306325674057007
-5.045175552368164 24.71304702758789 -2.347599983215332
-7.017412185668945 24.2269287109375 -2.347599983215332
-8.94412612915039 23.583696365356445 -2.347599983215332
-6.285575866699219 13.2466402053833 -1.364683985710144
-12.611371994018555 21.84355926513672 -2.347599983215332
-14.328168869018555 20.7579288482666 -2.347599983215332
-23.783475875854492 12.482553482055664 -2.5
-25.477840423583984 8.505746841430664 -2.5
23.97757339477539 2.9296874345163815e-05 -2.5
23.89984130859375 1.9294140338897705 -2.5
23.280847549438477 5.738227367401123 -2.5
22.743621826171875 7.592958927154541 -2.5
19.03024673461914 12.034003257751465 -2.347599983215332
16.853397369384766 14.930834770202637 -2.347599983215332
14.240087509155273 17.44095230102539 -2.347599983215332
10.690400123596191 15.487763404846191 -1.962148666381836
9.155595779418945 15.857993125915527 -1.9092034101486206
7.984238147735596 21.052762985229492 -2.347599983215332
3.267519474029541 16.005395889282227 -1.703206181526184
1.8908642530441284 15.572714805603027 -1.635599970817566
0.6150488257408142 15.262636184692383 -1.5926358699798584
-0.6524609327316284 16.190399169921875 -1.6894441843032837
-6.264316082000732 21.626937866210938 -2.347599983215332
-16.8533878326416 14.93080997467041 -2.347599983215332
-18.00017547607422 13.526249885559082 -2.347599983215332
-20.265625 12.815204620361328 -2.5
-21.2310791015625 11.142939567565918 -2.5
-23.280853271484375 5.738198280334473 -2.5
-23.667064666748047 3.8462986946105957 -2.5
21.64889907836914 1.9531249563442543e-05 -2.5
9.127997398376465 1.4834569692611694 -1.0679244995117188
21.019811630249023 5.180927753448486 -2.5
19.169139862060547 10.060761451721191 -2.5
16.25200080871582 12.212607383728027 -2.347599983215332
14.082511901855469 14.66146469116211 -2.347599983215332
12.85708999633789 15.74709415435791 -2.347599983215332
9.155595779418945 15.857988357543945 -2.114567756652832
8.714961051940918 18.36642074584961 -2.347599983215332
4.895361423492432 16.900815963745117 -2.0319180488586426
3.267524242401123 16.005395889282227 -1.886414647102356
1.8908642530441284 15.572724342346191 -1.8115339279174805
-5.655937194824219 19.52654266357422 -2.347599983215332
-7.208808422088623 19.008134841918945 -2.347599983215332
-6.28103494644165 13.237079620361328 -1.6919643878936768
-8.1781587600708 14.165034294128418 -1.8888195753097534
-12.8571138381958 15.747065544128418 -2.347599983215332
-14.08251953125 14.661455154418945 -2.347599983215332
-16.25202178955078 12.212592124938965 -2.347599983215332
-19.169139862060547 10.060751914978027 -2.5
-20.534770965576172 6.855507850646973 -2.5
-21.578691482543945 1.7420116662979126 -2.5
8.806113243103027 1.4311425685882568 -1.1305831670761108
10.463871955871582 2.5791258811950684 -1.365704894065857
18.149337768554688 7.732734203338623 -2.5
17.43846321105957 9.152436256408691 -2.4957356452941895
13.86642837524414 12.28458023071289 -2.347599983215332
12.832968711853027 13.360551834106445 -2.347599983215332
9.09341812133789 15.750292778015137 -2.304703950881958
7.941674709320068 16.736757278442383 -2.347599983215332
4.895361423492432 16.90081024169922 -2.229763984680176
1.8527636528015137 15.258886337280273 -1.9478617906570435
0.6150488257408142 15.262636184692383 -1.9357045888900757
-0.6311815977096558 15.6624116897583 -1.986406683921814
-3.7055859565734863 18.150957107543945 -2.347599983215332
-5.154116153717041 17.793935775756836 -2.347599983215332
-6.569179534912109 17.3215274810791 -2.347599983215332
-5.941054344177246 12.520483016967773 -1.7561990022659302
-6.985448837280273 12.099194526672363 -1.7704435586929321
-14.809980392456055 11.1289644241333 -2.347599983215332
-15.657465934753418 9.901185989379883 -2.347599983215332
-17.468265533447266 9.16805648803711 -2.5
-18.712718963623047 6.24722146987915 -2.5
-19.47249984741211 3.16460919380188 -2.5
18.11604881286621 2.9296874345163815e-05 -2.5
8.794057846069336 0.7099413871765137 -1.217521071434021
8.5685396194458 1.3925292491912842 -1.1979644298553467
10.041156768798828 2.474926710128784 -1.4271408319473267
17.183732986450195 5.736792087554932 -2.5
16.66639518737793 7.100913047790527 -2.5
16.022804260253906 8.409428596496582 -2.497168779373169
10.758964538574219 13.17735767364502 -2.347599983215332
9.663735389709473 14.000370979309082 -2.347599983215332
7.292773246765137 15.369237899780273 -2.347599983215332
6.032421588897705 15.906225204467773 -2.347599983215332
1.8353271484375 15.115326881408691 -2.1012206077575684
0.5993847250938416 14.873964309692383 -2.0542590618133545
-0.6311864852905273 15.662416458129883 -2.1631529331207275
-3.402783155441284 16.667909622192383 -2.347599983215332
-4.732924461364746 16.340078353881836 -2.347599983215332
-5.951728343963623 12.543036460876465 -1.9159047603607178
-10.7589693069458 13.177352905273438 -2.347599983215332
-13.599867820739746 10.2196626663208 -2.347599983215332
-16.04097557067871 8.418954849243164 -2.5
-17.183744430541992 5.736767292022705 -2.5
-17.589643478393555 4.33544921875 -2.5
-17.8814640045166 2.9060254096984863 -2.5
-18.05729866027832 1.4577441215515137 -2.5
16.743764877319336 2.9296874345163815e-05 -2.5
8.376728057861328 1.361367106437683 -1.2671334743499756
15.882064819335938 5.302231311798096 -2.5
14.817960739135742 7.777089595794678 -2.4986681938171387
12.569677352905273 9.44552230834961 -2.347599983215332
9.943974494934082 12.179179191589355 -2.347599983215332
6.740341663360596 14.205009460449219 -2.347599983215332
5.57546854019165 14.70131778717041 -2.347599983215332
4.374413967132568 15.102290153503418 -2.347599983215332
3.145014524459839 15.405317306518555 -2.347599983215332
-0.6311815977096558 15.662416458129883 -2.340441942214966
-4.374433517456055 15.102290153503418 -2.347599983215332
-5.57546854019165 14.701327323913574 -2.347599983215332
-5.951728343963623 12.543036460876465 -2.072929859161377
-6.985448837280273 12.099194526672363 -2.0859885215759277
-8.931703567504883 12.939847946166992 -2.347599983215332
-9.943984031677246 12.179160118103027 -2.347599983215332
-11.768877029418945 10.4263277053833 -2.347599983215332
-15.403910636901855 6.562997817993164 -2.5
-15.88206958770752 5.302202224731445 -2.5
-16.68946647644043 1.3473047018051147 -2.5
15.5610933303833 2.9296874345163815e-05 -2.5
8.199843406677246 1.332617163658142 -1.3346465826034546
9.496191024780273 2.3406152725219727 -1.5712896585464478
14.760255813598633 4.927704811096191 -2.5
10.937597274780273 9.689887046813965 -2.347599983215332
10.122416496276855 10.538569450378418 -2.347599983215332
9.241591453552246 11.318921089172363 -2.347599983215332
1.7613476514816284 14.505956649780273 -2.347599983215332
-4.890200138092041 12.894453048706055 -2.21555757522583
-11.681845664978027 8.77834415435791 -2.347599983215332
-13.77865219116211 7.231601238250732 -2.5
-14.31588363647461 6.099433422088623 -2.5
-14.760263442993164 4.927700042724609 -2.5
-15.510629653930664 1.2521483898162842 -2.5
14.531059265136719 2.9296874345163815e-05 -2.5
8.1307373046875 0.6563964486122131 -1.403406023979187
8.030835151672363 1.3051464557647705 -1.3997942209243774
13.368268966674805 5.69570779800415 -2.5
11.532816886901855 7.292939186096191 -2.347599983215332
9.452377319335938 9.840995788574219 -2.347599983215332
7.75137186050415 11.229828834533691 -2.347599983215332
6.822617053985596 11.81712818145752 -2.347599983215332
5.849599361419678 12.327807426452637 -2.347599983215332
4.838662147521973 12.758529663085938 -2.347599983215332
2.7293896675109863 13.369477272033691 -2.347599983215332
1.644741177558899 13.545751571655273 -2.347599983215332
0.5494531393051147 13.634203910827637 -2.347599983215332
-2.729384660720825 13.36949634552002 -2.347599983215332
-5.849609375 12.327812194824219 -2.347599983215332
-6.82262659072876 11.81712818145752 -2.347599983215332
-7.751391410827637 11.229814529418945 -2.347599983215332
-9.452397346496582 9.840991020202637 -2.347599983215332
-11.532821655273438 7.292924404144287 -2.347599983215332
-12.866605758666992 6.752919673919678 -2.5
-13.783246994018555 4.601523399353027 -2.5
-14.108808517456055 3.477494955062866 -2.5
-14.342870712280273 2.3309667110443115 -2.5
-14.483930587768555 1.1692675352096558 -2.5
13.625676155090332 2.9296874345163815e-05 -2.5
8.116215705871582 0.6552148461341858 -1.4939864873886108
7.95385217666626 1.2926366329193115 -1.478496789932251
9.177958488464355 2.2621726989746094 -1.7343425750732422
12.064936637878418 6.332192420959473 -2.5
10.81424331665039 6.838540077209473 -2.347599983215332
7.268407821655273 10.530131340026855 -2.347599983215332
6.397524356842041 11.080849647521973 -2.347599983215332
3.5597996711730957 12.289887428283691 -2.347599983215332
0.5151904225349426 12.784677505493164 -2.347599983215332
-3.5598340034484863 12.289873123168945 -2.347599983215332
-4.537207126617432 11.963574409484863 -2.347599983215332
-5.485190391540527 11.559662818908691 -2.347599983215332
-6.397529125213623 11.08084487915039 -2.347599983215332
-8.092182159423828 9.911108016967773 -2.347599983215332
-8.863447189331055 9.227822303771973 -2.347599983215332
-10.906176567077637 6.896655082702637 -2.3675553798675537
-12.535341262817383 5.340800762176514 -2.5
-12.924448013305664 4.3148193359375 -2.5
-13.449223518371582 2.185727596282959 -2.5
8.11464786529541 0.6550976634025574 -1.5871413946151733
12.163505554199219 4.060786247253418 -2.5
11.797304153442383 5.026376724243164 -2.5
11.354598999023438 5.959370136260986 -2.5
9.626665115356445 7.233998775482178 -2.347599983215332
9.013359069824219 7.985166072845459 -2.347599983215332
7.615727424621582 9.327588081359863 -2.347599983215332
6.840478420257568 9.910161018371582 -2.347599983215332
6.020859241485596 10.428451538085938 -2.347599983215332
4.27004861831665 11.259222984313965 -2.347599983215332
-0.48488280177116394 12.03197193145752 -2.347599983215332
-2.4086523056030273 11.798383712768555 -2.347599983215332
-3.350229501724243 11.566298484802246 -2.347599983215332
-4.270058631896973 11.2592134475708 -2.347599983215332
-6.840497970581055 9.910146713256836 -2.347599983215332
-7.615736961364746 9.327588081359863 -2.347599983215332
-9.013368606567383 7.985151290893555 -2.347599983215332
-11.354609489440918 5.959360122680664 -2.5
-11.797308921813965 5.0263671875 -2.5
-12.1635103225708 4.060771465301514 -2.5
8.102875709533691 0.6541405916213989 -1.6785534620285034
7.927138328552246 1.2882909774780273 -1.6582980155944824
11.138671875 4.74575662612915 -2.5
10.720664024353027 5.626659870147705 -2.5
9.609335899353027 6.076601505279541 -2.347599983215332
9.089208602905273 6.830126762390137 -2.347599983215332
8.510146141052246 7.539345741271973 -2.347599983215332
7.1905517578125 8.806836128234863 -2.347599983215332
4.031650066375732 10.630615234375 -2.347599983215332
3.1631736755371094 10.92055606842041 -2.347599983215332
0.4577929675579071 11.360224723815918 -2.347599983215332
-0.45780760049819946 11.360224723815918 -2.347599983215332
-3.163203001022339 10.920536994934082 -2.347599983215332
-4.031669616699219 10.630610466003418 -2.347599983215332
-6.458579063415527 9.3568696975708 -2.347599983215332
-7.1905517578125 8.806836128234863 -2.347599983215332
-7.875888347625732 8.19967269897461 -2.347599983215332
-9.089208602905273 6.830111980438232 -2.347599983215332
-10.207563400268555 6.454877853393555 -2.493748664855957
-10.720664024353027 5.626645565032959 -2.5
-11.138667106628418 4.745751857757568 -2.5
-11.950722694396973 1.9421874284744263 -2.5
-12.068256378173828 0.9742480516433716 -2.5
11.464516639709473 1.9531249563442543e-05 -2.5
8.085039138793945 0.6527050733566284 -1.7687935829162598
7.90652322769165 1.2849414348602295 -1.7467504739761353
10.87451171875 3.6304638385772705 -2.5
10.151328086853027 5.327841758728027 -2.5
9.099008560180664 5.753876686096191 -2.347599983215332
6.808676719665527 8.339125633239746 -2.347599983215332
4.61514139175415 9.726224899291992 -2.347599983215332
0.4334765672683716 10.756909370422363 -2.347599983215332
-0.4334765672683716 10.756914138793945 -2.347599983215332
-2.1534080505371094 10.548075675964355 -2.347599983215332
-7.457631587982178 7.764199256896973 -2.347599983215332
-8.606518745422363 6.467372894287109 -2.347599983215332
-10.874506950378418 3.630449056625366 -2.5
-11.13138198852539 2.7436277866363525 -2.5
10.88370132446289 1.9531249563442543e-05 -2.5
8.065126419067383 0.6510937213897705 -1.8585962057113647
9.04110336303711 2.228442430496216 -2.138906717300415
10.323588371276855 3.446533203125 -2.5
9.637045860290527 5.057919979095459 -2.5
8.170477867126465 6.139750957489014 -2.347599983215332
7.649955749511719 6.777275085449219 -2.347599983215332
6.46373987197876 7.916650295257568 -2.347599983215332
5.110112190246582 8.850981712341309 -2.347599983215332
3.624140501022339 9.556093215942383 -2.347599983215332
2.843437433242798 9.816718101501465 -2.347599983215332
2.044301748275757 10.013690948486328 -2.347599983215332
-0.4115380644798279 10.211953163146973 -2.347599983215332
-1.2319140434265137 10.145722389221191 -2.347599983215332
-4.381342887878418 9.233481407165527 -2.347599983215332
-5.805766582489014 8.411078453063965 -2.347599983215332
-7.079809188842773 7.370859146118164 -2.347599983215332
-8.17049789428711 6.139731407165527 -2.347599983215332
-9.637041091918945 5.057924747467041 -2.5
-10.012787818908691 4.266064167022705 -2.5
-10.323588371276855 3.446523427963257 -2.5
-10.567456245422363 2.6046385765075684 -2.5
-10.742768287658691 1.74587881565094 -2.5
10.055419921875 2.478447198867798 -2.5
9.823378562927246 3.279545783996582 -2.5
9.170097351074219 4.812851428985596 -2.5
6.736767292022705 7.013725280761719 -2.347599983215332
6.150551795959473 7.533066272735596 -2.347599983215332
5.524438381195068 8.003554344177246 -2.347599983215332
4.169043064117432 8.786093711853027 -2.347599983215332
0.39158201217651367 9.717153549194336 -2.347599983215332
-0.39159178733825684 9.717153549194336 -2.347599983215332
-1.9452685117721558 9.528495788574219 -2.347599983215332
-2.705678701400757 9.341073989868164 -2.347599983215332
-3.44854474067688 9.093070983886719 -2.347599983215332
-4.169057369232178 8.786084175109863 -2.347599983215332
-5.524457931518555 8.003544807434082 -2.347599983215332
-6.736767292022705 7.013735294342041 -2.347599983215332
-7.27929162979126 6.448896408081055 -2.347599983215332
-8.747812271118164 5.531777381896973 -2.4984920024871826
-9.527636528015137 4.05935525894165 -2.5
-9.823378562927246 3.279531240463257 -2.5
-10.222241401672363 1.6612889766693115 -2.5
-10.32277774810791 0.8333398103713989 -2.5
9.8753023147583 0.0 -2.5
7.894184589385986 1.2829394340515137 -2.024685859680176
9.36708927154541 3.127207040786743 -2.5
6.423847675323486 6.687939167022705 -2.347599983215332
5.267827033996582 7.631791591644287 -2.347599983215332
4.636650085449219 8.030927658081055 -2.347599983215332
3.9753904342651367 8.377978324890137 -2.347599983215332
3.2883496284484863 8.670693397521973 -2.347599983215332
2.5799901485443115 8.907182693481445 -2.347599983215332
1.854897379875183 9.085907936096191 -2.347599983215332
1.117773413658142 9.205693244934082 -2.347599983215332
0.3733886778354645 9.265786170959473 -2.347599983215332
-0.3734081983566284 9.26578140258789 -2.347599983215332
-1.1177831888198853 9.205693244934082 -2.347599983215332
-2.580004930496216 8.907172203063965 -2.347599983215332
-3.2883594036102295 8.670702934265137 -2.347599983215332
-3.975395441055298 8.377978324890137 -2.347599983215332
-4.636650085449219 8.030927658081055 -2.347599983215332
-5.267841815948486 7.631782054901123 -2.347599983215332
-6.423847675323486 6.687934398651123 -2.347599983215332
-6.941171646118164 6.149340629577637 -2.347599983215332
-8.346513748168945 5.278022289276123 -2.5
-8.744150161743164 4.589286804199219 -2.5
-9.085078239440918 3.870790958404541 -2.5
-9.367084503173828 3.127192258834839 -2.5
-9.747416496276855 1.5841211080551147 -2.5
-9.843280792236328 0.7946386337280273 -2.5
8.138593673706055 0.6570214629173279 -2.16359806060791
8.949067115783691 2.9876415729522705 -2.5
7.08263635635376 5.322260856628418 -2.347599983215332
6.137167930603027 6.389482498168945 -2.347599983215332
5.603134632110596 6.862592697143555 -2.347599983215332
4.429731369018555 7.672538757324219 -2.347599983215332
1.0678906440734863 8.794878005981445 -2.347599983215332
0.3567284941673279 8.852290153503418 -2.347599983215332
-0.35673826932907104 8.852294921875 -2.347599983215332
-1.0678906440734863 8.79488754272461 -2.347599983215332
-1.77212393283844 8.680429458618164 -2.347599983215332
-5.603134632110596 6.862587928771973 -2.347599983215332
-8.353930473327637 4.384482383728027 -2.5
-8.949067115783691 2.9876463413238525 -2.5
-9.312421798706055 1.513427734375 -2.5
7.959057331085205 1.2934863567352295 -2.2325918674468994
8.766913414001465 2.1608495712280273 -2.5
8.56459903717041 2.8592967987060547 -2.5
7.99502420425415 4.196127891540527 -2.5
7.62853479385376 4.824008464813232 -2.4990456104278564
6.346508502960205 5.622529029846191 -2.347599983215332
5.873505592346191 6.114975452423096 -2.347599983215332
4.8165283203125 6.977968692779541 -2.347599983215332
3.6348142623901367 7.660233974456787 -2.347599983215332
3.006640672683716 7.927875995635986 -2.347599983215332
2.358950138092041 8.144096374511719 -2.347599983215332
1.695986270904541 8.307509422302246 -2.347599983215332
1.022011637687683 8.417036056518555 -2.347599983215332
-1.022011637687683 8.417040824890137 -2.347599983215332
-2.3589696884155273 8.144096374511719 -2.347599983215332
-3.006640672683716 7.927875995635986 -2.347599983215332
-4.816542625427246 6.977958679199219 -2.347599983215332
-5.362416744232178 6.567763328552246 -2.347599983215332
-7.11562967300415 5.347055435180664 -2.4644105434417725
-7.99502420425415 4.196123123168945 -2.5
-8.306757926940918 3.539174795150757 -2.5
-8.912358283996582 1.4484081268310547 -2.5
8.627089500427246 0.6964648365974426 -2.5
8.543075561523438 1.3883886337280273 -2.5
8.403656959533691 2.0713231563568115 -2.5
8.20974063873291 2.7408154010772705 -2.5
5.630136489868164 5.861606121063232 -2.347599983215332
4.616967678070068 6.68883752822876 -2.347599983215332
4.063764572143555 7.038657188415527 -2.347599983215332
3.484208822250366 7.342832088470459 -2.347599983215332
2.8820605278015137 7.599384784698486 -2.347599983215332
2.2612156867980957 7.806650161743164 -2.347599983215332
0.32726073265075684 8.120946884155273 -2.347599983215332
-0.9796679615974426 8.068281173706055 -2.347599983215332
-1.6257226467132568 7.96328592300415 -2.347599983215332
-2.26123046875 7.806654930114746 -2.347599983215332
-4.616977214813232 6.68883752822876 -2.347599983215332
-6.083549499511719 5.389550685882568 -2.347599983215332
-8.543075561523438 1.3883984088897705 -2.5
8.067251205444336 1.9884082078933716 -2.5
7.356972694396973 3.8612499237060547 -2.5
7.022411823272705 4.440717697143555 -2.5
6.582172870635986 4.946200847625732 -2.477365493774414
5.840014457702637 5.173813343048096 -2.347599983215332
5.404760837554932 5.626962661743164 -2.347599983215332
4.934453010559082 6.04360818862915 -2.347599983215332
3.9010937213897705 6.756889343261719 -2.347599983215332
3.3447265625 7.048891544342041 -2.347599983215332
2.7666893005371094 7.295180320739746 -2.347599983215332
2.1706981658935547 7.494150161743164 -2.347599983215332
1.560634732246399 7.644511699676514 -2.347599983215332
-0.31416502594947815 7.795868873596191 -2.347599983215332
-1.5606396198272705 7.644506454467773 -2.347599983215332
-2.7666943073272705 7.295170783996582 -2.347599983215332
-3.3447461128234863 7.048886775970459 -2.347599983215332
-4.432153224945068 6.421069145202637 -2.347599983215332
-5.404770374298096 5.626962661743164 -2.347599983215332
-5.840024471282959 5.173798561096191 -2.347599983215332
-7.022421836853027 4.44070291519165 -2.5
-7.881083965301514 2.631093740463257 -2.5
-8.201093673706055 1.3328222036361694 -2.5
-8.281743049621582 0.6685839891433716 -2.5
7.98681640625 9.765624781721272e-06 -2.5
7.883388519287109 1.2811815738677979 -2.5
7.575786113739014 2.529184579849243 -2.5
6.370097637176514 4.786835670471191 -2.494164228439331
5.613789081573486 4.973388671875 -2.347599983215332
4.743300437927246 5.809501647949219 -2.347599983215332
3.215161085128784 6.775835037231445 -2.347599983215332
2.6595067977905273 7.0125732421875 -2.347599983215332
2.086596727371216 7.203832626342773 -2.347599983215332
1.500185489654541 7.348378658294678 -2.347599983215332
0.9040136337280273 7.445258617401123 -2.347599983215332
-0.30199217796325684 7.493866920471191 -2.347599983215332
-0.9040234088897705 7.445263385772705 -2.347599983215332
-1.500185489654541 7.348378658294678 -2.347599983215332
-2.6595165729522705 7.01256799697876 -2.347599983215332
-3.215165853500366 6.775829792022705 -2.347599983215332
-3.7499706745147705 6.495141506195068 -2.347599983215332
-4.260454177856445 6.172333717346191 -2.347599983215332
-5.195390701293945 5.408984184265137 -2.347599983215332
-6.379599571228027 4.793954849243164 -2.4978816509246826
-7.071967601776123 3.711660146713257 -2.5
-7.575795650482178 2.529169797897339 -2.5
-7.754741191864014 1.9113671779632568 -2.5
-7.883388519287109 1.2811717987060547 -2.5
7.291371822357178 2.434218645095825 -2.5
6.49694299697876 4.10842752456665 -2.5
6.135908126831055 4.610849380493164 -2.4961864948272705
5.403027057647705 4.786674499511719 -2.347599983215332
5.000331878662109 5.205917835235596 -2.347599983215332
3.0944628715515137 6.521450042724609 -2.347599983215332
2.5596630573272705 6.749291896820068 -2.347599983215332
2.0082664489746094 6.93337869644165 -2.347599983215332
1.4438574314117432 7.072499752044678 -2.347599983215332
0.8700683116912842 7.165741920471191 -2.347599983215332
-0.29066404700279236 7.21251916885376 -2.347599983215332
-1.4438574314117432 7.072494983673096 -2.347599983215332
-2.0082762241363525 6.93337869644165 -2.347599983215332
-3.0944676399230957 6.521440505981445 -2.347599983215332
-4.565229415893555 5.591386795043945 -2.347599983215332
-5.000341892242432 5.205913066864014 -2.347599983215332
-5.557216644287109 4.923266410827637 -2.414594888687134
-6.4969482421875 4.108422756195068 -2.5
-6.806479454040527 3.5723142623901367 -2.5
-7.291367053985596 2.4342236518859863 -2.5
7.406879901885986 1.9531249563442543e-05 -2.5
7.382856369018555 0.5960156321525574 -2.5
7.19164514541626 1.7725878953933716 -2.5
6.814169883728027 2.903261661529541 -2.5
5.916816234588623 4.446215629577637 -2.4980783462524414
5.275205135345459 4.673447132110596 -2.378737211227417
4.818139553070068 5.016225337982178 -2.347599983215332
2.981699228286743 6.283823013305664 -2.347599983215332
2.4663963317871094 6.503368854522705 -2.347599983215332
1.9350926876068115 6.680756568908691 -2.347599983215332
1.3912451267242432 6.814789772033691 -2.347599983215332
0.2800585925579071 6.949716567993164 -2.347599983215332
-0.28007322549819946 6.949716567993164 -2.347599983215332
-0.83837890625 6.904648303985596 -2.347599983215332
-1.3912451267242432 6.814799785614014 -2.347599983215332
-1.9351024627685547 6.680747032165527 -2.347599983215332
-2.981703996658325 6.283823013305664 -2.347599983215332
-3.4776854515075684 6.023515701293945 -2.347599983215332
-3.9510936737060547 5.724140644073486 -2.347599983215332
-4.81814432144165 5.016220569610596 -2.347599983215332
-6.260224342346191 3.9587254524230957 -2.5
-6.558461666107178 3.442153215408325 -2.5
-6.814174652099609 2.903251886367798 -2.5
-7.191640377044678 1.7725781202316284 -2.5
-7.310966491699219 1.1881542205810547 -2.5
-7.382861137390137 0.5960156321525574 -2.5
7.144589900970459 1.9531249563442543e-05 -2.5
7.121420860290527 0.574902355670929 -2.5
6.776904106140137 2.262465715408325 -2.5
6.326220512390137 3.320268392562866 -2.5
6.038535118103027 3.818554639816284 -2.5
5.254765510559082 4.655317306518555 -2.456505298614502
4.243114948272705 5.196884632110596 -2.347599983215332
3.8111767768859863 5.521450042724609 -2.347599983215332
3.3545262813568115 5.810214519500732 -2.347599983215332
1.8665722608566284 6.444174766540527 -2.347599983215332
1.341982364654541 6.573471546173096 -2.347599983215332
-2.3790721893310547 6.273085594177246 -2.347599983215332
-2.8761229515075684 6.06130838394165 -2.347599983215332
-3.3545312881469727 5.810224533081055 -2.347599983215332
-4.243110179901123 5.196875095367432 -2.347599983215332
-4.647529125213623 4.838593482971191 -2.347599983215332
-5.711684226989746 4.292055606842041 -2.5
-6.038535118103027 3.81853985786438 -2.5
-6.326220512390137 3.320253849029541 -2.5
-6.5728759765625 2.8004443645477295 -2.5
-6.776908874511719 2.262465715408325 -2.5
6.876049518585205 0.5551074147224426 -2.5
6.80908203125 1.106601595878601 -2.5
6.697958946228027 1.65090811252594 -2.5
6.543398380279541 2.184516668319702 -2.5
4.096909046173096 5.017807483673096 -2.347599983215332
3.6798534393310547 5.331201076507568 -2.347599983215332
3.2389402389526367 5.610024452209473 -2.347599983215332
2.2970800399780273 6.056933403015137 -2.347599983215332
1.8022509813308716 6.222128868103027 -2.347599983215332
1.295742154121399 6.346977233886719 -2.347599983215332
0.26082518696784973 6.472636699676514 -2.347599983215332
-1.295742154121399 6.346982479095459 -2.347599983215332
-1.8022607564926147 6.222124099731445 -2.347599983215332
-4.518749713897705 4.704535961151123 -2.364009141921997
-5.156425476074219 4.568198204040527 -2.496556520462036
-5.514892578125 4.1441650390625 -2.5
-5.830468654632568 3.686967611312866 -2.5
-6.108242034912109 3.2058544158935547 -2.5
-6.876044750213623 0.5550878643989563 -2.5
6.580507755279541 1.0694433450698853 -2.5
6.473119735717773 1.59548819065094 -2.5
6.323750019073486 2.1111814975738525 -2.5
5.9031982421875 3.0982518196105957 -2.5
5.634746074676514 3.5632078647613525 -2.5
5.329755783081055 4.005058288574219 -2.5
4.981284141540527 4.413042068481445 -2.495532274246216
4.343476295471191 4.522045612335205 -2.35123872756958
3.9593846797943115 4.849365234375 -2.347599983215332
3.556328058242798 5.152235984802246 -2.347599983215332
2.683793783187866 5.65600061416626 -2.347599983215332
1.7417528629302979 6.013266563415527 -2.347599983215332
0.7546142339706421 6.214794635772705 -2.347599983215332
0.2520703077316284 6.255356311798096 -2.347599983215332
-2.219980478286743 5.853613376617432 -2.347599983215332
-2.6837987899780273 5.655991077423096 -2.347599983215332
-5.634750843048096 3.5631980895996094 -2.5
-5.903203010559082 3.0982420444488525 -2.5
-6.580502986907959 1.0694531202316284 -2.5
-6.645224571228027 0.5364648103713989 -2.5
5.450263500213623 3.446547746658325 -2.5
5.155258655548096 3.8739306926727295 -2.5
4.324765682220459 4.502558708190918 -2.420353889465332
3.8297507762908936 4.690600395202637 -2.347599983215332
3.439892530441284 4.983554363250732 -2.347599983215332
3.0277295112609863 5.244194030761719 -2.347599983215332
2.5959277153015137 5.470815181732178 -2.347599983215332
2.147294759750366 5.661967754364014 -2.347599983215332
1.2112401723861694 5.933090686798096 -2.347599983215332
0.24381835758686066 6.050556659698486 -2.347599983215332
-0.19106444716453552 4.741078853607178 -1.839526653289795
-0.729907214641571 6.011318206787109 -2.347599983215332
-1.6847362518310547 5.816386699676514 -2.347599983215332
-2.1472997665405273 5.661957740783691 -2.347599983215332
-2.5959277153015137 5.470810413360596 -2.347599983215332
-3.027724504470825 5.244189262390137 -2.347599983215332
-4.454316139221191 4.637426853179932 -2.4928534030914307
-4.826816082000732 4.276201248168945 -2.5
-5.155263423919678 3.8739256858825684 -2.5
-5.709921836853027 2.9968066215515137 -2.5
-6.116703987121582 2.042050838470459 -2.5
-6.365068435668945 1.0344336032867432 -2.5
-6.427656173706055 0.5188964605331421 -2.5
6.222187519073486 0.5023144483566284 -2.5
5.742895603179932 2.446830987930298 -2.5
5.27603006362915 3.336371898651123 -2.5
3.7073192596435547 4.5406494140625 -2.347599983215332
2.9309473037719727 5.076547622680664 -2.347599983215332
2.512934446334839 5.295932292938232 -2.347599983215332
2.0786523818969727 5.48095703125 -2.347599983215332
1.6308691501617432 5.630458831787109 -2.347599983215332
1.172519564628601 5.743427753448486 -2.347599983215332
0.7065624594688416 5.819150447845459 -2.347599983215332
0.2360253781080246 5.857133865356445 -2.347599983215332
-0.19077636301517487 4.734033107757568 -1.897445797920227
-0.7065820097923279 5.819140434265137 -2.347599983215332
-1.1725292205810547 5.743427753448486 -2.347599983215332
-1.6308836936950684 5.630449295043945 -2.347599983215332
-2.512953996658325 5.29592752456665 -2.347599983215332
-2.9309473037719727 5.076542854309082 -2.347599983215332
-3.3299365043640137 4.824238300323486 -2.347599983215332
-3.726513624191284 4.564159870147705 -2.359754800796509
-4.315219402313232 4.492621898651123 -2.4947633743286133
-4.672524452209473 4.139502048492432 -2.5
-5.527387619018555 2.900995969772339 -2.5
-5.742909908294678 2.446830987930298 -2.5
-5.92117166519165 1.9767773151397705 -2.5
-6.161586761474609 1.001367211341858 -2.5
-6.222187519073486 0.5023144483566284 -2.5
6.047382831573486 9.765624781721272e-06 -2.5
6.027763366699219 0.4866308569908142 -2.5
5.563461780548096 2.3703808784484863 -2.5
5.111181735992432 3.232128858566284 -2.5
4.834526062011719 3.632924795150757 -2.5
4.526523113250732 4.010165691375732 -2.5
3.604926586151123 4.415239334106445 -2.3563859462738037
3.22588849067688 4.673510551452637 -2.347599983215332
2.839360237121582 4.917924880981445 -2.347599983215332
2.4344236850738525 5.130458831787109 -2.347599983215332
1.135888695716858 5.563969612121582 -2.347599983215332
-0.6845019459724426 5.6373291015625 -2.347599983215332
-2.0137109756469727 5.309711933135986 -2.347599983215332
-2.4344334602355957 5.130449295043945 -2.347599983215332
-3.225893497467041 4.673501014709473 -2.347599983215332
-3.714467763900757 4.549394607543945 -2.4279870986938477
-5.111186504364014 3.232123851776123 -2.5
-5.354687213897705 2.81036114692688 -2.5
-5.871654987335205 1.4472362995147705 -2.5
5.862524509429932 9.765624781721272e-06 -2.5
5.393398284912109 2.297919988632202 -2.5
4.388164043426514 3.887587785720825 -2.5
3.5937206745147705 4.401513576507568 -2.423130512237549
3.127265453338623 4.530649185180664 -2.347599983215332
2.752568244934082 4.767602443695068 -2.347599983215332
2.3600146770477295 4.973622798919678 -2.347599983215332
1.9521484375 5.147407054901123 -2.347599983215332
1.1011669635772705 5.393896579742432 -2.347599983215332
0.22166503965854645 5.500683307647705 -2.347599983215332
-0.18333496153354645 4.549286842346191 -1.9415606260299683
-0.66357421875 5.465009689331055 -2.347599983215332
-1.5316308736801147 5.287797927856445 -2.347599983215332
-2.3600146770477295 4.973622798919678 -2.347599983215332
-3.1272900104522705 4.5306396484375 -2.347599983215332
-3.696596622467041 4.527509689331055 -2.492495536804199
-4.058735370635986 4.225581169128418 -2.4985342025756836
-4.954946041107178 3.1333250999450684 -2.5
-5.692172527313232 1.4029979705810547 -2.5
-5.786596775054932 0.9404199123382568 -2.5
-5.843510627746582 0.471748024225235 -2.5
5.687026023864746 1.9531249563442543e-05 -2.5
5.613388538360596 0.9122753739356995 -2.5
5.394350528717041 1.8009082078933716 -2.5
4.256792068481445 3.771196126937866 -2.5
3.582465648651123 4.387739181518555 -2.49008846282959
3.0336570739746094 4.39501953125 -2.347599983215332
2.670161008834839 4.624882698059082 -2.347599983215332
0.6437011361122131 5.301411151885986 -2.347599983215332
0.2150244116783142 5.336020469665527 -2.347599983215332
-0.6437060236930847 5.301401138305664 -2.347599983215332
-1.4857763051986694 5.129506587982178 -2.347599983215332
-2.289365291595459 4.824740886688232 -2.347599983215332
-3.074697256088257 4.454452991485596 -2.3793509006500244
-3.9395360946655273 4.101499080657959 -2.5
-4.256796836853027 3.7712011337280273 -2.5
-4.546454906463623 3.41644024848938 -2.5
-4.806611061096191 3.0395312309265137 -2.5
-5.035614967346191 2.642890453338623 -2.5
-5.231943130493164 2.2291259765625 -2.5
-5.394350528717041 1.8008984327316284 -2.5
-5.613379001617432 0.9122753739356995 -2.5
-5.6685791015625 0.4576171636581421 -2.5
5.448681354522705 0.8855078220367432 -2.5
5.078432559967041 2.1637256145477295 -2.5
4.887861251831055 2.5653514862060547 -2.5
4.665585994720459 2.9503467082977295 -2.5
4.413051605224609 3.3162059783935547 -2.5
4.131894588470459 3.6605517864227295 -2.5
3.823486328125 3.9806737899780273 -2.499696969985962
3.483144521713257 4.266083717346191 -2.494229316711426
2.5918262004852295 4.489184379577637 -2.347599983215332
2.2221972942352295 4.683188438415527 -2.347599983215332
1.0368603467941284 5.078901290893555 -2.347599983215332
0.6248144507408142 5.145864009857178 -2.347599983215332
-1.036865234375 5.078901290893555 -2.347599983215332
-1.4421825408935547 4.978999137878418 -2.347599983215332
-1.8381494283676147 4.8468017578125 -2.347599983215332
-2.5918262004852295 4.489179611206055 -2.347599983215332
-3.0652928352355957 4.440854549407959 -2.4437828063964844
-3.8239452838897705 3.9811668395996094 -2.5
-4.131904125213623 3.6605517864227295 -2.5
-4.413056373596191 3.3162012100219727 -2.5
-4.665590763092041 2.9503369331359863 -2.5
-4.887861251831055 2.5653514862060547 -2.5
-5.078432559967041 2.1637303829193115 -2.5
-5.236073970794678 1.7480664253234863 -2.5
-5.359760761260986 1.3210644721984863 -2.5
-5.448671817779541 0.8855078220367432 -2.5
5.361269474029541 9.765624781721272e-06 -2.5
5.343891620635986 0.4314062297344208 -2.5
5.291840553283691 0.8600195050239563 -2.5
5.205483436584473 1.283046841621399 -2.5
5.085361003875732 1.6977441310882568 -2.5
4.01296854019165 3.555185556411743 -2.5
3.3853564262390137 4.146323204040527 -2.49605655670166
0.20270507037639618 5.030371189117432 -2.347599983215332
-0.18192870914936066 4.514428615570068 -2.106820583343506
-0.6068359017372131 4.997748851776123 -2.347599983215332
-1.0070263147354126 4.932704925537109 -2.347599983215332
-2.1582324504852295 4.548378944396973 -2.347599983215332
-2.535405158996582 4.391459941864014 -2.364555597305298
-3.0368359088897705 4.399594783782959 -2.49284029006958
-3.3879735469818115 4.149516582489014 -2.497981548309326
-4.286035060882568 3.2207517623901367 -2.5
-4.531303405761719 2.86541485786438 -2.5
-4.747177600860596 2.491508722305298 -2.5
-4.932260513305664 2.101445198059082 -2.5
-5.085361003875732 1.69775390625 -2.5
-5.343881607055664 0.4314062297344208 -2.5
