ply
format ascii 1.0
element vertex 831
property float x
property float y
property float z
end_header
-1.153540015220642 28.624467849731445 7.676122665405273
-6.359633445739746 13.402694702148438 3.9750237464904785
-18.188188552856445 22.276473999023438 7.705812931060791
-5.488178730010986 26.8828125 7.026877403259277
-6.357177734375 13.3975191116333 3.797874689102173
-16.022319793701172 23.2122745513916 7.223498344421387
-5.488173484802246 26.882816314697266 6.703794002532959
-7.531054496765137 26.000150680541992 6.613775253295898
-9.578783988952637 25.25716781616211 6.600010395050049
-13.909037590026855 24.091142654418945 6.796822547912598
-18.167539596557617 22.251161575317383 7.018620491027832
-3.4199461936950684 28.16568374633789 6.600009441375732
-7.706113338470459 26.60452651977539 6.443120002746582
-6.352309226989746 13.3872652053833 3.446937084197998
-13.831313133239746 23.956527709960938 6.434865474700928
-3.4647607803344727 28.5347900390625 6.35159158706665
-7.758466720581055 26.785282135009766 6.161981582641602
-9.88277816772461 26.058734893798828 6.158339500427246
-14.013690948486328 24.272401809692383 6.193152904510498
-18.125 22.199081420898438 6.332635402679443
-5.653901100158691 27.694602966308594 5.918111324310303
-9.867749214172363 26.01909637451172 5.826320171356201
-13.991494178771973 24.23395538330078 5.858887672424316
-16.02284049987793 23.213031768798828 5.905576705932617
-18.188779830932617 22.27718734741211 6.021456241607666
-3.4769530296325684 28.635194778442383 5.706578731536865
-9.88277816772461 26.058734893798828 5.513556003570557
-6.345117092132568 13.37210464477539 2.9281444549560547
-14.013690948486328 24.272401809692383 5.544722557067871
-9.88277816772461 26.05872917175293 5.193318843841553
-6.342739105224609 13.367109298706055 2.757042169570923
-14.013690948486328 24.272401809692383 5.2226762771606445
-16.02284049987793 23.213031768798828 5.255955696105957
-3.4769482612609863 28.635194778442383 5.045050144195557
-7.758466720581055 26.785282135009766 4.877284526824951
-14.013686180114746 24.27240753173828 4.901956558227539
-16.02284049987793 23.213031768798828 4.933192729949951
-18.18876838684082 22.27718734741211 5.029994010925293
-3.4769580364227295 28.635194778442383 4.716245651245117
-7.758466720581055 26.785282135009766 4.559414386749268
-9.88277816772461 26.058734893798828 4.55672025680542
-6.338032245635986 13.357172966003418 2.4172863960266113
-16.02284049987793 23.213031768798828 4.61168098449707
-18.18876838684082 22.27718734741211 4.702171325683594
-5.612065315246582 27.489686965942383 4.268617630004883
-7.708671569824219 26.613388061523438 4.215468883514404
-15.90676212310791 23.04486846923828 4.260241508483887
-18.188779830932617 22.27718734741211 4.3755364418029785
-3.468559503555298 28.56605339050293 4.052314281463623
-5.653901100158691 27.694602966308594 3.9804911613464355
-7.758466720581055 26.785282135009766 3.927042245864868
-9.820444107055664 25.89436912536621 3.899967670440674
-6.333354473114014 13.347329139709473 2.080484628677368
-9.820444107055664 25.89436912536621 3.5874650478363037
-6.331035137176514 13.342435836791992 1.9130746126174927
-13.925302505493164 24.119306564331055 3.6077446937561035
23.325162887573242 5.749189376831055 2.8416528701782227
22.561805725097656 7.532240867614746 2.8135790824890137
-3.4769678115844727 28.635189056396484 3.4120678901672363
-5.653901100158691 27.694602966308594 3.3434972763061523
-7.758466720581055 26.785282135009766 3.298602819442749
-9.839961051940918 25.945804595947266 3.2823686599731445
-14.013700485229492 24.272411346435547 3.3152904510498047
-18.18876838684082 22.27718734741211 3.401883363723755
-1.1937353610992432 29.6216983795166 3.174028158187866
-3.4769628047943115 28.635194778442383 3.088350772857666
-5.653901100158691 27.694602966308594 3.0262866020202637
-6.326416015625 13.3326997756958 1.58001708984375
-3.4769530296325684 28.635194778442383 2.76540470123291
-5.653901100158691 27.694602966308594 2.709831476211548
-9.839961051940918 25.945804595947266 2.660288095474243
-6.324116230010986 13.327856063842773 1.4142833948135376
-14.013700485229492 24.272411346435547 2.686971426010132
-3.4769482612609863 28.635194778442383 2.4431488513946533
-5.653901100158691 27.694602966308594 2.3940484523773193
-7.758466720581055 26.785282135009766 2.3619039058685303
-14.01370620727539 24.27240753173828 2.3738532066345215
-5.653891563415527 27.694608688354492 2.078859806060791
-14.013700485229492 24.272411346435547 2.061321258544922
-18.18876838684082 22.27718734741211 2.115161895751953
2.1350536346435547 17.583831787109375 1.1055392026901245
-3.4769482612609863 28.635194778442383 1.800362229347229
-7.758466720581055 26.785282135009766 1.7404937744140625
-9.88277816772461 26.058734893798828 1.7394652366638184
2.132578134536743 17.56344223022461 0.9075637459754944
-3.4769530296325684 28.635194778442383 1.47967529296875
-7.758476257324219 26.785282135009766 1.430470585823059
-6.314985275268555 13.308608055114746 0.7556430101394653
-16.02284049987793 23.213031768798828 1.4468683004379272
-18.188779830932617 22.27718734741211 1.4752596616744995
2.1325879096984863 17.563446044921875 0.7110928297042847
-1.1885350942611694 29.492733001708984 1.1863280534744263
-3.4578709602355957 28.478017807006836 1.1529889106750488
-7.715883731842041 26.638261795043945 1.114648461341858
-6.312714576721191 13.303828239440918 0.5918465852737427
-13.84371566772461 23.978012084960938 1.1128076314926147
-16.022851943969727 23.21302604675293 1.1336486339569092
-18.08893585205078 22.154911041259766 1.1495486497879028
2.132578134536743 17.563446044921875 0.5147979855537415
-3.4769580364227295 28.635194778442383 0.8393157720565796
-5.646274089813232 27.657255172729492 0.8213406205177307
-16.022851943969727 23.21302604675293 0.8207070827484131
-3.4769482612609863 28.635194778442383 0.5194851756095886
-5.646274089813232 27.657255172729492 0.508359968662262
-7.758466720581055 26.785287857055664 0.5022106766700745
-9.839956283569336 25.945804595947266 0.49973875284194946
-6.308178424835205 13.294261932373047 0.265005499124527
-13.977787971496582 24.210229873657227 0.5034576058387756
2.132578134536743 17.563446044921875 0.12253844738006592
-3.4769482612609863 28.635194778442383 0.19978179037570953
-7.758466720581055 26.785282135009766 0.19313842058181763
-9.839950561523438 25.945810317993164 0.19218780100345612
-13.977797508239746 24.21021842956543 0.19361785054206848
-18.188779830932617 22.27718734741211 0.1991857886314392
2.1325879096984863 17.563446044921875 -0.073522187769413
0.708984375 17.593759536743164 -0.0731712356209755
-3.4769482612609863 28.635194778442383 -0.11987213045358658
-5.646284103393555 27.657255172729492 -0.117304228246212
-7.758466720581055 26.785282135009766 -0.11588577181100845
-9.839950561523438 25.945810317993164 -0.11531554907560349
-13.977797508239746 24.210224151611328 -0.11617431044578552
-16.02284049987793 23.213031768798828 -0.11721435189247131
-18.188779830932617 22.27718734741211 -0.11951430886983871
2.132578134536743 17.563446044921875 -0.2695985436439514
0.708984375 17.593759536743164 -0.2683126628398895
-3.4769482612609863 28.635194778442383 -0.43955230712890625
-5.646274089813232 27.657255172729492 -0.43013808131217957
0.708984375 17.593759536743164 -0.463519424200058
-5.646274089813232 27.657255172729492 -0.7430770993232727
-9.867114067077637 26.017446517944336 -0.7324932813644409
-6.299130916595459 13.275218963623047 -0.38680723309516907
-16.02284049987793 23.213031768798828 -0.7425045371055603
-18.18876838684082 22.27718734741211 -0.757074236869812
2.132578134536743 17.563446044921875 -0.6620023846626282
0.708984375 17.593759536743164 -0.6588441133499146
-1.1937353610992432 29.6216983795166 -1.1092642545700073
-7.758466720581055 26.785282135009766 -1.0434304475784302
-9.882787704467773 26.05872917175293 -1.0428138971328735
5.240195274353027 18.091312408447266 -0.91385817527771
0.708984375 17.593759536743164 -0.8543292284011841
-2.370781183242798 19.52503776550293 -0.9542986750602722
-7.723002910614014 26.662832260131836 -1.3468393087387085
-9.773256301879883 25.769954681396484 -1.3372399806976318
-6.294628620147705 13.265703201293945 -0.7124264240264893
-13.977787971496582 24.210229873657227 -1.356385350227356
-15.955810546875 23.115907669067383 -1.362809419631958
-18.12492561340332 22.198978424072266 -1.3904900550842285
8.08260726928711 17.033782958984375 -1.1243350505828857
5.240190505981445 18.09130859375 -1.1231895685195923
3.297441244125366 16.151996612548828 -0.9830630421638489
0.6150488257408142 15.262636184692383 -0.9108993411064148
-2.3707714080810547 19.525033950805664 -1.1728935241699219
-9.820444107055664 25.89436912536621 -1.651487112045288
-6.292367935180664 13.260936737060547 -0.8753028512001038
8.063432693481445 16.993383407592773 -1.3309916257858276
3.2715721130371094 16.025238037109375 -1.1573666334152222
2.1325879096984863 17.563446044921875 -1.2519516944885254
0.6150488257408142 15.262636184692383 -1.0808898210525513
-2.3707714080810547 19.525033950805664 -1.3917772769927979
-5.653911113739014 27.694599151611328 -2.0001466274261475
-9.820444107055664 25.89436912536621 -1.9596853256225586
-6.290107250213623 13.256175994873047 -1.0382773876190186
-16.022851943969727 23.21302604675293 -1.995910406112671
-18.188779830932617 22.27718734741211 -2.0350749492645264
18.126720428466797 22.20121955871582 -2.347599983215332
16.281522750854492 23.587894439697266 -2.347599983215332
8.077314376831055 17.022621154785156 -1.543294906616211
3.267519474029541 16.005395889282227 -1.338012933731079
0.6150488257408142 15.262636184692383 -1.251147747039795
-0.6524609327316284 16.19039535522461 -1.3271992206573486
-2.370781183242798 19.52503776550293 -1.611006736755371
-5.653906345367432 27.694599151611328 -2.3152050971984863
-7.758466720581055 26.785282135009766 -2.284114360809326
-6.287846565246582 13.251410484313965 -1.2013903856277466
-18.12676239013672 22.201234817504883 -2.347599983215332
-21.453344345092773 19.006019592285156 -2.347599983215332
26.86016082763672 3.9062499126885086e-05 -2.5
26.512325286865234 4.308686256408691 -2.5
25.477834701538086 8.505776405334473 -2.5
24.710779190063477 10.528310775756836 -2.5
23.783483505249023 12.482558250427246 -2.5
22.701929092407227 14.355863571166992 -2.5
18.87950325012207 16.725811004638672 -2.347599983215332
17.472415924072266 18.19072723388672 -2.347599983215332
5.240190505981445 18.09130859375 -1.7530546188354492
3.267519474029541 16.005395889282227 -1.5204218626022339
1.8908642530441284 15.572714805603027 -1.460070013999939
0.6150488257408142 15.262636184692383 -1.421716570854187
-2.370781183242798 19.52503776550293 -1.8306325674057007
-12.611371994018555 21.84355926513672 -2.347599983215332
-23.783475875854492 12.482553482055664 -2.5
-24.710790634155273 10.52828598022461 -2.5
-26.079647064208984 6.428041934967041 -2.5
-26.51230812072754 4.308701038360596 -2.5
-26.773056030273438 2.1613378524780273 -2.5
23.280847549438477 5.738227367401123 -2.5
22.058866500854492 9.398432731628418 -2.5
19.03024673461914 12.034003257751465 -2.347599983215332
18.000150680541992 13.52627944946289 -2.347599983215332
15.597311973571777 16.238534927368164 -2.347599983215332
7.984238147735596 21.052762985229492 -2.347599983215332
3.267519474029541 16.005395889282227 -1.703206181526184
-2.2518749237060547 18.545795440673828 -1.9478617906570435
-4.503749847412109 22.060916900634766 -2.347599983215332
-7.984355449676514 21.052650451660156 -2.347599983215332
-11.257885932922363 19.499418258666992 -2.347599983215332
-12.790532112121582 18.530195236206055 -2.347599983215332
-15.597329139709473 16.238544464111328 -2.347599983215332
-18.00017547607422 13.526249885559082 -2.347599983215332
-22.05887222290039 9.39840316772461 -2.5
-22.743637084960938 7.592939376831055 -2.5
-23.667064666748047 3.8462986946105957 -2.5
20.534765243530273 6.855527400970459 -2.5
19.91653823852539 8.485663414001465 -2.5
19.169139862060547 10.060761451721191 -2.5
16.25200080871582 12.212607383728027 -2.347599983215332
14.082511901855469 14.66146469116211 -2.347599983215332
7.208808422088623 19.008129119873047 -2.347599983215332
4.895361423492432 16.900815963745117 -2.0319180488586426
1.8908642530441284 15.572724342346191 -1.8115339279174805
-0.6524609327316284 16.19039535522461 -1.8711724281311035
-2.0615429878234863 16.978281021118164 -1.9750405550003052
-4.066352367401123 19.918344497680664 -2.347599983215332
-5.655937194824219 19.52654266357422 -2.347599983215332
-19.169139862060547 10.060751914978027 -2.5
-20.534770965576172 6.855507850646973 -2.5
-21.01984405517578 5.180912971496582 -2.5
-21.368555068969727 3.472734212875366 -2.5
19.72799301147461 2.9296874345163815e-05 -2.5
10.463871955871582 2.5791258811950684 -1.365704894065857
18.71271514892578 6.247236251831055 -2.5
18.149337768554688 7.732734203338623 -2.5
17.43846321105957 9.152436256408691 -2.4957356452941895
15.657450675964355 9.901190757751465 -2.347599983215332
13.86642837524414 12.28458023071289 -2.347599983215332
12.832968711853027 13.360551834106445 -2.347599983215332
11.716279029846191 14.349853515625 -2.347599983215332
10.52359390258789 15.24609375 -2.347599983215332
7.941674709320068 16.736757278442383 -2.347599983215332
6.569174766540527 17.321533203125 -2.347599983215332
3.1567821502685547 15.462968826293945 -1.9999390840530396
0.6150488257408142 15.262636184692383 -1.9357045888900757
-0.6311815977096558 15.6624116897583 -1.986406683921814
-2.0585155487060547 16.953290939331055 -2.1641595363616943
-5.154116153717041 17.793935775756836 -2.347599983215332
-6.569179534912109 17.3215274810791 -2.347599983215332
-5.941054344177246 12.520483016967773 -1.7561990022659302
-10.523633003234863 15.246073722839355 -2.347599983215332
-11.716288566589355 14.34984302520752 -2.347599983215332
-18.712718963623047 6.24722146987915 -2.5
-19.47249984741211 3.16460919380188 -2.5
-19.664018630981445 1.5874218940734863 -2.5
18.11604881286621 2.9296874345163815e-05 -2.5
10.041156768798828 2.474926710128784 -1.4271408319473267
16.66639518737793 7.100913047790527 -2.5
14.3781099319458 9.092192649841309 -2.347599983215332
12.733427047729492 11.280858993530273 -2.347599983215332
9.663735389709473 14.000370979309082 -2.347599983215332
8.505834579467773 14.732572555541992 -2.347599983215332
0.5993847250938416 14.873964309692383 -2.0542590618133545
-0.6311864852905273 15.662416458129883 -2.1631529331207275
-3.402783155441284 16.667909622192383 -2.347599983215332
-6.985448837280273 12.099194526672363 -1.9279742240905762
-9.663793563842773 14.00033187866211 -2.347599983215332
-14.3781099319458 9.092177391052246 -2.347599983215332
-16.666400909423828 7.100888729095459 -2.5
-17.589643478393555 4.33544921875 -2.5
-17.8814640045166 2.9060254096984863 -2.5
8.559345245361328 0.6909960508346558 -1.2821485996246338
15.882064819335938 5.302231311798096 -2.5
14.817960739135742 7.777089595794678 -2.4986681938171387
13.28896427154541 8.403456687927246 -2.347599983215332
11.768866539001465 10.426337242126465 -2.347599983215332
10.891737937927246 11.339521408081055 -2.347599983215332
6.740341663360596 14.205009460449219 -2.347599983215332
5.57546854019165 14.70131778717041 -2.347599983215332
1.8353271484375 15.115326881408691 -2.2734341621398926
0.5993847250938416 14.873964309692383 -2.2226240634918213
-1.8951952457427979 15.608437538146973 -2.347599983215332
-5.57546854019165 14.701327323913574 -2.347599983215332
-5.951728343963623 12.543036460876465 -2.072929859161377
-8.931703567504883 12.939847946166992 -2.347599983215332
-10.89174747467041 11.339516639709473 -2.347599983215332
-11.768877029418945 10.4263277053833 -2.347599983215332
-12.569686889648438 9.445512771606445 -2.347599983215332
-15.403910636901855 6.562997817993164 -2.5
-16.257230758666992 4.007040977478027 -2.5
-16.526927947998047 2.685903310775757 -2.5
15.5610933303833 2.9296874345163815e-05 -2.5
8.337597846984863 0.673095703125 -1.343851923942566
9.496191024780273 2.3406152725219727 -1.5712896585464478
14.760255813598633 4.927704811096191 -2.5
8.300825119018555 12.025854110717773 -2.347599983215332
7.306240081787109 12.654794692993164 -2.347599983215332
6.264257907867432 13.20166015625 -2.347599983215332
2.9228711128234863 14.317177772521973 -2.347599983215332
1.7613476514816284 14.505956649780273 -2.347599983215332
0.5883691310882568 14.600639343261719 -2.347599983215332
-1.7613427639007568 14.50594711303711 -2.347599983215332
-4.890200138092041 12.894453048706055 -2.21555757522583
-6.93716287612915 12.015546798706055 -2.2290115356445312
-10.937606811523438 9.689863204956055 -2.347599983215332
-12.350337028503418 7.809867858886719 -2.347599983215332
-14.31588363647461 6.099433422088623 -2.5
-14.760263442993164 4.927700042724609 -2.5
-15.510629653930664 1.2521483898162842 -2.5
14.531059265136719 2.9296874345163815e-05 -2.5
8.1307373046875 0.6563964486122131 -1.403406023979187
8.030835151672363 1.3051464557647705 -1.3997942209243774
9.294604301452637 2.2909228801727295 -1.646951675415039
13.783234596252441 4.601542949676514 -2.5
11.532816886901855 7.292939186096191 -2.347599983215332
8.629862785339355 10.569682121276855 -2.347599983215332
0.5494531393051147 13.634203910827637 -2.347599983215332
-0.5494433641433716 13.63417911529541 -2.347599983215332
-2.729384660720825 13.36949634552002 -2.347599983215332
-3.7963476181030273 13.106508255004883 -2.347599983215332
-4.838662147521973 12.758529663085938 -2.347599983215332
-7.751391410827637 11.229814529418945 -2.347599983215332
-10.213613510131836 9.048476219177246 -2.347599983215332
-12.866605758666992 6.752919673919678 -2.5
-13.368270874023438 5.695683479309082 -2.5
-14.108808517456055 3.477494955062866 -2.5
-14.342870712280273 2.3309667110443115 -2.5
-14.483930587768555 1.1692675352096558 -2.5
7.95385217666626 1.2926366329193115 -1.478496789932251
9.177958488464355 2.2621726989746094 -1.7343425750732422
12.535341262817383 5.3408203125 -2.5
12.064936637878418 6.332192420959473 -2.5
9.577221870422363 8.48470687866211 -2.347599983215332
8.863442420959473 9.227836608886719 -2.347599983215332
7.268407821655273 10.530131340026855 -2.347599983215332
5.48513650894165 11.559711456298828 -2.347599983215332
2.559335947036743 12.536474227905273 -2.347599983215332
1.54226553440094 12.701766967773438 -2.347599983215332
-0.515185534954071 12.78470230102539 -2.347599983215332
-1.5422265529632568 12.701801300048828 -2.347599983215332
-2.559335947036743 12.536474227905273 -2.347599983215332
-5.485190391540527 11.559662818908691 -2.347599983215332
-6.397529125213623 11.08084487915039 -2.347599983215332
-7.268422603607178 10.530131340026855 -2.347599983215332
-8.863447189331055 9.227822303771973 -2.347599983215332
-9.577226638793945 8.484697341918945 -2.347599983215332
-13.229750633239746 3.2608251571655273 -2.5
-13.449223518371582 2.185727596282959 -2.5
-13.581499099731445 1.0963964462280273 -2.5
8.11464786529541 0.6550976634025574 -1.5871413946151733
9.021659851074219 2.2236523628234863 -1.811458706855774
12.163505554199219 4.060786247253418 -2.5
11.797304153442383 5.026376724243164 -2.5
11.354598999023438 5.959370136260986 -2.5
9.013359069824219 7.985166072845459 -2.347599983215332
6.020859241485596 10.428451538085938 -2.347599983215332
5.162192344665527 10.87911605834961 -2.347599983215332
4.27004861831665 11.259222984313965 -2.347599983215332
2.4086523056030273 11.798383712768555 -2.347599983215332
-3.350229501724243 11.566298484802246 -2.347599983215332
-4.270058631896973 11.2592134475708 -2.347599983215332
-8.341601371765137 8.684526443481445 -2.347599983215332
-9.013368606567383 7.985151290893555 -2.347599983215332
-10.760351181030273 6.80443811416626 -2.4820315837860107
-11.354609489440918 5.959360122680664 -2.5
-12.657392501831055 2.0570409297943115 -2.5
-12.781865119934082 1.0318554639816284 -2.5
12.107519149780273 9.765624781721272e-06 -2.5
8.892191886901855 2.1917333602905273 -1.8910415172576904
9.609335899353027 6.076601505279541 -2.347599983215332
9.089208602905273 6.830126762390137 -2.347599983215332
4.873989105224609 10.271728515625 -2.347599983215332
2.274174690246582 11.13967227935791 -2.347599983215332
1.3704345226287842 11.286552429199219 -2.347599983215332
-3.163203001022339 10.920536994934082 -2.347599983215332
-4.031669616699219 10.630610466003418 -2.347599983215332
-4.873993873596191 10.271733283996582 -2.347599983215332
-5.684716701507568 9.846230506896973 -2.347599983215332
-7.1905517578125 8.806836128234863 -2.347599983215332
-7.875888347625732 8.19967269897461 -2.347599983215332
-8.510146141052246 7.53933572769165 -2.347599983215332
-9.089208602905273 6.830111980438232 -2.347599983215332
-10.720664024353027 5.626645565032959 -2.5
-11.138667106628418 4.745751857757568 -2.5
-12.068256378173828 0.9742480516433716 -2.5
11.464516639709473 1.9531249563442543e-05 -2.5
10.547119140625 4.493730545043945 -2.5
10.151328086853027 5.327841758728027 -2.5
9.099008560180664 5.753876686096191 -2.347599983215332
6.115576267242432 8.859955787658691 -2.347599983215332
5.382817268371582 9.32332992553711 -2.347599983215332
2.995180606842041 10.340595245361328 -2.347599983215332
2.153398275375366 10.548075675964355 -2.347599983215332
1.297646403312683 10.68715763092041 -2.347599983215332
0.4334765672683716 10.756909370422363 -2.347599983215332
-3.8175389766693115 10.066059112548828 -2.347599983215332
-5.382822036743164 9.323325157165527 -2.347599983215332
-6.115590572357178 8.859941482543945 -2.347599983215332
-7.457631587982178 7.764199256896973 -2.347599983215332
-8.05819320678711 7.13894510269165 -2.347599983215332
-8.606518745422363 6.467372894287109 -2.347599983215332
-10.547123908996582 4.493705749511719 -2.5
-10.874506950378418 3.630449056625366 -2.5
-11.13138198852539 2.7436277866363525 -2.5
-11.316049575805664 1.8390429019927979 -2.5
-11.427343368530273 0.9225097298622131 -2.5
8.065126419067383 0.6510937213897705 -1.8585962057113647
7.884902000427246 1.2814257144927979 -1.8349344730377197
9.04110336303711 2.228442430496216 -2.138906717300415
8.170477867126465 6.139750957489014 -2.347599983215332
7.649955749511719 6.777275085449219 -2.347599983215332
7.079804420471191 7.370869159698486 -2.347599983215332
6.46373987197876 7.916650295257568 -2.347599983215332
4.381328105926514 9.233481407165527 -2.347599983215332
3.624140501022339 9.556093215942383 -2.347599983215332
2.843437433242798 9.816718101501465 -2.347599983215332
2.044301748275757 10.013690948486328 -2.347599983215332
0.41151854395866394 10.21194839477539 -2.347599983215332
-2.0443115234375 10.01369571685791 -2.347599983215332
-4.381342887878418 9.233481407165527 -2.347599983215332
-5.110126972198486 8.850991249084473 -2.347599983215332
-6.46373987197876 7.916645526885986 -2.347599983215332
-7.079809188842773 7.370859146118164 -2.347599983215332
-8.17049789428711 6.139731407165527 -2.347599983215332
-9.187392234802246 5.809751033782959 -2.496896982192993
-10.012787818908691 4.266064167022705 -2.5
-10.742768287658691 1.74587881565094 -2.5
-10.848407745361328 0.8757714629173279 -2.5
10.35635757446289 1.9531249563442543e-05 -2.5
7.861001014709473 1.2775487899780273 -1.9225249290466309
10.055419921875 2.478447198867798 -2.5
9.823378562927246 3.279545783996582 -2.5
9.527626991271973 4.059350490570068 -2.5
8.730151176452637 5.5206298828125 -2.4934475421905518
7.27929162979126 6.448896408081055 -2.347599983215332
3.4485349655151367 9.093066215515137 -2.347599983215332
1.9452587366104126 9.5285005569458 -2.347599983215332
1.172216773033142 9.654130935668945 -2.347599983215332
0.39158201217651367 9.717153549194336 -2.347599983215332
-0.39159178733825684 9.717153549194336 -2.347599983215332
-1.1722265481948853 9.65414047241211 -2.347599983215332
-1.9452685117721558 9.528495788574219 -2.347599983215332
-4.862519264221191 8.422123908996582 -2.347599983215332
-5.524457931518555 8.003544807434082 -2.347599983215332
-6.150551795959473 7.533061504364014 -2.347599983215332
-8.747812271118164 5.531777381896973 -2.4984920024871826
-9.170097351074219 4.812836647033691 -2.5
-10.055419921875 2.4784326553344727 -2.5
-10.32277774810791 0.8333398103713989 -2.5
8.098490715026855 0.6537890434265137 -2.0568578243255615
6.941171646118164 6.149350643157959 -2.347599983215332
5.86486291885376 7.183154106140137 -2.347599983215332
3.2883496284484863 8.670693397521973 -2.347599983215332
2.5799901485443115 8.907182693481445 -2.347599983215332
1.117773413658142 9.205693244934082 -2.347599983215332
0.3733886778354645 9.265786170959473 -2.347599983215332
-0.3734081983566284 9.26578140258789 -2.347599983215332
-1.1177831888198853 9.205693244934082 -2.347599983215332
-3.2883594036102295 8.670702934265137 -2.347599983215332
-3.975395441055298 8.377978324890137 -2.347599983215332
-4.636650085449219 8.030927658081055 -2.347599983215332
-5.864858150482178 7.183154106140137 -2.347599983215332
-6.941171646118164 6.149340629577637 -2.347599983215332
-7.413491249084473 5.570859432220459 -2.347599983215332
-8.346513748168945 5.278022289276123 -2.5
-8.744150161743164 4.589286804199219 -2.5
-9.367084503173828 3.127192258834839 -2.5
-9.747416496276855 1.5841211080551147 -2.5
-9.843280792236328 0.7946386337280273 -2.5
8.138593673706055 0.6570214629173279 -2.16359806060791
7.928681373596191 1.2885448932647705 -2.1285219192504883
9.1604585647583 2.2578465938568115 -2.5
8.949067115783691 2.9876415729522705 -2.5
8.353930473327637 4.384491920471191 -2.5
7.08263635635376 5.322260856628418 -2.347599983215332
6.631406307220459 5.874921798706055 -2.347599983215332
5.603134632110596 6.862592697143555 -2.347599983215332
3.797978401184082 8.004096031188965 -2.347599983215332
3.141606330871582 8.283754348754883 -2.347599983215332
2.464848518371582 8.509687423706055 -2.347599983215332
1.0678906440734863 8.794878005981445 -2.347599983215332
0.3567284941673279 8.852290153503418 -2.347599983215332
-0.35673826932907104 8.852294921875 -2.347599983215332
-1.0678906440734863 8.79488754272461 -2.347599983215332
-2.4648633003234863 8.509682655334473 -2.347599983215332
-3.141606330871582 8.283759117126465 -2.347599983215332
-3.797988176345825 8.004096031188965 -2.347599983215332
-4.429736137390137 7.672533988952637 -2.347599983215332
-5.032753944396973 7.291205883026123 -2.347599983215332
-5.603134632110596 6.862587928771973 -2.347599983215332
-6.137172698974609 6.389477252960205 -2.347599983215332
-7.158984184265137 5.379628658294678 -2.3729050159454346
-9.312421798706055 1.513427734375 -2.5
-9.404004096984863 0.75916987657547 -2.5
9.029287338256836 1.9531249563442543e-05 -2.5
9.0 0.7265625 -2.5
7.959057331085205 1.2934863567352295 -2.2325918674468994
8.306747436523438 3.539189338684082 -2.5
7.99502420425415 4.196127891540527 -2.5
7.62853479385376 4.824008464813232 -2.4990456104278564
6.778354167938232 5.093623161315918 -2.347599983215332
4.8165283203125 6.977968692779541 -2.347599983215332
3.6348142623901367 7.660233974456787 -2.347599983215332
3.006640672683716 7.927875995635986 -2.347599983215332
2.358950138092041 8.144096374511719 -2.347599983215332
1.022011637687683 8.417036056518555 -2.347599983215332
-0.34141111373901367 8.471991539001465 -2.347599983215332
-1.022011637687683 8.417040824890137 -2.347599983215332
-1.695986270904541 8.307509422302246 -2.347599983215332
-3.63482403755188 7.660233974456787 -2.347599983215332
-4.239433288574219 7.342905044555664 -2.347599983215332
-4.816542625427246 6.977958679199219 -2.347599983215332
-6.346513748168945 5.622519493103027 -2.347599983215332
-7.631454944610596 4.825849533081055 -2.5
-8.306757926940918 3.539174795150757 -2.5
-8.766913414001465 2.160844564437866 -2.5
-8.912358283996582 1.4484081268310547 -2.5
-9.000004768371582 0.7265527248382568 -2.5
8.627089500427246 0.6964648365974426 -2.5
8.543075561523438 1.3883886337280273 -2.5
7.962568283081055 3.3925437927246094 -2.5
7.663759708404541 4.022260665893555 -2.5
5.630136489868164 5.861606121063232 -2.347599983215332
5.140224456787109 6.295634746551514 -2.347599983215332
4.616967678070068 6.68883752822876 -2.347599983215332
3.484208822250366 7.342832088470459 -2.347599983215332
2.8820605278015137 7.599384784698486 -2.347599983215332
1.6257128715515137 7.963281154632568 -2.347599983215332
0.32726073265075684 8.120946884155273 -2.347599983215332
-0.3272705078125 8.120951652526855 -2.347599983215332
-0.9796679615974426 8.068281173706055 -2.347599983215332
-1.6257226467132568 7.96328592300415 -2.347599983215332
-2.26123046875 7.806654930114746 -2.347599983215332
-3.4842236042022705 7.342826843261719 -2.347599983215332
-4.616977214813232 6.68883752822876 -2.347599983215332
-5.630146503448486 5.86160135269165 -2.347599983215332
-6.083549499511719 5.389550685882568 -2.347599983215332
-6.902260780334473 5.186723709106445 -2.4938437938690186
-7.962573051452637 3.3925390243530273 -2.5
-8.209731101989746 2.7408103942871094 -2.5
-8.403656959533691 2.0713086128234863 -2.5
-8.543075561523438 1.3883984088897705 -2.5
-8.62709903717041 0.6964550614356995 -2.5
8.281733512878418 0.6685839891433716 -2.5
8.201088905334473 1.3328222036361694 -2.5
7.643818378448486 3.2567431926727295 -2.5
7.356972694396973 3.8612499237060547 -2.5
7.022411823272705 4.440717697143555 -2.5
6.582172870635986 4.946200847625732 -2.477365493774414
5.840014457702637 5.173813343048096 -2.347599983215332
2.7666893005371094 7.295180320739746 -2.347599983215332
1.560634732246399 7.644511699676514 -2.347599983215332
0.9404491782188416 7.745302677154541 -2.347599983215332
0.31416013836860657 7.795859336853027 -2.347599983215332
-0.31416502594947815 7.795868873596191 -2.347599983215332
-2.170703172683716 7.494140625 -2.347599983215332
-2.7666943073272705 7.295170783996582 -2.347599983215332
-3.9010937213897705 6.756889343261719 -2.347599983215332
-4.934462547302246 6.043612957000732 -2.347599983215332
-5.840024471282959 5.173798561096191 -2.347599983215332
-6.631513595581055 4.983261585235596 -2.4959352016448975
-7.356967449188232 3.8612449169158936 -2.5
-7.643813133239746 3.2567334175109863 -2.5
-7.881083965301514 2.631093740463257 -2.5
-8.201093673706055 1.3328222036361694 -2.5
7.98681640625 9.765624781721272e-06 -2.5
7.960922718048096 0.6426855325698853 -2.5
7.883388519287109 1.2811815738677979 -2.5
6.750380516052246 4.268691539764404 -2.5
5.613789081573486 4.973388671875 -2.347599983215332
5.195390701293945 5.408984184265137 -2.347599983215332
3.7499656677246094 6.49514627456665 -2.347599983215332
2.6595067977905273 7.0125732421875 -2.347599983215332
2.086596727371216 7.203832626342773 -2.347599983215332
1.500185489654541 7.348378658294678 -2.347599983215332
0.9040136337280273 7.445258617401123 -2.347599983215332
0.30198240280151367 7.493857383728027 -2.347599983215332
-0.9040234088897705 7.445263385772705 -2.347599983215332
-2.6595165729522705 7.01256799697876 -2.347599983215332
-3.215165853500366 6.775829792022705 -2.347599983215332
-3.7499706745147705 6.495141506195068 -2.347599983215332
-4.260454177856445 6.172333717346191 -2.347599983215332
-4.743300437927246 5.809501647949219 -2.347599983215332
-5.195390701293945 5.408984184265137 -2.347599983215332
-7.071967601776123 3.711660146713257 -2.5
-7.575795650482178 2.529169797897339 -2.5
-7.960917949676514 0.6426757574081421 -2.5
7.686962604522705 1.9531249563442543e-05 -2.5
7.463603496551514 1.8396093845367432 -2.5
6.49694299697876 4.10842752456665 -2.5
5.403027057647705 4.786674499511719 -2.347599983215332
5.000331878662109 5.205917835235596 -2.347599983215332
4.565224647521973 5.591391563415527 -2.347599983215332
4.100502967834473 5.940600395202637 -2.347599983215332
0.8700683116912842 7.165741920471191 -2.347599983215332
-2.0082762241363525 6.93337869644165 -2.347599983215332
-2.5596678256988525 6.749301433563232 -2.347599983215332
-3.0944676399230957 6.521440505981445 -2.347599983215332
-3.60918927192688 6.251293659210205 -2.347599983215332
-4.565229415893555 5.591386795043945 -2.347599983215332
-6.144555568695068 4.617324352264404 -2.49969744682312
-6.4969482421875 4.108422756195068 -2.5
-7.291367053985596 2.4342236518859863 -2.5
-7.463603496551514 1.8396093845367432 -2.5
-7.662040710449219 0.6185546517372131 -2.5
7.382856369018555 0.5960156321525574 -2.5
7.19164514541626 1.7725878953933716 -2.5
7.025693416595459 2.345527410507202 -2.5
6.814169883728027 2.903261661529541 -2.5
6.55846643447876 3.4421582221984863 -2.5
2.4663963317871094 6.503368854522705 -2.347599983215332
1.9350926876068115 6.680756568908691 -2.347599983215332
1.3912451267242432 6.814789772033691 -2.347599983215332
0.8383691310882568 6.904643535614014 -2.347599983215332
-0.28007322549819946 6.949716567993164 -2.347599983215332
-2.981703996658325 6.283823013305664 -2.347599983215332
-3.9510936737060547 5.724140644073486 -2.347599983215332
-4.398881912231445 5.387656211853027 -2.347599983215332
-5.921376705169678 4.449624061584473 -2.5
-6.260224342346191 3.9587254524230957 -2.5
-6.558461666107178 3.442153215408325 -2.5
-6.814174652099609 2.903251886367798 -2.5
-7.025693416595459 2.3455419540405273 -2.5
-7.310966491699219 1.1881542205810547 -2.5
7.121420860290527 0.574902355670929 -2.5
6.936982154846191 1.7098242044448853 -2.5
6.5728759765625 2.8004491329193115 -2.5
5.254765510559082 4.655317306518555 -2.456505298614502
2.8761181831359863 6.06130838394165 -2.347599983215332
2.3790624141693115 6.273080825805664 -2.347599983215332
1.8665722608566284 6.444174766540527 -2.347599983215332
1.341982364654541 6.573471546173096 -2.347599983215332
0.2701367139816284 6.703618049621582 -2.347599983215332
-0.8086864948272705 6.660146236419678 -2.347599983215332
-1.3419872522354126 6.573471546173096 -2.347599983215332
-2.8761229515075684 6.06130838394165 -2.347599983215332
-3.3545312881469727 5.810224533081055 -2.347599983215332
-4.243110179901123 5.196875095367432 -2.347599983215332
-4.647529125213623 4.838593482971191 -2.347599983215332
-5.711684226989746 4.292055606842041 -2.5
-6.038535118103027 3.81853985786438 -2.5
-6.776908874511719 2.262465715408325 -2.5
-6.936972618103027 1.709814429283142 -2.5
-7.052080154418945 1.146083950996399 -2.5
-7.121420860290527 0.5749218463897705 -2.5
6.80908203125 1.106601595878601 -2.5
6.697958946228027 1.65090811252594 -2.5
6.543398380279541 2.184516668319702 -2.5
6.346396446228027 2.7039501667022705 -2.5
6.108242034912109 3.2058591842651367 -2.5
5.830463886260986 3.6869773864746094 -2.5
5.514882564544678 4.144179821014404 -2.5
4.487387657165527 4.671879768371582 -2.347599983215332
3.6798534393310547 5.331201076507568 -2.347599983215332
3.2389402389526367 5.610024452209473 -2.347599983215332
2.7770166397094727 5.85244607925415 -2.347599983215332
2.2970800399780273 6.056933403015137 -2.347599983215332
1.8022509813308716 6.222128868103027 -2.347599983215332
1.295742154121399 6.346977233886719 -2.347599983215332
0.7808203101158142 6.430654048919678 -2.347599983215332
-0.7808251976966858 6.4306640625 -2.347599983215332
-2.2970848083496094 6.056938171386719 -2.347599983215332
-2.7770214080810547 5.852441310882568 -2.347599983215332
-3.679872989654541 5.331196308135986 -2.347599983215332
-4.096913814544678 5.017797946929932 -2.347599983215332
-4.518749713897705 4.704535961151123 -2.364009141921997
-5.156425476074219 4.568198204040527 -2.496556520462036
-5.514892578125 4.1441650390625 -2.5
-5.830468654632568 3.686967611312866 -2.5
-6.108242034912109 3.2058544158935547 -2.5
-6.346401214599609 2.7039549350738525 -2.5
-6.543393611907959 2.184506893157959 -2.5
-6.697963714599609 1.65090811252594 -2.5
-6.80908203125 1.106591820716858 -2.5
-6.876044750213623 0.5550878643989563 -2.5
6.666840553283691 1.9531249563442543e-05 -2.5
6.645224571228027 0.5364648103713989 -2.5
6.580507755279541 1.0694433450698853 -2.5
6.473119735717773 1.59548819065094 -2.5
6.133354187011719 2.6131885051727295 -2.5
5.9031982421875 3.0982518196105957 -2.5
5.634746074676514 3.5632078647613525 -2.5
3.9593846797943115 4.849365234375 -2.347599983215332
3.1302146911621094 5.421699047088623 -2.347599983215332
2.683793783187866 5.65600061416626 -2.347599983215332
0.7546142339706421 6.214794635772705 -2.347599983215332
-0.19151854515075684 4.752353191375732 -1.7835288047790527
-0.7546142339706421 6.214789867401123 -2.347599983215332
-1.2522460222244263 6.133920669555664 -2.347599983215332
-1.7417675256729126 6.013271331787109 -2.347599983215332
-3.55633282661438 5.152235984802246 -2.347599983215332
-3.9593846797943115 4.849365234375 -2.347599983215332
-4.501909255981445 4.686992168426514 -2.437001943588257
-4.987055778503418 4.418159008026123 -2.498424530029297
-5.634750843048096 3.5631980895996094 -2.5
-6.473119735717773 1.5954687595367432 -2.5
6.448559284210205 9.765624781721272e-06 -2.5
6.365053653717041 1.034423828125 -2.5
5.932548522949219 2.5276269912719727 -2.5
5.450263500213623 3.446547746658325 -2.5
3.439892530441284 4.983554363250732 -2.347599983215332
3.0277295112609863 5.244194030761719 -2.347599983215332
2.5959277153015137 5.470815181732178 -2.347599983215332
1.2112401723861694 5.933090686798096 -2.347599983215332
0.24381835758686066 6.050556659698486 -2.347599983215332
-3.439897298812866 4.98354959487915 -2.347599983215332
-3.8297605514526367 4.690595626831055 -2.347599983215332
-4.826816082000732 4.276201248168945 -2.5
-5.155263423919678 3.8739256858825684 -2.5
-6.261186599731445 1.54324209690094 -2.5
-6.427656173706055 0.5188964605331421 -2.5
6.06102991104126 1.4939160346984863 -2.5
5.921166896820068 1.9767773151397705 -2.5
5.27603006362915 3.336371898651123 -2.5
4.990448951721191 3.7500927448272705 -2.5
3.3299314975738525 4.82424783706665 -2.347599983215332
1.6308691501617432 5.630458831787109 -2.347599983215332
1.172519564628601 5.743427753448486 -2.347599983215332
0.7065624594688416 5.819150447845459 -2.347599983215332
-1.1725292205810547 5.743427753448486 -2.347599983215332
-2.512953996658325 5.29592752456665 -2.347599983215332
-4.990468502044678 3.7500877380371094 -2.5
-5.276034832000732 3.336371898651123 -2.5
-5.92117166519165 1.9767773151397705 -2.5
-6.06102991104126 1.4939160346984863 -2.5
-6.161586761474609 1.001367211341858 -2.5
-6.222187519073486 0.5023144483566284 -2.5
6.047382831573486 9.765624781721272e-06 -2.5
5.969062328338623 0.9700781106948853 -2.5
5.871654987335205 1.4472265243530273 -2.5
5.736152172088623 1.9150195121765137 -2.5
4.834526062011719 3.632924795150757 -2.5
2.839360237121582 4.917924880981445 -2.347599983215332
2.0137059688568115 5.309706687927246 -2.347599983215332
1.579921841621399 5.454526424407959 -2.347599983215332
1.135888695716858 5.563969612121582 -2.347599983215332
0.22865721583366394 5.674140453338623 -2.347599983215332
-0.18402831256389618 4.56640625 -1.8892948627471924
-0.6845019459724426 5.6373291015625 -2.347599983215332
-1.1358935832977295 5.563979148864746 -2.347599983215332
-2.8393797874450684 4.917929649353027 -2.347599983215332
-3.225893497467041 4.673501014709473 -2.347599983215332
-3.714467763900757 4.549394607543945 -2.4279870986938477
-4.526528358459473 4.010151386260986 -2.5
-4.834531307220459 3.6329197883605957 -2.5
-5.354687213897705 2.81036114692688 -2.5
-5.56347131729126 2.3703808784484863 -2.5
-5.871654987335205 1.4472362995147705 -2.5
-6.027763366699219 0.4866113066673279 -2.5
5.862524509429932 9.765624781721272e-06 -2.5
5.843505859375 0.471748024225235 -2.5
5.786601543426514 0.9404199123382568 -2.5
5.69216775894165 1.4029979705810547 -2.5
5.393398284912109 2.297919988632202 -2.5
5.191000938415527 2.7244677543640137 -2.5
2.3600146770477295 4.973622798919678 -2.347599983215332
1.9521484375 5.147407054901123 -2.347599983215332
1.5316259860992432 5.287792682647705 -2.347599983215332
1.1011669635772705 5.393896579742432 -2.347599983215332
0.66357421875 5.465009689331055 -2.347599983215332
0.22166503965854645 5.500683307647705 -2.347599983215332
-0.18333496153354645 4.549286842346191 -1.9415606260299683
-0.66357421875 5.465009689331055 -2.347599983215332
-1.1011767387390137 5.393891334533691 -2.347599983215332
-1.5316308736801147 5.287797927856445 -2.347599983215332
-2.752578020095825 4.767597675323486 -2.347599983215332
-4.388149261474609 3.887583017349243 -2.5
-5.393408298492432 2.297910213470459 -2.5
-5.692172527313232 1.4029979705810547 -2.5
-5.786596775054932 0.9404199123382568 -2.5
5.687026023864746 1.9531249563442543e-05 -2.5
5.668583869934082 0.4576171636581421 -2.5
5.613388538360596 0.9122753739356995 -2.5
5.521772384643555 1.3610057830810547 -2.5
5.394350528717041 1.8009082078933716 -2.5
5.231943130493164 2.229135751724243 -2.5
5.035610198974609 2.642895460128784 -2.5
4.256792068481445 3.771196126937866 -2.5
3.582465648651123 4.387739181518555 -2.49008846282959
3.0336570739746094 4.39501953125 -2.347599983215332
1.893715739250183 4.993319988250732 -2.347599983215332
1.4857714176177979 5.129501819610596 -2.347599983215332
1.068203091621399 5.232426643371582 -2.347599983215332
0.6437011361122131 5.301411151885986 -2.347599983215332
0.2150244116783142 5.336020469665527 -2.347599983215332
-2.289365291595459 4.824740886688232 -2.347599983215332
-3.9395360946655273 4.101499080657959 -2.5
-4.256796836853027 3.7712011337280273 -2.5
-5.231943130493164 2.2291259765625 -2.5
-5.521772384643555 1.3609960079193115 -2.5
-5.613379001617432 0.9122753739356995 -2.5
5.520155906677246 9.765624781721272e-06 -2.5
5.502265453338623 0.4441894292831421 -2.5
5.448681354522705 0.8855078220367432 -2.5
5.236073970794678 1.7480664253234863 -2.5
4.665585994720459 2.9503467082977295 -2.5
3.823486328125 3.9806737899780273 -2.499696969985962
2.5918262004852295 4.489184379577637 -2.347599983215332
2.2221972942352295 4.683188438415527 -2.347599983215332
0.6248144507408142 5.145864009857178 -2.347599983215332
0.20872069895267487 5.179448127746582 -2.347599983215332
-0.18232421576976776 4.524145603179932 -2.0505807399749756
-1.036865234375 5.078901290893555 -2.347599983215332
-1.8381494283676147 4.8468017578125 -2.347599983215332
-2.2222020626068115 4.683178424835205 -2.347599983215332
-2.5918262004852295 4.489179611206055 -2.347599983215332
-3.0652928352355957 4.440854549407959 -2.4437828063964844
-3.485956907272339 4.269511699676514 -2.4962399005889893
-3.8239452838897705 3.9811668395996094 -2.5
-4.413056373596191 3.3162012100219727 -2.5
-4.665590763092041 2.9503369331359863 -2.5
-5.359760761260986 1.3210644721984863 -2.5
-5.448671817779541 0.8855078220367432 -2.5
4.747168064117432 2.491523265838623 -2.5
4.01296854019165 3.555185556411743 -2.5
3.713876962661743 3.866572141647339 -2.5
3.3853564262390137 4.146323204040527 -2.49605655670166
2.986201047897339 4.326274394989014 -2.451284170150757
2.1582324504852295 4.548383712768555 -2.347599983215332
1.7852392196655273 4.707299709320068 -2.347599983215332
1.4006688594818115 4.835683345794678 -2.347599983215332
1.007021427154541 4.932709693908691 -2.347599983215332
0.20270507037639618 5.030371189117432 -2.347599983215332
-0.6068359017372131 4.997748851776123 -2.347599983215332
-1.0070263147354126 4.932704925537109 -2.347599983215332
-1.4006786346435547 4.835688591003418 -2.347599983215332
-1.7852392196655273 4.707299709320068 -2.347599983215332
-2.535405158996582 4.391459941864014 -2.364555597305298
-3.0368359088897705 4.399594783782959 -2.49284029006958
-3.3879735469818115 4.149516582489014 -2.497981548309326
-3.713881731033325 3.866567373275757 -2.5
-4.531303405761719 2.86541485786438 -2.5
-4.747177600860596 2.491508722305298 -2.5
-5.343881607055664 0.4314062297344208 -2.5
