ply
format ascii 1.0
element vertex 788
property float x
property float y
property float z
end_header
-8.921332359313965 -15.452192306518555 4.7809247970581055
1.8910009860992432 -15.573774337768555 4.203627109527588
-11.067026138305664 -0.8934228420257568 2.8435606956481934
-8.921059608459473 -15.451732635498047 4.569488048553467
-8.920795440673828 -15.45125961303711 4.359259605407715
-8.920527458190918 -15.4508056640625 4.150092601776123
-6.334057331085205 -16.701541900634766 4.155132293701172
-8.919740676879883 -15.449438095092773 3.5293383598327637
-8.919482231140137 -15.448988914489746 3.3241240978240967
-8.91922378540039 -15.448539733886719 3.1197192668914795
-1.1878368854522705 -29.476083755493164 5.15952205657959
1.8853564262390137 -15.527314186096191 2.735659122467041
1.885195255279541 -15.525985717773438 2.557145357131958
-8.918705940246582 -15.447646141052246 2.7140636444091797
-6.327988147735596 -16.685556411743164 2.715024948120117
1.8850340843200684 -15.52464771270752 2.37930965423584
-6.327138423919678 -16.68331527709961 2.5126893520355225
1.7804101705551147 -14.662943840026855 2.0800604820251465
-8.918197631835938 -15.446752548217773 2.310622215270996
-6.3262939453125 -16.681074142456055 2.3110411167144775
-6.325448989868164 -16.678842544555664 2.1100237369537354
-8.917685508728027 -15.445868492126465 1.9096715450286865
-6.324594497680664 -16.676620483398438 1.909582495689392
1.8843945264816284 -15.51937484741211 1.6737890243530273
-6.32375955581665 -16.67439842224121 1.7096728086471558
1.8842284679412842 -15.518051147460938 1.498635172843933
-8.917177200317383 -15.444990158081055 1.5104961395263672
-6.322915077209473 -16.672182083129883 1.5102404356002808
1.8840819597244263 -15.516762733459473 1.3238857984542847
-8.916923522949219 -15.444555282592773 1.311548113822937
1.8839209079742432 -15.515453338623047 1.1494919061660767
9.248820304870605 -24.38715362548828 1.9182504415512085
-8.916665077209473 -15.444101333618164 1.113049030303955
-6.321245193481445 -16.66777229309082 1.112606167793274
-1.1975195407867432 -29.71635627746582 1.856221318244934
1.8838427066802979 -15.514838218688965 0.9754549860954285
9.245710372924805 -24.378934860229492 1.6273363828659058
-8.9161376953125 -15.443198204040527 0.9147350788116455
-1.1961523294448853 -29.68221664428711 1.5238323211669922
-8.915610313415527 -15.442289352416992 0.7166693210601807
1.88381826877594 -15.514657974243164 0.628141462802887
1.8838133811950684 -15.514565467834473 0.45474210381507874
-8.914565086364746 -15.440473556518555 0.32108885049819946
-6.317910194396973 -16.65898323059082 0.32086822390556335
1.8838037252426147 -15.514476776123047 0.2814556956291199
-8.913515090942383 -15.438666343688965 -0.07408279180526733
-6.316249847412109 -16.654600143432617 -0.07402008026838303
1.8837743997573853 -15.514291763305664 -0.06494567543268204
26.498748779296875 -6.531362056732178 -0.11341415345668793
-8.912993431091309 -15.437763214111328 -0.271634966135025
1.8837695121765137 -15.514204025268555 -0.23814406991004944
1.8837597370147705 -15.514110565185547 -0.41139891743659973
25.85091781616211 -6.371694087982178 -0.7008740305900574
25.586578369140625 -6.306542873382568 -0.9860339164733887
-16.341381072998047 -17.013158798217773 -1.1445717811584473
-8.911430358886719 -15.435038566589355 -0.864753246307373
-6.312924861907959 -16.64583396911621 -0.8637780547142029
16.981422424316406 -7.235097408294678 -0.8955937027931213
-25.14750862121582 -15.902328491210938 -1.7743127346038818
-16.421255111694336 -17.096323013305664 -1.413627028465271
-8.910902976989746 -15.434130668640137 -1.062773585319519
1.8837206363677979 -15.513827323913574 -0.9319361448287964
24.30145263671875 -15.367319107055664 -1.7146170139312744
16.869260787963867 -7.187314510345459 -1.0934704542160034
-8.910380363464355 -15.43321704864502 -1.2610323429107666
-6.311254978179932 -16.64144515991211 -1.2594263553619385
1.883705973625183 -15.513734817504883 -1.10584557056427
10.134323120117188 -21.357650756835938 -1.6728204488754272
24.31259536743164 -15.374364852905273 -2.0355255603790283
16.81134796142578 -7.162636756896973 -1.2930777072906494
28.23822021484375 -9.427299499511719 -2.1066067218780518
-24.22431182861328 -15.318530082702637 -2.347599983215332
-22.913095474243164 -17.21806526184082 -2.347599983215332
-16.340160369873047 -17.011899948120117 -1.9320875406265259
-18.166772842407227 -22.250268936157227 -2.352782964706421
-14.181337356567383 -20.545190811157227 -2.04478120803833
-6.3104248046875 -16.63924217224121 -1.4576157331466675
-8.063593864440918 -27.83871078491211 -2.373948812484741
-5.802680492401123 -28.423368453979492 -2.376128673553467
-2.4817333221435547 -20.438899993896484 -1.686410903930664
-1.1691747903823853 -29.012733459472656 -2.3783111572265625
1.1691601276397705 -29.012489318847656 -2.3782920837402344
5.80239725112915 -28.422019958496094 -2.376016855239868
14.424782752990723 -24.984453201293945 -2.3630175590515137
16.35464096069336 -23.693788528442383 -2.358147144317627
18.166296005249023 -22.249671936035156 -2.352724313735962
19.85439109802246 -20.670644760131836 -2.347599983215332
21.453304290771484 -19.0059757232666 -2.347599983215332
22.91309356689453 -17.21807098388672 -2.347599983215332
16.803476333618164 -7.159282207489014 -1.4960589408874512
24.98304557800293 -6.157773494720459 -2.1075596809387207
-26.86016082763672 0.0 -2.5
-26.773056030273438 -2.1613476276397705 -2.5
-26.5123233795166 -4.308686256408691 -2.5
-26.079647064208984 -6.428085803985596 -2.5
-24.71079444885254 -10.52828598022461 -2.5
-23.78348159790039 -12.4825439453125 -2.5
-22.686542510986328 -14.346108436584473 -2.498305082321167
-20.16415023803711 -15.152377128601074 -2.347599983215332
-15.952011108398438 -19.53767967224121 -2.347599983215332
-9.756576538085938 -20.56159210205078 -2.118281602859497
-5.07763671875 -24.871845245361328 -2.3626880645751953
-2.498710870742798 -20.578720092773438 -1.9294257164001465
-1.0229785442352295 -25.38483428955078 -2.36460280418396
1.022973656654358 -25.38483428955078 -2.36460280418396
1.8836864233016968 -15.5135498046875 -1.4545233249664307
5.077524185180664 -24.871328353881836 -2.3626389503479004
8.984359741210938 -23.689828872680664 -2.3581650257110596
12.63145923614502 -21.87830924987793 -2.3513357639312744
14.328166007995605 -20.757919311523438 -2.347599983215332
15.952013969421387 -19.53767967224121 -2.347599983215332
22.687084197998047 -14.346449851989746 -2.4983651638031006
25.477834701538086 -8.505751609802246 -2.5
25.307086944580078 -6.237651348114014 -2.4259424209594727
26.77305030822754 -2.1613426208496094 -2.5
-23.97759246826172 1.9531249563442543e-05 -2.5
-22.743602752685547 -7.592929363250732 -2.5
-22.058866500854492 -9.39840316772461 -2.5
-21.231082916259766 -11.14293384552002 -2.5
-20.265605926513672 -12.815195083618164 -2.5
-19.150428771972656 -14.390620231628418 -2.49761700630188
-14.240068435668945 -17.440927505493164 -2.347599983215332
-12.790483474731445 -18.530214309692383 -2.347599983215332
-8.8471040725708 -15.323617935180664 -1.844870686531067
-4.512617111206055 -22.104217529296875 -2.3522140979766846
4.512592792510986 -22.104076385498047 -2.352199077606201
7.83342981338501 -16.508588790893555 -1.9052003622055054
9.211671829223633 -15.955062866210938 -1.9208910465240479
14.240065574645996 -17.440927505493164 -2.347599983215332
15.597294807434082 -16.238525390625 -2.347599983215332
20.265592575073242 -12.815195083618164 -2.5
16.861005783081055 -7.183794021606445 -1.91090989112854
23.280818939208984 -5.738212585449219 -2.5
23.667064666748047 -3.8462791442871094 -2.5
23.899810791015625 -1.9293944835662842 -2.5
-20.534765243530273 -6.855512619018555 -2.5
-19.916542053222656 -8.485644340515137 -2.5
-19.169139862060547 -10.060751914978027 -2.5
-18.29743194580078 -11.570600509643555 -2.5
-16.193822860717773 -14.346498489379883 -2.4983649253845215
-14.143129348754883 -14.7245454788208 -2.3577017784118652
-11.548291206359863 -16.7305850982666 -2.347599983215332
-8.833915710449219 -15.300776481628418 -2.0402841567993164
-7.556996822357178 -15.926054000854492 -2.0356762409210205
-6.035844802856445 -15.915228843688965 -1.9656157493591309
-5.278501033782959 -18.2235050201416 -2.190943956375122
-4.066357135772705 -19.918338775634766 -2.347599983215332
-2.4504101276397705 -20.180952072143555 -2.347599983215332
-0.8185693025588989 -20.312685012817383 -2.347599983215332
0.8185644149780273 -20.312685012817383 -2.347599983215332
4.066357135772705 -19.9183349609375 -2.347599983215332
5.655922889709473 -19.526552200317383 -2.347599983215332
7.208823204040527 -19.00811004638672 -2.347599983215332
7.83342981338501 -16.508588790893555 -2.110133409500122
9.211679458618164 -15.955062866210938 -2.127513885498047
11.548291206359863 -16.7305850982666 -2.347599983215332
14.143083572387695 -14.724535942077637 -2.357698917388916
16.193828582763672 -14.346484184265137 -2.4983649253845215
19.16914176940918 -10.060731887817383 -2.5
19.916532516479492 -8.485639572143555 -2.5
21.019805908203125 -5.180932521820068 -2.5
-19.154726028442383 -4.721235275268555 -2.5
-18.712709426879883 -6.247216701507568 -2.5
-16.67389678955078 -10.543930053710938 -2.5
-15.771395683288574 -11.85142993927002 -2.5
-13.666054725646973 -14.227861404418945 -2.5
-12.014692306518555 -14.715336799621582 -2.407393217086792
-10.523603439331055 -15.246078491210938 -2.347599983215332
-8.820741653442383 -15.2779541015625 -2.2356064319610596
-7.503774166107178 -15.8139009475708 -2.218158006668091
-3.705556631088257 -18.150976181030273 -2.347599983215332
-2.232988119125366 -18.390287399291992 -2.347599983215332
-0.7459374666213989 -18.510345458984375 -2.347599983215332
3.705561399459839 -18.15096664428711 -2.347599983215332
5.154077053070068 -17.793949127197266 -2.347599983215332
12.014684677124023 -14.715336799621582 -2.4073925018310547
15.77138614654541 -11.8514404296875 -2.5
16.67388916015625 -10.5439453125 -2.5
19.15471649169922 -4.721230506896973 -2.5
19.66400909423828 -1.5874364376068115 -2.5
-18.116058349609375 0.0 -2.5
-18.057310104370117 -1.457739233970642 -2.5
-17.881460189819336 -2.9060301780700684 -2.5
-16.666406631469727 -7.100888729095459 -2.5
-16.04097557067871 -8.4189453125 -2.5
-13.560068130493164 -12.01317310333252 -2.5
-12.5494384765625 -13.065336227416992 -2.5
-10.149808883666992 -14.704540252685547 -2.4656786918640137
-8.505849838256836 -14.732558250427246 -2.347599983215332
-2.050527334213257 -16.887670516967773 -2.347599983215332
1.8645946979522705 -15.356307983398438 -2.134722948074341
3.402778148651123 -16.667909622192383 -2.347599983215332
4.732949256896973 -16.340044021606445 -2.347599983215332
8.505846977233887 -14.73256778717041 -2.347599983215332
10.14980411529541 -14.704540252685547 -2.4656779766082764
13.56005573272705 -12.01317310333252 -2.5
17.881454467773438 -2.9060301780700684 -2.5
18.057310104370117 -1.4577343463897705 -2.5
-16.68946647644043 -1.3473193645477295 -2.5
-16.257211685180664 -4.007055759429932 -2.5
-15.88206958770752 -5.302211761474609 -2.5
-14.1516695022583 -8.948969841003418 -2.5
-13.3856782913208 -10.058686256408691 -2.5
-11.598817825317383 -12.075644493103027 -2.5
-9.511552810668945 -13.779833793640137 -2.5
-8.358930587768555 -14.478099822998047 -2.496134042739868
-5.585712909698486 -14.728320121765137 -2.3519108295440674
-4.374433517456055 -15.102290153503418 -2.347599983215332
-3.145024299621582 -15.405292510986328 -2.347599983215332
-0.633105456829071 -15.710307121276855 -2.347599983215332
0.633105456829071 -15.710307121276855 -2.347599983215332
1.8578808307647705 -15.30101490020752 -2.301365852355957
4.374423503875732 -15.102279663085938 -2.347599983215332
6.980414867401123 -14.710922241210938 -2.4312100410461426
8.358935356140137 -14.478095054626465 -2.496134042739868
12.532880783081055 -11.103163719177246 -2.5
13.385673522949219 -10.058691024780273 -2.5
16.689464569091797 -1.347314476966858 -2.5
-15.108915328979492 -3.7240283489227295 -2.5
-14.76025390625 -4.927690505981445 -2.5
-14.31588363647461 -6.099423885345459 -2.5
-13.778661727905273 -7.231601238250732 -2.5
-12.440199851989746 -9.348212242126465 -2.5
-11.6476411819458 -10.318921089172363 -2.5
-10.779555320739746 -11.222695350646973 -2.5
-9.841537475585938 -12.05370044708252 -2.5
-7.78054666519165 -13.476298332214355 -2.5
-6.670912742614746 -14.05868148803711 -2.5
-5.507826805114746 -14.522944450378418 -2.4953742027282715
-1.7873339653015137 -14.719989776611328 -2.3822410106658936
-0.5933056473731995 -14.722763061523438 -2.3672382831573486
1.787329077720642 -14.720004081726074 -2.3822412490844727
4.25955057144165 -14.70565414428711 -2.4596807956695557
5.507822036743164 -14.52294921875 -2.4953739643096924
6.670917987823486 -14.058671951293945 -2.5
8.839704513549805 -12.806528091430664 -2.5
9.841535568237305 -12.05370044708252 -2.5
12.440197944641113 -9.3482027053833 -2.5
13.152074813842773 -8.316874504089355 -2.5
15.510615348815918 -1.2521483898162842 -2.5
-14.531059265136719 4.882812390860636e-06 -2.5
-14.483935356140137 -1.1692675352096558 -2.5
-14.108808517456055 -3.4775242805480957 -2.5
-13.783242225646973 -4.601518630981445 -2.5
-12.866616249084473 -6.752910137176514 -2.5
-12.281503677368164 -7.766357421875 -2.5
-11.616747856140137 -8.729423522949219 -2.5
-10.066024780273438 -10.479828834533691 -2.5
-9.190093040466309 -11.255834579467773 -2.5
-8.254590034484863 -11.958823204040527 -2.5
-7.265536785125732 -12.58426284790039 -2.5
-4.042802810668945 -13.957338333129883 -2.5
-2.9065916538238525 -14.237387657165527 -2.5
0.5841357111930847 -14.49514102935791 -2.495845317840576
4.042797565460205 -13.957338333129883 -2.5
5.152773380279541 -13.58678150177002 -2.5
7.265527248382568 -12.584267616271973 -2.5
8.25457763671875 -11.958818435668945 -2.5
10.87664794921875 -9.635873794555664 -2.5
12.281496047973633 -7.766362190246582 -2.5
12.866608619689941 -6.752914905548096 -2.5
13.368270874023438 -5.695683479309082 -2.5
13.78322982788086 -4.601523399353027 -2.5
-13.625673294067383 4.882812390860636e-06 -2.5
-13.449223518371582 -2.185717821121216 -2.5
-12.924443244934082 -4.314824104309082 -2.5
-12.06494140625 -6.332158088684082 -2.5
-11.516283988952637 -7.28246545791626 -2.5
-10.198959350585938 -9.035497665405273 -2.5
-8.617499351501465 -10.554526329040527 -2.5
-5.841225624084473 -12.310121536254883 -2.5
-4.831737995147705 -12.740229606628418 -2.5
-0.5486523509025574 -13.614619255065918 -2.5
0.5486474633216858 -13.61461353302002 -2.5
1.6423925161361694 -13.526323318481445 -2.5
3.7908935546875 -13.087699890136719 -2.5
4.831723690032959 -12.74022388458252 -2.5
5.84121561050415 -12.310126304626465 -2.5
6.812831878662109 -11.800180435180664 -2.5
7.74026346206665 -11.213706016540527 -2.5
8.6174898147583 -10.554516792297363 -2.5
10.198959350585938 -9.035492897033691 -2.5
12.064933776855469 -6.332162857055664 -2.5
12.535334587097168 -5.340805530548096 -2.5
12.924443244934082 -4.3148193359375 -2.5
13.22973346710205 -3.2608447074890137 -2.5
13.449220657348633 -2.1857128143310547 -2.5
13.581483840942383 -1.096411108970642 -2.5
-12.7818603515625 -1.0318603515625 -2.5
-12.657392501831055 -2.0570361614227295 -2.5
-12.450824737548828 -3.068862199783325 -2.5
-12.1635103225708 -4.060776233673096 -2.5
-11.797314643859863 -5.0263671875 -2.5
-10.25161075592041 -7.703588485717773 -2.5
-9.598485946655273 -8.503520011901855 -2.5
-8.883119583129883 -9.248295783996582 -2.5
-6.411728382110596 -11.10543441772461 -2.5
-5.497309684753418 -11.585346221923828 -2.5
-4.547260761260986 -11.99013614654541 -2.5
1.545693278312683 -12.72994613647461 -2.5
2.565019369125366 -12.56429672241211 -2.5
3.567704916000366 -12.317152976989746 -2.5
5.497304439544678 -11.585355758666992 -2.5
8.883108139038086 -9.248305320739746 -2.5
9.598478317260742 -8.503524780273438 -2.5
10.251604080200195 -7.703588485717773 -2.5
11.797307014465332 -5.026357173919678 -2.5
12.65738296508789 -2.0570311546325684 -2.5
12.781862258911133 -1.0318603515625 -2.5
-12.10750961303711 9.765624781721272e-06 -2.5
-12.068246841430664 -0.9742528796195984 -2.5
-11.484418869018555 -3.8340673446655273 -2.5
-11.138671875 -4.745741844177246 -2.5
-10.720673561096191 -5.626645565032959 -2.5
-10.233149528503418 -6.471054553985596 -2.5
-9.679262161254883 -7.273496150970459 -2.5
-9.062602043151855 -8.028769493103027 -2.5
-8.38717269897461 -8.73196792602539 -2.5
-7.65734338760376 -9.378544807434082 -2.5
-6.053759574890137 -10.4854097366333 -2.5
-5.190400123596191 -10.938544273376465 -2.5
-3.3685302734375 -11.629487037658691 -2.5
-2.421821117401123 -11.86282730102539 -2.5
0.4875146448612213 -12.09769058227539 -2.5
4.293378829956055 -11.320717811584473 -2.5
6.877846717834473 -9.964286804199219 -2.5
9.679262161254883 -7.273490905761719 -2.5
10.233144760131836 -6.471054553985596 -2.5
11.484414100646973 -3.8340673446655273 -2.5
11.755682945251465 -2.897524356842041 -2.5
11.950722694396973 -1.9421923160552979 -2.5
-11.464516639709473 0.0 -2.5
-11.316059112548828 -1.8390429019927979 -2.5
-10.151323318481445 -5.327826976776123 -2.5
-8.581308364868164 -7.602382659912109 -2.5
-7.941747665405273 -8.268232345581055 -2.5
-7.250683307647705 -8.880473136901855 -2.5
-6.512587547302246 -9.435107231140137 -2.5
-5.732265472412109 -9.928559303283691 -2.5
-4.914751052856445 -10.357626914978027 -2.5
-4.065371036529541 -10.719501495361328 -2.5
-3.18963360786438 -11.01186466217041 -2.5
-2.293203115463257 -11.232827186584473 -2.5
1.381899356842041 -11.380927085876465 -2.5
2.2931933403015137 -11.232816696166992 -2.5
4.065366268157959 -10.71950626373291 -2.5
4.914745807647705 -10.357626914978027 -2.5
6.512578010559082 -9.435107231140137 -2.5
8.581305503845215 -7.602377891540527 -2.5
10.54711627960205 -4.493705749511719 -2.5
10.874499320983887 -3.630449056625366 -2.5
11.316044807434082 -1.8390429019927979 -2.5
-10.883706092834473 0.0 -2.5
-10.742768287658691 -1.7458739280700684 -2.5
-10.323593139648438 -3.446523427963257 -2.5
-10.012778282165527 -4.266044616699219 -2.5
-9.637036323547363 -5.057914733886719 -2.5
-9.198793411254883 -5.816972732543945 -2.5
-8.700898170471191 -6.538295745849609 -2.5
-8.146567344665527 -7.217236042022705 -2.5
-7.539409160614014 -7.849355220794678 -2.5
-6.883349418640137 -8.430571556091309 -2.5
-5.441855430603027 -9.425565719604492 -2.5
-3.8594188690185547 -10.176435470581055 -2.5
-2.1770262718200684 -10.663740158081055 -2.5
1.3118798732757568 -10.804340362548828 -2.5
3.028027296066284 -10.453989028930664 -2.5
3.8594090938568115 -10.176430702209473 -2.5
4.665756702423096 -9.832890510559082 -2.5
5.441845417022705 -9.42556095123291 -2.5
6.18264627456665 -8.957104682922363 -2.5
6.883339881896973 -8.43056583404541 -2.5
7.539394378662109 -7.84935998916626 -2.5
8.70089340209961 -6.538295745849609 -2.5
10.742755889892578 -1.7458691596984863 -2.5
10.848402976989746 -0.8757763504981995 -2.5
-10.35635757446289 0.0 -2.5
-10.32277774810791 -0.8333446979522705 -2.5
-9.823373794555664 -3.2795214653015137 -2.5
-9.527641296386719 -4.059345722198486 -2.5
-8.753090858459473 -5.535121917724609 -2.5
-8.27932071685791 -6.221513748168945 -2.5
-7.751845359802246 -6.867543697357178 -2.5
-6.549829006195068 -8.022089958190918 -2.5
-5.88308572769165 -8.523110389709473 -2.5
-3.67242169380188 -9.683359146118164 -2.5
-2.8813230991363525 -9.947465896606445 -2.5
0.41700682044029236 -10.347953796386719 -2.5
1.248315453529358 -10.280844688415527 -2.5
2.071537971496582 -10.147055625915527 -2.5
3.6724071502685547 -9.683368682861328 -2.5
4.439682483673096 -9.356454849243164 -2.5
5.178173542022705 -8.968862533569336 -2.5
5.883076190948486 -8.523110389709473 -2.5
7.174091815948486 -7.469033241271973 -2.5
7.751840591430664 -6.867534160614014 -2.5
8.279311180114746 -6.221498966217041 -2.5
8.753083229064941 -5.535117149353027 -2.5
9.170097351074219 -4.812831878662109 -2.5
9.527631759643555 -4.059345722198486 -2.5
9.823378562927246 -3.2795262336730957 -2.5
10.055415153503418 -2.4784374237060547 -2.5
10.222238540649414 -1.66128408908844 -2.5
-9.747421264648438 -1.5841113328933716 -2.5
-8.346508979797363 -5.278012752532959 -2.5
-7.894745826721191 -5.932509422302246 -2.5
-6.840864181518555 -7.122089862823486 -2.5
-4.937655925750732 -8.552265167236328 -2.5
-4.233466625213623 -8.921850204467773 -2.5
-3.501835823059082 -9.233569145202637 -2.5
-2.747485399246216 -9.485404968261719 -2.5
-0.3976415991783142 -9.867294311523438 -2.5
1.190332055091858 -9.803296089172363 -2.5
1.975307583808899 -9.675726890563965 -2.5
3.501826047897339 -9.233569145202637 -2.5
4.233461856842041 -8.92184066772461 -2.5
6.245585918426514 -7.649462699890137 -2.5
6.840854167938232 -7.122094631195068 -2.5
7.391762733459473 -6.548540115356445 -2.5
8.346501350402832 -5.278012752532959 -2.5
9.085075378417969 -3.870790958404541 -2.5
9.367079734802246 -3.127192258834839 -2.5
9.747416496276855 -1.5841113328933716 -2.5
9.843278884887695 -0.794628918170929 -2.5
-9.434598922729492 0.0 -2.5
-9.160449028015137 -2.257861375808716 -2.5
-8.94906234741211 -2.9876415729522705 -2.5
-8.353930473327637 -4.384487152099609 -2.5
-7.542421817779541 -5.667763710021973 -2.5
-7.061899185180664 -6.256303787231445 -2.5
-4.044540882110596 -8.523700714111328 -2.5
-3.3455615043640137 -8.821503639221191 -2.5
-0.37989744544029236 -9.426942825317383 -2.5
1.13720703125 -9.36581039428711 -2.5
1.8871630430221558 -9.243926048278809 -2.5
2.624868154525757 -9.06209945678711 -2.5
4.044536113739014 -8.523691177368164 -2.5
5.359457969665527 -7.76452112197876 -2.5
6.535571098327637 -6.804257869720459 -2.5
7.061899185180664 -6.256298542022705 -2.5
7.974023342132568 -5.042475700378418 -2.5
8.679640769958496 -3.6980419158935547 -2.5
9.160444259643555 -2.2578563690185547 -2.5
9.312423706054688 -1.5134179592132568 -2.5
-9.0 -0.7265576124191284 -2.5
-8.56459903717041 -2.8592822551727295 -2.5
-8.306747436523438 -3.539174795150757 -2.5
-7.631454944610596 -4.825839519500732 -2.5
-7.218398094177246 -5.424277305603027 -2.5
-6.758515357971191 -5.987524509429932 -2.5
-5.710522174835205 -6.994125843048096 -2.5
-5.129218578338623 -7.430952072143555 -2.5
-4.514638423919678 -7.819584846496582 -2.5
-3.2018308639526367 -8.442519187927246 -2.5
-2.5121045112609863 -8.672778129577637 -2.5
-1.8060888051986694 -8.846796989440918 -2.5
-0.3635790944099426 -9.021952629089355 -2.5
0.36356931924819946 -9.021957397460938 -2.5
1.8060888051986694 -8.846796989440918 -2.5
3.2018163204193115 -8.442519187927246 -2.5
3.8707761764526367 -8.15750503540039 -2.5
4.514633655548096 -7.819584846496582 -2.5
5.129213809967041 -7.430947303771973 -2.5
5.710522174835205 -6.994121074676514 -2.5
6.254794597625732 -6.511938095092773 -2.5
7.218388557434082 -5.424262523651123 -2.5
7.631450176239014 -4.825844764709473 -2.5
7.99502420425415 -4.196108341217041 -2.5
8.306747436523438 -3.5391697883605957 -2.5
8.766899108886719 -2.1608543395996094 -2.5
-8.655156135559082 -4.882812390860636e-06 -2.5
-8.627084732055664 -0.6964501738548279 -2.5
-8.543070793151855 -1.3883886337280273 -2.5
-8.403647422790527 -2.0713231563568115 -2.5
-8.209726333618164 -2.7408154010772705 -2.5
-7.315248966217041 -4.625888347625732 -2.5
-5.995639324188232 -6.242118835449219 -2.5
-5.473910808563232 -6.704330921173096 -2.5
-4.327578067779541 -7.495585918426514 -2.5
-1.731264591217041 -8.480234146118164 -2.5
-1.0432714223861694 -8.592045783996582 -2.5
-0.3485058546066284 -8.648134231567383 -2.5
0.34850096702575684 -8.648134231567383 -2.5
1.0432616472244263 -8.592045783996582 -2.5
3.069155216217041 -8.0927095413208 -2.5
3.710395336151123 -7.819497108459473 -2.5
5.47390604019165 -6.704326152801514 -2.5
5.995629787445068 -6.242118835449219 -2.5
6.478466510772705 -5.739428520202637 -2.5
7.663754940032959 -4.022250652313232 -2.5
7.962560653686523 -3.392529249191284 -2.5
8.209726333618164 -2.7408103942871094 -2.5
8.403642654418945 -2.0713183879852295 -2.5
8.543075561523438 -1.3883837461471558 -2.5
-8.30868148803711 0.0 -2.5
-8.067240715026855 -1.9884082078933716 -2.5
-7.881083965301514 -2.631093740463257 -2.5
-7.356967449188232 -3.8612353801727295 -2.5
-6.642314434051514 -4.991381645202637 -2.5
-5.755634784698486 -5.992240905761719 -2.5
-5.25478982925415 -6.435946941375732 -2.5
-4.154340744018555 -7.195517539978027 -2.5
-3.5618650913238525 -7.506484031677246 -2.5
-2.946298837661743 -7.768744945526123 -2.5
-1.001503825187683 -8.248090744018555 -2.5
-0.3345605432987213 -8.301933288574219 -2.5
1.001499056816101 -8.248100280761719 -2.5
4.154335975646973 -7.195517539978027 -2.5
4.719868183135986 -6.837895393371582 -2.5
6.219130516052246 -5.50967264175415 -2.5
6.642309188842773 -4.991376876831055 -2.5
7.022402286529541 -4.44070291519165 -2.5
7.643818378448486 -3.256723642349243 -2.5
7.881078720092773 -2.631093740463257 -2.5
8.201079368591309 -1.3328075408935547 -2.5
8.281728744506836 -0.6685693264007568 -2.5
-7.883388519287109 -1.2811766862869263 -2.5
-7.347700119018555 -3.130566358566284 -2.5
-7.071977615356445 -3.7116551399230957 -2.5
-6.38500452041626 -4.798017501831055 -2.5
-5.532660961151123 -5.760107517242432 -2.5
-5.051215648651123 -6.186635494232178 -2.5
-3.423881769180298 -7.21569299697876 -2.5
-2.2220752239227295 -7.671474456787109 -2.5
-0.9627099633216858 -7.92858362197876 -2.5
0.3215917944908142 -7.980331897735596 -2.5
1.59756338596344 -7.825405120849609 -2.5
2.2220654487609863 -7.671479225158691 -2.5
5.532656192779541 -5.760107517242432 -2.5
5.978217601776123 -5.296235084533691 -2.5
6.384994983673096 -4.798017501831055 -2.5
6.750370979309082 -4.268681526184082 -2.5
7.071972370147705 -3.7116503715515137 -2.5
7.575780868530273 -2.529169797897339 -2.5
7.754726409912109 -1.9113720655441284 -2.5
7.960912704467773 -0.6426708698272705 -2.5
-7.587421894073486 -1.2330809831619263 -2.5
-7.291367053985596 -2.434213876724243 -2.5
-6.806469440460205 -3.5723094940185547 -2.5
-6.496953010559082 -4.108422756195068 -2.5
-6.145287990570068 -4.617885589599609 -2.5
-5.753774166107178 -5.097402095794678 -2.5
-4.861591815948486 -5.954365253448486 -2.5
-4.366694450378418 -6.326250076293945 -2.5
-3.8434765338897705 -6.657109260559082 -2.5
-3.29534649848938 -6.944794654846191 -2.5
-0.9265673756599426 -7.630918025970459 -2.5
0.926562488079071 -7.630918025970459 -2.5
1.5375878810882568 -7.53161096572876 -2.5
2.1386425495147705 -7.383461952209473 -2.5
3.2953367233276367 -6.944789886474609 -2.5
5.324941158294678 -5.543857097625732 -2.5
6.145283222198486 -4.617885589599609 -2.5
6.49694299697876 -4.108417987823486 -2.5
6.806469440460205 -3.5723047256469727 -2.5
7.071850299835205 -3.0130271911621094 -2.5
7.291362285614014 -2.434218645095825 -2.5
7.463588714599609 -1.8396093845367432 -2.5
-7.382851600646973 -0.5960058569908142 -2.5
-7.310956954956055 -1.188149333000183 -2.5
-7.025688171386719 -2.345522403717041 -2.5
-6.814174652099609 -2.9032421112060547 -2.5
-6.558461666107178 -3.442148447036743 -2.5
-5.921376705169678 -4.449624061584473 -2.5
-4.684443473815918 -5.737411975860596 -2.5
-3.703447103500366 -6.414540767669678 -2.5
-3.1752734184265137 -6.691742897033691 -2.5
-2.626518487930298 -6.925551414489746 -2.5
-1.4815722703933716 -7.257182598114014 -2.5
-0.8928076028823853 -7.352870941162109 -2.5
0.8927978277206421 -7.352866172790527 -2.5
2.060722589492798 -7.114428520202637 -2.5
3.1752684116363525 -6.691742897033691 -2.5
3.703437328338623 -6.414540767669678 -2.5
4.684438228607178 -5.737402439117432 -2.5
5.130912780761719 -5.341860294342041 -2.5
5.921367168426514 -4.449624061584473 -2.5
6.558461666107178 -3.442143440246582 -2.5
6.814169883728027 -2.9032421112060547 -2.5
7.025683403015137 -2.345522403717041 -2.5
7.310952186584473 -1.1881444454193115 -2.5
-7.121420860290527 -0.574902355670929 -2.5
-7.052070140838623 -1.1460741758346558 -2.5
-6.776904106140137 -2.2624707221984863 -2.5
-6.038539886474609 -3.818544864654541 -2.5
-4.949238300323486 -5.152695178985596 -2.5
-4.05859375 -5.8798828125 -2.5
-3.0628318786621094 -6.454780101776123 -2.5
-0.8611816167831421 -7.092494964599609 -2.5
0.28768065571784973 -7.1387939453125 -2.5
0.8611816167831421 -7.092494964599609 -2.5
1.429101586341858 -7.000195026397705 -2.5
2.533500909805298 -6.680307388305664 -2.5
3.0628271102905273 -6.454780101776123 -2.5
3.5722851753234863 -6.187397480010986 -2.5
4.518559455871582 -5.534228324890137 -2.5
6.038530349731445 -3.81853985786438 -2.5
6.57287073135376 -2.8004345893859863 -2.5
6.776899337768555 -2.262460947036743 -2.5
6.936977386474609 -1.709814429283142 -2.5
7.121425628662109 -0.5748974680900574 -2.5
-6.898412704467773 0.0 -2.5
-6.80908203125 -1.1065967082977295 -2.5
-6.697954177856445 -1.65090811252594 -2.5
-6.543398380279541 -2.184506893157959 -2.5
-5.514887809753418 -4.144169807434082 -2.5
-5.163535118103027 -4.57449197769165 -2.5
-4.778706073760986 -4.975151062011719 -2.5
-2.446215867996216 -6.450121879577637 -2.5
-1.3798681497573853 -6.758994102478027 -2.5
-0.8315185308456421 -6.848114967346191 -2.5
-0.2777783274650574 -6.892812252044678 -2.5
1.919252872467041 -6.626039981842041 -2.5
2.9572949409484863 -6.232372760772705 -2.5
3.4491991996765137 -5.974199295043945 -2.5
4.362865924835205 -5.343544960021973 -2.5
5.163535118103027 -4.574487209320068 -2.5
5.514877796173096 -4.144169807434082 -2.5
6.346396446228027 -2.7039501667022705 -2.5
6.543388366699219 -2.184506893157959 -2.5
6.809072017669678 -1.1065820455551147 -2.5
6.876039981842041 -0.5550927519798279 -2.5
-6.645224571228027 -0.5364599227905273 -2.5
-6.580507755279541 -1.0694384574890137 -2.5
-6.323740005493164 -2.1111767292022705 -2.5
-5.9031982421875 -3.0982372760772705 -2.5
-5.634746074676514 -3.5632030963897705 -2.5
-4.990195274353027 -4.420937538146973 -2.5
-4.6182861328125 -4.808144569396973 -2.5
-2.858027219772339 -6.023159027099609 -2.5
-2.3640966415405273 -6.233598709106445 -2.5
-1.854833960533142 -6.403617858886719 -2.5
-0.80360347032547 -6.618227481842041 -2.5
-0.26845213770866394 -6.661435604095459 -2.5
0.2684423625469208 -6.661435604095459 -2.5
1.854824185371399 -6.403617858886719 -2.5
3.3334226608276367 -5.773657321929932 -2.5
3.7871971130371094 -5.486703872680664 -2.5
4.216406345367432 -5.164169788360596 -2.5
5.329755783081055 -4.005048751831055 -2.5
5.90319299697876 -3.0982322692871094 -2.5
6.133354187011719 -2.6131787300109863 -2.5
6.323735237121582 -2.1111717224121094 -2.5
6.580502986907959 -1.0694384574890137 -2.5
6.645219802856445 -0.5364599227905273 -2.5
-6.448564529418945 4.882812390860636e-06 -2.5
-6.427656173706055 -0.5188964605331421 -2.5
-6.11669397354126 -2.042055606842041 -2.5
-5.932553768157959 -2.5276269912719727 -2.5
-5.155253887176514 -3.8739256858825684 -2.5
-4.826816082000732 -4.276191234588623 -2.5
-4.467080116271973 -4.650722503662109 -2.5
-3.6632080078125 -5.307065486907959 -2.5
-2.286694288253784 -6.029511451721191 -2.5
-1.794106364250183 -6.193959712982178 -2.5
0.7772851586341858 -6.401542663574219 -2.5
2.7644383907318115 -5.825961589813232 -2.5
3.663198232650757 -5.307060241699219 -2.5
4.078364372253418 -4.995087623596191 -2.5
4.467074871063232 -4.650727272033691 -2.5
5.155258655548096 -3.8739209175109863 -2.5
5.450253963470459 -3.446542978286743 -2.5
5.932548522949219 -2.5276172161102295 -2.5
6.11669397354126 -2.042050838470459 -2.5
-6.24242639541626 0.0 -2.5
-5.27603006362915 -3.33636212348938 -2.5
-4.990463733673096 -3.7500877380371094 -2.5
-4.324277400970459 -4.502045631408691 -2.5
-3.947988271713257 -4.835414886474609 -2.5
-2.676074266433716 -5.639711856842041 -2.5
-1.7367528676986694 -5.995952129364014 -2.5
-1.2486474514007568 -6.116269588470459 -2.5
-0.25135740637779236 -6.237358093261719 -2.5
0.2513525187969208 -6.237353324890137 -2.5
0.7524365186691284 -6.196908950805664 -2.5
1.2486425638198853 -6.116264343261719 -2.5
2.676074266433716 -5.639716625213623 -2.5
3.546093702316284 -5.137407302856445 -2.5
3.9479832649230957 -4.835410118103027 -2.5
4.67251443862915 -4.139492034912109 -2.5
4.990454196929932 -3.7500877380371094 -2.5
5.742895603179932 -2.4468212127685547 -2.5
5.921162128448486 -1.9767773151397705 -2.5
6.061020374298096 -1.4939160346984863 -2.5
6.222177505493164 -0.5023095607757568 -2.5
-6.047377586364746 0.0 -2.5
-5.969062328338623 -0.9700683355331421 -2.5
-5.871650218963623 -1.4472362995147705 -2.5
-5.563461780548096 -2.370371103286743 -2.5
-5.354692459106445 -2.81036114692688 -2.5
-5.111181735992432 -3.23211407661438 -2.5
-4.834536075592041 -3.6329197883605957 -2.5
-2.592465877532959 -5.463505744934082 -2.5
-2.1444334983825684 -5.654394626617432 -2.5
-1.209633708000183 -5.925160884857178 -2.5
-0.24350585043430328 -6.042470455169678 -2.5
1.2096288204193115 -5.925160884857178 -2.5
1.6824804544448853 -5.808608055114746 -2.5
3.023686408996582 -5.237177848815918 -2.5
3.435297727584839 -4.976889610290527 -2.5
3.8246335983276367 -4.684326171875 -2.5
4.52651834487915 -4.010146617889404 -2.5
4.834531307220459 -3.6329150199890137 -2.5
5.354677677154541 -2.810356378555298 -2.5
5.736152172088623 -1.915014624595642 -2.5
5.871645450592041 -1.447231411933899 -2.5
5.969057559967041 -0.9700683355331421 -2.5
6.027763366699219 -0.4866113066673279 -2.5
-5.862524509429932 -4.882812390860636e-06 -2.5
-5.843510627746582 -0.4717431664466858 -2.5
-5.393403053283691 -2.297919988632202 -2.5
-5.191000938415527 -2.7244529724121094 -2.5
-4.388154029846191 -3.8875732421875 -2.5
-3.707719564437866 -4.541142463684082 -2.5
-1.6310595273971558 -5.631049633026123 -2.5
-1.1726561784744263 -5.744038105010986 -2.5
-0.7066552639007568 -5.819770336151123 -2.5
-0.23605956137180328 -5.857763767242432 -2.5
1.1726561784744263 -5.744038105010986 -2.5
1.6310497522354126 -5.631054401397705 -2.5
2.0788769721984863 -5.481547832489014 -2.5
2.9312548637390137 -5.077085018157959 -2.5
4.388154029846191 -3.887568235397339 -2.5
4.686743259429932 -3.521860361099243 -2.5
5.190996170043945 -2.7244482040405273 -2.5
5.393398284912109 -2.297910213470459 -2.5
5.786601543426514 -0.9404150247573853 -2.5
5.84350061416626 -0.4717382788658142 -2.5
-5.668583869934082 -0.4576171636581421 -2.5
-5.613379001617432 -0.9122704863548279 -2.5
-5.521772384643555 -1.3609960079193115 -2.5
-5.231943130493164 -2.229120969772339 -2.5
-4.806621074676514 -3.0395262241363525 -2.5
-4.546450138092041 -3.416435480117798 -2.5
-3.9395458698272705 -4.101503849029541 -2.5
-3.59673810005188 -4.405195236206055 -2.5
-2.43798828125 -5.137939453125 -2.5
-0.22899413108825684 -5.682412147521973 -2.5
0.22898925840854645 -5.682406902313232 -2.5
1.1375536918640137 -5.572084903717041 -2.5
1.5822265148162842 -5.462490081787109 -2.5
4.256796836853027 -3.771191358566284 -2.5
4.546445369720459 -3.416435480117798 -2.5
4.806611061096191 -3.0395262241363525 -2.5
5.231943130493164 -2.229120969772339 -2.5
5.394350528717041 -1.8008935451507568 -2.5
5.613373756408691 -0.9122558236122131 -2.5
5.668583869934082 -0.4576074182987213 -2.5
-5.359755516052246 -1.321069359779358 -2.5
-5.236073970794678 -1.7480615377426147 -2.5
-5.078432559967041 -2.1637158393859863 -2.5
-4.665580749511719 -2.9503417015075684 -2.5
-4.413056373596191 -3.3161914348602295 -2.5
-4.131894588470459 -3.6605467796325684 -2.5
-2.366450071334839 -4.9871826171875 -2.5
-1.9574804306030273 -5.161435604095459 -2.5
-1.5358104705810547 -5.302206993103027 -2.5
-0.6653857231140137 -5.479907035827637 -2.5
-0.22227539122104645 -5.515673637390137 -2.5
0.22227050364017487 -5.515683650970459 -2.5
3.13580060005188 -4.543002605438232 -2.5
4.665580749511719 -2.9503369331359863 -2.5
5.078427791595459 -2.163710832595825 -2.5
5.236069202423096 -1.7480566501617432 -2.5
5.502260684967041 -0.4441894292831421 -2.5
-5.343891620635986 -0.4314062297344208 -2.5
-5.291845798492432 -0.8600097298622131 -2.5
-5.08535623550415 -1.6977392435073853 -2.5
-4.932260513305664 -2.1014404296875 -2.5
-4.531289100646973 -2.86541485786438 -2.5
-4.286030292510986 -3.2207422256469727 -2.5
-3.7138867378234863 -3.866567373275757 -2.5
-3.3907127380371094 -4.152865886688232 -2.5
-1.9011377096176147 -5.012866020202637 -2.5
-1.491601586341858 -5.149589538574219 -2.5
-0.646240234375 -5.322182655334473 -2.5
-0.2158789038658142 -5.356918811798096 -2.5
1.0723876953125 -5.252914905548096 -2.5
1.4915966987609863 -5.149594783782959 -2.5
1.9011279344558716 -5.012866020202637 -2.5
2.298330068588257 -4.843637466430664 -2.5
3.045542001724243 -4.412236213684082 -2.5
3.3907079696655273 -4.152865886688232 -2.5
4.531289100646973 -2.86541485786438 -2.5
4.747162818908691 -2.491503953933716 -2.5
5.08535623550415 -1.6977490186691284 -2.5
5.205478191375732 -1.2830370664596558 -2.5
5.3438720703125 -0.4314062297344208 -2.5
