ply
format ascii 1.0
element vertex 884
property float x
property float y
property float z
end_header
24.320722579956055 15.379521369934082 7.71035623550415
20.517169952392578 15.4176607131958 6.876735687255859
6.497758865356445 6.76488733291626 2.5133650302886963
8.814382553100586 15.266996383666992 4.723620891571045
18.586000442504883 6.204921722412109 5.018258094787598
24.320707321166992 15.379521369934082 7.369585990905762
17.553434371948242 15.55101490020752 6.006001949310303
6.496615886688232 6.763696193695068 2.4018609523773193
12.737627029418945 15.60079574584961 5.1580657958984375
8.830184936523438 15.294344902038574 4.522943019866943
9.3900728225708 19.78921890258789 5.609768390655518
8.67052936553955 22.862342834472656 6.262135028839111
24.320716857910156 15.379521369934082 7.030736446380615
17.553434371948242 15.55101490020752 5.729855060577393
12.737627029418945 15.60079574584961 4.920907974243164
10.781940460205078 15.620341300964355 4.637440204620361
9.3900728225708 19.789213180541992 5.351840496063232
9.088393211364746 23.96417236328125 6.262135028839111
23.198686599731445 14.669989585876465 6.384921550750732
20.480628967285156 15.390199661254883 5.95939826965332
17.55344009399414 15.55101490020752 5.455202579498291
5.564120769500732 6.81481409072876 2.0465385913848877
10.781428337097168 15.619599342346191 4.414942741394043
9.002799987792969 15.5933198928833 4.18845796585083
18.591825485229492 6.206865310668945 4.3310980796813965
17.553443908691406 15.55101490020752 5.181962966918945
12.72319507598877 15.583109855651855 4.445322036743164
9.390021324157715 19.789106369018555 4.840065956115723
9.443312644958496 24.899980545043945 5.884499549865723
-25.866743087768555 13.575898170471191 6.455057621002197
17.553434371948242 15.55101490020752 4.910052299499512
6.492111682891846 6.759013652801514 1.962215542793274
12.79880142211914 15.6757173538208 4.237098693847656
10.780937194824219 15.61888599395752 3.9735662937164307
9.443312644958496 24.899980545043945 5.575727462768555
-17.93950653076172 4.421699047088623 3.86846661567688
-25.19300651550293 2.0337889194488525 5.291907787322998
18.595661163330078 6.208144187927246 3.878427028656006
20.480628967285156 15.390199661254883 5.068199157714844
6.490993499755859 6.757846355438232 1.8537386655807495
12.868522644042969 15.7611083984375 4.025352478027344
10.74031925201416 15.560043334960938 3.740391731262207
9.002795219421387 15.5933198928833 3.562095880508423
9.327143669128418 19.65658950805664 4.304288387298584
9.443312644958496 24.899999618530273 5.268388748168945
18.59756851196289 6.208784103393555 3.653533935546875
24.477855682373047 15.478891372680664 5.396726131439209
20.384096145629883 15.317666053771973 4.7513322830200195
6.489885330200195 6.756694316864014 1.745772361755371
10.82297134399414 15.679789543151855 3.5502562522888184
-25.79619598388672 13.538871765136719 5.428706645965576
17.62502098083496 15.614433288574219 4.11831521987915
-25.772968292236328 13.526674270629883 5.090752601623535
20.570566177368164 15.457782745361328 4.2070465087890625
6.487685203552246 6.754404067993164 1.5312557220458984
18.0430908203125 22.09880256652832 4.664515495300293
9.482282638549805 19.983539581298828 3.6164731979370117
18.603240966796875 6.210678577423096 2.983912229537964
24.50400733947754 15.4954195022583 4.410970211029053
20.57056999206543 15.457782745361328 3.9148051738739014
18.074934005737305 22.137813568115234 4.348159313201904
9.002795219421387 15.5933198928833 2.739422559738159
9.543566703796387 20.112707138061523 3.3870153427124023
-18.384014129638672 1.4841113090515137 2.8060944080352783
18.605119705200195 6.2113037109375 2.7621898651123047
24.61054229736328 15.562797546386719 4.100549221038818
15.702482223510742 13.911200523376465 2.9542388916015625
6.485507488250732 6.752138614654541 1.3184337615966797
9.002795219421387 15.5933198928833 2.535612106323242
24.8342227935791 15.704237937927246 3.806256055831909
20.570566177368164 15.457782745361328 3.333193778991699
15.70241928100586 13.91115665435791 2.717503547668457
18.38614273071289 22.518966674804688 3.765906810760498
-25.68128776550293 13.478564262390137 3.7570788860321045
25.06683349609375 15.851327896118164 3.5082030296325684
20.570566177368164 15.457782745361328 3.043674945831299
15.702360153198242 13.911103248596191 2.4814577102661133
18.598363876342773 22.778900146484375 3.478497266769409
9.002795219421387 15.593315124511719 2.129840612411499
9.814228057861328 25.878028869628906 3.273793935775757
-25.680395126342773 13.478099822998047 3.4306304454803467
18.610727310180664 6.213178634643555 2.100670337677002
15.702455520629883 13.911181449890137 2.2460434436798096
6.482954025268555 6.749482154846191 1.001985788345337
10.681303024291992 15.4745454788208 2.0131444931030273
9.002795219421387 15.5933198928833 1.9277749061584473
9.84613037109375 25.962133407592773 2.972827196121216
-25.682241439819336 13.4790620803833 3.1053760051727295
13.488813400268555 16.52082061767578 2.044710636138916
9.002795219421387 15.5933198928833 1.7261900901794434
18.614444732666016 6.214414119720459 1.6621392965316772
20.467281341552734 15.380170822143555 2.1684253215789795
15.700119018554688 13.909111022949219 1.7765460014343262
6.482807636260986 6.749326229095459 0.7926369905471802
10.738146781921387 15.556894302368164 1.6010442972183228
9.002795219421387 15.593315124511719 1.5250332355499268
-25.6859130859375 13.48099136352539 2.4569664001464844
25.222978591918945 15.950068473815918 2.1948540210723877
13.569589614868164 16.61975860595703 1.5780065059661865
9.780961990356445 25.790283203125 2.028618812561035
-25.6877384185791 13.481947898864746 2.1336452960968018
20.570566177368164 15.457782745361328 1.6059823036193848
15.693713188171387 13.903451919555664 1.3086084127426147
13.569965362548828 16.620220184326172 1.3391860723495483
10.737284660339355 15.55565357208252 1.1797168254852295
9.002799987792969 15.5933198928833 1.1238141059875488
9.416962623596191 19.845888137817383 1.371035099029541
-25.6895694732666 13.48291015625 1.8108031749725342
25.31479835510254 16.00814437866211 1.536415696144104
13.57034683227539 16.620677947998047 1.1006792783737183
10.736857414245605 15.555033683776855 0.969547688961029
9.002795219421387 15.593315124511719 0.9235919117927551
9.813207626342773 25.875308990478516 1.4195648431777954
-25.691396713256836 13.483866691589355 1.488362431526184
25.315378189086914 16.008501052856445 1.203837275505066
20.570566177368164 15.457782745361328 1.0341808795928955
10.736434936523438 15.554413795471191 0.7596297860145569
9.002795219421387 15.5933198928833 0.7236874103546143
-25.693212509155273 13.48482894897461 1.1662423610687256
18.623685836791992 6.217499732971191 0.5712936520576477
13.57115650177002 16.621681213378906 0.6243698000907898
10.736005783081055 15.55379867553711 0.549908459186554
9.002795219421387 15.5933198928833 0.5239077806472778
9.4176025390625 19.847230911254883 0.6392166018486023
-25.695037841796875 13.485780715942383 0.8443673253059387
25.316518783569336 16.009227752685547 0.5394421219825745
20.570566177368164 15.457782745361328 0.4633978307247162
6.465966701507568 6.731791973114014 0.1681002825498581
10.735578536987305 15.553183555603027 0.34035125374794006
9.002795219421387 15.593315124511719 0.3242724537849426
-25.69685935974121 13.486738204956055 0.5226461887359619
18.62737464904785 6.218730449676514 0.13601134717464447
20.570566177368164 15.45778751373291 0.178211972117424
6.465969085693359 6.731791973114014 0.06464782357215881
13.571982383728027 16.622682571411133 0.1486242711544037
9.002795219421387 15.5933198928833 0.12468688935041428
9.418025016784668 19.848125457763672 0.15215331315994263
9.81399154663086 25.87737464904785 0.19167785346508026
-25.698680877685547 13.48769474029541 0.20101134479045868
18.629220962524414 6.219345569610596 -0.08161666989326477
25.31766128540039 16.009950637817383 -0.12448272109031677
20.570566177368164 15.457782745361328 -0.10692992806434631
13.572397232055664 16.623193740844727 -0.08917571604251862
10.734716415405273 15.5519380569458 -0.07852966338396072
9.002795219421387 15.5933198928833 -0.07485366612672806
9.418234825134277 19.848573684692383 -0.09129089117050171
9.814187049865723 25.87788963317871 -0.11502014100551605
25.318233489990234 16.01030731201172 -0.4564691185951233
9.418449401855469 19.84902000427246 -0.33477920293807983
-25.70231819152832 13.489603996276855 -0.4423210024833679
18.632909774780273 6.2205810546875 -0.517112135887146
25.318803787231445 16.01066780090332 -0.7885826230049133
20.570566177368164 15.457782745361328 -0.6773595809936523
6.465969085693359 6.731791973114014 -0.24571487307548523
13.57321548461914 16.62419319152832 -0.5649703741073608
9.41866397857666 19.849468231201172 -0.5783619284629822
-25.704145431518555 13.490556716918945 -0.7641775608062744
18.634756088256836 6.221200942993164 -0.7350932359695435
20.569679260253906 15.45711898803711 -0.9627490043640137
9.418869018554688 19.849916458129883 -0.822100043296814
9.814789772033691 25.879512786865234 -1.035643458366394
-3.541459798812866 29.166418075561523 -1.0993444919586182
18.636608123779297 6.221816062927246 -0.9532963633537292
25.319950103759766 16.01140022277832 -1.4535284042358398
6.319418907165527 6.57921838760376 -0.4426051378250122
10.732999801635742 15.549443244934082 -0.916723906993866
9.002790451049805 15.5933198928833 -0.873646080493927
9.419084548950195 19.850366592407227 -1.0660498142242432
9.815014839172363 25.880075454711914 -1.342950701713562
-1.1373095512390137 28.222158432006836 -1.3704315423965454
-2.4262890815734863 19.98223876953125 -0.9766461253166199
-25.707792282104492 13.49246597290039 -1.408681035041809
18.63846206665039 6.222431659698486 -1.171777606010437
25.259357452392578 15.973075866699219 -1.7822034358978271
20.567367553710938 15.4553804397583 -1.5341949462890625
6.319418907165527 6.57921838760376 -0.5440042018890381
13.574445724487305 16.625699996948242 -1.2799383401870728
10.732572555541992 15.54881763458252 -1.1266658306121826
9.002795219421387 15.5933198928833 -1.0737284421920776
9.419299125671387 19.850812911987305 -1.310267448425293
9.792912483215332 25.82182502746582 -1.646862506866455
25.259931564331055 15.9734468460083 -2.1148436069488525
20.487043380737305 15.39501953125 -1.8133938312530518
13.57485580444336 16.62620735168457 -1.51883864402771
10.73214340209961 15.548188209533691 -1.3368687629699707
9.002790451049805 15.593315124511719 -1.2741124629974365
9.419508934020996 19.851261138916016 -1.5548371076583862
-2.3009424209594727 18.94990348815918 -1.3507822751998901
-24.929330825805664 13.083906173706055 -1.9922491312026978
28.290170669555664 4.597621917724609 -2.347599983215332
27.82847785949707 6.859120845794678 -2.347599983215332
18.64217185974121 6.223671913146973 -1.609794020652771
25.37834358215332 13.319584846496582 -2.347599983215332
24.224267959594727 15.318520545959473 -2.347599983215332
20.485885620117188 15.39415454864502 -2.098917245864868
21.45330047607422 19.00599479675293 -2.347599983215332
13.520983695983887 16.560224533081055 -1.75110924243927
9.002795219421387 15.5933198928833 -1.4747768640518188
7.974086761474609 27.529735565185547 -2.347599983215332
-1.07666015625 26.71690559387207 -2.1901113986968994
-2.221870183944702 18.298686981201172 -1.5098217725753784
-24.22427749633789 15.31850528717041 -2.347599983215332
-24.81658172607422 13.024725914001465 -2.2956323623657227
-28.29020881652832 4.597631931304932 -2.347599983215332
26.773054122924805 2.1613523960113525 -2.5
24.48983383178711 6.036201000213623 -2.347599983215332
21.318021774291992 13.480722427368164 -2.347599983215332
20.16415023803711 15.152382850646973 -2.347599983215332
18.879497528076172 16.725797653198242 -2.347599983215332
13.521364212036133 16.56068992614746 -1.9898912906646729
8.944113731384277 23.583690643310547 -2.347599983215332
4.776015281677246 23.39443016052246 -2.2223410606384277
-1.08154296875 26.83837890625 -2.5
-2.1715917587280273 17.884584426879883 -1.6768276691436768
-7.472978115081787 25.799665451049805 -2.5
-15.225146293640137 22.057403564453125 -2.4945640563964844
-17.472415924072266 18.19072151184082 -2.347599983215332
-18.879501342773438 16.725786209106445 -2.347599983215332
-21.318021774291992 13.480708122253418 -2.347599983215332
-22.333642959594727 11.72159194946289 -2.347599983215332
-25.898109436035156 4.208877086639404 -2.4420831203460693
23.97756576538086 9.765624781721272e-06 -2.5
23.89981460571289 1.9294042587280273 -2.5
23.652006149291992 3.8438427448272705 -2.4984092712402344
21.86162567138672 5.388422966003418 -2.347599983215332
17.43670082092285 7.429086685180664 -1.9761559963226318
19.03019905090332 12.033988952636719 -2.347599983215332
13.521774291992188 16.561199188232422 -2.229184627532959
9.392997741699219 19.795377731323242 -2.284514904022217
4.503759860992432 22.06085968017578 -2.347599983215332
-2.1585447788238525 17.77716064453125 -1.8671331405639648
-6.670986175537109 23.030887603759766 -2.5
-8.5025634765625 22.41945457458496 -2.5
-10.278998374938965 21.66254997253418 -2.5
-13.620824813842773 19.73314094543457 -2.5
-15.141185760498047 18.54461097717285 -2.4961578845977783
-18.00017547607422 13.526249885559082 -2.347599983215332
-19.030214309692383 12.033979415893555 -2.347599983215332
-20.71416473388672 8.825478553771973 -2.347599983215332
-21.357152938842773 7.130048751831055 -2.347599983215332
21.64889144897461 9.765624781721272e-06 -2.5
21.578691482543945 1.7420165538787842 -2.5
17.520458221435547 5.849194049835205 -2.1330244541168213
18.000591278076172 9.447441101074219 -2.347599983215332
16.252012252807617 12.212602615356445 -2.347599983215332
15.216598510742188 13.480756759643555 -2.347599983215332
6.481437683105469 6.747900009155273 -1.0804766416549683
12.857084274291992 15.74709415435791 -2.347599983215332
9.002795219421387 15.5933198928833 -2.0792770385742188
8.714956283569336 18.36641502380371 -2.347599983215332
4.066359996795654 19.9183349609375 -2.347599983215332
0.8717041015625 21.63134002685547 -2.5
-0.8717089891433716 21.63133430480957 -2.5
-2.1592822074890137 17.783203125 -2.0686752796173096
-4.330341815948486 21.211383819580078 -2.5
-6.023115158081055 20.79414939880371 -2.5
-14.989901542663574 15.606157302856445 -2.4988648891448975
-17.18202018737793 10.86525821685791 -2.347599983215332
-18.0006103515625 9.447426795959473 -2.347599983215332
-18.702430725097656 7.968344688415527 -2.347599983215332
-19.282962799072266 6.437597274780273 -2.347599983215332
19.664005279541016 1.5874511003494263 -2.5
17.98704719543457 4.433417797088623 -2.347599983215332
17.423908233642578 5.816962718963623 -2.32781720161438
17.04295539855957 7.261327743530273 -2.347599983215332
15.657445907592773 9.901185989379883 -2.347599983215332
11.71627426147461 14.349853515625 -2.347599983215332
9.002795219421387 15.5933198928833 -2.2817211151123047
6.569189071655273 17.321517944335938 -2.347599983215332
5.154079437255859 17.793949127197266 -2.347599983215332
3.714125871658325 18.192974090576172 -2.3530311584472656
-2.3779492378234863 19.584150314331055 -2.5
-3.946113109588623 19.32929229736328 -2.5
-5.48867654800415 18.949081420898438 -2.5
-11.206782341003418 16.23579978942871 -2.5
-13.666054725646973 14.227875709533691 -2.5
-14.7666015625 13.082084655761719 -2.5
-16.403411865234375 8.60916519165039 -2.347599983215332
-17.04296875 7.261322975158691 -2.347599983215332
-18.104877471923828 6.044301509857178 -2.4187943935394287
-19.15471649169922 4.721215724945068 -2.5
18.11605453491211 4.882812390860636e-06 -2.5
18.05730628967285 1.4577441215515137 -2.5
17.881452560424805 2.9060351848602295 -2.5
17.0862979888916 4.211406230926514 -2.4284615516662598
15.650409698486328 6.668017387390137 -2.347599983215332
15.06310749053955 7.905742168426514 -2.347599983215332
14.378114700317383 9.09218692779541 -2.347599983215332
12.73343276977539 11.280868530273438 -2.347599983215332
6.481286525726318 6.747744083404541 -1.2911510467529297
9.663742065429688 14.00035572052002 -2.347599983215332
8.505849838256836 14.73256778717041 -2.347599983215332
7.292778015136719 15.369233131408691 -2.347599983215332
4.732949256896973 16.34004783630371 -2.347599983215332
3.5408689975738525 17.344329833984375 -2.44287109375
0.7294579744338989 18.101364135742188 -2.5
-6.424033164978027 16.938812255859375 -2.5
-11.457411766052246 14.032797813415527 -2.5
-12.5494384765625 13.065346717834473 -2.5
-13.560063362121582 12.013168334960938 -2.5
-14.482748985290527 10.88308048248291 -2.5
-16.014530181884766 8.40506362915039 -2.495878219604492
-16.65372085571289 7.095483303070068 -2.4980969429016113
-17.58963394165039 4.335458755493164 -2.5
-18.057310104370117 1.4577343463897705 -2.5
16.743759155273438 9.765624781721272e-06 -2.5
14.913896560668945 4.978999137878418 -2.347599983215332
13.922077178955078 7.306874752044678 -2.347599983215332
13.28896713256836 8.4034423828125 -2.347599983215332
11.768872261047363 10.426332473754883 -2.347599983215332
8.931711196899414 12.939824104309082 -2.347599983215332
7.861525535583496 13.61656665802002 -2.347599983215332
6.7403244972229 14.205009460449219 -2.347599983215332
5.575473308563232 14.701313018798828 -2.347599983215332
4.374426364898682 15.10228443145752 -2.347599983215332
3.343193292617798 16.37602996826172 -2.495527982711792
-0.6742041110992432 16.730182647705078 -2.5
-5.937417030334473 15.655693054199219 -2.5
-7.177929401397705 15.127158164978027 -2.5
-8.3718843460083 14.50052261352539 -2.5
-12.532880783081055 11.103163719177246 -2.5
-14.151664733886719 8.948969841003418 -2.5
-15.88206958770752 5.302211761474609 -2.5
-16.689456939697266 1.347314476966858 -2.5
15.561088562011719 9.765624781721272e-06 -2.5
15.51061725616455 1.2521532773971558 -2.5
13.86047077178955 4.627309322357178 -2.347599983215332
13.443187713623047 5.727607250213623 -2.347599983215332
12.93871021270752 6.79076623916626 -2.347599983215332
11.681842803955078 8.77834415435791 -2.347599983215332
6.48113489151001 6.74758768081665 -1.5031101703643799
8.300837516784668 12.025839805603027 -2.347599983215332
7.306227684020996 12.65478515625 -2.347599983215332
6.2642502784729 13.20166015625 -2.347599983215332
5.181654930114746 13.662909507751465 -2.347599983215332
4.065449237823486 14.03555679321289 -2.347599983215332
3.111870050430298 15.242915153503418 -2.4993934631347656
0.6265820264816284 15.548471450805664 -2.5
-3.112626791000366 15.246610641479492 -2.5
-4.32937479019165 14.946708679199219 -2.5
-5.518032073974609 14.549882888793945 -2.5
-6.670932292938232 14.058676719665527 -2.5
-7.78054666519165 13.476303100585938 -2.5
-9.841532707214355 12.0537109375 -2.5
-10.779550552368164 11.222704887390137 -2.5
-14.315878868103027 6.099418640136719 -2.5
-15.510624885559082 1.2521483898162842 -2.5
14.53105640411377 9.765624781721272e-06 -2.5
14.483935356140137 1.1692724227905273 -2.5
14.108805656433105 3.4775195121765137 -2.5
12.943004608154297 4.321015357971191 -2.347599983215332
12.082258224487305 6.341264724731445 -2.347599983215332
10.908586502075195 8.197284698486328 -2.347599983215332
6.440478324890137 6.705263614654541 -1.5995614528656006
7.751381874084473 11.229809761047363 -2.347599983215332
6.822612285614014 11.81712818145752 -2.347599983215332
3.796342611312866 13.1065034866333 -2.347599983215332
-1.7515673637390137 14.4251070022583 -2.5
-5.152782917022705 13.586771965026855 -2.5
-9.190093040466309 11.255829811096191 -2.5
-10.066015243530273 10.479838371276855 -2.5
-10.876649856567383 9.635873794555664 -2.5
-12.281503677368164 7.766347408294678 -2.5
-12.86661148071289 6.752914905548096 -2.5
-13.368270874023438 5.695683479309082 -2.5
-14.108808517456055 3.4775097370147705 -2.5
-14.342875480651855 2.3309569358825684 -2.5
-14.483935356140137 1.1692626476287842 -2.5
13.625676155090332 9.765624781721272e-06 -2.5
13.449220657348633 2.185722589492798 -2.5
11.329452514648438 5.94616174697876 -2.347599983215332
10.814245223999023 6.83853006362915 -2.347599983215332
8.0921630859375 9.911117553710938 -2.347599983215332
7.268415451049805 10.530126571655273 -2.347599983215332
5.485146522521973 11.559697151184082 -2.347599983215332
4.53717041015625 11.963583946228027 -2.347599983215332
-0.5486523509025574 13.6146240234375 -2.5
-4.831879615783691 12.740229606628418 -2.5
-5.841230392456055 12.310126304626465 -2.5
-6.812846660614014 11.800180435180664 -2.5
-7.740268230438232 11.21371078491211 -2.5
-8.6174898147583 10.554521560668945 -2.5
-9.438838005065918 9.826879501342773 -2.5
-10.198959350585938 9.035502433776855 -2.5
-11.516283988952637 7.282455921173096 -2.5
-12.064936637878418 6.3321533203125 -2.5
-12.535341262817383 5.340800762176514 -2.5
-13.229736328125 3.2608447074890137 -2.5
-13.44921875 2.185722589492798 -2.5
-13.581493377685547 1.096411108970642 -2.5
12.657384872436523 2.0570409297943115 -2.5
10.662421226501465 5.596083641052246 -2.347599983215332
10.177546501159668 6.435898303985596 -2.347599983215332
9.013357162475586 7.985151290893555 -2.347599983215332
7.615736961364746 9.327597618103027 -2.347599983215332
6.84048318862915 9.910146713256836 -2.347599983215332
5.162192344665527 10.879111289978027 -2.347599983215332
4.270039081573486 11.2592134475708 -2.347599983215332
3.531259775161743 12.191323280334473 -2.474458932876587
2.565016984939575 12.56429672241211 -2.5
-0.5163476467132568 12.813051223754883 -2.5
-3.5677146911621094 12.317152976989746 -2.5
-4.547255992889404 11.99013614654541 -2.5
-8.8831148147583 9.248310089111328 -2.5
-10.251615524291992 7.703588485717773 -2.5
-11.797308921813965 5.0263671875 -2.5
-12.450819969177246 3.068857431411743 -2.5
-12.781865119934082 1.0318554639816284 -2.5
12.107511520385742 9.765624781721272e-06 -2.5
12.068249702453613 0.97425776720047 -2.5
11.47896957397461 3.8322508335113525 -2.498814582824707
10.067133903503418 5.283637523651123 -2.347599983215332
6.376655101776123 6.638808250427246 -1.900719404220581
7.190549373626709 8.806836128234863 -2.347599983215332
6.458574295043945 9.356864929199219 -2.347599983215332
4.873984336853027 10.271728515625 -2.347599983215332
4.031664848327637 10.630615234375 -2.347599983215332
3.362797737121582 11.609697341918945 -2.495745897293091
2.421816349029541 11.86282730102539 -2.5
0.48750731348991394 12.097695350646973 -2.5
-0.4875243902206421 12.097695350646973 -2.5
-2.421821117401123 11.86282730102539 -2.5
-3.368525266647339 11.629491806030273 -2.5
-4.293378829956055 11.320732116699219 -2.5
-7.65734338760376 9.3785400390625 -2.5
-9.062606811523438 8.028769493103027 -2.5
-9.679266929626465 7.273500919342041 -2.5
-10.233144760131836 6.47106409072876 -2.5
-11.13866138458252 4.745741844177246 -2.5
11.464518547058105 4.882812390860636e-06 -2.5
11.316049575805664 1.8390477895736694 -2.5
11.131379127502441 2.743657112121582 -2.5
10.87451171875 3.6304540634155273 -2.5
8.606511116027832 6.467387676239014 -2.347599983215332
6.363844871520996 6.625473499298096 -2.0032896995544434
5.382819652557373 9.323320388793945 -2.347599983215332
4.615136623382568 9.72622013092041 -2.347599983215332
3.1895604133605957 11.011650085449219 -2.499948740005493
1.3818944692611694 11.380932807922363 -2.5
0.46162840723991394 11.455214500427246 -2.5
-0.46163085103034973 11.455214500427246 -2.5
-1.381899356842041 11.380927085876465 -2.5
-3.189643383026123 11.01187515258789 -2.5
-5.732265472412109 9.928568840026855 -2.5
-6.512587547302246 9.435107231140137 -2.5
-7.250678539276123 8.880477905273438 -2.5
-7.941747665405273 8.268241882324219 -2.5
-9.689692497253418 6.127397537231445 -2.5
-10.151323318481445 5.327826976776123 -2.5
-10.87451171875 3.630444288253784 -2.5
-11.131376266479492 2.743647336959839 -2.5
-11.316049575805664 1.8390429019927979 -2.5
10.88370132446289 9.765624781721272e-06 -2.5
10.848410606384277 0.875781238079071 -2.5
10.567439079284668 2.6046435832977295 -2.5
8.170490264892578 6.139721393585205 -2.347599983215332
6.351025104522705 6.612123966217041 -2.1059446334838867
6.463730335235596 7.916650295257568 -2.347599983215332
5.8057541847229 8.411078453063965 -2.347599983215332
5.110114574432373 8.850981712341309 -2.347599983215332
4.381332874298096 9.233476638793945 -2.347599983215332
3.0280370712280273 10.453993797302246 -2.5
2.1770238876342773 10.663749694824219 -2.5
1.3118847608566284 10.804349899291992 -2.5
0.4382421672344208 10.8748779296875 -2.5
-3.0280468463897705 10.453998565673828 -2.5
-3.8594138622283936 10.176445007324219 -2.5
-5.441850662231445 9.425565719604492 -2.5
-7.539399147033691 7.84935998916626 -2.5
-8.146567344665527 7.217236042022705 -2.5
-8.700888633728027 6.538310527801514 -2.5
-9.637041091918945 5.057905197143555 -2.5
-10.323588371276855 3.446523427963257 -2.5
-10.742753982543945 1.74587881565094 -2.5
-10.848407745361328 0.8757714629173279 -2.5
10.356354713439941 4.882812390860636e-06 -2.5
10.322775840759277 0.8333495855331421 -2.5
10.055412292480469 2.478447198867798 -2.5
8.974775314331055 4.7103271484375 -2.446751594543457
7.774599552154541 5.842236042022705 -2.347599983215332
6.150546550750732 7.533061504364014 -2.347599983215332
5.524457931518555 8.003549575805664 -2.347599983215332
4.278093338012695 9.015917778015137 -2.409008502960205
2.071537971496582 10.14706039428711 -2.5
0.4170019328594208 10.3479585647583 -2.5
-0.41700682044029236 10.3479585647583 -2.5
-2.8813230991363525 9.947470664978027 -2.5
-3.672416925430298 9.683363914489746 -2.5
-4.439697265625 9.356454849243164 -2.5
-5.178178787231445 8.9688720703125 -2.5
-5.88308572769165 8.52310562133789 -2.5
-7.751845359802246 6.867538928985596 -2.5
-8.75308609008789 5.535126686096191 -2.5
-9.170097351074219 4.812836647033691 -2.5
-9.527631759643555 4.059350490570068 -2.5
-10.055419921875 2.478447198867798 -2.5
-10.322772979736328 0.8333446979522705 -2.5
9.747416496276855 1.5841162204742432 -2.5
9.588339805603027 2.3633153438568115 -2.5
9.367079734802246 3.127192258834839 -2.5
9.085078239440918 3.870781183242798 -2.5
8.729171752929688 4.581425666809082 -2.4957199096679688
6.941162109375 6.149335861206055 -2.347599983215332
6.294911861419678 6.5537109375 -2.300483465194702
5.864853382110596 7.183149337768555 -2.347599983215332
4.223031997680664 8.899877548217773 -2.4938414096832275
2.7474803924560547 9.485404968261719 -2.5
0.3976367115974426 9.867294311523438 -2.5
-1.1903417110443115 9.803305625915527 -2.5
-4.233471393585205 8.921850204467773 -2.5
-5.609819412231445 8.127216339111328 -2.5
-6.245585918426514 7.649462699890137 -2.5
-7.894741058349609 5.932514667510986 -2.5
-8.744145393371582 4.589282035827637 -2.5
-9.367084503173828 3.127197265625 -2.5
-9.747416496276855 1.5841211080551147 -2.5
9.434601783752441 4.882812390860636e-06 -2.5
9.160446166992188 2.2578516006469727 -2.5
8.679638862609863 3.6980419158935547 -2.5
6.722453594207764 5.955585956573486 -2.379833459854126
4.703701019287109 8.147050857543945 -2.492793083190918
4.043686389923096 8.5219087600708 -2.499476909637451
3.3455541133880615 8.821508407592773 -2.5
2.624870538711548 9.062104225158691 -2.5
1.8871630430221558 9.243935585021973 -2.5
0.3798877000808716 9.426953315734863 -2.5
-1.8871679306030273 9.243940353393555 -2.5
-2.624872922897339 9.062108993530273 -2.5
-3.3455564975738525 8.821513175964355 -2.5
-4.044550895690918 8.523695945739746 -2.5
-5.359467506408691 7.764531135559082 -2.5
-7.542417049407959 5.667763710021973 -2.5
9.029274940490723 0.0 -2.5
8.56459903717041 2.8592870235443115 -2.5
7.995026588439941 4.196113109588623 -2.5
7.630639553070068 4.825331687927246 -2.49973464012146
7.203522682189941 5.413100242614746 -2.4948506355285645
6.708188533782959 5.942949295043945 -2.4813873767852783
6.161506175994873 6.414809226989746 -2.4627115726470947
5.655698299407959 6.926977157592773 -2.475999355316162
4.512006759643555 7.815029144287109 -2.4985437393188477
3.8707761764526367 8.15750503540039 -2.5
3.2018260955810547 8.442523956298828 -2.5
2.512101888656616 8.672792434692383 -2.5
0.36356931924819946 9.021957397460938 -2.5
-2.5121092796325684 8.672782897949219 -2.5
-3.2018260955810547 8.44252872467041 -2.5
-3.870859384536743 8.157450675964355 -2.5
-4.514643669128418 7.819589614868164 -2.5
-6.758510589599609 5.987524509429932 -2.5
-7.631450176239014 4.825849533081055 -2.5
-9.0 0.7265527248382568 -2.5
8.655153274536133 -4.882812390860636e-06 -2.5
8.209726333618164 2.7408154010772705 -2.5
7.962563514709473 3.392534017562866 -2.5
7.66375207901001 4.022255897521973 -2.5
6.919296741485596 5.199516296386719 -2.5
6.472292423248291 5.733954906463623 -2.4976158142089844
5.987355709075928 6.233500957489014 -2.496548891067505
5.467790603637695 6.696830749511719 -2.4972054958343506
2.408010244369507 8.313427925109863 -2.5
1.7312524318695068 8.480238914489746 -2.5
1.0432641506195068 8.592050552368164 -2.5
-1.0432665348052979 8.592050552368164 -2.5
-1.7312597036361694 8.480243682861328 -2.5
-2.408022403717041 8.313437461853027 -2.5
-4.327582836151123 7.495585918426514 -2.5
-7.315248966217041 4.625888347625732 -2.5
-7.663759708404541 4.022250652313232 -2.5
-8.627089500427246 0.6964550614356995 -2.5
8.308676719665527 0.0 -2.5
8.067238807678223 1.9883984327316284 -2.5
6.642306804656982 4.991372108459473 -2.5
5.755620002746582 5.992240905761719 -2.5
5.254785060882568 6.435946941375732 -2.5
3.5618603229522705 7.506484031677246 -2.5
2.946298837661743 7.768749713897705 -2.5
-0.3345703184604645 8.3019380569458 -2.5
-1.0015087127685547 8.2481050491333 -2.5
-3.5618700981140137 7.506484031677246 -2.5
-4.154345512390137 7.195531845092773 -2.5
-5.755620002746582 5.992246150970459 -2.5
-6.219130516052246 5.509677410125732 -2.5
-7.022407054901123 4.440712928771973 -2.5
-7.643808364868164 3.256728410720825 -2.5
-8.067245483398438 1.9884033203125 -2.5
-8.20108413696289 1.3328124284744263 -2.5
7.960912704467773 0.6426708698272705 -2.5
7.575780868530273 2.5291748046875 -2.5
7.071967601776123 3.711660146713257 -2.5
6.750373363494873 4.268686294555664 -2.5
6.384997367858887 4.798017501831055 -2.5
5.978212833404541 5.296240329742432 -2.5
5.532656192779541 5.760112285614014 -2.5
5.051218032836914 6.186625957489014 -2.5
2.2220702171325684 7.671479225158691 -2.5
0.9627026319503784 7.92858362197876 -2.5
0.3215966820716858 7.98034143447876 -2.5
-0.9627099633216858 7.92858362197876 -2.5
-2.2220799922943115 7.671474456787109 -2.5
-4.537026405334473 6.573017597198486 -2.5
-6.384999752044678 4.798027038574219 -2.5
-6.750370979309082 4.2686767578125 -2.5
-7.071972370147705 3.7116551399230957 -2.5
-7.575780868530273 2.529169797897339 -2.5
-7.754731178283691 1.911376953125 -2.5
-7.883388519287109 1.2811815738677979 -2.5
-7.960907936096191 0.6426757574081421 -2.5
7.686964988708496 4.882812390860636e-06 -2.5
7.587416648864746 1.2330809831619263 -2.5
7.4635910987854 1.8396142721176147 -2.5
7.291362285614014 2.434218645095825 -2.5
6.145287990570068 4.617885589599609 -2.5
4.861581802368164 5.954370021820068 -2.5
4.366694450378418 6.326244831085205 -2.5
3.8434765338897705 6.657109260559082 -2.5
1.5375927686691284 7.531620979309082 -2.5
0.9265600442886353 7.630922794342041 -2.5
0.30952146649360657 7.680732250213623 -2.5
-0.9265576004981995 7.630922794342041 -2.5
-1.53759765625 7.531620979309082 -2.5
-2.1386523246765137 7.383481502532959 -2.5
-2.725834846496582 7.187441349029541 -2.5
-3.8434813022613525 6.657109260559082 -2.5
-4.366689205169678 6.326254844665527 -2.5
-4.861581802368164 5.954365253448486 -2.5
-5.753769397735596 5.097402095794678 -2.5
-6.4969482421875 4.108417987823486 -2.5
-7.291362285614014 2.434218645095825 -2.5
-7.463598251342773 1.8396190404891968 -2.5
-7.662031173706055 0.6185497641563416 -2.5
7.406872272491455 4.882812390860636e-06 -2.5
7.382856369018555 0.5960107445716858 -2.5
7.310956954956055 1.188149333000183 -2.5
7.191640377044678 1.7725878953933716 -2.5
7.025688171386719 2.345522403717041 -2.5
6.558459281921387 3.442143440246582 -2.5
5.921371936798096 4.449624061584473 -2.5
5.544120788574219 4.911669731140137 -2.5
4.207585334777832 6.095736980438232 -2.5
3.703434944152832 6.414540767669678 -2.5
3.1752636432647705 6.691747665405273 -2.5
0.8928027153015137 7.352870941162109 -2.5
0.2982421815395355 7.40087366104126 -2.5
-0.2982470691204071 7.40087366104126 -2.5
-3.1752684116363525 6.691747665405273 -2.5
-4.207587718963623 6.095742225646973 -2.5
-4.684438228607178 5.737407207489014 -2.5
-5.130918025970459 5.341860294342041 -2.5
-5.544126033782959 4.911664962768555 -2.5
-6.814174652099609 2.903251886367798 -2.5
-7.310956954956055 1.1881542205810547 -2.5
7.14459228515625 4.882812390860636e-06 -2.5
6.776901721954346 2.262460947036743 -2.5
6.572873592376709 2.8004393577575684 -2.5
5.347795486450195 4.737743854522705 -2.5
4.949230670928955 5.152699947357178 -2.5
3.5722923278808594 6.187397480010986 -2.5
3.062822103500366 6.454784870147705 -2.5
2.533503293991089 6.680312156677246 -2.5
0.8611840605735779 7.092494964599609 -2.5
0.28767576813697815 7.1387939453125 -2.5
-0.2876904308795929 7.1387939453125 -2.5
-0.8611865043640137 7.092499732971191 -2.5
-1.987758755683899 6.862504959106445 -2.5
-2.533505916595459 6.680307388305664 -2.5
-3.5722949504852295 6.187397480010986 -2.5
-4.05859375 5.87987756729126 -2.5
-4.518559455871582 5.534243106842041 -2.5
-5.347797870635986 4.737739086151123 -2.5
-6.326215744018555 3.320258617401123 -2.5
-6.57287073135376 2.8004393577575684 -2.5
-7.121416091918945 0.574902355670929 -2.5
6.898407936096191 4.882812390860636e-06 -2.5
6.87603759765625 0.5550927519798279 -2.5
6.80907678604126 1.1065820455551147 -2.5
6.697954177856445 1.6509032249450684 -2.5
6.346396446228027 2.7039501667022705 -2.5
6.108239650726318 3.2058544158935547 -2.5
4.362863540649414 5.343549728393555 -2.5
3.4492015838623047 5.974199295043945 -2.5
2.957287549972534 6.232378005981445 -2.5
2.4462084770202637 6.450121879577637 -2.5
1.9192577600479126 6.626054763793945 -2.5
1.379858374595642 6.758994102478027 -2.5
0.8315111994743347 6.848114967346191 -2.5
0.2777685523033142 6.892822265625 -2.5
-0.2777783274650574 6.89281702041626 -2.5
-1.9192626476287842 6.626049518585205 -2.5
-2.4462060928344727 6.450126647949219 -2.5
-3.4492039680480957 5.974204063415527 -2.5
-3.9187450408935547 5.677279949188232 -2.5
-4.362861156463623 5.343544960021973 -2.5
-4.778696060180664 4.975156307220459 -2.5
-6.346396446228027 2.7039451599121094 -2.5
-6.543393611907959 2.184511661529541 -2.5
-6.697954177856445 1.6509032249450684 -2.5
-6.876039981842041 0.5550927519798279 -2.5
6.133359432220459 2.6131834983825684 -2.5
4.990197658538818 4.420942306518555 -2.5
4.216408729553223 5.164174556732178 -2.5
3.7871997356414795 5.486708641052246 -2.5
3.3334202766418457 5.773657321929932 -2.5
1.854833960533142 6.403623104095459 -2.5
0.8035961985588074 6.618237018585205 -2.5
-0.80360347032547 6.618237018585205 -2.5
-2.3640966415405273 6.233603477478027 -2.5
-2.8580174446105957 6.023163795471191 -2.5
-3.3334226608276367 5.773657321929932 -2.5
-4.216406345367432 5.164174556732178 -2.5
-4.618281364440918 4.808149337768555 -2.5
-4.990200042724609 4.420942306518555 -2.5
-5.634746074676514 3.5631980895996094 -2.5
-6.133354187011719 2.6131834983825684 -2.5
-6.323740005493164 2.1111814975738525 -2.5
-6.580507755279541 1.0694433450698853 -2.5
-6.645224571228027 0.5364599227905273 -2.5
6.448561668395996 4.882812390860636e-06 -2.5
6.427651405334473 0.5189013481140137 -2.5
6.365056037902832 1.0344287157058716 -2.5
6.116696834564209 2.042060613632202 -2.5
5.932541370391846 2.5276269912719727 -2.5
5.709921836853027 2.9967968463897705 -2.5
5.45025634765625 3.446537971496582 -2.5
4.826816082000732 4.276191234588623 -2.5
4.467074871063232 4.650717735290527 -2.5
3.663203001022339 5.307065486907959 -2.5
2.7644457817077637 5.825966835021973 -2.5
2.286689519882202 6.029511451721191 -2.5
1.2898778915405273 6.3182373046875 -2.5
-1.794106364250183 6.193959712982178 -2.5
-2.286689519882202 6.029521465301514 -2.5
-2.7644481658935547 5.825966835021973 -2.5
-5.450263500213623 3.446537971496582 -2.5
-5.709921836853027 2.9967968463897705 -2.5
-5.932543754577637 2.5276269912719727 -2.5
-6.427646160125732 0.5188915729522705 -2.5
6.242421627044678 4.882812390860636e-06 -2.5
6.161584377288818 1.001367211341858 -2.5
6.061027526855469 1.4939111471176147 -2.5
5.742897987365723 2.4468212127685547 -2.5
5.527390003204346 2.900995969772339 -2.5
5.276027679443359 3.33636212348938 -2.5
4.990454196929932 3.7500829696655273 -2.5
4.67251443862915 4.139496803283691 -2.5
3.9479856491088867 4.835410118103027 -2.5
3.546096086502075 5.137407302856445 -2.5
2.6760716438293457 5.639716625213623 -2.5
1.7367504835128784 5.995961666107178 -2.5
1.2486449480056763 6.116264343261719 -2.5
-0.25135740637779236 6.237363338470459 -2.5
-0.75244140625 6.196913719177246 -2.5
-1.2486474514007568 6.116269588470459 -2.5
-1.7367528676986694 5.995961666107178 -2.5
-2.2135937213897705 5.836767673492432 -2.5
-3.121206045150757 5.406098365783691 -2.5
-3.5461034774780273 5.137416839599609 -2.5
-3.947988271713257 4.835414886474609 -2.5
-4.324272155761719 4.502055644989014 -2.5
-4.67251443862915 4.139496803283691 -2.5
-5.276034832000732 3.336367130279541 -2.5
-5.527392387390137 2.901005744934082 -2.5
-5.742895603179932 2.446826219558716 -2.5
-5.921166896820068 1.976772427558899 -2.5
6.027763366699219 0.48661619424819946 -2.5
5.871652603149414 1.4472362995147705 -2.5
5.563461780548096 2.370366096496582 -2.5
5.354682445526123 2.81036114692688 -2.5
5.111178874969482 3.232119083404541 -2.5
4.834528923034668 3.6329100131988525 -2.5
4.52651834487915 4.010156154632568 -2.5
4.189165115356445 4.361381530761719 -2.5
3.8246312141418457 4.684326171875 -2.5
3.435302734375 4.976894378662109 -2.5
3.023684024810791 5.2371826171875 -2.5
2.592456102371216 5.463505744934082 -2.5
2.144426107406616 5.654394626617432 -2.5
1.6824853420257568 5.808613300323486 -2.5
1.209631323814392 5.92516565322876 -2.5
-0.7289355397224426 6.003285884857178 -2.5
-1.2096385955810547 5.9251708984375 -2.5
-3.8246288299560547 4.684335708618164 -2.5
-4.189165115356445 4.361386775970459 -2.5
-4.526523113250732 4.010156154632568 -2.5
-5.354682445526123 2.81036114692688 -2.5
-5.563461780548096 2.370371103286743 -2.5
-5.871650218963623 1.4472362995147705 -2.5
-5.969057559967041 0.9700732231140137 -2.5
-6.027763366699219 0.48661619424819946 -2.5
5.843510627746582 0.4717382788658142 -2.5
5.786599159240723 0.9404150247573853 -2.5
5.692162990570068 1.402993083000183 -2.5
5.560810565948486 1.8564696311950684 -2.5
5.190998554229736 2.7244482040405273 -2.5
3.707717180252075 4.5411376953125 -2.5
2.5132102966308594 5.296498775482178 -2.5
2.0788769721984863 5.481547832489014 -2.5
1.1726537942886353 5.744042873382568 -2.5
0.7066454887390137 5.819775104522705 -2.5
-0.23605956137180328 5.857763767242432 -2.5
-0.7066454887390137 5.819780349731445 -2.5
-1.1726561784744263 5.744042873382568 -2.5
-1.6310595273971558 5.631054401397705 -2.5
-2.078871965408325 5.481557369232178 -2.5
-2.931264638900757 5.077089786529541 -2.5
-3.3302929401397705 4.824755668640137 -2.5
-3.707719564437866 4.541142463684082 -2.5
-4.954946041107178 3.133315324783325 -2.5
-5.191000938415527 2.7244529724121094 -2.5
-5.560815334320068 1.8564696311950684 -2.5
-5.692162990570068 1.402993083000183 -2.5
-5.843505859375 0.4717431664466858 -2.5
5.687021255493164 4.882812390860636e-06 -2.5
5.668583869934082 0.45762205123901367 -2.5
5.521767616271973 1.361000895500183 -2.5
5.394345760345459 1.8008984327316284 -2.5
5.231943130493164 2.2291259765625 -2.5
5.035605430603027 2.642890453338623 -2.5
4.806613445281982 3.0395262241363525 -2.5
4.256789684295654 3.771196126937866 -2.5
3.9395360946655273 4.101493835449219 -2.5
3.5967259407043457 4.405200004577637 -2.5
2.0166478157043457 5.317465782165527 -2.5
1.5822290182113647 5.462485313415527 -2.5
0.22898925840854645 5.682412147521973 -2.5
-0.6854882836341858 5.645566463470459 -2.5
-1.5822265148162842 5.462494850158691 -2.5
-2.0166454315185547 5.317465782165527 -2.5
-2.437978506088257 5.137953758239746 -2.5
-3.230600595474243 4.680331707000732 -2.5
-3.9395360946655273 4.101499080657959 -2.5
-4.806616306304932 3.0395164489746094 -2.5
-5.231938362121582 2.229130744934082 -2.5
-5.394350528717041 1.8009033203125 -2.5
-5.668583869934082 0.45762205123901367 -2.5
5.448674201965332 0.8855029344558716 -2.5
5.236071586608887 1.7480566501617432 -2.5
5.078432559967041 2.1637206077575684 -2.5
4.887854099273682 2.5653467178344727 -2.5
4.413049221038818 3.3161914348602295 -2.5
3.4911961555480957 4.275942325592041 -2.5
3.135805606842041 4.543007850646973 -2.5
2.760073184967041 4.780600547790527 -2.5
2.366442918777466 4.987196922302246 -2.5
1.9574706554412842 5.161440372467041 -2.5
1.535805583000183 5.302206993103027 -2.5
0.6653759479522705 5.479907035827637 -2.5
-0.6653808355331421 5.479911804199219 -2.5
-1.535805583000183 5.302221775054932 -2.5
-1.9574706554412842 5.161445140838623 -2.5
-2.366445302963257 4.987192153930664 -2.5
-2.760073184967041 4.780605316162109 -2.5
-3.135805606842041 4.54299783706665 -2.5
-3.4911961555480957 4.275942325592041 -2.5
-4.131894588470459 3.6605467796325684 -2.5
-4.665580749511719 2.9503417015075684 -2.5
-5.078432559967041 2.1637206077575684 -2.5
-5.236064434051514 1.7480615377426147 -2.5
-5.359755516052246 1.3210595846176147 -2.5
-5.448676586151123 0.8855029344558716 -2.5
5.291840553283691 0.8600146174430847 -2.5
5.205475807189941 1.2830370664596558 -2.5
5.08535623550415 1.6977490186691284 -2.5
4.932255744934082 2.101435422897339 -2.5
4.747165203094482 2.491508722305298 -2.5
4.531289100646973 2.865419864654541 -2.5
4.286025524139404 3.2207372188568115 -2.5
4.012963771820068 3.55517578125 -2.5
3.713879346847534 3.8665575981140137 -2.5
3.045546770095825 4.412240982055664 -2.5
2.6806323528289795 4.642997741699219 -2.5
2.298327684402466 4.843642234802246 -2.5
1.9011328220367432 5.012870788574219 -2.5
1.4915966987609863 5.149594783782959 -2.5
1.072390079498291 5.252919673919678 -2.5
-0.6462304592132568 5.322182655334473 -2.5
-1.0723974704742432 5.252924919128418 -2.5
-1.4915966987609863 5.149599552154541 -2.5
-3.045542001724243 4.412240982055664 -2.5
-4.01296854019165 3.555180549621582 -2.5
-4.747168064117432 2.491508722305298 -2.5
-4.932260513305664 2.1014404296875 -2.5
-5.291845798492432 0.8600097298622131 -2.5
-5.343876838684082 0.4314062297344208 -2.5
