ply
format ascii 1.0
element vertex 757
property float x
property float y
property float z
end_header
-6.241757869720459 -16.458114624023438 4.507965087890625
15.922426223754883 -14.105996131896973 5.447935581207275
-6.239306449890137 -16.451650619506836 4.2989935874938965
15.920000076293945 -14.10384750366211 5.196657180786133
-6.236869812011719 -16.445215225219727 4.091333389282227
15.91759204864502 -14.10170841217041 4.946811199188232
-6.234447956085205 -16.438827514648438 3.8849170207977295
-6.232040882110596 -16.432470321655273 3.6796441078186035
15.91280460357666 -14.0974702835083 4.451124668121338
15.91042423248291 -14.09536075592041 4.205146789550781
-6.224892616271973 -16.413612365722656 3.0702366828918457
-6.222524166107178 -16.407392501831055 2.86903977394104
-6.220170974731445 -16.40119171142578 2.668748617172241
15.90102767944336 -14.087040901184082 3.2320494651794434
-6.217826843261719 -16.39501953125 2.4692678451538086
-6.215493202209473 -16.388866424560547 2.270538091659546
15.896376609802246 -14.08292007446289 2.7510693073272705
-6.213173866271973 -16.38274383544922 2.072551727294922
-6.210859298706055 -16.37662124633789 1.875216007232666
15.891757011413574 -14.078837394714355 2.2731194496154785
-23.969266891479492 -10.212343215942383 2.497797727584839
-6.208544731140137 -16.37053680419922 1.678525686264038
-23.95512580871582 -10.206327438354492 2.2054224014282227
-6.206249713897705 -16.364471435546875 1.4823434352874756
15.88716983795166 -14.074755668640137 1.7977111339569092
-16.0015869140625 -23.18233299255371 2.071713447570801
-6.203949928283691 -16.358417510986328 1.2867259979248047
5.430776119232178 -26.6016788482666 1.9968209266662598
15.884880065917969 -14.072733879089355 1.5608068704605103
-15.996821403503418 -23.17544937133789 1.7575939893722534
-6.199379920959473 -16.34634780883789 0.89678955078125
-23.898969650268555 -10.182392120361328 1.0440911054611206
-6.197089672088623 -16.34033203125 0.7023806571960449
-6.194814205169678 -16.334325790405273 0.5083276033401489
5.430776119232178 -26.601659774780273 0.7899706959724426
-6.192538738250732 -16.32832908630371 0.3144952356815338
-23.84326171875 -10.158652305603027 -0.10770324617624283
-6.187997817993164 -16.316347122192383 -0.07251739501953125
-23.81551170349121 -10.146825790405273 -0.6814597845077515
-23.80164909362793 -10.140917778015137 -0.968138575553894
5.430776119232178 -26.601659774780273 -1.0158941745758057
-23.787797927856445 -10.135019302368164 -1.2545497417449951
-6.178925514221191 -16.292430877685547 -0.8454267978668213
5.430766582489014 -26.601669311523438 -1.317318081855774
26.227907180786133 -2.117314338684082 -1.276700735092163
-23.774921417236328 -10.12954044342041 -1.541097640991211
-6.176650047302246 -16.286436080932617 -1.0387067794799805
5.430776119232178 -26.601659774780273 -1.6190667152404785
-23.776636123657227 -10.130263328552246 -1.82882559299469
-25.568817138671875 -13.41952133178711 -2.043351411819458
-14.643085479736328 -17.93450164794922 -1.6383618116378784
-6.174375057220459 -16.280458450317383 -1.2321193218231201
4.438061237335205 -9.353007316589355 -0.7325661778450012
12.904023170471191 -18.694686889648438 -1.607412338256836
23.588197708129883 -14.916239738464355 -1.9748783111572266
24.844364166259766 -10.585175514221191 -1.9109923839569092
-28.29019546508789 -4.597587585449219 -2.347599983215332
-13.995078086853027 -3.4494824409484863 -1.1806167364120483
-12.939359664916992 -4.319794654846191 -1.1173428297042847
-22.755496978759766 -9.695195198059082 -2.0259833335876465
-21.581777572631836 -19.119813919067383 -2.3616597652435303
-19.99588394165039 -20.81791877746582 -2.364323616027832
-14.840307235717773 -18.17607307434082 -1.9219727516174316
-5.791352272033691 -28.367919921875 -2.3714935779571533
-1.167031168937683 -28.96036148071289 -2.374016284942627
1.1678320169448853 -28.978925704956055 -2.3755383491516113
5.411796569824219 -26.50874900817871 -2.216071367263794
4.33328104019165 -9.132186889648438 -0.8279351592063904
5.396625995635986 -9.347216606140137 -0.8840519785881042
18.257017135620117 -22.360742568969727 -2.3644680976867676
21.542705535888672 -19.08516502380371 -2.357375383377075
22.967838287353516 -17.259180068969727 -2.353207588195801
25.37838363647461 -13.319599151611328 -2.347599983215332
24.844911575317383 -10.585410118103027 -2.2120397090911865
27.186317443847656 -9.076112747192383 -2.347599983215332
27.828495025634766 -6.859081745147705 -2.347599983215332
24.73817253112793 -4.020341873168945 -2.052844762802124
-26.77305030822754 -2.1613378524780273 -2.5
-22.625789642333984 -9.639931678771973 -2.289060354232788
-21.318021774291992 -13.480712890625 -2.347599983215332
-20.16413116455078 -15.1524019241333 -2.347599983215332
-12.651689529418945 -21.913387298583984 -2.3551063537597656
-9.289970397949219 -19.578250885009766 -2.0169756412506104
-7.05394983291626 -24.353153228759766 -2.3598320484161377
-3.0584521293640137 -25.188690185546875 -2.3616509437561035
-1.0220556259155273 -25.36250877380371 -2.3625237941741943
1.8602977991104126 -15.320907592773438 -1.436461091041565
7.0587158203125 -24.369462966918945 -2.361414670944214
3.8352928161621094 -10.112841606140137 -1.006665587425232
5.388007640838623 -9.332275390625 -1.0029717683792114
15.979415893554688 -19.57120132446289 -2.351630449295044
21.318037033081055 -13.480673789978027 -2.347599983215332
22.333646774291992 -11.72159194946289 -2.347599983215332
23.204423904418945 -9.886454582214355 -2.347599983215332
26.773056030273438 -2.161318302154541 -2.5
-15.747206687927246 -2.559159994125366 -1.6634076833724976
-12.504487037658691 -4.174609184265137 -1.374504566192627
-21.251039505004883 -9.054218292236328 -2.4084460735321045
-19.030223846435547 -12.0339937210083 -2.347599983215332
-16.853374481201172 -14.93080997467041 -2.347599983215332
-15.597318649291992 -16.238534927368164 -2.347599983215332
-14.240068435668945 -17.44091796875 -2.347599983215332
-12.790458679199219 -18.530214309692383 -2.347599983215332
-6.178520202636719 -16.291357040405273 -1.8166533708572388
-4.793784141540527 -16.55000877380371 -1.796495795249939
-2.7198779582977295 -22.40032196044922 -2.3527047634124756
-0.908740222454071 -22.550907135009766 -2.353156566619873
0.9088476300239563 -22.552459716796875 -2.353318691253662
3.1002197265625 -15.185869216918945 -1.615997552871704
6.274667739868164 -21.66259765625 -2.351473569869995
4.30996561050415 -9.083046913146973 -1.0482428073883057
5.378915786743164 -9.316542625427246 -1.1216530799865723
14.24010181427002 -17.440927505493164 -2.347599983215332
14.640531539916992 -15.242353439331055 -2.2035884857177734
15.245180130004883 -13.505986213684082 -2.123579978942871
21.925121307373047 -9.34139633178711 -2.4848413467407227
9.677929878234863 -2.385390520095825 -1.039259433746338
23.89983367919922 -1.9293651580810547 -2.5
-21.64889144897461 9.765624781721272e-06 -2.5
-15.304926872253418 -2.4872851371765137 -1.7905892133712769
-12.061484336853027 -5.138916015625 -1.5140023231506348
-17.374902725219727 -10.987226486206055 -2.3739540576934814
-16.251996994018555 -12.212597846984863 -2.347599983215332
-11.5482759475708 -16.73060417175293 -2.347599983215332
-5.905185222625732 -15.570634841918945 -1.9230506420135498
-4.838364124298096 -16.703916549682617 -2.0082430839538574
-4.066347599029541 -19.9183292388916 -2.347599983215332
-0.8185546398162842 -20.312685012817383 -2.347599983215332
5.655947208404541 -19.52652359008789 -2.347599983215332
3.7492382526397705 -9.885908126831055 -1.220961332321167
4.206684589385986 -8.865400314331055 -1.1331768035888672
11.548300743103027 -16.730566024780273 -2.347599983215332
12.8571138381958 -15.74705982208252 -2.347599983215332
16.252017974853516 -12.212587356567383 -2.347599983215332
19.169153213500977 -10.060731887817383 -2.5
20.534765243530273 -6.85549783706665 -2.5
21.57869529724121 -1.7419921159744263 -2.5
-19.664003372192383 -1.587441325187683 -2.5
-15.228349685668945 -2.474843740463257 -1.95510733127594
-13.424111366271973 -3.3087499141693115 -1.7520626783370972
-17.46826171875 -9.16805648803711 -2.5
-15.581865310668945 -11.709023475646973 -2.469956874847412
-12.832968711853027 -13.360527038574219 -2.347599983215332
-11.716279029846191 -14.349833488464355 -2.347599983215332
-9.262675285339355 -16.043437957763672 -2.347599983215332
-7.941664695739746 -16.73674774169922 -2.347599983215332
-4.830039024353027 -16.6751651763916 -2.199993133544922
-3.7055320739746094 -18.150976181030273 -2.347599983215332
3.094057559967041 -15.155673027038574 -1.9601958990097046
5.154091835021973 -17.793926239013672 -2.347599983215332
11.716293334960938 -14.349814414978027 -2.347599983215332
12.832968711853027 -13.360536575317383 -2.347599983215332
15.738974571228027 -11.82705020904541 -2.494859457015991
16.673906326293945 -10.543925285339355 -2.5
17.4682559967041 -9.168046951293945 -2.5
18.71271514892578 -6.247197151184082 -2.5
-18.11605453491211 0.0 -2.5
-18.057313919067383 -1.4577343463897705 -2.5
-11.99666976928711 -4.005077838897705 -1.745351791381836
-11.624443054199219 -4.952704906463623 -1.743693470954895
-16.040956497192383 -8.418964385986328 -2.5
-13.556180953979492 -12.009736061096191 -2.499284505844116
-12.327763557434082 -12.83456039428711 -2.4558417797088623
-7.292778015136719 -15.36922836303711 -2.347599983215332
-0.6849657893180847 -16.997909545898438 -2.347599983215332
0.6850000023841858 -16.99789047241211 -2.347599983215332
1.853676676750183 -15.266406059265137 -2.1222245693206787
2.7281346321105957 -9.41860294342041 -1.3531856536865234
5.353466510772705 -9.2724609375 -1.477545142173767
10.985649108886719 -13.454940795898438 -2.397056818008423
12.511933326721191 -13.02627944946289 -2.492527961730957
13.560065269470215 -12.01317310333252 -2.5
14.48275375366211 -10.883066177368164 -2.5
15.311515808105469 -9.682401657104492 -2.5
16.66639518737793 -7.100869178771973 -2.5
11.400361061096191 -0.9203222393989563 -1.5783588886260986
-16.689462661743164 -1.3473047018051147 -2.5
-13.466923713684082 -3.3192968368530273 -2.0709140300750732
-14.151659965515137 -8.948974609375 -2.5
-13.385668754577637 -10.058700561523438 -2.5
-11.5988130569458 -12.075624465942383 -2.5
-10.581826210021973 -12.960419654846191 -2.498190402984619
-9.392963409423828 -13.608095169067383 -2.4688377380371094
-8.031498908996582 -13.910985946655273 -2.398360252380371
-5.575448989868164 -14.701308250427246 -2.347599983215332
-3.145009756088257 -15.405302047729492 -2.347599983215332
0.6331152319908142 -15.71029281616211 -2.347599983215332
1.853676676750183 -15.266406059265137 -2.296159505844116
5.264496803283691 -9.118349075317383 -1.5720746517181396
10.589516639709473 -12.9697847366333 -2.5
13.385685920715332 -10.058671951293945 -2.5
14.151664733886719 -8.948954582214355 -2.5
15.403915405273438 -6.562978267669678 -2.5
10.906425476074219 -0.8804491758346558 -1.6337310075759888
-15.561088562011719 1.9531249563442543e-05 -2.5
-15.108930587768555 -3.7240331172943115 -2.5
-11.5916109085083 -4.938720703125 -2.0242574214935303
-12.440195083618164 -9.348212242126465 -2.5
-8.83968734741211 -12.806513786315918 -2.5
-7.780541896820068 -13.476298332214355 -2.5
-4.195224285125732 -14.483710289001465 -2.422558307647705
-1.7825390100479126 -14.680595397949219 -2.375866413116455
1.7866991758346558 -14.714735984802246 -2.381392240524292
5.231303691864014 -9.060869216918945 -1.680890440940857
8.839712142944336 -12.806513786315918 -2.5
9.841547966003418 -12.053671836853027 -2.5
12.440199851989746 -9.348193168640137 -2.5
13.152077674865723 -8.316855430603027 -2.5
13.778666496276855 -7.231601238250732 -2.5
8.619882583618164 -2.8777246475219727 -1.4599813222885132
10.90359878540039 -0.8802245855331421 -1.7574410438537598
-14.5310640335083 0.0 -2.5
-14.108808517456055 -3.4775097370147705 -2.5
-11.99242115020752 -4.003652095794678 -2.1751837730407715
-13.368261337280273 -5.69567346572876 -2.5
-12.86661148071289 -6.7529296875 -2.5
-12.281489372253418 -7.766357421875 -2.5
-11.616738319396973 -8.729423522949219 -2.5
-9.19008731842041 -11.255820274353027 -2.5
-6.229340553283691 -13.12808609008789 -2.5
-5.152763366699219 -13.586767196655273 -2.5
-4.042773246765137 -13.957353591918945 -2.5
-2.9047605991363525 -14.22850513458252 -2.4984421730041504
-1.7492040395736694 -14.405976295471191 -2.4966866970062256
-0.5841211080551147 -14.495468139648438 -2.4959027767181396
0.5842089653015137 -14.496464729309082 -2.4960761070251465
1.7495946884155273 -14.409071922302246 -2.497223377227783
3.2274560928344727 -8.510087966918945 -1.5658783912658691
4.246039867401123 -8.948320388793945 -1.7040438652038574
9.190102577209473 -11.255810737609863 -2.5
10.8766450881958 -9.635869026184082 -2.5
12.281503677368164 -7.766347408294678 -2.5
12.86661148071289 -6.752910137176514 -2.5
13.368270874023438 -5.69567346572876 -2.5
8.3643798828125 -2.0616209506988525 -1.4821209907531738
10.905644416809082 -0.8803905844688416 -1.8823691606521606
-13.6256685256958 9.765624781721272e-06 -2.5
-13.449228286743164 -2.1857128143310547 -2.5
-13.229731559753418 -3.2608299255371094 -2.5
-12.924452781677246 -4.314814567565918 -2.5
-12.535341262817383 -5.340800762176514 -2.5
-12.06493091583252 -6.332167625427246 -2.5
-9.438838005065918 -9.826865196228027 -2.5
-8.617480278015137 -10.554511070251465 -2.5
-7.740239143371582 -11.21371078491211 -2.5
-5.84121561050415 -12.3101167678833 -2.5
-4.831713676452637 -12.74022388458252 -2.5
-3.790888547897339 -13.0877046585083 -2.5
-2.7254834175109863 -13.350302696228027 -2.5
0.548657238483429 -13.614628791809082 -2.5
1.6423925161361694 -13.526317596435547 -2.5
2.7255029678344727 -13.350292205810547 -2.5
3.2095556259155273 -8.462890625 -1.6606649160385132
4.244882583618164 -8.94588851928711 -1.8167752027511597
7.740273475646973 -11.213690757751465 -2.5
10.198959350585938 -9.03548812866211 -2.5
11.516279220581055 -7.282441139221191 -2.5
12.064936637878418 -6.332158088684082 -2.5
12.535341262817383 -5.340800762176514 -2.5
8.494619369506836 -2.8359081745147705 -1.6431310176849365
8.300732612609863 -2.0459375381469727 -1.5685752630233765
9.253192901611328 -1.5037890672683716 -1.7200241088867188
10.903910636901855 -0.8802539110183716 -2.007127285003662
-12.823447227478027 9.765624781721272e-06 -2.5
-12.7818603515625 -1.031835913658142 -2.5
-12.657397270202637 -2.057021379470825 -2.5
-12.450824737548828 -3.06884765625 -2.5
-11.35460376739502 -5.959355354309082 -2.5
-10.838241577148438 -6.853681564331055 -2.5
-9.598495483398438 -8.503515243530273 -2.5
-5.497290134429932 -11.585331916809082 -2.5
-4.547231197357178 -11.99013614654541 -2.5
2.5650243759155273 -12.564287185668945 -2.5
3.1936230659484863 -8.420878410339355 -1.7557939291000366
5.205341815948486 -9.015888214111328 -2.0296154022216797
7.284560203552246 -10.553476333618164 -2.5
9.598485946655273 -8.50350570678711 -2.5
11.354609489440918 -5.95934534072876 -2.5
11.797308921813965 -5.026347637176514 -2.5
8.487035751342773 -2.833388566970825 -1.7443653345108032
-12.107519149780273 0.0 -2.5
-11.48440933227539 -3.834052562713623 -2.5
-11.13866138458252 -4.745741844177246 -2.5
-10.233144760131836 -6.47106409072876 -2.5
-9.062602043151855 -8.028769493103027 -2.5
-7.657338619232178 -9.378535270690918 -2.5
-6.053750038146973 -10.485419273376465 -2.5
-5.190380573272705 -10.938525199890137 -2.5
-4.293368816375732 -11.32070255279541 -2.5
-2.421806573867798 -11.862812042236328 -2.5
-1.4593944549560547 -12.019227981567383 -2.5
-0.48750486969947815 -12.097684860229492 -2.5
0.48753905296325684 -12.097684860229492 -2.5
2.421826124191284 -11.862812042236328 -2.5
6.877856254577637 -9.964277267456055 -2.5
8.387163162231445 -8.731963157653809 -2.5
9.679266929626465 -7.273486137390137 -2.5
10.233159065246582 -6.471035003662109 -2.5
10.720673561096191 -5.626640319824219 -2.5
11.13866138458252 -4.745732307434082 -2.5
8.267763137817383 -2.0378026962280273 -1.7582470178604126
10.887216567993164 -0.8788964748382568 -2.255342960357666
-11.131376266479492 -2.7436327934265137 -2.5
-10.547109603881836 -4.493691444396973 -2.5
-10.151323318481445 -5.327841758728027 -2.5
-8.581308364868164 -7.602382659912109 -2.5
-7.250678539276123 -8.880468368530273 -2.5
-6.5125732421875 -9.435107231140137 -2.5
-5.732245922088623 -9.928564071655273 -2.5
-4.065366268157959 -10.719511032104492 -2.5
-3.1896092891693115 -11.011855125427246 -2.5
-1.3818944692611694 -11.380927085876465 -2.5
0.4616454839706421 -11.455214500427246 -2.5
1.3819091320037842 -11.3809175491333 -2.5
2.293203115463257 -11.23281192779541 -2.5
2.5653076171875 -8.856484413146973 -2.010669708251953
4.914775371551514 -10.357617378234863 -2.5
7.250683307647705 -8.88045883178711 -2.5
8.581317901611328 -7.602372646331787 -2.5
9.689702033996582 -6.127372741699219 -2.5
10.547128677368164 -4.493700981140137 -2.5
8.460331916809082 -2.824462890625 -1.944990634918213
8.248330116271973 -2.033017635345459 -1.8524956703186035
9.218291282653809 -1.4981054067611694 -2.036550760269165
11.11754322052002 -0.8974902033805847 -2.4322245121002197
-10.567436218261719 -2.6046385765075684 -2.5
-9.637030601501465 -5.057909965515137 -2.5
-9.198798179626465 -5.816972732543945 -2.5
-6.883349418640137 -8.43057632446289 -2.5
-6.18264627456665 -8.95711898803711 -2.5
-5.441840648651123 -9.425556182861328 -2.5
-4.665747165679932 -9.832870483398438 -2.5
-3.8594043254852295 -10.17642593383789 -2.5
-3.028022289276123 -10.453984260559082 -2.5
-2.177011728286743 -10.663740158081055 -2.5
2.1770215034484863 -10.663740158081055 -2.5
2.8906641006469727 -9.979716300964355 -2.386583089828491
4.665766716003418 -9.832870483398438 -2.5
6.182651042938232 -8.957098960876465 -2.5
6.883354187011719 -8.43056583404541 -2.5
7.539403915405273 -7.849345684051514 -2.5
9.198798179626465 -5.816953182220459 -2.5
9.637041091918945 -5.057900428771973 -2.5
10.01278305053711 -4.266035079956055 -2.5
10.848417282104492 -0.8757616877555847 -2.5
-10.356362342834473 0.0 -2.5
-10.322772979736328 -0.8333300352096558 -2.5
-9.82338809967041 -3.2795214653015137 -2.5
-9.170092582702637 -4.812831878662109 -2.5
-8.279315948486328 -6.221503734588623 -2.5
-5.178173542022705 -8.968856811523438 -2.5
-4.439692497253418 -9.3564453125 -2.5
-3.6723926067352295 -9.683359146118164 -2.5
-2.881298780441284 -9.947461128234863 -2.5
-2.071528196334839 -10.147050857543945 -2.5
3.19634747505188 -8.42806625366211 -2.175917863845825
5.883076190948486 -8.52310562133789 -2.5
6.54983377456665 -8.022079467773438 -2.5
7.751845359802246 -6.867538928985596 -2.5
8.460375785827637 -2.8244824409484863 -2.1531221866607666
8.247549057006836 -2.0328221321105957 -2.050523519515991
-9.747421264648438 -1.5841015577316284 -2.5
-9.0850830078125 -3.870790958404541 -2.5
-8.744145393371582 -4.589286804199219 -2.5
-7.391767501831055 -6.548534870147705 -2.5
-6.840873718261719 -7.122089862823486 -2.5
-6.245585918426514 -7.64944314956665 -2.5
-4.937641620635986 -8.552265167236328 -2.5
-3.5018162727355957 -9.23355484008789 -2.5
-0.3976220488548279 -9.86727523803711 -2.5
0.3976464867591858 -9.86727523803711 -2.5
1.975317358970642 -9.675712585449219 -2.5
3.1953125 -8.425341606140137 -2.281172513961792
4.233476638793945 -8.921835899353027 -2.5
5.609819412231445 -8.127197265625 -2.5
7.391762733459473 -6.548525333404541 -2.5
7.894741058349609 -5.932509422302246 -2.5
8.346513748168945 -5.278007507324219 -2.5
9.0850830078125 -3.8707714080810547 -2.5
9.206767082214355 -3.073662042617798 -2.457213878631592
9.747421264648438 -1.5841015577316284 -2.5
9.843280792236328 -0.794628918170929 -2.5
-9.404013633728027 -0.7591601610183716 -2.5
-8.949067115783691 -2.9876365661621094 -2.5
-8.679633140563965 -3.6980466842651367 -2.5
-8.353920936584473 -4.384472370147705 -2.5
-7.542421817779541 -5.667763710021973 -2.5
-5.966879844665527 -7.308085918426514 -2.5
-5.359457969665527 -7.764511585235596 -2.5
-4.717304706573486 -8.170605659484863 -2.5
-4.044531345367432 -8.523700714111328 -2.5
-2.6248583793640137 -9.06209945678711 -2.5
-1.8871630430221558 -9.243935585021973 -2.5
-0.3798779249191284 -9.426933288574219 -2.5
0.3799121081829071 -9.426933288574219 -2.5
1.1372168064117432 -9.365800857543945 -2.5
1.8871679306030273 -9.243926048278809 -2.5
4.044560432434082 -8.523681640625 -2.5
4.717309474945068 -8.170595169067383 -2.5
5.966875076293945 -7.308075904846191 -2.5
6.535581111907959 -6.804247856140137 -2.5
8.94906234741211 -2.987626791000366 -2.5
9.160449028015137 -2.2578320503234863 -2.5
-9.000004768371582 -0.7265527248382568 -2.5
-8.7669038772583 -2.160839796066284 -2.5
-8.306747436523438 -3.5391697883605957 -2.5
-7.631459712982178 -4.825849533081055 -2.5
-5.710532188415527 -6.994121074676514 -2.5
-3.8707714080810547 -8.157489776611328 -2.5
-3.2018065452575684 -8.442500114440918 -2.5
-2.512099504470825 -8.672773361206055 -2.5
-1.8060741424560547 -8.846776962280273 -2.5
-1.088344693183899 -8.963427543640137 -2.5
-0.3635595738887787 -9.021943092346191 -2.5
1.0883691310882568 -8.9634370803833 -2.5
3.870795726776123 -8.157489776611328 -2.5
7.218393325805664 -5.424257755279541 -2.5
7.995028972625732 -4.196103572845459 -2.5
8.56459903717041 -2.859267473220825 -2.5
9.0 -0.7265429496765137 -2.5
-8.209721565246582 -2.7408103942871094 -2.5
-7.962563514709473 -3.392529249191284 -2.5
-6.91930627822876 -5.199521541595459 -2.5
-5.47390604019165 -6.704287052154541 -2.5
-4.916679382324219 -7.123046875 -2.5
-4.327578067779541 -7.495575904846191 -2.5
-3.710400342941284 -7.819501876831055 -2.5
-3.069155216217041 -8.092695236206055 -2.5
0.3485107421875 -8.648134231567383 -2.5
1.0432714223861694 -8.592041015625 -2.5
2.408022403717041 -8.313417434692383 -2.5
3.069164991378784 -8.092695236206055 -2.5
3.7104148864746094 -7.819491863250732 -2.5
4.916698932647705 -7.123036861419678 -2.5
5.473920822143555 -6.704306602478027 -2.5
5.995639324188232 -6.242109298706055 -2.5
6.478486061096191 -5.739433288574219 -2.5
6.9193115234375 -5.199501991271973 -2.5
7.315253734588623 -4.625869274139404 -2.5
7.663759708404541 -4.02224588394165 -2.5
7.962563514709473 -3.392529249191284 -2.5
8.209731101989746 -2.740800619125366 -2.5
8.40365219116211 -2.071298837661743 -2.5
8.543075561523438 -1.388369083404541 -2.5
8.627089500427246 -0.6964355111122131 -2.5
-8.28173828125 -0.6685644388198853 -2.5
-8.201093673706055 -1.3327929973602295 -2.5
-8.067245483398438 -1.9883886575698853 -2.5
-7.881083965301514 -2.6310839653015137 -2.5
-7.643818378448486 -3.256718635559082 -2.5
-4.719872951507568 -6.837910175323486 -2.5
-3.5618603229522705 -7.506474494934082 -2.5
-2.3116161823272705 -7.980634689331055 -2.5
-1.6619433164596558 -8.140761375427246 -2.5
-1.001489281654358 -8.248085975646973 -2.5
1.0015087127685547 -8.248095512390137 -2.5
2.9463133811950684 -7.768740177154541 -2.5
4.719872951507568 -6.837890625 -2.5
5.755624771118164 -5.992236137390137 -2.5
6.642309188842773 -4.991366863250732 -2.5
7.022417068481445 -4.440693378448486 -2.5
8.067245483398438 -1.988378882408142 -2.5
8.201088905334473 -1.332802653312683 -2.5
8.28173828125 -0.6685546636581421 -2.5
-7.960903167724609 -0.6426659822463989 -2.5
-7.883393287658691 -1.2811717987060547 -2.5
-7.575786113739014 -2.529179573059082 -2.5
-7.071972370147705 -3.7116503715515137 -2.5
-6.750375747680664 -4.268671989440918 -2.5
-5.532670974731445 -5.760117053985596 -2.5
-4.53701639175415 -6.573017597198486 -2.5
-3.42388653755188 -7.215683460235596 -2.5
-2.222055673599243 -7.671474456787109 -2.5
-0.962695300579071 -7.928564071655273 -2.5
-0.32158201932907104 -7.980331897735596 -2.5
0.9627050757408142 -7.928564071655273 -2.5
2.2220799922943115 -7.671464443206787 -2.5
3.993422746658325 -6.91677713394165 -2.5
4.537035942077637 -6.573007583618164 -2.5
5.051230430603027 -6.186611175537109 -2.5
5.532665729522705 -5.760107517242432 -2.5
6.750380516052246 -4.268671989440918 -2.5
7.347704887390137 -3.130556583404541 -2.5
7.575780868530273 -2.5291600227355957 -2.5
7.754726409912109 -1.9113574028015137 -2.5
7.883388519287109 -1.2811717987060547 -2.5
7.960917949676514 -0.6426562070846558 -2.5
-7.686962604522705 9.765624781721272e-06 -2.5
-7.662045955657959 -0.6185351610183716 -2.5
-7.587421894073486 -1.2330663204193115 -2.5
-7.463603496551514 -1.8396190404891968 -2.5
-7.291367053985596 -2.434208869934082 -2.5
-7.071855545043945 -3.012939453125 -2.5
-6.806469440460205 -3.5723047256469727 -2.5
-5.753774166107178 -5.097402095794678 -2.5
-4.861586570739746 -5.954355239868164 -2.5
-4.366684436798096 -6.326220512390137 -2.5
-3.8434910774230957 -6.657109260559082 -2.5
-2.725830078125 -7.187421798706055 -2.5
-1.5375878810882568 -7.531601428985596 -2.5
-0.3095117211341858 -7.680722713470459 -2.5
0.3095410168170929 -7.680712699890137 -2.5
0.9265673756599426 -7.630908012390137 -2.5
1.53759765625 -7.531601428985596 -2.5
2.1386523246765137 -7.383456707000732 -2.5
3.295356273651123 -6.944775104522705 -2.5
3.8434863090515137 -6.657109260559082 -2.5
4.36669921875 -6.326240062713623 -2.5
4.861591815948486 -5.954345703125 -2.5
5.324946403503418 -5.543847560882568 -2.5
5.753774166107178 -5.097392559051514 -2.5
6.145287990570068 -4.617870807647705 -2.5
7.463598251342773 -1.8396093845367432 -2.5
-7.406874656677246 0.0 -2.5
-7.382861137390137 -0.5960058569908142 -2.5
-7.310956954956055 -1.1881250143051147 -2.5
-6.260219573974609 -3.9587206840515137 -2.5
-5.544135570526123 -4.91165018081665 -2.5
-4.207582950592041 -6.09573221206665 -2.5
-3.703442335128784 -6.414531230926514 -2.5
-3.1752734184265137 -6.691738128662109 -2.5
-1.4815624952316284 -7.257177352905273 -2.5
0.8928124904632568 -7.352851390838623 -2.5
1.4815673828125 -7.257177352905273 -2.5
2.060727596282959 -7.114433288574219 -2.5
2.626523494720459 -6.925537109375 -2.5
3.703442335128784 -6.414540767669678 -2.5
4.6844482421875 -5.737382888793945 -2.5
5.130927562713623 -5.341845512390137 -2.5
6.260214805603027 -3.9587109088897705 -2.5
6.558461666107178 -3.442138671875 -2.5
6.814174652099609 -2.9032323360443115 -2.5
7.19164514541626 -1.7725683450698853 -2.5
7.382856369018555 -0.595996081829071 -2.5
-7.144594669342041 1.9531249563442543e-05 -2.5
-7.121425628662109 -0.5748925805091858 -2.5
-7.052060604095459 -1.1460546255111694 -2.5
-6.936982154846191 -1.709804654121399 -2.5
-6.038530349731445 -3.818535089492798 -2.5
-5.711689472198486 -4.292060375213623 -2.5
-5.34780740737915 -4.737734317779541 -2.5
-4.949238300323486 -5.152685642242432 -2.5
-4.518569469451904 -5.534228324890137 -2.5
-4.058588981628418 -5.8798828125 -2.5
-1.9877440929412842 -6.862499713897705 -2.5
-1.4290869235992432 -7.000185489654541 -2.5
1.9877440929412842 -6.862499713897705 -2.5
2.533515453338623 -6.68029260635376 -2.5
3.5722997188568115 -6.187392234802246 -2.5
4.05859375 -5.879872798919678 -2.5
4.518574237823486 -5.534228324890137 -2.5
5.347802639007568 -4.737734317779541 -2.5
5.711689472198486 -4.292050838470459 -2.5
6.038544654846191 -3.8185253143310547 -2.5
6.326215744018555 -3.320244073867798 -2.5
6.776904106140137 -2.262460947036743 -2.5
-6.898227214813232 0.0007519531063735485 -2.5
-6.876049518585205 -0.5550780892372131 -2.5
-6.80908203125 -1.1065722703933716 -2.5
-6.697963714599609 -1.6508886814117432 -2.5
-6.108232498168945 -3.2058496475219727 -2.5
-5.830463886260986 -3.686904191970825 -2.5
-5.514882564544678 -4.144169807434082 -2.5
-5.163535118103027 -4.574482440948486 -2.5
-4.778700828552246 -4.975136756896973 -2.5
-3.9187450408935547 -5.677285194396973 -2.5
-3.449213743209839 -5.974199295043945 -2.5
-2.9572949409484863 -6.232372760772705 -2.5
-1.9192479848861694 -6.626044750213623 -2.5
-1.3798534870147705 -6.758994102478027 -2.5
-0.8314940929412842 -6.848105430603027 -2.5
2.446225643157959 -6.450107097625732 -2.5
2.9573094844818115 -6.232363224029541 -2.5
3.44921875 -5.974189281463623 -2.5
3.9187450408935547 -5.677265644073486 -2.5
4.778700828552246 -4.975146293640137 -2.5
5.163535118103027 -4.574482440948486 -2.5
5.514882564544678 -4.144160270690918 -2.5
6.346396446228027 -2.703935384750366 -2.5
6.543398380279541 -2.184501886367798 -2.5
6.876044750213623 -0.5550780892372131 -2.5
-6.666845321655273 9.765624781721272e-06 -2.5
-6.645229339599609 -0.5364550948143005 -2.5
-6.473119735717773 -1.5954687595367432 -2.5
-6.323744773864746 -2.1111717224121094 -2.5
-6.133359432220459 -2.613173723220825 -2.5
-4.990200042724609 -4.420937538146973 -2.5
-4.216411113739014 -5.164150238037109 -2.5
-2.364091634750366 -6.233583927154541 -2.5
-1.854824185371399 -6.403613090515137 -2.5
-1.3335399627685547 -6.53209924697876 -2.5
-0.8035937547683716 -6.618222713470459 -2.5
-0.2684375047683716 -6.661425590515137 -2.5
1.3335497379302979 -6.53209924697876 -2.5
1.8548437356948853 -6.403603553771973 -2.5
3.7872068881988525 -5.486689567565918 -2.5
4.216415882110596 -5.164150238037109 -2.5
4.618281364440918 -4.808125019073486 -2.5
5.329765319824219 -4.005048751831055 -2.5
6.133359432220459 -2.6131834983825684 -2.5
6.580512523651123 -1.069423794746399 -2.5
-6.448574066162109 0.0 -2.5
-6.365058422088623 -1.0344140529632568 -2.5
-6.261181354522705 -1.5432324409484863 -2.5
-5.932548522949219 -2.5276269912719727 -2.5
-5.709921836853027 -2.9967870712280273 -2.5
-5.450253963470459 -3.446533203125 -2.5
-5.155253887176514 -3.873915910720825 -2.5
-4.826821327209473 -4.276181697845459 -2.5
-4.078369140625 -4.995087623596191 -2.5
-3.6631932258605957 -5.307060241699219 -2.5
-2.764453172683716 -5.825947284698486 -2.5
-1.2898778915405273 -6.318242073059082 -2.5
-0.25966307520866394 -6.443329811096191 -2.5
1.2898876667022705 -6.31823205947876 -2.5
1.7941112518310547 -6.193954944610596 -2.5
2.286699056625366 -6.029501914978027 -2.5
2.764457941055298 -5.82595682144165 -2.5
3.663203001022339 -5.307050704956055 -2.5
4.078369140625 -4.995087623596191 -2.5
4.826826095581055 -4.276181697845459 -2.5
5.155258655548096 -3.873915910720825 -2.5
5.450263500213623 -3.446523427963257 -2.5
5.709921836853027 -2.9967870712280273 -2.5
5.932548522949219 -2.5276074409484863 -2.5
6.11669397354126 -2.042060613632202 -2.5
6.427651405334473 -0.5188769698143005 -2.5
-6.222182273864746 -0.5022948980331421 -2.5
-5.921166896820068 -1.9767773151397705 -2.5
-5.742895603179932 -2.4468066692352295 -2.5
-5.276025295257568 -3.336357355117798 -2.5
-4.672524452209473 -4.139482498168945 -2.5
-4.324282169342041 -4.502050876617432 -2.5
-3.546093702316284 -5.137412071228027 -2.5
-3.121210813522339 -5.406084060668945 -2.5
-2.2135984897613525 -5.836757659912109 -2.5
-1.2486523389816284 -6.116250038146973 -2.5
-0.75244140625 -6.19689416885376 -2.5
1.2486523389816284 -6.116259574890137 -2.5
1.7367626428604126 -5.995937347412109 -2.5
2.2136034965515137 -5.836748123168945 -2.5
3.121220588684082 -5.406074047088623 -2.5
3.947993040084839 -4.835390567779541 -2.5
4.990454196929932 -3.750077962875366 -2.5
5.742905139923096 -2.4468066692352295 -2.5
6.061025142669678 -1.493896484375 -2.5
6.161581993103027 -1.0013476610183716 -2.5
6.222182273864746 -0.5023046731948853 -2.5
-6.047382831573486 9.765624781721272e-06 -2.5
-5.969077110290527 -0.9700683355331421 -2.5
-5.736152172088623 -1.9149999618530273 -2.5
-5.563466548919678 -2.370361328125 -2.5
-5.354687213897705 -2.810351610183716 -2.5
-4.834526062011719 -3.6329197883605957 -2.5
-4.526523113250732 -4.010146617889404 -2.5
-3.824638605117798 -4.684316158294678 -2.5
-3.023686408996582 -5.237167835235596 -2.5
-2.592465877532959 -5.463496208190918 -2.5
-2.144423723220825 -5.654384613037109 -2.5
-0.2435009777545929 -6.042470455169678 -2.5
0.24350585043430328 -6.042460918426514 -2.5
0.7289404273033142 -6.003271579742432 -2.5
1.6824951171875 -5.808603286743164 -2.5
2.1444385051727295 -5.654384613037109 -2.5
3.023696184158325 -5.237167835235596 -2.5
3.435302734375 -4.976874828338623 -2.5
4.189169883728027 -4.361367225646973 -2.5
4.526533126831055 -4.010146617889404 -2.5
4.834536075592041 -3.6329002380371094 -2.5
5.354687213897705 -2.810351610183716 -2.5
5.871650218963623 -1.4472167491912842 -2.5
6.027763366699219 -0.4866015613079071 -2.5
-5.843520164489746 -0.47172850370407104 -2.5
-5.69216775894165 -1.4029881954193115 -2.5
-5.393403053283691 -2.297910213470459 -2.5
-5.191005706787109 -2.7244529724121094 -2.5
-4.686743259429932 -3.521865129470825 -2.5
-4.061113357543945 -4.22805643081665 -2.5
-3.7077245712280273 -4.541142463684082 -2.5
-2.931269407272339 -5.077089786529541 -2.5
-2.5132176876068115 -5.296474456787109 -2.5
-2.078871965408325 -5.481552600860596 -2.5
-1.6310595273971558 -5.631044864654541 -2.5
-0.7066552639007568 -5.819775104522705 -2.5
-0.2360546886920929 -5.857753753662109 -2.5
0.7066503763198853 -5.819765567779541 -2.5
1.172646403312683 -5.744042873382568 -2.5
2.931269407272339 -5.077079772949219 -2.5
3.3302977085113525 -4.824746131896973 -2.5
3.7077245712280273 -4.541122913360596 -2.5
4.388164043426514 -3.8875584602355957 -2.5
5.191000938415527 -2.724433422088623 -2.5
5.56082010269165 -1.8564647436141968 -2.5
5.786606311798096 -0.9404101371765137 -2.5
5.843510627746582 -0.47172850370407104 -2.5
-5.668583869934082 -0.4576074182987213 -2.5
-5.521772384643555 -1.3609960079193115 -2.5
-5.231953144073486 -2.229120969772339 -2.5
-5.035614967346191 -2.642890453338623 -2.5
-4.546445369720459 -3.4164257049560547 -2.5
-4.256801605224609 -3.771191358566284 -2.5
-2.0166454315185547 -5.317451000213623 -2.5
-1.1375585794448853 -5.572089672088623 -2.5
-0.22899413108825684 -5.68240213394165 -2.5
0.22899413108825684 -5.682412147521973 -2.5
1.1375536918640137 -5.572089672088623 -2.5
2.843505859375 -4.925097465515137 -2.5
3.9395408630371094 -4.101493835449219 -2.5
4.256801605224609 -3.771181583404541 -2.5
5.231943130493164 -2.229120969772339 -2.5
5.394345760345459 -1.8008886575698853 -2.5
5.613373756408691 -0.9122558236122131 -2.5
5.668588638305664 -0.4576074182987213 -2.5
-5.502270221710205 -0.4441894292831421 -2.5
-5.236073970794678 -1.748046875 -2.5
-5.078437328338623 -2.163710832595825 -2.5
-4.887861251831055 -2.5653417110443115 -2.5
-4.131899356842041 -3.660537004470825 -2.5
-3.8239550590515137 -3.981152296066284 -2.5
-3.4912109375 -4.275937557220459 -2.5
-3.135815382003784 -4.543007850646973 -2.5
-2.366445302963257 -4.987187385559082 -2.5
-1.9574755430221558 -5.161425590515137 -2.5
-1.5358006954193115 -5.302206993103027 -2.5
-1.1041796207427979 -5.408603191375732 -2.5
0.6653808355331421 -5.479902267456055 -2.5
1.1041796207427979 -5.408583641052246 -2.5
2.366445302963257 -4.987177848815918 -2.5
2.760073184967041 -4.780595779418945 -2.5
3.135810375213623 -4.542988300323486 -2.5
3.491205930709839 -4.275927543640137 -2.5
3.8239500522613525 -3.981152296066284 -2.5
4.131904125213623 -3.6605467796325684 -2.5
4.665595531463623 -2.950331926345825 -2.5
5.236079216003418 -1.748046875 -2.5
5.359760761260986 -1.321044921875 -2.5
5.448671817779541 -0.885498046875 -2.5
5.502260684967041 -0.44416990876197815 -2.5
-5.361269474029541 0.0 -2.5
-5.291840553283691 -0.85999995470047 -2.5
-5.20547342300415 -1.2830272912979126 -2.5
-4.932260513305664 -2.101435422897339 -2.5
-4.747172832489014 -2.491503953933716 -2.5
-3.713876962661743 -3.8665428161621094 -2.5
-3.3907225131988525 -4.152871131896973 -2.5
-3.045546770095825 -4.412226676940918 -2.5
-2.6806445121765137 -4.642988204956055 -2.5
-1.491601586341858 -5.149589538574219 -2.5
-1.0723974704742432 -5.252910137176514 -2.5
2.298330068588257 -4.843632698059082 -2.5
2.6806395053863525 -4.642988204956055 -2.5
3.0455517768859863 -4.412226676940918 -2.5
3.713876962661743 -3.8665525913238525 -2.5
4.286035060882568 -3.2207324504852295 -2.5
4.747162818908691 -2.491503953933716 -2.5
5.085361003875732 -1.6977343559265137 -2.5
5.205483436584473 -1.2830272912979126 -2.5
