ply
format ascii 1.0
element vertex 785
property float x
property float y
property float z
end_header
15.924867630004883 -14.108154296875 5.700721263885498
-6.241757869720459 -16.458114624023438 4.507965087890625
15.922426223754883 -14.105996131896973 5.447935581207275
-6.239306449890137 -16.451650619506836 4.2989935874938965
15.920000076293945 -14.10384750366211 5.196657180786133
-6.236869812011719 -16.445215225219727 4.091333389282227
15.91280460357666 -14.0974702835083 4.451124668121338
15.91042423248291 -14.09536075592041 4.205146789550781
15.908061027526855 -14.09326171875 3.9603166580200195
-6.224892616271973 -16.413612365722656 3.0702366828918457
15.905702590942383 -14.091181755065918 3.7165660858154297
-6.220170974731445 -16.40119171142578 2.668748617172241
-6.217826843261719 -16.39501953125 2.4692678451538086
-24.011981964111328 -10.230536460876465 3.381049156188965
15.896376609802246 -14.08292007446289 2.7510693073272705
-6.213173866271973 -16.38274383544922 2.072551727294922
-6.210859298706055 -16.37662124633789 1.875216007232666
-23.969266891479492 -10.212343215942383 2.497797727584839
-6.206249713897705 -16.364471435546875 1.4823434352874756
-23.941030502319336 -10.200312614440918 1.9139376878738403
-6.203949928283691 -16.358417510986328 1.2867259979248047
-23.92698097229004 -10.194315910339355 1.62327241897583
-6.20166015625 -16.352373123168945 1.0915606021881104
5.430776119232178 -26.601659774780273 1.69456148147583
-6.199379920959473 -16.34634780883789 0.89678955078125
15.678805351257324 -22.714628219604492 1.4158037900924683
-23.898969650268555 -10.182392120361328 1.0440911054611206
-23.885009765625 -10.176445007324219 0.755430281162262
-6.194814205169678 -16.334325790405273 0.5083276033401489
5.430776119232178 -26.601659774780273 0.7899706959724426
-23.87107276916504 -10.170507431030273 0.467292457818985
-6.192538738250732 -16.32832908630371 0.3144952356815338
5.430776119232178 -26.601659774780273 0.48909637331962585
-23.857162475585938 -10.164579391479492 0.1796041876077652
-23.84326171875 -10.158652305603027 -0.10770324617624283
5.430776119232178 -26.601659774780273 -0.11282394081354141
-23.81551170349121 -10.146825790405273 -0.6814597845077515
5.430776119232178 -26.601659774780273 -0.7145487666130066
-23.80164909362793 -10.140917778015137 -0.968138575553894
-6.181196212768555 -16.298398971557617 -0.6522212028503418
5.430776119232178 -26.601659774780273 -1.0158941745758057
-23.787797927856445 -10.135019302368164 -1.2545497417449951
-6.178925514221191 -16.292430877685547 -0.8454267978668213
5.430766582489014 -26.601669311523438 -1.317318081855774
27.698427200317383 -2.236035108566284 -1.3482812643051147
-23.774921417236328 -10.12954044342041 -1.541097640991211
-25.380170822143555 -13.320507049560547 -1.709289789199829
-6.176650047302246 -16.286436080932617 -1.0387067794799805
5.430776119232178 -26.601659774780273 -1.6190667152404785
-23.776636123657227 -10.130263328552246 -1.82882559299469
-25.568817138671875 -13.41952133178711 -2.043351411819458
-14.643085479736328 -17.93450164794922 -1.6383618116378784
5.430776119232178 -26.601659774780273 -1.9212144613265991
12.904023170471191 -18.694686889648438 -1.607412338256836
23.588197708129883 -14.916239738464355 -1.9748783111572266
24.844364166259766 -10.585175514221191 -1.9109923839569092
-27.186317443847656 -9.076123237609863 -2.347599983215332
-22.755496978759766 -9.695195198059082 -2.0259833335876465
-25.37837791442871 -13.319628715515137 -2.347599983215332
-24.268436431884766 -15.346435546875 -2.351879835128784
-21.581777572631836 -19.119813919067383 -2.3616597652435303
-19.99588394165039 -20.81791877746582 -2.364323616027832
-14.438227653503418 -25.007762908935547 -2.365217924118042
-9.211122512817383 -19.412078857421875 -1.75992751121521
-8.04879379272461 -27.78768539428711 -2.3695974349975586
-5.791352272033691 -28.367919921875 -2.3714935779571533
-3.49236798286438 -28.762332916259766 -2.3731768131256104
1.1678320169448853 -28.978925704956055 -2.3755383491516113
7.516909122467041 -19.820438385009766 -1.7362902164459229
12.414091110229492 -26.16208839416504 -2.3718905448913574
18.257017135620117 -22.360742568969727 -2.3644680976867676
21.542705535888672 -19.08516502380371 -2.357375383377075
23.646753311157227 -14.95327091217041 -2.2916293144226074
24.844911575317383 -10.585410118103027 -2.2120397090911865
-26.860145568847656 0.0 -2.5
-26.5123291015625 -4.308661937713623 -2.5
-25.679555892944336 -6.329433441162109 -2.4616470336914062
-23.92471694946289 -7.987246036529541 -2.347599983215332
-18.879497528076172 -16.725770950317383 -2.347599983215332
-17.49124526977539 -18.210302352905273 -2.3501293659210205
-15.990370750427246 -19.584667205810547 -2.3532466888427734
-14.368837356567383 -20.816884994506836 -2.3542675971984863
-12.651689529418945 -21.913387298583984 -2.3551063537597656
-9.289970397949219 -19.578250885009766 -2.0169756412506104
-5.072978496551514 -24.849149703979492 -2.36053204536438
1.0223339796066284 -25.368436813354492 -2.3630762100219727
1.8602977991104126 -15.320907592773438 -1.436461091041565
3.10430645942688 -15.205878257751465 -1.444474458694458
7.0587158203125 -24.369462966918945 -2.361414670944214
7.564750671386719 -19.94660186767578 -1.9855544567108154
15.979415893554688 -19.57120132446289 -2.351630449295044
14.760102272033691 -15.366826057434082 -1.983168601989746
15.245180130004883 -13.505986213684082 -1.8956807851791382
21.318037033081055 -13.480673789978027 -2.347599983215332
22.333646774291992 -11.72159194946289 -2.347599983215332
23.204423904418945 -9.886454582214355 -2.347599983215332
26.079652786254883 -6.428017616271973 -2.5
26.512331008911133 -4.308681488037109 -2.5
-23.977596282958984 1.9531249563442543e-05 -2.5
-23.899843215942383 -1.9293944835662842 -2.5
-23.667089462280273 -3.8462791442871094 -2.5
-23.280853271484375 -5.738212585449219 -2.5
-22.74363136291504 -7.592929363250732 -2.5
-21.251039505004883 -9.054218292236328 -2.4084460735321045
-19.93685531616211 -10.463671684265137 -2.347599983215332
-16.853374481201172 -14.93080997467041 -2.347599983215332
-12.790458679199219 -18.530214309692383 -2.347599983215332
-11.257685661315918 -19.498905181884766 -2.3475475311279297
-9.65780258178711 -20.35340690612793 -2.3489155769348145
-6.178520202636719 -16.291357040405273 -1.8166533708572388
-4.793784141540527 -16.55000877380371 -1.796495795249939
-4.512641429901123 -22.104413986206055 -2.3522324562072754
-0.908740222454071 -22.550907135009766 -2.353156566619873
0.9088476300239563 -22.552459716796875 -2.353318691253662
1.8569921255111694 -15.293662071228027 -1.6062910556793213
3.1002197265625 -15.185869216918945 -1.615997552871704
7.587470531463623 -20.00650405883789 -2.230938673019409
9.657001495361328 -20.351669311523438 -2.3487157821655273
11.25796890258789 -19.499345779418945 -2.347599983215332
14.24010181427002 -17.440927505493164 -2.347599983215332
18.000181198120117 -13.526240348815918 -2.347599983215332
19.03024673461914 -12.033974647521973 -2.347599983215332
12.510590553283691 -5.330244064331055 -1.4178626537322998
12.597343444824219 -4.20559549331665 -1.3847124576568604
23.667091369628906 -3.846269369125366 -2.5
23.89983367919922 -1.9293651580810547 -2.5
-21.64889144897461 9.765624781721272e-06 -2.5
-21.368539810180664 -3.47271466255188 -2.5
-21.019819259643555 -5.180917739868164 -2.5
-19.123559951782227 -10.036826133728027 -2.494056463241577
-15.216596603393555 -13.480751991271973 -2.347599983215332
-11.5482759475708 -16.73060417175293 -2.347599983215332
-10.16458511352539 -17.6055850982666 -2.347599983215332
-8.714950561523438 -18.366395950317383 -2.347599983215332
-5.905185222625732 -15.570634841918945 -1.9230506420135498
-4.838364124298096 -16.703916549682617 -2.0082430839538574
-2.4504051208496094 -20.180946350097656 -2.347599983215332
0.8185839653015137 -20.312685012817383 -2.347599983215332
1.853676676750183 -15.266406059265137 -1.7759029865264893
3.094057559967041 -15.155673027038574 -1.7862679958343506
8.714980125427246 -18.36638641357422 -2.347599983215332
10.164599418640137 -17.605566024780273 -2.347599983215332
12.8571138381958 -15.74705982208252 -2.347599983215332
14.082526206970215 -14.661455154418945 -2.347599983215332
12.189414024353027 -5.193408012390137 -1.530060052871704
12.479863166809082 -4.166386604309082 -1.5193579196929932
21.368549346923828 -3.472724437713623 -2.5
21.57869529724121 -1.7419921159744263 -2.5
-19.727977752685547 9.765624781721272e-06 -2.5
-19.664003372192383 -1.587441325187683 -2.5
-19.472524642944336 -3.1645801067352295 -2.5
-18.712709426879883 -6.247216701507568 -2.5
-17.46826171875 -9.16805648803711 -2.5
-15.581865310668945 -11.709023475646973 -2.469956874847412
-13.927470207214355 -12.3386812210083 -2.3579351902008057
-12.832968711853027 -13.360527038574219 -2.347599983215332
-11.716279029846191 -14.349833488464355 -2.347599983215332
-10.52358341217041 -15.246073722839355 -2.347599983215332
-5.905185222625732 -15.570634841918945 -2.110297679901123
-4.830039024353027 -16.6751651763916 -2.199993133544922
-2.232963800430298 -18.390283584594727 -2.347599983215332
-0.7459276914596558 -18.510351181030273 -2.347599983215332
6.569199085235596 -17.321502685546875 -2.347599983215332
7.941694259643555 -16.736738204956055 -2.347599983215332
10.523622512817383 -15.246064186096191 -2.347599983215332
17.4682559967041 -9.168046951293945 -2.5
14.071464538574219 -3.4682812690734863 -1.836552381515503
19.472509384155273 -3.1645898818969727 -2.5
19.66401481628418 -1.5874121189117432 -2.5
-18.11605453491211 0.0 -2.5
-17.881454467773438 -2.906015634536743 -2.5
-17.183744430541992 -5.736777305603027 -2.5
-16.666406631469727 -7.100888729095459 -2.5
-10.83646011352539 -13.272255897521973 -2.364508628845215
-7.292778015136719 -15.36922836303711 -2.347599983215332
-5.873007774353027 -15.485761642456055 -2.285541534423828
-4.656508922576904 -16.076074600219727 -2.309670925140381
1.853676676750183 -15.266406059265137 -2.1222245693206787
3.094057559967041 -15.155673027038574 -2.134610176086426
4.732954025268555 -16.340038299560547 -2.347599983215332
9.663763999938965 -14.00033187866211 -2.347599983215332
12.511933326721191 -13.02627944946289 -2.492527961730957
13.560065269470215 -12.01317310333252 -2.5
10.939550399780273 -5.741513729095459 -1.7049392461776733
14.036581993103027 -3.4596972465515137 -1.9950065612792969
-14.825854301452637 -7.781220436096191 -2.5
-13.385668754577637 -10.058700561523438 -2.5
-11.5988130569458 -12.075624465942383 -2.5
-8.031498908996582 -13.910985946655273 -2.398360252380371
-6.74035120010376 -14.204999923706055 -2.347599983215332
-4.37441873550415 -15.102274894714355 -2.347599983215332
-3.145009756088257 -15.405302047729492 -2.347599983215332
-0.6330907940864563 -15.710302352905273 -2.347599983215332
0.6331152319908142 -15.71029281616211 -2.347599983215332
1.853676676750183 -15.266406059265137 -2.296159505844116
3.091479539871216 -15.143085479736328 -2.30764102935791
6.777695178985596 -14.283652305603027 -2.3606009483337402
9.484891891479492 -13.74120044708252 -2.4929919242858887
12.532880783081055 -11.103154182434082 -2.5
13.385685920715332 -10.058671951293945 -2.5
14.151664733886719 -8.948954582214355 -2.5
10.798847198486328 -5.667665958404541 -1.8209481239318848
12.34035587310791 -4.119804382324219 -1.9424984455108643
16.52692985534668 -2.6858787536621094 -2.5
16.689456939697266 -1.3473047018051147 -2.5
-15.510624885559082 -1.252138614654541 -2.5
-14.315878868103027 -6.099423885345459 -2.5
-13.152079582214355 -8.316864967346191 -2.5
-11.647626876831055 -10.3189058303833 -2.5
-10.779545783996582 -11.222695350646973 -2.5
-9.841527938842773 -12.053690910339355 -2.5
-8.83968734741211 -12.806513786315918 -2.5
-6.655693054199219 -14.026611328125 -2.4942984580993652
-5.434003829956055 -14.328349113464355 -2.461937427520752
-4.195224285125732 -14.483710289001465 -2.422558307647705
-2.980659008026123 -14.60024356842041 -2.394014835357666
-0.593432605266571 -14.726171493530273 -2.3677868843078613
0.5939111113548279 -14.737343788146973 -2.369584321975708
1.7866991758346558 -14.714735984802246 -2.381392240524292
4.218447208404541 -14.56371021270752 -2.435941696166992
5.472846508026123 -14.430692672729492 -2.479523181915283
6.6612548828125 -14.038251876831055 -2.4963715076446533
9.841547966003418 -12.053671836853027 -2.5
10.779545783996582 -11.222684860229492 -2.5
12.440199851989746 -9.348193168640137 -2.5
10.778803825378418 -5.657138347625732 -1.9557056427001953
10.999638557434082 -4.686493873596191 -1.9208801984786987
12.359091758728027 -4.126054763793945 -2.0933051109313965
14.036581993103027 -3.4596972465515137 -2.322566270828247
15.510626792907715 -1.2521288394927979 -2.5
-14.5310640335083 0.0 -2.5
-14.483930587768555 -1.1692577600479126 -2.5
-13.368261337280273 -5.69567346572876 -2.5
-12.86661148071289 -6.7529296875 -2.5
-12.281489372253418 -7.766357421875 -2.5
-10.876660346984863 -9.635869026184082 -2.5
-7.265517234802246 -12.584257125854492 -2.5
-4.042773246765137 -13.957353591918945 -2.5
0.5842089653015137 -14.496464729309082 -2.4960761070251465
1.7495946884155273 -14.409071922302246 -2.497223377227783
4.042802810668945 -13.957324028015137 -2.5
5.152792930603027 -13.586767196655273 -2.5
7.265527248382568 -12.584257125854492 -2.5
8.254584312438965 -11.958818435668945 -2.5
9.190102577209473 -11.255810737609863 -2.5
10.066015243530273 -10.47982406616211 -2.5
12.281503677368164 -7.766347408294678 -2.5
11.010210037231445 -4.691005706787109 -2.059018850326538
13.78323745727539 -4.601513385772705 -2.5
14.036581993103027 -3.4596972465515137 -2.487201690673828
14.34288501739502 -2.330927610397339 -2.5
14.483935356140137 -1.1692382097244263 -2.5
-13.229731559753418 -3.2608299255371094 -2.5
-12.924452781677246 -4.314814567565918 -2.5
-12.535341262817383 -5.340800762176514 -2.5
-12.06493091583252 -6.332167625427246 -2.5
-10.8929443359375 -8.185526847839355 -2.5
-10.198954582214355 -9.035497665405273 -2.5
-4.831713676452637 -12.74022388458252 -2.5
-2.7254834175109863 -13.350302696228027 -2.5
-1.6423876285552979 -13.526308059692383 -2.5
-0.5486279129981995 -13.614619255065918 -2.5
0.548657238483429 -13.614628791809082 -2.5
1.6423925161361694 -13.526317596435547 -2.5
2.7255029678344727 -13.350292205810547 -2.5
3.790908098220825 -13.087685585021973 -2.5
4.831728458404541 -12.740214347839355 -2.5
5.841230392456055 -12.310107231140137 -2.5
6.812841415405273 -11.800155639648438 -2.5
7.740273475646973 -11.213690757751465 -2.5
8.617499351501465 -10.5545015335083 -2.5
11.516279220581055 -7.282441139221191 -2.5
12.924452781677246 -4.314804553985596 -2.5
13.581488609313965 -1.0963964462280273 -2.5
-12.657397270202637 -2.057021379470825 -2.5
-12.450824737548828 -3.06884765625 -2.5
-12.1635103225708 -4.060771465301514 -2.5
-11.797304153442383 -5.026357173919678 -2.5
-9.598495483398438 -8.503515243530273 -2.5
-7.2845458984375 -10.553485870361328 -2.5
-5.497290134429932 -11.585331916809082 -2.5
-4.547231197357178 -11.99013614654541 -2.5
-1.5456981658935547 -12.729941368103027 -2.5
0.516357421875 -12.813036918640137 -2.5
1.5457079410552979 -12.729931831359863 -2.5
2.5650243759155273 -12.564287185668945 -2.5
3.5677196979522705 -12.317148208618164 -2.5
4.547260761260986 -11.990117073059082 -2.5
7.284560203552246 -10.553476333618164 -2.5
8.110136985778809 -9.933095932006836 -2.5
8.8831148147583 -9.248300552368164 -2.5
4.025380611419678 -3.566171884536743 -1.0484405755996704
4.218793869018555 -3.1702051162719727 -1.0288119316101074
4.554033279418945 -2.8797850608825684 -1.050454020500183
11.354609489440918 -5.95934534072876 -2.5
11.797308921813965 -5.026347637176514 -2.5
12.657397270202637 -2.0570311546325684 -2.5
12.781869888305664 -1.0318554639816284 -2.5
-12.107519149780273 0.0 -2.5
-12.068251609802246 -0.9742480516433716 -2.5
-11.13866138458252 -4.745741844177246 -2.5
-10.720673561096191 -5.626650333404541 -2.5
-10.233144760131836 -6.47106409072876 -2.5
-9.6792573928833 -7.273505687713623 -2.5
-8.387177467346191 -8.731963157653809 -2.5
-6.877841472625732 -9.964286804199219 -2.5
-5.190380573272705 -10.938525199890137 -2.5
-4.293368816375732 -11.32070255279541 -2.5
-3.3685107231140137 -11.629472732543945 -2.5
-0.48750486969947815 -12.097684860229492 -2.5
1.4594091176986694 -12.019218444824219 -2.5
6.053764343261719 -10.485400199890137 -2.5
6.877856254577637 -9.964277267456055 -2.5
7.6573486328125 -9.378524780273438 -2.5
8.387163162231445 -8.731963157653809 -2.5
3.8342578411102295 -3.396855354309082 -1.0577162504196167
4.408837795257568 -2.787978410720825 -1.0770974159240723
11.755693435668945 -2.897509813308716 -2.5
11.950727462768555 -1.942177653312683 -2.5
12.068251609802246 -0.9742285013198853 -2.5
-11.42733383178711 -0.92249995470047 -2.5
-10.874521255493164 -3.630439281463623 -2.5
-9.165224075317383 -6.887216567993164 -2.5
-8.581308364868164 -7.602382659912109 -2.5
-7.250678539276123 -8.880468368530273 -2.5
-5.732245922088623 -9.928564071655273 -2.5
-2.2931981086730957 -11.23281192779541 -2.5
-1.3818944692611694 -11.380927085876465 -2.5
0.4616454839706421 -11.455214500427246 -2.5
2.293203115463257 -11.23281192779541 -2.5
4.914775371551514 -10.357617378234863 -2.5
3.560307502746582 -3.706660032272339 -1.1207557916641235
4.363232135772705 -2.7591307163238525 -1.1257396936416626
10.547128677368164 -4.493700981140137 -2.5
11.316049575805664 -1.8390331268310547 -2.5
11.427343368530273 -0.92249995470047 -2.5
-10.74276351928711 -1.745849609375 -2.5
-10.567436218261719 -2.6046385765075684 -2.5
-10.01278305053711 -4.266054630279541 -2.5
-9.198798179626465 -5.816972732543945 -2.5
-6.883349418640137 -8.43057632446289 -2.5
-6.18264627456665 -8.95711898803711 -2.5
-3.8594043254852295 -10.17642593383789 -2.5
-2.177011728286743 -10.663740158081055 -2.5
-1.3118749856948853 -10.804335594177246 -2.5
-0.4382373094558716 -10.874862670898438 -2.5
0.4382568299770355 -10.874862670898438 -2.5
2.1770215034484863 -10.663740158081055 -2.5
3.0280418395996094 -10.453984260559082 -2.5
3.8594188690185547 -10.17642593383789 -2.5
5.441864967346191 -9.425556182861328 -2.5
6.182651042938232 -8.957098960876465 -2.5
6.883354187011719 -8.43056583404541 -2.5
3.4431982040405273 -3.5847363471984863 -1.1417336463928223
10.01278305053711 -4.266035079956055 -2.5
10.567436218261719 -2.604628801345825 -2.5
10.74276351928711 -1.7458691596984863 -2.5
-10.356362342834473 0.0 -2.5
-9.82338809967041 -3.2795214653015137 -2.5
-9.527631759643555 -4.059345722198486 -2.5
-9.170092582702637 -4.812831878662109 -2.5
-8.753090858459473 -5.535117149353027 -2.5
-8.279315948486328 -6.221503734588623 -2.5
-7.174096584320068 -7.46902322769165 -2.5
-3.6723926067352295 -9.683359146118164 -2.5
-2.881298780441284 -9.947461128234863 -2.5
-2.071528196334839 -10.147050857543945 -2.5
-1.2483203411102295 -10.280839920043945 -2.5
-0.4169921875 -10.347949028015137 -2.5
0.4170214831829071 -10.3479585647583 -2.5
2.071542978286743 -10.147050857543945 -2.5
2.8813230991363525 -9.947470664978027 -2.5
4.439702033996582 -9.356435775756836 -2.5
5.178178787231445 -8.968856811523438 -2.5
5.883076190948486 -8.52310562133789 -2.5
3.475761651992798 -3.0792479515075684 -1.1209467649459839
4.296699047088623 -2.7170605659484863 -1.2271955013275146
4.924443244934082 -2.584550619125366 -1.342528223991394
5.717241287231445 -2.4358787536621094 -1.5001740455627441
9.823383331298828 -3.2795116901397705 -2.5
10.322772979736328 -0.8333203196525574 -2.5
-9.8753023147583 9.765624781721272e-06 -2.5
-9.843280792236328 -0.794628918170929 -2.5
-9.747421264648438 -1.5841015577316284 -2.5
-9.367084503173828 -3.127187490463257 -2.5
-9.0850830078125 -3.870790958404541 -2.5
-8.744145393371582 -4.589286804199219 -2.5
-8.346513748168945 -5.278017520904541 -2.5
-7.894731044769287 -5.932509422302246 -2.5
-6.840873718261719 -7.122089862823486 -2.5
-6.245585918426514 -7.64944314956665 -2.5
-5.609809398651123 -8.127206802368164 -2.5
-4.937641620635986 -8.552265167236328 -2.5
-4.233466625213623 -8.921835899353027 -2.5
-3.5018162727355957 -9.23355484008789 -2.5
-2.7474608421325684 -9.485400199890137 -2.5
-1.1903271675109863 -9.8032808303833 -2.5
0.3976464867591858 -9.86727523803711 -2.5
1.1903417110443115 -9.803290367126465 -2.5
1.975317358970642 -9.675712585449219 -2.5
4.233476638793945 -8.921835899353027 -2.5
4.937655925750732 -8.552255630493164 -2.5
5.609819412231445 -8.127197265625 -2.5
3.3061864376068115 -3.4420995712280273 -1.2082487344741821
3.398320198059082 -3.010634660720825 -1.1493585109710693
3.7565183639526367 -2.822831869125366 -1.189563274383545
4.263935565948486 -2.696337938308716 -1.2771620750427246
4.894086837768555 -2.568613290786743 -1.399247407913208
5.552890300750732 -2.365859270095825 -1.5280251502990723
9.367079734802246 -3.127187490463257 -2.5
9.58834457397461 -2.3633008003234863 -2.5
-9.434609413146973 9.765624781721272e-06 -2.5
-9.404013633728027 -0.7591601610183716 -2.5
-9.312421798706055 -1.5134081840515137 -2.5
-8.949067115783691 -2.9876365661621094 -2.5
-8.679633140563965 -3.6980466842651367 -2.5
-8.353920936584473 -4.384472370147705 -2.5
-7.974038124084473 -5.042470455169678 -2.5
-7.061899185180664 -6.256298542022705 -2.5
-5.966879844665527 -7.308085918426514 -2.5
-2.6248583793640137 -9.06209945678711 -2.5
-1.13720703125 -9.365800857543945 -2.5
1.1372168064117432 -9.365800857543945 -2.5
1.8871679306030273 -9.243926048278809 -2.5
2.624887704849243 -9.06209945678711 -2.5
3.3455615043640137 -8.821503639221191 -2.5
3.1985838413238525 -3.9175291061401367 -1.340139627456665
3.729365110397339 -2.802421808242798 -1.236128330230713
4.231269359588623 -2.675673723220825 -1.3265762329101562
4.847329139709473 -2.544072151184082 -1.4506157636642456
8.94906234741211 -2.987626791000366 -2.5
9.160449028015137 -2.2578320503234863 -2.5
-9.000004768371582 -0.7265527248382568 -2.5
-8.912353515625 -1.448388695716858 -2.5
-8.306747436523438 -3.5391697883605957 -2.5
-7.995028972625732 -4.196113109588623 -2.5
-6.758515357971191 -5.987519264221191 -2.5
-5.129213809967041 -7.430947303771973 -2.5
-4.5146484375 -7.819570064544678 -2.5
-3.8707714080810547 -8.157489776611328 -2.5
-1.088344693183899 -8.963427543640137 -2.5
-0.3635595738887787 -9.021943092346191 -2.5
0.3635839819908142 -9.021943092346191 -2.5
1.0883691310882568 -8.9634370803833 -2.5
1.8060888051986694 -8.846786499023438 -2.5
2.5121092796325684 -8.672773361206055 -2.5
3.201835870742798 -8.442519187927246 -2.5
4.514643669128418 -7.819570064544678 -2.5
5.129228591918945 -7.430947303771973 -2.5
3.125991106033325 -3.8286426067352295 -1.3685214519500732
3.2914061546325684 -2.9159276485443115 -1.2175052165985107
6.447695255279541 -2.1525487899780273 -1.8820797204971313
8.766908645629883 -2.160839796066284 -2.5
9.0 -0.7265429496765137 -2.5
-8.543081283569336 -1.3883886337280273 -2.5
-8.403656959533691 -2.071298837661743 -2.5
-7.962563514709473 -3.392529249191284 -2.5
-7.315253734588623 -4.625878810882568 -2.5
-6.91930627822876 -5.199521541595459 -2.5
-6.478481292724609 -5.739423751831055 -2.5
-4.327578067779541 -7.495575904846191 -2.5
-3.710400342941284 -7.819501876831055 -2.5
-3.069155216217041 -8.092695236206055 -2.5
3.1299219131469727 -3.2585935592651367 -1.3050858974456787
3.2575488090515137 -2.885927677154541 -1.2570648193359375
3.675737142562866 -2.7621288299560547 -1.3280748128890991
4.718759536743164 -2.4765918254852295 -1.5393117666244507
5.393603324890137 -2.297988176345825 -1.6934258937835693
8.40365219116211 -2.071298837661743 -2.5
8.627089500427246 -0.6964355111122131 -2.5
-8.201093673706055 -1.3327929973602295 -2.5
-8.067245483398438 -1.9883886575698853 -2.5
-7.643818378448486 -3.256718635559082 -2.5
-4.719872951507568 -6.837910175323486 -2.5
-4.154335975646973 -7.195527076721191 -2.5
-2.9462890625 -7.768749713897705 -2.5
-2.3116161823272705 -7.980634689331055 -2.5
-1.6619433164596558 -8.140761375427246 -2.5
-1.001489281654358 -8.248085975646973 -2.5
1.6619579792022705 -8.140751838684082 -2.5
2.9463133811950684 -7.768740177154541 -2.5
3.5618748664855957 -7.506474494934082 -2.5
4.719872951507568 -6.837890625 -2.5
3.2304539680480957 -2.8619236946105957 -1.2985949516296387
3.6487255096435547 -2.741835832595825 -1.3732914924621582
4.650185585021973 -2.4405956268310547 -1.5801970958709717
5.392182350158691 -2.2973828315734863 -1.763578176498413
6.374824047088623 -2.128222703933716 -2.0221917629241943
8.201088905334473 -1.332802653312683 -2.5
-7.754735946655273 -1.9113671779632568 -2.5
-7.347704887390137 -3.130556583404541 -2.5
-7.071972370147705 -3.7116503715515137 -2.5
-6.38500452041626 -4.798017501831055 -2.5
-5.978212833404541 -5.296230316162109 -2.5
-5.532670974731445 -5.760117053985596 -2.5
-4.53701639175415 -6.573017597198486 -2.5
-3.993408203125 -6.91677713394165 -2.5
-3.42388653755188 -7.215683460235596 -2.5
-2.832158088684082 -7.46780252456665 -2.5
-2.222055673599243 -7.671474456787109 -2.5
-0.32158201932907104 -7.980331897735596 -2.5
0.9627050757408142 -7.928564071655273 -2.5
2.2220799922943115 -7.671464443206787 -2.5
2.832167863845825 -7.467782974243164 -2.5
3.993422746658325 -6.91677713394165 -2.5
4.537035942077637 -6.573007583618164 -2.5
2.9339404106140137 -3.5934178829193115 -1.4520950317382812
3.2036375999450684 -2.8381738662719727 -1.3397119045257568
3.621210813522339 -2.7211620807647705 -1.417858600616455
4.081279277801514 -2.5808300971984863 -1.5115000009536743
4.610244274139404 -2.4196386337280273 -1.629758596420288
5.390751838684082 -2.2967772483825684 -1.8341633081436157
7.754726409912109 -1.9113574028015137 -2.5
7.883388519287109 -1.2811717987060547 -2.5
-7.662045955657959 -0.6185351610183716 -2.5
-7.291367053985596 -2.434208869934082 -2.5
-6.806469440460205 -3.5723047256469727 -2.5
-6.145283222198486 -4.617880821228027 -2.5
-3.8434910774230957 -6.657109260559082 -2.5
-3.29534649848938 -6.944785118103027 -2.5
-2.725830078125 -7.187421798706055 -2.5
-0.9265576004981995 -7.630908012390137 -2.5
-0.3095117211341858 -7.680722713470459 -2.5
0.9265673756599426 -7.630908012390137 -2.5
1.53759765625 -7.531601428985596 -2.5
2.7258496284484863 -7.187431335449219 -2.5
4.36669921875 -6.326240062713623 -2.5
3.177065372467041 -2.814638614654541 -1.3804295063018799
3.5912890434265137 -2.698671817779541 -1.4609909057617188
4.602758884429932 -2.415712833404541 -1.6905837059020996
7.463598251342773 -1.8396093845367432 -2.5
7.662040710449219 -0.6185351610183716 -2.5
-7.406874656677246 0.0 -2.5
-7.382861137390137 -0.5960058569908142 -2.5
-7.310956954956055 -1.1881250143051147 -2.5
-7.191640377044678 -1.7725683450698853 -2.5
-7.025693416595459 -2.345507860183716 -2.5
-6.814174652099609 -2.9032421112060547 -2.5
-5.130927562713623 -5.341845512390137 -2.5
-4.6844482421875 -5.737392425537109 -2.5
-4.207582950592041 -6.09573221206665 -2.5
-3.703442335128784 -6.414531230926514 -2.5
-2.6265087127685547 -6.925546646118164 -2.5
-1.4815624952316284 -7.257177352905273 -2.5
0.2982519567012787 -7.400868892669678 -2.5
1.4815673828125 -7.257177352905273 -2.5
2.060727596282959 -7.114433288574219 -2.5
4.207582950592041 -6.095722675323486 -2.5
2.858828067779541 -3.501415967941284 -1.5257002115249634
4.597812175750732 -2.4131152629852295 -1.752626657485962
7.025683403015137 -2.345517635345459 -2.5
7.19164514541626 -1.7725683450698853 -2.5
7.310961723327637 -1.1881444454193115 -2.5
-7.144594669342041 1.9531249563442543e-05 -2.5
-7.052060604095459 -1.1460546255111694 -2.5
-6.936982154846191 -1.709804654121399 -2.5
-6.776914119720459 -2.262460947036743 -2.5
-6.038530349731445 -3.818535089492798 -2.5
-5.34780740737915 -4.737734317779541 -2.5
-4.518569469451904 -5.534228324890137 -2.5
-4.058588981628418 -5.8798828125 -2.5
-3.5722949504852295 -6.187382698059082 -2.5
-3.0628368854522705 -6.454775333404541 -2.5
-2.533505916595459 -6.680302619934082 -2.5
-1.9877440929412842 -6.862499713897705 -2.5
-0.28767088055610657 -7.138779163360596 -2.5
0.2876953184604645 -7.138779163360596 -2.5
0.8611913919448853 -7.092490196228027 -2.5
1.4290966987609863 -7.000195026397705 -2.5
1.9877440929412842 -6.862499713897705 -2.5
2.883862257003784 -3.0024120807647705 -1.4567217826843262
3.1284472942352295 -2.771552562713623 -1.46249258518219
3.5190038681030273 -2.644355297088623 -1.5402647256851196
4.592832088470459 -2.4104881286621094 -1.8149996995925903
6.776904106140137 -2.262460947036743 -2.5
6.936982154846191 -1.709804654121399 -2.5
-6.898227214813232 0.0007519531063735485 -2.5
-6.876049518585205 -0.5550780892372131 -2.5
-6.80908203125 -1.1065722703933716 -2.5
-5.830463886260986 -3.686904191970825 -2.5
-5.163535118103027 -4.574482440948486 -2.5
-4.362875938415527 -5.34353494644165 -2.5
-3.9187450408935547 -5.677285194396973 -2.5
-2.9572949409484863 -6.232372760772705 -2.5
-2.4462108612060547 -6.450126647949219 -2.5
-1.9192479848861694 -6.626044750213623 -2.5
-1.3798534870147705 -6.758994102478027 -2.5
-0.8314940929412842 -6.848105430603027 -2.5
-0.27775877714157104 -6.892812252044678 -2.5
0.27778318524360657 -6.892802715301514 -2.5
1.3798632621765137 -6.758984088897705 -2.5
2.446225643157959 -6.450107097625732 -2.5
2.9573094844818115 -6.232363224029541 -2.5
3.44921875 -5.974189281463623 -2.5
3.4845263957977295 -2.6184473037719727 -1.579601764678955
3.9628171920776367 -2.505927562713623 -1.6991850137710571
5.381064414978027 -2.2926464080810547 -2.119732618331909
6.543398380279541 -2.184501886367798 -2.5
6.697963714599609 -1.65087890625 -2.5
6.80907678604126 -1.1065820455551147 -2.5
6.876044750213623 -0.5550780892372131 -2.5
-6.666845321655273 9.765624781721272e-06 -2.5
-6.645229339599609 -0.5364550948143005 -2.5
-6.323744773864746 -2.1111717224121094 -2.5
-6.133359432220459 -2.613173723220825 -2.5
-5.9031982421875 -3.0982322692871094 -2.5
-5.329760551452637 -4.005048751831055 -2.5
-4.990200042724609 -4.420937538146973 -2.5
-4.618281364440918 -4.80813455581665 -2.5
-4.216411113739014 -5.164150238037109 -2.5
-3.3334178924560547 -5.773652076721191 -2.5
-2.364091634750366 -6.233583927154541 -2.5
-0.2684375047683716 -6.661425590515137 -2.5
1.3335497379302979 -6.53209924697876 -2.5
2.3641064167022705 -6.233593463897705 -2.5
2.858036994934082 -6.023144245147705 -2.5
3.333427667617798 -5.773642539978027 -2.5
3.7872068881988525 -5.486689567565918 -2.5
2.7978270053863525 -3.426708936691284 -1.6588904857635498
3.0842039585113525 -2.732363224029541 -1.5451314449310303
4.590576171875 -2.409316301345825 -1.944109320640564
5.378173828125 -2.2914159297943115 -2.192181348800659
6.473119735717773 -1.5954687595367432 -2.5
6.580512523651123 -1.069423794746399 -2.5
6.645229339599609 -0.5364453196525574 -2.5
-6.448574066162109 0.0 -2.5
-6.365058422088623 -1.0344140529632568 -2.5
-6.261181354522705 -1.5432324409484863 -2.5
-6.116703987121582 -2.042050838470459 -2.5
-5.450253963470459 -3.446533203125 -2.5
-3.2242772579193115 -5.584609031677246 -2.5
-2.764453172683716 -5.825947284698486 -2.5
-1.2898778915405273 -6.318242073059082 -2.5
-0.7772802710533142 -6.401542663574219 -2.5
0.7772997617721558 -6.401552677154541 -2.5
1.7941112518310547 -6.193954944610596 -2.5
2.286699056625366 -6.029501914978027 -2.5
3.663203001022339 -5.307050704956055 -2.5
2.793998956680298 -3.4220213890075684 -1.7126952409744263
2.779921770095825 -2.8941991329193115 -1.5557861328125
3.0590476989746094 -2.710078001022339 -1.5844026803970337
3.945873975753784 -2.4952049255371094 -1.809948444366455
4.593828201293945 -2.411025285720825 -2.0113372802734375
6.365053653717041 -1.0344140529632568 -2.5
6.427651405334473 -0.5188769698143005 -2.5
-6.222182273864746 -0.5022948980331421 -2.5
-6.161591529846191 -1.0013378858566284 -2.5
-6.061025142669678 -1.4939062595367432 -2.5
-5.921166896820068 -1.9767773151397705 -2.5
-5.742895603179932 -2.4468066692352295 -2.5
-5.276025295257568 -3.336357355117798 -2.5
-4.324282169342041 -4.502050876617432 -2.5
-3.947993040084839 -4.835410118103027 -2.5
-2.676079034805298 -5.639716625213623 -2.5
-1.2486523389816284 -6.116250038146973 -2.5
-0.25136229395866394 -6.237353324890137 -2.5
0.2513720691204071 -6.237353324890137 -2.5
0.7524462938308716 -6.19689416885376 -2.5
1.7367626428604126 -5.995937347412109 -2.5
2.2136034965515137 -5.836748123168945 -2.5
2.676088809967041 -5.639707088470459 -2.5
2.7891697883605957 -3.4161033630371094 -1.7661962509155273
2.775932550430298 -2.8900487422943115 -1.6048563718795776
3.4437060356140137 -2.587763547897339 -1.7251472473144531
3.9393699169158936 -2.491093635559082 -1.8666329383850098
5.921162128448486 -1.9767675399780273 -2.5
6.061025142669678 -1.493896484375 -2.5
6.161581993103027 -1.0013476610183716 -2.5
6.222182273864746 -0.5023046731948853 -2.5
-6.047382831573486 9.765624781721272e-06 -2.5
-5.736152172088623 -1.9149999618530273 -2.5
-5.111176490783691 -3.232119083404541 -2.5
-4.526523113250732 -4.010146617889404 -2.5
-4.189159870147705 -4.361367225646973 -2.5
-2.144423723220825 -5.654384613037109 -2.5
-1.6824853420257568 -5.808603286743164 -2.5
-0.2435009777545929 -6.042470455169678 -2.5
0.24350585043430328 -6.042460918426514 -2.5
0.7289404273033142 -6.003271579742432 -2.5
1.2096385955810547 -5.925156116485596 -2.5
1.6824951171875 -5.808603286743164 -2.5
2.1444385051727295 -5.654384613037109 -2.5
2.592470645904541 -5.463486194610596 -2.5
2.77398419380188 -2.8880271911621094 -1.6554559469223022
3.4319286346435547 -2.578916072845459 -1.7746965885162354
3.93926739692688 -2.491034984588623 -1.9267897605895996
5.563461780548096 -2.370361328125 -2.5
5.736156940460205 -1.9149999618530273 -2.5
5.871650218963623 -1.4472167491912842 -2.5
6.027763366699219 -0.4866015613079071 -2.5
-5.786601543426514 -0.9404101371765137 -2.5
-5.69216775894165 -1.4029881954193115 -2.5
-5.560810565948486 -1.8564647436141968 -2.5
-5.393403053283691 -2.297910213470459 -2.5
-5.191005706787109 -2.7244529724121094 -2.5
-4.061113357543945 -4.22805643081665 -2.5
-3.7077245712280273 -4.541142463684082 -2.5
-3.3302879333496094 -4.824755668640137 -2.5
-2.931269407272339 -5.077089786529541 -2.5
-2.5132176876068115 -5.296474456787109 -2.5
-2.078871965408325 -5.481552600860596 -2.5
-1.1726561784744263 -5.744042873382568 -2.5
-0.7066552639007568 -5.819775104522705 -2.5
-0.2360546886920929 -5.857753753662109 -2.5
0.23605956137180328 -5.857753753662109 -2.5
0.7066503763198853 -5.819765567779541 -2.5
1.172646403312683 -5.744042873382568 -2.5
2.0788867473602295 -5.481533050537109 -2.5
2.513232469558716 -5.296484470367432 -2.5
2.931269407272339 -5.077079772949219 -2.5
3.3302977085113525 -4.824746131896973 -2.5
2.772758722305298 -3.396005868911743 -1.8695855140686035
3.4201269149780273 -2.5700488090515137 -1.8243592977523804
3.9400928020477295 -2.4915623664855957 -1.987959861755371
5.56082010269165 -1.8564647436141968 -2.5
5.843510627746582 -0.47172850370407104 -2.5
-5.687026023864746 9.765624781721272e-06 -2.5
-5.613373756408691 -0.91224604845047 -2.5
-5.394345760345459 -1.8008886575698853 -2.5
-5.231953144073486 -2.229120969772339 -2.5
-4.806611061096191 -3.0395116806030273 -2.5
-4.546445369720459 -3.4164257049560547 -2.5
-3.9395458698272705 -4.101493835449219 -2.5
-3.230595588684082 -4.680322170257568 -2.5
-2.843510627746582 -4.925087928771973 -2.5
-2.43798828125 -5.137939453125 -2.5
-2.0166454315185547 -5.317451000213623 -2.5
-1.5822265148162842 -5.462480545043945 -2.5
0.22899413108825684 -5.682412147521973 -2.5
0.6854931712150574 -5.645546913146973 -2.5
1.1375536918640137 -5.572089672088623 -2.5
1.5822265148162842 -5.462480545043945 -2.5
2.0166454315185547 -5.317451000213623 -2.5
2.43798828125 -5.137939453125 -2.5
2.843505859375 -4.925097465515137 -2.5
3.230605363845825 -4.680322170257568 -2.5
2.766660213470459 -3.3885350227355957 -1.9230380058288574
3.400273323059082 -2.5551366806030273 -1.8697450160980225
3.941279172897339 -2.492304563522339 -2.049922227859497
5.613373756408691 -0.9122558236122131 -2.5
5.668588638305664 -0.4576074182987213 -2.5
-5.520155906677246 9.765624781721272e-06 -2.5
-5.502270221710205 -0.4441894292831421 -2.5
-5.359755516052246 -1.321044921875 -2.5
-5.236073970794678 -1.748046875 -2.5
-3.8239550590515137 -3.981152296066284 -2.5
-3.4912109375 -4.275937557220459 -2.5
-2.760077953338623 -4.780595779418945 -2.5
-0.6653808355331421 -5.479911804199219 -2.5
-0.22227539122104645 -5.515683650970459 -2.5
0.6653808355331421 -5.479902267456055 -2.5
1.5358006954193115 -5.302206993103027 -2.5
2.760073184967041 -4.780595779418945 -2.5
3.135810375213623 -4.542988300323486 -2.5
2.7603466510772705 -2.873828172683716 -1.804646611213684
3.012641429901123 -2.6689648628234863 -1.8227958679199219
3.942270517349243 -2.492929697036743 -2.1124212741851807
4.887861251831055 -2.5653417110443115 -2.5
5.078442096710205 -2.163701057434082 -2.5
5.236079216003418 -1.748046875 -2.5
5.448671817779541 -0.885498046875 -2.5
5.502260684967041 -0.44416990876197815 -2.5
-5.343886375427246 -0.4314062297344208 -2.5
-5.291840553283691 -0.85999995470047 -2.5
-5.20547342300415 -1.2830272912979126 -2.5
-4.747172832489014 -2.491503953933716 -2.5
-4.531289100646973 -2.865410089492798 -2.5
-4.012963771820068 -3.555166006088257 -2.5
-3.713876962661743 -3.8665428161621094 -2.5
-3.3907225131988525 -4.152871131896973 -2.5
-3.045546770095825 -4.412226676940918 -2.5
-1.491601586341858 -5.149589538574219 -2.5
-1.0723974704742432 -5.252910137176514 -2.5
-0.6462304592132568 -5.322177410125732 -2.5
-0.2158789038658142 -5.356914043426514 -2.5
0.6462304592132568 -5.322167873382568 -2.5
1.0723828077316284 -5.252919673919678 -2.5
1.4915966987609863 -5.149589538574219 -2.5
1.9011328220367432 -5.012861251831055 -2.5
2.766772508621216 -3.388681650161743 -2.039968252182007
3.400283098220825 -2.5551366806030273 -1.9833521842956543
3.9432761669158936 -2.4935741424560547 -2.1755824089050293
4.747162818908691 -2.491503953933716 -2.5
5.205483436584473 -1.2830272912979126 -2.5
5.291845798492432 -0.85999995470047 -2.5
