ply
format ascii 1.0
element vertex 843
property float x
property float y
property float z
end_header
-1.153540015220642 28.624467849731445 7.676122665405273
-9.532588005065918 25.135351181030273 7.203074932098389
-6.359633445739746 13.402694702148438 3.9750237464904785
-18.188188552856445 22.276473999023438 7.705812931060791
-3.3750391006469727 27.795839309692383 7.170983791351318
-5.488178730010986 26.8828125 7.026877403259277
-9.532597541809082 25.135351181030273 6.8847270011901855
-6.357177734375 13.3975191116333 3.797874689102173
-13.909042358398438 24.091136932373047 7.124392032623291
-18.167539596557617 22.251161575317383 7.356877326965332
-7.531054496765137 26.000150680541992 6.613775253295898
-13.909037590026855 24.091142654418945 6.796822547912598
-16.022308349609375 23.212284088134766 6.8913750648498535
-5.611166954040527 27.485273361206055 6.525489330291748
-9.777504920959473 25.78116226196289 6.414008617401123
-7.758466720581055 26.785282135009766 6.161981582641602
-9.88277816772461 26.058734893798828 6.158339500427246
-14.013690948486328 24.272401809692383 6.193152904510498
-18.125 22.199081420898438 6.332635402679443
-7.758466720581055 26.785282135009766 5.838644981384277
-16.02284049987793 23.213031768798828 5.905576705932617
-18.188779830932617 22.27718734741211 6.021456241607666
-3.4769530296325684 28.635194778442383 5.706578731536865
-7.758466720581055 26.785282135009766 5.5168137550354
-6.345117092132568 13.37210464477539 2.9281444549560547
-6.342739105224609 13.367109298706055 2.757042169570923
-14.013690948486328 24.272401809692383 5.2226762771606445
-16.02284049987793 23.213031768798828 5.255955696105957
-3.4769482612609863 28.635194778442383 5.045050144195557
-18.18876838684082 22.27718734741211 5.029994010925293
-5.653901100158691 27.694602966308594 4.621469497680664
-7.758466720581055 26.785282135009766 4.559414386749268
-6.338032245635986 13.357172966003418 2.4172863960266113
-16.02284049987793 23.213031768798828 4.61168098449707
-18.18876838684082 22.27718734741211 4.702171325683594
-1.1937255859375 29.6216983795166 4.510383129119873
-3.4769482612609863 28.635194778442383 4.388633728027344
-5.612065315246582 27.489686965942383 4.268617630004883
-9.762319564819336 25.741092681884766 4.188504695892334
-6.335683345794678 13.352240562438965 2.248539447784424
-1.1874462366104126 29.46587371826172 4.152852535247803
-5.653901100158691 27.694602966308594 3.9804911613464355
-13.925302505493164 24.119306564331055 3.922013521194458
-1.1937255859375 29.6216983795166 3.8402891159057617
-5.653901100158691 27.694602966308594 3.661536693572998
-7.758466720581055 26.785282135009766 3.612370014190674
-9.820444107055664 25.89436912536621 3.5874650478363037
-13.925302505493164 24.119306564331055 3.6077446937561035
22.561805725097656 7.532240867614746 2.8135790824890137
-1.1937353610992432 29.6216983795166 3.5067241191864014
-3.4769678115844727 28.635189056396484 3.4120678901672363
-5.653901100158691 27.694602966308594 3.3434972763061523
-7.758466720581055 26.785282135009766 3.298602819442749
-9.839961051940918 25.945804595947266 3.2823686599731445
-16.022851943969727 23.21302604675293 3.336416006088257
-3.4769628047943115 28.635194778442383 3.088350772857666
-7.758476257324219 26.785282135009766 2.9856512546539307
-3.4769530296325684 28.635194778442383 2.76540470123291
-14.013700485229492 24.272411346435547 2.686971426010132
-1.1937353610992432 29.6216983795166 2.5109245777130127
-3.4769482612609863 28.635194778442383 2.4431488513946533
-5.653901100158691 27.694602966308594 2.3940484523773193
-16.02284049987793 23.213031768798828 2.3889787197113037
-18.18876838684082 22.27718734741211 2.435856342315674
-7.758466720581055 26.785282135009766 2.050945281982422
-9.88277816772461 26.058734893798828 2.049733877182007
-6.319550514221191 13.31820297241211 1.0841878652572632
-16.022851943969727 23.213031768798828 2.074456214904785
-18.18876838684082 22.27718734741211 2.115161895751953
2.1350536346435547 17.583831787109375 1.1055392026901245
0.7096630930900574 17.610483169555664 1.1000347137451172
-1.1937353610992432 29.6216983795166 1.8503081798553467
-7.758466720581055 26.785282135009766 1.7404937744140625
-6.3172607421875 13.313403129577637 0.9197421073913574
2.132578134536743 17.56344223022461 0.9075637459754944
0.708984375 17.593759536743164 0.9032345414161682
-1.1937353610992432 29.6216983795166 1.520723819732666
-5.653901100158691 27.694602966308594 1.4499402046203613
-7.758476257324219 26.785282135009766 1.430470585823059
-6.314985275268555 13.308608055114746 0.7556430101394653
-16.02284049987793 23.213031768798828 1.4468683004379272
0.708984375 17.593759536743164 0.7077010869979858
-9.820448875427246 25.894365310668945 1.1130731105804443
-6.312714576721191 13.303828239440918 0.5918465852737427
-16.022851943969727 23.21302604675293 1.1336486339569092
2.132578134536743 17.563446044921875 0.5147979855537415
-1.1937255859375 29.6216983795166 0.8626006841659546
-3.4769580364227295 28.635194778442383 0.8393157720565796
-5.646274089813232 27.657255172729492 0.8213406205177307
-7.758466720581055 26.785282135009766 0.8114058971405029
-6.310444355010986 13.299042701721191 0.42831480503082275
-13.977797508239746 24.21021842956543 0.8134222030639648
-16.022851943969727 23.21302604675293 0.8207070827484131
-18.18876838684082 22.27718734741211 0.8368111848831177
0.708984375 17.59376335144043 0.31710904836654663
-3.4769482612609863 28.635194778442383 0.5194851756095886
-9.839956283569336 25.945804595947266 0.49973875284194946
-6.308178424835205 13.294261932373047 0.265005499124527
-13.977787971496582 24.210229873657227 0.5034576058387756
-16.02284049987793 23.213031768798828 0.5079672336578369
2.132578134536743 17.563446044921875 0.12253844738006592
0.708984375 17.593759536743164 0.1219540387392044
-1.1937255859375 29.6216983795166 0.20532409846782684
-3.4769482612609863 28.635194778442383 0.19978179037570953
-5.646284103393555 27.657255172729492 0.19550292193889618
-7.758466720581055 26.785282135009766 0.19313842058181763
-18.188779830932617 22.27718734741211 0.1991857886314392
2.1325879096984863 17.563446044921875 -0.073522187769413
0.708984375 17.593759536743164 -0.0731712356209755
-1.1937353610992432 29.6216983795166 -0.12319763004779816
-3.4769482612609863 28.635194778442383 -0.11987213045358658
-9.839950561523438 25.945810317993164 -0.11531554907560349
-6.303661823272705 13.284735679626465 -0.06110595539212227
-13.977797508239746 24.210224151611328 -0.11617431044578552
-16.02284049987793 23.213031768798828 -0.11721435189247131
-18.188779830932617 22.27718734741211 -0.11951430886983871
2.132578134536743 17.563446044921875 -0.2695985436439514
-1.1937353610992432 29.6216983795166 -0.4517461955547333
-3.4769482612609863 28.635194778442383 -0.43955230712890625
-5.646274089813232 27.657255172729492 -0.43013808131217957
-7.758466720581055 26.785282135009766 -0.42493560910224915
-9.88277816772461 26.058734893798828 -0.4246845841407776
-13.977797508239746 24.21021842956543 -0.42599213123321533
-18.188779830932617 22.27718734741211 -0.43824049830436707
2.1325879096984863 17.563446044921875 -0.46574124693870544
-9.867114067077637 26.017446517944336 -0.7324932813644409
-13.977797508239746 24.21021842956543 -0.7359133958816528
-18.18876838684082 22.27718734741211 -0.757074236869812
7.881772518157959 16.610536575317383 -0.6879419088363647
2.132578134536743 17.563446044921875 -0.6620023846626282
0.708984375 17.593759536743164 -0.6588441133499146
-1.1937353610992432 29.6216983795166 -1.1092642545700073
-7.758466720581055 26.785282135009766 -1.0434304475784302
-6.296884536743164 13.270453453063965 -0.5496084690093994
7.891518592834473 16.631072998046875 -0.8931628465652466
2.132578134536743 17.563446044921875 -0.8584244847297668
-2.370781183242798 19.52503776550293 -0.9542986750602722
-13.977787971496582 24.210229873657227 -1.356385350227356
7.858871936798096 16.562280654907227 -1.0932122468948364
5.240190505981445 18.09130859375 -1.1231895685195923
3.297441244125366 16.151996612548828 -0.9830630421638489
0.6150488257408142 15.262636184692383 -0.9108993411064148
-0.8786181211471558 21.8024845123291 -1.3012093305587769
-2.3707714080810547 19.525033950805664 -1.1728935241699219
-7.758466720581055 26.785282135009766 -1.6629524230957031
-9.820444107055664 25.89436912536621 -1.651487112045288
-13.977797508239746 24.21021842956543 -1.6670833826065063
-18.18876838684082 22.27718734741211 -1.7150204181671143
7.853320121765137 16.550575256347656 -1.296309232711792
5.240195274353027 18.091312408447266 -1.332797646522522
2.1325879096984863 17.563446044921875 -1.2519516944885254
0.6150488257408142 15.262636184692383 -1.0808898210525513
-0.6536523103713989 16.219940185546875 -1.1486859321594238
-2.3707714080810547 19.525033950805664 -1.3917772769927979
-7.758471488952637 26.785282135009766 -1.9732900857925415
-9.820444107055664 25.89436912536621 -1.9596853256225586
-16.022851943969727 23.21302604675293 -1.995910406112671
16.281522750854492 23.587894439697266 -2.347599983215332
14.330676078796387 24.821489334106445 -2.347599983215332
7.85537576675415 16.55489730834961 -1.5008901357650757
10.1634521484375 26.79886245727539 -2.347599983215332
-2.370781183242798 19.52503776550293 -1.611006736755371
-7.758466720581055 26.785282135009766 -2.284114360809326
-16.02284049987793 23.213031768798828 -2.3103010654449463
-18.12676239013672 22.201234817504883 -2.347599983215332
-19.85443878173828 20.670644760131836 -2.347599983215332
-21.453344345092773 19.006019592285156 -2.347599983215332
-22.913124084472656 17.218109130859375 -2.347599983215332
26.86016082763672 3.9062499126885086e-05 -2.5
26.079647064208984 6.428061485290527 -2.5
25.477834701538086 8.505776405334473 -2.5
24.710779190063477 10.528310775756836 -2.5
20.164133071899414 15.152406692504883 -2.347599983215332
17.472415924072266 18.19072723388672 -2.347599983215332
15.952028274536133 19.537700653076172 -2.347599983215332
5.240190505981445 18.09130859375 -1.7530546188354492
1.8908642530441284 15.572714805603027 -1.460070013999939
0.6150488257408142 15.262636184692383 -1.421716570854187
-2.370781183242798 19.52503776550293 -1.8306325674057007
-5.045175552368164 24.71304702758789 -2.347599983215332
-8.94412612915039 23.583696365356445 -2.347599983215332
-6.285575866699219 13.2466402053833 -1.364683985710144
-12.611371994018555 21.84355926513672 -2.347599983215332
-14.328168869018555 20.7579288482666 -2.347599983215332
-15.952040672302246 19.53766632080078 -2.347599983215332
-20.164154052734375 15.152377128601074 -2.347599983215332
-22.701942443847656 14.355830192565918 -2.5
-23.783475875854492 12.482553482055664 -2.5
-24.710790634155273 10.52828598022461 -2.5
-26.079647064208984 6.428041934967041 -2.5
-26.773056030273438 2.1613378524780273 -2.5
23.97757339477539 2.9296874345163815e-05 -2.5
22.058866500854492 9.398432731628418 -2.5
21.2310791015625 11.142953872680664 -2.5
19.03024673461914 12.034003257751465 -2.347599983215332
16.853397369384766 14.930834770202637 -2.347599983215332
14.240087509155273 17.44095230102539 -2.347599983215332
10.690400123596191 15.487763404846191 -1.962148666381836
9.155595779418945 15.857993125915527 -1.9092034101486206
7.83499002456665 16.511943817138672 -1.9055852890014648
5.197646141052246 17.944427490234375 -1.9478617906570435
3.267519474029541 16.005395889282227 -1.703206181526184
-4.503749847412109 22.060916900634766 -2.347599983215332
-6.283310413360596 13.241860389709473 -1.528193473815918
-12.790532112121582 18.530195236206055 -2.347599983215332
-14.240097045898438 17.440942764282227 -2.347599983215332
-16.8533878326416 14.93080997467041 -2.347599983215332
-18.00017547607422 13.526249885559082 -2.347599983215332
-20.265625 12.815204620361328 -2.5
-21.2310791015625 11.142939567565918 -2.5
-22.743637084960938 7.592939376831055 -2.5
-23.280853271484375 5.738198280334473 -2.5
-23.667064666748047 3.8462986946105957 -2.5
-23.89981460571289 1.929384708404541 -2.5
9.127997398376465 1.4834569692611694 -1.0679244995117188
21.019811630249023 5.180927753448486 -2.5
19.91653823852539 8.485663414001465 -2.5
19.169139862060547 10.060761451721191 -2.5
16.25200080871582 12.212607383728027 -2.347599983215332
15.216591835021973 13.480756759643555 -2.347599983215332
12.85708999633789 15.74709415435791 -2.347599983215332
10.690409660339355 15.487763404846191 -2.1732099056243896
7.208808422088623 19.008129119873047 -2.347599983215332
3.267524242401123 16.005395889282227 -1.886414647102356
0.6150488257408142 15.262636184692383 -1.7639487981796265
-0.6524609327316284 16.19039535522461 -1.8711724281311035
-4.066352367401123 19.918344497680664 -2.347599983215332
-5.655937194824219 19.52654266357422 -2.347599983215332
-8.1781587600708 14.165034294128418 -1.8888195753097534
-16.25202178955078 12.212592124938965 -2.347599983215332
-18.262088775634766 11.548236846923828 -2.4951705932617188
-19.169139862060547 10.060751914978027 -2.5
-21.01984405517578 5.180912971496582 -2.5
8.806113243103027 1.4311425685882568 -1.1305831670761108
10.463871955871582 2.5791258811950684 -1.365704894065857
18.149337768554688 7.732734203338623 -2.5
15.657450675964355 9.901190757751465 -2.347599983215332
12.832968711853027 13.360551834106445 -2.347599983215332
10.52359390258789 15.24609375 -2.347599983215332
7.941674709320068 16.736757278442383 -2.347599983215332
4.895361423492432 16.90081024169922 -2.229763984680176
-2.0585155487060547 16.953290939331055 -2.1641595363616943
-6.569179534912109 17.3215274810791 -2.347599983215332
-6.985448837280273 12.099194526672363 -1.7704435586929321
-11.716288566589355 14.34984302520752 -2.347599983215332
-12.832968711853027 13.360541343688965 -2.347599983215332
-13.866439819335938 12.284584999084473 -2.347599983215332
-14.809980392456055 11.1289644241333 -2.347599983215332
-17.468265533447266 9.16805648803711 -2.5
-18.14933967590332 7.732714653015137 -2.5
-19.15473175048828 4.721200942993164 -2.5
-19.664018630981445 1.5874218940734863 -2.5
8.5685396194458 1.3925292491912842 -1.1979644298553467
10.041156768798828 2.474926710128784 -1.4271408319473267
16.022804260253906 8.409428596496582 -2.497168779373169
14.3781099319458 9.092192649841309 -2.347599983215332
4.732934474945068 16.34005355834961 -2.347599983215332
3.1567821502685547 15.462968826293945 -2.177889108657837
-0.6311864852905273 15.662416458129883 -2.1631529331207275
-2.050541877746582 16.887676239013672 -2.347599983215332
-4.732924461364746 16.340078353881836 -2.347599983215332
-9.663793563842773 14.00033187866211 -2.347599983215332
-11.784408569335938 12.268896102905273 -2.347599983215332
-12.733447074890137 11.280844688415527 -2.347599983215332
-13.599867820739746 10.2196626663208 -2.347599983215332
-14.3781099319458 9.092177391052246 -2.347599983215332
-16.04097557067871 8.418954849243164 -2.5
-16.666400909423828 7.100888729095459 -2.5
-17.183744430541992 5.736767292022705 -2.5
8.559345245361328 0.6909960508346558 -1.2821485996246338
8.376728057861328 1.361367106437683 -1.2671334743499756
9.760380744934082 2.4057323932647705 -1.5009310245513916
14.817960739135742 7.777089595794678 -2.4986681938171387
8.931703567504883 12.939833641052246 -2.347599983215332
7.861518383026123 13.6165771484375 -2.347599983215332
6.740341663360596 14.205009460449219 -2.347599983215332
5.57546854019165 14.70131778717041 -2.347599983215332
4.374413967132568 15.102290153503418 -2.347599983215332
0.5993847250938416 14.873964309692383 -2.2226240634918213
-0.6311815977096558 15.662416458129883 -2.340441942214966
-4.374433517456055 15.102290153503418 -2.347599983215332
-9.943984031677246 12.179160118103027 -2.347599983215332
-11.768877029418945 10.4263277053833 -2.347599983215332
-14.8258638381958 7.781215667724609 -2.5
-15.88206958770752 5.302202224731445 -2.5
-16.526927947998047 2.685903310775757 -2.5
9.496191024780273 2.3406152725219727 -1.5712896585464478
13.778447151184082 7.231503963470459 -2.4999618530273438
10.937597274780273 9.689887046813965 -2.347599983215332
10.122416496276855 10.538569450378418 -2.347599983215332
8.300825119018555 12.025854110717773 -2.347599983215332
7.306240081787109 12.654794692993164 -2.347599983215332
6.264257907867432 13.20166015625 -2.347599983215332
5.181654930114746 13.662924766540527 -2.347599983215332
2.9228711128234863 14.317177772521973 -2.347599983215332
1.7613476514816284 14.505956649780273 -2.347599983215332
0.5883691310882568 14.600639343261719 -2.347599983215332
-0.5883983969688416 14.600629806518555 -2.347599983215332
-1.7613427639007568 14.50594711303711 -2.347599983215332
-2.922856330871582 14.317192077636719 -2.347599983215332
-4.065468788146973 14.035551071166992 -2.347599983215332
-9.241606712341309 11.318901062011719 -2.347599983215332
-10.122421264648438 10.538569450378418 -2.347599983215332
-12.350337028503418 7.809867858886719 -2.347599983215332
-15.359580039978027 2.4961814880371094 -2.5
8.1307373046875 0.6563964486122131 -1.403406023979187
13.783234596252441 4.601542949676514 -2.5
10.213598251342773 9.048480987548828 -2.347599983215332
9.452377319335938 9.840995788574219 -2.347599983215332
8.629862785339355 10.569682121276855 -2.347599983215332
6.822617053985596 11.81712818145752 -2.347599983215332
2.7293896675109863 13.369477272033691 -2.347599983215332
1.644741177558899 13.545751571655273 -2.347599983215332
0.5494531393051147 13.634203910827637 -2.347599983215332
-2.729384660720825 13.36949634552002 -2.347599983215332
-3.7963476181030273 13.106508255004883 -2.347599983215332
-4.838662147521973 12.758529663085938 -2.347599983215332
-5.849609375 12.327812194824219 -2.347599983215332
-9.452397346496582 9.840991020202637 -2.347599983215332
-12.866605758666992 6.752919673919678 -2.5
-13.783246994018555 4.601523399353027 -2.5
-14.483930587768555 1.1692675352096558 -2.5
13.625676155090332 2.9296874345163815e-05 -2.5
7.95385217666626 1.2926366329193115 -1.478496789932251
12.535341262817383 5.3408203125 -2.5
12.064936637878418 6.332192420959473 -2.5
10.228910446166992 7.686542987823486 -2.347599983215332
7.268407821655273 10.530131340026855 -2.347599983215332
6.397524356842041 11.080849647521973 -2.347599983215332
3.5597996711730957 12.289887428283691 -2.347599983215332
2.559335947036743 12.536474227905273 -2.347599983215332
1.54226553440094 12.701766967773438 -2.347599983215332
-1.5422265529632568 12.701801300048828 -2.347599983215332
-2.559335947036743 12.536474227905273 -2.347599983215332
-5.485190391540527 11.559662818908691 -2.347599983215332
-6.397529125213623 11.08084487915039 -2.347599983215332
-8.092182159423828 9.911108016967773 -2.347599983215332
-8.863447189331055 9.227822303771973 -2.347599983215332
-9.577226638793945 8.484697341918945 -2.347599983215332
-10.22891616821289 7.686528205871582 -2.347599983215332
-12.064936637878418 6.332167625427246 -2.5
-12.924448013305664 4.3148193359375 -2.5
-13.581499099731445 1.0963964462280273 -2.5
12.823447227478027 1.9531249563442543e-05 -2.5
8.11464786529541 0.6550976634025574 -1.5871413946151733
9.021659851074219 2.2236523628234863 -1.811458706855774
12.163505554199219 4.060786247253418 -2.5
11.797304153442383 5.026376724243164 -2.5
9.626665115356445 7.233998775482178 -2.347599983215332
9.013359069824219 7.985166072845459 -2.347599983215332
8.341596603393555 8.684531211853027 -2.347599983215332
7.615727424621582 9.327588081359863 -2.347599983215332
5.162192344665527 10.87911605834961 -2.347599983215332
4.27004861831665 11.259222984313965 -2.347599983215332
3.350209951400757 11.56630802154541 -2.347599983215332
2.4086523056030273 11.798383712768555 -2.347599983215332
0.4848583936691284 12.031967163085938 -2.347599983215332
-0.48488280177116394 12.03197193145752 -2.347599983215332
-3.350229501724243 11.566298484802246 -2.347599983215332
-6.840497970581055 9.910146713256836 -2.347599983215332
-9.62667465209961 7.233974456787109 -2.347599983215332
-10.760351181030273 6.80443811416626 -2.4820315837860107
-12.1635103225708 4.060771465301514 -2.5
-12.781865119934082 1.0318554639816284 -2.5
12.107519149780273 9.765624781721272e-06 -2.5
8.892191886901855 2.1917333602905273 -1.8910415172576904
11.484418869018555 3.8340771198272705 -2.5
11.138671875 4.74575662612915 -2.5
10.720664024353027 5.626659870147705 -2.5
9.609335899353027 6.076601505279541 -2.347599983215332
7.875888347625732 8.199667930603027 -2.347599983215332
7.1905517578125 8.806836128234863 -2.347599983215332
5.684716701507568 9.846235275268555 -2.347599983215332
4.031650066375732 10.630615234375 -2.347599983215332
0.4577929675579071 11.360224723815918 -2.347599983215332
-0.45780760049819946 11.360224723815918 -2.347599983215332
-2.274179697036743 11.139667510986328 -2.347599983215332
-4.031669616699219 10.630610466003418 -2.347599983215332
-5.684716701507568 9.846230506896973 -2.347599983215332
-6.458579063415527 9.3568696975708 -2.347599983215332
-7.1905517578125 8.806836128234863 -2.347599983215332
-7.875888347625732 8.19967269897461 -2.347599983215332
-8.510146141052246 7.53933572769165 -2.347599983215332
-10.207563400268555 6.454877853393555 -2.493748664855957
-11.138667106628418 4.745751857757568 -2.5
-11.48440933227539 3.8340721130371094 -2.5
-11.950722694396973 1.9421874284744263 -2.5
-12.068256378173828 0.9742480516433716 -2.5
11.464516639709473 1.9531249563442543e-05 -2.5
8.085039138793945 0.6527050733566284 -1.7687935829162598
7.90652322769165 1.2849414348602295 -1.7467504739761353
8.948715209960938 2.2056689262390137 -2.0097954273223877
10.151328086853027 5.327841758728027 -2.5
9.099008560180664 5.753876686096191 -2.347599983215332
7.457616806030273 7.764208793640137 -2.347599983215332
6.115576267242432 8.859955787658691 -2.347599983215332
5.382817268371582 9.32332992553711 -2.347599983215332
1.297646403312683 10.68715763092041 -2.347599983215332
-1.2976561784744263 10.687152862548828 -2.347599983215332
-3.8175389766693115 10.066059112548828 -2.347599983215332
-4.615146160125732 9.72623062133789 -2.347599983215332
-6.115590572357178 8.859941482543945 -2.347599983215332
-8.05819320678711 7.13894510269165 -2.347599983215332
-8.606518745422363 6.467372894287109 -2.347599983215332
-10.874506950378418 3.630449056625366 -2.5
10.88370132446289 1.9531249563442543e-05 -2.5
10.012778282165527 4.266054630279541 -2.5
8.997685432434082 5.6898193359375 -2.4453444480895996
8.170477867126465 6.139750957489014 -2.347599983215332
7.079804420471191 7.370869159698486 -2.347599983215332
6.46373987197876 7.916650295257568 -2.347599983215332
5.805742263793945 8.41109848022461 -2.347599983215332
2.843437433242798 9.816718101501465 -2.347599983215332
2.044301748275757 10.013690948486328 -2.347599983215332
0.41151854395866394 10.21194839477539 -2.347599983215332
-0.4115380644798279 10.211953163146973 -2.347599983215332
-1.2319140434265137 10.145722389221191 -2.347599983215332
-2.0443115234375 10.01369571685791 -2.347599983215332
-4.381342887878418 9.233481407165527 -2.347599983215332
-5.110126972198486 8.850991249084473 -2.347599983215332
-5.805766582489014 8.411078453063965 -2.347599983215332
-6.46373987197876 7.916645526885986 -2.347599983215332
-7.079809188842773 7.370859146118164 -2.347599983215332
-8.17049789428711 6.139731407165527 -2.347599983215332
-9.187392234802246 5.809751033782959 -2.496896982192993
-10.323588371276855 3.446523427963257 -2.5
-10.567456245422363 2.6046385765075684 -2.5
8.063672065734863 0.6509765386581421 -1.9528850317001343
7.861001014709473 1.2775487899780273 -1.9225249290466309
9.823378562927246 3.279545783996582 -2.5
9.170097351074219 4.812851428985596 -2.5
7.774604320526123 5.842250823974609 -2.347599983215332
6.150551795959473 7.533066272735596 -2.347599983215332
5.524438381195068 8.003554344177246 -2.347599983215332
4.169043064117432 8.786093711853027 -2.347599983215332
3.4485349655151367 9.093066215515137 -2.347599983215332
1.9452587366104126 9.5285005569458 -2.347599983215332
1.172216773033142 9.654130935668945 -2.347599983215332
0.39158201217651367 9.717153549194336 -2.347599983215332
-0.39159178733825684 9.717153549194336 -2.347599983215332
-1.1722265481948853 9.65414047241211 -2.347599983215332
-1.9452685117721558 9.528495788574219 -2.347599983215332
-2.705678701400757 9.341073989868164 -2.347599983215332
-4.169057369232178 8.786084175109863 -2.347599983215332
-5.524457931518555 8.003544807434082 -2.347599983215332
-6.150551795959473 7.533061504364014 -2.347599983215332
-6.736767292022705 7.013735294342041 -2.347599983215332
-7.27929162979126 6.448896408081055 -2.347599983215332
-7.774604320526123 5.842250823974609 -2.347599983215332
-9.170097351074219 4.812836647033691 -2.5
-9.823378562927246 3.279531240463257 -2.5
-10.055419921875 2.4784326553344727 -2.5
-10.32277774810791 0.8333398103713989 -2.5
9.8753023147583 0.0 -2.5
7.894184589385986 1.2829394340515137 -2.024685859680176
9.58834457397461 2.3633153438568115 -2.5
9.085078239440918 3.870795726776123 -2.5
8.744150161743164 4.589296817779541 -2.5
8.330693244934082 5.268022537231445 -2.4952621459960938
7.413476467132568 5.570888519287109 -2.347599983215332
6.941171646118164 6.149350643157959 -2.347599983215332
6.423847675323486 6.687939167022705 -2.347599983215332
5.86486291885376 7.183154106140137 -2.347599983215332
3.9753904342651367 8.377978324890137 -2.347599983215332
3.2883496284484863 8.670693397521973 -2.347599983215332
1.117773413658142 9.205693244934082 -2.347599983215332
-1.1177831888198853 9.205693244934082 -2.347599983215332
-1.8549022674560547 9.085907936096191 -2.347599983215332
-3.975395441055298 8.377978324890137 -2.347599983215332
-5.267841815948486 7.631782054901123 -2.347599983215332
-6.423847675323486 6.687934398651123 -2.347599983215332
-7.413491249084473 5.570859432220459 -2.347599983215332
-8.744150161743164 4.589286804199219 -2.5
-9.367084503173828 3.127192258834839 -2.5
8.138593673706055 0.6570214629173279 -2.16359806060791
9.1604585647583 2.2578465938568115 -2.5
8.949067115783691 2.9876415729522705 -2.5
7.9649658203125 5.036747932434082 -2.497157096862793
6.631406307220459 5.874921798706055 -2.347599983215332
6.137167930603027 6.389482498168945 -2.347599983215332
5.603134632110596 6.862592697143555 -2.347599983215332
5.032753944396973 7.291215419769287 -2.347599983215332
2.464848518371582 8.509687423706055 -2.347599983215332
0.3567284941673279 8.852290153503418 -2.347599983215332
-1.0678906440734863 8.79488754272461 -2.347599983215332
-3.141606330871582 8.283759117126465 -2.347599983215332
-3.797988176345825 8.004096031188965 -2.347599983215332
-4.429736137390137 7.672533988952637 -2.347599983215332
-5.603134632110596 6.862587928771973 -2.347599983215332
-6.631406307220459 5.874921798706055 -2.347599983215332
-7.158984184265137 5.379628658294678 -2.3729050159454346
-7.974042892456055 5.042475700378418 -2.5
-8.679643630981445 3.698051691055298 -2.5
-8.949067115783691 2.9876463413238525 -2.5
9.029287338256836 1.9531249563442543e-05 -2.5
9.0 0.7265625 -2.5
8.766913414001465 2.1608495712280273 -2.5
8.56459903717041 2.8592967987060547 -2.5
7.99502420425415 4.196127891540527 -2.5
7.62853479385376 4.824008464813232 -2.4990456104278564
6.346508502960205 5.622529029846191 -2.347599983215332
5.362411975860596 6.56777811050415 -2.347599983215332
4.8165283203125 6.977968692779541 -2.347599983215332
3.006640672683716 7.927875995635986 -2.347599983215332
1.695986270904541 8.307509422302246 -2.347599983215332
0.3413964807987213 8.471977233886719 -2.347599983215332
-0.34141111373901367 8.471991539001465 -2.347599983215332
-2.3589696884155273 8.144096374511719 -2.347599983215332
-3.006640672683716 7.927875995635986 -2.347599983215332
-3.63482403755188 7.660233974456787 -2.347599983215332
-4.816542625427246 6.977958679199219 -2.347599983215332
-7.11562967300415 5.347055435180664 -2.4644105434417725
-7.631454944610596 4.825849533081055 -2.5
-8.306757926940918 3.539174795150757 -2.5
-8.912358283996582 1.4484081268310547 -2.5
-9.000004768371582 0.7265527248382568 -2.5
8.6551513671875 9.765624781721272e-06 -2.5
8.627089500427246 0.6964648365974426 -2.5
7.962568283081055 3.3925437927246094 -2.5
7.663759708404541 4.022260665893555 -2.5
6.61404275894165 4.970151424407959 -2.389707088470459
6.083544731140137 5.389575004577637 -2.347599983215332
5.140224456787109 6.295634746551514 -2.347599983215332
4.616967678070068 6.68883752822876 -2.347599983215332
4.063764572143555 7.038657188415527 -2.347599983215332
3.484208822250366 7.342832088470459 -2.347599983215332
2.8820605278015137 7.599384784698486 -2.347599983215332
2.2612156867980957 7.806650161743164 -2.347599983215332
0.32726073265075684 8.120946884155273 -2.347599983215332
-0.9796679615974426 8.068281173706055 -2.347599983215332
-2.8820605278015137 7.599379539489746 -2.347599983215332
-4.616977214813232 6.68883752822876 -2.347599983215332
-5.140219688415527 6.295629978179932 -2.347599983215332
-7.962573051452637 3.3925390243530273 -2.5
-8.209731101989746 2.7408103942871094 -2.5
-8.403656959533691 2.0713086128234863 -2.5
8.067251205444336 1.9884082078933716 -2.5
7.881088733673096 2.631108283996582 -2.5
7.356972694396973 3.8612499237060547 -2.5
7.022411823272705 4.440717697143555 -2.5
5.840014457702637 5.173813343048096 -2.347599983215332
5.404760837554932 5.626962661743164 -2.347599983215332
4.934453010559082 6.04360818862915 -2.347599983215332
4.432138442993164 6.421083927154541 -2.347599983215332
3.9010937213897705 6.756889343261719 -2.347599983215332
3.3447265625 7.048891544342041 -2.347599983215332
2.7666893005371094 7.295180320739746 -2.347599983215332
2.1706981658935547 7.494150161743164 -2.347599983215332
1.560634732246399 7.644511699676514 -2.347599983215332
-0.9404540657997131 7.745297908782959 -2.347599983215332
-2.170703172683716 7.494140625 -2.347599983215332
-2.7666943073272705 7.295170783996582 -2.347599983215332
-3.3447461128234863 7.048886775970459 -2.347599983215332
-4.934462547302246 6.043612957000732 -2.347599983215332
-5.404770374298096 5.626962661743164 -2.347599983215332
-5.840024471282959 5.173798561096191 -2.347599983215332
-7.881083965301514 2.631093740463257 -2.5
-8.281743049621582 0.6685839891433716 -2.5
7.960922718048096 0.6426855325698853 -2.5
7.883388519287109 1.2811815738677979 -2.5
7.754735946655273 1.9113867282867432 -2.5
7.575786113739014 2.529184579849243 -2.5
7.347704887390137 3.130571126937866 -2.5
5.613789081573486 4.973388671875 -2.347599983215332
5.195390701293945 5.408984184265137 -2.347599983215332
4.260448932647705 6.172333717346191 -2.347599983215332
3.7499656677246094 6.49514627456665 -2.347599983215332
3.215161085128784 6.775835037231445 -2.347599983215332
2.6595067977905273 7.0125732421875 -2.347599983215332
2.086596727371216 7.203832626342773 -2.347599983215332
0.9040136337280273 7.445258617401123 -2.347599983215332
0.30198240280151367 7.493857383728027 -2.347599983215332
-2.6595165729522705 7.01256799697876 -2.347599983215332
-3.215165853500366 6.775829792022705 -2.347599983215332
-3.7499706745147705 6.495141506195068 -2.347599983215332
-6.379599571228027 4.793954849243164 -2.4978816509246826
-6.750390529632568 4.2686767578125 -2.5
-7.071967601776123 3.711660146713257 -2.5
-7.575795650482178 2.529169797897339 -2.5
-7.883388519287109 1.2811717987060547 -2.5
7.662040710449219 0.6185546517372131 -2.5
7.587421894073486 1.2330760955810547 -2.5
7.463603496551514 1.8396093845367432 -2.5
6.49694299697876 4.10842752456665 -2.5
6.135908126831055 4.610849380493164 -2.4961864948272705
5.403027057647705 4.786674499511719 -2.347599983215332
4.565224647521973 5.591391563415527 -2.347599983215332
3.0944628715515137 6.521450042724609 -2.347599983215332
2.5596630573272705 6.749291896820068 -2.347599983215332
2.0082664489746094 6.93337869644165 -2.347599983215332
1.4438574314117432 7.072499752044678 -2.347599983215332
0.8700683116912842 7.165741920471191 -2.347599983215332
-0.29066404700279236 7.21251916885376 -2.347599983215332
-0.8700780868530273 7.165741920471191 -2.347599983215332
-1.4438574314117432 7.072494983673096 -2.347599983215332
-3.0944676399230957 6.521440505981445 -2.347599983215332
-3.60918927192688 6.251293659210205 -2.347599983215332
-4.100512504577637 5.940600395202637 -2.347599983215332
-5.000341892242432 5.205913066864014 -2.347599983215332
-6.144555568695068 4.617324352264404 -2.49969744682312
-6.4969482421875 4.108422756195068 -2.5
-6.806479454040527 3.5723142623901367 -2.5
-7.291367053985596 2.4342236518859863 -2.5
-7.463603496551514 1.8396093845367432 -2.5
-7.587426662445068 1.2330760955810547 -2.5
7.310961723327637 1.1881542205810547 -2.5
7.19164514541626 1.7725878953933716 -2.5
7.025693416595459 2.345527410507202 -2.5
6.55846643447876 3.4421582221984863 -2.5
6.260219573974609 3.958740234375 -2.5
5.916816234588623 4.446215629577637 -2.4980783462524414
4.818139553070068 5.016225337982178 -2.347599983215332
3.9510886669158936 5.72415018081665 -2.347599983215332
2.4663963317871094 6.503368854522705 -2.347599983215332
1.9350926876068115 6.680756568908691 -2.347599983215332
1.3912451267242432 6.814789772033691 -2.347599983215332
0.2800585925579071 6.949716567993164 -2.347599983215332
-1.3912451267242432 6.814799785614014 -2.347599983215332
-1.9351024627685547 6.680747032165527 -2.347599983215332
-2.4664013385772705 6.503374099731445 -2.347599983215332
-3.4776854515075684 6.023515701293945 -2.347599983215332
-4.398881912231445 5.387656211853027 -2.347599983215332
-5.527411937713623 4.896870136260986 -2.492464542388916
-6.260224342346191 3.9587254524230957 -2.5
-7.025693416595459 2.3455419540405273 -2.5
-7.191640377044678 1.7725781202316284 -2.5
-7.310966491699219 1.1881542205810547 -2.5
-7.382861137390137 0.5960156321525574 -2.5
7.144589900970459 1.9531249563442543e-05 -2.5
7.121420860290527 0.574902355670929 -2.5
6.936982154846191 1.7098242044448853 -2.5
6.5728759765625 2.8004491329193115 -2.5
5.711352348327637 4.291816234588623 -2.4998526573181152
4.647529125213623 4.838598728179932 -2.347599983215332
4.243114948272705 5.196884632110596 -2.347599983215332
3.8111767768859863 5.521450042724609 -2.347599983215332
2.8761181831359863 6.06130838394165 -2.347599983215332
1.8665722608566284 6.444174766540527 -2.347599983215332
0.8086913824081421 6.660146236419678 -2.347599983215332
0.2701367139816284 6.703618049621582 -2.347599983215332
-0.27015623450279236 6.703618049621582 -2.347599983215332
-1.3419872522354126 6.573471546173096 -2.347599983215332
-1.8665722608566284 6.444174766540527 -2.347599983215332
-2.3790721893310547 6.273085594177246 -2.347599983215332
-2.8761229515075684 6.06130838394165 -2.347599983215332
-3.8111815452575684 5.521435260772705 -2.347599983215332
-4.243110179901123 5.196875095367432 -2.347599983215332
-4.647529125213623 4.838593482971191 -2.347599983215332
-5.336195945739746 4.727465629577637 -2.4945735931396484
-5.711684226989746 4.292055606842041 -2.5
-6.038535118103027 3.81853985786438 -2.5
-6.326220512390137 3.320253849029541 -2.5
-6.5728759765625 2.8004443645477295 -2.5
-6.776908874511719 2.262465715408325 -2.5
-6.936972618103027 1.709814429283142 -2.5
-7.052080154418945 1.146083950996399 -2.5
-7.121420860290527 0.5749218463897705 -2.5
6.876049518585205 0.5551074147224426 -2.5
6.543398380279541 2.184516668319702 -2.5
6.346396446228027 2.7039501667022705 -2.5
5.830463886260986 3.6869773864746094 -2.5
5.514882564544678 4.144179821014404 -2.5
5.150136470794678 4.562641620635986 -2.493516445159912
4.096909046173096 5.017807483673096 -2.347599983215332
3.6798534393310547 5.331201076507568 -2.347599983215332
2.2970800399780273 6.056933403015137 -2.347599983215332
0.7808203101158142 6.430654048919678 -2.347599983215332
0.26082518696784973 6.472636699676514 -2.347599983215332
-0.26084470748901367 6.472631454467773 -2.347599983215332
-0.7808251976966858 6.4306640625 -2.347599983215332
-1.295742154121399 6.346982479095459 -2.347599983215332
-1.8022607564926147 6.222124099731445 -2.347599983215332
-4.096913814544678 5.017797946929932 -2.347599983215332
-4.518749713897705 4.704535961151123 -2.364009141921997
-5.156425476074219 4.568198204040527 -2.496556520462036
-5.830468654632568 3.686967611312866 -2.5
-6.108242034912109 3.2058544158935547 -2.5
-6.80908203125 1.106591820716858 -2.5
-6.876044750213623 0.5550878643989563 -2.5
6.473119735717773 1.59548819065094 -2.5
6.133354187011719 2.6131885051727295 -2.5
5.329755783081055 4.005058288574219 -2.5
4.343476295471191 4.522045612335205 -2.35123872756958
3.9593846797943115 4.849365234375 -2.347599983215332
3.1302146911621094 5.421699047088623 -2.347599983215332
1.7417528629302979 6.013266563415527 -2.347599983215332
1.2522460222244263 6.133925437927246 -2.347599983215332
-0.19151854515075684 4.752353191375732 -1.7835288047790527
-1.2522460222244263 6.133920669555664 -2.347599983215332
-2.6837987899780273 5.655991077423096 -2.347599983215332
-3.1302146911621094 5.421709060668945 -2.347599983215332
-4.501909255981445 4.686992168426514 -2.437001943588257
-4.987055778503418 4.418159008026123 -2.498424530029297
-5.329765319824219 4.005058288574219 -2.5
-5.634750843048096 3.5631980895996094 -2.5
-5.903203010559082 3.0982420444488525 -2.5
-6.133354187011719 2.6131885051727295 -2.5
-6.323750019073486 2.1111767292022705 -2.5
-6.580502986907959 1.0694531202316284 -2.5
6.448559284210205 9.765624781721272e-06 -2.5
6.261186599731445 1.543251872062683 -2.5
5.932548522949219 2.5276269912719727 -2.5
4.324765682220459 4.502558708190918 -2.420353889465332
3.439892530441284 4.983554363250732 -2.347599983215332
3.0277295112609863 5.244194030761719 -2.347599983215332
2.5959277153015137 5.470815181732178 -2.347599983215332
2.147294759750366 5.661967754364014 -2.347599983215332
0.24381835758686066 6.050556659698486 -2.347599983215332
-0.19106444716453552 4.741078853607178 -1.839526653289795
-5.155263423919678 3.8739256858825684 -2.5
-5.450263500213623 3.446537971496582 -2.5
-5.709921836853027 2.9968066215515137 -2.5
-6.261186599731445 1.54324209690094 -2.5
-6.427656173706055 0.5188964605331421 -2.5
6.222187519073486 0.5023144483566284 -2.5
6.161586761474609 1.001367211341858 -2.5
6.06102991104126 1.4939160346984863 -2.5
5.921166896820068 1.9767773151397705 -2.5
5.742895603179932 2.446830987930298 -2.5
4.990448951721191 3.7500927448272705 -2.5
3.3299314975738525 4.82424783706665 -2.347599983215332
2.9309473037719727 5.076547622680664 -2.347599983215332
2.512934446334839 5.295932292938232 -2.347599983215332
1.6308691501617432 5.630458831787109 -2.347599983215332
1.172519564628601 5.743427753448486 -2.347599983215332
0.7065624594688416 5.819150447845459 -2.347599983215332
-0.7065820097923279 5.819140434265137 -2.347599983215332
-1.1725292205810547 5.743427753448486 -2.347599983215332
-1.6308836936950684 5.630449295043945 -2.347599983215332
-2.9309473037719727 5.076542854309082 -2.347599983215332
-3.3299365043640137 4.824238300323486 -2.347599983215332
-4.672524452209473 4.139502048492432 -2.5
-4.990468502044678 3.7500877380371094 -2.5
-5.276034832000732 3.336371898651123 -2.5
-5.527387619018555 2.900995969772339 -2.5
-5.92117166519165 1.9767773151397705 -2.5
-6.06102991104126 1.4939160346984863 -2.5
-6.222187519073486 0.5023144483566284 -2.5
6.047382831573486 9.765624781721272e-06 -2.5
6.027763366699219 0.4866308569908142 -2.5
5.736152172088623 1.9150195121765137 -2.5
5.563461780548096 2.3703808784484863 -2.5
5.111181735992432 3.232128858566284 -2.5
2.839360237121582 4.917924880981445 -2.347599983215332
2.0137059688568115 5.309706687927246 -2.347599983215332
1.579921841621399 5.454526424407959 -2.347599983215332
1.135888695716858 5.563969612121582 -2.347599983215332
0.22865721583366394 5.674140453338623 -2.347599983215332
-0.18402831256389618 4.56640625 -1.8892948627471924
-1.1358935832977295 5.563979148864746 -2.347599983215332
-2.0137109756469727 5.309711933135986 -2.347599983215332
-2.4344334602355957 5.130449295043945 -2.347599983215332
-3.225893497467041 4.673501014709473 -2.347599983215332
-3.714467763900757 4.549394607543945 -2.4279870986938477
-4.183632850646973 4.355634689331055 -2.4966979026794434
-4.526528358459473 4.010151386260986 -2.5
-5.111186504364014 3.232123851776123 -2.5
-5.354687213897705 2.81036114692688 -2.5
-5.736156940460205 1.9150195121765137 -2.5
-6.027763366699219 0.4866113066673279 -2.5
5.862524509429932 9.765624781721272e-06 -2.5
5.843505859375 0.471748024225235 -2.5
5.393398284912109 2.297919988632202 -2.5
5.191000938415527 2.7244677543640137 -2.5
4.954941272735596 3.1333250999450684 -2.5
4.686743259429932 3.5218799114227295 -2.5
4.054755687713623 4.221455097198486 -2.4960901737213135
3.5937206745147705 4.401513576507568 -2.423130512237549
2.752568244934082 4.767602443695068 -2.347599983215332
2.3600146770477295 4.973622798919678 -2.347599983215332
1.9521484375 5.147407054901123 -2.347599983215332
1.5316259860992432 5.287792682647705 -2.347599983215332
0.66357421875 5.465009689331055 -2.347599983215332
-0.18333496153354645 4.549286842346191 -1.9415606260299683
-0.66357421875 5.465009689331055 -2.347599983215332
-1.1011767387390137 5.393891334533691 -2.347599983215332
-2.3600146770477295 4.973622798919678 -2.347599983215332
-5.191005706787109 2.7244482040405273 -2.5
-5.692172527313232 1.4029979705810547 -2.5
-5.786596775054932 0.9404199123382568 -2.5
-5.843510627746582 0.471748024225235 -2.5
5.687026023864746 1.9531249563442543e-05 -2.5
5.613388538360596 0.9122753739356995 -2.5
5.394350528717041 1.8009082078933716 -2.5
4.256792068481445 3.771196126937866 -2.5
3.0336570739746094 4.39501953125 -2.347599983215332
2.289365291595459 4.824740886688232 -2.347599983215332
1.893715739250183 4.993319988250732 -2.347599983215332
1.4857714176177979 5.129501819610596 -2.347599983215332
0.6437011361122131 5.301411151885986 -2.347599983215332
-2.670170783996582 4.624873161315918 -2.347599983215332
-3.074697256088257 4.454452991485596 -2.3793509006500244
-3.588696241378784 4.395356178283691 -2.4944136142730713
-4.256796836853027 3.7712011337280273 -2.5
-5.035614967346191 2.642890453338623 -2.5
-5.231943130493164 2.2291259765625 -2.5
-5.394350528717041 1.8008984327316284 -2.5
-5.521772384643555 1.3609960079193115 -2.5
-5.613379001617432 0.9122753739356995 -2.5
-5.6685791015625 0.4576171636581421 -2.5
5.520155906677246 9.765624781721272e-06 -2.5
5.502265453338623 0.4441894292831421 -2.5
5.359755516052246 1.3210742473602295 -2.5
5.078432559967041 2.1637256145477295 -2.5
4.665585994720459 2.9503467082977295 -2.5
4.413051605224609 3.3162059783935547 -2.5
3.483144521713257 4.266083717346191 -2.494229316711426
2.5918262004852295 4.489184379577637 -2.347599983215332
1.4421874284744263 4.97900390625 -2.347599983215332
1.0368603467941284 5.078901290893555 -2.347599983215332
0.6248144507408142 5.145864009857178 -2.347599983215332
-1.036865234375 5.078901290893555 -2.347599983215332
-3.0652928352355957 4.440854549407959 -2.4437828063964844
-3.485956907272339 4.269511699676514 -2.4962399005889893
-4.131904125213623 3.6605517864227295 -2.5
-4.665590763092041 2.9503369331359863 -2.5
-5.078432559967041 2.1637303829193115 -2.5
-5.236073970794678 1.7480664253234863 -2.5
-5.448671817779541 0.8855078220367432 -2.5
-5.502265453338623 0.44419920444488525 -2.5
5.361269474029541 9.765624781721272e-06 -2.5
5.085361003875732 1.6977441310882568 -2.5
4.747168064117432 2.491523265838623 -2.5
4.531289100646973 2.865419864654541 -2.5
3.3853564262390137 4.146323204040527 -2.49605655670166
2.986201047897339 4.326274394989014 -2.451284170150757
2.5172314643859863 4.359961032867432 -2.347599983215332
2.1582324504852295 4.548383712768555 -2.347599983215332
1.007021427154541 4.932709693908691 -2.347599983215332
0.6068359017372131 4.997748851776123 -2.347599983215332
-0.6068359017372131 4.997748851776123 -2.347599983215332
-1.0070263147354126 4.932704925537109 -2.347599983215332
-2.1582324504852295 4.548378944396973 -2.347599983215332
-2.535405158996582 4.391459941864014 -2.364555597305298
-3.713881731033325 3.866567373275757 -2.5
-4.286035060882568 3.2207517623901367 -2.5
-4.531303405761719 2.86541485786438 -2.5
-4.747177600860596 2.491508722305298 -2.5
-4.932260513305664 2.101445198059082 -2.5
-5.085361003875732 1.69775390625 -2.5
-5.205492973327637 1.2830370664596558 -2.5
-5.291840553283691 0.8600195050239563 -2.5
-5.343881607055664 0.4314062297344208 -2.5
