ply
format ascii 1.0
element vertex 906
property float x
property float y
property float z
end_header
18.762441635131836 6.263827800750732 5.300142288208008
7.315976619720459 19.2906436920166 5.5281500816345215
1.3129003047943115 10.812675476074219 2.918524742126465
-2.0531299114227295 10.056903839111328 2.750322103500366
-2.899609327316284 10.010634422302246 2.792595148086548
-4.612246036529541 9.720097541809082 2.882827043533325
-6.443637371063232 9.335205078125 3.0393810272216797
-7.84166955947876 9.604287147521973 3.3222906589508057
8.020337104797363 21.147871017456055 5.792529582977295
3.6136815547943115 12.475878715515137 3.3264896869659424
-0.4185546636581421 10.386347770690918 2.662172794342041
-1.2726415395736694 10.481181144714355 2.704017162322998
-2.1485350131988525 10.524276733398438 2.750930070877075
-3.9416699409484863 10.393320083618164 2.8467962741851807
-4.844565391540527 10.209707260131836 2.894209623336792
-6.606371879577637 9.57094669342041 2.9784154891967773
-7.84166955947876 9.604287147521973 3.175457000732422
9.950136184692383 20.969482421875 5.67103910446167
1.3129003047943115 10.812675476074219 2.6612792015075684
0.43123045563697815 10.700819969177246 2.6166675090789795
-0.43742185831069946 10.854589462280273 2.654268741607666
-2.252631902694702 11.034140586853027 2.751594066619873
-3.1942529678344727 11.027851104736328 2.8052055835723877
-4.143491268157959 10.925477981567383 2.8549656867980957
-5.10000467300415 10.748017311096191 2.9067234992980957
-4.972275257110596 8.61221694946289 2.429765224456787
-7.872958660125732 9.642617225646973 3.041543483734131
-9.955009460449219 10.364267349243164 3.511241912841797
8.020337104797363 21.147871017456055 5.261307716369629
3.6136815547943115 12.475869178771973 3.0214226245880127
1.3311376571655273 10.962870597839355 2.568910837173462
-0.45795896649360657 11.364140510559082 2.6456682682037354
-1.3969091176986694 11.504560470581055 2.6958446502685547
-2.3666698932647705 11.592743873596191 2.7523205280303955
-3.36492657661438 11.617070198059082 2.81343674659729
-4.381049633026123 11.551884651184082 2.873957395553589
-5.395268440246582 11.370302200317383 2.9276134967803955
-8.352895736694336 10.230429649353027 3.072275400161743
5.610981464385986 14.794901847839355 3.4964141845703125
3.6136913299560547 12.475869178771973 2.8700883388519287
2.338310480117798 11.45375919342041 2.583120107650757
1.3932714462280273 11.47459888458252 2.5541436672210693
0.47187986969947815 11.709657669067383 2.5895609855651855
-1.468017578125 12.09017562866211 2.6911680698394775
-2.492182493209839 12.207558631896973 2.7531213760375977
-3.551142454147339 12.259970664978027 2.820420980453491
-4.637490272521973 12.228066444396973 2.889805793762207
-4.972275257110596 8.61221694946289 2.1974260807037354
-7.87890625 11.41455078125 3.0647668838500977
3.6136815547943115 12.475878715515137 2.719486713409424
2.3912596702575684 11.713134765625 2.503000497817993
-2.6270360946655273 12.868056297302246 2.7497997283935547
-3.75811505317688 12.97451114654541 2.82818341255188
-4.972275257110596 8.61221694946289 2.0821220874786377
-9.558856964111328 11.707460403442383 3.164494037628174
5.610976219177246 14.794921875 3.130336284637451
3.6136815547943115 12.4758882522583 2.569586753845215
2.5094189643859863 12.291933059692383 2.481903314590454
0.520825207233429 12.9241304397583 2.5588905811309814
-2.7744383811950684 13.590067863464355 2.7440123558044434
-5.243027210235596 13.824746131896973 2.925065279006958
-6.573276042938232 13.852861404418945 3.0334246158599854
-4.972275257110596 8.61221694946289 1.9673532247543335
-9.158154487609863 13.267841339111328 3.1893866062164307
3.6258153915405273 12.517773628234863 2.42846941947937
1.6119238138198853 13.275390625 2.491933584213257
0.5463769435882568 13.55833911895752 2.5285418033599854
-0.5585546493530273 13.8604097366333 2.584874153137207
-2.9385986328125 14.39418888092041 2.737567663192749
-9.703686714172363 14.058173179626465 3.183091878890991
-12.382524490356445 12.891571998596191 3.330885648727417
3.814936399459839 13.170693397521973 2.3982295989990234
2.775439500808716 13.594999313354492 2.42679500579834
1.6935302019119263 13.947519302368164 2.457324743270874
0.5769628882408142 14.317099571228027 2.5060787200927734
-1.8198144435882568 14.98753833770752 2.640561580657959
-4.557265758514404 15.73348617553711 2.8648838996887207
-6.175082683563232 16.282352447509766 3.045689105987549
-7.94482421875 16.743349075317383 3.2413463592529297
-4.972275257110596 8.61221694946289 1.7392919063568115
-11.01302719116211 15.955078125 3.3907487392425537
-12.31615161895752 15.0845308303833 3.405956983566284
5.610986232757568 14.79491138458252 2.587092161178589
2.922187328338623 14.313788414001465 2.3885793685913086
1.7900439500808716 14.742411613464355 2.4280900955200195
-1.921474575996399 15.824755668640137 2.6063547134399414
-3.330820322036743 16.315448760986328 2.7226030826568604
-12.53073501586914 18.153837203979492 3.6065850257873535
-14.91585922241211 15.529052734375 3.5205156803131104
5.61099100112915 14.794931411743164 2.4073822498321533
4.249208927154541 14.669970512390137 2.32367205619812
1.8864452838897705 15.536356925964355 2.381103754043579
-2.036616086959839 16.773027420043945 2.5706374645233154
-8.069270133972168 27.858320236206055 4.412663459777832
-10.093440055847168 26.61421775817871 4.330577373504639
-4.972275257110596 8.61221694946289 1.512988567352295
-14.162760734558105 20.51824188232422 3.7931530475616455
-15.362071990966797 18.815107345581055 3.695540189743042
5.700366020202637 15.030595779418945 2.2637689113616943
1.991152286529541 16.398681640625 2.326280355453491
0.6780371069908142 16.825439453125 2.371337890625
-0.6940673589706421 17.223203659057617 2.427398920059204
-4.972275257110596 8.61221694946289 1.4004223346710205
4.781142234802246 16.50643539428711 2.226123571395874
3.4627294540405273 16.96156120300293 2.242508888244629
0.7153759598731995 17.752099990844727 2.3014614582061768
-0.7315966486930847 18.154375076293945 2.35361385345459
-9.357157707214355 19.719783782958984 2.8274810314178467
6.463105201721191 17.041776657104492 2.155932903289795
5.0882568359375 17.56671905517578 2.1633381843566895
2.232534170150757 18.386552810668945 2.1908748149871826
0.7542626857757568 18.716991424560547 2.2157845497131348
-0.7326903939247131 18.18168830871582 2.152414083480835
-9.357157707214355 19.719783782958984 2.581885814666748
-4.972275257110596 8.61221694946289 1.1763170957565308
5.434438228607178 18.76185417175293 2.091310977935791
0.7965136766433716 19.765487670898438 2.1179144382476807
-0.7327001690864563 18.181699752807617 1.9482030868530273
-9.357157707214355 19.719783782958984 2.336933135986328
7.447953701019287 19.63860321044922 2.0135958194732666
2.505751848220825 20.636688232421875 1.9929625988006592
0.8399267196655273 20.842830657958984 1.9998149871826172
-4.972275257110596 8.61221694946289 0.9533785581588745
2.6750926971435547 22.031410217285156 1.8797152042388916
0.8888671398162842 22.057079315185547 1.8696999549865723
-3.248466730117798 26.75348663330078 2.2826008796691895
-9.357157707214355 19.719783782958984 1.848712682723999
-4.972275257110596 8.61221694946289 0.8422799706459045
4.831166744232178 23.664588928222656 1.7763525247573853
2.871264696121216 23.647186279296875 1.7519476413726807
-3.248466730117798 26.75348663330078 1.9820836782455444
-7.579570293426514 26.16769027709961 2.003657102584839
-9.2806396484375 24.471019744873047 1.9248477220535278
-9.357162475585938 19.719783782958984 1.6053189039230347
-4.972275257110596 8.61221694946289 0.7313897609710693
8.020346641540527 21.147890090942383 1.4116582870483398
5.304721355438232 25.98421287536621 1.655228853225708
3.097963809967041 25.514110565185547 1.6041316986083984
-5.496308326721191 26.922685623168945 1.7150102853775024
-9.2806396484375 24.471019744873047 1.6334832906723022
-9.357162475585938 19.71979522705078 1.3623217344284058
-4.972275257110596 8.61221694946289 0.6206805109977722
8.020346641540527 21.147890090942383 1.16020929813385
3.4747509956359863 28.61725616455078 1.4787487983703613
1.1127147674560547 27.611923217773438 1.4175466299057007
-3.2484569549560547 26.75346565246582 1.3824408054351807
-9.28063678741455 24.47101593017578 1.3425213098526
-4.972275257110596 8.61221694946289 0.5101184248924255
-16.46539306640625 23.85417366027832 1.4868316650390625
-16.597131729125977 20.32777214050293 1.3461642265319824
-15.757792472839355 16.40560531616211 1.1668728590011597
-0.7326903939247131 18.18168830871582 0.7313485741615295
-9.2806396484375 24.471019744873047 1.051890254020691
-4.972275257110596 8.61221694946289 0.3996908366680145
-16.597126007080078 20.32777214050293 1.0547442436218262
8.020346641540527 21.147890090942383 0.6581091284751892
-0.7326903939247131 18.18168830871582 0.5294613242149353
-7.943700790405273 16.740976333618164 0.5391680598258972
-4.972275257110596 8.61221694946289 0.28935760259628296
-6.824531078338623 9.887011528015137 0.3495599329471588
-6.048774242401123 15.949296951293945 0.3071972727775574
-7.943700790405273 16.740976333618164 0.3337121605873108
-4.972275257110596 8.61221694946289 0.1790924072265625
-9.955009460449219 10.3642578125 0.25880706310272217
-0.7326903939247131 18.18168830871582 0.1260272115468979
-3.5225682258605957 9.28823184967041 0.0688006579875946
-6.443642616271973 9.335185050964355 0.07856140285730362
8.020346641540527 21.147890090942383 -0.09399383515119553
-1.9489550590515137 9.546610832214355 -0.04049087315797806
-3.5225682258605957 9.28823184967041 -0.041281431913375854
-4.972275257110596 8.61221694946289 -0.04132843017578125
-9.955009460449219 10.364248275756836 -0.059720151126384735
-0.4031103551387787 10.00307559967041 -0.15255233645439148
-1.9489599466323853 9.546610832214355 -0.14847350120544434
-3.5225682258605957 9.28823184967041 -0.15137267112731934
-7.84166955947876 9.6043062210083 -0.18893738090991974
0.4173681437969208 10.356943130493164 -0.27286285161972046
-0.4031103551387787 10.00307559967041 -0.26353880763053894
-1.1838672161102295 9.749990463256836 -0.2585487365722656
-2.718017578125 9.38370132446289 -0.2571735978126526
-4.972275257110596 8.61221694946289 -0.26178252696990967
-6.443637371063232 9.335185050964355 -0.2986007630825043
-7.841684341430664 9.6043062210083 -0.3263954222202301
-9.955009460449219 10.364248275756836 -0.37830275297164917
3.6136815547943115 12.475858688354492 -0.486001580953598
2.338305711746216 11.453749656677246 -0.43740859627723694
-0.4031152129173279 10.00308609008789 -0.3745918273925781
-1.9489599466323853 9.546610832214355 -0.3645770251750946
-2.718017578125 9.38370132446289 -0.3655451834201813
-4.377880573272705 9.226181030273438 -0.3821121156215668
-4.972275257110596 8.61221694946289 -0.37209442257881165
-6.443637371063232 9.335185050964355 -0.42442914843559265
-7.84166955947876 9.6043062210083 -0.463936448097229
5.610976219177246 14.794921875 -0.767729640007019
3.6136767864227295 12.475858688354492 -0.6302022933959961
2.338305711746216 11.453749656677246 -0.5671913027763367
1.3129003047943115 10.812675476074219 -0.528477132320404
-2.718017578125 9.38370132446289 -0.47400543093681335
-9.955009460449219 10.3642578125 -0.697262704372406
5.610981464385986 14.794901847839355 -0.9435885548591614
3.6136815547943115 12.475858688354492 -0.7745585441589355
1.3129003047943115 10.812675476074219 -0.6495317220687866
-2.718017578125 9.38370132446289 -0.5825825333595276
-3.5225682258605957 9.28823184967041 -0.5923851132392883
-4.972275257110596 8.61221694946289 -0.5930241346359253
-6.443637371063232 9.335185050964355 -0.6764277219772339
16.692670822143555 4.114365100860596 -1.2165580987930298
5.610981464385986 14.794901847839355 -1.1196800470352173
3.6136767864227295 12.475858688354492 -0.9191052317619324
2.338315486907959 11.453749656677246 -0.827208399772644
1.3129003047943115 10.812675476074219 -0.7707464694976807
0.4173681437969208 10.356943130493164 -0.7334731817245483
-1.1838672161102295 9.749990463256836 -0.6949959993362427
-1.9489599466323853 9.546610832214355 -0.6894723176956177
-3.5225682258605957 9.288251876831055 -0.7029353380203247
-7.84166955947876 9.6043062210083 -0.8773766756057739
16.204051971435547 3.9939451217651367 -1.3669668436050415
24.224267959594727 15.318534851074219 -2.347599983215332
22.91306495666504 17.21810531616211 -2.347599983215332
18.126737594604492 22.20122528076172 -2.347599983215332
16.281484603881836 23.587812423706055 -2.347599983215332
12.286893844604492 25.894081115722656 -2.347599983215332
-0.4031103551387787 10.00307559967041 -0.8199999928474426
-1.1838672161102295 9.749990463256836 -0.804469883441925
-4.972275257110596 8.61221694946289 -0.8145423531532288
-6.443637371063232 9.335185050964355 -0.9290949702262878
-7.8416748046875 9.6043062210083 -1.0155786275863647
-21.453310012817383 19.005985260009766 -2.347599983215332
26.5123233795166 4.308681488037109 -2.5
25.47783088684082 8.50576114654541 -2.5
22.33365249633789 11.72159194946289 -2.347599983215332
12.611371994018555 21.843544006347656 -2.347599983215332
10.812811851501465 22.787519454956055 -2.347599983215332
5.610981464385986 14.794901847839355 -1.4727360010147095
-0.4031103551387787 10.00307559967041 -0.9317893981933594
-2.718017578125 9.38370132446289 -0.9092844724655151
-3.5225682258605957 9.28823184967041 -0.9245840311050415
-6.443642616271973 9.335185050964355 -1.0557568073272705
-9.955009460449219 10.364248275756836 -1.3375588655471802
-20.164159774780273 15.152372360229492 -2.347599983215332
-21.318031311035156 13.480692863464355 -2.347599983215332
-23.78349494934082 12.48250961303711 -2.5
-24.71079444885254 10.528261184692383 -2.5
-26.7730655670166 2.161318302154541 -2.5
10.812338829040527 9.765624781721272e-06 -1.1273388862609863
23.667064666748047 3.846269369125366 -2.5
22.743602752685547 7.592939376831055 -2.5
22.058900833129883 9.398427963256836 -2.5
19.03019905090332 12.0339937210083 -2.347599983215332
12.790478706359863 18.53023338317871 -2.347599983215332
5.610976219177246 14.794921875 -1.6497893333435059
3.6136767864227295 12.475858688354492 -1.3542531728744507
1.3129003047943115 10.812675476074219 -1.135654091835022
-0.4031103551387787 10.00307559967041 -1.043807864189148
-1.9489550590515137 9.546610832214355 -1.015899658203125
-3.5225682258605957 9.28823184967041 -1.0357377529144287
-4.972275257110596 8.61221694946289 -1.036858320236206
-7.8416748046875 9.6043062210083 -1.2927683591842651
-9.9550142288208 10.364267349243164 -1.4983608722686768
-16.8533878326416 14.930790901184082 -2.347599983215332
-18.000181198120117 13.526220321655273 -2.347599983215332
-19.03022003173828 12.033954620361328 -2.347599983215332
-22.058876037597656 9.398388862609863 -2.5
-23.280853271484375 5.738193035125732 -2.5
10.748906135559082 -9.765624781721272e-06 -1.2412755489349365
21.578691482543945 1.7420214414596558 -2.5
20.534765243530273 6.855517387390137 -2.5
19.916542053222656 8.4856538772583 -2.5
17.1820011138916 10.865283012390137 -2.347599983215332
16.25200653076172 12.212597846984863 -2.347599983215332
15.216606140136719 13.480741500854492 -2.347599983215332
12.857094764709473 15.747089385986328 -2.347599983215332
8.714950561523438 18.366376876831055 -2.347599983215332
5.610981464385986 14.794901847839355 -1.8272486925125122
3.6136767864227295 12.475858688354492 -1.4999239444732666
2.338310480117798 11.453749656677246 -1.349953532218933
1.3129003047943115 10.812675476074219 -1.2578115463256836
-0.4031103551387787 10.00307559967041 -1.156087040901184
-1.9489599466323853 9.546610832214355 -1.1251767873764038
-3.5225682258605957 9.28823184967041 -1.147147536277771
-4.377880573272705 9.226181030273438 -1.1792948246002197
-4.972275257110596 8.61221694946289 -1.1483886241912842
-6.443637371063232 9.335185050964355 -1.3098958730697632
-7.8416748046875 9.6043062210083 -1.4318256378173828
-16.25202178955078 12.212577819824219 -2.347599983215332
-17.182025909423828 10.865234375 -2.347599983215332
-21.019819259643555 5.180917739868164 -2.5
-21.36854362487793 3.472724437713623 -2.5
-21.578685760498047 1.7419921159744263 -2.5
19.66400909423828 1.5874511003494263 -2.5
19.472518920898438 3.1645801067352295 -2.5
15.770902633666992 3.8871777057647705 -2.0583577156066895
18.712724685668945 6.247206687927246 -2.5
18.14933967590332 7.732714653015137 -2.5
14.809965133666992 11.128984451293945 -2.347599983215332
12.83297348022461 13.360536575317383 -2.347599983215332
11.716279029846191 14.349853515625 -2.347599983215332
10.523598670959473 15.24609375 -2.347599983215332
9.2626314163208 16.043407440185547 -2.347599983215332
7.94167947769165 16.73674774169922 -2.347599983215332
5.610981464385986 14.79491138458252 -2.0051677227020264
3.6136717796325684 12.475869178771973 -1.6459710597991943
2.338305711746216 11.453749656677246 -1.481398105621338
0.4173681437969208 10.356943130493164 -1.3135344982147217
-1.1838672161102295 9.749990463256836 -1.2446274757385254
-1.9489550590515137 9.546610832214355 -1.234735131263733
-4.377885818481445 9.226191520690918 -1.2941231727600098
-4.972275257110596 8.61221694946289 -1.2602086067199707
-7.8416748046875 9.6043062210083 -1.5712419748306274
-13.866433143615723 12.284599304199219 -2.347599983215332
-17.4616641998291 9.164560317993164 -2.499053955078125
-18.149351119995117 7.73269510269165 -2.5
-18.712718963623047 6.247206687927246 -2.5
18.05731964111328 1.4577441215515137 -2.5
17.881460189819336 2.9060254096984863 -2.5
17.589643478393555 4.335458755493164 -2.5
17.183740615844727 5.736786842346191 -2.5
15.68919849395752 8.234335899353027 -2.4451751708984375
12.733437538146973 11.280839920043945 -2.347599983215332
11.784419059753418 12.26888656616211 -2.347599983215332
10.7589693069458 13.177343368530273 -2.347599983215332
9.663740158081055 14.000350952148438 -2.347599983215332
8.505859375 14.732558250427246 -2.347599983215332
5.610981464385986 14.794921875 -2.1835832595825195
3.6136717796325684 12.475869178771973 -1.7924262285232544
2.338305711746216 11.453749656677246 -1.6132100820541382
1.3129003047943115 10.812675476074219 -1.5030993223190308
-1.1838672161102295 9.749990463256836 -1.3553717136383057
-1.9489599466323853 9.546610832214355 -1.3445994853973389
-3.5225682258605957 9.288251876831055 -1.3708542585372925
-4.377880573272705 9.226181030273438 -1.4092708826065063
-7.84166955947876 9.6043062210083 -1.7110482454299927
-13.59988784790039 10.21962833404541 -2.347599983215332
-16.017948150634766 8.406835556030273 -2.4964113235473633
-16.666400909423828 7.100878715515137 -2.5
-17.183740615844727 5.736767292022705 -2.5
-17.881460189819336 2.906005859375 -2.5
10.541635513305664 0.0 -1.573964238166809
16.689462661743164 1.347314476966858 -2.5
16.526933670043945 2.685908079147339 -2.5
16.25721549987793 4.007050514221191 -2.5
15.88206958770752 5.302226543426514 -2.5
11.768877029418945 10.426298141479492 -2.347599983215332
10.89174747467041 11.339521408081055 -2.347599983215332
9.943979263305664 12.179150581359863 -2.347599983215332
7.861537933349609 13.616552352905273 -2.347599983215332
6.740361213684082 14.204999923706055 -2.347599983215332
5.575409889221191 14.701278686523438 -2.347599983215332
2.338310480117798 11.453749656677246 -1.7454267740249634
0.41737303137779236 10.356943130493164 -1.5476444959640503
-1.9489550590515137 9.546610832214355 -1.4548008441925049
-7.8416748046875 9.6043062210083 -1.8512831926345825
-9.955009460449219 10.3642578125 -2.145697593688965
-15.88206958770752 5.302196979522705 -2.5
-16.25721549987793 4.007030963897705 -2.5
-16.68946647644043 1.3472851514816284 -2.5
10.557157516479492 9.765624781721272e-06 -1.6960824728012085
15.359575271606445 2.496171712875366 -2.5
15.108920097351074 3.724013566970825 -2.5
12.350326538085938 7.809873104095459 -2.347599983215332
11.681845664978027 8.778349876403809 -2.347599983215332
10.937612533569336 9.689863204956055 -2.347599983215332
10.1224365234375 10.538544654846191 -2.347599983215332
9.241621017456055 11.318876266479492 -2.347599983215332
8.30081558227539 12.025830268859863 -2.347599983215332
5.18166971206665 13.6628999710083 -2.347599983215332
3.6136767864227295 12.475858688354492 -2.0867247581481934
2.338310480117798 11.453749656677246 -1.8780823945999146
1.3129003047943115 10.812665939331055 -1.7498912811279297
-0.4031152129173279 10.00308609008789 -1.6083712577819824
-3.5225682258605957 9.28823184967041 -1.5959341526031494
-6.443637371063232 9.335185050964355 -1.8223528861999512
-7.8416748046875 9.6043062210083 -1.9919838905334473
-9.9550142288208 10.364267349243164 -2.308773994445801
-11.681864738464355 8.7783203125 -2.347599983215332
-12.350326538085938 7.809863090515137 -2.347599983215332
-14.315888404846191 6.099413871765137 -2.5
-14.760268211364746 4.927675724029541 -2.5
-15.10891056060791 3.724003791809082 -2.5
-15.359580039978027 2.496171712875366 -2.5
-15.510629653930664 1.2521288394927979 -2.5
10.572807312011719 0.0 -1.819000482559204
14.4839448928833 1.1692675352096558 -2.5
14.34288501739502 2.330937385559082 -2.5
14.108818054199219 3.4774999618530273 -2.5
13.368270874023438 5.695683479309082 -2.5
12.857661247253418 6.748222351074219 -2.498260498046875
10.908588409423828 8.197275161743164 -2.347599983215332
6.82262659072876 11.817118644714355 -2.347599983215332
5.849614143371582 12.327802658081055 -2.347599983215332
3.6136767864227295 12.475858688354492 -2.2346417903900146
2.338315486907959 11.453749656677246 -2.0112102031707764
1.3129003047943115 10.812665939331055 -1.8739327192306519
-3.5225682258605957 9.28823184967041 -1.7090619802474976
-4.377880573272705 9.226181030273438 -1.7569564580917358
-6.443642616271973 9.335195541381836 -1.9515306949615479
-7.8416748046875 9.6043062210083 -2.133185386657715
-10.908588409423828 8.197275161743164 -2.347599983215332
-12.84627914428711 6.742226600646973 -2.4960484504699707
-13.36827564239502 5.69567346572876 -2.5
-13.783242225646973 4.601493835449219 -2.5
-14.108808517456055 3.477490186691284 -2.5
-14.342875480651855 2.330947160720825 -2.5
-14.483935356140137 1.1692675352096558 -2.5
13.581499099731445 1.0964159965515137 -2.5
12.064359664916992 6.331874847412109 -2.4998815059661865
10.814252853393555 6.838525295257568 -2.347599983215332
9.577231407165527 8.4846773147583 -2.347599983215332
7.268417835235596 10.53011703491211 -2.347599983215332
6.397529125213623 11.080829620361328 -2.347599983215332
2.338310480117798 11.453749656677246 -2.144848585128784
1.3129003047943115 10.812665939331055 -1.998449683189392
-1.1838672161102295 9.749990463256836 -1.8020390272140503
-3.5225682258605957 9.28823184967041 -1.8226238489151
-4.377880573272705 9.226181030273438 -1.8737002611160278
-6.443642616271973 9.335185050964355 -2.081202983856201
-8.863447189331055 9.227812767028809 -2.347599983215332
-9.577226638793945 8.484686851501465 -2.347599983215332
-12.050698280334473 6.324677467346191 -2.4970483779907227
-12.535341262817383 5.340790748596191 -2.5
-12.924452781677246 4.314785003662109 -2.5
-13.229736328125 3.2608299255371094 -2.5
-13.449228286743164 2.1857030391693115 -2.5
10.578373908996582 0.0 -2.062310218811035
12.781869888305664 1.0318456888198853 -2.5
12.657392501831055 2.057021379470825 -2.5
12.45082950592041 3.06884765625 -2.5
11.797319412231445 5.026357173919678 -2.5
11.354594230651855 5.95934534072876 -2.5
9.626679420471191 7.233974456787109 -2.347599983215332
9.0133638381958 7.985146522521973 -2.347599983215332
8.341615676879883 8.684501647949219 -2.347599983215332
6.840493202209473 9.910136222839355 -2.347599983215332
5.162201881408691 10.879091262817383 -2.347599983215332
4.270058631896973 11.259208679199219 -2.347599983215332
1.3129003047943115 10.812675476074219 -2.123471260070801
0.4173681437969208 10.356943130493164 -2.0207815170288086
-0.4031103551387787 10.00307559967041 -1.9517372846603394
-1.1838672161102295 9.749990463256836 -1.9147731065750122
-1.9489599466323853 9.546610832214355 -1.8995541334152222
-3.5225682258605957 9.28823184967041 -1.9366455078125
-4.377880573272705 9.226181030273438 -1.9909179210662842
-6.443642616271973 9.335185050964355 -2.2114017009735107
-7.615736961364746 9.327588081359863 -2.347599983215332
-8.341601371765137 8.684521675109863 -2.347599983215332
-9.013359069824219 7.985146522521973 -2.347599983215332
-9.626679420471191 7.233974456787109 -2.347599983215332
-11.797308921813965 5.026347637176514 -2.5
-12.1635103225708 4.060761451721191 -2.5
-12.450824737548828 3.068837881088257 -2.5
-12.781869888305664 1.031826138496399 -2.5
11.138667106628418 4.745741844177246 -2.5
9.089208602905273 6.83010721206665 -2.347599983215332
7.875893592834473 8.199658393859863 -2.347599983215332
7.190561294555664 8.806825637817383 -2.347599983215332
6.458583831787109 9.356855392456055 -2.347599983215332
4.874003887176514 10.271718978881836 -2.347599983215332
3.1631786823272705 10.920546531677246 -2.347599983215332
0.41737303137779236 10.356943130493164 -2.1402738094329834
-0.4031103551387787 10.00307559967041 -2.0671470165252686
-1.1838672161102295 9.749990463256836 -2.027996063232422
-1.9489599466323853 9.546610832214355 -2.0118777751922607
-4.377880573272705 9.226181030273438 -2.1086440086364746
-7.875888347625732 8.199667930603027 -2.347599983215332
-9.089218139648438 6.830097675323486 -2.347599983215332
-10.71969223022461 5.626103401184082 -2.4997715950012207
-11.138667106628418 4.745732307434082 -2.5
-11.484418869018555 3.83404278755188 -2.5
10.54811954498291 0.0 -2.3001677989959717
11.427348136901855 0.92249995470047 -2.5
11.316059112548828 1.8390429019927979 -2.5
11.131386756896973 2.74365234375 -2.5
10.151328086853027 5.327812194824219 -2.5
8.058197975158691 7.138935565948486 -2.347599983215332
7.457622051239014 7.764199256896973 -2.347599983215332
6.808681488037109 8.339120864868164 -2.347599983215332
6.115581035614014 8.859941482543945 -2.347599983215332
3.817558526992798 10.066035270690918 -2.347599983215332
2.1534178256988525 10.548066139221191 -2.347599983215332
1.297646403312683 10.687138557434082 -2.347599983215332
0.41737303137779236 10.356943130493164 -2.2603137493133545
-0.4031152129173279 10.00308609008789 -2.183084011077881
-1.1838672161102295 9.749990463256836 -2.141737937927246
-1.9489550590515137 9.546610832214355 -2.1247153282165527
-4.377880573272705 9.226181030273438 -2.226909875869751
-7.457622051239014 7.764199256896973 -2.347599983215332
-8.606513023376465 6.467372894287109 -2.347599983215332
-9.09902286529541 5.753857135772705 -2.347599983215332
-11.131376266479492 2.7436327934265137 -2.5
10.742758750915527 1.7458593845367432 -2.5
10.567445755004883 2.604628801345825 -2.5
10.323593139648438 3.446523427963257 -2.5
10.01278305053711 4.266035079956055 -2.5
9.637041091918945 5.057909965515137 -2.5
8.96158218383789 5.666953086853027 -2.435529947280884
7.079814434051514 7.370849609375 -2.347599983215332
6.46373987197876 7.916640281677246 -2.347599983215332
5.805747032165527 8.411084175109863 -2.347599983215332
5.110116958618164 8.850966453552246 -2.347599983215332
2.0443115234375 10.013671875 -2.347599983215332
-1.1838672161102295 9.749990463256836 -2.256033182144165
-1.9489599466323853 9.546610832214355 -2.2381021976470947
-3.5225682258605957 9.288251876831055 -2.281804084777832
-5.805766582489014 8.411064147949219 -2.347599983215332
-6.463735103607178 7.916640281677246 -2.347599983215332
-7.079799652099609 7.370849609375 -2.347599983215332
-7.649950981140137 6.777245998382568 -2.347599983215332
-8.170488357543945 6.139707088470459 -2.347599983215332
-9.637041091918945 5.057900428771973 -2.5
-10.01278305053711 4.266044616699219 -2.5
-10.323588371276855 3.4465136528015137 -2.5
-10.742758750915527 1.7458593845367432 -2.5
10.222250938415527 1.6612695455551147 -2.5
9.527631759643555 4.059345722198486 -2.5
7.774604320526123 5.842226505279541 -2.347599983215332
7.27929162979126 6.448896408081055 -2.347599983215332
6.736767292022705 7.013720512390137 -2.347599983215332
5.52444314956665 8.003544807434082 -2.347599983215332
4.169047832489014 8.786084175109863 -2.347599983215332
2.7056689262390137 9.341073989868164 -2.347599983215332
1.1722265481948853 9.654120445251465 -2.347599983215332
0.39159178733825684 9.717138290405273 -2.347599983215332
-0.39158689975738525 9.717138290405273 -2.347599983215332
-1.1722216606140137 9.654120445251465 -2.347599983215332
-1.9452489614486694 9.528486251831055 -2.347599983215332
-4.169043064117432 8.786073684692383 -2.347599983215332
-5.524453163146973 8.003524780273438 -2.347599983215332
-6.150551795959473 7.533056259155273 -2.347599983215332
-7.279286861419678 6.448896408081055 -2.347599983215332
-7.774609088897705 5.842236042022705 -2.347599983215332
-8.505205154418945 5.378359317779541 -2.4291980266571045
-9.527636528015137 4.059326171875 -2.5
-9.823378562927246 3.2795214653015137 -2.5
-10.055419921875 2.4784276485443115 -2.5
-10.322763442993164 0.8333300352096558 -2.5
9.875311851501465 0.0 -2.5
9.747426986694336 1.5841113328933716 -2.5
9.085078239440918 3.870781183242798 -2.5
8.744145393371582 4.589267253875732 -2.5
8.331128120422363 5.268290996551514 -2.495393991470337
6.941166877746582 6.149345397949219 -2.347599983215332
4.636664867401123 8.03090763092041 -2.347599983215332
3.975395441055298 8.377959251403809 -2.347599983215332
0.37339842319488525 9.265790939331055 -2.347599983215332
-2.5799901485443115 8.907177925109863 -2.347599983215332
-4.636655330657959 8.030898094177246 -2.347599983215332
-6.423842430114746 6.687919616699219 -2.347599983215332
-6.941166877746582 6.149335861206055 -2.347599983215332
-7.413476467132568 5.570859432220459 -2.347599983215332
-9.36708927154541 3.1271777153015137 -2.5
-9.747411727905273 1.5841211080551147 -2.5
-9.843280792236328 0.7946093678474426 -2.5
9.43460464477539 0.0 -2.5
9.312431335449219 1.5134081840515137 -2.5
8.679633140563965 3.6980369091033936 -2.5
8.353930473327637 4.384482383728027 -2.5
7.965742111206055 5.037236213684082 -2.4974019527435303
4.429740905761719 7.672509670257568 -2.347599983215332
1.0678906440734863 8.794862747192383 -2.347599983215332
0.35673338174819946 8.852274894714355 -2.347599983215332
-0.3567284941673279 8.852274894714355 -2.347599983215332
-1.0678857564926147 8.794873237609863 -2.347599983215332
-1.7721142768859863 8.680429458618164 -2.347599983215332
-2.464853525161743 8.509687423706055 -2.347599983215332
-3.141606330871582 8.283740043640137 -2.347599983215332
-3.7979931831359863 8.004091262817383 -2.347599983215332
-4.429731369018555 7.672519207000732 -2.347599983215332
-5.032758712768555 7.291181564331055 -2.347599983215332
-5.603129863739014 6.862587928771973 -2.347599983215332
-7.08263635635376 5.322236061096191 -2.347599983215332
-7.959165096282959 5.033066272735596 -2.495339870452881
-8.353930473327637 4.384462833404541 -2.5
9.0 0.7265429496765137 -2.5
8.912358283996582 1.448388695716858 -2.5
8.7669038772583 2.160839796066284 -2.5
8.306753158569336 3.5391697883605957 -2.5
7.995028972625732 4.196103572845459 -2.5
6.778354167938232 5.093603610992432 -2.347599983215332
5.873515605926514 6.114970684051514 -2.347599983215332
5.362416744232178 6.567753791809082 -2.347599983215332
4.8165283203125 6.977958679199219 -2.347599983215332
3.634829044342041 7.660214900970459 -2.347599983215332
3.00665020942688 7.927861213684082 -2.347599983215332
-0.3414013683795929 8.471972465515137 -2.347599983215332
-1.022011637687683 8.417031288146973 -2.347599983215332
-3.006640672683716 7.927861213684082 -2.347599983215332
-4.239428520202637 7.34289026260376 -2.347599983215332
-4.816537857055664 6.977939128875732 -2.347599983215332
-6.346513748168945 5.622509479522705 -2.347599983215332
-7.995028972625732 4.196103572845459 -2.5
-8.306753158569336 3.5391600131988525 -2.5
-8.56459903717041 2.859267473220825 -2.5
-8.912343978881836 1.448388695716858 -2.5
8.655156135559082 0.0 -2.5
8.543075561523438 1.3883886337280273 -2.5
8.209731101989746 2.740800619125366 -2.5
7.962568283081055 3.392529249191284 -2.5
7.663759708404541 4.02224588394165 -2.5
7.315248966217041 4.625878810882568 -2.5
5.140224456787109 6.295624732971191 -2.347599983215332
2.882070302963257 7.599384784698486 -2.347599983215332
2.261225461959839 7.806650161743164 -2.347599983215332
1.6257177591323853 7.963261604309082 -2.347599983215332
-0.32725584506988525 8.120946884155273 -2.347599983215332
-1.625707983970642 7.963290691375732 -2.347599983215332
-2.261220693588257 7.806640625 -2.347599983215332
-4.063769340515137 7.038642406463623 -2.347599983215332
-5.140219688415527 6.295615196228027 -2.347599983215332
-6.083539962768555 5.389560222625732 -2.347599983215332
-7.313217639923096 4.624589920043945 -2.4993069171905518
-7.663769245147705 4.022236347198486 -2.5
-7.962573051452637 3.392509698867798 -2.5
-8.209726333618164 2.740790843963623 -2.5
-8.403642654418945 2.0713086128234863 -2.5
-8.543066024780273 1.3883788585662842 -2.5
8.281733512878418 0.6685644388198853 -2.5
8.067251205444336 1.9883984327316284 -2.5
7.881083965301514 2.6310839653015137 -2.5
7.643813133239746 3.256718635559082 -2.5
7.022411823272705 4.440693378448486 -2.5
6.623017311096191 4.976884841918945 -2.492737293243408
5.840014457702637 5.173798561096191 -2.347599983215332
2.7666943073272705 7.295156002044678 -2.347599983215332
2.170707941055298 7.494130611419678 -2.347599983215332
1.560644507408142 7.644492149353027 -2.347599983215332
0.9404491782188416 7.745283126831055 -2.347599983215332
-0.3141552805900574 7.795849323272705 -2.347599983215332
-0.9404394030570984 7.745292663574219 -2.347599983215332
-2.170703172683716 7.494130611419678 -2.347599983215332
-2.7666893005371094 7.295166015625 -2.347599983215332
-3.344731330871582 7.048876762390137 -2.347599983215332
-3.9010839462280273 6.756884574890137 -2.347599983215332
-4.432153224945068 6.421064376831055 -2.347599983215332
-4.9344482421875 6.043583869934082 -2.347599983215332
-6.487494945526123 4.87502908706665 -2.441728353500366
-7.022411823272705 4.440712928771973 -2.5
-7.356972694396973 3.861220598220825 -2.5
-7.881083965301514 2.6310839653015137 -2.5
-8.20108413696289 1.3328124284744263 -2.5
-8.281728744506836 0.6685644388198853 -2.5
7.986821174621582 9.765624781721272e-06 -2.5
7.071972370147705 3.711660146713257 -2.5
6.371884822845459 4.788164138793945 -2.494865894317627
5.195390701293945 5.408974647521973 -2.347599983215332
4.260454177856445 6.172324180603027 -2.347599983215332
1.5001903772354126 7.348369121551514 -2.347599983215332
0.9040185213088989 7.445243835449219 -2.347599983215332
0.30199217796325684 7.493847370147705 -2.347599983215332
-2.6595115661621094 7.01256799697876 -2.347599983215332
-3.2151708602905273 6.775810241699219 -2.347599983215332
-4.260454177856445 6.172294616699219 -2.347599983215332
-4.743300437927246 5.809482097625732 -2.347599983215332
-5.195390701293945 5.408974647521973 -2.347599983215332
-6.36779260635376 4.785068035125732 -2.4932615756988525
-6.750375747680664 4.268671989440918 -2.5
-7.071972370147705 3.7116503715515137 -2.5
-7.347709655761719 3.130546808242798 -2.5
-7.754731178283691 1.911376953125 -2.5
-7.883388519287109 1.2811717987060547 -2.5
7.463603496551514 1.839599609375 -2.5
7.071855545043945 3.0130271911621094 -2.5
6.806479454040527 3.5723142623901367 -2.5
6.496953010559082 4.108417987823486 -2.5
6.137778282165527 4.612236022949219 -2.4969427585601807
5.403022289276123 4.786669731140137 -2.347599983215332
5.000341892242432 5.205898284912109 -2.347599983215332
4.565219402313232 5.591386795043945 -2.347599983215332
2.5596728324890137 6.749277114868164 -2.347599983215332
2.0082762241363525 6.93337869644165 -2.347599983215332
0.2906543016433716 7.212509632110596 -2.347599983215332
-0.2906494140625 7.212509632110596 -2.347599983215332
-2.0082762241363525 6.933369159698486 -2.347599983215332
-3.0944628715515137 6.521435260772705 -2.347599983215332
-3.60918927192688 6.251288890838623 -2.347599983215332
-5.000341892242432 5.205888748168945 -2.347599983215332
-7.463593482971191 1.839599609375 -2.5
7.406879901885986 0.0 -2.5
7.382856369018555 0.595996081829071 -2.5
7.310961723327637 1.1881542205810547 -2.5
6.814174652099609 2.9032323360443115 -2.5
6.260219573974609 3.9587109088897705 -2.5
5.918735027313232 4.447646617889404 -2.4988861083984375
4.81814432144165 5.016201019287109 -2.347599983215332
4.398876667022705 5.387636661529541 -2.347599983215332
2.9817137718200684 6.283818244934082 -2.347599983215332
2.4664111137390137 6.503368854522705 -2.347599983215332
1.3912549018859863 6.814775466918945 -2.347599983215332
0.8383740186691284 6.904619216918945 -2.347599983215332
-0.2800585925579071 6.94970703125 -2.347599983215332
-0.8383691310882568 6.904638290405273 -2.347599983215332
-1.3912500143051147 6.814775466918945 -2.347599983215332
-1.9350926876068115 6.680742263793945 -2.347599983215332
-2.981703996658325 6.283798694610596 -2.347599983215332
-3.477670907974243 6.023496150970459 -2.347599983215332
-4.398876667022705 5.387636661529541 -2.347599983215332
-4.818139553070068 5.016211032867432 -2.347599983215332
-5.250898361206055 4.65188455581665 -2.3677752017974854
-5.914950847625732 4.444785118103027 -2.4972875118255615
-7.025688171386719 2.345517635345459 -2.5
7.144589900970459 9.765624781721272e-06 -2.5
7.121420860290527 0.574902355670929 -2.5
7.052070140838623 1.1460644006729126 -2.5
6.936986923217773 1.7097948789596558 -2.5
6.776908874511719 2.262451171875 -2.5
6.5728759765625 2.800429582595825 -2.5
6.326220512390137 3.320253849029541 -2.5
6.038535118103027 3.818544864654541 -2.5
5.711689472198486 4.292060375213623 -2.5
4.647524356842041 4.838583946228027 -2.347599983215332
4.243114948272705 5.196855545043945 -2.347599983215332
3.8111767768859863 5.521435260772705 -2.347599983215332
2.8761279582977295 6.061288833618164 -2.347599983215332
2.3790624141693115 6.273076057434082 -2.347599983215332
0.8086816072463989 6.660146236419678 -2.347599983215332
0.2701416015625 6.703593730926514 -2.347599983215332
-3.3545312881469727 5.810194969177246 -2.347599983215332
-4.243110179901123 5.196865081787109 -2.347599983215332
-5.230776309967041 4.634072303771973 -2.445296049118042
-6.5728759765625 2.8004393577575684 -2.5
-6.776899337768555 2.262451171875 -2.5
6.898412704467773 9.765624781721272e-06 -2.5
6.809091567993164 1.1065722703933716 -2.5
6.697958946228027 1.65087890625 -2.5
6.543398380279541 2.184501886367798 -2.5
6.346396446228027 2.7039549350738525 -2.5
5.830468654632568 3.686962842941284 -2.5
5.514887809753418 4.144150257110596 -2.5
4.487387657165527 4.671855449676514 -2.347599983215332
4.096913814544678 5.017792701721191 -2.347599983215332
2.7770214080810547 5.852450847625732 -2.347599983215332
0.7808203101158142 6.430654048919678 -2.347599983215332
0.2608398497104645 6.472626686096191 -2.347599983215332
-0.2608349621295929 6.472626686096191 -2.347599983215332
-0.7808203101158142 6.430654048919678 -2.347599983215332
-2.7770166397094727 5.852441310882568 -2.347599983215332
-3.2389402389526367 5.610009670257568 -2.347599983215332
-4.096904277801514 5.017792701721191 -2.347599983215332
-5.149477481842041 4.562050819396973 -2.493196964263916
-5.514882564544678 4.144160270690918 -2.5
-6.809072017669678 1.1065820455551147 -2.5
6.645229339599609 0.5364648103713989 -2.5
6.133359432220459 2.613163948059082 -2.5
5.9031982421875 3.0982322692871094 -2.5
5.634746074676514 3.5632030963897705 -2.5
3.1302196979522705 5.421689510345459 -2.347599983215332
2.2199902534484863 5.853603363037109 -2.347599983215332
1.2522460222244263 6.133915901184082 -2.347599983215332
0.2520849406719208 6.255351543426514 -2.347599983215332
-0.2520849406719208 6.255351543426514 -2.347599983215332
-1.2522411346435547 6.133915901184082 -2.347599983215332
-1.7417577505111694 6.013251781463623 -2.347599983215332
-2.219975471496582 5.853603363037109 -2.347599983215332
-3.556328058242798 5.152226448059082 -2.347599983215332
-3.9593799114227295 4.849365234375 -2.347599983215332
-5.9031982421875 3.0982322692871094 -2.5
-6.473110198974609 1.5954785346984863 -2.5
-6.580502986907959 1.069423794746399 -2.5
-6.645224571228027 0.5364550948143005 -2.5
6.427656173706055 0.5188964605331421 -2.5
6.365058422088623 1.034423828125 -2.5
6.261181354522705 1.5432324409484863 -2.5
5.709917068481445 2.9967968463897705 -2.5
5.155258655548096 3.873915910720825 -2.5
3.8297412395477295 4.690595626831055 -2.347599983215332
2.5959277153015137 5.470790863037109 -2.347599983215332
2.1472997665405273 5.661943435668945 -2.347599983215332
1.6847362518310547 5.816367149353027 -2.347599983215332
1.2112499475479126 5.933085918426514 -2.347599983215332
0.24382323026657104 6.050537109375 -2.347599983215332
-0.24382811784744263 6.050546646118164 -2.347599983215332
-0.7298974394798279 6.011298656463623 -2.347599983215332
-1.6847411394119263 5.816376686096191 -2.347599983215332
-2.147289991378784 5.661943435668945 -2.347599983215332
-3.0277342796325684 5.24416971206665 -2.347599983215332
-3.439892530441284 4.983534812927246 -2.347599983215332
-3.8297460079193115 4.690576076507568 -2.347599983215332
-4.312919616699219 4.490224361419678 -2.413729667663574
-4.821176528930664 4.271181583404541 -2.497079610824585
-5.155258655548096 3.873906135559082 -2.5
-5.709921836853027 2.9967968463897705 -2.5
-6.261176586151123 1.5432324409484863 -2.5
6.24242639541626 9.765624781721272e-06 -2.5
6.222182273864746 0.5023046731948853 -2.5
6.061025142669678 1.4939160346984863 -2.5
5.921166896820068 1.9767773151397705 -2.5
5.742895603179932 2.4468164443969727 -2.5
5.527387619018555 2.9009861946105957 -2.5
4.990454196929932 3.750077962875366 -2.5
4.672524452209473 4.139472484588623 -2.5
4.312963962554932 4.490253925323486 -2.493457794189453
2.9309473037719727 5.076552391052246 -2.347599983215332
2.0786571502685547 5.480937480926514 -2.347599983215332
1.6308789253234863 5.630449295043945 -2.347599983215332
0.23604004085063934 5.857128620147705 -2.347599983215332
-0.7065722346305847 5.819140434265137 -2.347599983215332
-1.6308740377426147 5.630449295043945 -2.347599983215332
-2.0786523818969727 5.480947017669678 -2.347599983215332
-2.512944221496582 5.295907974243164 -2.347599983215332
-2.9309422969818115 5.076533317565918 -2.347599983215332
-3.3299365043640137 4.824228286743164 -2.347599983215332
-4.298046588897705 4.474736213684082 -2.484839677810669
-4.990454196929932 3.750068187713623 -2.5
-5.276025295257568 3.336357355117798 -2.5
-5.921162128448486 1.9767675399780273 -2.5
-6.222172737121582 0.5022948980331421 -2.5
6.047377586364746 0.0 -2.5
5.969067096710205 0.9700585603713989 -2.5
5.871654987335205 1.4472265243530273 -2.5
5.563461780548096 2.370361328125 -2.5
5.354687213897705 2.8103418350219727 -2.5
5.111181735992432 3.232119083404541 -2.5
4.834531307220459 3.6329100131988525 -2.5
2.4344334602355957 5.130449295043945 -2.347599983215332
2.0137059688568115 5.309687614440918 -2.347599983215332
1.579921841621399 5.454501628875732 -2.347599983215332
1.135898470878601 5.56396484375 -2.347599983215332
0.6844921708106995 5.63732385635376 -2.347599983215332
-0.22866210341453552 5.674111366271973 -2.347599983215332
-0.6844921708106995 5.63732385635376 -2.347599983215332
-1.135888695716858 5.563974380493164 -2.347599983215332
-2.4344286918640137 5.130439281463623 -2.347599983215332
-2.839365243911743 4.917919635772705 -2.347599983215332
-3.225893497467041 4.673495769500732 -2.347599983215332
-3.6104490756988525 4.422001838684082 -2.3599960803985596
-4.179419040679932 4.351240158081055 -2.4941861629486084
-4.834536075592041 3.6329197883605957 -2.5
-5.111171722412109 3.232109308242798 -2.5
-5.563457012176514 2.370371103286743 -2.5
-6.027763366699219 0.4866015613079071 -2.5
3.8218603134155273 0.0 -1.629783034324646
3.8240771293640137 0.3086914122104645 -1.6360327005386353
5.69216775894165 1.4029979705810547 -2.5
5.56082010269165 1.8564647436141968 -2.5
4.954946041107178 3.133310556411743 -2.5
4.686743259429932 3.521855354309082 -2.5
2.3600096702575684 4.973622798919678 -2.347599983215332
1.101171851158142 5.393867015838623 -2.347599983215332
-0.6635693311691284 5.464990139007568 -2.347599983215332
-1.1011669635772705 5.393877029418945 -2.347599983215332
-1.9521484375 5.147382736206055 -2.347599983215332
-3.127275228500366 4.530634880065918 -2.347599983215332
-5.191005706787109 2.724433422088623 -2.5
-5.393398284912109 2.297910213470459 -2.5
-5.69216775894165 1.4029881954193115 -2.5
-5.843510627746582 0.47172850370407104 -2.5
3.584233283996582 -9.765624781721272e-06 -1.5756170749664307
3.560419797897339 0.5786230564117432 -1.5856846570968628
3.666132688522339 0.9036034941673279 -1.65985107421875
5.394350528717041 1.8009082078933716 -2.5
4.806616306304932 3.0395116806030273 -2.5
4.546450138092041 3.4164257049560547 -2.5
2.289365291595459 4.82473611831665 -2.347599983215332
1.8937206268310547 4.993300437927246 -2.347599983215332
0.6437109112739563 5.301396369934082 -2.347599983215332
-0.21503417193889618 5.335996150970459 -2.347599983215332
-1.068203091621399 5.232411861419678 -2.347599983215332
-1.4857763051986694 5.129492282867432 -2.347599983215332
-1.8937108516693115 4.993300437927246 -2.347599983215332
-2.289355516433716 4.82473611831665 -2.347599983215332
-3.0336620807647705 4.395009517669678 -2.347599983215332
-3.585829973220825 4.391845703125 -2.4924256801605225
-3.936284065246582 4.098095417022705 -2.497938871383667
-4.546450138092041 3.4164257049560547 -2.5
-4.806611061096191 3.0395116806030273 -2.5
-5.231943130493164 2.229130744934082 -2.5
3.414736270904541 0.0 -1.5464831590652466
3.402641534805298 0.27467772364616394 -1.5460158586502075
4.887856483459473 2.5653417110443115 -2.5
4.413051605224609 3.3161816596984863 -2.5
4.131899356842041 3.6605467796325684 -2.5
3.8239500522613525 3.981142520904541 -2.5
3.4843993186950684 4.26760721206665 -2.4951303005218506
2.5918309688568115 4.489169597625732 -2.347599983215332
2.2221922874450684 4.683154106140137 -2.347599983215332
0.20873045921325684 5.179443359375 -2.347599983215332
-0.20872069895267487 5.179433345794678 -2.347599983215332
-1.0368603467941284 5.078896522521973 -2.347599983215332
-3.001601457595825 4.348544597625732 -2.3929994106292725
-3.4832518100738525 4.266201019287109 -2.494309425354004
-4.131899356842041 3.660537004470825 -2.5
-4.887861251831055 2.5653417110443115 -2.5
-5.078427791595459 2.163701057434082 -2.5
-5.236064434051514 1.748046875 -2.5
-5.502255916595459 0.4441894292831421 -2.5
3.2201855182647705 0.5233300924301147 -1.5212957859039307
4.747172832489014 2.4914941787719727 -2.5
4.531289100646973 2.865419864654541 -2.5
4.286030292510986 3.2207422256469727 -2.5
4.012973308563232 3.555166006088257 -2.5
3.7138867378234863 3.8665428161621094 -2.5
3.027211904525757 4.385683536529541 -2.484947681427002
2.520380735397339 4.365409851074219 -2.3505444526672363
2.1582324504852295 4.54836893081665 -2.347599983215332
1.4006688594818115 4.835673809051514 -2.347599983215332
0.20271971821784973 5.030371189117432 -2.347599983215332
-0.20271971821784973 5.030351638793945 -2.347599983215332
-0.6068310141563416 4.997724533081055 -2.347599983215332
-1.0070165395736694 4.932695388793945 -2.347599983215332
-1.4006688594818115 4.835663795471191 -2.347599983215332
-2.1582324504852295 4.548359394073486 -2.347599983215332
-2.5172362327575684 4.359951019287109 -2.347599983215332
-3.713881731033325 3.8665525913238525 -2.5
-4.747168064117432 2.491503953933716 -2.5
-4.932255744934082 2.1014256477355957 -2.5
-5.08535623550415 1.6977343559265137 -2.5
-5.291840553283691 0.8600195050239563 -2.5
