ply
format ascii 1.0
element vertex 756
property float x
property float y
property float z
end_header
-6.244228363037109 -16.464618682861328 4.718283653259277
-6.241757869720459 -16.458114624023438 4.507965087890625
15.922426223754883 -14.105996131896973 5.447935581207275
-6.239306449890137 -16.451650619506836 4.2989935874938965
15.915194511413574 -14.099579811096191 4.698328018188477
-6.232040882110596 -16.432470321655273 3.6796441078186035
15.91280460357666 -14.0974702835083 4.451124668121338
-6.22964334487915 -16.42616081237793 3.4754748344421387
-6.227255821228027 -16.419872283935547 3.2723662853240967
15.908061027526855 -14.09326171875 3.9603166580200195
15.905702590942383 -14.091181755065918 3.7165660858154297
15.903356552124023 -14.08910083770752 3.473832845687866
-6.220170974731445 -16.40119171142578 2.668748617172241
-6.217826843261719 -16.39501953125 2.4692678451538086
-6.213173866271973 -16.38274383544922 2.072551727294922
15.89406681060791 -14.0808687210083 2.511749267578125
-6.208544731140137 -16.37053680419922 1.678525686264038
15.8894624710083 -14.076786994934082 2.035127878189087
-23.95512580871582 -10.206327438354492 2.2054224014282227
15.88716983795166 -14.074755668640137 1.7977111339569092
-16.0015869140625 -23.18233299255371 2.071713447570801
5.430776119232178 -26.6016788482666 1.9968209266662598
-15.996821403503418 -23.17544937133789 1.7575939893722534
-23.912948608398438 -10.188339233398438 1.3333470821380615
15.678805351257324 -22.714628219604492 1.4158037900924683
-6.197089672088623 -16.34033203125 0.7023806571960449
-23.885009765625 -10.176445007324219 0.755430281162262
-6.194814205169678 -16.334325790405273 0.5083276033401489
-6.192538738250732 -16.32832908630371 0.3144952356815338
-23.857162475585938 -10.164579391479492 0.1796041876077652
5.430776119232178 -26.601659774780273 -0.11282394081354141
-23.829383850097656 -10.15274429321289 -0.3946998417377472
5.430776119232178 -26.601659774780273 -0.4138513207435608
-6.183456897735596 -16.304384231567383 -0.45904722809791565
5.430776119232178 -26.601659774780273 -0.7145487666130066
-23.80164909362793 -10.140917778015137 -0.968138575553894
-6.181196212768555 -16.298398971557617 -0.6522212028503418
5.430776119232178 -26.601659774780273 -1.0158941745758057
-23.787797927856445 -10.135019302368164 -1.2545497417449951
-6.178925514221191 -16.292430877685547 -0.8454267978668213
-21.504335403442383 0.0 -1.2823750972747803
-23.774921417236328 -10.12954044342041 -1.541097640991211
5.430776119232178 -26.601659774780273 -1.6190667152404785
24.8437442779541 -10.584912300109863 -1.610378384590149
17.790138244628906 -5.939208984375 -1.1184436082839966
-25.568817138671875 -13.41952133178711 -2.043351411819458
-14.643085479736328 -17.93450164794922 -1.6383618116378784
12.904023170471191 -18.694686889648438 -1.607412338256836
17.663043975830078 -5.896777153015137 -1.3176847696304321
-28.29019546508789 -4.597587585449219 -2.347599983215332
-24.268436431884766 -15.346435546875 -2.351879835128784
-23.008310317993164 -17.289648056030273 -2.3573546409606934
-21.581777572631836 -19.119813919067383 -2.3616597652435303
-14.840307235717773 -18.17607307434082 -1.9219727516174316
-15.906596183776855 -23.04474639892578 -2.2935452461242676
-8.04879379272461 -27.78768539428711 -2.3695974349975586
-5.791352272033691 -28.367919921875 -2.3714935779571533
-3.49236798286438 -28.762332916259766 -2.3731768131256104
1.1678320169448853 -28.978925704956055 -2.3755383491516113
8.0650634765625 -27.843778610229492 -2.3743810653686523
18.257017135620117 -22.360742568969727 -2.3644680976867676
15.204111099243164 -15.8291015625 -1.7977426052093506
22.967838287353516 -17.259180068969727 -2.353207588195801
16.636478424072266 -7.088124752044678 -1.4811903238296509
17.55073356628418 -5.859286785125732 -1.5155456066131592
-20.430038452148438 -1.6492773294448853 -1.907704472541809
-25.679555892944336 -6.329433441162109 -2.4616470336914062
-23.92471694946289 -7.987246036529541 -2.347599983215332
-21.318021774291992 -13.480712890625 -2.347599983215332
-20.16413116455078 -15.1524019241333 -2.347599983215332
-18.879497528076172 -16.725770950317383 -2.347599983215332
-17.49124526977539 -18.210302352905273 -2.3501293659210205
-14.368837356567383 -20.816884994506836 -2.3542675971984863
-3.8498289585113525 -6.668095588684082 -0.7166415452957153
-3.2303318977355957 -6.807773113250732 -0.7013450264930725
-2.649286985397339 -6.985576152801514 -0.6953666806221008
-7.05394983291626 -24.353153228759766 -2.3598320484161377
-5.072978496551514 -24.849149703979492 -2.36053204536438
-1.0220556259155273 -25.36250877380371 -2.3625237941741943
1.0223339796066284 -25.368436813354492 -2.3630762100219727
1.8602977991104126 -15.320907592773438 -1.436461091041565
3.10430645942688 -15.205878257751465 -1.444474458694458
7.564750671386719 -19.94660186767578 -1.9855544567108154
10.864721298217773 -22.89686393737793 -2.3588671684265137
12.66043472290039 -21.928485870361328 -2.356729030609131
13.154841423034668 -19.05806541442871 -2.1553561687469482
15.979415893554688 -19.57120132446289 -2.351630449295044
14.760102272033691 -15.366826057434082 -1.983168601989746
15.245180130004883 -13.505986213684082 -1.8956807851791382
20.164159774780273 -15.152362823486328 -2.347599983215332
17.525585174560547 -5.850888729095459 -1.7196896076202393
26.512331008911133 -4.308681488037109 -2.5
-23.977596282958984 1.9531249563442543e-05 -2.5
-23.899843215942383 -1.9293944835662842 -2.5
-23.667089462280273 -3.8462791442871094 -2.5
-22.74363136291504 -7.592929363250732 -2.5
-16.853374481201172 -14.93080997467041 -2.347599983215332
-15.597318649291992 -16.238534927368164 -2.347599983215332
-2.6461620330810547 -6.977373123168945 -0.7780486941337585
-2.7198779582977295 -22.40032196044922 -2.3527047634124756
-0.908740222454071 -22.550907135009766 -2.353156566619873
3.1002197265625 -15.185869216918945 -1.615997552871704
9.657001495361328 -20.351669311523438 -2.3487157821655273
14.24010181427002 -17.440927505493164 -2.347599983215332
18.000181198120117 -13.526240348815918 -2.347599983215332
19.03024673461914 -12.033974647521973 -2.347599983215332
19.936840057373047 -10.463651657104492 -2.347599983215332
23.89983367919922 -1.9293651580810547 -2.5
-21.64889144897461 9.765624781721272e-06 -2.5
-21.57870101928711 -1.7420116662979126 -2.5
-20.534765243530273 -6.85549783706665 -2.5
-19.123559951782227 -10.036826133728027 -2.494056463241577
-16.251996994018555 -12.212597846984863 -2.347599983215332
-14.082504272460938 -14.6614351272583 -2.347599983215332
-12.85707950592041 -15.747079849243164 -2.347599983215332
-2.4504051208496094 -20.180946350097656 -2.347599983215332
-0.8185546398162842 -20.312685012817383 -2.347599983215332
1.853676676750183 -15.266406059265137 -1.7759029865264893
5.655947208404541 -19.52652359008789 -2.347599983215332
7.208842754364014 -19.008094787597656 -2.347599983215332
8.714980125427246 -18.36638641357422 -2.347599983215332
11.548300743103027 -16.730566024780273 -2.347599983215332
14.082526206970215 -14.661455154418945 -2.347599983215332
15.151927947998047 -13.423378944396973 -2.337618589401245
16.252017974853516 -12.212587356567383 -2.347599983215332
16.017309188842773 -6.824326038360596 -2.010554313659668
9.833402633666992 -1.5980761051177979 -1.1504528522491455
-19.664003372192383 -1.587441325187683 -2.5
-19.15471649169922 -4.721210956573486 -2.5
-17.46826171875 -9.16805648803711 -2.5
-16.673891067504883 -10.543935775756836 -2.5
-10.52358341217041 -15.246073722839355 -2.347599983215332
-3.8325583934783936 -6.63818359375 -0.9713500738143921
-3.219614267349243 -6.785195350646973 -0.9517321586608887
-2.232963800430298 -18.390283584594727 -2.347599983215332
-0.7459276914596558 -18.510351181030273 -2.347599983215332
0.7459570169448853 -18.51034164428711 -2.347599983215332
1.853676676750183 -15.266406059265137 -1.948822259902954
5.154091835021973 -17.793926239013672 -2.347599983215332
6.569199085235596 -17.321502685546875 -2.347599983215332
9.2626953125 -16.04341697692871 -2.347599983215332
10.523622512817383 -15.246064186096191 -2.347599983215332
11.716293334960938 -14.349814414978027 -2.347599983215332
12.832968711853027 -13.360536575317383 -2.347599983215332
14.164447784423828 -12.548593521118164 -2.398052215576172
16.673906326293945 -10.543925285339355 -2.5
17.4682559967041 -9.168046951293945 -2.5
16.050146102905273 -6.838310241699219 -2.210843086242676
18.71271514892578 -6.247197151184082 -2.5
9.736928939819336 -1.5823925733566284 -1.2500865459442139
19.66401481628418 -1.5874121189117432 -2.5
-18.057313919067383 -1.4577343463897705 -2.5
-17.881454467773438 -2.906015634536743 -2.5
-16.040956497192383 -8.418964385986328 -2.5
-14.482738494873047 -10.883085250854492 -2.5
-10.83646011352539 -13.272255897521973 -2.364508628845215
-3.8260741233825684 -6.626953125 -1.0559884309768677
-3.2160398960113525 -6.777656078338623 -1.0352641344070435
-2.636835813522339 -6.952773094177246 -1.0261602401733398
-3.402773380279541 -16.667890548706055 -2.347599983215332
-2.050527334213257 -16.88765525817871 -2.347599983215332
0.6850000023841858 -16.99789047241211 -2.347599983215332
1.853676676750183 -15.266406059265137 -2.1222245693206787
3.094057559967041 -15.155673027038574 -2.134610176086426
4.732954025268555 -16.340038299560547 -2.347599983215332
8.505864143371582 -14.732558250427246 -2.347599983215332
10.985649108886719 -13.454940795898438 -2.397056818008423
13.560065269470215 -12.01317310333252 -2.5
14.48275375366211 -10.883066177368164 -2.5
15.311515808105469 -9.682401657104492 -2.5
16.040964126586914 -8.4189453125 -2.5
8.962798118591309 -2.9922070503234863 -1.3039644956588745
8.744741439819336 -2.1553709506988525 -1.2428826093673706
11.400361061096191 -0.9203222393989563 -1.5783588886260986
-16.7437686920166 9.765624781721272e-06 -2.5
-16.689462661743164 -1.3473047018051147 -2.5
-16.257205963134766 -4.007040977478027 -2.5
-15.40392017364502 -6.56298828125 -2.5
-14.825854301452637 -7.781220436096191 -2.5
-13.385668754577637 -10.058700561523438 -2.5
-12.532876014709473 -11.10317325592041 -2.5
-11.5988130569458 -12.075624465942383 -2.5
-5.618661880493164 -6.881611347198486 -1.3264678716659546
-4.81387186050415 -6.974101543426514 -1.265272617340088
-3.819584846496582 -6.61572265625 -1.1406002044677734
3.091479539871216 -15.143085479736328 -2.30764102935791
5.575492858886719 -14.701298713684082 -2.347599983215332
11.598808288574219 -12.075634956359863 -2.5
12.532880783081055 -11.103154182434082 -2.5
13.385685920715332 -10.058671951293945 -2.5
14.151664733886719 -8.948954582214355 -2.5
15.403915405273438 -6.562978267669678 -2.5
-15.359564781188965 -2.496161937713623 -2.5
-14.315878868103027 -6.099423885345459 -2.5
-13.77865219116211 -7.231601238250732 -2.5
-13.152079582214355 -8.316864967346191 -2.5
-11.647626876831055 -10.3189058303833 -2.5
-10.779545783996582 -11.222695350646973 -2.5
-5.203788757324219 -6.373496055603027 -1.3218951225280762
-3.208876848220825 -6.762558460235596 -1.202560544013977
-2.980659008026123 -14.60024356842041 -2.394014835357666
0.5939111113548279 -14.737343788146973 -2.369584321975708
4.218447208404541 -14.56371021270752 -2.435941696166992
5.472846508026123 -14.430692672729492 -2.479523181915283
6.6612548828125 -14.038251876831055 -2.4963715076446533
8.839712142944336 -12.806513786315918 -2.5
9.841547966003418 -12.053671836853027 -2.5
10.779545783996582 -11.222684860229492 -2.5
13.152077674865723 -8.316855430603027 -2.5
13.778666496276855 -7.231601238250732 -2.5
14.315896034240723 -6.099413871765137 -2.5
10.90359878540039 -0.8802245855331421 -1.7574410438537598
-14.5310640335083 0.0 -2.5
-13.368261337280273 -5.69567346572876 -2.5
-12.86661148071289 -6.7529296875 -2.5
-11.616738319396973 -8.729423522949219 -2.5
-10.876660346984863 -9.635869026184082 -2.5
-5.135561466217041 -6.289921760559082 -1.397035837173462
-2.9047605991363525 -14.22850513458252 -2.4984421730041504
-1.7492040395736694 -14.405976295471191 -2.4966866970062256
0.5842089653015137 -14.496464729309082 -2.4960761070251465
2.905829906463623 -14.233642578125 -2.4993441104888916
4.042802810668945 -13.957324028015137 -2.5
6.22936487197876 -13.12807559967041 -2.5
8.254584312438965 -11.958818435668945 -2.5
10.8766450881958 -9.635869026184082 -2.5
11.616752624511719 -8.72940444946289 -2.5
12.281503677368164 -7.766347408294678 -2.5
12.86661148071289 -6.752910137176514 -2.5
8.53548812866211 -2.849550724029541 -1.5481643676757812
-13.581493377685547 -1.0963964462280273 -2.5
-13.449228286743164 -2.1857128143310547 -2.5
-13.229731559753418 -3.2608299255371094 -2.5
-12.535341262817383 -5.340800762176514 -2.5
-10.8929443359375 -8.185526847839355 -2.5
-10.198954582214355 -9.035497665405273 -2.5
-9.438838005065918 -9.826865196228027 -2.5
-5.116396427154541 -6.266435623168945 -1.484302043914795
-3.799999952316284 -6.581777095794678 -1.394423484802246
-3.2008886337280273 -6.74572229385376 -1.3699544668197632
-3.790888547897339 -13.0877046585083 -2.5
-2.7254834175109863 -13.350302696228027 -2.5
-1.6423876285552979 -13.526308059692383 -2.5
-0.5486279129981995 -13.614619255065918 -2.5
1.6423925161361694 -13.526317596435547 -2.5
2.7255029678344727 -13.350292205810547 -2.5
3.790908098220825 -13.087685585021973 -2.5
4.831728458404541 -12.740214347839355 -2.5
5.841230392456055 -12.310107231140137 -2.5
6.812841415405273 -11.800155639648438 -2.5
8.617499351501465 -10.5545015335083 -2.5
9.438838005065918 -9.826865196228027 -2.5
12.064936637878418 -6.332158088684082 -2.5
9.253192901611328 -1.5037890672683716 -1.7200241088867188
10.903910636901855 -0.8802539110183716 -2.007127285003662
-12.7818603515625 -1.031835913658142 -2.5
-12.450824737548828 -3.06884765625 -2.5
-12.1635103225708 -4.060771465301514 -2.5
-10.25161075592041 -7.703583717346191 -2.5
-8.883119583129883 -9.248310089111328 -2.5
-5.040400505065918 -6.173349380493164 -1.553734302520752
-3.1973533630371094 -6.738271236419678 -1.4540504217147827
-2.6207714080810547 -6.910409927368164 -1.4408538341522217
-3.567690372467041 -12.317138671875 -2.5
-2.565004825592041 -12.564276695251465 -2.5
-1.5456981658935547 -12.729941368103027 -2.5
-0.5163427591323853 -12.8130464553833 -2.5
0.516357421875 -12.813036918640137 -2.5
2.5650243759155273 -12.564287185668945 -2.5
3.5677196979522705 -12.317148208618164 -2.5
4.547260761260986 -11.990117073059082 -2.5
7.284560203552246 -10.553476333618164 -2.5
8.110136985778809 -9.933095932006836 -2.5
8.8831148147583 -9.248300552368164 -2.5
9.598485946655273 -8.50350570678711 -2.5
10.251615524291992 -7.703583717346191 -2.5
10.8382568359375 -6.853671550750732 -2.5
11.797308921813965 -5.026347637176514 -2.5
8.284253120422363 -2.041874885559082 -1.6633944511413574
9.227313995361328 -1.4995898008346558 -1.8225153684616089
10.895273208618164 -0.8795507550239563 -2.131002426147461
-12.068251609802246 -0.9742480516433716 -2.5
-11.755693435668945 -2.897509813308716 -2.5
-11.48440933227539 -3.834052562713623 -2.5
-11.13866138458252 -4.745741844177246 -2.5
-10.720673561096191 -5.626650333404541 -2.5
-10.233144760131836 -6.47106409072876 -2.5
-5.722436428070068 -5.957675457000732 -1.705711007118225
-3.792309522628784 -6.568466663360596 -1.566097378730774
-3.197343587875366 -6.738261699676514 -1.5400304794311523
-2.6199023723602295 -6.908144474029541 -1.5255529880523682
-0.48750486969947815 -12.097684860229492 -2.5
3.3685302734375 -11.629472732543945 -2.5
6.053764343261719 -10.485400199890137 -2.5
6.877856254577637 -9.964277267456055 -2.5
7.6573486328125 -9.378524780273438 -2.5
8.387163162231445 -8.731963157653809 -2.5
9.062602043151855 -8.028759956359863 -2.5
11.13866138458252 -4.745732307434082 -2.5
8.471166610717773 -2.8280858993530273 -1.8440574407577515
8.267763137817383 -2.0378026962280273 -1.7582470178604126
10.887216567993164 -0.8788964748382568 -2.255342960357666
-11.464521408081055 9.765624781721272e-06 -2.5
-10.874521255493164 -3.630439281463623 -2.5
-8.581308364868164 -7.602382659912109 -2.5
-5.023212909698486 -6.152324199676514 -1.7319821119308472
-3.124345541000366 -6.584403991699219 -1.5892658233642578
-2.2931981086730957 -11.23281192779541 -2.5
-1.3818944692611694 -11.380927085876465 -2.5
-0.4616113305091858 -11.455204963684082 -2.5
0.4616454839706421 -11.455214500427246 -2.5
1.3819091320037842 -11.3809175491333 -2.5
2.293203115463257 -11.23281192779541 -2.5
3.189638614654541 -11.011855125427246 -2.5
7.250683307647705 -8.88045883178711 -2.5
7.941747665405273 -8.268232345581055 -2.5
8.581317901611328 -7.602372646331787 -2.5
9.165224075317383 -6.887197017669678 -2.5
9.689702033996582 -6.127372741699219 -2.5
10.151323318481445 -5.327812194824219 -2.5
8.248330116271973 -2.033017635345459 -1.8524956703186035
9.218291282653809 -1.4981054067611694 -2.036550760269165
-10.883706092834473 0.0 -2.5
-10.74276351928711 -1.745849609375 -2.5
-10.567436218261719 -2.6046385765075684 -2.5
-10.323588371276855 -3.446523427963257 -2.5
-9.637030601501465 -5.057909965515137 -2.5
-9.198798179626465 -5.816972732543945 -2.5
-5.660146236419678 -5.892822265625 -1.8768503665924072
-4.402949333190918 -6.37877893447876 -1.7803677320480347
-3.028022289276123 -10.453984260559082 -2.5
-1.3118749856948853 -10.804335594177246 -2.5
1.3118896484375 -10.80434513092041 -2.5
3.8594188690185547 -10.17642593383789 -2.5
4.665766716003418 -9.832870483398438 -2.5
6.182651042938232 -8.957098960876465 -2.5
6.883354187011719 -8.43056583404541 -2.5
7.539403915405273 -7.849345684051514 -2.5
8.146567344665527 -7.217216491699219 -2.5
9.198798179626465 -5.816953182220459 -2.5
9.637041091918945 -5.057900428771973 -2.5
10.01278305053711 -4.266035079956055 -2.5
8.460429191589355 -2.8245019912719727 -2.048811197280884
-10.322772979736328 -0.8333300352096558 -2.5
-10.055419921875 -2.4784374237060547 -2.5
-9.527631759643555 -4.059345722198486 -2.5
-8.279315948486328 -6.221503734588623 -2.5
-7.7518310546875 -6.867538928985596 -2.5
-4.914194107055664 -6.018788814544678 -1.875693678855896
-3.790712833404541 -6.565693378448486 -1.8301339149475098
-3.108461856842041 -6.550947189331055 -1.7503814697265625
-2.881298780441284 -9.947461128234863 -2.5
-1.2483203411102295 -10.280839920043945 -2.5
0.4170214831829071 -10.3479585647583 -2.5
1.248329997062683 -10.280839920043945 -2.5
4.439702033996582 -9.356435775756836 -2.5
6.54983377456665 -8.022079467773438 -2.5
7.17410135269165 -7.469013690948486 -2.5
7.751845359802246 -6.867538928985596 -2.5
9.527631759643555 -4.059335708618164 -2.5
8.460375785827637 -2.8244824409484863 -2.1531221866607666
8.247549057006836 -2.0328221321105957 -2.050523519515991
9.223241806030273 -1.4989160299301147 -2.2556793689727783
10.322772979736328 -0.8333203196525574 -2.5
-9.588349342346191 -2.3633203506469727 -2.5
-9.0850830078125 -3.870790958404541 -2.5
-8.744145393371582 -4.589286804199219 -2.5
-7.391767501831055 -6.548534870147705 -2.5
-4.915297508239746 -6.020146369934082 -1.967508316040039
-4.397758483886719 -6.371249675750732 -1.9598509073257446
-3.7896337509155273 -6.563827991485596 -1.9187421798706055
-3.109423875808716 -6.552978515625 -1.8362178802490234
-2.5603904724121094 -6.751201152801514 -1.8278979063034058
-1.975307583808899 -9.675712585449219 -2.5
-1.1903271675109863 -9.8032808303833 -2.5
0.3976464867591858 -9.86727523803711 -2.5
1.1903417110443115 -9.803290367126465 -2.5
1.975317358970642 -9.675712585449219 -2.5
2.747490167617798 -9.485380172729492 -2.5
3.501835823059082 -9.23355484008789 -2.5
4.233476638793945 -8.921835899353027 -2.5
4.937655925750732 -8.552255630493164 -2.5
6.245595455169678 -7.64944314956665 -2.5
6.840864181518555 -7.122079849243164 -2.5
7.391762733459473 -6.548525333404541 -2.5
7.894741058349609 -5.932509422302246 -2.5
8.346513748168945 -5.278007507324219 -2.5
8.744140625 -4.589277267456055 -2.5
9.0850830078125 -3.8707714080810547 -2.5
9.206767082214355 -3.073662042617798 -2.457213878631592
8.271254539489746 -2.0386717319488525 -2.1565916538238525
9.747421264648438 -1.5841015577316284 -2.5
-9.434609413146973 9.765624781721272e-06 -2.5
-9.312421798706055 -1.5134081840515137 -2.5
-9.160449028015137 -2.257861375808716 -2.5
-8.949067115783691 -2.9876365661621094 -2.5
-8.353920936584473 -4.384472370147705 -2.5
-7.061899185180664 -6.256298542022705 -2.5
-4.915863990783691 -6.020830154418945 -2.0596468448638916
-3.7027440071105957 -6.413330078125 -1.9623191356658936
-1.8871630430221558 -9.243935585021973 -2.5
-0.3798779249191284 -9.426933288574219 -2.5
0.3799121081829071 -9.426933288574219 -2.5
1.8871679306030273 -9.243926048278809 -2.5
2.624887704849243 -9.06209945678711 -2.5
4.717309474945068 -8.170595169067383 -2.5
5.359467506408691 -7.764511585235596 -2.5
5.966875076293945 -7.308075904846191 -2.5
6.535581111907959 -6.804247856140137 -2.5
7.061899185180664 -6.256298542022705 -2.5
7.974042892456055 -5.042470455169678 -2.5
8.94906234741211 -2.987626791000366 -2.5
9.160449028015137 -2.2578320503234863 -2.5
9.312426567077637 -1.5134081840515137 -2.5
-9.029281616210938 9.765624781721272e-06 -2.5
-9.000004768371582 -0.7265527248382568 -2.5
-8.912353515625 -1.448388695716858 -2.5
-8.56459903717041 -2.8592772483825684 -2.5
-7.995028972625732 -4.196113109588623 -2.5
-6.758515357971191 -5.987519264221191 -2.5
-6.254794597625732 -6.511933326721191 -2.5
-4.915727615356445 -6.020673751831055 -2.1520466804504395
-5.129213809967041 -7.430947303771973 -2.5
-3.7027440071105957 -6.413330078125 -2.050408124923706
-2.5603904724121094 -6.751201152801514 -1.9991685152053833
-2.512099504470825 -8.672773361206055 -2.5
-0.3635595738887787 -9.021943092346191 -2.5
0.3635839819908142 -9.021943092346191 -2.5
1.8060888051986694 -8.846786499023438 -2.5
2.5121092796325684 -8.672773361206055 -2.5
3.870795726776123 -8.157489776611328 -2.5
4.514643669128418 -7.819570064544678 -2.5
6.254804611206055 -6.511923789978027 -2.5
6.758510589599609 -5.987509727478027 -2.5
7.218393325805664 -5.424257755279541 -2.5
7.631454944610596 -4.825829982757568 -2.5
7.995028972625732 -4.196103572845459 -2.5
8.306747436523438 -3.5391600131988525 -2.5
-8.543081283569336 -1.3883886337280273 -2.5
-8.403656959533691 -2.071298837661743 -2.5
-8.209721565246582 -2.7408103942871094 -2.5
-7.315253734588623 -4.625878810882568 -2.5
-6.478481292724609 -5.739423751831055 -2.5
-5.995639324188232 -6.242109298706055 -2.5
-4.916679382324219 -7.123046875 -2.5
-4.327578067779541 -7.495575904846191 -2.5
-2.555185556411743 -6.737490177154541 -2.0813446044921875
-1.043251872062683 -8.592031478881836 -2.5
0.3485107421875 -8.648134231567383 -2.5
1.7312597036361694 -8.480224609375 -2.5
3.7104148864746094 -7.819491863250732 -2.5
4.327582836151123 -7.495556354522705 -2.5
4.916698932647705 -7.123036861419678 -2.5
5.473920822143555 -6.704306602478027 -2.5
5.995639324188232 -6.242109298706055 -2.5
6.478486061096191 -5.739433288574219 -2.5
6.9193115234375 -5.199501991271973 -2.5
7.962563514709473 -3.392529249191284 -2.5
8.209731101989746 -2.740800619125366 -2.5
8.40365219116211 -2.071298837661743 -2.5
8.627089500427246 -0.6964355111122131 -2.5
-7.881083965301514 -2.6310839653015137 -2.5
-7.643818378448486 -3.256718635559082 -2.5
-7.356967449188232 -3.861220598220825 -2.5
-7.022411823272705 -4.44070291519165 -2.5
-6.642319202423096 -4.991376876831055 -2.5
-5.755624771118164 -5.992236137390137 -2.5
-4.719872951507568 -6.837910175323486 -2.5
-4.154335975646973 -7.195527076721191 -2.5
-3.110917806625366 -6.556122779846191 -2.1834895610809326
-2.9462890625 -7.768749713897705 -2.5
-2.3116161823272705 -7.980634689331055 -2.5
-0.33455076813697815 -8.301933288574219 -2.5
2.311635732650757 -7.980615139007568 -2.5
2.9463133811950684 -7.768740177154541 -2.5
4.719872951507568 -6.837890625 -2.5
5.254794597625732 -6.435927391052246 -2.5
6.219140529632568 -5.509667873382568 -2.5
6.642309188842773 -4.991366863250732 -2.5
7.356972694396973 -3.8612303733825684 -2.5
7.643818378448486 -3.256708860397339 -2.5
-7.98681640625 9.765624781721272e-06 -2.5
-7.883393287658691 -1.2811717987060547 -2.5
-7.754735946655273 -1.9113671779632568 -2.5
-7.575786113739014 -2.529179573059082 -2.5
-7.347704887390137 -3.130556583404541 -2.5
-7.071972370147705 -3.7116503715515137 -2.5
-6.38500452041626 -4.798017501831055 -2.5
-5.978212833404541 -5.296230316162109 -2.5
-5.051230430603027 -6.186621189117432 -2.5
-4.53701639175415 -6.573017597198486 -2.5
-3.993408203125 -6.91677713394165 -2.5
-1.5975682735443115 -7.825400352478027 -2.5
-0.962695300579071 -7.928564071655273 -2.5
-0.32158201932907104 -7.980331897735596 -2.5
1.5975682735443115 -7.825400352478027 -2.5
2.832167863845825 -7.467782974243164 -2.5
3.993422746658325 -6.91677713394165 -2.5
4.537035942077637 -6.573007583618164 -2.5
5.051230430603027 -6.186611175537109 -2.5
5.532665729522705 -5.760107517242432 -2.5
6.38500452041626 -4.798007488250732 -2.5
6.750380516052246 -4.268671989440918 -2.5
7.575780868530273 -2.5291600227355957 -2.5
7.754726409912109 -1.9113574028015137 -2.5
7.883388519287109 -1.2811717987060547 -2.5
7.960917949676514 -0.6426562070846558 -2.5
-7.686962604522705 9.765624781721272e-06 -2.5
-7.587421894073486 -1.2330663204193115 -2.5
-7.291367053985596 -2.434208869934082 -2.5
-6.49694299697876 -4.108407974243164 -2.5
-6.145283222198486 -4.617880821228027 -2.5
-5.753774166107178 -5.097402095794678 -2.5
-2.725830078125 -7.187421798706055 -2.5
-2.1386375427246094 -7.383466720581055 -2.5
-1.5375878810882568 -7.531601428985596 -2.5
-0.3095117211341858 -7.680722713470459 -2.5
0.9265673756599426 -7.630908012390137 -2.5
2.7258496284484863 -7.187431335449219 -2.5
3.295356273651123 -6.944775104522705 -2.5
4.36669921875 -6.326240062713623 -2.5
4.861591815948486 -5.954345703125 -2.5
5.753774166107178 -5.097392559051514 -2.5
6.496953010559082 -4.108407974243164 -2.5
6.806469440460205 -3.5723047256469727 -2.5
7.071860313415527 -3.013017416000366 -2.5
7.662040710449219 -0.6185351610183716 -2.5
-7.406874656677246 0.0 -2.5
-7.382861137390137 -0.5960058569908142 -2.5
-7.025693416595459 -2.345507860183716 -2.5
-6.814174652099609 -2.9032421112060547 -2.5
-6.558461666107178 -3.4421582221984863 -2.5
-4.6844482421875 -5.737392425537109 -2.5
-4.207582950592041 -6.09573221206665 -2.5
-3.703442335128784 -6.414531230926514 -2.5
-3.108271360397339 -6.550556659698486 -2.447252035140991
-2.6265087127685547 -6.925546646118164 -2.5
-2.060717821121216 -7.114423751831055 -2.5
-1.4815624952316284 -7.257177352905273 -2.5
-0.8927929401397705 -7.352860927581787 -2.5
-0.2982275187969208 -7.400859355926514 -2.5
0.2982519567012787 -7.400868892669678 -2.5
2.060727596282959 -7.114433288574219 -2.5
2.626523494720459 -6.925537109375 -2.5
3.175283193588257 -6.691738128662109 -2.5
4.207582950592041 -6.095722675323486 -2.5
4.6844482421875 -5.737382888793945 -2.5
5.130927562713623 -5.341845512390137 -2.5
5.921371936798096 -4.449618816375732 -2.5
6.558461666107178 -3.442138671875 -2.5
6.814174652099609 -2.9032323360443115 -2.5
7.025683403015137 -2.345517635345459 -2.5
7.19164514541626 -1.7725683450698853 -2.5
7.310961723327637 -1.1881444454193115 -2.5
7.382856369018555 -0.595996081829071 -2.5
-7.144594669342041 1.9531249563442543e-05 -2.5
-7.052060604095459 -1.1460546255111694 -2.5
-6.936982154846191 -1.709804654121399 -2.5
-6.776914119720459 -2.262460947036743 -2.5
-6.5728759765625 -2.800429582595825 -2.5
-6.038530349731445 -3.818535089492798 -2.5
-5.711689472198486 -4.292060375213623 -2.5
-4.949238300323486 -5.152685642242432 -2.5
-4.518569469451904 -5.534228324890137 -2.5
-4.058588981628418 -5.8798828125 -2.5
-3.0628368854522705 -6.454775333404541 -2.5
-2.533505916595459 -6.680302619934082 -2.5
-1.9877440929412842 -6.862499713897705 -2.5
-1.4290869235992432 -7.000185489654541 -2.5
0.8611913919448853 -7.092490196228027 -2.5
1.4290966987609863 -7.000195026397705 -2.5
1.9877440929412842 -6.862499713897705 -2.5
2.533515453338623 -6.68029260635376 -2.5
4.05859375 -5.879872798919678 -2.5
5.347802639007568 -4.737734317779541 -2.5
6.038544654846191 -3.8185253143310547 -2.5
6.326215744018555 -3.320244073867798 -2.5
6.936982154846191 -1.709804654121399 -2.5
-6.876049518585205 -0.5550780892372131 -2.5
-6.80908203125 -1.1065722703933716 -2.5
-6.543403148651123 -2.184501886367798 -2.5
-6.346405982971191 -2.7039451599121094 -2.5
-6.108232498168945 -3.2058496475219727 -2.5
-5.830463886260986 -3.686904191970825 -2.5
-5.163535118103027 -4.574482440948486 -2.5
-4.362875938415527 -5.34353494644165 -2.5
-3.449213743209839 -5.974199295043945 -2.5
-1.3798534870147705 -6.758994102478027 -2.5
-0.8314940929412842 -6.848105430603027 -2.5
-0.27775877714157104 -6.892812252044678 -2.5
0.8315185308456421 -6.848105430603027 -2.5
1.3798632621765137 -6.758984088897705 -2.5
2.446225643157959 -6.450107097625732 -2.5
4.362875938415527 -5.343525409698486 -2.5
5.163535118103027 -4.574482440948486 -2.5
5.514882564544678 -4.144160270690918 -2.5
5.83047342300415 -3.686953067779541 -2.5
6.108242034912109 -3.2058398723602295 -2.5
6.876044750213623 -0.5550780892372131 -2.5
-5.9031982421875 -3.0982322692871094 -2.5
-5.634750843048096 -3.5631933212280273 -2.5
-4.990200042724609 -4.420937538146973 -2.5
-1.854824185371399 -6.403613090515137 -2.5
-0.8035937547683716 -6.618222713470459 -2.5
-0.2684375047683716 -6.661425590515137 -2.5
0.26845213770866394 -6.661425590515137 -2.5
0.8036083579063416 -6.618222713470459 -2.5
1.3335497379302979 -6.53209924697876 -2.5
1.8548437356948853 -6.403603553771973 -2.5
2.3641064167022705 -6.233593463897705 -2.5
2.858036994934082 -6.023144245147705 -2.5
3.7872068881988525 -5.486689567565918 -2.5
4.216415882110596 -5.164150238037109 -2.5
4.618281364440918 -4.808125019073486 -2.5
5.90319299697876 -3.0982322692871094 -2.5
6.133359432220459 -2.6131834983825684 -2.5
6.645229339599609 -0.5364453196525574 -2.5
-6.448574066162109 0.0 -2.5
-6.427651405334473 -0.5188769698143005 -2.5
-6.261181354522705 -1.5432324409484863 -2.5
-5.932548522949219 -2.5276269912719727 -2.5
-5.155253887176514 -3.873915910720825 -2.5
-4.467074871063232 -4.650712966918945 -2.5
-4.078369140625 -4.995087623596191 -2.5
-3.6631932258605957 -5.307060241699219 -2.5
-2.286694288253784 -6.029511451721191 -2.5
-1.2898778915405273 -6.318242073059082 -2.5
-0.7772802710533142 -6.401542663574219 -2.5
-0.25966307520866394 -6.443329811096191 -2.5
0.7772997617721558 -6.401552677154541 -2.5
1.2898876667022705 -6.31823205947876 -2.5
2.286699056625366 -6.029501914978027 -2.5
3.2242870330810547 -5.584609031677246 -2.5
3.663203001022339 -5.307050704956055 -2.5
4.078369140625 -4.995087623596191 -2.5
4.467080116271973 -4.650712966918945 -2.5
4.826826095581055 -4.276181697845459 -2.5
5.155258655548096 -3.873915910720825 -2.5
5.932548522949219 -2.5276074409484863 -2.5
6.11669397354126 -2.042060613632202 -2.5
6.427651405334473 -0.5188769698143005 -2.5
-6.242421627044678 1.9531249563442543e-05 -2.5
-6.161591529846191 -1.0013378858566284 -2.5
-5.276025295257568 -3.336357355117798 -2.5
-4.990454196929932 -3.7500877380371094 -2.5
-4.672524452209473 -4.139482498168945 -2.5
-2.676079034805298 -5.639716625213623 -2.5
-1.7367479801177979 -5.995956897735596 -2.5
-1.2486523389816284 -6.116250038146973 -2.5
1.2486523389816284 -6.116259574890137 -2.5
1.7367626428604126 -5.995937347412109 -2.5
2.2136034965515137 -5.836748123168945 -2.5
4.324282169342041 -4.502040863037109 -2.5
4.990454196929932 -3.750077962875366 -2.5
5.921162128448486 -1.9767675399780273 -2.5
6.161581993103027 -1.0013476610183716 -2.5
-6.047382831573486 9.765624781721272e-06 -2.5
-6.027773380279541 -0.4866015613079071 -2.5
-5.736152172088623 -1.9149999618530273 -2.5
-5.563466548919678 -2.370361328125 -2.5
-5.111176490783691 -3.232119083404541 -2.5
-4.834526062011719 -3.6329197883605957 -2.5
-3.824638605117798 -4.684316158294678 -2.5
-2.592465877532959 -5.463496208190918 -2.5
-1.209619164466858 -5.925156116485596 -2.5
-0.2435009777545929 -6.042470455169678 -2.5
0.24350585043430328 -6.042460918426514 -2.5
0.7289404273033142 -6.003271579742432 -2.5
1.2096385955810547 -5.925156116485596 -2.5
1.6824951171875 -5.808603286743164 -2.5
3.023696184158325 -5.237167835235596 -2.5
3.435302734375 -4.976874828338623 -2.5
4.526533126831055 -4.010146617889404 -2.5
5.111181735992432 -3.232109308242798 -2.5
5.969072341918945 -0.9700487852096558 -2.5
-5.69216775894165 -1.4029881954193115 -2.5
-5.393403053283691 -2.297910213470459 -2.5
-4.954941272735596 -3.133310556411743 -2.5
-4.388164043426514 -3.8875584602355957 -2.5
-2.078871965408325 -5.481552600860596 -2.5
-1.6310595273971558 -5.631044864654541 -2.5
-0.7066552639007568 -5.819775104522705 -2.5
0.23605956137180328 -5.857753753662109 -2.5
1.6310546398162842 -5.631044864654541 -2.5
2.931269407272339 -5.077079772949219 -2.5
3.7077245712280273 -4.541122913360596 -2.5
4.388164043426514 -3.8875584602355957 -2.5
4.686748027801514 -3.521855354309082 -2.5
4.954946041107178 -3.133310556411743 -2.5
5.56082010269165 -1.8564647436141968 -2.5
5.786606311798096 -0.9404101371765137 -2.5
-5.687026023864746 9.765624781721272e-06 -2.5
-5.668583869934082 -0.4576074182987213 -2.5
-5.231953144073486 -2.229120969772339 -2.5
-5.035614967346191 -2.642890453338623 -2.5
-4.546445369720459 -3.4164257049560547 -2.5
-2.43798828125 -5.137939453125 -2.5
-2.0166454315185547 -5.317451000213623 -2.5
-1.1375585794448853 -5.572089672088623 -2.5
-0.685498058795929 -5.645556449890137 -2.5
0.22899413108825684 -5.682412147521973 -2.5
0.6854931712150574 -5.645546913146973 -2.5
1.1375536918640137 -5.572089672088623 -2.5
2.0166454315185547 -5.317451000213623 -2.5
2.43798828125 -5.137939453125 -2.5
3.596733331680298 -4.405185222625732 -2.5
3.9395408630371094 -4.101493835449219 -2.5
4.546454906463623 -3.4164257049560547 -2.5
4.806621074676514 -3.039501905441284 -2.5
5.035614967346191 -2.642880916595459 -2.5
5.231943130493164 -2.229120969772339 -2.5
5.394345760345459 -1.8008886575698853 -2.5
5.613373756408691 -0.9122558236122131 -2.5
-5.448676586151123 -0.8854882717132568 -2.5
-5.359755516052246 -1.321044921875 -2.5
-5.078437328338623 -2.163710832595825 -2.5
-4.887861251831055 -2.5653417110443115 -2.5
-4.665590763092041 -2.950331926345825 -2.5
-4.413046836853027 -3.3161914348602295 -2.5
-3.4912109375 -4.275937557220459 -2.5
-2.760077953338623 -4.780595779418945 -2.5
-1.9574755430221558 -5.161425590515137 -2.5
-1.5358006954193115 -5.302206993103027 -2.5
-1.1041796207427979 -5.408603191375732 -2.5
1.1041796207427979 -5.408583641052246 -2.5
1.5358006954193115 -5.302206993103027 -2.5
1.9574657678604126 -5.161435604095459 -2.5
2.366445302963257 -4.987177848815918 -2.5
2.760073184967041 -4.780595779418945 -2.5
3.135810375213623 -4.542988300323486 -2.5
3.8239500522613525 -3.981152296066284 -2.5
4.665595531463623 -2.950331926345825 -2.5
4.887861251831055 -2.5653417110443115 -2.5
5.236079216003418 -1.748046875 -2.5
5.359760761260986 -1.321044921875 -2.5
5.448671817779541 -0.885498046875 -2.5
5.502260684967041 -0.44416990876197815 -2.5
-5.361269474029541 0.0 -2.5
-5.343886375427246 -0.4314062297344208 -2.5
-5.291840553283691 -0.85999995470047 -2.5
-4.747172832489014 -2.491503953933716 -2.5
-3.3907225131988525 -4.152871131896973 -2.5
-2.298334836959839 -4.843632698059082 -2.5
-1.9011328220367432 -5.012861251831055 -2.5
-0.6462304592132568 -5.322177410125732 -2.5
-0.2158789038658142 -5.356914043426514 -2.5
0.2158789038658142 -5.356914043426514 -2.5
0.6462304592132568 -5.322167873382568 -2.5
1.4915966987609863 -5.149589538574219 -2.5
2.6806395053863525 -4.642988204956055 -2.5
3.0455517768859863 -4.412226676940918 -2.5
3.3907177448272705 -4.152851581573486 -2.5
3.713876962661743 -3.8665525913238525 -2.5
4.747162818908691 -2.491503953933716 -2.5
4.932255744934082 -2.1014256477355957 -2.5
5.291845798492432 -0.85999995470047 -2.5
