ply
format ascii 1.0
element vertex 945
property float x
property float y
property float z
end_header
1.0089404582977295 -25.03677749633789 6.714026927947998
5.113617897033691 -25.048152923583984 6.850068092346191
9.618021965026855 -25.36066436767578 7.267647743225098
7.531210899353027 -7.840850830078125 2.9131152629852295
10.124711990356445 -8.96973991394043 3.624418258666992
8.93246078491211 -6.712332725524902 2.993901252746582
9.418627738952637 -3.1444103717803955 2.660646915435791
9.251298904418945 -1.5034911632537842 2.511406421661377
-5.880785942077637 -5.209918022155762 2.0121383666992188
-7.310649394989014 -25.23929214477539 6.729653835296631
-1.020815372467041 -25.331127166748047 6.492740154266357
1.008945345878601 -25.03677749633789 6.417293548583984
3.077143430709839 -25.342514038085938 6.538058757781982
9.618021965026855 -25.36066436767578 6.946444988250732
8.108046531677246 -5.127231121063232 2.456876754760742
8.52504825592041 -3.632197141647339 2.373237133026123
9.520365715026855 -3.178375244140625 2.5705254077911377
9.349658012390137 -1.519476294517517 2.425931453704834
-7.332172870635986 -25.313602447509766 6.4391398429870605
-3.0750584602355957 -25.325424194335938 6.2332444190979
-1.0208104848861694 -25.331127166748047 6.194214820861816
1.0089404582977295 -25.03677749633789 6.122236728668213
3.077158212661743 -25.342514038085938 6.237451076507568
9.618037223815918 -25.36066436767578 6.627058982849121
12.019208908081055 -25.329959869384766 6.850296974182129
9.016030311584473 -3.0100035667419434 2.3224260807037354
9.122387886047363 -2.2484850883483887 2.2955985069274902
24.7189884185791 -4.017243385314941 6.118864059448242
-14.764604568481445 -6.290608882904053 3.733278751373291
-5.169037818908691 -25.319618225097656 6.01132869720459
-3.03252911567688 -24.975170135498047 5.852386474609375
-1.0114061832427979 -25.097503662109375 5.8429131507873535
3.032543897628784 -24.97516632080078 5.852386474609375
5.113617897033691 -25.048158645629883 5.946877956390381
7.34398889541626 -25.354345321655273 6.140353202819824
9.618017196655273 -25.360668182373047 6.309396743774414
8.422026634216309 -5.325799465179443 2.317983388900757
9.232484817504883 -4.845598220825195 2.425487995147705
8.960078239440918 -3.8175413608551025 2.265589475631714
9.730278015136719 -2.3983166217803955 2.331199884414673
25.082279205322266 -2.024859666824341 5.853613376617432
-3.046704053878784 -25.091854095458984 5.585224628448486
-1.0114061832427979 -25.097503662109375 5.550251483917236
1.0089404582977295 -25.03677749633789 5.536819934844971
3.048759698867798 -25.1087646484375 5.5889892578125
5.113623142242432 -25.04816436767578 5.649009704589844
14.628427505493164 -25.33720588684082 6.464838027954102
8.543906211853027 -5.402860164642334 2.2337417602539062
25.91451644897461 -2.092045783996582 5.744915008544922
-5.858354568481445 -5.190051078796387 1.6386981010437012
-7.24535608291626 -25.013856887817383 5.452512264251709
-5.107827186584473 -25.019800186157227 5.346531867980957
-3.046699047088623 -25.091854095458984 5.2921552658081055
-1.0114061832427979 -25.097503662109375 5.259016990661621
1.008950114250183 -25.03677749633789 5.246290683746338
3.048759698867798 -25.1087646484375 5.295720100402832
5.113623142242432 -25.04816436767578 5.352591037750244
9.529315948486328 -25.126752853393555 5.626504421234131
11.925947189331055 -25.133407592773438 5.824631690979004
14.628446578979492 -25.33721160888672 6.125613689422607
8.539477348327637 -5.400064468383789 2.115438222885132
12.19570255279541 -6.400801658630371 2.883775472640991
10.776616096496582 -3.5977721214294434 2.3787596225738525
23.435638427734375 -5.776387691497803 5.053651809692383
-5.853003025054932 -5.185308933258057 1.5469567775726318
-7.245346546173096 -25.01386260986328 5.151967525482178
-3.0612988471984863 -25.21208953857422 5.024405479431152
1.0089404582977295 -25.03677749633789 4.957110404968262
5.113627910614014 -25.04816436767578 5.057554244995117
7.276254653930664 -25.120502471923828 5.17393159866333
14.514906883239746 -25.14058494567871 5.743048667907715
8.534955978393555 -5.397200584411621 1.997772455215454
10.265111923217773 -3.427006721496582 2.140958786010742
23.804672241210938 -5.867347240447998 4.850283145904541
23.952489852905273 -3.8926732540130615 4.800751686096191
24.767358779907227 -1.9994360208511353 4.915731906890869
-5.847680568695068 -5.180593013763428 1.4557833671569824
-3.065995931625366 -25.2507266998291 4.739833831787109
7.322319030761719 -25.279550552368164 4.904277324676514
14.514931678771973 -25.14058494567871 5.409485340118408
24.29204559326172 -5.987476825714111 4.662105560302734
24.545726776123047 -3.989084482192993 4.6339111328125
25.42807960510254 -2.0527758598327637 4.753737449645996
-13.789546012878418 -5.87516975402832 2.6215593814849854
-5.844330787658691 -5.177631855010986 1.3656033277511597
-3.0660009384155273 -25.2507266998291 4.448765277862549
3.068061351776123 -25.26774787902832 4.451763153076172
5.113617897033691 -25.04816436767578 4.471261024475098
9.589653015136719 -25.28584861755371 4.729834079742432
12.00145435333252 -25.29254913330078 4.896386623382568
14.514911651611328 -25.14058494567871 5.077292442321777
24.585615158081055 -6.059834957122803 4.4286909103393555
25.33956527709961 -4.118096828460693 4.490009784698486
-7.299360275268555 -25.2003173828125 4.289620876312256
-3.066035032272339 -25.251089096069336 4.158883094787598
-1.0162549018859863 -25.21775245666504 4.1264567375183105
5.113627910614014 -25.04816436767578 4.179853916168213
7.311108112335205 -25.24085807800293 4.29652214050293
12.00145435333252 -25.29254913330078 4.577271461486816
8.521728515625 -5.38884162902832 1.6485167741775513
24.246870040893555 -8.094793319702148 4.179459095001221
24.29293441772461 -5.987696170806885 4.09077262878418
26.25224494934082 -2.1193089485168457 4.306211948394775
-17.590024948120117 -5.872403621673584 2.821392774581909
7.34398889541626 -25.35434913635254 4.016042232513428
11.983076095581055 -25.25381851196289 4.252790451049805
8.522802352905273 -5.389515399932861 1.5341955423355103
27.7596378326416 -2.2410008907318115 4.23716926574707
-7.33218240737915 -25.313623428344727 3.7112815380096436
-5.169037818908691 -25.31963348388672 3.6391441822052
-3.075063467025757 -25.325443267822266 3.592611074447632
-1.0208251476287842 -25.33114242553711 3.5701146125793457
1.0089404582977295 -25.03677749633789 3.528627872467041
3.0771484375 -25.34250831604004 3.5950329303741455
7.34398889541626 -25.35434913635254 3.7172534465789795
9.618026733398438 -25.360668182373047 3.819589138031006
12.036967277526855 -25.36737823486328 3.9540863037109375
14.607030868530273 -25.300140380859375 4.11402702331543
8.527026176452637 -5.392190933227539 1.4207574129104614
28.15279197692871 -4.575295448303223 4.016589641571045
-7.33218240737915 -25.313623428344727 3.4138989448547363
-5.169037818908691 -25.31963348388672 3.347541332244873
-1.0208202600479126 -25.33114242553711 3.284043550491333
1.008945345878601 -25.03677749633789 3.245880126953125
5.113623142242432 -25.04816436767578 3.311649799346924
7.343984127044678 -25.35434913635254 3.4193902015686035
25.647499084472656 -2.0704894065856934 3.3331682682037354
-5.858383655548096 -5.19007682800293 0.9258041381835938
-5.169028282165527 -25.31963348388672 3.0567760467529297
-3.0750584602355957 -25.325443267822266 3.0176897048950195
3.0771484375 -25.34250831604004 3.019723415374756
7.34398889541626 -25.35434913635254 3.122385263442993
9.5897798538208 -25.286205291748047 3.1989245414733887
8.535317420959473 -5.397428035736084 1.1945525407791138
25.502714157104492 -6.285880088806152 3.1069395542144775
24.97452163696289 -4.058772087097168 2.9929351806640625
26.449256896972656 -2.135213613510132 3.138798236846924
-7.332172870635986 -25.31361198425293 2.821612596511841
-5.169037818908691 -25.31963348388672 2.76676869392395
-3.075063467025757 -25.325443267822266 2.7313902378082275
3.077138662338257 -25.34250831604004 2.7332310676574707
9.618021965026855 -25.36066436767578 2.903956174850464
12.036962509155273 -25.36737823486328 3.006213426589966
8.539443016052246 -5.400042533874512 1.0817452669143677
28.456289291381836 -7.013877868652344 3.1378612518310547
-5.865746974945068 -5.196599006652832 0.7512869238853455
-7.33218240737915 -25.31361198425293 2.526559591293335
-3.066030263900757 -25.251089096069336 2.438591957092285
1.005468726158142 -24.95041847229004 2.3939287662506104
3.0633740425109863 -25.229076385498047 2.4364659786224365
9.618021965026855 -25.36066436767578 2.6002936363220215
12.036962509155273 -25.36737823486328 2.6918578147888184
26.43559455871582 -4.296218395233154 2.567619562149048
-5.106870174407959 -25.015165328979492 2.162428855895996
-3.038090705871582 -25.020902633666992 2.1347784996032715
-1.008544921875 -25.026527404785156 2.121410846710205
3.0401415824890137 -25.03776741027832 2.136216640472412
5.112675666809082 -25.043514251708984 2.164879322052002
14.60704517364502 -25.300140380859375 2.474365711212158
8.54727554321289 -5.404994010925293 0.8565383553504944
-5.106879711151123 -25.015165328979492 1.877732753753662
1.0087597370147705 -25.032123565673828 1.8425261974334717
5.1126708984375 -25.043514251708984 1.879860758781433
7.255673885345459 -25.049467086791992 1.9180352687835693
9.502367973327637 -25.055702209472656 1.9708385467529297
8.549291610717773 -5.40626335144043 0.7439477443695068
-5.066088676452637 -24.815277099609375 1.5807671546936035
3.0158445835113525 -24.83769416809082 1.5616058111190796
5.071825981140137 -24.843408584594727 1.5825588703155518
11.892216682434082 -25.062334060668945 1.7314062118530273
14.47386646270752 -25.069496154785156 1.8067446947097778
-7.2440185546875 -25.009227752685547 1.3356209993362427
-5.106879711151123 -25.015161514282227 1.3096599578857422
-3.0380859375 -25.020898818969727 1.2929134368896484
-1.0085498094558716 -25.026527404785156 1.2848174571990967
3.0401365756988525 -25.037763595581055 1.293784737586975
11.81423282623291 -24.897987365722656 1.4136712551116943
8.552563667297363 -5.40833854675293 0.5190783739089966
-7.2440185546875 -25.009227752685547 1.0464833974838257
-1.0085400342941284 -25.026527404785156 1.0066781044006348
1.0087597370147705 -25.032123565673828 1.0069034099578857
5.112675666809082 -25.043519973754883 1.0273056030273438
14.473881721496582 -25.069496154785156 1.1634634733200073
-5.865551471710205 -5.196426868438721 0.22801299393177032
-7.2440185546875 -25.009227752685547 0.7576040625572205
-3.0380859375 -25.020898818969727 0.7333794832229614
3.0401463508605957 -25.03776741027832 0.7338736057281494
5.112675666809082 -25.043519973754883 0.7437203526496887
7.255683422088623 -25.04947280883789 0.7588232159614563
9.502367973327637 -25.055702209472656 0.7797130942344666
14.473886489868164 -25.069496154785156 0.8422921299934387
8.554462432861328 -5.409537315368652 0.29450103640556335
-5.865492820739746 -5.196375846862793 0.14112365245819092
-5.135639667510986 -25.156044006347656 0.46238553524017334
-3.058344602584839 -25.18777847290039 0.45694395899772644
-1.0152636766433716 -25.193450927734375 0.4540829360485077
3.060415029525757 -25.20475959777832 0.45725217461586
9.565736770629883 -25.22281265258789 0.48581358790397644
14.551947593688965 -25.2047061920166 0.5241388082504272
8.555219650268555 -5.410017967224121 0.1822967529296875
-5.871606349945068 -5.201796531677246 0.054331205785274506
-3.058344602584839 -25.18777847290039 0.17572997510433197
1.0141894817352295 -25.167142868041992 0.17444640398025513
3.060415029525757 -25.20475959777832 0.17584869265556335
7.304057598114014 -25.216522216796875 0.18182678520679474
11.971532821655273 -25.2294864654541 0.19341124594211578
-11.5067138671875 -6.039180755615234 -0.0540037527680397
-5.877738952636719 -5.207226276397705 -0.032632291316986084
-7.906635761260986 -27.29684066772461 -0.11809905618429184
5.140254020690918 -25.178592681884766 -0.10679198801517487
7.294809341430664 -25.1845703125 -0.10896056890487671
14.551942825317383 -25.2047061920166 -0.12094604223966599
-11.5067138671875 -6.039180755615234 -0.19802352786064148
-5.883881568908691 -5.212670803070068 -0.11978317052125931
-7.915883541107178 -27.32874870300293 -0.43355756998062134
-5.129126071929932 -25.124130249023438 -0.39072829484939575
-1.0152636766433716 -25.193450927734375 -0.384213387966156
3.060415029525757 -25.20475959777832 -0.3868951201438904
5.146777153015137 -25.21055030822754 -0.3920861780643463
7.30407190322876 -25.216537475585938 -0.4000481963157654
9.565736770629883 -25.22281265258789 -0.411061555147171
14.570419311523438 -25.236703872680664 -0.44405272603034973
-11.5067138671875 -6.039180755615234 -0.3420916795730591
-7.915883541107178 -27.32874870300293 -0.7489845156669617
-5.129135608673096 -25.124130249023438 -0.675024688243866
-3.058354377746582 -25.187782287597656 -0.6679232716560364
-1.0152734518051147 -25.193450927734375 -0.6637406945228577
7.304062366485596 -25.216537475585938 -0.6910958886146545
9.565736770629883 -25.22281265258789 -0.710121750831604
14.570414543151855 -25.236703872680664 -0.7671149969100952
-11.5067138671875 -6.039180755615234 -0.4862472414970398
-7.915863990783691 -27.32874870300293 -1.064602017402649
-5.129135608673096 -25.124130249023438 -0.9594692587852478
1.014199137687683 -25.167142868041992 -0.9424512982368469
3.060419797897339 -25.20475959777832 -0.9500218033790588
5.146772384643555 -25.21055030822754 -0.9627688527107239
11.971532821655273 -25.2294864654541 -1.0449050664901733
14.570419311523438 -25.236703872680664 -1.0903725624084473
8.526835441589355 -5.392064094543457 -0.3774909973144531
-5.903159141540527 -5.229745864868164 -0.38264936208724976
-7.906635761260986 -27.29684066772461 -1.3788659572601318
-5.129126071929932 -25.124130249023438 -1.2441421747207642
-3.058349609375 -25.187782287597656 -1.2310713529586792
5.146777153015137 -25.21055030822754 -1.2484302520751953
3.7483251094818115 -9.883550643920898 -0.5128713846206665
-8.6659517288208 -22.8502140045166 -1.457338571548462
-7.867573261260986 -27.16194725036621 -1.6863384246826172
-5.129135608673096 -25.124130249023438 -1.5291483402252197
-1.0085498094558716 -25.02654266357422 -1.4936281442642212
7.255673885345459 -25.049467086791992 -1.5551855564117432
4.339296817779541 -9.14488410949707 -0.6036187410354614
8.519545555114746 -5.387459754943848 -0.6011075973510742
-5.901655197143555 -5.228407859802246 -0.5579251050949097
-5.129135608673096 -25.124130249023438 -1.8145052194595337
1.008754849433899 -25.032129287719727 -1.772762417793274
2.920600414276123 -10.08304500579834 -0.7428245544433594
3.464003801345825 -9.133811950683594 -0.6912464499473572
27.30228042602539 -4.437062740325928 -1.9573111534118652
-14.3306884765625 -24.82149887084961 -2.347599983215332
-12.286879539489746 -25.89409065246582 -2.347599983215332
-8.798452377319336 -23.1995849609375 -2.0323026180267334
-7.680424690246582 -26.51588249206543 -2.2611427307128906
-5.129126071929932 -25.124130249023438 -2.100306749343872
1.0087597370147705 -25.032129287719727 -2.0520007610321045
2.8110105991363525 -9.704693794250488 -0.8275686502456665
16.281494140625 -23.587812423706055 -2.347599983215332
18.126733779907227 -22.201250076293945 -2.347599983215332
17.67982292175293 -18.406646728515625 -2.0905094146728516
8.489852905273438 -5.368685245513916 -0.8227616548538208
20.87236213684082 -6.968221187591553 -1.8023734092712402
27.302284240722656 -4.437061786651611 -2.265617847442627
-26.860151290893555 6.103515261202119e-06 -2.5
-26.512319564819336 -4.308675289154053 -2.5
-26.07962417602539 -6.428072452545166 -2.5
-25.477827072143555 -8.505743026733398 -2.5
-24.710765838623047 -10.528267860412598 -2.5
-22.701948165893555 -14.355840682983398 -2.5
-5.909018516540527 -5.23493766784668 -0.7347662448883057
-16.98756217956543 -20.806011199951172 -2.5
-14.328139305114746 -20.757909774780273 -2.347599983215332
-10.812807083129883 -22.787504196166992 -2.347599983215332
-8.94412612915039 -23.583675384521484 -2.347599983215332
-5.045190334320068 -24.713016510009766 -2.347599983215332
-1.0085498094558716 -25.02654266357422 -2.331228494644165
3.0401611328125 -25.03776741027832 -2.347498655319214
3.4355711936950684 -9.058829307556152 -0.9017463326454163
5.207533836364746 -9.019713401794434 -0.9693791270256042
21.47315788269043 -16.13602638244629 -2.5
8.47933578491211 -5.362034797668457 -0.9337705969810486
20.87236785888672 -6.968221187591553 -2.048090696334839
24.56931495666504 -6.055811405181885 -2.355220079421997
-23.899818420410156 -1.9293932914733887 -2.5
-23.66707420349121 -3.8462817668914795 -2.5
-23.28081512451172 -5.738226413726807 -2.5
-22.743627548217773 -7.592935562133789 -2.5
-20.2656192779541 -12.815203666687012 -2.5
-5.916098594665527 -5.241206169128418 -0.8240850567817688
-16.609848022460938 -17.29269790649414 -2.5
-13.597963333129883 -19.700054168701172 -2.495804786682129
-11.257983207702637 -19.49935531616211 -2.347599983215332
-9.652397155761719 -20.342012405395508 -2.347599983215332
-7.9842529296875 -21.05274772644043 -2.347599983215332
-6.26431131362915 -21.626943588256836 -2.347599983215332
-4.503754615783691 -22.060882568359375 -2.347599983215332
-2.713984251022339 -22.351757049560547 -2.347599983215332
-0.9066357016563416 -22.497650146484375 -2.347599983215332
2.6326904296875 -12.89570426940918 -1.3722912073135376
3.42046856880188 -9.019007682800293 -1.0057123899459839
5.18325662612915 -8.977657318115234 -1.0808533430099487
12.790512084960938 -18.530241012573242 -2.347599983215332
16.6098575592041 -17.292715072631836 -2.5
21.2310791015625 -11.14293098449707 -2.5
22.058900833129883 -9.398411750793457 -2.5
21.932607650756836 -5.40591287612915 -2.355220079421997
23.66707992553711 -3.8462841510772705 -2.5
-21.648929595947266 4.882812390860636e-06 -2.5
-21.01980972290039 -5.180928707122803 -2.5
-20.53474998474121 -6.85551118850708 -2.5
-19.91653823852539 -8.48563289642334 -2.5
-19.169124603271484 -10.060738563537598 -2.5
-12.297992706298828 -17.816675186157227 -2.5
-10.635404586791992 -18.4210205078125 -2.4563353061676025
-5.65591287612915 -19.526540756225586 -2.347599983215332
-4.066342830657959 -19.918331146240234 -2.347599983215332
1.9528857469558716 -9.565831184387207 -1.1274409294128418
2.620664119720459 -9.047550201416016 -1.0877516269683838
3.405463695526123 -8.97944450378418 -1.109007716178894
4.249062538146973 -8.954727172851562 -1.1445962190628052
13.691728591918945 -16.769344329833984 -2.5
16.20441436767578 -14.35588264465332 -2.5
17.307050704956055 -13.005406379699707 -2.5
8.4535493850708 -5.345721244812012 -1.1550217866897583
19.169130325317383 -10.060750961303711 -2.5
19.916532516479492 -8.485638618469238 -2.5
19.345550537109375 -6.458489894866943 -2.355220079421997
-19.664018630981445 -1.587438941001892 -2.5
-19.472515106201172 -3.16459584236145 -2.5
-16.673891067504883 -10.54393196105957 -2.5
-15.771381378173828 -11.851428985595703 -2.5
-5.937055587768555 -5.259782791137695 -1.0051499605178833
-13.66603946685791 -14.22785758972168 -2.5
-12.476880073547363 -15.281387329101562 -2.5
-11.206782341003418 -16.235807418823242 -2.5
-9.863998413085938 -17.084930419921875 -2.5
-8.450180053710938 -17.808399200439453 -2.4979169368743896
-6.880073070526123 -18.141284942626953 -2.4587044715881348
-2.232978582382202 -18.390291213989258 -2.347599983215332
1.2265673875808716 -10.101677894592285 -1.289522409439087
1.8721239566802979 -9.170226097106934 -1.1860532760620117
2.600351572036743 -8.977420806884766 -1.1844136714935303
3.390556573867798 -8.940123558044434 -1.211662769317627
5.140800476074219 -8.90412425994873 -1.3029203414916992
6.276914119720459 -9.093670845031738 -1.4002491235733032
13.666034698486328 -14.227874755859375 -2.5
14.766596794128418 -13.082073211669922 -2.5
15.771390914916992 -11.851431846618652 -2.5
8.448183059692383 -5.342336177825928 -1.2666821479797363
17.09827995300293 -7.284891128540039 -2.355220079421997
17.6290283203125 -5.885428428649902 -2.355220079421997
19.66400909423828 -1.5874401330947876 -2.5
-17.589643478393555 -4.335464954376221 -2.5
-17.1837158203125 -5.736766338348389 -2.5
-16.666391372680664 -7.100882530212402 -2.5
-5.949790000915527 -5.271055698394775 -1.0969327688217163
-12.5494384765625 -13.065340042114258 -2.5
-9.058032035827637 -15.688956260681152 -2.5
-7.766205787658691 -16.366954803466797 -2.5
-5.04019021987915 -17.400794982910156 -2.5
-2.179702043533325 -17.95152473449707 -2.495490789413452
-0.7276415824890137 -18.05589485168457 -2.4937219619750977
0.7276269197463989 -18.0559024810791 -2.4937217235565186
2.587114095687866 -8.931722640991211 -1.283234715461731
3.375732421875 -8.90103816986084 -1.3137052059173584
4.215756893157959 -8.884530067443848 -1.3570828437805176
5.134633541107178 -8.893441200256348 -1.417149305343628
11.457406997680664 -14.032791137695312 -2.5
13.560038566589355 -12.013176918029785 -2.5
14.482738494873047 -10.883074760437012 -2.5
8.436440467834473 -5.334908485412598 -1.3774715662002563
17.03988265991211 -4.199963092803955 -2.421862840652466
-16.743764877319336 2.441406195430318e-06 -2.5
-16.6894474029541 -1.3473082780838013 -2.5
-16.526918411254883 -2.6858885288238525 -2.5
-15.403891563415527 -6.562989234924316 -2.5
-11.309887886047363 -5.935877323150635 -1.9071203470230103
-14.15163516998291 -8.948966026306152 -2.5
-5.958901405334473 -5.279136657714844 -1.1886550188064575
-10.589506149291992 -12.969791412353516 -2.5
-8.371870040893555 -14.500514030456543 -2.5
-7.177915096282959 -15.127159118652344 -2.5
-5.93740701675415 -15.65567684173584 -2.5
-3.349184513092041 -16.40536880493164 -2.5
-2.0182225704193115 -16.621675491333008 -2.5
-0.6742138266563416 -16.73017692565918 -2.5
1.1581395864486694 -9.53812313079834 -1.4345910549163818
2.5734667778015137 -8.884605407714844 -1.3810830116271973
6.221943378448486 -9.014034271240234 -1.6353662014007568
11.598798751831055 -12.075648307800293 -2.5
8.424540519714355 -5.327380180358887 -1.4882640838623047
14.51183032989502 -6.182911396026611 -2.355220079421997
14.962299346923828 -4.995145320892334 -2.355220079421997
16.52693748474121 -2.6858911514282227 -2.5
-15.561079025268555 2.441406195430318e-06 -2.5
-15.3595552444458 -2.496173143386841 -2.5
-15.108891487121582 -3.7240185737609863 -2.5
-14.760238647460938 -4.927695274353027 -2.5
-14.3158540725708 -6.099417686462402 -2.5
-11.291274070739746 -5.926102161407471 -2.0486862659454346
-13.152074813842773 -8.316865921020508 -2.5
-12.440199851989746 -9.348198890686035 -2.5
-9.841547966003418 -12.05369758605957 -2.5
-7.780541896820068 -13.476287841796875 -2.5
-6.670903205871582 -14.058670043945312 -2.5
-1.875673770904541 -15.447623252868652 -2.5
-0.6265966892242432 -15.548460006713867 -2.5
1.1435449123382568 -9.417962074279785 -1.5241756439208984
2.5716307163238525 -8.878270149230957 -1.484987735748291
5.129199028015137 -8.884029388427734 -1.648085117340088
9.841527938842773 -12.053702354431152 -2.5
11.647636413574219 -10.31892204284668 -2.5
9.267578125 -6.964136600494385 -1.8624264001846313
12.980717658996582 -6.812796592712402 -2.355220079421997
13.486811637878418 -5.746187686920166 -2.355220079421997
13.9054536819458 -4.642323017120361 -2.355220079421997
-14.53102970123291 2.441406195430318e-06 -2.5
-14.48391056060791 -1.1692626476287842 -2.5
-14.342856407165527 -2.330949544906616 -2.5
-13.78322696685791 -4.601518630981445 -2.5
-13.368247032165527 -5.695679664611816 -2.5
-11.23538589477539 -5.89677095413208 -2.183048725128174
-11.570258140563965 -7.316590309143066 -2.355220079421997
-5.963168621063232 -5.282918453216553 -1.3706376552581787
-7.265522480010986 -12.584256172180176 -2.5
-6.229331016540527 -13.128084182739258 -2.5
-5.152768611907959 -13.586763381958008 -2.5
-4.042768478393555 -13.957334518432617 -2.5
0.5851024985313416 -14.519268035888672 -2.5
2.570507764816284 -8.874381065368652 -1.589555025100708
3.373422861099243 -8.894951820373535 -1.6366938352584839
4.217387676239014 -8.887971878051758 -1.6925493478775024
5.112494945526123 -8.855091094970703 -1.7591607570648193
10.066000938415527 -10.479832649230957 -2.5
9.267578125 -6.964136600494385 -1.994444727897644
8.419790267944336 -5.324376106262207 -1.7139214277267456
12.12148380279541 -6.361836910247803 -2.355220079421997
12.594096183776855 -5.365834712982178 -2.355220079421997
12.985029220581055 -4.335033893585205 -2.355220079421997
14.10879898071289 -3.4775218963623047 -2.5
14.342875480651855 -2.3309521675109863 -2.5
-13.449203491210938 -2.185717821121216 -2.5
-13.229750633239746 -3.2608447074890137 -2.5
-11.809409141540527 -5.031513690948486 -2.355220079421997
-10.849349975585938 -6.860716342926025 -2.355220079421997
-10.8929443359375 -8.185508728027344 -2.5
-8.617485046386719 -10.554508209228516 -2.5
-4.831713676452637 -12.740218162536621 -2.5
-3.790883779525757 -13.08769416809082 -2.5
-1.6423876285552979 -13.526321411132812 -2.5
-0.5486621260643005 -13.614617347717285 -2.5
1.1209667921066284 -9.231959342956543 -1.706295132637024
1.819301724433899 -8.911492347717285 -1.6687813997268677
2.5693750381469727 -8.870479583740234 -1.6944304704666138
3.3724119663238525 -8.892293930053711 -1.744924545288086
5.112494945526123 -8.855091094970703 -1.8760509490966797
8.617480278015137 -10.554512977600098 -2.5
9.438817977905273 -9.826875686645508 -2.5
11.366230010986328 -5.965452671051025 -2.355220079421997
11.809393882751465 -5.031506061553955 -2.355220079421997
12.574638366699219 -4.198023796081543 -2.432333469390869
13.449213981628418 -2.185716390609741 -2.5
13.5814790725708 -1.096413493156433 -2.5
-12.823471069335938 1.220703097715159e-06 -2.5
-12.781869888305664 -1.0318578481674194 -2.5
-12.450834274291992 -3.068859815597534 -2.5
-12.163530349731445 -4.06077241897583 -2.5
-11.114115715026855 -4.735274314880371 -2.355220079421997
-5.9837646484375 -5.301158428192139 -1.5585185289382935
-7.284535884857178 -10.55347728729248 -2.5
-5.497290134429932 -11.585345268249512 -2.5
-2.565019369125366 -12.564290046691895 -2.5
-0.5163671970367432 -12.813040733337402 -2.5
0.5163427591323853 -12.813040733337402 -2.5
2.5694432258605957 -8.870706558227539 -1.8004788160324097
3.3730859756469727 -8.894068717956543 -1.8544567823410034
5.112494945526123 -8.855091094970703 -1.9934154748916626
8.11013126373291 -9.933114051818848 -2.5
9.598481178283691 -8.503519058227539 -2.5
9.267578125 -6.964139461517334 -2.260030508041382
10.697031021118164 -5.614229679107666 -2.355220079421997
12.45082950592041 -3.068857431411743 -2.5
12.781874656677246 -1.0318591594696045 -2.5
-12.107523918151855 2.441406195430318e-06 -2.5
-11.755698204040527 -2.8975207805633545 -2.5
-10.493597984313965 -4.470901012420654 -2.355220079421997
-10.099828720092773 -5.300784587860107 -2.355220079421997
-9.640522003173828 -6.09630012512207 -2.355220079421997
-5.994555473327637 -5.310726165771484 -1.65365469455719
-6.877846717834473 -9.964282989501953 -2.5
-6.053744792938232 -10.485394477844238 -2.5
-5.190366268157959 -10.938530921936035 -2.5
-3.368525266647339 -11.629481315612793 -2.5
1.8077831268310547 -8.855091094970703 -1.8661434650421143
2.5700438022613525 -8.872784614562988 -1.9073903560638428
5.112494945526123 -8.855091094970703 -2.1112887859344482
6.877856254577637 -9.964287757873535 -2.5
7.738027095794678 -5.814759254455566 -1.9986114501953125
7.919985294342041 -5.008310317993164 -1.9348870515823364
10.099814414978027 -5.300787448883057 -2.355220079421997
12.06826114654541 -0.9742504954338074 -2.5
-11.464526176452637 2.441406195430318e-06 -2.5
-11.316059112548828 -1.8390307426452637 -2.5
-9.936323165893555 -4.233461856842041 -2.355220079421997
-9.56344223022461 -5.019274711608887 -2.355220079421997
-9.1285400390625 -5.772537708282471 -2.355220079421997
-8.634438514709473 -6.488358020782471 -2.355220079421997
-7.250658988952637 -8.88046932220459 -2.5
-5.732231140136719 -9.928560256958008 -2.5
-4.065356254577637 -10.719497680664062 -2.5
-3.18963360786438 -11.011871337890625 -2.5
-2.2931981086730957 -11.232820510864258 -2.5
-0.4616357386112213 -11.455215454101562 -2.5
0.46162596344947815 -11.45521354675293 -2.5
1.8077880144119263 -8.855091094970703 -1.9708075523376465
4.914741039276123 -10.35761547088623 -2.5
7.91213846206665 -5.003352165222168 -2.0413835048675537
9.563437461853027 -5.019278526306152 -2.355220079421997
10.87451171875 -3.630446672439575 -2.5
11.131376266479492 -2.7436437606811523 -2.5
-10.883715629577637 -1.220703097715159e-06 -2.5
-9.078949928283691 -4.76499605178833 -2.355220079421997
-7.050249099731445 -4.458316326141357 -1.9160822629928589
-6.027455806732178 -5.33985710144043 -1.8496898412704468
-6.076616287231445 -6.326431751251221 -2.0149524211883545
-6.182641506195068 -8.95710277557373 -2.5
-5.441840648651123 -9.425562858581543 -2.5
-4.665737152099609 -9.832889556884766 -2.5
-3.859389543533325 -10.176444053649902 -2.5
-2.177016496658325 -10.66374397277832 -2.5
2.644829034805298 -6.973841190338135 -1.7132314443588257
4.665756702423096 -9.832891464233398 -2.5
5.112485408782959 -8.855091094970703 -2.348689317703247
6.883354187011719 -8.430569648742676 -2.5
7.102783203125 -7.394793510437012 -2.355220079421997
7.674794673919678 -6.799271106719971 -2.355220079421997
5.850898265838623 -4.396665096282959 -1.681119441986084
7.925014495849609 -5.011484146118164 -2.153820276260376
9.842226028442383 -4.193377494812012 -2.4574167728424072
10.742758750915527 -1.7458715438842773 -2.5
10.84841251373291 -0.8757739067077637 -2.5
-10.356371879577637 2.441406195430318e-06 -2.5
-10.222250938415527 -1.6612756252288818 -2.5
-10.055424690246582 -2.478440999984741 -2.5
-9.823383331298828 -3.2795262336730957 -2.5
-9.527641296386719 -4.059340953826904 -2.5
-5.538959980010986 -5.766665935516357 -1.9301934242248535
-5.883061408996582 -8.523106575012207 -2.5
-4.439662933349609 -9.356449127197266 -2.5
-3.6723875999450684 -9.683358192443848 -2.5
-2.071537971496582 -10.147059440612793 -2.5
-1.2483105659484863 -10.280850410461426 -2.5
1.248315453529358 -10.280845642089844 -2.5
4.439682483673096 -9.356453895568848 -2.5
5.178168773651123 -8.968868255615234 -2.5
5.883080959320068 -8.523106575012207 -2.5
6.170507907867432 -7.557510852813721 -2.355220079421997
6.758627891540527 -7.036488056182861 -2.355220079421997
7.302924633026123 -6.469822883605957 -2.355220079421997
5.850898265838623 -4.396665096282959 -1.7667220830917358
10.055415153503418 -2.4784460067749023 -2.5
-9.843276023864746 -0.79463130235672 -2.5
-9.747426986694336 -1.5841100215911865 -2.5
-9.58834457397461 -2.363321542739868 -2.5
-9.0850830078125 -3.870783567428589 -2.5
-7.863139629364014 -4.972348690032959 -2.355220079421997
-5.940707683563232 -4.464164733886719 -1.8812304735183716
-5.883872032165527 -7.20646333694458 -2.355220079421997
-5.609799861907959 -8.127202987670898 -2.5
-4.937631607055664 -8.552251815795898 -2.5
-2.031625986099243 -7.014009952545166 -1.848631739616394
-1.9753124713897705 -9.675725936889648 -2.5
-1.1903417110443115 -9.803301811218262 -2.5
0.3976367115974426 -9.867293357849121 -2.5
2.747485399246216 -9.485404014587402 -2.5
4.233461856842041 -8.921846389770508 -2.5
5.883886814117432 -7.20646333694458 -2.355220079421997
6.963696002960205 -6.16929817199707 -2.355220079421997
7.822700023651123 -4.946791648864746 -2.3431105613708496
9.085067749023438 -3.870783567428589 -2.5
9.367079734802246 -3.1271910667419434 -2.5
9.588335037231445 -2.3633227348327637 -2.5
-9.3124361038208 -1.5134179592132568 -2.5
-9.160444259643555 -2.2578539848327637 -2.5
-8.949067115783691 -2.9876341819763184 -2.5
-8.679643630981445 -3.69804310798645 -2.5
-7.512231349945068 -4.750455379486084 -2.355220079421997
-5.556264400482178 -4.922418117523193 -1.9669854640960693
-5.621294021606445 -6.884864330291748 -2.355220079421997
-3.3455517292022705 -8.821502685546875 -2.5
-1.8871581554412842 -9.243931770324707 -2.5
-0.8525976538658142 -7.021751403808594 -1.8743032217025757
1.1372119188308716 -9.365814208984375 -2.5
1.8077831268310547 -8.855091094970703 -2.39483904838562
2.624882698059082 -9.062098503112793 -2.5
2.644829034805298 -6.973841190338135 -1.9763745069503784
4.044526100158691 -8.523696899414062 -2.5
5.621318340301514 -6.884864330291748 -2.355220079421997
7.512246131896973 -4.750453948974609 -2.355220079421997
8.949057579040527 -2.987632989883423 -2.5
9.160444259643555 -2.257855176925659 -2.5
9.312421798706055 -1.5134167671203613 -2.5
-8.999995231628418 -0.7265551686286926 -2.5
-8.912348747253418 -1.448397159576416 -2.5
-8.766899108886719 -2.160853147506714 -2.5
-8.306733131408691 -3.5391721725463867 -2.5
-7.976811408996582 -4.186549186706543 -2.4943037033081055
-7.189486980438232 -4.546365737915039 -2.355220079421997
-5.556264400482178 -4.922420501708984 -2.0552825927734375
-5.538959980010986 -5.766665935516357 -2.2138829231262207
-5.379799842834473 -6.589080810546875 -2.355220079421997
-4.832143306732178 -7.000611305236816 -2.355220079421997
-3.8707568645477295 -8.157503128051758 -2.5
-1.0883691310882568 -8.963445663452148 -2.5
1.8060985803604126 -8.846795082092285 -2.5
2.0349364280700684 -7.025396347045898 -2.0251271724700928
3.8707761764526367 -8.157505989074707 -2.5
5.379814147949219 -6.589080810546875 -2.355220079421997
7.976820945739746 -4.186550140380859 -2.4943017959594727
8.3067626953125 -3.5391759872436523 -2.5
8.564589500427246 -2.859278440475464 -2.5
8.766899108886719 -2.160855770111084 -2.5
8.999995231628418 -0.7265551686286926 -2.5
-8.6551513671875 2.441406195430318e-06 -2.5
-8.543061256408691 -1.3883825540542603 -2.5
-8.403647422790527 -2.0713183879852295 -2.5
-7.962563514709473 -3.392526865005493 -2.5
-7.663754940032959 -4.02224588394165 -2.5
-5.467211723327637 -5.691966533660889 -2.2796642780303955
-3.4955224990844727 -7.366661071777344 -2.355220079421997
-1.0432714223861694 -8.592044830322266 -2.5
-0.3485107421875 -8.648131370544434 -2.5
1.0432616472244263 -8.592046737670898 -2.5
1.7312597036361694 -8.480230331420898 -2.5
2.408022403717041 -8.313424110412598 -2.5
2.644829034805298 -6.973844051361084 -2.1543593406677246
4.076957702636719 -7.061497688293457 -2.355220079421997
4.220820426940918 -4.394346714019775 -1.7599581480026245
7.663764476776123 -4.022248268127441 -2.5
8.20974063873291 -2.7408056259155273 -2.5
8.54305648803711 -1.3883849382400513 -2.5
8.627079963684082 -0.6964501738548279 -2.5
-8.067251205444336 -1.988402009010315 -2.5
-7.881078720092773 -2.6310863494873047 -2.5
-7.643813133239746 -3.2567224502563477 -2.5
-7.356977462768555 -3.8612303733825684 -2.5
-6.656928539276123 -4.209587097167969 -2.369887590408325
-6.257631778717041 -4.70231294631958 -2.355220079421997
-5.039516448974609 -4.464636325836182 -2.025817632675171
-4.950453758239746 -6.063221454620361 -2.355220079421997
-4.446498870849609 -6.44190788269043 -2.355220079421997
-3.9137351512908936 -6.778819561004639 -2.355220079421997
-3.3555908203125 -7.07176399230957 -2.355220079421997
-2.7756738662719727 -7.318846225738525 -2.355220079421997
-2.177739143371582 -7.518460750579834 -2.355220079421997
1.001503825187683 -8.24809455871582 -2.5
1.6619579792022705 -8.140755653381348 -2.5
2.1777539253234863 -7.518463134765625 -2.355220079421997
2.644829034805298 -6.973844051361084 -2.244196653366089
3.355595588684082 -7.071768760681152 -2.355220079421997
4.446533203125 -6.441905498504639 -2.355220079421997
4.95046854019165 -6.063223838806152 -2.355220079421997
4.220820426940918 -4.394346714019775 -1.8333481550216675
5.057778358459473 -4.480804443359375 -2.0331530570983887
5.850898265838623 -4.396665096282959 -2.202131986618042
6.656923770904541 -4.209587097167969 -2.3698859214782715
7.356977462768555 -3.8612327575683594 -2.5
7.881093502044678 -2.6310887336730957 -2.5
8.201088905334473 -1.3328051567077637 -2.5
-7.98681116104126 2.441406195430318e-06 -2.5
-7.575776100158691 -2.5291638374328613 -2.5
-7.347700119018555 -3.130561351776123 -2.5
-5.48428201675415 -4.858660697937012 -2.293449878692627
-5.212250709533691 -5.426529407501221 -2.355220079421997
-3.7621142864227295 -6.516214370727539 -2.355220079421997
-2.668144464492798 -7.035323143005371 -2.355220079421997
-0.9069579839706421 -7.469422340393066 -2.355220079421997
-0.302978515625 -7.518184661865234 -2.355220079421997
2.093398332595825 -7.227205753326416 -2.355220079421997
3.7621335983276367 -6.516219139099121 -2.355220079421997
5.850893497467041 -4.396665096282959 -2.290876626968384
7.071972370147705 -3.7116575241088867 -2.5
7.754741191864014 -1.9113744497299194 -2.5
7.960927486419678 -0.6426708698272705 -2.5
-7.686967372894287 3.662109293145477e-06 -2.5
-7.662035942077637 -0.6185412406921387 -2.5
-7.463588714599609 -1.8396154642105103 -2.5
-7.071840763092041 -3.0130298137664795 -2.5
-6.806459903717041 -3.572308301925659 -2.5
-5.789399147033691 -4.350449085235596 -2.355220079421997
-5.420541763305664 -4.802200794219971 -2.355220079421997
-5.016567230224609 -5.222798824310303 -2.355220079421997
-4.580014705657959 -5.609527587890625 -2.355220079421997
-4.113793849945068 -5.959876537322998 -2.355220079421997
-3.6208934783935547 -6.271575927734375 -2.355220079421997
-2.014785051345825 -6.955874919891357 -2.355220079421997
-0.8729101419448853 -7.188997745513916 -2.355220079421997
1.448549747467041 -7.09544563293457 -2.355220079421997
2.567983388900757 -6.771194934844971 -2.355220079421997
3.1045165061950684 -6.542601108551025 -2.355220079421997
2.5488524436950684 -4.414734840393066 -1.657902479171753
4.113803386688232 -5.959876537322998 -2.355220079421997
4.580039024353027 -5.609527587890625 -2.355220079421997
5.789399147033691 -4.350452899932861 -2.355220079421997
7.071860313415527 -3.0130298137664795 -2.5
7.291371822357178 -2.4342150688171387 -2.5
7.662045955657959 -0.6185436844825745 -2.5
-7.4068603515625 0.0 -2.5
-7.310952186584473 -1.1881481409072876 -2.5
-6.814165115356445 -2.90324330329895 -2.5
-6.558452129364014 -3.442145824432373 -2.5
-5.223031997680664 -4.627221584320068 -2.355220079421997
-4.833764553070068 -5.032495021820068 -2.355220079421997
-3.65520977973938 -4.476848125457764 -1.9507296085357666
-3.9638915061950684 -5.742713451385498 -2.355220079421997
-2.9913768768310547 -6.304207801818848 -2.355220079421997
-2.4744043350219727 -6.524468898773193 -2.355220079421997
-1.3957617282867432 -6.836905479431152 -2.355220079421997
-0.2809814512729645 -6.972264289855957 -2.355220079421997
0.2809765636920929 -6.972266674041748 -2.355220079421997
1.3957666158676147 -6.836907863616943 -2.355220079421997
2.474414110183716 -6.524473667144775 -2.355220079421997
2.99139142036438 -6.304207801818848 -2.355220079421997
2.535703182220459 -4.391950607299805 -1.711717128753662
3.9639110565185547 -5.742715835571289 -2.355220079421997
4.413149356842041 -5.405135154724121 -2.355220079421997
4.220820426940918 -4.394346714019775 -2.056563138961792
5.22305154800415 -4.627223968505859 -2.355220079421997
5.603007793426514 -4.210383415222168 -2.3655855655670166
6.55846643447876 -3.4421446323394775 -2.5
6.814184188842773 -2.90324330329895 -2.5
7.191650390625 -1.7725841999053955 -2.5
7.310966491699219 -1.1881506443023682 -2.5
-7.121420860290527 -0.5748986601829529 -2.5
-6.776899337768555 -2.262463331222534 -2.5
-6.5728759765625 -2.8004369735717773 -2.5
-6.326205730438232 -3.3202550411224365 -2.5
-6.038520336151123 -3.818535089492798 -2.5
-5.583676815032959 -4.195866584777832 -2.4439756870269775
-4.662592887878418 -4.854289531707764 -2.355220079421997
-4.256860256195068 -5.21373176574707 -2.355220079421997
-3.8235204219818115 -5.539359092712402 -2.355220079421997
-2.578618049621582 -4.466300964355469 -1.8045971393585205
-2.885449171066284 -6.080967903137207 -2.355220079421997
-2.386772394180298 -6.293428897857666 -2.355220079421997
-1.8726269006729126 -6.465079307556152 -2.355220079421997
-0.8113232254981995 -6.681756496429443 -2.355220079421997
-0.2710302770137787 -6.725372314453125 -2.355220079421997
1.3463428020477295 -6.594803333282471 -2.355220079421997
2.386791944503784 -6.293433666229248 -2.355220079421997
2.535698175430298 -4.391950607299805 -1.7745556831359863
3.823549747467041 -5.539359092712402 -2.355220079421997
4.220820426940918 -4.394346714019775 -2.13206148147583
5.583691120147705 -4.195868015289307 -2.443974256515503
6.936986923217773 -1.7098156213760376 -2.5
7.052070140838623 -1.1460778713226318 -2.5
-6.898412704467773 1.220703097715159e-06 -2.5
-6.876039981842041 -0.5550891160964966 -2.5
-6.809067249298096 -1.1065856218338013 -2.5
-6.543383598327637 -2.1845054626464844 -2.5
-6.346381664276123 -2.703941583633423 -2.5
-5.830463886260986 -3.6869640350341797 -2.5
-5.514877796173096 -4.144163608551025 -2.5
-4.501938343048096 -4.687027454376221 -2.355220079421997
-4.110190391540527 -5.034085750579834 -2.355220079421997
-3.691782236099243 -5.348494529724121 -2.355220079421997
-3.24944806098938 -5.628211498260498 -2.355220079421997
-0.7833691239356995 -6.451521873474121 -2.355220079421997
-0.2616845667362213 -6.49363899230957 -2.355220079421997
0.7833544611930847 -6.451527118682861 -2.355220079421997
2.7860350608825684 -5.871438980102539 -2.355220079421997
2.535703182220459 -4.391950607299805 -1.8378831148147583
3.6917920112609863 -5.348494529724121 -2.355220079421997
4.110199928283691 -5.034088134765625 -2.355220079421997
4.220820426940918 -4.394346714019775 -2.2081456184387207
5.514882564544678 -4.144163608551025 -2.5
5.8304443359375 -3.6869664192199707 -2.5
6.108237266540527 -3.2058520317077637 -2.5
6.543398380279541 -2.184504270553589 -2.5
6.697958946228027 -1.6509008407592773 -2.5
6.80908203125 -1.1065856218338013 -2.5
6.876049518585205 -0.5550915598869324 -2.5
-6.645209789276123 -0.5364574790000916 -2.5
-6.580502986907959 -1.0694384574890137 -2.5
-6.133354187011719 -2.6131725311279297 -2.5
-5.903188228607178 -3.098233461380005 -2.5
-5.634731292724609 -3.563199281692505 -2.5
-5.32974100112915 -4.005048751831055 -2.5
-4.7496337890625 -4.20781135559082 -2.3794822692871094
-4.350815296173096 -4.52969217300415 -2.355220079421997
-3.9722118377685547 -4.865102291107178 -2.355220079421997
-3.0800535678863525 -4.462227821350098 -2.0332019329071045
-3.1403660774230957 -5.439288139343262 -2.355220079421997
-1.7474071979522705 -6.032769680023193 -2.355220079421997
-1.2563036680221558 -6.153819561004639 -2.355220079421997
-0.25291013717651367 -6.275652885437012 -2.355220079421997
0.2528955042362213 -6.275655269622803 -2.355220079421997
0.8961474299430847 -4.389618873596191 -1.6800163984298706
1.6987890005111694 -5.864871501922607 -2.2896714210510254
2.1116697788238525 -5.567989349365234 -2.23305606842041
2.692514657974243 -5.674341678619385 -2.355220079421997
3.972231388092041 -4.865104675292969 -2.355220079421997
5.329755783081055 -4.005051136016846 -2.5
5.90319299697876 -3.098233461380005 -2.5
-6.116684436798096 -2.042050838470459 -2.5
-5.932534217834473 -2.527616024017334 -2.5
-5.709907054901123 -2.9967918395996094 -2.5
-5.450258731842041 -3.4465367794036865 -2.5
-4.734438419342041 -4.194354057312012 -2.452158212661743
-2.1190381050109863 -4.465804576873779 -1.9163401126861572
-2.154252767562866 -5.680323123931885 -2.355220079421997
-1.2151904106140137 -5.952334880828857 -2.355220079421997
0.7322753667831421 -6.030816555023193 -2.355220079421997
1.6902098655700684 -5.835249900817871 -2.355220079421997
3.4510693550109863 -4.999719142913818 -2.355220079421997
5.155253887176514 -3.8739209175109863 -2.5
5.709921836853027 -2.9967968463897705 -2.5
6.261186599731445 -1.5432446002960205 -2.5
-6.061010837554932 -1.4939086437225342 -2.5
-5.921147346496582 -1.9767712354660034 -2.5
-5.276010513305664 -3.336359739303589 -2.5
-4.672504901885986 -4.139488220214844 -2.5
-2.085390567779541 -5.498741149902344 -2.355220079421997
-1.6361620426177979 -5.648712158203125 -2.355220079421997
-0.9116942882537842 -4.465749263763428 -1.8253591060638428
-0.7088720798492432 -5.83802604675293 -2.355220079421997
0.23679198324680328 -5.876133918762207 -2.355220079421997
0.7088671922683716 -5.838023662567139 -2.355220079421997
1.6361767053604126 -5.648712158203125 -2.355220079421997
2.535703182220459 -4.391950607299805 -2.0310192108154297
3.340751886367798 -4.839893817901611 -2.355220079421997
3.7193455696105957 -4.555384635925293 -2.355220079421997
4.073837757110596 -4.241326808929443 -2.355220079421997
4.672509670257568 -4.139489650726318 -2.5
5.27603006362915 -3.33636212348938 -2.5
5.527387619018555 -2.9009947776794434 -2.5
5.921166896820068 -1.9767736196517944 -2.5
6.061025142669678 -1.4939111471176147 -2.5
6.161586761474609 -1.0013574361801147 -2.5
-6.047368049621582 1.220703097715159e-06 -2.5
-5.969047546386719 -0.9700683355331421 -2.5
-5.871645450592041 -1.4472326040267944 -2.5
-5.736147403717041 -1.915008544921875 -2.5
-4.526508808135986 -4.010149955749512 -2.5
-3.603139638900757 -4.413047790527344 -2.355220079421997
-3.2363524436950684 -4.688669204711914 -2.355220079421997
-2.0202245712280273 -5.326934814453125 -2.355220079421997
-1.5850390195846558 -5.472222805023193 -2.355220079421997
0.2294042855501175 -5.692533016204834 -2.355220079421997
0.6867138743400574 -5.655618667602539 -2.355220079421997
0.8961425423622131 -4.389618873596191 -1.852109670639038
1.5850536823272705 -5.472222805023193 -2.355220079421997
2.0202441215515137 -5.326934814453125 -2.355220079421997
4.834531307220459 -3.632913827896118 -2.5
5.111181735992432 -3.2321178913116455 -2.5
5.354687213897705 -2.8103528022766113 -2.5
5.969067096710205 -0.9700695872306824 -2.5
-5.862514495849609 2.441406195430318e-06 -2.5
-5.84350061416626 -0.4717346131801605 -2.5
-5.786596775054932 -0.9404150247573853 -2.5
-5.692152976989746 -1.402993083000183 -2.5
-5.393383502960205 -2.2979114055633545 -2.5
-4.686733245849609 -3.5218639373779297 -2.5
-2.3676562309265137 -4.98975944519043 -2.355220079421997
-1.1047509908676147 -5.411392688751221 -2.355220079421997
-0.22239257395267487 -5.518524169921875 -2.355220079421997
0.22239257395267487 -5.518521785736084 -2.355220079421997
0.8961474299430847 -4.389618873596191 -1.910510778427124
1.69582998752594 -4.471538066864014 -2.039358377456665
2.367680549621582 -4.989765644073486 -2.355220079421997
2.535703182220459 -4.391950607299805 -2.1626319885253906
3.1374363899230957 -4.54534912109375 -2.355220079421997
4.388154029846191 -3.887568235397339 -2.5
4.954941272735596 -3.1333141326904297 -2.5
5.191005706787109 -2.7244458198547363 -2.5
5.393398284912109 -2.2979087829589844 -2.5
5.560815334320068 -1.8564696311950684 -2.5
5.69216775894165 -1.4029918909072876 -2.5
5.843505859375 -0.4717346131801605 -2.5
-5.687016487121582 0.0 -2.5
-5.613373756408691 -0.9122631549835205 -2.5
-5.231928825378418 -2.229120969772339 -2.5
-3.434404134750366 -4.206386566162109 -2.387174606323242
-3.0435009002685547 -4.409277439117432 -2.355220079421997
-2.2967870235443115 -4.840395450592041 -2.355220079421997
-1.8998485803604126 -5.009509086608887 -2.355220079421997
-1.4905859231948853 -5.146140098571777 -2.355220079421997
-1.071679711341858 -5.249400615692139 -2.355220079421997
-0.2157324105501175 -5.353328704833984 -2.355220079421997
0.8961474299430847 -4.389618873596191 -1.9694674015045166
1.4906103610992432 -5.146141052246094 -2.355220079421997
2.296801805496216 -4.840396404266357 -2.355220079421997
2.535703182220459 -4.391950607299805 -2.2293689250946045
4.806616306304932 -3.039527416229248 -2.5
5.035610198974609 -2.6428868770599365 -2.5
5.231943130493164 -2.2291197776794434 -2.5
5.521767616271973 -1.3609936237335205 -2.5
-5.078413009643555 -2.163714647293091 -2.5
-4.131879806518555 -3.660543203353882 -2.5
-3.823920726776123 -3.9811484813690186 -2.5
-2.9541990756988525 -4.279905796051025 -2.355220079421997
-2.2293944358825684 -4.698372840881348 -2.355220079421997
-1.8441015481948853 -4.862529277801514 -2.355220079421997
-1.4468456506729126 -4.995147705078125 -2.355220079421997
-1.0402343273162842 -5.095374584197998 -2.355220079421997
0.1802685558795929 -4.473493576049805 -2.027625322341919
0.8961474299430847 -4.389618873596191 -2.0290002822875977
1.4468700885772705 -4.995147705078125 -2.355220079421997
4.413046836853027 -3.316192626953125 -2.5
4.887856483459473 -2.5653417110443115 -2.5
5.078432559967041 -2.1637158393859863 -2.5
5.448676586151123 -0.885498046875 -2.5
5.502265453338623 -0.4441857933998108 -2.5
-5.361264705657959 -3.662109293145477e-06 -2.5
-5.343881607055664 -0.4314001500606537 -2.5
-5.291831016540527 -0.8600097298622131 -2.5
-5.205463886260986 -1.2830346822738647 -2.5
-5.085346698760986 -1.6977392435073853 -2.5
-4.932240962982178 -2.101435422897339 -2.5
-4.747153282165527 -2.49150013923645 -2.5
-4.2860107421875 -3.220738410949707 -2.5
-2.9038963317871094 -4.207026481628418 -2.383727550506592
-2.525385618209839 -4.374104976654053 -2.355220079421997
-1.4052050113677979 -4.851373195648193 -2.355220079421997
-1.010292887687683 -4.948708534240723 -2.355220079421997
-0.6088036894798279 -5.013955116271973 -2.355220079421997
0.6088085770606995 -5.013957500457764 -2.355220079421997
0.8961474299430847 -4.389618873596191 -2.0891335010528564
1.4052245616912842 -4.851371765136719 -2.355220079421997
1.7910351753234863 -4.722567081451416 -2.355220079421997
2.525405168533325 -4.374107360839844 -2.355220079421997
3.3907275199890137 -4.152863502502441 -2.5
3.7138671875 -3.8665611743927 -2.5
4.012959003448486 -3.5551843643188477 -2.5
4.531283855438232 -2.865412473678589 -2.5
4.932255744934082 -2.1014366149902344 -2.5
5.20547342300415 -1.2830419540405273 -2.5
