ply
format ascii 1.0
element vertex 998
property float x
property float y
property float z
end_header
18.393104553222656 1.484865665435791 4.944447040557861
12.092883110046387 17.519561767578125 5.7040605545043945
10.393014907836914 18.00123405456543 5.569598197937012
6.669946193695068 17.587186813354492 5.039988994598389
0.7528368830680847 18.68152618408203 5.009761810302734
-2.2693700790405273 18.68993377685547 5.044734477996826
-3.81646466255188 18.694236755371094 5.112422943115234
-5.416157245635986 18.698686599731445 5.216245651245117
-7.093227386474609 18.703350067138672 5.35984992980957
-8.877197265625 18.708311080932617 5.548590660095215
-13.074076652526855 18.941043853759766 6.16687536239624
16.958940505981445 1.2207030522404239e-05 4.343297481536865
18.12582778930664 1.4632885456085205 4.657247066497803
16.937986373901367 17.63432502746582 6.262135028839111
2.2678418159484863 18.67731285095215 4.818518161773682
-0.7529980540275574 18.68571662902832 4.789422512054443
-2.2693700790405273 18.68993377685547 4.821775436401367
-7.093227386474609 18.703351974487305 5.122963905334473
-10.804330825805664 18.713668823242188 5.53413200378418
-13.074076652526855 18.941041946411133 5.894323825836182
14.688102722167969 17.989665985107422 5.67442512512207
8.544130325317383 18.006372451782227 4.869688034057617
6.630478382110596 17.483137130737305 4.568560600280762
-0.7529980540275574 18.68571662902832 4.5692138671875
-2.2693700790405273 18.68993377685547 4.600078105926514
-3.816469669342041 18.694236755371094 4.661801815032959
-5.416152000427246 18.698686599731445 4.756472110748291
-10.804340362548828 18.71367073059082 5.279682636260986
-12.921195983886719 18.719554901123047 5.557554721832275
17.27239418029785 17.98247528076172 5.8001389503479
5.407416820526123 18.6685791015625 4.521182537078857
3.812143564224243 18.673025131225586 4.43330717086792
-0.753002941608429 18.685720443725586 4.350194454193115
-2.2693700790405273 18.689939498901367 4.379580020904541
-3.816469669342041 18.694242477416992 4.438345432281494
-5.416157245635986 18.698686599731445 4.528476238250732
-8.877202033996582 18.70831298828125 4.817001819610596
-10.804340362548828 18.71367073059082 5.026607513427734
-12.921195983886719 18.719554901123047 5.291160583496094
17.65155792236328 1.0986327652062755e-05 3.9004313945770264
20.288532257080078 17.974103927612305 5.989388465881348
17.27239418029785 17.98247528076172 5.509621620178223
12.057326316833496 17.468048095703125 4.69010591506958
6.700571060180664 17.66794204711914 4.175384521484375
5.407421588897705 18.668588638305664 4.294726371765137
0.7528319954872131 18.68153190612793 4.131374359130859
-0.753002941608429 18.685720443725586 4.132300853729248
-2.2693700790405273 18.689939498901367 4.160213947296143
-7.093236923217773 18.70335578918457 4.420079708099365
-12.921195983886719 18.719554901123047 5.026137351989746
19.0786075592041 1.3427734302240424e-05 3.9945499897003174
23.343097686767578 17.541210174560547 6.113541126251221
14.68810749053955 17.989667892456055 4.862550735473633
10.391777038574219 17.99908447265625 4.351522922515869
8.561493873596191 18.04296875 4.181431770324707
6.700571060180664 17.667943954467773 3.956291437149048
5.407426834106445 18.668588638305664 4.069371223449707
2.2678418159484863 18.677318572998047 3.9392571449279785
0.7528319954872131 18.68153190612793 3.914591073989868
-0.7529980540275574 18.685720443725586 3.9154679775238037
-2.2693700790405273 18.689939498901367 3.941917657852173
-3.816469669342041 18.694242477416992 3.9948108196258545
-7.093242168426514 18.70335578918457 4.188147068023682
-8.877211570739746 18.70831871032715 4.335627555847168
14.68719482421875 17.98855209350586 4.59423828125
12.18478012084961 17.65269660949707 4.243429660797119
10.414384841918945 18.038246154785156 4.120608806610107
8.5831880569458 18.088712692260742 3.960961103439331
6.700571060180664 17.667943954467773 3.73821759223938
5.407421588897705 18.668588638305664 3.845064640045166
2.2678418159484863 18.677318572998047 3.7221202850341797
0.7528368830680847 18.68153190612793 3.6988158226013184
-2.2693748474121094 18.689939498901367 3.7246360778808594
-3.816469669342041 18.694242477416992 3.774614095687866
-5.416157245635986 18.698692321777344 3.851266384124756
-8.877206802368164 18.708316802978516 4.096644401550293
-10.80434513092041 18.713674545288086 4.274904727935791
18.370725631713867 1.4648437172581907e-05 3.423238515853882
23.343116760253906 17.541210174560547 5.441044807434082
20.288537979125977 17.974103927612305 5.050843238830566
17.271635055541992 17.981687545776367 4.646049499511719
10.435193061828613 18.074298858642578 3.8890342712402344
8.65078067779541 18.231149673461914 3.760281801223755
5.407421588897705 18.668588638305664 3.621737003326416
3.8502538204193115 18.859731674194336 3.58685040473938
2.312978506088257 19.049022674560547 3.575706720352173
0.7678173780441284 19.053316116333008 3.5533177852630615
-2.320180654525757 19.108386993408203 3.58685040473938
-3.8502538204193115 18.859731674194336 3.58685040473938
-5.416162014007568 18.69869041442871 3.627578020095825
-7.093232154846191 18.70335578918457 3.7274467945098877
-10.804340362548828 18.713674545288086 4.026609897613525
-12.9212007522583 18.719558715820312 4.238533973693848
18.936920166015625 1.3427734302240424e-05 3.3120477199554443
17.27117347717285 17.981220245361328 4.360628128051758
14.760607719421387 18.078453063964844 4.0819597244262695
12.18477725982666 17.652694702148438 3.751511812210083
3.888007640838623 19.044635772705078 3.399592161178589
3.075024366378784 25.3250675201416 4.461862087249756
0.7781445384025574 19.30963134765625 3.3799779415130615
-0.7679833769798279 19.05758285522461 3.3358592987060547
-2.314526319503784 19.061885833740234 3.3583929538726807
-5.70571756362915 19.698413848876953 3.58685040473938
-12.9212007522583 18.719560623168945 3.9782493114471436
23.20500373840332 17.437435150146484 4.745835304260254
12.184782028198242 17.65269660949707 3.5070178508758545
10.53000259399414 18.23849105834961 3.443314790725708
6.700566291809082 17.667943954467773 3.0894787311553955
0.767822265625 19.053316116333008 3.117750883102417
-12.921195983886719 18.719560623168945 3.7189738750457764
20.35402488708496 18.032129287719727 4.137173175811768
17.27029800415039 17.98029327392578 3.793065071105957
12.18477725982666 17.652700424194336 3.2633917331695557
3.888012647628784 19.044635772705078 2.957267999649048
3.534965753555298 29.11298179626465 4.461862564086914
1.1808691024780273 29.303022384643555 4.461862564086914
-0.7679833769798279 19.05758285522461 2.901824951171875
-3.9447851181030273 19.322771072387695 3.000455141067505
-7.331728458404541 19.33220100402832 3.145672559738159
-12.572172164916992 26.49532127380371 4.461862087249756
-13.074110984802246 18.94108772277832 3.5015830993652344
23.450286865234375 17.621753692626953 4.1308274269104
20.542423248291016 18.19902992248535 3.864811897277832
17.277868270874023 17.988176345825195 3.512401580810547
12.18477725982666 17.652700424194336 3.0206048488616943
6.700571060180664 17.667943954467773 2.6609814167022705
5.440839767456055 18.78396224975586 2.753955125808716
3.888007640838623 19.044635772705078 2.7372496128082275
-5.598247051239014 19.327377319335938 2.8336260318756104
-7.234399318695068 19.075576782226562 2.8729870319366455
-12.957225799560547 22.442567825317383 3.6493639945983887
-13.074110984802246 18.941083908081055 3.2410740852355957
23.450284957885742 17.62175178527832 3.799837589263916
17.296981811523438 18.008073806762695 3.234532356262207
12.184784889221191 17.652700424194336 2.7785637378692627
5.440849304199219 18.78396224975586 2.533281087875366
3.888007640838623 19.044635772705078 2.5179150104522705
-7.331728458404541 19.33220100402832 2.6783287525177
-11.019350051879883 19.086095809936523 2.8548827171325684
23.45029640197754 17.621753692626953 3.46976375579834
10.676606178283691 18.4924259185791 2.5258238315582275
5.440839767456055 18.78396224975586 2.313243865966797
-3.9447898864746094 19.322771072387695 2.3327903747558594
-5.598251819610596 19.327377319335938 2.38016414642334
-13.074110984802246 18.941091537475586 2.722409725189209
17.326034545898438 18.038320541381836 2.6778581142425537
12.18478012084961 17.65269660949707 2.2965075969696045
10.461977005004883 18.12067985534668 2.2402288913726807
6.700571060180664 17.667943954467773 2.023090362548828
0.7528368830680847 18.68153190612793 2.0017666816711426
-3.81646466255188 18.694242477416992 2.0427873134613037
-5.416162014007568 18.69869041442871 2.0842721462249756
-7.093227386474609 18.703353881835938 2.1416521072387695
-11.019360542297363 19.086095809936523 2.3595826625823975
-13.074110984802246 18.941091537475586 2.4641244411468506
20.9940185546875 18.599105834960938 2.688924551010132
17.326032638549805 18.03832244873047 2.3978374004364014
10.49941349029541 18.185523986816406 2.0131499767303467
5.407421588897705 18.668588638305664 1.8633168935775757
3.812143564224243 18.673025131225586 1.8270995616912842
-0.7529980540275574 18.685720443725586 1.7928463220596313
-3.816469669342041 18.694242477416992 1.8291759490966797
-5.416162014007568 18.698692321777344 1.8663222789764404
-7.093236923217773 18.70335578918457 1.917702317237854
-8.877206802368164 18.708314895629883 1.9852322340011597
20.046361923217773 17.759550094604492 2.268345832824707
12.18478012084961 17.65269660949707 1.8167284727096558
6.700571060180664 17.667943954467773 1.6004360914230347
5.407421588897705 18.668588638305664 1.6461803913116455
2.2678418159484863 18.677318572998047 1.593544840812683
-3.816469669342041 18.694242477416992 1.616018295288086
-5.416157245635986 18.698692321777344 1.6488356590270996
-8.877206802368164 18.708316802978516 1.7538890838623047
-10.804340362548828 18.713674545288086 1.8302068710327148
-12.921195983886719 18.719560623168945 1.9265319108963013
17.21341323852539 17.92108917236328 1.8275542259216309
10.592660903930664 18.347021102905273 1.558111548423767
6.700571060180664 17.667943954467773 1.389729619026184
3.812138557434082 18.673025131225586 1.4016674757003784
0.7528319954872131 18.68153190612793 1.3750814199447632
-0.7529980540275574 18.685720443725586 1.3753899335861206
-3.816474437713623 18.694242477416992 1.4032601118087769
-5.416162014007568 18.698692321777344 1.4317572116851807
-8.877206802368164 18.708316802978516 1.522979736328125
-10.804340362548828 18.713674545288086 1.5892494916915894
23.45028305053711 17.621753692626953 1.8308089971542358
17.212621688842773 17.920244216918945 1.550844669342041
10.593091011047363 18.347768783569336 1.3223137855529785
2.267836809158325 18.677318572998047 1.1742874383926392
-2.2693700790405273 18.689939498901367 1.1750811338424683
-3.816469669342041 18.694242477416992 1.1908483505249023
-10.804340362548828 18.71367645263672 1.3486846685409546
-12.9212007522583 18.719560623168945 1.4196670055389404
12.18478012084961 17.65269660949707 1.100292682647705
6.700575828552246 17.667943954467773 0.969293475151062
2.2678465843200684 18.677318572998047 0.9651196002960205
-3.816469669342041 18.694242477416992 0.9787304401397705
-8.877206802368164 18.70832061767578 1.0622310638427734
-10.804330825805664 18.71367645263672 1.1084520816802979
-12.921195983886719 18.719560623168945 1.166791319847107
10.593950271606445 18.349271774291992 0.8515805006027222
5.407431602478027 18.668596267700195 0.781166672706604
-0.753002941608429 18.685726165771484 0.7516229152679443
-5.416162014007568 18.69869613647461 0.7824264168739319
-8.877206802368164 18.70831871032715 0.8322771787643433
17.210187911987305 17.917713165283203 0.7228909134864807
10.594379425048828 18.35000228881836 0.6165286302566528
6.700575828552246 17.667943954467773 0.5498123168945312
5.407426834106445 18.668596267700195 0.5655273199081421
2.2678465843200684 18.677324295043945 0.547444760799408
0.7528417706489563 18.681535720825195 0.5440170168876648
-2.269365072250366 18.689943313598633 0.5478146076202393
-3.81646466255188 18.694246292114258 0.5551654100418091
-5.416162014007568 18.698694229125977 0.5664392113685608
-8.877202033996582 18.70831871032715 0.602528989315033
-12.9212007522583 18.71956443786621 0.6618386507034302
17.153757095336914 9.002988815307617 0.34888914227485657
16.37368392944336 10.354104042053223 0.3488885462284088
12.18477725982666 17.652700424194336 0.38629087805747986
10.594809532165527 18.350744247436523 0.38160887360572815
6.700571060180664 17.667943954467773 0.3403002917766571
3.812143564224243 18.673032760620117 0.3432232737541199
2.2678418159484863 18.677324295043945 0.3388345241546631
0.7528368830680847 18.681535720825195 0.3367132544517517
-2.2693700790405273 18.689943313598633 0.33906370401382446
-3.81646466255188 18.694246292114258 0.34361326694488525
-5.416162014007568 18.69869613647461 0.35059112310409546
-10.804335594177246 18.71367835998535 0.38915619254112244
-12.921205520629883 18.71956443786621 0.4096377491950989
15.543266296386719 9.8289794921875 0.127369686961174
17.208574295043945 17.916030883789062 0.17205291986465454
12.18478012084961 17.65269660949707 0.1485583484172821
6.700566291809082 17.667943954467773 0.13087157905101776
5.407421588897705 18.668596267700195 0.13461211323738098
2.2678418159484863 18.677324295043945 0.13030791282653809
0.7528319954872131 18.681535720825195 0.12949217855930328
-2.2693700790405273 18.689943313598633 0.13039611279964447
-7.093236923217773 18.703359603881836 0.13854125142097473
-8.877206802368164 18.70831871032715 0.14341948926448822
-10.804340362548828 18.71367835998535 0.14966033399105072
-12.921205520629883 18.71956443786621 0.15753692388534546
15.95608139038086 10.09002685546875 -0.07845351845026016
23.45028305053711 17.621755599975586 -0.12189239263534546
10.595664024353027 18.35222816467285 -0.08806411176919937
3.888012647628784 19.044645309448242 -0.08077560365200043
0.757495105266571 18.7969970703125 -0.07817748934030533
-13.074145317077637 18.941144943237305 -0.09564696997404099
23.106647491455078 9.844820022583008 -0.3827287256717682
15.587836265563965 9.857163429260254 -0.281037300825119
23.45029067993164 17.62175178527832 -0.4469924867153168
17.206954956054688 17.914342880249023 -0.3785148561000824
12.184782028198242 17.65269660949707 -0.32685285806655884
10.59609317779541 18.35297393798828 -0.3229299783706665
5.440849304199219 18.783973693847656 -0.2980007827281952
3.888012647628784 19.044645309448242 -0.29619094729423523
15.587836265563965 9.857161521911621 -0.48550063371658325
23.45028305053711 17.621755599975586 -0.7721932530403137
12.184772491455078 17.65269660949707 -0.564648449420929
5.440844535827637 18.783973693847656 -0.5148025155067444
3.888007640838623 19.044647216796875 -0.5116795301437378
0.7574902176856995 18.7969970703125 -0.49522122740745544
-11.167607307434082 19.342864990234375 -0.5879629254341125
-13.074145317077637 18.941143035888672 -0.6058617830276489
23.106647491455078 9.844819068908691 -0.9397915601730347
18.853229522705078 9.894942283630371 -0.7966936826705933
15.587836265563965 9.857155799865723 -0.6900875568389893
23.45029640197754 17.621755599975586 -1.0975749492645264
12.18478012084961 17.652694702148438 -0.8025875687599182
3.888007640838623 19.044647216796875 -0.7272995114326477
0.757495105266571 18.7969970703125 -0.7039045691490173
-9.962275505065918 26.26837158203125 -1.0512036085128784
17.204498291015625 17.911788940429688 -1.2050344944000244
12.18478012084961 17.65269660949707 -1.040722370147705
6.700571060180664 17.667943954467773 -0.9168153405189514
5.440854549407959 18.783973693847656 -0.9488488435745239
3.888007640838623 19.044645309448242 -0.9430935382843018
2.6894969940185547 22.14995765686035 -1.0825952291488647
0.7574902176856995 18.7969970703125 -0.9127589464187622
-11.019354820251465 19.086101531982422 -1.0693060159683228
-13.074145317077637 18.941143035888672 -1.116684079170227
26.785287857055664 8.942251205444336 -1.6839584112167358
23.106647491455078 9.84482479095459 -1.4977798461914062
18.853227615356445 9.894942283630371 -1.269718885421753
17.20366096496582 17.910932540893555 -1.4809902906417847
12.18477725982666 17.65269660949707 -1.2791129350662231
-0.8255712985992432 20.48647689819336 -1.2226687669754028
-2.4881346225738525 20.491586685180664 -1.230957269668579
-7.782719612121582 20.52136993408203 -1.3088091611862183
-11.226327896118164 19.444570541381836 -1.3389278650283813
26.740062713623047 8.927154541015625 -1.994842529296875
18.853229522705078 9.894941329956055 -1.506672978401184
15.587836265563965 9.857160568237305 -1.305064082145691
10.598402976989746 18.35696792602539 -1.4999288320541382
6.700571060180664 17.667945861816406 -1.337109923362732
3.812148332595825 18.673032760620117 -1.3485959768295288
0.757495105266571 18.7969970703125 -1.3311936855316162
-7.598476409912109 26.232921600341797 -1.932598352432251
-7.839052677154541 20.66989517211914 -1.564315915107727
-8.877206802368164 18.70831871032715 -1.46531343460083
-10.804335594177246 18.71367835998535 -1.5290758609771729
26.7003116607666 8.913883209228516 -2.3056256771087646
18.85293960571289 9.894782066345215 -1.743970274925232
10.535661697387695 18.248300552368164 -1.7259103059768677
6.700571060180664 17.667943954467773 -1.547723412513733
3.812143564224243 18.673032760620117 -1.5610185861587524
2.2678465843200684 18.677324295043945 -1.541063904762268
-5.719653129577637 28.01667022705078 -2.34212327003479
-7.839047908782959 20.669897079467773 -1.810677409172058
-8.877206802368164 18.70831871032715 -1.6961275339126587
-10.804335594177246 18.71367835998535 -1.7699294090270996
-12.921205520629883 18.71956443786621 -1.863084316253662
-18.126678466796875 22.201135635375977 -2.347599983215332
-19.854473114013672 20.67070770263672 -2.347599983215332
-21.453310012817383 19.00601577758789 -2.347599983215332
-25.378334045410156 13.31956672668457 -2.347599983215332
26.07964515686035 6.428078651428223 -2.5
24.60401153564453 8.214032173156738 -2.4142556190490723
22.33363914489746 11.72160816192627 -2.347599983215332
15.587836265563965 9.857162475585938 -1.716576099395752
20.16414451599121 15.152389526367188 -2.347599983215332
15.952009201049805 19.537677764892578 -2.347599983215332
10.812789916992188 22.787519454956055 -2.347599983215332
6.700571060180664 17.66794204711914 -1.7587265968322754
5.407431602478027 18.668598175048828 -1.808996558189392
2.2678465843200684 18.677324295043945 -1.7511541843414307
-7.001054763793945 24.170413970947266 -2.342125415802002
-7.839047908782959 20.669898986816406 -2.057560682296753
-8.877202033996582 18.70831871032715 -1.9273568391799927
-10.804340362548828 18.71367835998535 -2.011223793029785
-12.921205520629883 18.71956443786621 -2.1170754432678223
-15.952006340026855 19.53767967224121 -2.347599983215332
-17.472412109375 18.19072914123535 -2.347599983215332
-21.318017959594727 13.480695724487305 -2.347599983215332
-22.333642959594727 11.72158145904541 -2.347599983215332
-24.340723037719727 8.126117706298828 -2.3884212970733643
-26.51230812072754 4.308679103851318 -2.5
23.89982032775879 1.92941153049469 -2.5
23.667097091674805 3.846299886703491 -2.5
23.28084945678711 5.73823356628418 -2.5
22.743621826171875 7.5929460525512695 -2.5
16.853403091430664 14.930830955505371 -2.347599983215332
15.597318649291992 16.238542556762695 -2.347599983215332
14.24008560180664 17.440948486328125 -2.347599983215332
10.536518096923828 18.249786376953125 -2.1971592903137207
9.652389526367188 20.341997146606445 -2.347599983215332
2.2678418159484863 18.677324295043945 -1.9616756439208984
-4.487148284912109 21.979381561279297 -2.338927984237671
-8.877206802368164 18.70832061767578 -2.1590609550476074
-7.453266620635986 10.797919273376465 -1.3679919242858887
-14.240082740783691 17.440946578979492 -2.347599983215332
-20.714174270629883 8.825472831726074 -2.347599983215332
21.64889907836914 3.662109293145477e-06 -2.5
21.57869529724121 1.7420226335525513 -2.5
21.368549346923828 3.4727416038513184 -2.5
21.019817352294922 5.18093729019165 -2.5
19.276691436767578 8.213027000427246 -2.419682741165161
17.182018280029297 10.865262985229492 -2.347599983215332
15.216593742370605 13.480751991271973 -2.347599983215332
14.082511901855469 14.661458015441895 -2.347599983215332
10.164596557617188 17.605581283569336 -2.347599983215332
8.7149658203125 18.366403579711914 -2.347599983215332
5.407426834106445 18.668596267700195 -2.244453191757202
-4.051352500915527 19.844751358032227 -2.338927984237671
-5.635029315948486 19.45440101623535 -2.3389275074005127
-7.182192325592041 18.937889099121094 -2.338927984237671
-10.164589881896973 17.60557746887207 -2.347599983215332
-7.423105239868164 10.754216194152832 -1.5090100765228271
-14.082504272460938 14.661447525024414 -2.347599983215332
-15.216591835021973 13.480735778808594 -2.347599983215332
-19.276723861694336 8.213025093078613 -2.419687032699585
-20.53474998474121 6.855502128601074 -2.5
-21.3685302734375 3.472731828689575 -2.5
19.72798728942871 4.882812390860636e-06 -2.5
19.66401481628418 1.587457299232483 -2.5
19.472517013549805 3.164606809616089 -2.5
19.15473175048828 4.721230506896973 -2.5
15.657450675964355 9.901185035705566 -2.347599983215332
12.832963943481445 13.36054515838623 -2.347599983215332
11.716279029846191 14.349848747253418 -2.347599983215332
9.262685775756836 16.043437957763672 -2.347599983215332
7.941684246063232 16.736753463745117 -2.347599983215332
6.569189071655273 17.321516036987305 -2.347599983215332
3.70556640625 18.150976181030273 -2.347599983215332
2.232988119125366 18.390291213989258 -2.347599983215332
-5.154091835021973 17.793935775756836 -2.347599983215332
-9.262685775756836 16.043428421020508 -2.347599983215332
-11.716264724731445 14.34984016418457 -2.347599983215332
-13.866430282592773 12.284584999084473 -2.347599983215332
-15.65743637084961 9.901171684265137 -2.347599983215332
-16.40338897705078 8.60915470123291 -2.347599983215332
-18.712709426879883 6.247212886810303 -2.5
-19.664003372192383 1.587435245513916 -2.5
18.116058349609375 4.882812390860636e-06 -2.5
18.057310104370117 1.4577478170394897 -2.5
17.881454467773438 2.9060325622558594 -2.5
17.183744430541992 5.736779689788818 -2.5
14.378124237060547 9.092182159423828 -2.347599983215332
13.59987735748291 10.219653129577637 -2.347599983215332
12.733434677124023 11.28085708618164 -2.347599983215332
11.784419059753418 12.268882751464844 -2.347599983215332
7.292783260345459 15.369229316711426 -2.347599983215332
3.402787923812866 16.66790008544922 -2.347599983215332
2.050537109375 16.887662887573242 -2.347599983215332
0.6849902272224426 16.997900009155273 -2.347599983215332
-2.050527334213257 16.887659072875977 -2.347599983215332
-4.732958793640137 16.340038299560547 -2.347599983215332
-6.032416820526123 15.906211853027344 -2.347599983215332
-10.758955001831055 13.177346229553223 -2.347599983215332
-11.784399032592773 12.268878936767578 -2.347599983215332
-12.73342227935791 11.280840873718262 -2.347599983215332
-13.59987735748291 10.219639778137207 -2.347599983215332
-14.378114700317383 9.092169761657715 -2.347599983215332
-15.6422119140625 8.209660530090332 -2.4378557205200195
-16.666391372680664 7.100876808166504 -2.5
-17.589624404907227 4.335451602935791 -2.5
16.689470291137695 1.3473241329193115 -2.5
16.526935577392578 2.6859045028686523 -2.5
16.257219314575195 4.007056713104248 -2.5
15.882067680358887 5.302220344543457 -2.5
13.28897476196289 8.403444290161133 -2.347599983215332
12.569694519042969 9.445504188537598 -2.347599983215332
10.891742706298828 11.33951187133789 -2.347599983215332
6.74035120010376 14.205005645751953 -2.347599983215332
5.575473308563232 14.701315879821777 -2.347599983215332
3.145029306411743 15.405303955078125 -2.347599983215332
1.895205020904541 15.608417510986328 -2.347599983215332
-1.8952001333236694 15.608416557312012 -2.347599983215332
-3.145024299621582 15.40530014038086 -2.347599983215332
-6.740341663360596 14.20500373840332 -2.347599983215332
-7.861523151397705 13.616561889648438 -2.347599983215332
-8.931718826293945 12.93980884552002 -2.347599983215332
-10.891733169555664 11.339506149291992 -2.347599983215332
-11.768872261047363 10.426315307617188 -2.347599983215332
-13.28896427154541 8.403435707092285 -2.347599983215332
-16.257211685180664 4.007045745849609 -2.5
-16.689453125 1.3473070859909058 -2.5
15.359572410583496 2.4961888790130615 -2.5
15.108905792236328 3.724022150039673 -2.5
14.315885543823242 6.099429607391357 -2.5
11.68184757232666 8.778341293334961 -2.347599983215332
10.93759536743164 9.68988037109375 -2.347599983215332
10.122428894042969 10.538561820983887 -2.347599983215332
7.306249618530273 12.65478229522705 -2.347599983215332
6.264252662658691 13.20165729522705 -2.347599983215332
2.9228808879852295 14.31717300415039 -2.347599983215332
1.7613427639007568 14.505939483642578 -2.347599983215332
0.58837890625 14.600629806518555 -2.347599983215332
-1.7613329887390137 14.505939483642578 -2.347599983215332
-2.9228758811950684 14.31717300415039 -2.347599983215332
-4.06545877456665 14.035551071166992 -2.347599983215332
-9.241591453552246 11.318903923034668 -2.347599983215332
-10.937582969665527 9.689868927001953 -2.347599983215332
-12.97423267364502 8.204412460327148 -2.4661967754364014
-13.778656959533691 7.231588363647461 -2.5
-15.108905792236328 3.724008798599243 -2.5
-15.359550476074219 2.496177911758423 -2.5
-15.51060962677002 1.252142310142517 -2.5
14.108808517456055 3.477518320083618 -2.5
13.783234596252441 4.601524353027344 -2.5
13.368273735046387 5.695688247680664 -2.5
12.866605758666992 6.752923011779785 -2.5
10.213603019714355 9.048476219177246 -2.347599983215332
6.822621822357178 11.817126274108887 -2.347599983215332
2.7294139862060547 13.369476318359375 -2.347599983215332
1.6447558403015137 13.54574966430664 -2.347599983215332
-1.6447460651397705 13.545746803283691 -2.347599983215332
-3.7963523864746094 13.106494903564453 -2.347599983215332
-4.838666915893555 12.758522987365723 -2.347599983215332
-5.849599361419678 12.327795028686523 -2.347599983215332
-6.822612285614014 11.817121505737305 -2.347599983215332
-7.751381874084473 11.229803085327148 -2.347599983215332
-8.629862785339355 10.569669723510742 -2.347599983215332
-9.452383041381836 9.840980529785156 -2.347599983215332
-12.280195236206055 7.76553201675415 -2.4997363090515137
-12.866605758666992 6.752908706665039 -2.5
-13.368261337280273 5.6956787109375 -2.5
-13.78322696685791 4.601513385772705 -2.5
-14.10879898071289 3.477505922317505 -2.5
-14.342870712280273 2.3309483528137207 -2.5
13.229738235473633 3.260845899581909 -2.5
12.924448013305664 4.3148193359375 -2.5
12.535346031188965 5.340811729431152 -2.5
12.06493854522705 6.332171440124512 -2.5
10.862472534179688 8.162619590759277 -2.4930059909820557
8.863451957702637 9.227827072143555 -2.347599983215332
7.268417835235596 10.530121803283691 -2.347599983215332
5.485141277313232 11.559697151184082 -2.347599983215332
3.559819221496582 12.289875030517578 -2.347599983215332
2.5593504905700684 12.536469459533691 -2.347599983215332
1.542275309562683 12.701760292053223 -2.347599983215332
0.5152001976966858 12.784672737121582 -2.347599983215332
-0.5152148604393005 12.784671783447266 -2.347599983215332
-1.54226553440094 12.701757431030273 -2.347599983215332
-4.537192344665527 11.963579177856445 -2.347599983215332
-5.485126972198486 11.5596923828125 -2.347599983215332
-6.397519588470459 11.08083724975586 -2.347599983215332
-8.0921630859375 9.911109924316406 -2.347599983215332
-9.577226638793945 8.484689712524414 -2.347599983215332
-10.86246109008789 8.162612915039062 -2.4930062294006348
-11.516274452209473 7.282456398010254 -2.5
-12.064921379089355 6.332156658172607 -2.5
-12.535326957702637 5.340803146362305 -2.5
-12.924443244934082 4.314806938171387 -2.5
-13.5814790725708 1.096405029296875 -2.5
12.823447227478027 2.441406195430318e-06 -2.5
12.45082950592041 3.068859815597534 -2.5
11.797316551208496 5.026365756988525 -2.5
11.35460376739502 5.959356784820557 -2.5
10.838249206542969 6.853701114654541 -2.5
9.271586418151855 8.213919639587402 -2.4148569107055664
6.020864009857178 10.428444862365723 -2.347599983215332
5.162197113037109 10.879108428955078 -2.347599983215332
4.27004861831665 11.259214401245117 -2.347599983215332
0.48486328125 12.031962394714355 -2.347599983215332
-0.4848730266094208 12.031961441040039 -2.347599983215332
-2.4086570739746094 11.798372268676758 -2.347599983215332
-6.020849704742432 10.42844295501709 -2.347599983215332
-6.84048318862915 9.910140991210938 -2.347599983215332
-8.341596603393555 8.684526443481445 -2.347599983215332
-9.271601676940918 8.213919639587402 -2.4148590564727783
-10.838236808776855 6.853693008422852 -2.5
-11.354584693908691 5.959344387054443 -2.5
-11.797294616699219 5.026356220245361 -2.5
-12.4508056640625 3.06884765625 -2.5
-12.657377243041992 2.0570263862609863 -2.5
12.107522010803223 3.662109293145477e-06 -2.5
12.06826400756836 0.9742565751075745 -2.5
11.950729370117188 1.9421923160552979 -2.5
11.755695343017578 2.897529125213623 -2.5
11.138664245605469 4.745739459991455 -2.5
10.233144760131836 6.471060752868652 -2.5
9.679269790649414 7.273497581481934 -2.5
9.046357154846191 8.014382362365723 -2.495518684387207
7.1905517578125 8.806825637817383 -2.347599983215332
6.458574295043945 9.356865882873535 -2.347599983215332
5.684716701507568 9.84622573852539 -2.347599983215332
4.873984336853027 10.271726608276367 -2.347599983215332
3.1631834506988525 10.920551300048828 -2.347599983215332
2.274184465408325 11.139665603637695 -2.347599983215332
0.4577978551387787 11.360214233398438 -2.347599983215332
-1.370424747467041 11.286538124084473 -2.347599983215332
-3.1631834506988525 10.920546531677246 -2.347599983215332
-4.031655311584473 10.630607604980469 -2.347599983215332
-5.684706687927246 9.846217155456543 -2.347599983215332
-7.190536975860596 8.8068208694458 -2.347599983215332
-7.896611213684082 8.221247673034668 -2.3537802696228027
-9.04635238647461 8.014373779296875 -2.495518684387207
-10.233144760131836 6.471052169799805 -2.5
-11.48439884185791 3.8340563774108887 -2.5
11.464523315429688 3.662109293145477e-06 -2.5
11.427346229553223 0.9225146174430847 -2.5
11.13138198852539 2.743649959564209 -2.5
10.547121047973633 4.493708610534668 -2.5
9.689697265625 6.127400875091553 -2.5
9.165226936340332 6.887220859527588 -2.5
8.581313133239746 7.602386951446533 -2.5
7.877997875213623 8.201868057250977 -2.4799318313598633
3.817558526992798 10.066046714782715 -2.347599983215332
2.1534130573272705 10.54806900024414 -2.347599983215332
1.2976512908935547 10.687143325805664 -2.347599983215332
-0.4334960877895355 10.756903648376465 -2.347599983215332
-1.297646403312683 10.687143325805664 -2.347599983215332
-3.8175437450408936 10.066044807434082 -2.347599983215332
-8.487666130065918 7.5194244384765625 -2.4727208614349365
-10.151328086853027 5.32781982421875 -2.5
-11.3160400390625 1.8390380144119263 -2.5
10.84841251373291 0.8757799863815308 -2.5
10.742768287658691 1.745876431465149 -2.5
10.012795448303223 4.266049861907959 -2.5
9.198798179626465 5.816971302032471 -2.5
7.534584999084473 7.844341278076172 -2.4984006881713867
6.703456878662109 8.210250854492188 -2.434666156768799
5.805751800537109 8.411092758178711 -2.347599983215332
5.110112190246582 8.850982666015625 -2.347599983215332
4.381328105926514 9.233473777770996 -2.347599983215332
1.2319140434265137 10.145718574523926 -2.347599983215332
-1.2319042682647705 10.145709037780762 -2.347599983215332
-2.843447208404541 9.816712379455566 -2.347599983215332
-5.805747032165527 8.411077499389648 -2.347599983215332
-6.632915019989014 8.123858451843262 -2.4090471267700195
-7.353222370147705 7.655526638031006 -2.4382662773132324
-8.70089340209961 6.538299560546875 -2.5
-9.637041091918945 5.057900428771973 -2.5
-10.012787818908691 4.266039848327637 -2.5
-10.32357406616211 3.4465172290802 -2.5
-10.742743492126465 1.7458752393722534 -2.5
-10.848388671875 0.8757702708244324 -2.5
10.356354713439941 1.220703097715159e-06 -2.5
9.823386192321777 3.279527425765991 -2.5
9.527641296386719 4.059346675872803 -2.5
9.1701021194458 4.812841892242432 -2.5
8.753100395202637 5.535121917724609 -2.5
7.17410135269165 7.469029903411865 -2.5
6.538363933563232 8.008050918579102 -2.4956259727478027
5.670331954956055 8.21489429473877 -2.4095940589904785
4.862509727478027 8.422124862670898 -2.347599983215332
4.169052600860596 8.786083221435547 -2.347599983215332
2.705683469772339 9.341066360473633 -2.347599983215332
-0.39159178733825684 9.717143058776855 -2.347599983215332
-1.1722118854522705 9.654122352600098 -2.347599983215332
-5.62938928604126 8.155591011047363 -2.3922009468078613
-7.145287990570068 7.439043998718262 -2.489964008331299
-9.527636528015137 4.059340953826904 -2.5
-10.055415153503418 2.478433847427368 -2.5
-10.222235679626465 1.6612805128097534 -2.5
-10.32275390625 0.8333337306976318 -2.5
9.875311851501465 2.441406195430318e-06 -2.5
9.588349342346191 2.3633203506469727 -2.5
9.08508014678955 3.8707921504974365 -2.5
8.74416446685791 4.589284420013428 -2.5
8.346503257751465 5.278018474578857 -2.5
7.894745826721191 5.932510852813721 -2.5
7.391777038574219 6.548545837402344 -2.5
6.840859413146973 7.122094631195068 -2.5
5.596210956573486 8.107514381408691 -2.4939401149749756
4.743700981140137 8.216337203979492 -2.4018025398254395
3.2883691787719727 8.670690536499023 -2.347599983215332
2.5799999237060547 8.907174110412598 -2.347599983215332
0.37339842319488525 9.265782356262207 -2.347599983215332
-0.37340331077575684 9.265785217285156 -2.347599983215332
-1.1177685260772705 9.2056884765625 -2.347599983215332
-2.5799951553344727 8.907171249389648 -2.347599983215332
-3.9779930114746094 8.38344955444336 -2.349135637283325
-4.713749885559082 8.164450645446777 -2.386636257171631
-6.84084939956665 7.122092247009277 -2.5
-8.744140625 4.589273452758789 -2.5
-9.085067749023438 3.8707823753356934 -2.5
-9.367079734802246 3.127185106277466 -2.5
-9.58834457397461 2.363309383392334 -2.5
-9.747416496276855 1.5841137170791626 -2.5
-9.843276023864746 0.7946264743804932 -2.5
9.312434196472168 1.513427734375 -2.5
8.949081420898438 2.9876391887664795 -2.5
8.679657936096191 3.6980504989624023 -2.5
8.353944778442383 4.384479999542236 -2.5
7.974047660827637 5.042478084564209 -2.5
7.542436122894287 5.66776704788208 -2.5
7.061903953552246 6.256306171417236 -2.5
6.535581111907959 6.804262638092041 -2.5
5.966869831085205 7.3080925941467285 -2.5
5.358959674835205 7.76379919052124 -2.499765634536743
4.704550743103027 8.148528099060059 -2.4932448863983154
3.141616106033325 8.283748626708984 -2.347599983215332
2.4648633003234863 8.509679794311523 -2.347599983215332
0.35673338174819946 8.852282524108887 -2.347599983215332
-1.77212393283844 8.680423736572266 -2.347599983215332
-5.308788776397705 7.691094398498535 -2.476358652114868
-6.535566329956055 6.804259300231934 -2.5
-7.061879634857178 6.25629997253418 -2.5
-7.542417049407959 5.667759895324707 -2.5
-7.974023342132568 5.042474269866943 -2.5
-8.35391616821289 4.384469985961914 -2.5
-8.679638862609863 3.6980443000793457 -2.5
-9.312421798706055 1.513421654701233 -2.5
9.000009536743164 0.7265588045120239 -2.5
8.766919136047363 2.160853147506714 -2.5
8.564619064331055 2.8592894077301025 -2.5
8.306772232055664 3.5391783714294434 -2.5
6.254804611206055 6.51194429397583 -2.5
4.512612342834473 7.8160834312438965 -2.4988796710968018
3.860659122467041 8.136146545410156 -2.493454933166504
3.1139745712280273 8.210856437683105 -2.4313998222351074
1.022011637687683 8.417036056518555 -2.347599983215332
-1.6959911584854126 8.307500839233398 -2.347599983215332
-3.0802831649780273 8.122063636779785 -2.4051058292388916
-3.78076171875 7.967801570892334 -2.441861629486084
-5.111376762390137 7.405092716217041 -2.491302967071533
-6.25478982925415 6.511941909790039 -2.5
-6.758495807647705 5.987518310546875 -2.5
-7.2183837890625 5.424267292022705 -2.5
-7.631444931030273 4.825840950012207 -2.5
-7.995019435882568 4.19610595703125 -2.5
-8.306747436523438 3.539170980453491 -2.5
-8.56459903717041 2.859283447265625 -2.5
-8.766899108886719 2.160845994949341 -2.5
-8.912343978881836 1.448400855064392 -2.5
-8.999990463256836 0.7265478372573853 -2.5
8.655170440673828 2.441406195430318e-06 -2.5
8.543086051940918 1.388393521308899 -2.5
8.403661727905273 2.0713183879852295 -2.5
7.962573051452637 3.392529249191284 -2.5
6.91930627822876 5.199520111083984 -2.5
6.478476524353027 5.739434719085693 -2.5
5.995639324188232 6.24212121963501 -2.5
5.47390604019165 6.704326152801514 -2.5
3.708745002746582 7.816003799438477 -2.4988811016082764
3.0624072551727295 8.074885368347168 -2.494493246078491
1.6766455173492432 8.21275520324707 -2.4211456775665283
0.9822461009025574 8.08951473236084 -2.3537802696228027
-0.3300830125808716 8.190850257873535 -2.367809295654297
-3.0043699741363525 7.9218974113464355 -2.447232961654663
-4.916698932647705 7.123043537139893 -2.5
-5.473896503448486 6.70432710647583 -2.5
-5.995615005493164 6.242118835449219 -2.5
-6.478461742401123 5.73942756652832 -2.5
-6.919286727905273 5.199515342712402 -2.5
-7.315238952636719 4.625881195068359 -2.5
-7.663749694824219 4.02224588394165 -2.5
-7.962558269500732 3.392524242401123 -2.5
-8.403642654418945 2.071312189102173 -2.5
-8.543061256408691 1.3883874416351318 -2.5
8.308691024780273 2.441406195430318e-06 -2.5
8.201098442077637 1.3328149318695068 -2.5
7.881093502044678 2.6310973167419434 -2.5
7.356982231140137 3.861241340637207 -2.5
5.755629539489746 5.992242336273193 -2.5
5.254785060882568 6.435946941375732 -2.5
4.154355525970459 7.195528507232666 -2.5
3.561879873275757 7.506479740142822 -2.5
2.9459521770477295 7.767811298370361 -2.4996979236602783
2.3081982135772705 7.968794822692871 -2.496291399002075
0.31499022245407104 7.816376209259033 -2.3537802696228027
-0.9748241901397705 8.028528213500977 -2.43344783782959
-2.917289972305298 7.692290306091309 -2.475395679473877
-3.5447704792022705 7.470460414886475 -2.488004207611084
-4.154340744018555 7.195522785186768 -2.5
-4.71987771987915 6.837902545928955 -2.5
-5.755605220794678 5.992240905761719 -2.5
-6.21911096572876 5.509671688079834 -2.5
-6.642299652099609 4.991370677947998 -2.5
-7.022402286529541 4.44070291519165 -2.5
-7.35696268081665 3.8612377643585205 -2.5
-7.881078720092773 2.631089925765991 -2.5
-8.281728744506836 0.6685656309127808 -2.5
7.986825942993164 2.441406195430318e-06 -2.5
7.960927486419678 0.6426733136177063 -2.5
7.883403301239014 1.281185269355774 -2.5
7.57580041885376 2.5291759967803955 -2.5
7.347719669342041 3.130563974380493 -2.5
6.385009765625 4.79802131652832 -2.5
5.978222370147705 5.29624605178833 -2.5
5.532660961151123 5.760109901428223 -2.5
5.051230430603027 6.186633110046387 -2.5
4.537021160125732 6.573023319244385 -2.5
2.832167863845825 7.467804908752441 -2.5
2.2220799922943115 7.671474933624268 -2.5
0.3041699230670929 7.547908306121826 -2.3645341396331787
-0.94764643907547 7.804657936096191 -2.4609265327453613
-2.2052295207977295 7.613373756408691 -2.4810659885406494
-2.8202781677246094 7.43648624420166 -2.489516496658325
-3.42388653755188 7.215690612792969 -2.5
-7.071962833404541 3.711651563644409 -2.5
-7.347695350646973 3.1305577754974365 -2.5
-7.754726409912109 1.9113671779632568 -2.5
-7.883378505706787 1.2811791896820068 -2.5
7.662045955657959 0.6185449361801147 -2.5
7.463603496551514 1.8396166563034058 -2.5
6.806474685668945 3.5723118782043457 -2.5
6.496953010559082 4.108426570892334 -2.5
6.145297527313232 4.617884635925293 -2.5
5.324946403503418 5.543857097625732 -2.5
4.861581802368164 5.954365253448486 -2.5
4.366694450378418 6.326251029968262 -2.5
3.295351505279541 6.944791793823242 -2.5
2.725839853286743 7.187437534332275 -2.5
-0.3071044981479645 7.620720863342285 -2.48046875
-1.5294238328933716 7.491654396057129 -2.486736297607422
-2.1325879096984863 7.362566947937012 -2.4929234981536865
-2.725830078125 7.187436580657959 -2.5
-3.2953367233276367 6.944790363311768 -2.5
-4.366694450378418 6.326243877410889 -2.5
-6.496928691864014 4.108421325683594 -2.5
-6.806455135345459 3.5723047256469727 -2.5
-7.463588714599609 1.839608073234558 -2.5
7.406879901885986 1.220703097715159e-06 -2.5
7.025698184967041 2.345524787902832 -2.5
6.814179420471191 2.903251886367798 -2.5
6.260214805603027 3.9587242603302 -2.5
5.921376705169678 4.449622631072998 -2.5
5.544120788574219 4.911669731140137 -2.5
5.130922794342041 5.341858863830566 -2.5
3.7034568786621094 6.414542198181152 -2.5
2.626523494720459 6.925548076629639 -2.5
2.060727596282959 7.114435195922852 -2.5
0.8928027153015137 7.352869033813477 -2.5
-0.29729002714157104 7.377159118652344 -2.4919917583465576
-0.8906640410423279 7.335360527038574 -2.4940474033355713
-2.060717821121216 7.114434242248535 -2.5
-2.6265087127685547 6.925545692443848 -2.5
-3.1752684116363525 6.691741943359375 -2.5
-3.70342755317688 6.414540767669678 -2.5
-4.207582950592041 6.095733642578125 -2.5
-5.544101238250732 4.911664962768555 -2.5
-6.814159870147705 2.9032444953918457 -2.5
-6.99404764175415 2.3349523544311523 -2.4887475967407227
-7.191625595092773 1.772581696510315 -2.5
-7.382846355438232 0.5960009694099426 -2.5
7.144599437713623 2.441406195430318e-06 -2.5
7.121435165405273 0.5749035477638245 -2.5
7.052074909210205 1.1460790634155273 -2.5
6.936986923217773 1.7098205089569092 -2.5
6.776914119720459 2.262465715408325 -2.5
6.572880744934082 2.800440549850464 -2.5
6.326225280761719 3.320256233215332 -2.5
5.711694240570068 4.292055606842041 -2.5
5.347802639007568 4.737741470336914 -2.5
4.058603286743164 5.879880428314209 -2.5
3.5723094940185547 6.187395095825195 -2.5
1.987758755683899 6.862505912780762 -2.5
1.429101586341858 7.000198841094971 -2.5
0.28768065571784973 7.138792037963867 -2.5
-0.2876904308795929 7.138792514801025 -2.5
-1.4290966987609863 7.00019645690918 -2.5
-1.9877440929412842 6.862504959106445 -2.5
-2.533500909805298 6.680305004119873 -2.5
-3.062822103500366 6.454782485961914 -2.5
-4.5185546875 5.534232139587402 -2.5
-4.949223518371582 5.152695178985596 -2.5
-5.347802639007568 4.737738132476807 -2.5
-6.038520336151123 3.8185386657714844 -2.5
-6.326205730438232 3.3202502727508545 -2.5
-6.749335765838623 2.253253221511841 -2.4898364543914795
-6.936972618103027 1.7098132371902466 -2.5
-7.052055358886719 1.1460753679275513 -2.5
-7.121410846710205 0.5748986601829529 -2.5
6.876049518585205 0.5550940036773682 -2.5
6.809086799621582 1.1065905094146729 -2.5
6.543403148651123 2.1845104694366455 -2.5
6.346405982971191 2.703948974609375 -2.5
6.108242034912109 3.205850839614868 -2.5
5.830468654632568 3.6869688034057617 -2.5
4.778696060180664 4.975153923034668 -2.5
4.362861156463623 5.343545913696289 -2.5
0.8315136432647705 6.8481125831604 -2.5
0.2777636647224426 6.892812728881836 -2.5
-0.2777783274650574 6.892814636230469 -2.5
-1.379848599433899 6.759000301361084 -2.5
-1.9192577600479126 6.626046180725098 -2.5
-2.957289934158325 6.232371807098389 -2.5
-4.778696060180664 4.975152492523193 -2.5
-5.514868259429932 4.144165992736816 -2.5
-6.108222484588623 3.2058446407318115 -2.5
-6.346386432647705 2.703943967819214 -2.5
6.645229339599609 0.5364648103713989 -2.5
6.580512523651123 1.0694421529769897 -2.5
6.133359432220459 2.6131787300109863 -2.5
3.7872118949890137 5.486702919006348 -2.5
3.33343243598938 5.773652076721191 -2.5
2.858036994934082 6.023160457611084 -2.5
2.3641064167022705 6.233606815338135 -2.5
1.3335497379302979 6.532110214233398 -2.5
0.8035986423492432 6.618232250213623 -2.5
-0.26845213770866394 6.661434173583984 -2.5
-1.8548192977905273 6.403621673583984 -2.5
-2.8580126762390137 6.023160457611084 -2.5
-4.216401100158691 5.164169788360596 -2.5
-5.329760551452637 4.00505256652832 -2.5
-5.634726524353027 3.5631980895996094 -2.5
-5.903178691864014 3.098228693008423 -2.5
-6.32372522354126 2.1111717224121094 -2.5
-6.580488204956055 1.0694384574890137 -2.5
6.448574066162109 3.662109293145477e-06 -2.5
6.427660942077637 0.5189013481140137 -2.5
6.365063190460205 1.034427523612976 -2.5
6.261186599731445 1.5432482957839966 -2.5
6.116703987121582 2.0420544147491455 -2.5
5.932553768157959 2.5276219844818115 -2.5
5.709926605224609 2.9967968463897705 -2.5
5.450263500213623 3.446540355682373 -2.5
4.467074871063232 4.6507248878479 -2.5
4.078378677368164 4.995091438293457 -2.5
3.663212776184082 5.307066440582275 -2.5
3.224296808242798 5.584619045257568 -2.5
2.764457941055298 5.825958251953125 -2.5
2.2867040634155273 6.029512882232666 -2.5
1.7941112518310547 6.193962097167969 -2.5
1.289882779121399 6.318243503570557 -2.5
0.25966307520866394 6.443336009979248 -2.5
-0.25965818762779236 6.443334579467773 -2.5
-0.777270495891571 6.401546478271484 -2.5
-1.79409658908844 6.193961143493652 -2.5
-2.286674737930298 6.029510498046875 -2.5
-3.2242772579193115 5.584615230560303 -2.5
-3.663198232650757 5.307061672210693 -2.5
-4.467074871063232 4.650717735290527 -2.5
-4.82681131362915 4.276186466217041 -2.5
-5.155253887176514 3.8739233016967773 -2.5
-5.450263500213623 3.4465343952178955 -2.5
-5.709897518157959 2.996790647506714 -2.5
-6.261161804199219 1.543243408203125 -2.5
6.24242639541626 1.220703097715159e-06 -2.5
6.222182273864746 0.5023095607757568 -2.5
6.161591529846191 1.0013598203659058 -2.5
5.921166896820068 1.9767773151397705 -2.5
4.67251443862915 4.139495849609375 -2.5
3.948002815246582 4.835412502288818 -2.5
2.676084041595459 5.639718055725098 -2.5
0.75244140625 6.196906566619873 -2.5
0.2513525187969208 6.237357139587402 -2.5
-0.7524218559265137 6.196906566619873 -2.5
-1.7367382049560547 5.995955467224121 -2.5
-2.213578939437866 5.836763858795166 -2.5
-3.1212010383605957 5.406089782714844 -2.5
-4.990458965301514 3.750084161758423 -2.5
-5.276025295257568 3.336357355117798 -2.5
-5.527368068695068 2.900995969772339 -2.5
-5.921142578125 1.9767699241638184 -2.5
-6.22216272354126 0.5023059248924255 -2.5
6.047382831573486 1.220703097715159e-06 -2.5
6.027773380279541 0.48661741614341736 -2.5
5.969067096710205 0.9700695872306824 -2.5
5.871654987335205 1.4472362995147705 -2.5
5.736162185668945 1.9150134325027466 -2.5
5.563466548919678 2.370371103286743 -2.5
5.354682445526123 2.8103575706481934 -2.5
4.526523113250732 4.010157585144043 -2.5
4.189159870147705 4.361381530761719 -2.5
3.435317277908325 4.976894378662109 -2.5
2.1444385051727295 5.654393196105957 -2.5
1.6824951171875 5.808613300323486 -2.5
-0.2435009777545929 6.042472839355469 -2.5
-0.7289111018180847 6.00328254699707 -2.5
-1.2096240520477295 5.925159931182861 -2.5
-2.592456102371216 5.463503360748291 -2.5
-3.023686408996582 5.237180233001709 -2.5
-3.435297727584839 4.976889610290527 -2.5
-3.8246288299560547 4.684326171875 -2.5
-4.526523113250732 4.010153770446777 -2.5
-5.111176490783691 3.2321128845214844 -2.5
-5.563442230224609 2.370366096496582 -2.5
-5.736137390136719 1.9150060415267944 -2.5
-5.871630668640137 1.447231411933899 -2.5
-6.027749061584473 0.4866125285625458 -2.5
5.843510627746582 0.4717419445514679 -2.5
5.786611080169678 0.9404186606407166 -2.5
5.560815334320068 1.856472134590149 -2.5
5.393398284912109 2.297910213470459 -2.5
4.686748027801514 3.5218615531921387 -2.5
4.388159275054932 3.887580394744873 -2.5
3.7077391147613525 4.5411376953125 -2.5
2.9312744140625 5.077092170715332 -2.5
2.5132079124450684 5.296496391296387 -2.5
1.6310644149780273 5.631054401397705 -2.5
0.23605956137180328 5.857760906219482 -2.5
-1.6310497522354126 5.631051063537598 -2.5
-2.078857421875 5.481551170349121 -2.5
-3.3302831649780273 4.824753284454346 -2.5
-4.061103343963623 4.228058815002441 -2.5
-4.954936504364014 3.133312940597534 -2.5
-5.191000938415527 2.724444627761841 -2.5
-5.692143440246582 1.402993083000183 -2.5
5.687021255493164 0.0 -2.5
5.613379001617432 0.9122668504714966 -2.5
5.521777153015137 1.360998511314392 -2.5
3.9395556449890137 4.101497650146484 -2.5
0.685498058795929 5.64555549621582 -2.5
-0.22898925840854645 5.682410717010498 -2.5
-0.6854785084724426 5.64555549621582 -2.5
-1.1375341415405273 5.572091102600098 -2.5
-2.0166308879852295 5.317463397979736 -2.5
-2.843500852584839 4.925105094909668 -2.5
-3.5967235565185547 4.405197620391846 -2.5
-4.256792068481445 3.7711949348449707 -2.5
-4.546450138092041 3.4164304733276367 -2.5
-5.035610198974609 2.6428868770599365 -2.5
-5.231943130493164 2.229118585586548 -2.5
-5.521752834320068 1.360992431640625 -2.5
-5.613359451293945 0.9122631549835205 -2.5
5.520161151885986 1.220703097715159e-06 -2.5
5.502260684967041 0.4441930949687958 -2.5
5.078437328338623 2.1637206077575684 -2.5
4.887861251831055 2.5653491020202637 -2.5
4.665585994720459 2.9503417015075684 -2.5
4.413051605224609 3.316192626953125 -2.5
4.131918907165527 3.6605517864227295 -2.5
3.4912109375 4.275943279266357 -2.5
3.135820150375366 4.542999267578125 -2.5
2.366459846496582 4.987193584442139 -2.5
1.1041845083236694 5.408597469329834 -2.5
0.6653857231140137 5.479908466339111 -2.5
-1.104160189628601 5.40859842300415 -2.5
-1.535791039466858 5.302213191986084 -2.5
-4.413046836853027 3.3161888122558594 -2.5
-4.665580749511719 2.9503393173217773 -2.5
-4.887856483459473 2.5653440952301025 -2.5
-5.078427791595459 2.163713216781616 -2.5
-5.359755516052246 1.3210595846176147 -2.5
-5.448671817779541 0.8854967951774597 -2.5
5.361269474029541 1.220703097715159e-06 -2.5
5.343886375427246 0.43140745162963867 -2.5
4.747172832489014 2.491508722305298 -2.5
4.286030292510986 3.2207422256469727 -2.5
3.7138965129852295 3.8665623664855957 -2.5
3.3907225131988525 4.152868747711182 -2.5
2.6806445121765137 4.642994403839111 -2.5
1.9011377096176147 5.012874603271484 -2.5
1.49160635471344 5.149595737457275 -2.5
0.6462353467941284 5.322181224822998 -2.5
-0.6462304592132568 5.322181224822998 -2.5
-1.9011181592941284 5.012873649597168 -2.5
-2.6806297302246094 4.642992973327637 -2.5
-3.045542001724243 4.412233829498291 -2.5
-3.390702962875366 4.152869701385498 -2.5
-4.012959003448486 3.5551793575286865 -2.5
-4.286025524139404 3.2207372188568115 -2.5
-4.932260513305664 2.1014342308044434 -2.5
-5.085361003875732 1.6977416276931763 -2.5
-5.343881607055664 0.4314025640487671 -2.5
