ply
format ascii 1.0
element vertex 969
property float x
property float y
property float z
end_header
14.614567756652832 17.89961814880371 6.191780090332031
12.429130554199219 18.006690979003906 5.8626627922058105
10.154789924621582 17.588621139526367 5.441934585571289
7.08251428604126 18.675046920776367 5.351737976074219
5.410634517669678 18.679697036743164 5.210944652557373
-2.2707226276397705 18.70106315612793 5.047738075256348
14.696849822998047 18.000391006469727 5.951444625854492
8.859052658081055 18.67010498046875 5.292529582977295
7.082509517669678 18.675046920776367 5.115211009979248
-2.2707226276397705 18.70106315612793 4.824646472930908
-3.818735361099243 18.70536994934082 4.8893842697143555
-5.419384479522705 18.709821701049805 4.988674163818359
-8.882490158081055 18.71944808959961 5.306519508361816
19.375883102416992 17.165569305419922 6.324746608734131
16.876483917236328 17.570301055908203 5.952523231506348
14.696847915649414 18.000391006469727 5.677809715270996
3.814384698867798 18.68413734436035 4.659282207489014
2.2691943645477295 18.68843650817871 4.599708080291748
-0.7534716725349426 18.69684410095215 4.571934223175049
-5.419379711151123 18.709821701049805 4.759303569793701
-8.882490158081055 18.71944808959961 5.062534809112549
22.916959762573242 1.3427734302240424e-05 5.330933094024658
12.429121017456055 18.006690979003906 5.089661121368408
10.094745635986328 17.48462677001953 4.696475505828857
8.859052658081055 18.67010498046875 4.807161331176758
3.814384698867798 18.684141159057617 4.435946464538574
0.7532812356948853 18.692657470703125 4.351809024810791
-0.7534716725349426 18.696849822998047 4.352785110473633
-2.2707226276397705 18.701068878173828 4.382187366485596
-3.8187451362609863 18.70537567138672 4.440987586975098
-7.097460746765137 18.714487075805664 4.655916690826416
-8.882490158081055 18.71944808959961 4.819868087768555
20.301027297973633 17.98517417907715 5.993077754974365
16.87648582458496 17.570302963256836 5.383335590362549
10.13021469116211 17.546051025390625 4.476909637451172
7.08251428604126 18.675052642822266 4.413389205932617
3.81438946723938 18.68414306640625 4.213757038116455
2.2691845893859863 18.688440322875977 4.1598801612854
0.7532812356948853 18.692657470703125 4.133834362030029
-7.097460746765137 18.71449089050293 4.422710418701172
-8.882490158081055 18.71944808959961 4.57844877243042
20.301029205322266 17.98517417907715 5.678606986999512
14.696847915649414 18.000391006469727 4.865450382232666
12.428476333618164 18.005741119384766 4.5807976722717285
7.08251428604126 18.675052642822266 4.181807994842529
5.410639762878418 18.67970085144043 4.071793556213379
3.814384698867798 18.68414306640625 3.9926512241363525
2.2691943645477295 18.688440322875977 3.9416027069091797
-0.7534716725349426 18.696849822998047 3.917799711227417
-2.2707226276397705 18.701068878173828 3.9442644119262695
-3.8187451362609863 18.705373764038086 3.9971892833709717
-8.882494926452637 18.719451904296875 4.338207721710205
22.14900016784668 1.3427734302240424e-05 4.38179349899292
20.301025390625 17.98517417907715 5.365595817565918
16.776700973510742 17.466421127319336 4.791197299957275
10.201391220092773 17.669330596923828 4.036342620849609
8.859047889709473 18.67011260986328 4.0882768630981445
7.08251428604126 18.675052642822266 3.951303720474243
5.410634517669678 18.67970085144043 3.847353458404541
3.81438946723938 18.68414306640625 3.772573232650757
2.2691943645477295 18.688440322875977 3.724337100982666
0.7532861232757568 18.692657470703125 3.7010180950164795
-3.8187451362609863 18.705373764038086 3.7768609523773193
-5.419384479522705 18.709823608398438 3.853558301925659
22.617244720458984 1.2207030522404239e-05 4.214544773101807
20.301027297973633 17.98517417907715 5.053956031799316
16.79615020751953 17.486669540405273 4.518149375915527
-0.7684521079063416 19.068710327148438 3.5561888217926025
-2.3158836364746094 19.073015213012695 3.5802111625671387
-7.097455978393555 18.714488983154297 3.7296648025512695
20.30061912536621 17.984813690185547 4.743500232696533
16.95390510559082 17.650922775268555 4.280516147613525
14.707780838012695 18.013776779174805 4.067353248596191
8.859057426452637 18.67011260986328 3.614347457885742
7.272275447845459 19.17542839050293 3.58685040473938
2.314326047897339 19.060138702392578 3.358083963394165
0.7682665586471558 19.064435958862305 3.3370580673217773
-5.705741882324219 19.69841957092285 3.58685040473938
-7.238627910614014 19.08670425415039 3.5702550411224365
-8.882494926452637 18.719451904296875 3.6239001750946045
23.135971069335938 1.586914004292339e-05 3.78273606300354
20.298906326293945 17.983301162719727 4.433975696563721
7.223378658294678 19.046493530273438 3.330535888671875
7.592455863952637 26.212194442749023 4.461862087249756
0.7682714462280273 19.064435958862305 3.1195695400238037
-7.335957050323486 19.34333038330078 3.38244366645813
-9.073598861694336 19.1221981048584 3.4606077671051025
20.348840713500977 18.027530670166016 4.1361212730407715
16.953922271728516 17.650922775268555 3.7235631942749023
10.201386451721191 17.669330596923828 3.1041345596313477
7.320502758026123 19.302576065063477 3.140850782394409
8.159253120422363 28.168935775756836 4.461862087249756
3.942558526992798 19.31195831298828 2.9987781047821045
0.7682714462280273 19.064434051513672 2.9028704166412354
-3.8946921825408936 19.077411651611328 2.962355375289917
-9.073598861694336 19.122211456298828 3.220219135284424
16.953920364379883 17.650922775268555 3.4465441703796387
14.84550952911377 18.182462692260742 3.3055803775787354
10.201391220092773 17.669330596923828 2.8731749057769775
9.141108512878418 19.264522552490234 3.0028162002563477
-3.8946971893310547 19.077411651611328 2.741961717605591
-7.335947036743164 19.34333038330078 2.9133129119873047
-9.073598861694336 19.1221923828125 2.9806323051452637
20.54697036743164 18.203062057495117 3.555912971496582
14.86715316772461 18.208972930908203 3.0451316833496094
9.141108512878418 19.264522552490234 2.762202024459839
7.320502758026123 19.302576065063477 2.6742236614227295
-3.8946971893310547 19.077411651611328 2.5222489833831787
-5.601484298706055 19.338504791259766 2.60806941986084
20.663875579833984 18.30662727355957 3.26552414894104
10.201391220092773 17.669330596923828 2.4133849143981934
3.942558526992798 19.31195831298828 2.331484317779541
0.7682665586471558 19.06443214416504 2.2569169998168945
-3.8946921825408936 19.077411651611328 2.303169012069702
-9.073598861694336 19.12220001220703 2.5036461353302
16.953922271728516 17.650922775268555 2.620330810546875
10.201391220092773 17.669330596923828 2.184440851211548
7.082509517669678 18.675052642822266 2.138411283493042
2.2691943645477295 18.688440322875977 2.015578508377075
-0.7534716725349426 18.696849822998047 2.003408193588257
-2.2707226276397705 18.701066970825195 2.0169408321380615
-5.419389724731445 18.709821701049805 2.0855119228363037
-7.097451210021973 18.714488983154297 2.1429266929626465
-9.073598861694336 19.12220001220703 2.2661163806915283
8.859057426452637 18.67011260986328 1.981176733970642
5.410634517669678 18.67970085144043 1.8644262552261353
0.7532812356948853 18.692657470703125 1.7935118675231934
-0.753466784954071 18.696849822998047 1.7939138412475586
-2.2707176208496094 18.701068878173828 1.8060314655303955
-5.419389724731445 18.709823608398438 1.8674330711364746
-7.097460746765137 18.714488983154297 1.9188436269760132
20.477819442749023 18.141807556152344 2.3171679973602295
16.95392608642578 17.650922775268555 2.0729081630706787
10.201391220092773 17.669330596923828 1.7280761003494263
8.859057426452637 18.67011260986328 1.7503063678741455
7.082509517669678 18.675052642822266 1.6916640996932983
5.410639762878418 18.67970085144043 1.647160291671753
2.2691893577575684 18.688440322875977 1.5944933891296387
0.7532812356948853 18.692657470703125 1.5845102071762085
-0.7534716725349426 18.696849822998047 1.5848653316497803
-3.8187451362609863 18.705373764038086 1.6169801950454712
-5.419384479522705 18.70982551574707 1.6498174667358398
-7.097460746765137 18.71449089050293 1.6952370405197144
-8.882494926452637 18.719451904296875 1.7549325227737427
23.716793060302734 17.822025299072266 2.181886911392212
20.515499114990234 18.17517852783203 2.0158019065856934
16.70782470703125 24.205474853515625 2.1631386280059814
8.859052658081055 18.67011260986328 1.5198684930801392
7.08251428604126 18.675052642822266 1.4689468145370483
5.410639762878418 18.67970085144043 1.4303021430969238
2.2691943645477295 18.688440322875977 1.3845690488815308
0.7532812356948853 18.692657470703125 1.3759002685546875
-0.753466784954071 18.696849822998047 1.376208782196045
-3.8187451362609863 18.705373764038086 1.4040957689285278
16.953922271728516 17.650922775268555 1.5275323390960693
14.63668441772461 17.926700592041016 1.4444472789764404
10.201391220092773 17.669330596923828 1.2734124660491943
8.859052658081055 18.67011260986328 1.28980553150177
5.410639762878418 18.67970085144043 1.2137973308563232
3.814394474029541 18.684141159057617 1.1902047395706177
2.2691893577575684 18.688440322875977 1.1749866008758545
-2.2707226276397705 18.701068878173828 1.1757806539535522
-5.419389724731445 18.70982551574707 1.2157549858093262
-7.097460746765137 18.71449089050293 1.2492247819900513
23.82546615600586 17.903690338134766 1.5287636518478394
20.604570388793945 18.25408935546875 1.4120632410049438
16.953922271728516 17.650922775268555 1.2554491758346558
3.81438946723938 18.68414306640625 0.9782015681266785
2.2691943645477295 18.688440322875977 0.9656942486763
-2.2707176208496094 18.701068878173828 0.9663467407226562
-7.097455978393555 18.71449089050293 1.0267083644866943
-8.882490158081055 18.719451904296875 1.0628631114959717
23.824176788330078 17.902721405029297 1.1977484226226807
20.605098724365234 18.25455665588379 1.1064062118530273
16.953922271728516 17.650922775268555 0.9836556911468506
10.201386451721191 17.669330596923828 0.8200234770774841
5.41064453125 18.67970848083496 0.7816317677497864
3.814394474029541 18.684146881103516 0.766438901424408
2.2691893577575684 18.688446044921875 0.7566390633583069
0.7532812356948853 18.69266128540039 0.7519018650054932
-0.7534716725349426 18.69685173034668 0.7520703077316284
-2.2707226276397705 18.70107078552246 0.7571505308151245
-7.097460746765137 18.714492797851562 0.8044451475143433
23.822877883911133 17.901744842529297 0.8670675754547119
20.605632781982422 18.25502586364746 0.8010055422782898
16.953920364379883 17.650922775268555 0.7121127247810364
14.634740829467773 17.9243221282959 0.6733016967773438
16.70781898498535 24.20547866821289 0.8557842969894409
10.201391220092773 17.669330596923828 0.5936642289161682
8.859062194824219 18.670122146606445 0.6012985110282898
7.08251953125 18.675060272216797 0.5811529159545898
5.41064453125 18.67970848083496 0.5658639669418335
3.814394474029541 18.684146881103516 0.5548651218414307
0.7532861232757568 18.69266128540039 0.5443407893180847
-0.753466784954071 18.69685173034668 0.5444628596305847
-2.2707176208496094 18.70107078552246 0.5481408834457397
-5.419389724731445 18.70982551574707 0.5667763948440552
19.946508407592773 8.498414993286133 0.3904666006565094
23.82159423828125 17.900774002075195 0.5366232395172119
20.60616111755371 18.25550079345703 0.4957861304283142
14.634096145629883 17.923534393310547 0.4167141616344452
8.859062194824219 18.670122146606445 0.3721667528152466
7.08251953125 18.675060272216797 0.3596978783607483
2.2691893577575684 18.688446044921875 0.3390362560749054
0.7532861232757568 18.69266128540039 0.3369137644767761
-0.7534716725349426 18.69685173034668 0.3369891345500946
-5.419389724731445 18.70982551574707 0.3507998585700989
-7.097460746765137 18.714492797851562 0.3604571521282196
26.215456008911133 8.75201416015625 0.19141723215579987
20.5148868560791 8.74057674407959 0.15444335341453552
20.606693267822266 18.255971908569336 0.1906726062297821
16.70781898498535 24.20547866821289 0.20371520519256592
10.201391220092773 17.669330596923828 0.14132201671600342
8.859062194824219 18.670122146606445 0.14312683045864105
7.08251428604126 18.675060272216797 0.13833129405975342
2.2691893577575684 18.688446044921875 0.13038542866706848
0.7532812356948853 18.69266128540039 0.12956908345222473
-0.753466784954071 18.69685173034668 0.12959808111190796
-2.2707226276397705 18.70107078552246 0.13047362864017487
-3.8187451362609863 18.70537567138672 0.13222411274909973
-7.097460746765137 18.714492797851562 0.1386236548423767
-8.882494926452637 18.71945571899414 0.14350463449954987
23.754194259643555 10.120715141296387 -0.10730056464672089
23.818988800048828 17.898820877075195 -0.12381316721439362
20.607234954833984 18.256452560424805 -0.11440932750701904
14.632800102233887 17.92194938659668 -0.09614913910627365
16.707822799682617 24.20547866821289 -0.12220733612775803
10.201391220092773 17.669328689575195 -0.08479812741279602
-3.822577953338623 18.724151611328125 -0.0794162005186081
-9.07363224029541 19.122283935546875 -0.08796081691980362
22.896310806274414 9.755208015441895 -0.3792448341846466
23.817697525024414 17.89784812927246 -0.4539926052093506
16.70782470703125 24.20547866821289 -0.4481852650642395
10.201391220092773 17.669330596923828 -0.31090056896209717
9.14107894897461 19.264455795288086 -0.32492613792419434
-3.827021360397339 18.745922088623047 -0.29154539108276367
-9.07363224029541 19.122268676757812 -0.32252591848373413
22.896310806274414 9.755208015441895 -0.6551574468612671
23.81639289855957 17.89687156677246 -0.7842440605163574
20.60839080810547 18.257476806640625 -0.7247775197029114
14.631505966186523 17.920366287231445 -0.6090104579925537
16.707809448242188 24.20547866821289 -0.7742516994476318
9.14107894897461 19.264455795288086 -0.5613201856613159
-3.8381199836730957 18.800308227539062 -0.5051149129867554
27.10444450378418 9.048806190490723 -1.0692002773284912
22.896310806274414 9.755207061767578 -0.9312368631362915
23.81511116027832 17.895896911621094 -1.1146529912948608
20.60896873474121 18.25798988342285 -1.0302233695983887
16.953922271728516 17.650922775268555 -0.9157647490501404
16.70781898498535 24.20547866821289 -1.100528597831726
-3.854750871658325 18.88174057006836 -0.7210769653320312
28.810644149780273 2.325853109359741 -1.4024213552474976
16.953920364379883 17.650922775268555 -1.1874706745147705
14.630219459533691 17.918787002563477 -1.1223887205123901
10.201386451721191 17.669330596923828 -0.9899297952651978
9.14107894897461 19.264455795288086 -1.0345879793167114
9.154647827148438 24.138856887817383 -1.25260591506958
6.407153129577637 22.120033264160156 -1.117365837097168
4.088832855224609 20.02846336364746 -0.9918122887611389
-9.07363224029541 19.12226676940918 -1.0269521474838257
28.53447151184082 2.3035571575164795 -1.7071415185928345
27.10444450378418 9.048806190490723 -1.7040232419967651
20.55000877380371 18.20575523376465 -1.6372065544128418
9.14107894897461 19.264455795288086 -1.2715739011764526
6.378847599029541 22.0223331451416 -1.3672466278076172
4.090136528015137 20.03484535217285 -1.2193881273269653
2.487807512283325 20.48886489868164 -1.2307935953140259
0.8258349299430847 20.493026733398438 -1.2230596542358398
-0.8264697194099426 20.50811767578125 -1.223960518836975
-8.954009056091309 23.60979461669922 -1.5057826042175293
28.49250602722168 2.3001697063446045 -2.0227468013763428
22.844282150268555 9.733048439025879 -1.7571128606796265
23.738656997680664 17.83844566345215 -2.101209878921509
16.953920364379883 17.650922775268555 -1.7318507432937622
14.583141326904297 17.861135482788086 -1.6316567659378052
5.410639762878418 18.67970848083496 -1.3761467933654785
-8.882494926452637 18.719457626342773 -1.4661865234375
27.18638801574707 9.076164245605469 -2.347599983215332
23.754194259643555 10.120716094970703 -2.114893913269043
25.378376007080078 13.319612503051758 -2.347599983215332
24.22429084777832 15.318535804748535 -2.347599983215332
16.953920364379883 17.650922775268555 -2.0046401023864746
14.582507133483887 17.8603458404541 -1.8885854482650757
16.281532287597656 23.5878849029541 -2.347599983215332
10.201391220092773 17.669328689575195 -1.6711516380310059
5.41064453125 18.679706573486328 -1.5929092168807983
3.446708917617798 28.386268615722656 -2.342146873474121
1.1513818502426147 28.571420669555664 -2.3421356678009033
-3.9656689167022705 19.425065994262695 -1.623887300491333
-5.419384479522705 18.70982551574707 -1.5954804420471191
-7.097460746765137 18.714492797851562 -1.6394023895263672
-8.882490158081055 18.719457626342773 -1.6971361637115479
-14.3306884765625 24.82146644592285 -2.347599983215332
-18.126737594604492 22.201229095458984 -2.347599983215332
-21.45329475402832 19.005964279174805 -2.347599983215332
-24.224340438842773 15.318544387817383 -2.347599983215332
26.860151290893555 8.544921911379788e-06 -2.5
26.77305030822754 2.161358594894409 -2.5
26.079647064208984 6.428079605102539 -2.5
24.603994369506836 8.214032173156738 -2.414254903793335
20.164140701293945 15.15239143371582 -2.347599983215332
18.879493713378906 16.725801467895508 -2.347599983215332
14.581859588623047 17.859556198120117 -2.145961046218872
10.201391220092773 17.669330596923828 -1.8989824056625366
4.090141296386719 20.03484344482422 -1.9031988382339478
-1.013271450996399 25.143606185913086 -2.342132806777954
-3.9656689167022705 19.425046920776367 -1.845272183418274
-5.419384479522705 18.70982551574707 -1.8129918575286865
-12.611381530761719 21.84354019165039 -2.347599983215332
-14.328173637390137 20.75788116455078 -2.347599983215332
-17.472396850585938 18.190698623657227 -2.347599983215332
-20.164154052734375 15.152369499206543 -2.347599983215332
-16.37350082397461 8.593470573425293 -1.7211010456085205
-24.361894607543945 8.13318157196045 -2.3904972076416016
-26.07963752746582 6.42805290222168 -2.5
-26.51230812072754 4.308677673339844 -2.5
23.66709327697754 3.846299886703491 -2.5
23.280851364135742 5.738232135772705 -2.5
20.71418571472168 8.82548999786377 -2.347599983215332
19.030229568481445 12.034006118774414 -2.347599983215332
18.000165939331055 13.526251792907715 -2.347599983215332
16.85338592529297 14.93083381652832 -2.347599983215332
15.59731674194336 16.238542556762695 -2.347599983215332
14.24007511138916 17.440946578979492 -2.347599983215332
8.859057426452637 18.670122146606445 -2.1546542644500732
5.41064453125 18.67970848083496 -2.0276782512664795
4.090136528015137 20.03484535217285 -2.1319997310638428
-0.9032909870147705 22.414546966552734 -2.338927984237671
-2.7039647102355957 22.26915740966797 -2.338927984237671
-3.9656736850738525 19.42504119873047 -2.067108154296875
-7.097455978393555 18.714492797851562 -2.086859703063965
-11.25795841217041 19.499347686767578 -2.347599983215332
-12.790502548217773 18.530210494995117 -2.347599983215332
-14.24007797241211 17.440935134887695 -2.347599983215332
-16.853374481201172 14.930801391601562 -2.347599983215332
-18.00016975402832 13.5262451171875 -2.347599983215332
-23.280839920043945 5.738210201263428 -2.5
-23.667089462280273 3.846285343170166 -2.5
21.019811630249023 5.180938720703125 -2.5
19.276676177978516 8.213027000427246 -2.419682741165161
15.216591835021973 13.480751991271973 -2.347599983215332
14.082511901855469 14.661458015441895 -2.347599983215332
12.857099533081055 15.74708366394043 -2.347599983215332
11.548280715942383 16.7305850982666 -2.347599983215332
8.714945793151855 18.366405487060547 -2.347599983215332
5.41064453125 18.67970848083496 -2.24578857421875
4.051332950592041 19.84475326538086 -2.338927984237671
2.441362142562866 20.106401443481445 -2.338927984237671
0.8155419826507568 20.237651824951172 -2.338927984237671
-2.441362142562866 20.10639762878418 -2.33892822265625
-7.097460746765137 18.714492797851562 -2.3113372325897217
-8.7149658203125 18.366397857666016 -2.347599983215332
-11.548295974731445 16.730567932128906 -2.347599983215332
-15.216606140136719 13.480740547180176 -2.347599983215332
-17.182010650634766 10.865251541137695 -2.347599983215332
-16.37350082397461 8.593470573425293 -2.13539981842041
-19.050800323486328 8.116774559020996 -2.391329765319824
-20.534770965576172 6.855507850646973 -2.5
-21.019819259643555 5.18092155456543 -2.5
-21.3685302734375 3.4727368354797363 -2.5
19.727983474731445 4.882812390860636e-06 -2.5
19.664011001586914 1.587457299232483 -2.5
18.712717056274414 6.247230052947998 -2.5
18.149343490600586 7.732712268829346 -2.5
14.80996322631836 11.128975868225098 -2.347599983215332
12.83297348022461 13.360544204711914 -2.347599983215332
10.523608207702637 15.246076583862305 -2.347599983215332
7.94167947769165 16.736751556396484 -2.347599983215332
5.154072284698486 17.793949127197266 -2.347599983215332
0.7459325790405273 18.510339736938477 -2.347599983215332
-0.7459521293640137 18.51033592224121 -2.347599983215332
-2.232983350753784 18.39029312133789 -2.347599983215332
-3.705556631088257 18.15097427368164 -2.347599983215332
-5.154101371765137 17.793943405151367 -2.347599983215332
-6.569174766540527 17.32151222229004 -2.347599983215332
-9.262690544128418 16.043428421020508 -2.347599983215332
-10.523627281188965 15.246063232421875 -2.347599983215332
-11.716269493103027 14.349838256835938 -2.347599983215332
-12.832963943481445 13.360538482666016 -2.347599983215332
-13.866425514221191 12.284588813781738 -2.347599983215332
-16.353384017944336 8.582908630371094 -2.3404436111450195
-17.737918853759766 7.557408332824707 -2.443331718444824
18.057310104370117 1.4577502012252808 -2.5
17.58962631225586 4.335468769073486 -2.5
17.18372917175293 5.736779689788818 -2.5
16.666393280029297 7.100889205932617 -2.5
15.64220905303955 8.209661483764648 -2.437852382659912
14.37811279296875 9.092183113098145 -2.347599983215332
12.733437538146973 11.280854225158691 -2.347599983215332
8.505839347839355 14.732563018798828 -2.347599983215332
7.292783260345459 15.369230270385742 -2.347599983215332
3.40276837348938 16.66790008544922 -2.347599983215332
-0.6850048899650574 16.997900009155273 -2.347599983215332
-3.402783155441284 16.667898178100586 -2.347599983215332
-6.032431602478027 15.90621280670166 -2.347599983215332
-7.292788028717041 15.369220733642578 -2.347599983215332
-8.505844116210938 14.732558250427246 -2.347599983215332
-11.784408569335938 12.268877983093262 -2.347599983215332
-13.599882125854492 10.219640731811523 -2.347599983215332
-15.642230987548828 8.209660530090332 -2.4378552436828613
-16.666385650634766 7.100876331329346 -2.5
16.689456939697266 1.3473254442214966 -2.5
16.526933670043945 2.685905694961548 -2.5
16.25721549987793 4.007059097290039 -2.5
14.822877883911133 7.779653549194336 -2.4994969367980957
13.288969039916992 8.40344524383545 -2.347599983215332
12.569686889648438 9.445507049560547 -2.347599983215332
10.891733169555664 11.33951187133789 -2.347599983215332
8.931708335876465 12.939824104309082 -2.347599983215332
5.57546854019165 14.701316833496094 -2.347599983215332
4.37441873550415 15.10228157043457 -2.347599983215332
1.8952099084854126 15.608418464660645 -2.347599983215332
0.6331005692481995 15.71030330657959 -2.347599983215332
-1.895205020904541 15.608415603637695 -2.347599983215332
-4.374438285827637 15.102277755737305 -2.347599983215332
-6.740346431732178 14.205001831054688 -2.347599983215332
-7.861523151397705 13.616564750671387 -2.347599983215332
-9.943979263305664 12.179158210754395 -2.347599983215332
-8.921894073486328 9.28868293762207 -1.9230207204818726
-11.768872261047363 10.426315307617188 -2.347599983215332
-12.569677352905273 9.4454984664917 -2.347599983215332
-13.288969039916992 8.403435707092285 -2.347599983215332
-14.822890281677246 7.779637813568115 -2.499497413635254
-16.257205963134766 4.0070481300354 -2.5
-16.526918411254883 2.6858959197998047 -2.5
15.561091423034668 6.103515261202119e-06 -2.5
15.510626792907715 1.2521569728851318 -2.5
15.359575271606445 2.496190071105957 -2.5
14.76025390625 4.927707195281982 -2.5
13.77865982055664 7.23160457611084 -2.5
10.937592506408691 9.689881324768066 -2.347599983215332
5.181650161743164 13.662911415100098 -2.347599983215332
-1.7613427639007568 14.505939483642578 -2.347599983215332
-2.9228758811950684 14.31717300415039 -2.347599983215332
-4.065463542938232 14.035551071166992 -2.347599983215332
-5.181664943695068 13.662907600402832 -2.347599983215332
-6.264262676239014 13.201653480529785 -2.347599983215332
-7.306240081787109 12.654777526855469 -2.347599983215332
-8.300848960876465 12.025826454162598 -2.347599983215332
-9.241596221923828 11.318901062011719 -2.347599983215332
-8.903432846069336 9.269457817077637 -2.0648908615112305
-15.108905792236328 3.7240123748779297 -2.5
-15.359580039978027 2.496177911758423 -2.5
14.342873573303223 2.330960750579834 -2.5
14.108810424804688 3.477520704269409 -2.5
13.783234596252441 4.601524353027344 -2.5
13.36827564239502 5.695687294006348 -2.5
12.2802095413208 7.765542507171631 -2.4997363090515137
10.9465913772583 8.225829124450684 -2.3557772636413574
9.452377319335938 9.840989112854004 -2.347599983215332
7.751386642456055 11.229812622070312 -2.347599983215332
4.838656902313232 12.758523941040039 -2.347599983215332
2.7294092178344727 13.369477272033691 -2.347599983215332
-0.5494433641433716 13.634173393249512 -2.347599983215332
-1.6447460651397705 13.545750617980957 -2.347599983215332
-2.7294042110443115 13.369474411010742 -2.347599983215332
-6.822617053985596 11.817121505737305 -2.347599983215332
-7.751381874084473 11.229804039001465 -2.347599983215332
-8.892431259155273 9.25800895690918 -2.2085297107696533
-10.945380210876465 8.224909782409668 -2.355515718460083
-12.866605758666992 6.752910137176514 -2.5
-13.368266105651855 5.695677280426025 -2.5
-14.342870712280273 2.330950975418091 -2.5
-14.483930587768555 1.1692602634429932 -2.5
13.625676155090332 3.662109293145477e-06 -2.5
13.581493377685547 1.0964196920394897 -2.5
13.449225425720215 2.185724973678589 -2.5
12.924457550048828 4.3148193359375 -2.5
12.535346031188965 5.340811729431152 -2.5
11.516283988952637 7.28246545791626 -2.5
9.577221870422363 8.484699249267578 -2.347599983215332
8.092172622680664 9.911115646362305 -2.347599983215332
7.268422603607178 10.530121803283691 -2.347599983215332
4.537187576293945 11.963582038879395 -2.347599983215332
3.559804677963257 12.289875984191895 -2.347599983215332
-3.559814453125 12.289875030517578 -2.347599983215332
-5.48513650894165 11.559693336486816 -2.347599983215332
-7.268417835235596 10.530109405517578 -2.347599983215332
-8.863442420959473 9.227821350097656 -2.347599983215332
-10.862480163574219 8.162613868713379 -2.4930062294006348
-12.535326957702637 5.340804100036621 -2.5
-12.9244384765625 4.31480598449707 -2.5
12.781869888305664 1.0318676233291626 -2.5
12.45082950592041 3.068859815597534 -2.5
11.354598999023438 5.959357738494873 -2.5
10.838252067565918 6.853701591491699 -2.5
10.251605987548828 7.703591823577881 -2.5
9.271576881408691 8.213919639587402 -2.4148569107055664
8.341582298278809 8.684528350830078 -2.347599983215332
6.020864009857178 10.428444862365723 -2.347599983215332
4.270043849945068 11.2592134475708 -2.347599983215332
3.350229501724243 11.566301345825195 -2.347599983215332
2.4086620807647705 11.79837417602539 -2.347599983215332
0.4848681390285492 12.031962394714355 -2.347599983215332
-2.4086523056030273 11.798371315002441 -2.347599983215332
-3.350224494934082 11.566296577453613 -2.347599983215332
-4.270053386688232 11.259211540222168 -2.347599983215332
-6.0208740234375 10.42844009399414 -2.347599983215332
-6.840478420257568 9.91014289855957 -2.347599983215332
-7.615732192993164 9.327582359313965 -2.347599983215332
-10.251615524291992 7.703581809997559 -2.5
-10.838266372680664 6.85369348526001 -2.5
-11.797294616699219 5.026354789733887 -2.5
-12.163496017456055 4.060773849487305 -2.5
-12.450810432434082 3.06884765625 -2.5
-12.65737247467041 2.057023763656616 -2.5
-12.7818603515625 1.031854271888733 -2.5
11.950727462768555 1.9421923160552979 -2.5
11.138667106628418 4.745741844177246 -2.5
9.679262161254883 7.273499488830566 -2.5
7.900468349456787 8.225257873535156 -2.3549258708953857
5.684711933135986 9.846223831176758 -2.347599983215332
3.1631834506988525 10.920551300048828 -2.347599983215332
1.3704345226287842 11.286540031433105 -2.347599983215332
0.4577929675579071 11.360214233398438 -2.347599983215332
-0.45780760049819946 11.360214233398438 -2.347599983215332
-2.274179697036743 11.139663696289062 -2.347599983215332
-4.031660079956055 10.630607604980469 -2.347599983215332
-4.873999118804932 10.271720886230469 -2.347599983215332
-7.19054651260376 8.806821823120117 -2.347599983215332
-7.900463581085205 8.225255966186523 -2.3549273014068604
11.427343368530273 0.9225183129310608 -2.5
11.316054344177246 1.83905029296875 -2.5
11.13138198852539 2.74365234375 -2.5
10.547119140625 4.493709564208984 -2.5
9.689687728881836 6.127399921417236 -2.5
9.165214538574219 6.8872222900390625 -2.5
8.581298828125 7.602388858795166 -2.5
7.877997875213623 8.201868057250977 -2.4799320697784424
6.808705806732178 8.339120864868164 -2.347599983215332
5.382807731628418 9.323319435119629 -2.347599983215332
3.8175437450408936 10.066048622131348 -2.347599983215332
2.1534080505371094 10.548070907592773 -2.347599983215332
1.2976561784744263 10.68714427947998 -2.347599983215332
-0.4335009753704071 10.756905555725098 -2.347599983215332
-2.1534130573272705 10.548066139221191 -2.347599983215332
-2.995195150375366 10.340585708618164 -2.347599983215332
-3.8175487518310547 10.066044807434082 -2.347599983215332
-4.615151405334473 9.72622013092041 -2.347599983215332
-5.382826805114746 9.323310852050781 -2.347599983215332
-6.808666706085205 8.339117050170898 -2.347599983215332
-9.165228843688965 6.887216567993164 -2.5
-9.689692497253418 6.127391338348389 -2.5
-10.151328086853027 5.327820777893066 -2.5
-10.87451171875 3.630441904067993 -2.5
-11.131361961364746 2.7436363697052 -2.5
-11.3160400390625 1.8390380144119263 -2.5
10.88370132446289 3.662109293145477e-06 -2.5
9.637045860290527 5.057914733886719 -2.5
8.146567344665527 7.21723747253418 -2.5
6.703456878662109 8.210250854492188 -2.4346659183502197
5.805756568908691 8.411090850830078 -2.347599983215332
3.6241307258605957 9.5560884475708 -2.347599983215332
0.4115234315395355 10.211939811706543 -2.347599983215332
-1.2319238185882568 10.145710945129395 -2.347599983215332
-2.0443115234375 10.013690948486328 -2.347599983215332
-2.843447208404541 9.8167142868042 -2.347599983215332
-3.6241455078125 9.556084632873535 -2.347599983215332
-5.805766582489014 8.411076545715332 -2.347599983215332
-6.703452110290527 8.210251808166504 -2.4346656799316406
-7.534579753875732 7.844335079193115 -2.498400926589966
-8.146562576293945 7.217230796813965 -2.5
-9.198798179626465 5.81696891784668 -2.5
-9.637041091918945 5.05790376663208 -2.5
-10.323593139648438 3.4465136528015137 -2.5
-10.567445755004883 2.6046409606933594 -2.5
-10.74276351928711 1.7458739280700684 -2.5
10.35635757446289 4.882812390860636e-06 -2.5
10.222246170043945 1.6612865924835205 -2.5
9.527631759643555 4.059348106384277 -2.5
9.170092582702637 4.812840461730957 -2.5
8.753081321716309 5.535121917724609 -2.5
7.17410135269165 7.469033718109131 -2.5
6.538369178771973 8.00805377960205 -2.4956259727478027
4.862509727478027 8.422125816345215 -2.347599983215332
4.169037818908691 8.786084175109863 -2.347599983215332
1.9452587366104126 9.52849292755127 -2.347599983215332
-0.3915966749191284 9.717143058776855 -2.347599983215332
-1.1722412109375 9.654122352600098 -2.347599983215332
-1.9452587366104126 9.528493881225586 -2.347599983215332
-2.7056736946105957 9.341065406799316 -2.347599983215332
-3.448539972305298 9.093061447143555 -2.347599983215332
-5.670346736907959 8.21489429473877 -2.409595012664795
-8.753081321716309 5.535118103027344 -2.5
-9.527636528015137 4.059341907501221 -2.5
-9.823378562927246 3.2795214653015137 -2.5
-10.222246170043945 1.6612805128097534 -2.5
9.8753023147583 3.662109293145477e-06 -2.5
9.747411727905273 1.5841186046600342 -2.5
9.58834457397461 2.363330125808716 -2.5
9.085073471069336 3.8707921504974365 -2.5
8.744140625 4.589284420013428 -2.5
7.894755840301514 5.932514667510986 -2.5
7.391772270202637 6.548547267913818 -2.5
6.840859413146973 7.122095108032227 -2.5
6.245585918426514 7.649462699890137 -2.5
3.9753806591033936 8.377970695495605 -2.347599983215332
2.580004930496216 8.907174110412598 -2.347599983215332
1.117773413658142 9.205690383911133 -2.347599983215332
0.37339842319488525 9.265782356262207 -2.347599983215332
-0.3734081983566284 9.265787124633789 -2.347599983215332
-4.743710994720459 8.216338157653809 -2.401803493499756
-5.596225261688232 8.10750961303711 -2.4939401149749756
-7.894731044769287 5.932509422302246 -2.5
-8.744145393371582 4.589273452758789 -2.5
-9.58834457397461 2.3633153438568115 -2.5
-9.747416496276855 1.584114909172058 -2.5
9.434598922729492 3.662109293145477e-06 -2.5
8.949057579040527 2.9876391887664795 -2.5
8.35391616821289 4.384482383728027 -2.5
7.974042892456055 5.042482852935791 -2.5
7.061909198760986 6.256308555603027 -2.5
6.535581111907959 6.804263114929199 -2.5
5.966865062713623 7.308093547821045 -2.5
5.358959674835205 7.763799667358398 -2.499765634536743
4.441391468048096 7.692723751068115 -2.3537802696228027
3.8654394149780273 8.146265983581543 -2.389300584793091
3.141616106033325 8.283750534057617 -2.347599983215332
2.4648680686950684 8.509679794311523 -2.347599983215332
1.77212393283844 8.680426597595215 -2.347599983215332
-0.3567431569099426 8.852283477783203 -2.347599983215332
-1.7721190452575684 8.680423736572266 -2.347599983215332
-4.704560279846191 8.148524284362793 -2.4932451248168945
-5.966875076293945 7.308091163635254 -2.5
-8.353920936584473 4.384471416473389 -2.5
-8.679638862609863 3.698045492172241 -2.5
-8.94906234741211 2.9876365661621094 -2.5
8.912348747253418 1.4484081268310547 -2.5
8.766899108886719 2.160853147506714 -2.5
8.564594268798828 2.8592894077301025 -2.5
7.995038986206055 4.19611930847168 -2.5
7.63146448135376 4.825849533081055 -2.5
6.254809379577637 6.51194429397583 -2.5
4.345805644989014 7.527158260345459 -2.406507730484009
3.779413938522339 7.96497106552124 -2.4409942626953125
1.6960009336471558 8.307504653930664 -2.347599983215332
1.0220214128494263 8.417037010192871 -2.347599983215332
0.3414013683795929 8.471975326538086 -2.347599983215332
-0.34141600131988525 8.471980094909668 -2.347599983215332
-1.0220263004302979 8.41702938079834 -2.347599983215332
-1.695986270904541 8.307501792907715 -2.347599983215332
-2.3780713081359863 8.210083961486816 -2.366624355316162
-3.6443896293640137 7.68039083480835 -2.3537802696228027
-4.357919692993164 7.548142910003662 -2.413217544555664
-6.254809379577637 6.511941909790039 -2.5
-7.218388557434082 5.424266338348389 -2.5
-7.631450176239014 4.825843334197998 -2.5
-7.99502420425415 4.196109294891357 -2.5
-8.306747436523438 3.5391721725463867 -2.5
-8.564594268798828 2.8592846393585205 -2.5
-8.766899108886719 2.1608471870422363 -2.5
-8.912353515625 1.448403239250183 -2.5
8.6551513671875 2.441406195430318e-06 -2.5
8.627079963684082 0.696453869342804 -2.5
8.543066024780273 1.388393521308899 -2.5
8.403642654418945 2.0713207721710205 -2.5
7.663764476776123 4.022254467010498 -2.5
7.315253734588623 4.625891208648682 -2.5
5.995639324188232 6.242124080657959 -2.5
5.47390604019165 6.70432710647583 -2.5
4.296655178070068 7.442030429840088 -2.4821383953094482
3.0037841796875 7.92031192779541 -2.446742534637451
2.3381738662719727 8.072274208068848 -2.4274799823760986
-0.33036619424819946 8.197831153869629 -2.3698272705078125
-0.9931347370147705 8.17912483215332 -2.379854202270508
-1.6618261337280273 8.1402006149292 -2.3997557163238525
-3.005571126937866 7.925059795379639 -2.4482100009918213
-4.324462890625 7.490183353424072 -2.498199939727783
-4.916694164276123 7.123045444488525 -2.5
-6.478461742401123 5.73942756652832 -2.5
-7.315234184265137 4.62588357925415 -2.5
-7.663744926452637 4.02224588394165 -2.5
-8.209721565246582 2.7408080101013184 -2.5
-8.40365219116211 2.0713109970092773 -2.5
-8.627084732055664 0.6964452862739563 -2.5
8.281733512878418 0.6685742139816284 -2.5
8.067251205444336 1.9884008169174194 -2.5
7.88109827041626 2.6310973167419434 -2.5
7.022421836853027 4.440712928771973 -2.5
6.642319202423096 4.991379261016846 -2.5
6.219135761260986 5.509677410125732 -2.5
5.755624771118164 5.99224328994751 -2.5
5.254785060882568 6.435948371887207 -2.5
4.719862937927246 6.8379106521606445 -2.5
2.271489143371582 7.842084884643555 -2.4565975666046143
1.6240332126617432 7.955004692077637 -2.44295334815979
0.9750341773033142 8.030170440673828 -2.433945655822754
0.3251269459724426 8.0679292678833 -2.4295310974121094
-0.32515135407447815 8.068452835083008 -2.4296889305114746
-0.97523432970047 8.031732559204102 -2.4344191551208496
-4.154340744018555 7.195524215698242 -2.5
-5.755624771118164 5.992239952087402 -2.5
-7.022407054901123 4.44070291519165 -2.5
-7.35696268081665 3.8612327575683594 -2.5
-7.881073951721191 2.6310887336730957 -2.5
-8.067235946655273 1.9883935451507568 -2.5
-8.201068878173828 1.3328100442886353 -2.5
-8.281733512878418 0.668566882610321 -2.5
7.986825942993164 2.441406195430318e-06 -2.5
7.347709655761719 3.1305627822875977 -2.5
7.071982383728027 3.711664915084839 -2.5
6.750380516052246 4.268683910369873 -2.5
4.537026405334473 6.573024749755859 -2.5
3.993403196334839 6.916786193847656 -2.5
2.820078134536743 7.435925006866455 -2.4893271923065186
1.5785937309265137 7.7324347496032715 -2.470297336578369
0.3160790801048279 7.8434014320373535 -2.4571030139923096
-0.3161035180091858 7.843898296356201 -2.4572577476501465
-0.9480419754981995 7.807775020599365 -2.4619088172912598
-1.579077124595642 7.734869003295898 -2.4710757732391357
-2.820805549621582 7.437863826751709 -2.4899771213531494
-3.423715829849243 7.215338706970215 -2.4998779296875
-5.051220417022705 6.186629295349121 -2.5
-5.532660961151123 5.760110855102539 -2.5
-7.071962833404541 3.711651563644409 -2.5
-7.754726409912109 1.9113671779632568 -2.5
-7.883378505706787 1.2811779975891113 -2.5
-7.960903167724609 0.6426672339439392 -2.5
7.58743143081665 1.2330846786499023 -2.5
7.463603496551514 1.8396142721176147 -2.5
7.071860313415527 3.0130321979522705 -2.5
6.806479454040527 3.5723156929016113 -2.5
5.753774166107178 5.097408294677734 -2.5
4.861581802368164 5.954365253448486 -2.5
4.366689205169678 6.326251029968262 -2.5
2.725844621658325 7.187438011169434 -2.5
1.5295019149780273 7.491983413696289 -2.486844539642334
-0.3071679472923279 7.622131824493408 -2.4809279441833496
-0.9202880859375 7.579151630401611 -2.483042001724243
-1.5297069549560547 7.493042945861816 -2.487196683883667
-2.132983446121216 7.363929271697998 -2.493384838104248
-3.295341730117798 6.944790363311768 -2.5
-4.366694450378418 6.326244831085205 -2.5
-4.861581802368164 5.954363822937012 -2.5
-5.324946403503418 5.543857097625732 -2.5
-5.753774166107178 5.097401142120361 -2.5
-7.071835994720459 3.0130271911621094 -2.5
-7.463583946228027 1.839608073234558 -2.5
-7.662026405334473 0.6185387969017029 -2.5
6.814179420471191 2.9032506942749023 -2.5
5.544126033782959 4.911673545837402 -2.5
4.207578182220459 6.095739841461182 -2.5
2.626513719558716 6.925548553466797 -2.5
2.060722589492798 7.114435195922852 -2.5
0.8907665610313416 7.33611536026001 -2.4943034648895264
0.2973290979862213 7.378321170806885 -2.492384433746338
-0.29734861850738525 7.378525257110596 -2.492453098297119
-1.4806982278823853 7.252971649169922 -2.498549222946167
-3.1752684116363525 6.691744327545166 -2.5
-4.207582950592041 6.095736026763916 -2.5
-5.544120788574219 4.911665916442871 -2.5
-5.921371936798096 4.449618816375732 -2.5
-6.260219573974609 3.9587230682373047 -2.5
-6.558442115783691 3.4421422481536865 -2.5
-7.310937404632568 1.1881481409072876 -2.5
7.144594669342041 3.662109293145477e-06 -2.5
7.121430397033691 0.5749035477638245 -2.5
7.052074909210205 1.1460802555084229 -2.5
6.936986923217773 1.7098193168640137 -2.5
6.776908874511719 2.262465715408325 -2.5
6.572880744934082 2.800442934036255 -2.5
6.038539886474609 3.8185460567474365 -2.5
5.711694240570068 4.292057991027832 -2.5
5.347802639007568 4.73774528503418 -2.5
4.949223518371582 5.152699947357178 -2.5
1.9877538681030273 6.862507343292236 -2.5
0.28768065571784973 7.138792991638184 -2.5
-1.4291210174560547 7.000197410583496 -2.5
-1.9877489805221558 6.862504005432129 -2.5
-3.062822103500366 6.454782485961914 -2.5
-3.5722851753234863 6.187393665313721 -2.5
-4.058588981628418 5.879875183105469 -2.5
-4.518559455871582 5.534233093261719 -2.5
-4.949228286743164 5.152695178985596 -2.5
-5.347802639007568 4.737738132476807 -2.5
-6.776894569396973 2.2624597549438477 -2.5
-6.936972618103027 1.709814429283142 -2.5
-7.052055358886719 1.1460741758346558 -2.5
-7.121410846710205 0.574902355670929 -2.5
6.898417949676514 2.441406195430318e-06 -2.5
6.876044750213623 0.5550951957702637 -2.5
6.809086799621582 1.1065893173217773 -2.5
6.697963714599609 1.650905728340149 -2.5
6.543407917022705 2.18450927734375 -2.5
6.108242034912109 3.205853223800659 -2.5
5.830468654632568 3.6869702339172363 -2.5
1.9192626476287842 6.626048564910889 -2.5
0.8315136432647705 6.848113059997559 -2.5
-1.3798730373382568 6.758999347686768 -2.5
-2.957289934158325 6.232372760772705 -2.5
-3.4492039680480957 5.974196434020996 -2.5
-3.9187400341033936 5.677274227142334 -2.5
-6.108242034912109 3.205845832824707 -2.5
-6.543383598327637 2.184501886367798 -2.5
-6.697948932647705 1.6509008407592773 -2.5
-6.809067249298096 1.1065856218338013 -2.5
6.666850566864014 2.441406195430318e-06 -2.5
6.580512523651123 1.0694445371627808 -2.5
6.323740005493164 2.1111791133880615 -2.5
6.133359432220459 2.6131811141967773 -2.5
5.903203010559082 3.0982372760772705 -2.5
5.329760551452637 4.005058288574219 -2.5
4.990195274353027 4.420937538146973 -2.5
4.6182861328125 4.808144569396973 -2.5
4.216411113739014 5.16417121887207 -2.5
3.787187337875366 5.486701488494873 -2.5
2.8580322265625 6.0231614112854 -2.5
1.8548388481140137 6.40362548828125 -2.5
0.80360347032547 6.618233680725098 -2.5
-0.26845213770866394 6.661434173583984 -2.5
-1.3335497379302979 6.532107830047607 -2.5
-1.854824185371399 6.403624057769775 -2.5
-2.858022451400757 6.023159027099609 -2.5
-3.7871971130371094 5.486697673797607 -2.5
-4.216415882110596 5.164169788360596 -2.5
-4.618281364440918 4.808144569396973 -2.5
-4.990204811096191 4.420932292938232 -2.5
-5.634746074676514 3.563199281692505 -2.5
-5.9031982421875 3.0982298851013184 -2.5
-6.133364200592041 2.613177537918091 -2.5
-6.580492973327637 1.0694384574890137 -2.5
-6.645205020904541 0.5364587306976318 -2.5
6.448569297790527 3.662109293145477e-06 -2.5
6.365063190460205 1.0344287157058716 -2.5
6.116703987121582 2.0420567989349365 -2.5
5.450263500213623 3.4465417861938477 -2.5
5.155258655548096 3.8739280700683594 -2.5
4.467080116271973 4.650723934173584 -2.5
3.663198232650757 5.307066440582275 -2.5
2.2867040634155273 6.029512882232666 -2.5
1.7941161394119263 6.193963527679443 -2.5
1.289882779121399 6.318243503570557 -2.5
0.25965818762779236 6.443336009979248 -2.5
-0.7772900462150574 6.401546478271484 -2.5
-1.2898876667022705 6.318243503570557 -2.5
-2.286679744720459 6.029511451721191 -2.5
-2.7644433975219727 5.82595682144165 -2.5
-3.2242772579193115 5.584615230560303 -2.5
-4.467074871063232 4.650718688964844 -2.5
-5.155263423919678 3.873922109603882 -2.5
-5.450258731842041 3.446535587310791 -2.5
-5.709926605224609 2.9967918395996094 -2.5
-6.116708755493164 2.0420494079589844 -2.5
-6.365038871765137 1.0344250202178955 -2.5
6.24242639541626 2.441406195430318e-06 -2.5
6.222182273864746 0.5023144483566284 -2.5
6.161591529846191 1.0013610124588013 -2.5
6.06102991104126 1.4939160346984863 -2.5
5.921162128448486 1.976776123046875 -2.5
5.742905139923096 2.44682240486145 -2.5
4.990454196929932 3.7500903606414795 -2.5
4.67251443862915 4.139496803283691 -2.5
4.324272155761719 4.502048015594482 -2.5
3.121220588684082 5.406092643737793 -2.5
2.676088809967041 5.639716625213623 -2.5
1.736757755279541 5.995956897735596 -2.5
0.2513525187969208 6.237358093261719 -2.5
-0.25136229395866394 6.237359523773193 -2.5
-0.7524462938308716 6.196904182434082 -2.5
-1.2486523389816284 6.116261959075928 -2.5
-1.7367479801177979 5.995955467224121 -2.5
-2.6760692596435547 5.639716625213623 -2.5
-3.9479832649230957 4.835410118103027 -2.5
-4.324272155761719 4.502048015594482 -2.5
-4.990458965301514 3.750084161758423 -2.5
-5.27603006362915 3.336359739303589 -2.5
-5.527397155761719 2.9009947776794434 -2.5
-5.742905139923096 2.4468164443969727 -2.5
-5.921166896820068 1.9767736196517944 -2.5
-6.06102991104126 1.4939098358154297 -2.5
-6.222182273864746 0.5023059248924255 -2.5
6.047382831573486 2.441406195430318e-06 -2.5
6.027768611907959 0.48661863803863525 -2.5
5.736156940460205 1.9150121212005615 -2.5
5.354687213897705 2.81036114692688 -2.5
5.111181735992432 3.2321178913116455 -2.5
4.189159870147705 4.361382961273193 -2.5
3.8246288299560547 4.684330940246582 -2.5
2.592470645904541 5.463505744934082 -2.5
1.2096385955810547 5.925158500671387 -2.5
0.2435009777545929 6.042470455169678 -2.5
-1.2096385955810547 5.925158500671387 -2.5
-3.435297727584839 4.976894378662109 -2.5
-3.8246238231658936 4.684326171875 -2.5
-4.189159870147705 4.361381530761719 -2.5
-4.526523113250732 4.010156154632568 -2.5
-5.111186504364014 3.2321128845214844 -2.5
-5.563461780548096 2.3703649044036865 -2.5
-5.736162185668945 1.9150060415267944 -2.5
-5.969067096710205 0.9700671434402466 -2.5
5.862519264221191 3.662109293145477e-06 -2.5
5.393398284912109 2.29791259765625 -2.5
4.954941272735596 3.133317708969116 -2.5
4.388154029846191 3.887578010559082 -2.5
4.061108112335205 4.228066444396973 -2.5
3.707719564437866 4.541138648986816 -2.5
3.3303027153015137 4.824760437011719 -2.5
1.6310644149780273 5.63105583190918 -2.5
1.1726659536361694 5.744036674499512 -2.5
0.7066503763198853 5.819772720336914 -2.5
0.23605956137180328 5.857762336730957 -2.5
-0.23606444895267487 5.857764720916748 -2.5
-0.7066503763198853 5.819771766662598 -2.5
-2.078867197036743 5.481550216674805 -2.5
-2.9312498569488525 5.077090740203857 -2.5
-4.686748027801514 3.5218615531921387 -2.5
-5.191005706787109 2.724444627761841 -2.5
-5.393398284912109 2.297907590866089 -2.5
-5.786601543426514 0.9404162168502808 -2.5
5.668583869934082 0.45762205123901367 -2.5
5.521772384643555 1.361000895500183 -2.5
5.231947898864746 2.2291259765625 -2.5
5.035610198974609 2.6428966522216797 -2.5
3.939531087875366 4.101500034332275 -2.5
3.5967283248901367 4.405197620391846 -2.5
3.2306103706359863 4.680328369140625 -2.5
1.5822362899780273 5.462486267089844 -2.5
1.1375536918640137 5.572093486785889 -2.5
0.6855028867721558 5.645557880401611 -2.5
-0.22899901866912842 5.682412147521973 -2.5
-1.1375634670257568 5.572091102600098 -2.5
-1.5822216272354126 5.462485313415527 -2.5
-2.4379734992980957 5.137944221496582 -2.5
-2.843505859375 4.925105094909668 -2.5
-3.2305908203125 4.680324554443359 -2.5
-3.5967283248901367 4.405197620391846 -2.5
-4.546445369720459 3.416433095932007 -2.5
-4.806616306304932 3.039517641067505 -2.5
-5.035610198974609 2.6428892612457275 -2.5
-5.231947898864746 2.229118585586548 -2.5
-5.394350528717041 1.8008947372436523 -2.5
-5.521772384643555 1.360994815826416 -2.5
-5.613383769989014 0.9122644066810608 -2.5
5.520161151885986 2.441406195430318e-06 -2.5
5.448681354522705 0.8855016827583313 -2.5
5.236073970794678 1.7480627298355103 -2.5
5.078437328338623 2.163719415664673 -2.5
4.887856483459473 2.5653467178344727 -2.5
4.413051605224609 3.316195011138916 -2.5
4.131899356842041 3.660550355911255 -2.5
3.135820150375366 4.543002605438232 -2.5
2.760087728500366 4.780599117279053 -2.5
0.22227050364017487 5.515681266784668 -2.5
-0.6653857231140137 5.479908466339111 -2.5
-1.535791039466858 5.3022141456604 -2.5
-3.135805606842041 4.54299783706665 -2.5
-3.8239402770996094 3.9811534881591797 -2.5
-4.131894588470459 3.660543203353882 -2.5
-4.665580749511719 2.9503417015075684 -2.5
-4.887856483459473 2.5653440952301025 -2.5
-5.236069202423096 1.7480590343475342 -2.5
-5.359750747680664 1.3210595846176147 -2.5
-5.448681354522705 0.8854956030845642 -2.5
5.361264705657959 2.441406195430318e-06 -2.5
5.343881607055664 0.43140989542007446 -2.5
5.291845798492432 0.8600121736526489 -2.5
5.205478191375732 1.2830395698547363 -2.5
3.713876962661743 3.8665623664855957 -2.5
3.0455615520477295 4.412237644195557 -2.5
1.9011377096176147 5.012876033782959 -2.5
1.491601586341858 5.14959716796875 -2.5
-1.0723974704742432 5.252922058105469 -2.5
-1.4915869235992432 5.149595737457275 -2.5
-1.9011181592941284 5.012874603271484 -2.5
-2.6806297302246094 4.642992973327637 -2.5
-3.713876962661743 3.8665611743927 -2.5
-4.286020278930664 3.220738410949707 -2.5
-5.085361003875732 1.6977429389953613 -2.5
-5.343881607055664 0.4314025640487671 -2.5
