ply
format ascii 1.0
element vertex 780
property float x
property float y
property float z
end_header
-6.244228363037109 -16.464618682861328 4.718283653259277
15.924867630004883 -14.108154296875 5.700721263885498
15.922426223754883 -14.105996131896973 5.447935581207275
15.920000076293945 -14.10384750366211 5.196657180786133
-6.236869812011719 -16.445215225219727 4.091333389282227
15.91759204864502 -14.10170841217041 4.946811199188232
15.915194511413574 -14.099579811096191 4.698328018188477
15.91280460357666 -14.0974702835083 4.451124668121338
15.905702590942383 -14.091181755065918 3.7165660858154297
-6.222524166107178 -16.407392501831055 2.86903977394104
15.903356552124023 -14.08910083770752 3.473832845687866
-6.220170974731445 -16.40119171142578 2.668748617172241
15.90102767944336 -14.087040901184082 3.2320494651794434
-24.026336669921875 -10.236650466918945 3.677767753601074
-6.217826843261719 -16.39501953125 2.4692678451538086
15.898700714111328 -14.084970474243164 2.9911510944366455
15.896376609802246 -14.08292007446289 2.7510693073272705
-23.99769401550293 -10.22445297241211 3.0855352878570557
-6.213173866271973 -16.38274383544922 2.072551727294922
15.89406681060791 -14.0808687210083 2.511749267578125
-23.983455657958984 -10.218388557434082 2.7911436557769775
-6.210859298706055 -16.37662124633789 1.875216007232666
15.891757011413574 -14.078837394714355 2.2731194496154785
-6.206249713897705 -16.364471435546875 1.4823434352874756
-23.941030502319336 -10.200312614440918 1.9139376878738403
-16.0015869140625 -23.18233299255371 2.071713447570801
-6.203949928283691 -16.358417510986328 1.2867259979248047
5.430776119232178 -26.6016788482666 1.9968209266662598
-23.92698097229004 -10.194315910339355 1.62327241897583
-15.996821403503418 -23.17544937133789 1.7575939893722534
-6.20166015625 -16.352373123168945 1.0915606021881104
5.430776119232178 -26.601659774780273 1.69456148147583
-6.199379920959473 -16.34634780883789 0.89678955078125
15.678805351257324 -22.714628219604492 1.4158037900924683
-6.197089672088623 -16.34033203125 0.7023806571960449
5.430776119232178 -26.601659774780273 1.0913763046264648
-23.885009765625 -10.176445007324219 0.755430281162262
-6.194814205169678 -16.334325790405273 0.5083276033401489
-23.87107276916504 -10.170507431030273 0.467292457818985
-6.190263748168945 -16.322324752807617 0.12090393155813217
-23.84326171875 -10.158652305603027 -0.10770324617624283
-6.187997817993164 -16.316347122192383 -0.07251739501953125
5.430776119232178 -26.601659774780273 -0.11282394081354141
-23.829383850097656 -10.15274429321289 -0.3946998417377472
-6.185717582702637 -16.310361862182617 -0.26581040024757385
5.430776119232178 -26.601659774780273 -0.4138513207435608
-6.183456897735596 -16.304384231567383 -0.45904722809791565
5.430776119232178 -26.601659774780273 -0.7145487666130066
-23.80164909362793 -10.140917778015137 -0.968138575553894
5.430776119232178 -26.601659774780273 -1.0158941745758057
27.192195892333984 -2.1951560974121094 -1.0207688808441162
-23.787797927856445 -10.135019302368164 -1.2545497417449951
-6.178925514221191 -16.292430877685547 -0.8454267978668213
5.430766582489014 -26.601669311523438 -1.317318081855774
26.53447723388672 -2.1420605182647705 -1.2916237115859985
-25.380170822143555 -13.320507049560547 -1.709289789199829
-6.176650047302246 -16.286436080932617 -1.0387067794799805
5.430776119232178 -26.601659774780273 -1.6190667152404785
6.509462833404541 -9.43057632446289 -0.6833381652832031
24.8437442779541 -10.584912300109863 -1.610378384590149
26.084440231323242 -2.1057422161102295 -1.5605629682540894
-23.776636123657227 -10.130263328552246 -1.82882559299469
-25.568817138671875 -13.41952133178711 -2.043351411819458
-14.643085479736328 -17.93450164794922 -1.6383618116378784
-6.174375057220459 -16.280458450317383 -1.2321193218231201
5.430776119232178 -26.601659774780273 -1.9212144613265991
5.53420877456665 -9.585527420043945 -0.7832233905792236
26.033485412597656 -2.101611375808716 -1.8481746912002563
-28.29019546508789 -4.597587585449219 -2.347599983215332
-24.268436431884766 -15.346435546875 -2.351879835128784
-21.581777572631836 -19.119813919067383 -2.3616597652435303
-19.99588394165039 -20.81791877746582 -2.364323616027832
-14.840307235717773 -18.17607307434082 -1.9219727516174316
-14.438227653503418 -25.007762908935547 -2.365217924118042
-6.175610065460205 -16.283681869506836 -1.42646324634552
5.411796569824219 -26.50874900817871 -2.216071367263794
5.523603439331055 -9.567148208618164 -0.9048536419868469
18.257017135620117 -22.360742568969727 -2.3644680976867676
15.204111099243164 -15.8291015625 -1.7977426052093506
21.542705535888672 -19.08516502380371 -2.357375383377075
22.967838287353516 -17.259180068969727 -2.353207588195801
23.646753311157227 -14.95327091217041 -2.2916293144226074
27.186317443847656 -9.076112747192383 -2.347599983215332
27.828495025634766 -6.859081745147705 -2.347599983215332
25.87089729309082 -2.088495969772339 -2.125933885574341
-26.860145568847656 0.0 -2.5
-26.77305030822754 -2.1613378524780273 -2.5
-26.5123291015625 -4.308661937713623 -2.5
-21.318021774291992 -13.480712890625 -2.347599983215332
-20.16413116455078 -15.1524019241333 -2.347599983215332
-17.49124526977539 -18.210302352905273 -2.3501293659210205
-14.368837356567383 -20.816884994506836 -2.3542675971984863
-9.289970397949219 -19.578250885009766 -2.0169756412506104
-7.05394983291626 -24.353153228759766 -2.3598320484161377
1.8602977991104126 -15.320907592773438 -1.436461091041565
3.10430645942688 -15.205878257751465 -1.444474458694458
7.0587158203125 -24.369462966918945 -2.361414670944214
5.509472370147705 -9.542685508728027 -1.025584101676941
6.484628677368164 -9.3945894241333 -1.0624732971191406
15.245180130004883 -13.505986213684082 -1.8956807851791382
21.318037033081055 -13.480673789978027 -2.347599983215332
24.542579650878906 -8.193495750427246 -2.4082276821136475
26.079652786254883 -6.428017616271973 -2.5
25.864871978759766 -2.088007688522339 -2.4151947498321533
-23.977596282958984 1.9531249563442543e-05 -2.5
-23.280853271484375 -5.738212585449219 -2.5
-11.206815719604492 -4.774775505065918 -1.270101547241211
-19.93685531616211 -10.463671684265137 -2.347599983215332
-18.00019073486328 -13.526288986206055 -2.347599983215332
-12.790458679199219 -18.530214309692383 -2.347599983215332
-11.257685661315918 -19.498905181884766 -2.3475475311279297
-9.65780258178711 -20.35340690612793 -2.3489155769348145
-6.178520202636719 -16.291357040405273 -1.8166533708572388
-4.793784141540527 -16.55000877380371 -1.796495795249939
0.9088476300239563 -22.552459716796875 -2.353318691253662
7.587470531463623 -20.00650405883789 -2.230938673019409
6.476357460021973 -9.382607460021973 -1.1886868476867676
14.24010181427002 -17.440927505493164 -2.347599983215332
14.640531539916992 -15.242353439331055 -2.2035884857177734
15.245180130004883 -13.505986213684082 -2.123579978942871
19.03024673461914 -12.033974647521973 -2.347599983215332
19.936840057373047 -10.463651657104492 -2.347599983215332
22.74359893798828 -7.592909812927246 -2.5
9.677929878234863 -2.385390520095825 -1.039259433746338
23.89983367919922 -1.9293651580810547 -2.5
-13.717905044555664 -3.38116192817688 -1.6315429210662842
-12.04430103302002 -4.020976543426514 -1.466328740119934
-11.050580978393555 -4.708202838897705 -1.3871089220046997
-19.123559951782227 -10.036826133728027 -2.494056463241577
-17.374902725219727 -10.987226486206055 -2.3739540576934814
-16.251996994018555 -12.212597846984863 -2.347599983215332
-12.85707950592041 -15.747079849243164 -2.347599983215332
-10.16458511352539 -17.6055850982666 -2.347599983215332
-5.905185222625732 -15.570634841918945 -1.9230506420135498
-4.838364124298096 -16.703916549682617 -2.0082430839538574
-4.066347599029541 -19.9183292388916 -2.347599983215332
-0.8185546398162842 -20.312685012817383 -2.347599983215332
0.8185839653015137 -20.312685012817383 -2.347599983215332
1.853676676750183 -15.266406059265137 -1.7759029865264893
3.094057559967041 -15.155673027038574 -1.7862679958343506
5.655947208404541 -19.52652359008789 -2.347599983215332
7.208842754364014 -19.008094787597656 -2.347599983215332
4.777568340301514 -10.06850528717041 -1.2869603633880615
5.480341911315918 -9.492226600646973 -1.2657326459884644
6.467494964599609 -9.369765281677246 -1.3147469758987427
12.8571138381958 -15.74705982208252 -2.347599983215332
19.169153213500977 -10.060731887817383 -2.5
20.534765243530273 -6.85549783706665 -2.5
9.17025375366211 -2.26025390625 -1.0906678438186646
9.833402633666992 -1.5980761051177979 -1.1504528522491455
21.57869529724121 -1.7419921159744263 -2.5
-13.525976181030273 -3.3338475227355957 -1.7653554677963257
-11.923319816589355 -3.9805760383605957 -1.5929434299468994
-16.673891067504883 -10.543935775756836 -2.5
-15.581865310668945 -11.709023475646973 -2.469956874847412
-12.832968711853027 -13.360527038574219 -2.347599983215332
-11.716279029846191 -14.349833488464355 -2.347599983215332
-7.941664695739746 -16.73674774169922 -2.347599983215332
-5.905185222625732 -15.570634841918945 -2.110297679901123
-3.7055320739746094 -18.150976181030273 -2.347599983215332
-2.232963800430298 -18.390283584594727 -2.347599983215332
-0.7459276914596558 -18.510351181030273 -2.347599983215332
1.853676676750183 -15.266406059265137 -1.948822259902954
3.094057559967041 -15.155673027038574 -1.9601958990097046
4.076347351074219 -10.74843692779541 -1.4567447900772095
4.565292835235596 -9.621122360229492 -1.3495190143585205
5.467548847198486 -9.47005844116211 -1.3857333660125732
12.832968711853027 -13.360536575317383 -2.347599983215332
16.673906326293945 -10.543925285339355 -2.5
18.149337768554688 -7.732705116271973 -2.5
18.71271514892578 -6.247197151184082 -2.5
19.66401481628418 -1.5874121189117432 -2.5
-17.881454467773438 -2.906015634536743 -2.5
-13.612455368041992 -3.355165958404541 -1.934726357460022
-10.603647232055664 -4.517783164978027 -1.5905709266662598
-9.663735389709473 -14.000361442565918 -2.347599983215332
-8.505844116210938 -14.732548713684082 -2.347599983215332
-7.292778015136719 -15.36922836303711 -2.347599983215332
-5.873007774353027 -15.485761642456055 -2.285541534423828
-4.656508922576904 -16.076074600219727 -2.309670925140381
-3.402773380279541 -16.667890548706055 -2.347599983215332
-2.050527334213257 -16.88765525817871 -2.347599983215332
-0.6849657893180847 -16.997909545898438 -2.347599983215332
3.094057559967041 -15.155673027038574 -2.134610176086426
5.449321269989014 -9.438486099243164 -1.5040017366409302
12.511933326721191 -13.02627944946289 -2.492527961730957
13.560065269470215 -12.01317310333252 -2.5
15.311515808105469 -9.682401657104492 -2.5
16.66639518737793 -7.100869178771973 -2.5
8.962798118591309 -2.9922070503234863 -1.3039644956588745
8.744741439819336 -2.1553709506988525 -1.2428826093673706
9.641288757324219 -1.5668554306030273 -1.3479442596435547
-16.7437686920166 9.765624781721272e-06 -2.5
-16.689462661743164 -1.3473047018051147 -2.5
-10.532001495361328 -4.487265586853027 -1.7093043327331543
-10.116201400756836 -5.309394359588623 -1.7058370113372803
-12.532876014709473 -11.10317325592041 -2.5
-6.74035120010376 -14.204999923706055 -2.347599983215332
-5.575448989868164 -14.701308250427246 -2.347599983215332
-4.37441873550415 -15.102274894714355 -2.347599983215332
-1.8951903581619263 -15.6083984375 -2.347599983215332
-0.6330907940864563 -15.710302352905273 -2.347599983215332
0.6331152319908142 -15.71029281616211 -2.347599983215332
1.853676676750183 -15.266406059265137 -2.296159505844116
4.374433517456055 -15.102274894714355 -2.347599983215332
3.787285089492798 -9.98624038696289 -1.594667911529541
11.598808288574219 -12.075634956359863 -2.5
12.532880783081055 -11.103154182434082 -2.5
13.385685920715332 -10.058671951293945 -2.5
14.825861930847168 -7.781210899353027 -2.5
15.403915405273438 -6.562978267669678 -2.5
8.603569030761719 -2.1205859184265137 -1.3230394124984741
9.539511680603027 -1.5503125190734863 -1.4430261850357056
10.906425476074219 -0.8804491758346558 -1.6337310075759888
-10.505854606628418 -4.476113319396973 -1.834648847579956
-12.440195083618164 -9.348212242126465 -2.5
-9.841527938842773 -12.053690910339355 -2.5
-8.83968734741211 -12.806513786315918 -2.5
-7.780541896820068 -13.476298332214355 -2.5
-6.655693054199219 -14.026611328125 -2.4942984580993652
-5.434003829956055 -14.328349113464355 -2.461937427520752
-4.195224285125732 -14.483710289001465 -2.422558307647705
-2.980659008026123 -14.60024356842041 -2.394014835357666
-0.593432605266571 -14.726171493530273 -2.3677868843078613
0.5939111113548279 -14.737343788146973 -2.369584321975708
1.7866991758346558 -14.714735984802246 -2.381392240524292
2.9923486709594727 -14.65746021270752 -2.403398036956787
3.78533673286438 -9.98110294342041 -1.714982271194458
9.841547966003418 -12.053671836853027 -2.5
10.779545783996582 -11.222684860229492 -2.5
13.152077674865723 -8.316855430603027 -2.5
13.778666496276855 -7.231601238250732 -2.5
14.315896034240723 -6.099413871765137 -2.5
8.619882583618164 -2.8777246475219727 -1.4599813222885132
8.474535942077637 -2.0887792110443115 -1.4022420644760132
-14.5310640335083 0.0 -2.5
-14.483930587768555 -1.1692577600479126 -2.5
-14.342880249023438 -2.330927610397339 -2.5
-13.618037223815918 -3.3565428256988525 -2.413037061691284
-10.074228286743164 -5.287363052368164 -1.957435965538025
-11.616738319396973 -8.729423522949219 -2.5
-10.876660346984863 -9.635869026184082 -2.5
-8.25455093383789 -11.958807945251465 -2.5
-7.265517234802246 -12.584257125854492 -2.5
-5.152763366699219 -13.586767196655273 -2.5
-4.042773246765137 -13.957353591918945 -2.5
-2.9047605991363525 -14.22850513458252 -2.4984421730041504
-1.7492040395736694 -14.405976295471191 -2.4966866970062256
-0.5841211080551147 -14.495468139648438 -2.4959027767181396
1.7495946884155273 -14.409071922302246 -2.497223377227783
2.905829906463623 -14.233642578125 -2.4993441104888916
3.78533673286438 -9.98110294342041 -1.8365496397018433
6.322885513305664 -9.160263061523438 -1.9149595499038696
9.190102577209473 -11.255810737609863 -2.5
10.8766450881958 -9.635869026184082 -2.5
11.616752624511719 -8.72940444946289 -2.5
12.281503677368164 -7.766347408294678 -2.5
12.86661148071289 -6.752910137176514 -2.5
13.368270874023438 -5.69567346572876 -2.5
8.53548812866211 -2.849550724029541 -1.5481643676757812
8.3643798828125 -2.0616209506988525 -1.4821209907531738
10.905644416809082 -0.8803905844688416 -1.8823691606521606
-13.449228286743164 -2.1857128143310547 -2.5
-12.924452781677246 -4.314814567565918 -2.5
-10.507538795471191 -4.47683572769165 -2.09558367729187
-10.198954582214355 -9.035497665405273 -2.5
-9.438838005065918 -9.826865196228027 -2.5
-8.617480278015137 -10.554511070251465 -2.5
-7.740239143371582 -11.21371078491211 -2.5
-6.812836647033691 -11.800175666809082 -2.5
-5.84121561050415 -12.3101167678833 -2.5
-4.831713676452637 -12.74022388458252 -2.5
-3.790888547897339 -13.0877046585083 -2.5
-0.5486279129981995 -13.614619255065918 -2.5
0.548657238483429 -13.614628791809082 -2.5
2.7255029678344727 -13.350292205810547 -2.5
5.350224494934082 -9.266864776611328 -1.963289499282837
6.323671817779541 -9.161406517028809 -2.0424587726593018
10.198959350585938 -9.03548812866211 -2.5
10.892958641052246 -8.185507774353027 -2.5
11.516279220581055 -7.282441139221191 -2.5
12.535341262817383 -5.340800762176514 -2.5
9.253192901611328 -1.5037890672683716 -1.7200241088867188
-12.823447227478027 9.765624781721272e-06 -2.5
-12.657397270202637 -2.057021379470825 -2.5
-10.838241577148438 -6.853681564331055 -2.5
-10.25161075592041 -7.703583717346191 -2.5
-9.598495483398438 -8.503515243530273 -2.5
-8.883119583129883 -9.248310089111328 -2.5
-8.110126495361328 -9.933115005493164 -2.5
-7.2845458984375 -10.553485870361328 -2.5
-2.565004825592041 -12.564276695251465 -2.5
-1.5456981658935547 -12.729941368103027 -2.5
-0.5163427591323853 -12.8130464553833 -2.5
2.5650243759155273 -12.564287185668945 -2.5
3.5677196979522705 -12.317148208618164 -2.5
4.13406229019165 -10.900605201721191 -2.2728302478790283
6.411728382110596 -11.105420112609863 -2.5
8.110136985778809 -9.933095932006836 -2.5
9.598485946655273 -8.50350570678711 -2.5
10.251615524291992 -7.703583717346191 -2.5
11.354609489440918 -5.95934534072876 -2.5
8.487035751342773 -2.833388566970825 -1.7443653345108032
8.284253120422363 -2.041874885559082 -1.6633944511413574
9.227313995361328 -1.4995898008346558 -1.8225153684616089
10.895273208618164 -0.8795507550239563 -2.131002426147461
-12.068251609802246 -0.9742480516433716 -2.5
-11.950727462768555 -1.942177653312683 -2.5
-11.48440933227539 -3.834052562713623 -2.5
-10.720673561096191 -5.626650333404541 -2.5
-9.062602043151855 -8.028769493103027 -2.5
-8.387177467346191 -8.731963157653809 -2.5
-6.877841472625732 -9.964286804199219 -2.5
-6.053750038146973 -10.485419273376465 -2.5
-4.293368816375732 -11.32070255279541 -2.5
-3.3685107231140137 -11.629472732543945 -2.5
-2.421806573867798 -11.862812042236328 -2.5
1.4594091176986694 -12.019218444824219 -2.5
4.293393611907959 -11.32070255279541 -2.5
4.416371822357178 -9.307294845581055 -2.1271796226501465
6.322514533996582 -9.159716606140137 -2.298140287399292
8.387163162231445 -8.731963157653809 -2.5
9.062602043151855 -8.028759956359863 -2.5
9.679266929626465 -7.273486137390137 -2.5
8.267763137817383 -2.0378026962280273 -1.7582470178604126
9.216259956359863 -1.4977831840515137 -1.9279721975326538
-11.464521408081055 9.765624781721272e-06 -2.5
-10.547109603881836 -4.493691444396973 -2.5
-10.151323318481445 -5.327841758728027 -2.5
-9.689697265625 -6.127392292022705 -2.5
-8.581308364868164 -7.602382659912109 -2.5
-7.941747665405273 -8.268232345581055 -2.5
-6.5125732421875 -9.435107231140137 -2.5
-5.732245922088623 -9.928564071655273 -2.5
-4.914741039276123 -10.357617378234863 -2.5
-2.2931981086730957 -11.23281192779541 -2.5
-1.3818944692611694 -11.380927085876465 -2.5
0.4616454839706421 -11.455214500427246 -2.5
2.293203115463257 -11.23281192779541 -2.5
4.065380573272705 -10.719491958618164 -2.5
5.732260704040527 -9.928544998168945 -2.5
7.250683307647705 -8.88045883178711 -2.5
8.581317901611328 -7.602372646331787 -2.5
8.460331916809082 -2.824462890625 -1.944990634918213
8.248330116271973 -2.033017635345459 -1.8524956703186035
9.218291282653809 -1.4981054067611694 -2.036550760269165
-10.84841251373291 -0.8757714629173279 -2.5
-10.567436218261719 -2.6046385765075684 -2.5
-10.01278305053711 -4.266054630279541 -2.5
-9.198798179626465 -5.816972732543945 -2.5
-8.700888633728027 -6.538320064544678 -2.5
-8.146567344665527 -7.217236042022705 -2.5
-6.18264627456665 -8.95711898803711 -2.5
-5.441840648651123 -9.425556182861328 -2.5
-3.8594043254852295 -10.17642593383789 -2.5
-3.028022289276123 -10.453984260559082 -2.5
-1.3118749856948853 -10.804335594177246 -2.5
0.4382568299770355 -10.874862670898438 -2.5
5.441864967346191 -9.425556182861328 -2.5
6.182651042938232 -8.957098960876465 -2.5
9.198798179626465 -5.816953182220459 -2.5
9.637041091918945 -5.057900428771973 -2.5
10.01278305053711 -4.266035079956055 -2.5
8.233778953552246 -2.029423713684082 -1.947912573814392
-10.356362342834473 0.0 -2.5
-10.222241401672363 -1.6612597703933716 -2.5
-9.527631759643555 -4.059345722198486 -2.5
-9.170092582702637 -4.812831878662109 -2.5
-7.174096584320068 -7.46902322769165 -2.5
-6.549824237823486 -8.022079467773438 -2.5
-5.883080959320068 -8.52310562133789 -2.5
-2.881298780441284 -9.947461128234863 -2.5
-1.2483203411102295 -10.280839920043945 -2.5
-0.4169921875 -10.347949028015137 -2.5
0.4170214831829071 -10.3479585647583 -2.5
2.071542978286743 -10.147050857543945 -2.5
2.8813230991363525 -9.947470664978027 -2.5
3.672426700592041 -9.683340072631836 -2.5
4.41165018081665 -9.297333717346191 -2.4842066764831543
5.883076190948486 -8.52310562133789 -2.5
8.279315948486328 -6.221484184265137 -2.5
8.75308609008789 -5.535107135772705 -2.5
9.527631759643555 -4.059335708618164 -2.5
8.460375785827637 -2.8244824409484863 -2.1531221866607666
8.247549057006836 -2.0328221321105957 -2.050523519515991
9.223241806030273 -1.4989160299301147 -2.2556793689727783
10.322772979736328 -0.8333203196525574 -2.5
-9.747421264648438 -1.5841015577316284 -2.5
-9.588349342346191 -2.3633203506469727 -2.5
-9.0850830078125 -3.870790958404541 -2.5
-8.346513748168945 -5.278017520904541 -2.5
-7.391767501831055 -6.548534870147705 -2.5
-6.840873718261719 -7.122089862823486 -2.5
-5.609809398651123 -8.127206802368164 -2.5
-4.233466625213623 -8.921835899353027 -2.5
1.1903417110443115 -9.803290367126465 -2.5
2.747490167617798 -9.485380172729492 -2.5
3.501835823059082 -9.23355484008789 -2.5
4.937655925750732 -8.552255630493164 -2.5
5.609819412231445 -8.127197265625 -2.5
6.245595455169678 -7.64944314956665 -2.5
6.840864181518555 -7.122079849243164 -2.5
8.744140625 -4.589277267456055 -2.5
9.0850830078125 -3.8707714080810547 -2.5
9.206767082214355 -3.073662042617798 -2.457213878631592
8.271254539489746 -2.0386717319488525 -2.1565916538238525
9.843280792236328 -0.794628918170929 -2.5
-9.434609413146973 9.765624781721272e-06 -2.5
-9.404013633728027 -0.7591601610183716 -2.5
-9.312421798706055 -1.5134081840515137 -2.5
-9.160449028015137 -2.257861375808716 -2.5
-8.679633140563965 -3.6980466842651367 -2.5
-8.353920936584473 -4.384472370147705 -2.5
-7.542421817779541 -5.667763710021973 -2.5
-5.966879844665527 -7.308085918426514 -2.5
-4.717304706573486 -8.170605659484863 -2.5
-3.3455517292022705 -8.821503639221191 -2.5
-2.6248583793640137 -9.06209945678711 -2.5
-1.8871630430221558 -9.243935585021973 -2.5
0.3799121081829071 -9.426933288574219 -2.5
2.624887704849243 -9.06209945678711 -2.5
5.359467506408691 -7.764511585235596 -2.5
6.535581111907959 -6.804247856140137 -2.5
7.542436122894287 -5.66775369644165 -2.5
7.974042892456055 -5.042470455169678 -2.5
8.35390567779541 -4.384472370147705 -2.5
8.94906234741211 -2.987626791000366 -2.5
9.160449028015137 -2.2578320503234863 -2.5
-9.029281616210938 9.765624781721272e-06 -2.5
-9.000004768371582 -0.7265527248382568 -2.5
-8.56459903717041 -2.8592772483825684 -2.5
-8.306747436523438 -3.5391697883605957 -2.5
-7.995028972625732 -4.196113109588623 -2.5
-6.254794597625732 -6.511933326721191 -2.5
-5.710532188415527 -6.994121074676514 -2.5
-4.5146484375 -7.819570064544678 -2.5
-3.2018065452575684 -8.442500114440918 -2.5
-1.8060741424560547 -8.846776962280273 -2.5
-1.088344693183899 -8.963427543640137 -2.5
-0.3635595738887787 -9.021943092346191 -2.5
0.3635839819908142 -9.021943092346191 -2.5
1.0883691310882568 -8.9634370803833 -2.5
1.8060888051986694 -8.846786499023438 -2.5
2.5121092796325684 -8.672773361206055 -2.5
3.870795726776123 -8.157489776611328 -2.5
4.514643669128418 -7.819570064544678 -2.5
7.218393325805664 -5.424257755279541 -2.5
7.631454944610596 -4.825829982757568 -2.5
8.306747436523438 -3.5391600131988525 -2.5
8.56459903717041 -2.859267473220825 -2.5
8.912348747253418 -1.448388695716858 -2.5
-8.543081283569336 -1.3883886337280273 -2.5
-8.209721565246582 -2.7408103942871094 -2.5
-7.663754940032959 -4.02224588394165 -2.5
-7.315253734588623 -4.625878810882568 -2.5
-6.91930627822876 -5.199521541595459 -2.5
-5.995639324188232 -6.242109298706055 -2.5
-4.327578067779541 -7.495575904846191 -2.5
-3.710400342941284 -7.819501876831055 -2.5
-3.069155216217041 -8.092695236206055 -2.5
-1.7312499284744263 -8.480224609375 -2.5
0.3485107421875 -8.648134231567383 -2.5
1.7312597036361694 -8.480224609375 -2.5
3.069164991378784 -8.092695236206055 -2.5
3.7104148864746094 -7.819491863250732 -2.5
4.916698932647705 -7.123036861419678 -2.5
5.473920822143555 -6.704306602478027 -2.5
6.478486061096191 -5.739433288574219 -2.5
6.9193115234375 -5.199501991271973 -2.5
7.315253734588623 -4.625869274139404 -2.5
7.962563514709473 -3.392529249191284 -2.5
8.40365219116211 -2.071298837661743 -2.5
8.627089500427246 -0.6964355111122131 -2.5
-8.28173828125 -0.6685644388198853 -2.5
-7.356967449188232 -3.861220598220825 -2.5
-7.022411823272705 -4.44070291519165 -2.5
-6.219135761260986 -5.509667873382568 -2.5
-5.755624771118164 -5.992236137390137 -2.5
-5.254785060882568 -6.435946941375732 -2.5
-3.5618603229522705 -7.506474494934082 -2.5
-1.6619433164596558 -8.140761375427246 -2.5
1.0015087127685547 -8.248095512390137 -2.5
1.6619579792022705 -8.140751838684082 -2.5
2.311635732650757 -7.980615139007568 -2.5
2.9463133811950684 -7.768740177154541 -2.5
3.5618748664855957 -7.506474494934082 -2.5
4.719872951507568 -6.837890625 -2.5
5.254794597625732 -6.435927391052246 -2.5
6.642309188842773 -4.991366863250732 -2.5
7.356972694396973 -3.8612303733825684 -2.5
7.881088733673096 -2.6310741901397705 -2.5
8.067245483398438 -1.988378882408142 -2.5
-7.98681640625 9.765624781721272e-06 -2.5
-7.960903167724609 -0.6426659822463989 -2.5
-7.883393287658691 -1.2811717987060547 -2.5
-7.754735946655273 -1.9113671779632568 -2.5
-7.347704887390137 -3.130556583404541 -2.5
-7.071972370147705 -3.7116503715515137 -2.5
-6.750375747680664 -4.268671989440918 -2.5
-6.38500452041626 -4.798017501831055 -2.5
-5.978212833404541 -5.296230316162109 -2.5
-3.993408203125 -6.91677713394165 -2.5
-3.42388653755188 -7.215683460235596 -2.5
-2.832158088684082 -7.46780252456665 -2.5
-2.222055673599243 -7.671474456787109 -2.5
-0.962695300579071 -7.928564071655273 -2.5
-0.32158201932907104 -7.980331897735596 -2.5
1.5975682735443115 -7.825400352478027 -2.5
2.2220799922943115 -7.671464443206787 -2.5
3.993422746658325 -6.91677713394165 -2.5
5.051230430603027 -6.186611175537109 -2.5
6.38500452041626 -4.798007488250732 -2.5
6.750380516052246 -4.268671989440918 -2.5
7.071972370147705 -3.7116503715515137 -2.5
7.347704887390137 -3.130556583404541 -2.5
7.754726409912109 -1.9113574028015137 -2.5
7.883388519287109 -1.2811717987060547 -2.5
-7.662045955657959 -0.6185351610183716 -2.5
-7.587421894073486 -1.2330663204193115 -2.5
-7.463603496551514 -1.8396190404891968 -2.5
-7.291367053985596 -2.434208869934082 -2.5
-7.071855545043945 -3.012939453125 -2.5
-6.49694299697876 -4.108407974243164 -2.5
-6.145283222198486 -4.617880821228027 -2.5
-4.366684436798096 -6.326220512390137 -2.5
-3.8434910774230957 -6.657109260559082 -2.5
-3.29534649848938 -6.944785118103027 -2.5
-2.725830078125 -7.187421798706055 -2.5
0.3095410168170929 -7.680712699890137 -2.5
0.9265673756599426 -7.630908012390137 -2.5
2.1386523246765137 -7.383456707000732 -2.5
2.7258496284484863 -7.187431335449219 -2.5
3.295356273651123 -6.944775104522705 -2.5
6.496953010559082 -4.108407974243164 -2.5
6.806469440460205 -3.5723047256469727 -2.5
7.071860313415527 -3.013017416000366 -2.5
7.291367053985596 -2.434208869934082 -2.5
7.587426662445068 -1.2330663204193115 -2.5
7.662040710449219 -0.6185351610183716 -2.5
-7.382861137390137 -0.5960058569908142 -2.5
-7.310956954956055 -1.1881250143051147 -2.5
-7.191640377044678 -1.7725683450698853 -2.5
-7.025693416595459 -2.345507860183716 -2.5
-6.814174652099609 -2.9032421112060547 -2.5
-6.558461666107178 -3.4421582221984863 -2.5
-5.130927562713623 -5.341845512390137 -2.5
-4.207582950592041 -6.09573221206665 -2.5
-3.703442335128784 -6.414531230926514 -2.5
-2.060717821121216 -7.114423751831055 -2.5
-1.4815624952316284 -7.257177352905273 -2.5
-0.8927929401397705 -7.352860927581787 -2.5
0.8928124904632568 -7.352851390838623 -2.5
1.4815673828125 -7.257177352905273 -2.5
2.626523494720459 -6.925537109375 -2.5
3.703442335128784 -6.414540767669678 -2.5
4.207582950592041 -6.095722675323486 -2.5
4.6844482421875 -5.737382888793945 -2.5
5.130927562713623 -5.341845512390137 -2.5
5.544120788574219 -4.911660194396973 -2.5
6.260214805603027 -3.9587109088897705 -2.5
6.558461666107178 -3.442138671875 -2.5
7.19164514541626 -1.7725683450698853 -2.5
7.382856369018555 -0.595996081829071 -2.5
-6.5728759765625 -2.800429582595825 -2.5
-6.326220512390137 -3.320253849029541 -2.5
-6.038530349731445 -3.818535089492798 -2.5
-5.711689472198486 -4.292060375213623 -2.5
-5.34780740737915 -4.737734317779541 -2.5
-3.5722949504852295 -6.187382698059082 -2.5
-3.0628368854522705 -6.454775333404541 -2.5
-1.4290869235992432 -7.000185489654541 -2.5
-0.28767088055610657 -7.138779163360596 -2.5
2.533515453338623 -6.68029260635376 -2.5
4.518574237823486 -5.534228324890137 -2.5
5.347802639007568 -4.737734317779541 -2.5
5.711689472198486 -4.292050838470459 -2.5
7.052070140838623 -1.1460644006729126 -2.5
7.121420860290527 -0.5748925805091858 -2.5
-6.543403148651123 -2.184501886367798 -2.5
-6.108232498168945 -3.2058496475219727 -2.5
-5.830463886260986 -3.686904191970825 -2.5
-5.514882564544678 -4.144169807434082 -2.5
-5.163535118103027 -4.574482440948486 -2.5
-4.778700828552246 -4.975136756896973 -2.5
-3.449213743209839 -5.974199295043945 -2.5
-2.4462108612060547 -6.450126647949219 -2.5
-0.8314940929412842 -6.848105430603027 -2.5
0.27778318524360657 -6.892802715301514 -2.5
0.8315185308456421 -6.848105430603027 -2.5
1.3798632621765137 -6.758984088897705 -2.5
1.9192724227905273 -6.626035213470459 -2.5
2.446225643157959 -6.450107097625732 -2.5
2.9573094844818115 -6.232363224029541 -2.5
4.362875938415527 -5.343525409698486 -2.5
5.83047342300415 -3.686953067779541 -2.5
6.108242034912109 -3.2058398723602295 -2.5
6.346396446228027 -2.703935384750366 -2.5
6.543398380279541 -2.184501886367798 -2.5
6.697963714599609 -1.65087890625 -2.5
6.876044750213623 -0.5550780892372131 -2.5
-6.473119735717773 -1.5954687595367432 -2.5
-6.323744773864746 -2.1111717224121094 -2.5
-6.133359432220459 -2.613173723220825 -2.5
-5.9031982421875 -3.0982322692871094 -2.5
-4.618281364440918 -4.80813455581665 -2.5
-3.7871923446655273 -5.486708641052246 -2.5
-2.858022451400757 -6.023154258728027 -2.5
-1.3335399627685547 -6.53209924697876 -2.5
-0.2684375047683716 -6.661425590515137 -2.5
0.26845213770866394 -6.661425590515137 -2.5
1.3335497379302979 -6.53209924697876 -2.5
1.8548437356948853 -6.403603553771973 -2.5
2.3641064167022705 -6.233593463897705 -2.5
4.990204811096191 -4.42092752456665 -2.5
5.634750843048096 -3.563183546066284 -2.5
6.323740005493164 -2.1111717224121094 -2.5
6.580512523651123 -1.069423794746399 -2.5
6.645229339599609 -0.5364453196525574 -2.5
-6.448574066162109 0.0 -2.5
-6.427651405334473 -0.5188769698143005 -2.5
-6.365058422088623 -1.0344140529632568 -2.5
-6.261181354522705 -1.5432324409484863 -2.5
-6.116703987121582 -2.042050838470459 -2.5
-5.932548522949219 -2.5276269912719727 -2.5
-5.709921836853027 -2.9967870712280273 -2.5
-5.155253887176514 -3.873915910720825 -2.5
-4.467074871063232 -4.650712966918945 -2.5
-3.2242772579193115 -5.584609031677246 -2.5
-2.286694288253784 -6.029511451721191 -2.5
-1.2898778915405273 -6.318242073059082 -2.5
0.7772997617721558 -6.401552677154541 -2.5
2.286699056625366 -6.029501914978027 -2.5
2.764457941055298 -5.82595682144165 -2.5
3.663203001022339 -5.307050704956055 -2.5
4.467080116271973 -4.650712966918945 -2.5
4.826826095581055 -4.276181697845459 -2.5
5.155258655548096 -3.873915910720825 -2.5
5.450263500213623 -3.446523427963257 -2.5
5.932548522949219 -2.5276074409484863 -2.5
6.11669397354126 -2.042060613632202 -2.5
6.261176586151123 -1.5432324409484863 -2.5
6.365053653717041 -1.0344140529632568 -2.5
6.427651405334473 -0.5188769698143005 -2.5
-6.242421627044678 1.9531249563442543e-05 -2.5
-6.222182273864746 -0.5022948980331421 -2.5
-6.061025142669678 -1.4939062595367432 -2.5
-4.672524452209473 -4.139482498168945 -2.5
-3.546093702316284 -5.137412071228027 -2.5
-3.121210813522339 -5.406084060668945 -2.5
-1.7367479801177979 -5.995956897735596 -2.5
-1.2486523389816284 -6.116250038146973 -2.5
-0.75244140625 -6.19689416885376 -2.5
-0.25136229395866394 -6.237353324890137 -2.5
0.7524462938308716 -6.19689416885376 -2.5
2.676088809967041 -5.639707088470459 -2.5
3.121220588684082 -5.406074047088623 -2.5
4.324282169342041 -4.502040863037109 -2.5
4.672519207000732 -4.139472484588623 -2.5
4.990454196929932 -3.750077962875366 -2.5
5.527392387390137 -2.9009861946105957 -2.5
5.742905139923096 -2.4468066692352295 -2.5
5.921162128448486 -1.9767675399780273 -2.5
6.061025142669678 -1.493896484375 -2.5
6.222182273864746 -0.5023046731948853 -2.5
-6.047382831573486 9.765624781721272e-06 -2.5
-6.027773380279541 -0.4866015613079071 -2.5
-5.969077110290527 -0.9700683355331421 -2.5
-5.871650218963623 -1.4472265243530273 -2.5
-5.111176490783691 -3.232119083404541 -2.5
-4.834526062011719 -3.6329197883605957 -2.5
-4.526523113250732 -4.010146617889404 -2.5
-3.824638605117798 -4.684316158294678 -2.5
-3.435302734375 -4.976884841918945 -2.5
-3.023686408996582 -5.237167835235596 -2.5
-1.6824853420257568 -5.808603286743164 -2.5
-0.7289257645606995 -6.003271579742432 -2.5
0.24350585043430328 -6.042460918426514 -2.5
0.7289404273033142 -6.003271579742432 -2.5
1.2096385955810547 -5.925156116485596 -2.5
1.6824951171875 -5.808603286743164 -2.5
3.023696184158325 -5.237167835235596 -2.5
3.82464337348938 -4.684316158294678 -2.5
4.189169883728027 -4.361367225646973 -2.5
4.526533126831055 -4.010146617889404 -2.5
4.834536075592041 -3.6329002380371094 -2.5
5.354687213897705 -2.810351610183716 -2.5
5.563461780548096 -2.370361328125 -2.5
5.871650218963623 -1.4472167491912842 -2.5
5.969072341918945 -0.9700487852096558 -2.5
-5.786601543426514 -0.9404101371765137 -2.5
-5.69216775894165 -1.4029881954193115 -2.5
-5.560810565948486 -1.8564647436141968 -2.5
-5.393403053283691 -2.297910213470459 -2.5
-5.191005706787109 -2.7244529724121094 -2.5
-4.388164043426514 -3.8875584602355957 -2.5
-4.061113357543945 -4.22805643081665 -2.5
-3.7077245712280273 -4.541142463684082 -2.5
-3.3302879333496094 -4.824755668640137 -2.5
-2.931269407272339 -5.077089786529541 -2.5
-2.078871965408325 -5.481552600860596 -2.5
-0.7066552639007568 -5.819775104522705 -2.5
-0.2360546886920929 -5.857753753662109 -2.5
0.23605956137180328 -5.857753753662109 -2.5
1.172646403312683 -5.744042873382568 -2.5
1.6310546398162842 -5.631044864654541 -2.5
2.0788867473602295 -5.481533050537109 -2.5
3.3302977085113525 -4.824746131896973 -2.5
3.7077245712280273 -4.541122913360596 -2.5
4.061108112335205 -4.228046894073486 -2.5
4.388164043426514 -3.8875584602355957 -2.5
4.686748027801514 -3.521855354309082 -2.5
5.191000938415527 -2.724433422088623 -2.5
5.69216775894165 -1.4029881954193115 -2.5
-5.687026023864746 9.765624781721272e-06 -2.5
-5.668583869934082 -0.4576074182987213 -2.5
-5.521772384643555 -1.3609960079193115 -2.5
-4.546445369720459 -3.4164257049560547 -2.5
-3.9395458698272705 -4.101493835449219 -2.5
-3.59673810005188 -4.405185222625732 -2.5
-3.230595588684082 -4.680322170257568 -2.5
-2.43798828125 -5.137939453125 -2.5
-2.0166454315185547 -5.317451000213623 -2.5
-1.1375585794448853 -5.572089672088623 -2.5
-0.22899413108825684 -5.68240213394165 -2.5
0.22899413108825684 -5.682412147521973 -2.5
0.6854931712150574 -5.645546913146973 -2.5
2.0166454315185547 -5.317451000213623 -2.5
3.230605363845825 -4.680322170257568 -2.5
3.596733331680298 -4.405185222625732 -2.5
3.9395408630371094 -4.101493835449219 -2.5
5.035614967346191 -2.642880916595459 -2.5
5.231943130493164 -2.229120969772339 -2.5
5.394345760345459 -1.8008886575698853 -2.5
5.521772384643555 -1.360986351966858 -2.5
5.613373756408691 -0.9122558236122131 -2.5
5.668588638305664 -0.4576074182987213 -2.5
-5.502270221710205 -0.4441894292831421 -2.5
-5.448676586151123 -0.8854882717132568 -2.5
-5.236073970794678 -1.748046875 -2.5
-5.078437328338623 -2.163710832595825 -2.5
-4.665590763092041 -2.950331926345825 -2.5
-4.413046836853027 -3.3161914348602295 -2.5
-4.131899356842041 -3.660537004470825 -2.5
-3.8239550590515137 -3.981152296066284 -2.5
-2.366445302963257 -4.987187385559082 -2.5
-1.9574755430221558 -5.161425590515137 -2.5
-1.1041796207427979 -5.408603191375732 -2.5
-0.22227539122104645 -5.515683650970459 -2.5
0.6653808355331421 -5.479902267456055 -2.5
1.5358006954193115 -5.302206993103027 -2.5
1.9574657678604126 -5.161435604095459 -2.5
2.366445302963257 -4.987177848815918 -2.5
3.135810375213623 -4.542988300323486 -2.5
3.491205930709839 -4.275927543640137 -2.5
3.8239500522613525 -3.981152296066284 -2.5
4.413061618804932 -3.316171884536743 -2.5
4.887861251831055 -2.5653417110443115 -2.5
5.448671817779541 -0.885498046875 -2.5
-5.361269474029541 0.0 -2.5
-5.343886375427246 -0.4314062297344208 -2.5
-5.291840553283691 -0.85999995470047 -2.5
-4.932260513305664 -2.101435422897339 -2.5
-4.531289100646973 -2.865410089492798 -2.5
-4.286025524139404 -3.2207324504852295 -2.5
-3.713876962661743 -3.8665428161621094 -2.5
-3.045546770095825 -4.412226676940918 -2.5
-2.6806445121765137 -4.642988204956055 -2.5
-2.298334836959839 -4.843632698059082 -2.5
-1.0723974704742432 -5.252910137176514 -2.5
-0.6462304592132568 -5.322177410125732 -2.5
0.2158789038658142 -5.356914043426514 -2.5
1.4915966987609863 -5.149589538574219 -2.5
1.9011328220367432 -5.012861251831055 -2.5
2.298330068588257 -4.843632698059082 -2.5
3.3907177448272705 -4.152851581573486 -2.5
4.01296854019165 -3.55517578125 -2.5
4.286035060882568 -3.2207324504852295 -2.5
5.085361003875732 -1.6977343559265137 -2.5
5.205483436584473 -1.2830272912979126 -2.5
5.343886375427246 -0.431396484375 -2.5
