ply
format ascii 1.0
element vertex 921
property float x
property float y
property float z
end_header
12.492976188659668 18.099193572998047 5.892742156982422
-1.1400146484375 28.2894287109375 7.586275577545166
-8.932182312011719 23.552284240722656 6.74941349029541
-14.533320426940918 21.05514144897461 6.855185508728027
-18.10982894897461 18.85433578491211 7.004970073699951
12.481974601745605 18.083236694335938 5.627330780029297
-5.268491268157959 25.806747436523438 6.745604515075684
-3.663344621658325 12.64742660522461 3.37222957611084
-16.205347061157227 19.847963333129883 6.562305927276611
-18.109838485717773 18.85433578491211 6.695377826690674
17.53437042236328 11.088066101074219 5.06891393661499
-1.1422802209854126 28.345809936523438 6.931388854980469
-3.2819530963897705 27.029159545898438 6.652575492858887
-5.34219217300415 26.167802810668945 6.52548885345459
-14.524930953979492 21.042997360229492 6.247344970703125
-18.041717529296875 18.783428192138672 6.363510608673096
-1.1422899961471558 28.34580421447754 6.599140644073486
-3.6604392528533936 12.6373872756958 3.0605461597442627
-11.041479110717773 23.269433975219727 5.991390228271484
-12.867607116699219 22.287378311157227 5.986520290374756
-18.110477447509766 18.855005264282227 6.081569671630859
17.530038833618164 11.085331916809082 4.583088397979736
12.449408531188965 18.03606414794922 4.8425726890563965
-1.171108365058899 29.06101417541504 6.426767826080322
-5.441181659698486 26.652645111083984 6.010858058929443
-3.65899395942688 12.632421493530273 2.906104564666748
-12.867607116699219 22.287378311157227 5.686665058135986
-16.302812576293945 19.96733856201172 5.695993423461914
-18.1104679107666 18.855009078979492 5.776955604553223
17.5291748046875 11.084784507751465 4.34238862991333
-3.3895263671875 27.915130615234375 5.887615203857422
-5.441181659698486 26.652645111083984 5.69545316696167
-3.6575536727905273 12.62747573852539 2.752532958984375
-12.867607116699219 22.287378311157227 5.388275146484375
-16.302812576293945 19.96733856201172 5.39710807800293
12.428061485290527 18.005130767822266 4.328151702880859
-1.1797313690185547 29.274925231933594 5.796231746673584
-5.441176414489746 26.652645111083984 5.381515979766846
-3.656137704849243 12.622563362121582 2.599794626235962
-9.224966049194336 24.324291229248047 5.146578311920166
-14.533842086791992 21.055892944335938 5.0615105628967285
-16.30281639099121 19.96733856201172 5.09961462020874
-18.110477447509766 18.855005264282227 5.172101974487305
17.5274658203125 11.08370590209961 3.864344358444214
-1.1797313690185547 29.274925231933594 5.459575653076172
-3.654716730117798 12.61766529083252 2.447844982147217
-9.224966049194336 24.324291229248047 4.847656726837158
-12.867607116699219 22.287378311157227 4.795557022094727
-18.1104679107666 18.855009078979492 4.871696472167969
12.40697193145752 17.974578857421875 3.8199236392974854
-3.389521360397339 27.915136337280273 4.918188571929932
-5.441171646118164 26.652650833129883 4.757671356201172
-9.224966049194336 24.324291229248047 4.549965858459473
-11.093501091003418 23.37908172607422 4.525954723358154
-12.867607116699219 22.287378311157227 4.5010666847229
-14.533842086791992 21.055892944335938 4.474761962890625
-18.110477447509766 18.855005264282227 4.572531223297119
17.525766372680664 11.082636833190918 3.3903234004974365
12.396515846252441 17.959428787231445 3.5679545402526855
-16.198593139648438 19.839691162109375 4.187673091888428
-17.974838256835938 18.713788986206055 4.242508888244629
17.524927139282227 11.0820894241333 3.154663562774658
12.386115074157715 17.944360733032227 3.3173229694366455
-1.1797313690185547 29.274921417236328 4.45758056640625
-3.363906145095825 27.70415496826172 4.245942115783691
-9.224966049194336 24.324291229248047 3.9579668045043945
-12.779769897460938 22.135238647460938 3.8887016773223877
-18.110477447509766 18.855005264282227 3.977595806121826
17.52408218383789 11.081562042236328 2.919818639755249
12.375761032104492 17.929365158081055 3.0679521560668945
-5.441176414489746 26.652645111083984 3.83073353767395
-11.017783164978027 23.2194766998291 3.619288206100464
-14.533842086791992 21.055892944335938 3.6029417514801025
-16.302812576293945 19.96733856201172 3.6300671100616455
-21.180322647094727 15.91600513458252 3.7309582233428955
17.523244857788086 11.081029891967773 2.685724973678589
-3.6477293968200684 12.593544960021973 1.6984206438064575
-12.867616653442383 22.287378311157227 3.3337249755859375
-14.533842086791992 21.055892944335938 3.314239501953125
-16.30281639099121 19.96733856201172 3.3391919136047363
-18.110477447509766 18.855005264282227 3.3866546154022217
25.898244857788086 11.034218788146973 3.329902172088623
17.522409439086914 11.0805025100708 2.452329635620117
12.355212211608887 17.899595260620117 2.57271146774292
-3.389521360397339 27.915136337280273 3.3262670040130615
-5.441176414489746 26.652645111083984 3.2177038192749023
-3.6463475227355957 12.588764190673828 1.5503090620040894
-11.041479110717773 23.269428253173828 3.0466363430023193
-12.8676118850708 22.28738784790039 3.0441606044769287
-14.533832550048828 21.055898666381836 3.0263671875
-16.30281639099121 19.96733856201172 3.049151659011841
-18.110477447509766 18.855005264282227 3.09249210357666
-21.201337814331055 15.931796073913574 3.1370060443878174
26.760770797729492 8.934052467346191 3.020596742630005
12.34500503540039 17.884803771972656 2.326704263687134
-3.3895263671875 27.915130615234375 3.0106921195983887
-3.644970655441284 12.584023475646973 1.4026867151260376
-9.224966049194336 24.324291229248047 2.7852838039398193
-11.041479110717773 23.269433975219727 2.7575902938842773
-12.867616653442383 22.287378311157227 2.755350351333618
-14.533842086791992 21.055892944335938 2.7392449378967285
-16.30281639099121 19.96733856201172 2.7598674297332764
12.3348388671875 17.870073318481445 2.0816872119903564
-5.441166877746582 26.652650833129883 2.6078813076019287
12.324708938598633 17.85539436340332 1.8375942707061768
-1.1797313690185547 29.274925231933594 2.4815306663513184
-3.3895263671875 27.915130615234375 2.381711959838867
-5.441176414489746 26.652645111083984 2.3039791584014893
-3.6422412395477295 12.57455062866211 1.1088088750839233
-11.041474342346191 23.269433975219727 2.181488037109375
-12.867616653442383 22.287378311157227 2.179715633392334
-21.179067611694336 15.915058135986328 2.2438347339630127
17.519086837768555 11.07840347290039 1.5244759321212769
-1.1797313690185547 29.274925231933594 2.154823064804077
-5.441171646118164 26.652650833129883 2.0006468296051025
-3.640864133834839 12.569843292236328 0.9624602794647217
-9.224966049194336 24.324291229248047 1.9133052825927734
-11.041479110717773 23.269428253173828 1.8942822217941284
-12.867602348327637 22.287391662597656 1.892743468284607
-14.533842086791992 21.055892944335938 1.8816802501678467
-16.302812576293945 19.96733856201172 1.8958464860916138
17.518259048461914 11.077885627746582 1.2936571836471558
12.30455493927002 17.826200485229492 1.3519136905670166
2.1841113567352295 17.987831115722656 1.1309393644332886
-1.1797313690185547 29.274925231933594 1.8286465406417847
-3.389521360397339 27.915136337280273 1.755090594291687
-3.6395068168640137 12.565141677856445 0.8164721727371216
-9.224966049194336 24.324291229248047 1.6236883401870728
-16.30281639099121 19.96733856201172 1.6088716983795166
12.29452133178711 17.811664581298828 1.1102001667022705
3.619990110397339 17.73186492919922 0.9283468127250671
-1.1797313690185547 29.274921417236328 1.5029228925704956
-3.389521360397339 27.915136337280273 1.4424679279327393
-3.6381444931030273 12.56044864654541 0.670792818069458
-11.017778396606445 23.219486236572266 1.318367838859558
12.284516334533691 17.797178268432617 0.8691549301147461
3.619990110397339 17.73186492919922 0.7273769974708557
2.175283193588257 17.915117263793945 0.7253314256668091
-5.441181659698486 26.652645111083984 1.0933129787445068
-3.636786937713623 12.555766105651855 0.5253826975822449
-9.224966049194336 24.324291229248047 1.0455816984176636
-12.728622436523438 22.046634674072266 1.023173213005066
-14.533842086791992 21.055892944335938 1.0282995700836182
-16.30281639099121 19.96733856201172 1.036041259765625
-18.1104679107666 18.855009078979492 1.0507681369781494
-3.3895263671875 27.915130615234375 0.8182104229927063
-5.441186428070068 26.65264129638672 0.7915045022964478
-3.635439395904541 12.551093101501465 0.38022154569625854
-9.224966049194336 24.324291229248047 0.7569518685340881
-11.041479110717773 23.269428253173828 0.7494259476661682
-12.831948280334473 22.2255802154541 0.7467406988143921
-14.533842086791992 21.055892944335938 0.7444406151771545
-16.30281639099121 19.96733856201172 0.7500445246696472
-18.1104679107666 18.855009078979492 0.7607046365737915
17.51372528076172 11.075014114379883 0.37318480014801025
12.2645845413208 17.768295288085938 0.3888207972049713
3.619990110397339 17.73186492919922 0.3259255886077881
-1.1797362565994263 29.274921417236328 0.5276464819908142
-3.389531135559082 27.91512680053711 0.5064224004745483
-5.441176414489746 26.652645111083984 0.48989349603652954
-11.041474342346191 23.269433975219727 0.46384885907173157
-14.533842086791992 21.055892944335938 0.4607629179954529
-16.30281639099121 19.96733856201172 0.46423155069351196
-18.1104679107666 18.855009078979492 0.47082915902137756
17.512582778930664 11.074296951293945 0.14350830018520355
3.619999885559082 17.73186492919922 0.12534454464912415
-5.441176414489746 26.652645111083984 0.1884014904499054
-12.831937789916992 22.2255859375 0.1777462661266327
-14.533842086791992 21.055892944335938 0.1771990954875946
-3.389531135559082 27.91512680053711 -0.11685775220394135
-5.441176414489746 26.652645111083984 -0.11304397135972977
-9.224966049194336 24.324291229248047 -0.10810866951942444
-12.831937789916992 22.2255859375 -0.10665053874254227
-16.30281639099121 19.96733856201172 -0.10712219029664993
17.51030731201172 11.072855949401855 -0.3156997561454773
12.23482894897461 17.72518539428711 -0.3281950354576111
-11.093505859375 23.37907600402832 -0.394325852394104
-16.30281639099121 19.96733856201172 -0.39280059933662415
17.509164810180664 11.072134017944336 -0.5453396439552307
3.619990110397339 17.73186492919922 -0.47640669345855713
2.175283193588257 17.915111541748047 -0.47506681084632874
-3.6286864280700684 12.527802467346191 -0.34333494305610657
-9.224966049194336 24.324291229248047 -0.6848242282867432
-14.533842086791992 21.055892944335938 -0.673504650592804
-16.302812576293945 19.96733856201172 -0.6785750985145569
-17.40974998474121 18.1254825592041 -0.661567211151123
3.619990110397339 17.73186492919922 -0.6771625876426697
2.175283193588257 17.915111541748047 -0.6752572655677795
-3.6273436546325684 12.523138999938965 -0.48783355951309204
-11.093505859375 23.37907600402832 -0.9682682752609253
-16.302812576293945 19.96733856201172 -0.964522659778595
-17.40975570678711 18.125478744506836 -0.9403793215751648
12.20518970489502 17.6822452545166 -1.0424643754959106
-0.7751757502555847 19.235965728759766 -0.9340728521347046
-3.3737401962280273 27.785175323486328 -1.3580199480056763
-5.409272193908691 26.496356964111328 -1.3121026754379272
-3.6259961128234863 12.518500328063965 -0.6323447823524475
-9.164316177368164 24.16435432434082 -1.2539230585098267
-17.40974998474121 18.1254825592041 -1.2194143533706665
17.50574493408203 11.069965362548828 -1.2351365089416504
3.1627001762390137 15.491884231567383 -0.9428866505622864
2.175283193588257 17.915111541748047 -1.0761833190917969
-9.224966049194336 24.324291229248047 -1.5513509511947632
-11.017085075378418 23.21803092956543 -1.532533884048462
-17.40974998474121 18.1254825592041 -1.498706340789795
17.504602432250977 11.069242477416992 -1.4655358791351318
12.185463905334473 17.653661727905273 -1.5179023742675781
3.1627001762390137 15.491884231567383 -1.1188465356826782
0.6728320121765137 16.69600486755371 -1.1824004650115967
-0.7751757502555847 19.235965728759766 -1.3622795343399048
-11.017778396606445 23.219486236572266 -1.8186472654342651
-16.30281639099121 19.96733856201172 -1.8240634202957153
-17.40975570678711 18.125478744506836 -1.7783983945846558
13.06362533569336 3.2198925018310547 -1.1020408868789673
17.44681167602539 11.032705307006836 -1.6907888650894165
22.913095474243164 17.21808624267578 -2.347599983215332
21.453304290771484 19.0059814453125 -2.347599983215332
19.854427337646484 20.670663833618164 -2.347599983215332
12.17559814453125 17.639373779296875 -1.7555735111236572
10.587773323059082 18.338560104370117 -1.7344518899917603
4.663286209106445 16.09953498840332 -1.3728878498077393
1.9393408298492432 15.971933364868164 -1.3178402185440063
-0.7751806378364563 19.235965728759766 -1.5768624544143677
-3.3895263671875 27.915130615234375 -2.3032736778259277
-9.224966049194336 24.324291229248047 -2.130828857421875
-12.77977466583252 22.135244369506836 -2.0935397148132324
-14.533832550048828 21.055898666381836 -2.0956077575683594
-17.40975570678711 18.125478744506836 -2.058519124984741
-21.45331573486328 19.005990982055664 -2.347599983215332
-22.913070678710938 17.218095779418945 -2.347599983215332
26.773061752319336 2.1613574028015137 -2.5
23.783491134643555 12.482548713684082 -2.5
20.16417121887207 15.152382850646973 -2.347599983215332
18.879486083984375 16.725805282592773 -2.347599983215332
17.472421646118164 18.190736770629883 -2.347599983215332
15.952021598815918 19.53767967224121 -2.347599983215332
10.590058326721191 18.342519760131836 -1.9713308811187744
1.9393408298492432 15.971933364868164 -1.4974993467330933
-0.7751757502555847 19.235965728759766 -1.7918332815170288
-3.040283203125 25.038862228393555 -2.347599983215332
-5.045199871063232 24.713022232055664 -2.347599983215332
-3.6205906867980957 12.499857902526855 -1.2112395763397217
-10.812807083129883 22.787513732910156 -2.347599983215332
-12.545366287231445 21.729228973388672 -2.3353123664855957
-14.32815933227539 20.757925033569336 -2.347599983215332
-17.40974998474121 18.1254825592041 -2.339179515838623
-18.879501342773438 16.725786209106445 -2.347599983215332
-20.164140701293945 15.152392387390137 -2.347599983215332
-25.47783660888672 8.50577163696289 -2.5
-26.773046493530273 2.1613574028015137 -2.5
23.89981460571289 1.9294140338897705 -2.5
17.40657615661621 11.007255554199219 -2.1473028659820557
18.00016975402832 13.526264190673828 -2.347599983215332
14.240097045898438 17.44095230102539 -2.347599983215332
11.514906883239746 16.68221664428711 -2.1134724617004395
10.536198616027832 18.24917984008789 -2.1970906257629395
6.624741077423096 17.46797752380371 -1.947861909866333
4.663286209106445 16.09953498840332 -1.7476012706756592
3.1627001762390137 15.491884231567383 -1.6485607624053955
0.6728320121765137 16.69600486755371 -1.7422059774398804
-4.503818035125732 22.06082534790039 -2.347599983215332
-3.6192431449890137 12.495195388793945 -1.356347918510437
-9.652397155761719 20.342031478881836 -2.347599983215332
-12.79039478302002 18.530298233032227 -2.347599983215332
-14.240018844604492 17.44100570678711 -2.347599983215332
-15.597323417663574 16.23853874206543 -2.347599983215332
-16.853384017944336 14.930805206298828 -2.347599983215332
-22.743627548217773 7.592939376831055 -2.5
21.64889907836914 9.765624781721272e-06 -2.5
19.91652488708496 8.485692977905273 -2.5
19.16914939880371 10.060747146606445 -2.5
16.252023696899414 12.21261215209961 -2.347599983215332
15.21660327911377 13.48074722290039 -2.347599983215332
11.453788757324219 16.593671798706055 -2.328387975692749
-3.6178855895996094 12.490497589111328 -1.5016816854476929
-8.714980125427246 18.366376876831055 -2.347599983215332
-11.548324584960938 16.730546951293945 -2.347599983215332
-12.857123374938965 15.747050285339355 -2.347599983215332
-14.082504272460938 14.661455154418945 -2.347599983215332
-15.2166109085083 13.48073673248291 -2.347599983215332
-19.169145584106445 10.060736656188965 -2.5
-19.916532516479492 8.485644340515137 -2.5
-20.534759521484375 6.855527400970459 -2.5
-21.3685302734375 3.4727635383605957 -2.5
-21.578685760498047 1.7420214414596558 -2.5
12.03343677520752 2.9659862518310547 -1.570556879043579
18.712724685668945 6.247226238250732 -2.5
17.46826934814453 9.16805648803711 -2.5
14.809972763061523 11.128973960876465 -2.347599983215332
13.866435050964355 12.2846040725708 -2.347599983215332
12.832968711853027 13.360541343688965 -2.347599983215332
11.716266632080078 14.349823951721191 -2.347599983215332
10.523612976074219 15.246078491210938 -2.347599983215332
9.2626953125 16.043447494506836 -2.347599983215332
4.510546684265137 15.572226524353027 -2.05448055267334
3.075146436691284 15.063027381896973 -1.9482111930847168
0.6502001881599426 16.134355545043945 -2.0462605953216553
-3.7055370807647705 18.150985717773438 -2.347599983215332
-6.569169998168945 17.3215274810791 -2.347599983215332
-9.262640953063965 16.043485641479492 -2.347599983215332
-12.83297348022461 13.360546112060547 -2.347599983215332
-13.866425514221191 12.284599304199219 -2.347599983215332
-14.809950828552246 11.128989219665527 -2.347599983215332
-15.657445907592773 9.9011812210083 -2.347599983215332
-17.46826171875 9.168042182922363 -2.5
-18.149335861206055 7.732714653015137 -2.5
-18.71269989013672 6.247236251831055 -2.5
-19.154720306396484 4.721230506896973 -2.5
-19.379886627197266 3.149550676345825 -2.488109588623047
18.116064071655273 0.0 -2.5
18.057310104370117 1.4577538967132568 -2.5
12.011301040649414 2.960517406463623 -1.707155704498291
16.04098129272461 8.418964385986328 -2.5
13.599884986877441 10.2196626663208 -2.347599983215332
12.733439445495605 11.280858993530273 -2.347599983215332
3.0681982040405273 15.029008865356445 -2.1167666912078857
0.6502001881599426 16.134355545043945 -2.22833251953125
-0.6849804520606995 16.997915267944336 -2.347599983215332
-3.6151609420776367 12.481127738952637 -1.793178677558899
-6.032416820526123 15.906225204467773 -2.347599983215332
-9.663774490356445 14.000322341918945 -2.347599983215332
-12.733427047729492 11.28084945678711 -2.347599983215332
-13.599858283996582 10.219667434692383 -2.347599983215332
-16.666391372680664 7.100888729095459 -2.5
-17.881444931030273 2.9060351848602295 -2.5
16.74376678466797 0.0 -2.5
16.68946647644043 1.3473241329193115 -2.5
12.569686889648438 9.445512771606445 -2.347599983215332
11.768877029418945 10.4263277053833 -2.347599983215332
9.943982124328613 12.179160118103027 -2.347599983215332
7.861537933349609 13.61656665802002 -2.347599983215332
6.740348815917969 14.205004692077637 -2.347599983215332
5.575488090515137 14.70131778717041 -2.347599983215332
3.0681982040405273 15.029008865356445 -2.290254831314087
-0.6331005692481995 15.710311889648438 -2.347599983215332
-4.246860027313232 11.198129653930664 -1.7881851196289062
-7.861533164978027 13.616557121276855 -2.347599983215332
-11.768872261047363 10.426322937011719 -2.347599983215332
-12.569677352905273 9.44552230834961 -2.347599983215332
-14.825859069824219 7.781210899353027 -2.5
-15.403910636901855 6.563007831573486 -2.5
-15.882060050964355 5.302216529846191 -2.5
-16.2572021484375 4.007050514221191 -2.5
-16.52692413330078 2.685908079147339 -2.5
-16.689456939697266 1.347314476966858 -2.5
15.561098098754883 9.765624781721272e-06 -2.5
12.0008544921875 2.957949161529541 -1.985723853111267
14.760275840759277 4.927695274353027 -2.5
14.315888404846191 6.099433422088623 -2.5
12.350337028503418 7.809873104095459 -2.347599983215332
11.68185806274414 8.778339385986328 -2.347599983215332
10.937612533569336 9.689872741699219 -2.347599983215332
10.122426986694336 10.538564682006836 -2.347599983215332
9.24160099029541 11.318901062011719 -2.347599983215332
6.264262676239014 13.201669692993164 -2.347599983215332
5.18166971206665 13.662909507751465 -2.347599983215332
4.065454006195068 14.03555679321289 -2.347599983215332
1.7613329887390137 14.505937576293945 -2.347599983215332
-1.7613036632537842 14.505986213684082 -2.347599983215332
-2.5039305686950684 12.265175819396973 -2.0111284255981445
-8.300829887390137 12.025839805603027 -2.347599983215332
-10.937582969665527 9.689882278442383 -2.347599983215332
-12.350312232971191 7.809892177581787 -2.347599983215332
-13.77865219116211 7.231601238250732 -2.5
-14.315878868103027 6.099433422088623 -2.5
-14.760238647460938 4.927714824676514 -2.5
-15.108901023864746 3.7240233421325684 -2.5
-15.359564781188965 2.4961912631988525 -2.5
-15.5106201171875 1.2521483898162842 -2.5
12.398080825805664 2.014892578125 -2.1610162258148193
11.5328369140625 7.292919635772705 -2.347599983215332
10.90859317779541 8.197275161743164 -2.347599983215332
10.213607788085938 9.048476219177246 -2.347599983215332
6.822629451751709 11.81712818145752 -2.347599983215332
5.849614143371582 12.327807426452637 -2.347599983215332
4.838681697845459 12.758520126342773 -2.347599983215332
2.729438304901123 13.369511604309082 -2.347599983215332
-0.5494287014007568 13.63417911529541 -2.347599983215332
-1.644750952720642 13.545761108398438 -2.347599983215332
-2.5039305686950684 12.265175819396973 -2.1536874771118164
-4.246860027313232 11.198129653930664 -2.0604796409606934
-5.849614143371582 12.327802658081055 -2.347599983215332
-8.629862785339355 10.569677352905273 -2.347599983215332
-10.213598251342773 9.048476219177246 -2.347599983215332
-11.532816886901855 7.292929649353027 -2.347599983215332
-13.78322696685791 4.601532936096191 -2.5
-14.108803749084473 3.4775097370147705 -2.5
-14.342865943908691 2.3309569358825684 -2.5
13.581499099731445 1.0964257717132568 -2.5
13.449230194091797 2.185722589492798 -2.5
13.229741096496582 3.2608397006988525 -2.5
12.92446231842041 4.314814567565918 -2.5
12.06494140625 6.332177639007568 -2.5
9.577245712280273 8.484686851501465 -2.347599983215332
8.863442420959473 9.227831840515137 -2.347599983215332
8.092177391052246 9.911123275756836 -2.347599983215332
6.397531509399414 11.08084487915039 -2.347599983215332
4.537201881408691 11.963583946228027 -2.347599983215332
3.5597996711730957 12.28988265991211 -2.347599983215332
2.5593504905700684 12.53646469116211 -2.347599983215332
0.5152196884155273 12.784687042236328 -2.347599983215332
-1.5422558784484863 12.7017822265625 -2.347599983215332
-2.483525276184082 12.165224075317383 -2.2780747413635254
-4.223647594451904 11.13695240020752 -2.185385227203369
-7.268413066864014 10.530126571655273 -2.347599983215332
-9.577231407165527 8.484697341918945 -2.347599983215332
-10.22890567779541 7.6865234375 -2.347599983215332
-12.064916610717773 6.332167625427246 -2.5
-12.535341262817383 5.340810298919678 -2.5
-12.9244384765625 4.314814567565918 -2.5
-13.229745864868164 3.2608397006988525 -2.5
-13.449223518371582 2.185722589492798 -2.5
-13.581483840942383 1.0964159965515137 -2.5
12.657389640808105 2.0570409297943115 -2.5
12.45082950592041 3.06884765625 -2.5
11.797319412231445 5.0263671875 -2.5
9.626684188842773 7.233983993530273 -2.347599983215332
9.013368606567383 7.985166072845459 -2.347599983215332
8.341598510742188 8.684531211853027 -2.347599983215332
6.840487957000732 9.910151481628418 -2.347599983215332
6.020876407623291 10.428457260131836 -2.347599983215332
5.162197113037109 10.879111289978027 -2.347599983215332
1.4514745473861694 11.953935623168945 -2.347599983215332
0.4848876893520355 12.031987190246582 -2.347599983215332
-0.4848681390285492 12.031952857971191 -2.347599983215332
-2.408637523651123 11.798378944396973 -2.347599983215332
-3.3502001762390137 11.566323280334473 -2.347599983215332
-5.162197113037109 10.879111289978027 -2.347599983215332
-6.020864009857178 10.428457260131836 -2.347599983215332
-6.840487957000732 9.91015625 -2.347599983215332
-7.61572265625 9.327588081359863 -2.347599983215332
-8.341596603393555 8.684550285339355 -2.347599983215332
-9.626654624938965 7.233994007110596 -2.347599983215332
-10.752114295959473 6.799247741699219 -2.480133295059204
-11.354584693908691 5.959364891052246 -2.5
-11.7972993850708 5.0263671875 -2.5
-12.163500785827637 4.060771465301514 -2.5
-12.65738296508789 2.0570409297943115 -2.5
12.107522010803223 9.765624781721272e-06 -2.5
11.755698204040527 2.897509813308716 -2.5
9.609345436096191 6.076581954956055 -2.347599983215332
9.089218139648438 6.83010721206665 -2.347599983215332
7.875888347625732 8.199667930603027 -2.347599983215332
7.190549373626709 8.806836128234863 -2.347599983215332
6.458588600158691 9.356864929199219 -2.347599983215332
5.684723854064941 9.84622573852539 -2.347599983215332
4.873999118804932 10.271733283996582 -2.347599983215332
4.031674861907959 10.630605697631836 -2.347599983215332
2.2741894721984863 11.139677047729492 -2.347599983215332
1.3704345226287842 11.286547660827637 -2.347599983215332
-3.163159132003784 10.920560836791992 -2.347599983215332
-4.03164529800415 10.630615234375 -2.347599983215332
-5.684716701507568 9.846220016479492 -2.347599983215332
-6.458579063415527 9.3568696975708 -2.347599983215332
-8.510141372680664 7.53933572769165 -2.347599983215332
-9.089208602905273 6.83010721206665 -2.347599983215332
-10.720664024353027 5.626650333404541 -2.5
-11.138656616210938 4.745751857757568 -2.5
-11.484403610229492 3.8340818881988525 -2.5
-11.755682945251465 2.897529125213623 -2.5
11.427348136901855 0.9225195050239563 -2.5
11.316054344177246 1.8390917778015137 -2.5
10.151337623596191 5.327831745147705 -2.5
7.457614421844482 7.764228343963623 -2.347599983215332
6.808681488037109 8.339120864868164 -2.347599983215332
6.115590572357178 8.859960556030273 -2.347599983215332
5.382832050323486 9.323325157165527 -2.347599983215332
4.615146160125732 9.72623062133789 -2.347599983215332
2.995195150375366 10.34060001373291 -2.347599983215332
2.1534130573272705 10.548075675964355 -2.347599983215332
1.2976512908935547 10.687143325805664 -2.347599983215332
-0.4334814250469208 10.756903648376465 -2.347599983215332
-3.8175437450408936 10.066059112548828 -2.347599983215332
-4.61514139175415 9.726224899291992 -2.347599983215332
-5.382807731628418 9.323325157165527 -2.347599983215332
-6.115581035614014 8.85995101928711 -2.347599983215332
-7.457622051239014 7.764208793640137 -2.347599983215332
-8.05819320678711 7.13894510269165 -2.347599983215332
-9.6734619140625 6.117138385772705 -2.4958126544952393
-10.547114372253418 4.493710994720459 -2.5
-10.874506950378418 3.630449056625366 -2.5
-11.131376266479492 2.74365234375 -2.5
10.84841251373291 0.875781238079071 -2.5
10.74276351928711 1.74587881565094 -2.5
10.56744384765625 2.6046385765075684 -2.5
10.323593139648438 3.446523427963257 -2.5
10.01279067993164 4.266044616699219 -2.5
8.78287124633789 5.553945064544678 -2.3869595527648926
8.17049789428711 6.139736175537109 -2.347599983215332
7.649950981140137 6.777275085449219 -2.347599983215332
7.079806804656982 7.370869159698486 -2.347599983215332
5.805761814117432 8.411084175109863 -2.347599983215332
5.110121726989746 8.85098648071289 -2.347599983215332
4.381342887878418 9.233476638793945 -2.347599983215332
2.0443115234375 10.013690948486328 -2.347599983215332
1.2319189310073853 10.145727157592773 -2.347599983215332
0.41154295206069946 10.21194839477539 -2.347599983215332
-1.231909155845642 10.145722389221191 -2.347599983215332
-2.843432664871216 9.816718101501465 -2.347599983215332
-4.381337642669678 9.23348617553711 -2.347599983215332
-5.805761814117432 8.411064147949219 -2.347599983215332
-9.18972110748291 5.811259746551514 -2.497534990310669
-9.637036323547363 5.057909965515137 -2.5
-10.012778282165527 4.266054630279541 -2.5
-10.323578834533691 3.446523427963257 -2.5
-10.848402976989746 0.8757714629173279 -2.5
10.322782516479492 0.8333495855331421 -2.5
9.82338809967041 3.279531240463257 -2.5
9.527641296386719 4.059345722198486 -2.5
9.170106887817383 4.812851428985596 -2.5
8.71780776977539 5.512812614440918 -2.4899208545684814
6.736764907836914 7.013720512390137 -2.347599983215332
5.524457931518555 8.003554344177246 -2.347599983215332
4.862514495849609 8.422138214111328 -2.347599983215332
4.169052600860596 8.786093711853027 -2.347599983215332
3.448554515838623 9.093066215515137 -2.347599983215332
2.705678701400757 9.341078758239746 -2.347599983215332
1.9452685117721558 9.528495788574219 -2.347599983215332
0.3915966749191284 9.717147827148438 -2.347599983215332
-0.3915771543979645 9.717158317565918 -2.347599983215332
-1.1722118854522705 9.65414047241211 -2.347599983215332
-3.4485349655151367 9.093066215515137 -2.347599983215332
-4.169037818908691 8.786093711853027 -2.347599983215332
-4.862519264221191 8.422128677368164 -2.347599983215332
-5.524453163146973 8.003535270690918 -2.347599983215332
-6.736762523651123 7.013710975646973 -2.347599983215332
-7.774594783782959 5.842255592346191 -2.347599983215332
-8.750551223754883 5.533525466918945 -2.4992787837982178
-10.055415153503418 2.478447198867798 -2.5
9.875311851501465 0.0 -2.5
9.747426986694336 1.5841211080551147 -2.5
9.36709213256836 3.127197265625 -2.5
8.744159698486328 4.589286804199219 -2.5
7.413486003875732 5.570868968963623 -2.347599983215332
6.941171646118164 6.149355411529541 -2.347599983215332
5.267848968505859 7.631777286529541 -2.347599983215332
3.97540020942688 8.377978324890137 -2.347599983215332
3.2883641719818115 8.670693397521973 -2.347599983215332
2.5799951553344727 8.907187461853027 -2.347599983215332
1.8549120426177979 9.085907936096191 -2.347599983215332
1.1177783012390137 9.205702781677246 -2.347599983215332
0.3734179735183716 9.265790939331055 -2.347599983215332
-0.37339353561401367 9.265786170959473 -2.347599983215332
-1.117773413658142 9.2056884765625 -2.347599983215332
-2.5799951553344727 8.907177925109863 -2.347599983215332
-3.9753904342651367 8.377978324890137 -2.347599983215332
-4.636645317077637 8.030927658081055 -2.347599983215332
-5.267836570739746 7.631786823272705 -2.347599983215332
-5.864858150482178 7.183144569396973 -2.347599983215332
-7.413466453552246 5.570878982543945 -2.347599983215332
-8.3464937210083 5.278027057647705 -2.5
-8.744140625 4.589277267456055 -2.5
-9.367074966430664 3.127207040786743 -2.5
-9.588339805603027 2.3633203506469727 -2.5
-9.747411727905273 1.5841211080551147 -2.5
9.434609413146973 9.765624781721272e-06 -2.5
9.40401840209961 0.75916987657547 -2.5
9.312431335449219 1.5134375095367432 -2.5
8.949067115783691 2.9876365661621094 -2.5
8.679648399353027 3.69805645942688 -2.5
8.353927612304688 4.384482383728027 -2.5
7.961696624755859 5.03466796875 -2.4961276054382324
6.631420612335205 5.874931335449219 -2.347599983215332
6.137177467346191 6.389482498168945 -2.347599983215332
5.032763481140137 7.291201114654541 -2.347599983215332
4.429740905761719 7.672529220581055 -2.347599983215332
3.797988176345825 8.004101753234863 -2.347599983215332
3.1416211128234863 8.2837495803833 -2.347599983215332
1.0678857564926147 8.794873237609863 -2.347599983215332
0.3567480444908142 8.852285385131836 -2.347599983215332
-0.3567284941673279 8.852274894714355 -2.347599983215332
-2.464853525161743 8.509687423706055 -2.347599983215332
-3.797978401184082 8.004101753234863 -2.347599983215332
-5.032758712768555 7.291201114654541 -2.347599983215332
-5.603119850158691 6.862597465515137 -2.347599983215332
-6.631396293640137 5.874921798706055 -2.347599983215332
-7.262045860290527 5.457079887390137 -2.4070663452148438
-8.949057579040527 2.9876463413238525 -2.5
-9.31241226196289 1.513427734375 -2.5
9.000001907348633 0.7265722751617432 -2.5
8.912363052368164 1.4484179019927979 -2.5
8.56460952758789 2.8592870235443115 -2.5
8.30675983428955 3.539189338684082 -2.5
7.625463485717773 4.82205057144165 -2.498033046722412
6.346518516540527 5.622519493103027 -2.347599983215332
5.873517990112305 6.114980220794678 -2.347599983215332
5.362411975860596 6.567773342132568 -2.347599983215332
3.3800389766693115 4.896826267242432 -1.647441029548645
4.239428520202637 7.342909812927246 -2.347599983215332
3.63482403755188 7.660224437713623 -2.347599983215332
1.6959960460662842 8.307509422302246 -2.347599983215332
0.34141111373901367 8.4719820022583 -2.347599983215332
-0.3414013683795929 8.471972465515137 -2.347599983215332
-1.022011637687683 8.417040824890137 -2.347599983215332
-4.8165283203125 6.977968692779541 -2.347599983215332
-5.362407207489014 6.567773342132568 -2.347599983215332
-5.873500823974609 6.114980220794678 -2.347599983215332
-6.346503734588623 5.622529029846191 -2.347599983215332
-7.631444931030273 4.825849533081055 -2.5
-7.995028972625732 4.196123123168945 -2.5
-8.306742668151855 3.539189338684082 -2.5
-8.999990463256836 0.7265527248382568 -2.5
8.655163764953613 9.765624781721272e-06 -2.5
8.627089500427246 0.6964648365974426 -2.5
8.543075561523438 1.3883886337280273 -2.5
8.20974063873291 2.7408103942871094 -2.5
6.522377967834473 4.901249885559082 -2.356586456298828
5.140229225158691 6.295634746551514 -2.347599983215332
4.063769340515137 7.038661956787109 -2.347599983215332
3.4842138290405273 7.342832088470459 -2.347599983215332
1.625732421875 7.963290691375732 -2.347599983215332
0.9796728491783142 8.068281173706055 -2.347599983215332
-0.32726073265075684 8.120946884155273 -2.347599983215332
-0.979663074016571 8.068281173706055 -2.347599983215332
-2.8820555210113525 7.599384784698486 -2.347599983215332
-3.484208822250366 7.342822074890137 -2.347599983215332
-4.063759803771973 7.038661956787109 -2.347599983215332
-4.616962909698486 6.68883752822876 -2.347599983215332
-6.083544731140137 5.389570236206055 -2.347599983215332
-7.663754940032959 4.022255897521973 -2.5
-7.962563514709473 3.3925390243530273 -2.5
-8.543066024780273 1.3883984088897705 -2.5
-8.6270751953125 0.6964452862739563 -2.5
8.067255973815918 1.9884082078933716 -2.5
7.022421836853027 4.440712928771973 -2.5
5.404765605926514 5.626962661743164 -2.347599983215332
4.9344482421875 6.043612957000732 -2.347599983215332
3.344736337661743 7.048896312713623 -2.347599983215332
2.7666990756988525 7.295175552368164 -2.347599983215332
2.170707941055298 7.494150161743164 -2.347599983215332
1.560644507408142 7.644511699676514 -2.347599983215332
0.9404491782188416 7.745302677154541 -2.347599983215332
0.31416991353034973 7.795859336853027 -2.347599983215332
-0.3141503930091858 7.795849323272705 -2.347599983215332
-0.94044429063797 7.745292663574219 -2.347599983215332
-1.560634732246399 7.644521236419678 -2.347599983215332
-2.1706981658935547 7.494140625 -2.347599983215332
-2.7666845321655273 7.295175552368164 -2.347599983215332
-3.344736337661743 7.048886775970459 -2.347599983215332
-4.432143688201904 6.421073913574219 -2.347599983215332
-4.934443473815918 6.043612957000732 -2.347599983215332
-5.404746055603027 5.626972675323486 -2.347599983215332
-5.840009689331055 5.173798561096191 -2.347599983215332
-6.633510589599609 4.984785079956055 -2.4966917037963867
-7.356957912445068 3.8612401485443115 -2.5
-7.643808364868164 3.256728410720825 -2.5
-7.881078720092773 2.631093740463257 -2.5
-8.067231178283691 1.9883984327316284 -2.5
-8.201068878173828 1.3328222036361694 -2.5
-8.281723022460938 0.6685742139816284 -2.5
7.960927486419678 0.6426855325698853 -2.5
7.883398056030273 1.281191349029541 -2.5
7.754738807678223 1.9113671779632568 -2.5
7.575793266296387 2.529179573059082 -2.5
7.347714900970459 3.1305761337280273 -2.5
6.750385761260986 4.268681526184082 -2.5
6.367775917053223 4.785068035125732 -2.493252754211426
2.6595263481140137 7.01256799697876 -2.347599983215332
2.086616277694702 7.203837871551514 -2.347599983215332
1.500185489654541 7.348359107971191 -2.347599983215332
0.9040185213088989 7.445253849029541 -2.347599983215332
0.3019970655441284 7.493847370147705 -2.347599983215332
-0.30199217796325684 7.493876934051514 -2.347599983215332
-1.5001806020736694 7.348378658294678 -2.347599983215332
-2.086601495742798 7.203837871551514 -2.347599983215332
-2.659501791000366 7.012578010559082 -2.347599983215332
-3.215165853500366 6.775839805603027 -2.347599983215332
-4.743290901184082 5.809492111206055 -2.347599983215332
-5.642685413360596 4.998993873596191 -2.3596882820129395
-6.381249904632568 4.795214653015137 -2.4985313415527344
-6.7503662109375 4.268691539764404 -2.5
-7.071967601776123 3.711669921875 -2.5
-7.347714900970459 3.130556583404541 -2.5
-7.575776100158691 2.529179573059082 -2.5
-7.754721641540527 1.9113867282867432 -2.5
-7.883373737335205 1.2811815738677979 -2.5
-7.960912704467773 0.6426757574081421 -2.5
7.686972618103027 9.765624781721272e-06 -2.5
7.66204833984375 0.6185546517372131 -2.5
7.587429046630859 1.2330858707427979 -2.5
7.463603496551514 1.8396190404891968 -2.5
7.291371822357178 2.434218645095825 -2.5
7.071855545043945 3.0130369663238525 -2.5
6.496957778930664 4.10842752456665 -2.5
5.000346660614014 5.205917835235596 -2.347599983215332
4.565229415893555 5.591386795043945 -2.347599983215332
2.5596776008605957 6.749287128448486 -2.347599983215332
2.0082762241363525 6.933369159698486 -2.347599983215332
0.8700731992721558 7.165751934051514 -2.347599983215332
-0.8700829744338989 7.165741920471191 -2.347599983215332
-1.4438525438308716 7.072499752044678 -2.347599983215332
-2.0082664489746094 6.93337869644165 -2.347599983215332
-2.5596532821655273 6.749306678771973 -2.347599983215332
-4.100497722625732 5.940615177154541 -2.347599983215332
-4.56521463394165 5.591386795043945 -2.347599983215332
-5.6185302734375 4.977597713470459 -2.4412384033203125
-6.145283222198486 4.617890357971191 -2.5
-7.587411880493164 1.233095645904541 -2.5
-7.662031173706055 0.6185546517372131 -2.5
7.40688943862915 0.0 -2.5
7.310966491699219 1.1881639957427979 -2.5
6.814184188842773 2.9032421112060547 -2.5
6.5584716796875 3.442148447036743 -2.5
4.818149089813232 5.016230583190918 -2.347599983215332
3.2580370903015137 4.720077991485596 -1.9358100891113281
3.4776806831359863 6.023505687713623 -2.347599983215332
1.9351024627685547 6.680742263793945 -2.347599983215332
1.3912549018859863 6.814794540405273 -2.347599983215332
-0.2800537049770355 6.949716567993164 -2.347599983215332
-0.8383740186691284 6.904638290405273 -2.347599983215332
-2.4663915634155273 6.503368854522705 -2.347599983215332
-4.398871898651123 5.387656211853027 -2.347599983215332
-5.528969764709473 4.898261547088623 -2.493168354034424
-5.921362400054932 4.449618816375732 -2.5
-6.260204792022705 3.958730459213257 -2.5
-7.025683403015137 2.345517635345459 -2.5
-7.191635608673096 1.7725878953933716 -2.5
-7.310956954956055 1.1881444454193115 -2.5
-7.382851600646973 0.5960156321525574 -2.5
7.144599437713623 0.0 -2.5
7.121430397033691 0.5749120712280273 -2.5
7.052072525024414 1.1460741758346558 -2.5
6.936986923217773 1.7098242044448853 -2.5
6.776914119720459 2.2624707221984863 -2.5
6.326230525970459 3.320263624191284 -2.5
5.709892272949219 4.290702819824219 -2.4992098808288574
5.202207088470459 4.608759880065918 -2.4319348335266113
3.2504491806030273 4.709072113037109 -2.002197265625
3.3545312881469727 5.810214519500732 -2.347599983215332
2.8761327266693115 6.06130838394165 -2.347599983215332
2.379077196121216 6.273076057434082 -2.347599983215332
1.3419872522354126 6.573466777801514 -2.347599983215332
-1.3419725894927979 6.573476314544678 -2.347599983215332
-3.3545215129852295 5.810224533081055 -2.347599983215332
-3.8111767768859863 5.521445274353027 -2.347599983215332
-5.3375244140625 4.728652000427246 -2.495197057723999
-5.711684226989746 4.292060375213623 -2.5
-6.038525104522705 3.818544864654541 -2.5
-6.5728759765625 2.8004393577575684 -2.5
-7.052060604095459 1.1460644006729126 -2.5
6.898417949676514 9.765624781721272e-06 -2.5
6.543400764465332 2.184511661529541 -2.5
6.3464035987854 2.7039549350738525 -2.5
6.108249187469482 3.2058591842651367 -2.5
5.83047342300415 3.686962842941284 -2.5
4.096919059753418 5.017812252044678 -2.347599983215332
2.777026414871216 5.852450847625732 -2.347599983215332
2.2970995903015137 6.056933403015137 -2.347599983215332
1.8022607564926147 6.222128868103027 -2.347599983215332
1.295742154121399 6.346982479095459 -2.347599983215332
0.26084959506988525 6.472626686096191 -2.347599983215332
-1.295742154121399 6.346972465515137 -2.347599983215332
-1.8022558689117432 6.222128868103027 -2.347599983215332
-4.096904277801514 5.017812252044678 -2.347599983215332
-4.549087047576904 4.736123085021973 -2.3798820972442627
-5.514877796173096 4.144169807434082 -2.5
-5.830463886260986 3.6869726181030273 -2.5
-6.108242034912109 3.2058496475219727 -2.5
-6.697954177856445 1.65090811252594 -2.5
-6.876044750213623 0.5550976395606995 -2.5
6.666850566864014 0.0 -2.5
6.645226955413818 0.5364648103713989 -2.5
6.323754787445068 2.1111717224121094 -2.5
5.903203010559082 3.0982420444488525 -2.5
4.979819297790527 4.411747932434082 -2.494795083999634
3.9593894481658936 4.849384784698486 -2.347599983215332
3.2352685928344727 4.687089920043945 -2.1356544494628906
2.6838035583496094 5.655986309051514 -2.347599983215332
1.7417675256729126 6.013261795043945 -2.347599983215332
0.2520849406719208 6.255351543426514 -2.347599983215332
-0.2520751953125 6.255351543426514 -2.347599983215332
-2.219970703125 5.853603363037109 -2.347599983215332
-3.9593749046325684 4.849365234375 -2.347599983215332
-4.532841682434082 4.719199180603027 -2.453752040863037
-4.988007545471191 4.418993949890137 -2.4989006519317627
-5.329760551452637 4.005068302154541 -2.5
-5.634741306304932 3.5632030963897705 -2.5
-5.903188228607178 3.0982420444488525 -2.5
-6.473110198974609 1.595497965812683 -2.5
-6.580502986907959 1.0694433450698853 -2.5
-6.645219802856445 0.5364453196525574 -2.5
6.448564529418945 9.765624781721272e-06 -2.5
6.365058422088623 1.0344336032867432 -2.5
6.116708755493164 2.042050838470459 -2.5
5.450273513793945 3.446542978286743 -2.5
4.29360818862915 4.470126628875732 -2.4029126167297363
2.5959277153015137 5.470800876617432 -2.347599983215332
2.1472997665405273 5.661952972412109 -2.347599983215332
1.6847460269927979 5.816396236419678 -2.347599983215332
1.2112548351287842 5.933085918426514 -2.347599983215332
-0.729907214641571 6.011308670043945 -2.347599983215332
-1.211245059967041 5.933095455169678 -2.347599983215332
-3.027719736099243 5.244189262390137 -2.347599983215332
-4.455219745635986 4.638378620147705 -2.4933667182922363
-4.826821327209473 4.276191234588623 -2.5
-5.155253887176514 3.8739354610443115 -2.5
-5.450253963470459 3.446542978286743 -2.5
-5.709911823272705 2.9967968463897705 -2.5
-6.365043640136719 1.0344336032867432 -2.5
-6.427660942077637 0.5188964605331421 -2.5
6.242431640625 9.765624781721272e-06 -2.5
6.222187519073486 0.5023144483566284 -2.5
6.061039924621582 1.4939062595367432 -2.5
5.92117166519165 1.9767773151397705 -2.5
5.742905139923096 2.446826219558716 -2.5
5.527402400970459 2.900995969772339 -2.5
4.990466117858887 3.7500877380371094 -2.5
4.278759479522705 4.454658031463623 -2.4736788272857666
3.221186399459839 4.666698932647705 -2.270932674407959
2.9309520721435547 5.076542854309082 -2.347599983215332
2.512949228286743 5.29592752456665 -2.347599983215332
1.6308836936950684 5.630439281463623 -2.347599983215332
1.1725389957427979 5.743417739868164 -2.347599983215332
-0.7065771222114563 5.819140434265137 -2.347599983215332
-1.172519564628601 5.743427753448486 -2.347599983215332
-1.6308691501617432 5.630449295043945 -2.347599983215332
-2.0786375999450684 5.480966567993164 -2.347599983215332
-2.9309422969818115 5.076542854309082 -2.347599983215332
-3.3299365043640137 4.824238300323486 -2.347599983215332
-3.746772289276123 4.588994026184082 -2.372589588165283
-4.990454196929932 3.7500975131988525 -2.5
-5.27603006362915 3.336376905441284 -2.5
-5.527387619018555 2.901005744934082 -2.5
-5.742895603179932 2.446835994720459 -2.5
-5.921156883239746 1.9767968654632568 -2.5
-6.161581993103027 1.001367211341858 -2.5
5.736164569854736 1.9150195121765137 -2.5
5.354692459106445 2.810370922088623 -2.5
4.834536075592041 3.632929563522339 -2.5
4.526533126831055 4.010165691375732 -2.5
4.178808689117432 4.350595474243164 -2.4938161373138428
3.591494083404541 4.398779392242432 -2.347599983215332
2.4344334602355957 5.130449295043945 -2.347599983215332
2.0137109756469727 5.309706687927246 -2.347599983215332
-2.0136961936950684 5.309697151184082 -2.347599983215332
-2.83935546875 4.917939186096191 -2.347599983215332
-4.526528358459473 4.010165691375732 -2.5
-4.834531307220459 3.632929563522339 -2.5
-5.354682445526123 2.810351610183716 -2.5
-5.736147403717041 1.9150195121765137 -2.5
-5.871645450592041 1.4472362995147705 -2.5
-5.969057559967041 0.9700878858566284 -2.5
5.843517780303955 0.471748024225235 -2.5
5.56082010269165 1.85647451877594 -2.5
5.191010475158691 2.7244529724121094 -2.5
4.954951286315918 3.1333301067352295 -2.5
4.686757564544678 3.521865129470825 -2.5
4.388168811798096 3.887578010559082 -2.5
4.054096698760986 4.220771312713623 -2.4956812858581543
2.3600194454193115 4.973622798919678 -2.347599983215332
1.9521631002426147 5.147402286529541 -2.347599983215332
1.5316357612609863 5.287792682647705 -2.347599983215332
1.1011767387390137 5.393896579742432 -2.347599983215332
0.66357421875 5.465019226074219 -2.347599983215332
0.22167479991912842 5.500673770904541 -2.347599983215332
-0.22166015207767487 5.500693321228027 -2.347599983215332
-1.9521484375 5.147402286529541 -2.347599983215332
-2.3600049018859863 4.9736328125 -2.347599983215332
-2.752558469772339 4.767597675323486 -2.347599983215332
-3.697133779525757 4.528183460235596 -2.4928643703460693
-4.059506893157959 4.226406097412109 -2.499014139175415
-4.388154029846191 3.887578010559082 -2.5
-4.686743259429932 3.5218749046325684 -2.5
-4.954936504364014 3.1333203315734863 -2.5
-5.393393516540527 2.297919988632202 -2.5
-5.560810565948486 1.856484293937683 -2.5
-5.69216775894165 1.4030077457427979 -2.5
-5.843510627746582 0.471748024225235 -2.5
5.613388538360596 0.9122753739356995 -2.5
4.546459674835205 3.416445255279541 -2.5
3.9355320930480957 4.097323894500732 -2.497454881668091
3.5547313690185547 4.353759765625 -2.4707999229431152
2.670180559158325 4.624873161315918 -2.347599983215332
1.4857763051986694 5.129501819610596 -2.347599983215332
0.6437157988548279 5.301415920257568 -2.347599983215332
0.21503905951976776 5.336015701293945 -2.347599983215332
-0.6437060236930847 5.301415920257568 -2.347599983215332
-1.4857665300369263 5.129511833190918 -2.347599983215332
-3.088999032974243 4.475204944610596 -2.3904311656951904
-3.5891504287719727 4.395927429199219 -2.4947361946105957
-4.256792068481445 3.7712011337280273 -2.5
5.078442096710205 2.1637303829193115 -2.5
4.665590763092041 2.9503514766693115 -2.5
4.413056373596191 3.3162012100219727 -2.5
2.9803857803344727 4.317841529846191 -2.376086473464966
2.2221922874450684 4.683173656463623 -2.347599983215332
1.8381590843200684 4.846806526184082 -2.347599983215332
1.4421923160552979 4.979013442993164 -2.347599983215332
1.0368701219558716 5.078906059265137 -2.347599983215332
0.20872558653354645 5.179443359375 -2.347599983215332
-0.6248095631599426 5.145859241485596 -2.347599983215332
-1.8381396532058716 4.846806526184082 -2.347599983215332
-2.2221922874450684 4.683164119720459 -2.347599983215332
-2.5918211936950684 4.489169597625732 -2.347599983215332
-4.131899356842041 3.660537004470825 -2.5
-4.665580749511719 2.9503514766693115 -2.5
-4.887856483459473 2.5653514862060547 -2.5
-5.078427791595459 2.1637303829193115 -2.5
-5.448667049407959 0.885498046875 -2.5
5.361271858215332 9.765624781721272e-06 -2.5
5.343876838684082 0.4314062297344208 -2.5
5.205485820770264 1.283046841621399 -2.5
5.085366249084473 1.6977441310882568 -2.5
4.932270526885986 2.101445198059082 -2.5
4.747172832489014 2.491513729095459 -2.5
4.286035060882568 3.2207517623901367 -2.5
4.012978553771973 3.5551953315734863 -2.5
2.1582324504852295 4.54836893081665 -2.347599983215332
1.4006786346435547 4.835683345794678 -2.347599983215332
0.20271971821784973 5.030371189117432 -2.347599983215332
-0.20270995795726776 5.030371189117432 -2.347599983215332
-0.6068310141563416 4.997753620147705 -2.347599983215332
-1.400659203529358 4.835673809051514 -2.347599983215332
-2.1582274436950684 4.54836893081665 -2.347599983215332
-2.5452051162719727 4.408427715301514 -2.373697280883789
-3.0372753143310547 4.400253772735596 -2.493208646774292
-3.3882908821105957 4.149921894073486 -2.498218059539795
-3.713871955871582 3.8665623664855957 -2.5
-4.286025524139404 3.2207422256469727 -2.5
-4.9322509765625 2.101445198059082 -2.5
-5.205478191375732 1.283046841621399 -2.5
