ply
format ascii 1.0
element vertex 951
property float x
property float y
property float z
end_header
26.09120750427246 6.430917739868164 7.200343608856201
24.17265510559082 15.28587818145752 7.6634135246276855
20.355056762695312 15.2958345413208 6.822399616241455
6.393759727478027 6.656606197357178 2.473135232925415
12.63675594329834 15.4772310256958 5.353832721710205
7.369645595550537 15.531229972839355 4.606313228607178
3.109748363494873 15.23250961303711 4.165725231170654
1.8925585746765137 15.586649894714355 4.207101821899414
0.6321850419044495 15.687655448913574 4.206904411315918
-0.6297607421875 15.627352714538574 4.19073486328125
-1.8558471202850342 15.284228324890137 4.125473976135254
26.0966739654541 6.432260513305664 6.883559226989746
17.41400909423828 15.427485466003418 5.958292484283447
10.697011947631836 15.497294425964355 4.822648048400879
7.369172096252441 15.530248641967773 4.40245246887207
3.10973858833313 15.23250961303711 3.9816131591796875
1.8925268650054932 15.586347579956055 4.021085262298584
0.6359204053878784 15.780365943908691 4.044738292694092
-1.855837345123291 15.284228324890137 3.943143129348755
26.102113723754883 6.433598518371582 6.568432331085205
19.930559158325195 14.976840019226074 6.091320037841797
17.414003372192383 15.427485466003418 5.68433952331543
6.386996746063232 6.64956521987915 2.252762794494629
10.69647216796875 15.4965181350708 4.600678443908691
7.377414226531982 15.547616958618164 4.204736232757568
1.8584325313568115 4.900282859802246 1.2804824113845825
4.507043361663818 15.560102462768555 3.9580938816070557
-5.515212059020996 6.754926681518555 2.130683660507202
-9.112802505493164 6.847831726074219 2.7851195335388184
21.86970329284668 3.554189443588257 5.154066562652588
26.10752296447754 6.4349365234375 6.254880428314209
19.930559158325195 14.976840019226074 5.7993364334106445
6.383649826049805 6.646079063415527 2.143655300140381
12.635613441467285 15.475834846496582 4.647504806518555
10.695940971374512 15.495737075805664 4.379931449890137
8.760722160339355 15.174022674560547 4.075832366943359
1.8583325147628784 4.900014400482178 1.2190420627593994
4.506947994232178 15.559789657592773 3.7682909965515137
3.109748363494873 15.23250961303711 3.6164684295654297
0.6498144268989563 16.125028610229492 3.7540416717529297
-0.6373876929283142 15.816547393798828 3.6822259426116943
-1.8558422327041626 15.284228324890137 3.5815250873565674
23.952280044555664 15.146523475646973 6.262135028839111
17.414012908935547 15.427485466003418 5.140799522399902
6.380321979522705 6.642611980438232 2.035221815109253
12.642193794250488 15.48388671875 4.417016983032227
10.69551944732666 15.49514102935791 4.160389423370361
1.8582347631454468 4.899755954742432 1.1579208374023438
4.506860256195068 15.559476852416992 3.579474449157715
3.109748363494873 15.23250961303711 3.435325860977173
1.1702978610992432 29.040807723999023 6.422303199768066
-0.6407495141029358 15.9002685546875 3.5163049697875977
24.28339958190918 15.355917930603027 6.015570163726807
17.414003372192383 15.427485466003418 4.871048927307129
6.377016544342041 6.639169692993164 1.92742919921875
12.6905517578125 15.543119430541992 4.2012553215026855
7.468095302581787 15.738691329956055 3.6474223136901855
4.489789962768555 15.500532150268555 3.3788022994995117
1.909279704093933 15.724345207214355 3.31644344329834
-1.8558471202850342 15.284228324890137 3.2236175537109375
-5.514567852020264 6.754135608673096 1.825620412826538
24.283411026000977 15.355917930603027 5.683987140655518
19.930559158325195 14.976840019226074 4.932076454162598
17.41200065612793 15.425712585449219 4.602021217346191
6.373727798461914 6.635751724243164 1.820248007774353
12.75363540649414 15.620389938354492 3.989415168762207
8.760722160339355 15.174022674560547 3.466310977935791
7.504582405090332 15.815580368041992 3.463207244873047
4.512836933135986 15.580121994018555 3.2089500427246094
26.128929138183594 6.440209865570068 5.014640808105469
24.283411026000977 15.355917930603027 5.353854656219482
17.457250595092773 15.465790748596191 4.345993995666504
10.784017562866211 15.623344421386719 3.5374772548675537
8.760722160339355 15.174022674560547 3.264996290206909
1.857692837715149 4.898329734802246 0.976202666759491
4.517162799835205 15.595038414001465 3.025463819503784
3.109748363494873 15.232504844665527 2.897005558013916
1.9152783155441284 15.773744583129883 2.9609014987945557
-1.8558422327041626 15.284228324890137 2.8690154552459717
-5.514140605926514 6.753612995147705 1.624674916267395
26.134227752685547 6.441518306732178 4.707647800445557
24.283411026000977 15.355917930603027 5.025078773498535
12.96451473236084 15.878662109375 3.585261821746826
10.853943824768066 15.724642753601074 3.341776132583618
8.760722160339355 15.174022674560547 3.064483642578125
7.582311630249023 15.979418754577637 3.0934574604034424
4.521476745605469 15.609930992126465 2.842386484146118
3.109748363494873 15.23250961303711 2.719102621078491
-1.8558422327041626 15.284228324890137 2.69283127784729
-5.513930320739746 6.753349304199219 1.5248461961746216
26.139509201049805 6.442817211151123 4.401723384857178
24.282609939575195 15.355414390563965 4.697420597076416
17.772062301635742 15.744696617126465 3.8820250034332275
6.363964557647705 6.625590801239014 1.502055048942566
10.984868049621582 15.914320945739746 3.1616625785827637
8.760722160339355 15.174022674560547 2.864763021469116
1.8572875261306763 4.897265434265137 0.8563525080680847
4.524284362792969 15.61962890625 2.6587860584259033
3.109748363494873 15.232504844665527 2.541891098022461
24.217548370361328 15.314262390136719 4.35940408706665
20.036678314208984 15.056581497192383 3.813192129135132
6.360742092132568 6.622236251831055 1.3970067501068115
7.681911468505859 16.189311981201172 2.726309061050415
1.8570873737335205 4.896733283996582 0.7967813014984131
4.524279594421387 15.61962890625 2.4740943908691406
3.109748363494873 15.23250961303711 2.36531925201416
1.919289469718933 15.806767463684082 2.4225475788116455
-1.0897045135498047 27.040884017944336 4.11741304397583
-5.513508319854736 6.752841472625732 1.326345443725586
26.1500186920166 6.445409774780273 3.7927489280700684
6.357533931732178 6.618896484375 1.2924182415008545
8.760722160339355 15.174022674560547 2.4674289226531982
7.682521820068359 16.19059944152832 2.523674964904785
1.8568896055221558 4.896201133728027 0.7374215722084045
4.45147705078125 15.368266105651855 2.253171443939209
1.8743163347244263 15.4364013671875 2.1897733211517334
26.15525245666504 6.446699142456055 3.4895341396331787
20.03667449951172 15.056581497192383 3.246671676635742
6.354340553283691 6.615566253662109 1.188260793685913
14.953397750854492 21.66372299194336 3.4099206924438477
4.466306209564209 15.419477462768555 2.0795323848724365
3.109748363494873 15.23250961303711 2.013909339904785
-1.8558422327041626 15.284228324890137 1.9944506883621216
-5.51309061050415 6.752328872680664 1.1292089223861694
20.03666877746582 15.056581497192383 2.964665412902832
6.351154804229736 6.612250804901123 1.084505319595337
18.38870620727539 22.5220890045166 3.4392802715301514
10.585721969604492 15.3360595703125 2.2042551040649414
4.490651607513428 15.503510475158691 1.9092540740966797
-1.8558422327041626 15.284228324890137 1.821213960647583
17.858739852905273 15.821483612060547 2.554473876953125
6.347985744476318 6.608950138092041 0.9811239242553711
8.760722160339355 15.174022674560547 1.8759331703186035
7.599409103393555 16.01544952392578 1.8979451656341553
1.85629141330719 4.894633769989014 0.5604665875434875
3.109743595123291 15.23250961303711 1.664510726928711
20.03667449951172 15.056581497192383 2.402791976928711
6.344824314117432 6.605659008026123 0.8780913949012756
10.650635719299316 15.430102348327637 1.7974591255187988
8.760722160339355 15.174022674560547 1.6797741651535034
1.8560937643051147 4.894111156463623 0.5018057227134705
4.490336894989014 15.502426147460938 1.54730224609375
1.884523868560791 15.520463943481445 1.4988689422607422
-1.0897142887115479 27.040958404541016 2.5945096015930176
24.885908126831055 15.736908912658691 2.493849039077759
20.03667449951172 15.056581497192383 2.1227736473083496
10.650209426879883 15.429487228393555 1.5879333019256592
1.85589599609375 4.893588542938232 0.44328245520591736
4.490175724029541 15.501893997192383 1.366943359375
1.88446044921875 15.519941329956055 1.32415771484375
20.03667449951172 15.056581497192383 1.843304991722107
6.33853006362915 6.599106311798096 0.672963559627533
13.304609298706055 16.295204162597656 1.54718017578125
10.649782180786133 15.428872108459473 1.378814697265625
8.760726928710938 15.174022674560547 1.2886425256729126
7.600532054901123 16.017812728881836 1.3039541244506836
-1.8558422327041626 15.284228324890137 1.1323614120483398
-5.512912273406982 6.752109050750732 0.641094982624054
26.18642807006836 6.454379558563232 1.6833126544952393
20.03667449951172 15.056581497192383 1.5642882585525513
8.760726928710938 15.174022674560547 1.0935817956924438
1.8555028438568115 4.892553806304932 0.32658690214157104
-5.512897968292236 6.752089500427246 0.5440505743026733
20.03667449951172 15.056581497192383 1.2856390476226807
10.648930549621582 15.42763614654541 0.9616021513938904
7.6012864112854 16.0194034576416 0.9095577597618103
4.489709377288818 15.500283241271973 0.8277929425239563
3.109748363494873 15.23250961303711 0.7974923253059387
1.8842675685882568 15.518363952636719 0.8018859624862671
-1.0897045135498047 27.040966033935547 1.3882348537445068
26.196762084960938 6.456933498382568 1.0844061374664307
13.305717468261719 16.29655647277832 0.8455938696861267
7.601659774780273 16.02018928527832 0.7126901149749756
1.8551123142242432 4.891518592834473 0.21026305854320526
4.489552974700928 15.499751091003418 0.6485686898231506
1.8842040300369263 15.517836570739746 0.6282711625099182
-1.8558422327041626 15.284228324890137 0.6188125610351562
26.20192527770996 6.458208084106445 0.7852126955986023
24.7236270904541 15.634291648864746 0.8511483669281006
6.326035022735596 6.586098670959473 0.265716552734375
13.306083679199219 16.297006607055664 0.6121813654899597
10.648077011108398 15.426401138305664 0.5454089045524597
8.760722160339355 15.174022674560547 0.5098236203193665
3.109748363494873 15.232504844665527 0.45236143469810486
1.8841406106948853 15.517309188842773 0.45482268929481506
26.207088470458984 6.459477424621582 0.4860943555831909
24.724184036254883 15.634648323059082 0.5268206596374512
20.03667449951172 15.056581497192383 0.4513455033302307
13.306449890136719 16.297460556030273 0.3789050281047821
8.760726928710938 15.174022674560547 0.31554779410362244
7.602409362792969 16.021766662597656 0.31937530636787415
4.489253044128418 15.49868106842041 0.29059264063835144
1.8840868473052979 15.5167818069458 0.2814978063106537
-1.0897142887115479 27.04085922241211 0.48738035559654236
-5.496005535125732 6.731396198272705 0.15650177001953125
20.03666877746582 15.056581497192383 0.1735546886920929
7.60277795791626 16.02254867553711 0.12283019721508026
3.109748363494873 15.23250961303711 0.1076754704117775
1.8840136528015137 15.516254425048828 0.10825378447771072
-1.0897045135498047 27.040992736816406 0.18743620812892914
-1.8558471202850342 15.284228324890137 0.10663513094186783
-5.496005535125732 6.731396198272705 0.06018646061420441
26.21741485595703 6.462021350860596 -0.11221083998680115
24.725305557250977 15.635355949401855 -0.12157012522220612
6.316720962524414 6.576401233673096 -0.037893980741500854
10.64680290222168 15.424545288085938 -0.07788269221782684
8.760722160339355 15.174022674560547 -0.07282149791717529
4.488940238952637 15.497611999511719 -0.06704986095428467
3.109748363494873 15.232504844665527 -0.06460677832365036
-1.0897094011306763 27.040973663330078 -0.11246398836374283
6.313622951507568 6.573173522949219 -0.13888335227966309
10.646371841430664 15.423930168151855 -0.2855830192565918
7.603527545928955 16.024126052856445 -0.2702726721763611
1.8541357517242432 4.888940334320068 -0.07967574894428253
4.488786697387695 15.497084617614746 -0.2458520382642746
3.109748363494873 15.232504844665527 -0.23690307140350342
1.8838841915130615 15.515204429626465 -0.23815947771072388
-1.0897142887115479 27.040983200073242 -0.4123889207839966
-1.8558471202850342 15.284228324890137 -0.23461394011974335
-5.496005535125732 6.731396198272705 -0.13242049515247345
26.227752685546875 6.464570045471191 -0.7110920548439026
20.03667449951172 15.056581497192383 -0.6597856283187866
6.310524940490723 6.569951057434082 -0.23980727791786194
7.603906154632568 16.024906158447266 -0.466928094625473
1.8539379835128784 4.888432502746582 -0.1376284807920456
3.109748363494873 15.232504844665527 -0.40925735235214233
-1.8558422327041626 15.284228324890137 -0.4053054749965668
-5.496005535125732 6.731396198272705 -0.2287614345550537
26.232927322387695 6.465844631195068 -1.0109421014785767
8.760722160339355 15.174022674560547 -0.6556022763252258
-1.0897142887115479 27.040889739990234 -1.012619137763977
-1.8558471202850342 15.284228324890137 -0.5760949850082397
-14.0970458984375 20.423070907592773 -0.9285441637039185
-5.512768268585205 6.751928329467773 -0.326151579618454
26.238109588623047 6.467123985290527 -1.3111560344696045
24.72774314880371 15.6368989944458 -1.4195324182510376
6.304335594177246 6.56350564956665 -0.44156402349472046
13.30880355834961 16.30034065246582 -1.0210154056549072
8.760726928710938 15.174022674560547 -0.850125253200531
1.8535473346710205 4.887397289276123 -0.2536141872406006
4.488317966461182 15.495478630065918 -0.7827343344688416
3.109748363494873 15.23250961303711 -0.7543160915374756
1.8836913108825684 15.513622283935547 -0.7582395672798157
-1.0897045135498047 27.04096794128418 -1.3130751848220825
-5.512751579284668 6.751914024353027 -0.42292267084121704
19.001760482788086 4.683520317077637 -1.1670500040054321
6.301245212554932 6.560283184051514 -0.5424433946609497
10.644661903381348 15.4214448928833 -1.1174360513687134
8.760726928710938 15.174022674560547 -1.0448570251464844
7.605026721954346 16.027284622192383 -1.0578997135162354
1.8533519506454468 4.886884689331055 -0.311675101518631
4.488163948059082 15.494935989379883 -0.9619970321655273
3.109743595123291 15.232504844665527 -0.9271015524864197
-1.0897045135498047 27.040983200073242 -1.613853096961975
24.669124603271484 15.599828720092773 -2.0653793811798096
13.309614181518555 16.30132293701172 -1.4891774654388428
10.644235610961914 15.420825004577637 -1.3259197473526
8.760726928710938 15.174022674560547 -1.2398484945297241
1.8531543016433716 4.886366844177246 -0.3698000907897949
4.488012790679932 15.494394302368164 -1.1414811611175537
3.10973858833313 15.23250961303711 -1.1001156568527222
1.8835692405700684 15.51256275177002 -1.1057627201080322
-1.8558422327041626 15.284228324890137 -1.089486837387085
-13.493017196655273 19.54798126220703 -1.680780291557312
-5.51272439956665 6.751874923706055 -0.6167992949485779
28.290170669555664 4.597621917724609 -2.347599983215332
18.959348678588867 4.673071384429932 -1.5994027853012085
27.186307907104492 9.076132774353027 -2.347599983215332
26.36783790588379 11.234281539916992 -2.347599983215332
20.03667449951172 15.056581497192383 -2.0529067516326904
6.295048713684082 6.5538330078125 -0.744330883026123
13.2546968460083 16.23407745361328 -1.7166216373443604
10.64380931854248 15.420205116271973 -1.5347106456756592
8.760726928710938 15.174022674560547 -1.4351502656936646
1.8529589176177979 4.885849475860596 -0.42800459265708923
4.487846374511719 15.493852615356445 -1.321240782737732
1.1540673971176147 28.638084411621094 -2.347599983215332
-13.498090744018555 19.555334091186523 -1.9462642669677734
26.86016082763672 9.765624781721272e-06 -2.5
23.924707412719727 7.987231254577637 -2.347599983215332
23.20442008972168 9.886474609375 -2.347599983215332
22.333642959594727 11.721601486206055 -2.347599983215332
18.879499435424805 16.725793838500977 -2.347599983215332
6.291948318481445 6.550610065460205 -0.845387876033783
13.255072593688965 16.23453140258789 -1.9506996870040894
1.0156127214431763 25.202301025390625 -2.347599983215332
-1.0156176090240479 25.202301025390625 -2.347599983215332
-1.8558471202850342 15.284228324890137 -1.4330230951309204
-5.045207500457764 24.713022232055664 -2.347599983215332
-7.0174241065979 24.22690773010254 -2.347599983215332
-9.524731636047363 25.114681243896484 -2.5
-11.514738082885742 24.266820907592773 -2.5
-15.258319854736328 22.10546112060547 -2.5
-21.47315788269043 16.136024475097656 -2.5
-25.47783660888672 8.505746841430664 -2.5
-26.51230812072754 4.308686256408691 -2.5
-26.773056030273438 2.1613378524780273 -2.5
23.89981460571289 1.929409146308899 -2.5
21.35714340209961 7.130063533782959 -2.347599983215332
19.030197143554688 12.0339937210083 -2.347599983215332
18.00016975402832 13.526249885559082 -2.347599983215332
16.853378295898438 14.93080997467041 -2.347599983215332
13.255443572998047 16.2349853515625 -2.185274362564087
10.604676246643066 15.363510131835938 -1.9464092254638672
8.760722160339355 15.174022674560547 -1.8268604278564453
7.540080547332764 15.890429496765137 -1.833858847618103
4.470815181732178 15.435043334960938 -1.6754720211029053
1.8765112161636353 15.454442977905273 -1.6231788396835327
-1.8558422327041626 15.284228324890137 -1.6053011417388916
-4.503771781921387 22.060888290405273 -2.347599983215332
-7.984245300292969 21.05275535583496 -2.347599983215332
-17.947465896606445 15.900068283081055 -2.5
-19.1686954498291 14.404335975646973 -2.5
-21.23109245300293 11.142949104309082 -2.5
-22.743602752685547 7.592915058135986 -2.5
-23.667064666748047 3.8462841510772705 -2.5
19.282962799072266 6.437602519989014 -2.347599983215332
17.182010650634766 10.865253448486328 -2.347599983215332
16.25201416015625 12.212592124938965 -2.347599983215332
6.285737037658691 6.544145584106445 -1.0478516817092896
1.8525927066802979 4.884877681732178 -0.603308379650116
3.109748363494873 15.23250961303711 -1.7953225374221802
1.876442790031433 15.4539155960083 -1.7977160215377808
-0.8185693025588989 20.312685012817383 -2.347599983215332
-5.655942440032959 19.52653694152832 -2.347599983215332
-7.208818435668945 19.00811004638672 -2.347599983215332
-9.280713081359863 19.55870246887207 -2.5
-10.824455261230469 18.748483657836914 -2.5
-5.5126633644104 6.751806259155273 -1.006568431854248
-18.297426223754883 11.570600509643555 -2.5
-21.36854362487793 3.4727392196655273 -2.5
-21.57869529724121 1.7420116662979126 -2.5
19.66400909423828 1.5874511003494263 -2.5
19.472511291503906 3.164604425430298 -2.5
17.987051010131836 4.433422565460205 -2.347599983215332
14.809967994689941 11.1289644241333 -2.347599983215332
11.71627426147461 14.34984302520752 -2.347599983215332
10.523611068725586 15.246073722839355 -2.347599983215332
7.540820121765137 15.891977310180664 -2.2291054725646973
4.470500469207764 15.433969497680664 -2.0362417697906494
3.109748363494873 15.232504844665527 -1.9701327085494995
-6.5691819190979 17.321517944335938 -2.347599983215332
-7.941686630249023 16.73674774169922 -2.347599983215332
-13.6660737991333 14.227875709533691 -2.5
-14.766606330871582 13.082070350646973 -2.5
-15.77138614654541 11.851435661315918 -2.5
-17.468265533447266 9.168042182922363 -2.5
-18.14933967590332 7.732705116271973 -2.5
-19.154720306396484 4.72122049331665 -2.5
-19.472509384155273 3.164604425430298 -2.5
-19.66400909423828 1.587441325187683 -2.5
18.057310104370117 1.4577441215515137 -2.5
17.881454467773438 2.9060254096984863 -2.5
16.136213302612305 5.387065410614014 -2.347599983215332
15.65041446685791 6.668012619018555 -2.347599983215332
15.063111305236816 7.905727386474609 -2.347599983215332
14.378113746643066 9.092177391052246 -2.347599983215332
6.279504299163818 6.537656307220459 -1.2509537935256958
10.758964538574219 13.177348136901855 -2.347599983215332
7.29278039932251 15.369223594665527 -2.347599983215332
4.470348834991455 15.433427810668945 -2.2173447608947754
1.87631094455719 15.452860832214355 -2.148143768310547
-0.6849951148033142 16.99789810180664 -2.347599983215332
-3.4027905464172363 16.66789436340332 -2.347599983215332
-7.292790412902832 15.36922836303711 -2.347599983215332
-12.549423217773438 13.065336227416992 -2.5
-13.56005859375 12.013163566589355 -2.5
-14.48275375366211 10.883075714111328 -2.5
-16.04097557067871 8.418940544128418 -2.5
-16.666400909423828 7.100883483886719 -2.5
-17.881460189819336 2.9060301780700684 -2.5
16.229629516601562 4.000253677368164 -2.495758295059204
14.913894653320312 4.978989124298096 -2.347599983215332
14.46489143371582 6.162909984588623 -2.347599983215332
13.922078132629395 7.306869983673096 -2.347599983215332
11.768868446350098 10.426322937011719 -2.347599983215332
9.9439697265625 12.17916488647461 -2.347599983215332
8.931718826293945 12.939824104309082 -2.347599983215332
6.740346431732178 14.205009460449219 -2.347599983215332
1.8522289991378784 4.883920669555664 -0.7798953056335449
4.374428749084473 15.10228443145752 -2.347599983215332
3.109748363494873 15.23250961303711 -2.32126784324646
1.8762450218200684 15.452323913574219 -2.324122428894043
-1.8558471202850342 15.284228324890137 -2.298839807510376
-3.14501953125 15.405302047729492 -2.347599983215332
-9.511549949645996 13.779833793640137 -2.5
-5.512619495391846 6.751752853393555 -1.3014352321624756
-11.598808288574219 12.075644493103027 -2.5
-13.3856782913208 10.058686256408691 -2.5
-15.403910636901855 6.562993049621582 -2.5
-16.257211685180664 4.007040977478027 -2.5
15.56108570098877 0.0 -2.5
15.108909606933594 3.724013566970825 -2.5
13.860474586486816 4.627309322357178 -2.347599983215332
12.350324630737305 7.809877872467041 -2.347599983215332
11.681845664978027 8.778334617614746 -2.347599983215332
8.30084228515625 12.025835037231445 -2.347599983215332
7.306237697601318 12.65478515625 -2.347599983215332
6.264252662658691 13.20166015625 -2.347599983215332
1.8521069288253784 4.883593559265137 -0.8391141891479492
4.065451622009277 14.03555679321289 -2.347599983215332
1.7613353729248047 14.50594711303711 -2.347599983215332
0.5883837938308716 14.600639343261719 -2.347599983215332
-4.065451622009277 14.035551071166992 -2.347599983215332
-5.181645393371582 13.662909507751465 -2.347599983215332
-8.300847053527832 12.025830268859863 -2.347599983215332
-11.647631645202637 10.318921089172363 -2.5
-13.778666496276855 7.231581687927246 -2.5
-14.315878868103027 6.099428653717041 -2.5
-15.359575271606445 2.4961767196655273 -2.5
-15.510629653930664 1.2521435022354126 -2.5
14.34288215637207 2.3309521675109863 -2.5
14.108806610107422 3.4775145053863525 -2.5
12.5533447265625 5.348471641540527 -2.347599983215332
12.082259178161621 6.341259479522705 -2.347599983215332
10.908590316772461 8.197275161743164 -2.347599983215332
6.270107269287109 6.527875900268555 -1.5572466850280762
8.629865646362305 10.569677352905273 -2.347599983215332
5.849601745605469 12.327802658081055 -2.347599983215332
3.7963452339172363 13.1065034866333 -2.347599983215332
2.7294065952301025 13.369477272033691 -2.347599983215332
1.6447484493255615 13.545751571655273 -2.347599983215332
-0.5494433641433716 13.634174346923828 -2.347599983215332
-1.6447607278823853 13.545751571655273 -2.347599983215332
-2.7294018268585205 13.36947250366211 -2.347599983215332
-3.796340227127075 13.106493949890137 -2.347599983215332
-5.849618911743164 12.327797889709473 -2.347599983215332
-6.822614669799805 11.817118644714355 -2.347599983215332
-10.066010475158691 10.479833602905273 -2.5
-10.876649856567383 9.635869026184082 -2.5
-12.866616249084473 6.752904891967773 -2.5
13.625673294067383 0.0 -2.5
10.81424617767334 6.838520526885986 -2.347599983215332
10.228909492492676 7.6865234375 -2.347599983215332
5.390913009643555 7.810078144073486 -1.7411919832229614
6.397526741027832 11.08083438873291 -2.347599983215332
1.8518602848052979 4.882948875427246 -0.958175778388977
2.559343099594116 12.536469459533691 -2.347599983215332
0.5152001976966858 12.784672737121582 -2.347599983215332
-0.5152026414871216 12.784677505493164 -2.347599983215332
-1.5422801971435547 12.701757431030273 -2.347599983215332
-2.5593481063842773 12.53646469116211 -2.347599983215332
-5.485138893127441 11.559687614440918 -2.347599983215332
-5.500534534454346 6.736952781677246 -1.5957489013671875
-9.438830375671387 9.82686996459961 -2.5
-10.198962211608887 9.035492897033691 -2.5
-10.8929443359375 8.185507774353027 -2.5
-12.064936637878418 6.332158088684082 -2.5
-12.535341262817383 5.340800762176514 -2.5
-13.581488609313965 1.096401333808899 -2.5
12.781865119934082 1.0318603515625 -2.5
12.65738582611084 2.0570311546325684 -2.5
11.078145980834961 4.719955921173096 -2.347599983215332
10.177547454833984 6.435893535614014 -2.347599983215332
7.380441665649414 5.546040058135986 -1.7998254299163818
6.020866394042969 10.428442001342773 -2.347599983215332
2.4086596965789795 11.79837417602539 -2.347599983215332
1.4514721632003784 11.953930854797363 -2.347599983215332
-2.4086620807647705 11.798368453979492 -2.347599983215332
-6.020849704742432 10.428446769714355 -2.347599983215332
-8.883108139038086 9.248305320739746 -2.5
-10.838249206542969 6.853691101074219 -2.5
-11.354598999023438 5.959340572357178 -2.5
-11.797304153442383 5.026352405548096 -2.5
-12.163505554199219 4.060771465301514 -2.5
-12.450815200805664 3.068852424621582 -2.5
-12.657387733459473 2.0570311546325684 -2.5
-12.781865119934082 1.0318603515625 -2.5
12.107513427734375 4.882812390860636e-06 -2.5
12.068251609802246 0.9742528796195984 -2.5
11.950723648071289 1.9421874284744263 -2.5
11.75568962097168 2.897524356842041 -2.5
10.459650993347168 4.456435680389404 -2.347599983215332
6.260632038116455 6.518007755279541 -1.8661330938339233
5.475009441375732 6.705673694610596 -1.7875045537948608
5.684719085693359 9.846220016479492 -2.347599983215332
4.873989105224609 10.271723747253418 -2.347599983215332
1.8516112565994263 4.882299900054932 -1.0781768560409546
1.3704370260238647 11.286538124084473 -2.347599983215332
0.4578002691268921 11.36021900177002 -2.347599983215332
-3.1631665229797363 10.920551300048828 -2.347599983215332
-4.873984336853027 10.271723747253418 -2.347599983215332
-5.684701919555664 9.846220016479492 -2.347599983215332
-6.458574295043945 9.356864929199219 -2.347599983215332
-5.433823108673096 6.655239105224609 -1.77405846118927
-9.062602043151855 8.028769493103027 -2.5
-9.679265022277832 7.273490905761719 -2.5
-10.720673561096191 5.626635551452637 -2.5
-11.13866138458252 4.745737075805664 -2.5
-11.484416007995605 3.834062337875366 -2.5
-11.755688667297363 2.89751935005188 -2.5
-11.95071792602539 1.9421874284744263 -2.5
11.427339553833008 0.9225097298622131 -2.5
11.131375312805176 2.7436375617980957 -2.5
9.09900951385498 5.753871917724609 -2.347599983215332
7.380441665649414 5.546040058135986 -2.0131654739379883
5.501315593719482 5.727480411529541 -1.7317724227905273
5.456554889678955 6.683066368103027 -1.8813958168029785
1.8514868021011353 4.881972312927246 -1.1385715007781982
2.995190382003784 10.340595245361328 -2.347599983215332
2.1534154415130615 10.548075675964355 -2.347599983215332
0.43348875641822815 10.7568941116333 -2.347599983215332
-0.43348875641822815 10.756914138793945 -2.347599983215332
-5.382817268371582 9.323315620422363 -2.347599983215332
-6.115578651428223 8.859936714172363 -2.347599983215332
-5.423739910125732 6.642895221710205 -1.8700828552246094
-7.941745281219482 8.268232345581055 -2.5
-8.581305503845215 7.602377891540527 -2.5
-9.165226936340332 6.887216567993164 -2.5
-10.54711627960205 4.493700981140137 -2.5
-11.316049575805664 1.8390429019927979 -2.5
10.883702278137207 4.882812390860636e-06 -2.5
10.323588371276855 3.4465184211730957 -2.5
8.638036727905273 5.462363243103027 -2.347599983215332
5.525529861450195 5.75268030166626 -1.8322172164916992
4.381330490112305 9.233481407165527 -2.347599983215332
2.843449592590332 9.816718101501465 -2.347599983215332
2.0443115234375 10.013676643371582 -2.347599983215332
1.2319140434265137 10.14571762084961 -2.347599983215332
-0.4115234315395355 10.21194839477539 -2.347599983215332
-1.2319164276123047 10.145712852478027 -2.347599983215332
-4.381337642669678 9.233466148376465 -2.347599983215332
-8.146564483642578 7.217231273651123 -2.5
-9.198793411254883 5.816962718963623 -2.5
-9.637041091918945 5.057900428771973 -2.5
-10.01278018951416 4.266044616699219 -2.5
-10.567450523376465 2.6046435832977295 -2.5
-10.74276065826416 1.7458739280700684 -2.5
-10.848407745361328 0.8757616877555847 -2.5
10.222244262695312 1.6612792015075684 -2.5
9.823379516601562 3.2795214653015137 -2.5
9.508184432983398 4.051059246063232 -2.4948971271514893
8.611088752746582 4.519448280334473 -2.347599983215332
8.219499588012695 5.197700023651123 -2.347599983215332
7.233896255493164 5.43594217300415 -2.1843388080596924
6.188876628875732 5.482871055603027 -1.995938777923584
5.525529861450195 5.752685546875 -1.9255139827728271
5.475009441375732 6.705673694610596 -2.089754343032837
5.323388576507568 7.712260723114014 -2.262160301208496
4.862514495849609 8.422123908996582 -2.347599983215332
1.851235270500183 4.881308555603027 -1.2602300643920898
0.39158445596694946 9.717147827148438 -2.347599983215332
-1.1722265481948853 9.654126167297363 -2.347599983215332
-3.448539972305298 9.093056678771973 -2.347599983215332
-4.169052600860596 8.786078453063965 -2.347599983215332
-5.403051853179932 6.6175537109375 -2.0622901916503906
-7.166589260101318 7.461215496063232 -2.497385263442993
-7.751838207244873 6.867534160614014 -2.5
-8.279311180114746 6.221503734588623 -2.5
-9.170100212097168 4.812831878662109 -2.5
-9.527633666992188 4.059340953826904 -2.5
-9.823381423950195 3.2795262336730957 -2.5
-10.322771072387695 0.8333349227905273 -2.5
9.875301361083984 0.0 -2.5
9.747419357299805 1.5841113328933716 -2.5
8.211108207702637 4.309516429901123 -2.347599983215332
7.83770227432251 4.956269264221191 -2.347599983215332
7.211618423461914 5.419179439544678 -2.2836804389953613
1.8511083126068115 4.880971431732178 -1.3215290307998657
2.5799951553344727 8.907172203063965 -2.347599983215332
1.8549022674560547 9.085893630981445 -2.347599983215332
1.117771029472351 9.205693244934082 -2.347599983215332
-2.5799951553344727 8.907172203063965 -2.347599983215332
-6.831071853637695 7.111899375915527 -2.4964230060577393
-7.391767501831055 6.548534870147705 -2.5
-7.894738674163818 5.932509422302246 -2.5
-9.085075378417969 3.870781183242798 -2.5
-9.747416496276855 1.5841113328933716 -2.5
9.312423706054688 1.5134179592132568 -2.5
8.94906234741211 2.9876415729522705 -2.5
8.679638862609863 3.6980466842651367 -2.5
7.487931728363037 4.735083103179932 -2.347599983215332
5.525529861450195 5.75268030166626 -2.113635778427124
5.382741451263428 6.592665672302246 -2.255263566970825
5.032753944396973 7.291196346282959 -2.347599983215332
4.429733753204346 7.672524452209473 -2.347599983215332
3.797980785369873 8.004091262817383 -2.347599983215332
1.85098135471344 4.880639553070068 -1.3831640481948853
1.77212393283844 8.680419921875 -2.347599983215332
-1.067895531654358 8.794867515563965 -2.347599983215332
-1.77212393283844 8.680424690246582 -2.347599983215332
-3.141611337661743 8.283735275268555 -2.347599983215332
-5.032748699188232 7.291196346282959 -2.347599983215332
-5.348742485046387 6.551034927368164 -2.2410190105438232
-6.525217056274414 6.793471336364746 -2.4960381984710693
-7.061901569366455 6.256293773651123 -2.5
-7.542424201965332 5.667763710021973 -2.5
-8.353920936584473 4.384477615356445 -2.5
-8.679640769958496 3.6980466842651367 -2.5
-9.160453796386719 2.2578418254852295 -2.5
9.029275894165039 0.0 -2.5
8.912345886230469 1.448403239250183 -2.5
8.7669038772583 2.1608543395996094 -2.5
8.306750297546387 3.539174795150757 -2.5
7.166234970092773 4.531655311584473 -2.347599983215332
6.047314167022705 5.357455730438232 -2.2369277477264404
5.362409591674805 6.567758560180664 -2.347599983215332
4.816537857055664 6.977953910827637 -2.347599983215332
3.6348118782043457 7.660219669342041 -2.347599983215332
1.6959887742996216 8.3074951171875 -2.347599983215332
-0.3414086699485779 8.471972465515137 -2.347599983215332
-1.0220141410827637 8.417031288146973 -2.347599983215332
-1.6959936618804932 8.307499885559082 -2.347599983215332
-2.3589673042297363 8.144086837768555 -2.347599983215332
-3.0066332817077637 7.927865982055664 -2.347599983215332
-3.6348118782043457 7.660224437713623 -2.347599983215332
-4.239430904388428 7.34289026260376 -2.347599983215332
-4.816550254821777 6.97793436050415 -2.347599983215332
-5.348742485046387 6.551034927368164 -2.341618299484253
-7.218388557434082 5.424267292022705 -2.5
-7.631457328796387 4.825829982757568 -2.5
-7.995031356811523 4.196098327636719 -2.5
-8.306750297546387 3.539174795150757 -2.5
-8.564597129821777 2.8592772483825684 -2.5
-8.999995231628418 0.7265478372573853 -2.5
8.543073654174805 1.388393521308899 -2.5
8.40364933013916 2.0713183879852295 -2.5
7.962565898895264 3.392524242401123 -2.5
7.649985313415527 4.015019416809082 -2.4955079555511475
6.869308948516846 4.343886852264404 -2.347599983215332
6.497499942779541 4.882553577423096 -2.347599983215332
5.432409763336182 5.655737400054932 -2.265153169631958
4.616967678070068 6.688827991485596 -2.347599983215332
4.063766956329346 7.038647174835205 -2.347599983215332
1.8507250547409058 4.879961013793945 -1.5075167417526245
2.261223077774048 7.806645393371582 -2.347599983215332
1.6257152557373047 7.963281154632568 -2.347599983215332
0.9796655178070068 8.068281173706055 -2.347599983215332
-0.9796679615974426 8.068276405334473 -2.347599983215332
-1.6257177591323853 7.96328592300415 -2.347599983215332
-3.4842114448547363 7.342822074890137 -2.347599983215332
-4.063764572143555 7.038647174835205 -2.347599983215332
-5.140219688415527 6.295624732971191 -2.347599983215332
-5.986657619476318 6.232773303985596 -2.4962587356567383
-6.919296741485596 5.199511528015137 -2.5
-7.315244197845459 4.625878810882568 -2.5
-7.663759708404541 4.022241115570068 -2.5
-8.209729194641113 2.7408056259155273 -2.5
8.281733512878418 0.6685742139816284 -2.5
7.351564884185791 3.858393430709839 -2.4981627464294434
6.2373948097229 4.687094688415527 -2.347599983215332
5.404757976531982 5.626953125 -2.347599983215332
4.934450626373291 6.04360818862915 -2.347599983215332
4.432146072387695 6.421069145202637 -2.347599983215332
1.8505980968475342 4.879614353179932 -1.5702710151672363
2.170705556869507 7.494130611419678 -2.347599983215332
1.5606396198272705 7.644496917724609 -2.347599983215332
0.31416013836860657 7.795849323272705 -2.347599983215332
-0.31416258215904236 7.795849323272705 -2.347599983215332
-1.5606396198272705 7.644501686096191 -2.347599983215332
-2.170705556869507 7.494121074676514 -2.347599983215332
-3.344733715057373 7.048886775970459 -2.347599983215332
-3.9010913372039795 6.756884574890137 -2.347599983215332
-6.219130516052246 5.509667873382568 -2.5
-7.881081581115723 2.631093740463257 -2.5
7.986814022064209 0.0 -2.5
7.883386135101318 1.2811766862869263 -2.5
7.575780868530273 2.529169797897339 -2.5
7.347704887390137 3.130561351776123 -2.5
7.071969985961914 3.711660146713257 -2.5
6.649758338928223 4.205058574676514 -2.4627389907836914
5.995769023895264 4.50552225112915 -2.347599983215332
5.613781452178955 4.973378658294678 -2.347599983215332
4.260451793670654 6.172328948974609 -2.347599983215332
1.8322656154632568 4.831279277801514 -1.6173700094223022
0.9040234088897705 7.445268154144287 -2.347599983215332
0.30198729038238525 7.493852138519287 -2.347599983215332
-0.30198973417282104 7.493857383728027 -2.347599983215332
-1.5001782178878784 7.348373889923096 -2.347599983215332
-2.086616277694702 7.203823089599609 -2.347599983215332
-3.215161085128784 6.775825023651123 -2.347599983215332
-3.7499682903289795 6.495131492614746 -2.347599983215332
-5.526770114898682 5.753989219665527 -2.4973416328430176
-5.97821044921875 5.296235084533691 -2.5
-6.384994983673096 4.798017501831055 -2.5
-6.750373363494873 4.268671989440918 -2.5
-7.347707271575928 3.130561351776123 -2.5
-7.754733562469482 1.911376953125 -2.5
7.686964988708496 0.0 -2.5
7.587421894073486 1.2330760955810547 -2.5
7.4635910987854 1.8396142721176147 -2.5
7.291364669799805 2.434218645095825 -2.5
7.071850299835205 3.0130321979522705 -2.5
5.403024673461914 4.786664962768555 -2.347599983215332
5.000336647033691 5.205908298492432 -2.347599983215332
4.565219402313232 5.591381549835205 -2.347599983215332
4.100500583648682 5.940595626831055 -2.347599983215332
3.0944530963897705 6.521435260772705 -2.347599983215332
2.0082762241363525 6.933373928070068 -2.347599983215332
0.8700780868530273 7.165737152099609 -2.347599983215332
0.2906543016433716 7.212514400482178 -2.347599983215332
-1.4438623189926147 7.072494983673096 -2.347599983215332
-2.0082788467407227 6.933369159698486 -2.347599983215332
-3.609182119369507 6.251288890838623 -2.347599983215332
-4.100505352020264 5.940595626831055 -2.347599983215332
-4.565217018127441 5.591376781463623 -2.347599983215332
-5.320959568023682 5.53970193862915 -2.4981281757354736
-5.753771781921387 5.097397327423096 -2.5
-6.496950626373291 4.108413219451904 -2.5
-7.071850299835205 3.0130271911621094 -2.5
-7.291367053985596 2.434208869934082 -2.5
-7.463598251342773 1.8396093845367432 -2.5
-7.587419033050537 1.2330760955810547 -2.5
-7.662038326263428 0.6185400485992432 -2.5
7.406877040863037 0.0 -2.5
7.382853984832764 0.5960058569908142 -2.5
7.310959339141846 1.188149333000183 -2.5
7.02569055557251 2.345522403717041 -2.5
6.558459281921387 3.442138671875 -2.5
6.251589298248291 3.953261613845825 -2.4965546131134033
5.61828088760376 4.221855163574219 -2.3720314502716064
4.398879528045654 5.387651443481445 -2.347599983215332
3.9510912895202637 5.724135398864746 -2.347599983215332
3.477673292160034 6.023515701293945 -2.347599983215332
1.9351024627685547 6.680742263793945 -2.347599983215332
0.8383740186691284 6.904633522033691 -2.347599983215332
0.2800634801387787 6.949711799621582 -2.347599983215332
-0.2800610363483429 6.949716567993164 -2.347599983215332
-0.8383764624595642 6.904638290405273 -2.347599983215332
-1.9351024627685547 6.680737018585205 -2.347599983215332
-2.4664013385772705 6.503364086151123 -2.347599983215332
-2.981701612472534 6.2838134765625 -2.347599983215332
-3.9510936737060547 5.724135398864746 -2.347599983215332
-4.398876667022705 5.387646198272705 -2.347599983215332
-5.128840446472168 5.339687347412109 -2.4989864826202393
-5.544123649597168 4.911660194396973 -2.5
-5.921371936798096 4.44961404800415 -2.5
-6.260217189788818 3.9587206840515137 -2.5
-6.814174652099609 2.9032421112060547 -2.5
-7.19164514541626 1.7725781202316284 -2.5
-7.382853984832764 0.5960009694099426 -2.5
7.14458703994751 0.0 -2.5
7.121418476104736 0.574902355670929 -2.5
7.052072525024414 1.1460790634155273 -2.5
6.776904106140137 2.262460947036743 -2.5
6.572873592376709 2.8004345893859863 -2.5
6.326218128204346 3.320253849029541 -2.5
4.647524356842041 4.838588714599609 -2.347599983215332
3.3545262813568115 5.810214519500732 -2.347599983215332
1.8078124523162842 4.766811370849609 -1.7839040756225586
1.8665746450424194 6.444164752960205 -2.347599983215332
0.8086864948272705 6.660131454467773 -2.347599983215332
0.2701464891433716 6.70361328125 -2.347599983215332
-0.8086864948272705 6.660136699676514 -2.347599983215332
-2.8761229515075684 6.061298847198486 -2.347599983215332
-3.8111815452575684 5.521440505981445 -2.347599983215332
-4.350976467132568 5.3289794921875 -2.407280921936035
-4.949160099029541 5.152621746063232 -2.499966859817505
-5.347800254821777 4.737734317779541 -2.5
-5.711689472198486 4.292055606842041 -2.5
-6.326222896575928 3.320253849029541 -2.5
-6.776904106140137 2.262455940246582 -2.5
-6.936977386474609 1.709814429283142 -2.5
-7.052065372467041 1.1460741758346558 -2.5
-7.121420860290527 0.5748974680900574 -2.5
6.898412704467773 0.0 -2.5
6.876044750213623 0.5550927519798279 -2.5
6.80907678604126 1.1065820455551147 -2.5
6.697956562042236 1.6509032249450684 -2.5
5.830466270446777 3.686967611312866 -2.5
5.50054931640625 4.133388519287109 -2.4935014247894287
4.848764419555664 4.295634746551514 -2.347599983215332
4.487390041351318 4.671864986419678 -2.347599983215332
1.8050169944763184 4.759438514709473 -1.8447072505950928
0.7808203101158142 6.430654048919678 -2.347599983215332
-0.7808276414871216 6.430654048919678 -2.347599983215332
-1.2957470417022705 6.346972465515137 -2.347599983215332
-2.2970874309539795 6.056918621063232 -2.347599983215332
-3.238945245742798 5.610004901885986 -2.347599983215332
-5.514884948730469 4.1441650390625 -2.5
-6.108242034912109 3.2058446407318115 -2.5
-6.346396446228027 2.7039501667022705 -2.5
-6.697958946228027 1.6508886814117432 -2.5
6.666842937469482 4.882812390860636e-06 -2.5
6.645222187042236 0.5364599227905273 -2.5
6.580507755279541 1.0694384574890137 -2.5
6.473114967346191 1.5954785346984863 -2.5
5.634746074676514 3.5632030963897705 -2.5
4.762570858001709 4.219277381896973 -2.385962963104248
3.9593799114227295 4.849360466003418 -2.347599983215332
3.556330442428589 5.152226448059082 -2.347599983215332
1.8022069931030273 4.752031326293945 -1.9058103561401367
1.741762638092041 6.013256549835205 -2.347599983215332
1.2522485256195068 6.133915901184082 -2.347599983215332
0.2520800828933716 6.255346775054932 -2.347599983215332
-1.2522509098052979 6.1339111328125 -2.347599983215332
-1.741762638092041 6.013261795043945 -2.347599983215332
-2.219978094100952 5.853593826293945 -2.347599983215332
-2.6837964057922363 5.655986309051514 -2.347599983215332
-3.1302173137664795 5.421684265136719 -2.347599983215332
-3.55633544921875 5.152226448059082 -2.347599983215332
-4.205546855926514 5.150864124298096 -2.493560552597046
-6.323742389678955 2.1111717224121094 -2.5
6.365060806274414 1.034423828125 -2.5
6.261178970336914 1.543237328529358 -2.5
6.116696834564209 2.042060613632202 -2.5
5.450258731842041 3.446537971496582 -2.5
4.194770336151123 4.367207050323486 -2.347599983215332
3.8297460079193115 4.690585613250732 -2.347599983215332
3.0277295112609863 5.244184494018555 -2.347599983215332
2.5959277153015137 5.470805644989014 -2.347599983215332
1.7993823289871216 4.744579792022705 -1.9672324657440186
1.2112475633621216 5.933085918426514 -2.347599983215332
0.24382811784744263 6.050541877746582 -2.347599983215332
-0.729907214641571 6.011303424835205 -2.347599983215332
-1.2112499475479126 5.933081150054932 -2.347599983215332
-1.6847362518310547 5.816386699676514 -2.347599983215332
-2.5959277153015137 5.470795631408691 -2.347599983215332
-3.0277318954467773 5.24416971206665 -2.347599983215332
-3.439894914627075 4.983540058135986 -2.347599983215332
-4.070092678070068 4.984965801239014 -2.4949324131011963
-6.116701602935791 2.042045831680298 -2.5
-6.261178970336914 1.54324209690094 -2.5
-6.365053653717041 1.034423828125 -2.5
6.161584377288818 1.0013574361801147 -2.5
5.742897987365723 2.4468212127685547 -2.5
5.527387619018555 2.900995969772339 -2.5
4.660514831542969 4.128862380981445 -2.4935784339904785
4.06374979019165 4.230810642242432 -2.3493807315826416
3.7073168754577637 4.540644645690918 -2.347599983215332
2.9309399127960205 5.076542854309082 -2.347599983215332
1.79681396484375 4.737802505493164 -2.02929425239563
1.1725292205810547 5.743417739868164 -2.347599983215332
0.7065722346305847 5.819140434265137 -2.347599983215332
-0.23603270947933197 5.857128620147705 -2.347599983215332
-0.7065722346305847 5.819135665893555 -2.347599983215332
-1.1725292205810547 5.743412971496582 -2.347599983215332
-1.6308813095092773 5.630449295043945 -2.347599983215332
-2.512946605682373 5.295907974243164 -2.347599983215332
-4.990458965301514 3.750077962875366 -2.5
-5.27603006362915 3.336357355117798 -2.5
-5.527390003204346 2.900991201400757 -2.5
-5.742897987365723 2.4468164443969727 -2.5
-6.222177505493164 0.5022997856140137 -2.5
5.969067096710205 0.9700683355331421 -2.5
5.871650218963623 1.447231411933899 -2.5
5.736154556274414 1.9150097370147705 -2.5
5.563459396362305 2.370366096496582 -2.5
5.354684829711914 2.810356378555298 -2.5
4.518749713897705 4.003266334533691 -2.4957070350646973
3.591481924057007 4.398779392242432 -2.347599983215332
2.839362621307373 4.917919635772705 -2.347599983215332
2.4344213008880615 5.130449295043945 -2.347599983215332
1.79437255859375 4.731376647949219 -2.091902494430542
1.1358935832977295 5.56396484375 -2.347599983215332
0.6844946146011353 5.637319087982178 -2.347599983215332
-0.22865721583366394 5.674120903015137 -2.347599983215332
-0.684497058391571 5.637319087982178 -2.347599983215332
-1.1358935832977295 5.56395959854126 -2.347599983215332
-3.8213376998901367 4.680283069610596 -2.497844696044922
-4.189162731170654 4.361381530761719 -2.5
-4.834531307220459 3.6329100131988525 -2.5
-5.736159324645996 1.915004849433899 -2.5
-5.969059944152832 0.9700683355331421 -2.5
5.843508243560791 0.4717382788658142 -2.5
5.786601543426514 0.9404150247573853 -2.5
5.692165374755859 1.4029979705810547 -2.5
5.393395900726318 2.297910213470459 -2.5
4.954938888549805 3.1333203315734863 -2.5
4.686748027801514 3.521860361099243 -2.5
4.384167194366455 3.884042978286743 -2.497727870941162
4.035214900970459 4.201108455657959 -2.4840621948242188
3.481694221496582 4.264306545257568 -2.347599983215332
3.1272778511047363 4.5306396484375 -2.347599983215332
1.101171851158142 5.393881797790527 -2.347599983215332
0.6635693311691284 5.464999675750732 -2.347599983215332
-1.5316308736801147 5.287783145904541 -2.347599983215332
-1.9521459341049194 5.147387504577637 -2.347599983215332
-2.3600096702575684 4.973613262176514 -2.347599983215332
-3.7065160274505615 4.539662837982178 -2.4991888999938965
-4.061105728149414 4.228061199188232 -2.5
-4.3881516456604 3.887568235397339 -2.5
-4.686750411987305 3.5218505859375 -2.5
-5.191005706787109 2.724438428878784 -2.5
-5.560810565948486 1.8564696311950684 -2.5
-5.843505859375 0.4717333912849426 -2.5
5.687023639678955 4.882812390860636e-06 -2.5
5.668581485748291 0.4576123058795929 -2.5
5.613379001617432 0.9122607111930847 -2.5
5.521770000457764 1.3609960079193115 -2.5
5.39434814453125 1.8008984327316284 -2.5
5.231943130493164 2.229130744934082 -2.5
4.806613445281982 3.0395262241363525 -2.5
4.546450138092041 3.4164304733276367 -2.5
4.2561936378479 3.7706687450408936 -2.4996495246887207
3.4437670707702637 4.217846393585205 -2.393677234649658
2.289360284805298 4.824731349945068 -2.347599983215332
1.4857739210128784 5.129492282867432 -2.347599983215332
1.068210482597351 5.232417106628418 -2.347599983215332
-0.21503417193889618 5.336010456085205 -2.347599983215332
-1.485781192779541 5.129497051239014 -2.347599983215332
-1.8937084674835205 4.993300437927246 -2.347599983215332
-2.289365291595459 4.824726581573486 -2.347599983215332
-3.222900390625 4.669169902801514 -2.4940426349639893
-3.5967259407043457 4.405190467834473 -2.5
-3.9395360946655273 4.101499080657959 -2.5
-4.54644775390625 3.416435480117798 -2.5
-4.806613445281982 3.0395116806030273 -2.5
-5.0356125831604 2.642885684967041 -2.5
-5.668576717376709 0.4576123058795929 -2.5
5.359753131866455 1.3210595846176147 -2.5
5.236069202423096 1.7480566501617432 -2.5
5.078432559967041 2.1637158393859863 -2.5
4.887856483459473 2.5653467178344727 -2.5
4.665580749511719 2.9503417015075684 -2.5
4.413049221038818 3.3161914348602295 -2.5
2.5918262004852295 4.489174842834473 -2.347599983215332
1.4421801567077637 4.978989124298096 -2.347599983215332
1.0368627309799194 5.07888650894165 -2.347599983215332
0.20872558653354645 5.179443359375 -2.347599983215332
-0.6248217821121216 5.145849704742432 -2.347599983215332
-1.036865234375 5.078896522521973 -2.347599983215332
-1.4421850442886353 4.978993892669678 -2.347599983215332
-1.8381445407867432 4.8468017578125 -2.347599983215332
-2.6491308212280273 4.588412761688232 -2.399503231048584
-3.1303393840789795 4.535068035125732 -2.495640754699707
-3.8239452838897705 3.981142520904541 -2.5
-4.131894588470459 3.6605420112609863 -2.5
-4.413051605224609 3.3161864280700684 -2.5
-4.665585994720459 2.9503369331359863 -2.5
-4.887861251831055 2.5653369426727295 -2.5
-5.236071586608887 1.7480566501617432 -2.5
-5.448671817779541 0.885498046875 -2.5
-5.50225830078125 0.4441796839237213 -2.5
5.361269474029541 -4.882812390860636e-06 -2.5
5.291842937469482 0.8600146174430847 -2.5
5.205481052398682 1.2830370664596558 -2.5
4.932258129119873 2.101435422897339 -2.5
4.747165203094482 2.491508722305298 -2.5
4.531289100646973 2.865419864654541 -2.5
4.286027908325195 3.2207372188568115 -2.5
4.012966156005859 3.555180549621582 -2.5
3.711015462875366 3.86358380317688 -2.498074769973755
3.3816990852355957 4.141835689544678 -2.4933583736419678
2.911816358566284 4.218491077423096 -2.390221118927002
2.517219066619873 4.359955787658691 -2.347599983215332
2.1582226753234863 4.54836893081665 -2.347599983215332
1.400671362876892 4.835673809051514 -2.347599983215332
1.00701904296875 4.932700157165527 -2.347599983215332
0.6068359017372131 4.997734069824219 -2.347599983215332
-0.6068359017372131 4.997739315032959 -2.347599983215332
-1.007021427154541 4.932700157165527 -2.347599983215332
-1.7852392196655273 4.707280158996582 -2.347599983215332
-2.1582324504852295 4.54836893081665 -2.347599983215332
-2.6407787799835205 4.573955059051514 -2.462829828262329
-3.713879346847534 3.8665525913238525 -2.5
-4.01296854019165 3.55517578125 -2.5
-4.286025524139404 3.2207372188568115 -2.5
-5.085361003875732 1.6977343559265137 -2.5
-5.205481052398682 1.2830272912979126 -2.5
-5.291840553283691 0.8600048422813416 -2.5
