ply
format ascii 1.0
element vertex 885
property float x
property float y
property float z
end_header
18.762441635131836 6.263827800750732 5.300142288208008
9.946455001831055 20.96171760559082 6.216913223266602
7.315976619720459 19.2906436920166 5.5281500816345215
3.6136815547943115 12.475878715515137 3.48030686378479
1.3129003047943115 10.812675476074219 2.918524742126465
-2.0531299114227295 10.056903839111328 2.750322103500366
-2.899609327316284 10.010634422302246 2.792595148086548
-3.7576072216033936 9.907978057861328 2.839345693588257
18.3525333404541 7.819277286529541 5.109034538269043
9.959975242614746 20.990215301513672 5.950225830078125
8.020337104797363 21.147871017456055 5.792529582977295
1.3129003047943115 10.812675476074219 2.789537191390991
0.41737303137779236 10.356943130493164 2.6546361446380615
-1.2726415395736694 10.481181144714355 2.704017162322998
-3.9416699409484863 10.393320083618164 2.8467962741851807
-4.844565391540527 10.209707260131836 2.894209623336792
-6.606371879577637 9.57094669342041 2.9784154891967773
9.950136184692383 20.969482421875 5.67103910446167
8.020337104797363 21.147871017456055 5.526201248168945
3.6136815547943115 12.475869178771973 3.1735429763793945
2.338305711746216 11.45375919342041 2.8562352657318115
1.3129003047943115 10.812675476074219 2.6612792015075684
0.43123045563697815 10.700819969177246 2.6166675090789795
-0.43742185831069946 10.854589462280273 2.654268741607666
-2.252631902694702 11.034140586853027 2.751594066619873
-7.872958660125732 9.642617225646973 3.041543483734131
17.772279739379883 9.327597618103027 4.668982982635498
3.6136815547943115 12.475869178771973 3.0214226245880127
2.338310480117798 11.45375919342041 2.719324827194214
-1.3969091176986694 11.504560470581055 2.6958446502685547
-2.3666698932647705 11.592743873596191 2.7523205280303955
-4.381049633026123 11.551884651184082 2.873957395553589
3.6136913299560547 12.475869178771973 2.8700883388519287
1.3932714462280273 11.47459888458252 2.5541436672210693
0.47187986969947815 11.709657669067383 2.5895609855651855
-2.492182493209839 12.207558631896973 2.7531213760375977
-3.551142454147339 12.259970664978027 2.820420980453491
-4.637490272521973 12.228066444396973 2.889805793762207
-4.972275257110596 8.61221694946289 2.1974260807037354
-8.916098594665527 10.920214653015137 3.115169048309326
5.610981464385986 14.794901847839355 3.31294846534729
-4.918188571929932 12.968202590942383 2.9039056301116943
-6.099931716918945 12.855321884155273 2.9792046546936035
-4.972275257110596 8.61221694946289 2.0821220874786377
-9.558856964111328 11.707460403442383 3.164494037628174
5.610976219177246 14.794921875 3.130336284637451
2.5094189643859863 12.291933059692383 2.481903314590454
1.5315966606140137 12.61385726928711 2.5137593746185303
-1.5988134145736694 13.167430877685547 2.6240789890289307
-3.98956036567688 13.773554801940918 2.836862802505493
-6.573276042938232 13.852861404418945 3.0334246158599854
-4.972275257110596 8.61221694946289 1.9673532247543335
-9.158154487609863 13.267841339111328 3.1893866062164307
5.610986232757568 14.79491138458252 2.9485247135162354
2.6346189975738525 12.905156135559082 2.4543731212615967
1.6119238138198853 13.275390625 2.491933584213257
0.5463769435882568 13.55833911895752 2.5285418033599854
-2.9385986328125 14.39418888092041 2.737567663192749
-4.250161170959473 14.67324161529541 2.8466362953186035
-5.65880823135376 14.92104434967041 2.973660707473755
-4.972275257110596 8.61221694946289 1.8530895709991455
2.775439500808716 13.594999313354492 2.42679500579834
1.6935302019119263 13.947519302368164 2.457324743270874
0.5769628882408142 14.317099571228027 2.5060787200927734
-0.5906005501747131 14.655546188354492 2.5653204917907715
-3.1225879192352295 15.295477867126465 2.7303428649902344
-6.175082683563232 16.282352447509766 3.045689105987549
-4.972275257110596 8.61221694946289 1.7392919063568115
-11.01302719116211 15.955078125 3.3907487392425537
-12.31615161895752 15.0845308303833 3.405956983566284
5.610986232757568 14.79491138458252 2.587092161178589
4.024248123168945 13.893290519714355 2.3649284839630127
2.922187328338623 14.313788414001465 2.3885793685913086
1.7900439500808716 14.742411613464355 2.4280900955200195
-0.6218603253364563 15.431161880493164 2.525047779083252
-3.330820322036743 16.315448760986328 2.7226030826568604
-7.579567909240723 26.167694091796875 4.454288005828857
-9.357157707214355 19.719783782958984 3.5687506198883057
-13.689558029174805 16.76664924621582 3.5390331745147705
-14.91585922241211 15.529052734375 3.5205156803131104
5.61099100112915 14.794931411743164 2.4073822498321533
3.0887744426727295 15.12978458404541 2.3493669033050537
-0.6572021245956421 16.308359146118164 2.4832119941711426
-2.036616086959839 16.773027420043945 2.5706374645233154
-10.093440055847168 26.61421775817871 4.330577373504639
5.700366020202637 15.030595779418945 2.2637689113616943
1.991152286529541 16.398681640625 2.326280355453491
0.6780371069908142 16.825439453125 2.371337890625
6.060248851776123 15.979531288146973 2.213841438293457
3.4627294540405273 16.96156120300293 2.242508888244629
2.105786085128784 17.342754364013672 2.2630674839019775
-4.972275257110596 8.61221694946289 1.2882107496261597
5.0882568359375 17.56671905517578 2.1633381843566895
0.7542626857757568 18.716991424560547 2.2157845497131348
6.920707702636719 18.248388290405273 2.0895543098449707
5.434438228607178 18.76185417175293 2.091310977935791
3.8352439403533936 18.78626823425293 2.0528433322906494
-0.7327001690864563 18.181699752807617 1.9482030868530273
-9.357157707214355 19.719783782958984 2.336933135986328
-4.972275257110596 8.61221694946289 1.0647152662277222
5.80614709854126 20.045156478881836 2.000711679458618
4.158808708190918 20.371200561523438 1.9932597875595093
2.505751848220825 20.636688232421875 1.9929625988006592
-0.7326903939247131 18.18168830871582 1.7444894313812256
6.269096374511719 21.643436431884766 1.9085009098052979
4.467660903930664 21.884033203125 1.8917583227157593
2.6750926971435547 22.031410217285156 1.8797152042388916
-0.7327001690864563 18.181699752807617 1.5412005186080933
-3.248466730117798 26.75348663330078 2.2826008796691895
-7.579567909240723 26.167694091796875 2.307445526123047
8.020346641540527 21.147890090942383 1.6634557247161865
6.831586837768555 23.58542823791504 1.8059332370758057
0.9450732469558716 23.451961517333984 1.7262158393859863
-0.7326903939247131 18.18168830871582 1.3382854461669922
-9.2806396484375 24.471019744873047 1.9248477220535278
-9.357162475585938 19.719783782958984 1.6053189039230347
5.304721355438232 25.98421287536621 1.655228853225708
3.097963809967041 25.514110565185547 1.6041316986083984
-0.7326903939247131 18.18168830871582 1.1357150077819824
-5.496308326721191 26.922685623168945 1.7150102853775024
-9.2806396484375 24.471019744873047 1.6334832906723022
-9.357162475585938 19.71979522705078 1.3623217344284058
-4.972275257110596 8.61221694946289 0.6206805109977722
3.4747509956359863 28.61725616455078 1.4787487983703613
1.1127147674560547 27.611923217773438 1.4175466299057007
-0.7327001690864563 18.181699752807617 0.933414876461029
-3.2484569549560547 26.75346565246582 1.3824408054351807
-5.496298789978027 26.92268943786621 1.4095275402069092
-7.579567909240723 26.167694091796875 1.3974889516830444
-9.28063678741455 24.47101593017578 1.3425213098526
-9.357162475585938 19.71979522705078 1.1196606159210205
-16.46539306640625 23.85417366027832 1.4868316650390625
-15.757792472839355 16.40560531616211 1.1668728590011597
8.020346641540527 21.147890090942383 0.9090451002120972
-5.496308326721191 26.922685623168945 1.1043920516967773
-7.579567909240723 26.167694091796875 1.0949578285217285
-9.2806396484375 24.471019744873047 1.051890254020691
-16.46539306640625 23.85417366027832 1.1649600267410278
-16.597126007080078 20.32777214050293 1.0547442436218262
-10.16317367553711 10.580976486206055 0.5896661281585693
-4.972275257110596 8.61221694946289 0.28935760259628296
-6.824531078338623 9.887011528015137 0.3495599329471588
-7.8416748046875 9.6043062210083 0.36077240109443665
-9.955009460449219 10.364267349243164 0.4181469678878784
8.020341873168945 21.14788055419922 0.40732908248901367
-0.7327001690864563 18.181699752807617 0.32770416140556335
-6.048774242401123 15.949296951293945 0.3071972727775574
-7.943700790405273 16.740976333618164 0.3337121605873108
-4.972275257110596 8.61221694946289 0.1790924072265625
-6.443637371063232 9.335185050964355 0.20428068935871124
-9.955009460449219 10.3642578125 0.25880706310272217
8.020341873168945 21.147890090942383 0.15664947032928467
-0.7326903939247131 18.18168830871582 0.1260272115468979
-4.578188419342041 15.805731773376465 0.1139691099524498
-6.443642616271973 9.335185050964355 0.07856140285730362
-7.84166955947876 9.6043062210083 0.08587463200092316
8.020346641540527 21.147890090942383 -0.09399383515119553
-0.7326903939247131 18.18168830871582 -0.07561828196048737
-1.9489550590515137 9.546610832214355 -0.04049087315797806
-4.377880573272705 9.226181030273438 -0.04243835434317589
-9.955009460449219 10.364248275756836 -0.059720151126384735
-0.4031103551387787 10.00307559967041 -0.15255233645439148
-1.1838672161102295 9.749990463256836 -0.1496630758047104
-3.5225682258605957 9.28823184967041 -0.15137267112731934
-4.377880573272705 9.226181030273438 -0.15561461448669434
-6.443637371063232 9.335185050964355 -0.1728481948375702
0.4173681437969208 10.356943130493164 -0.27286285161972046
-0.4031103551387787 10.00307559967041 -0.26353880763053894
-1.1838672161102295 9.749990463256836 -0.2585487365722656
-3.5225682258605957 9.28823184967041 -0.26150205731391907
-4.972275257110596 8.61221694946289 -0.26178252696990967
-7.841684341430664 9.6043062210083 -0.3263954222202301
-9.955009460449219 10.364248275756836 -0.37830275297164917
8.020346641540527 21.147890090942383 -0.8462945222854614
3.6136815547943115 12.475858688354492 -0.486001580953598
2.338305711746216 11.453749656677246 -0.43740859627723694
1.3129003047943115 10.812675476074219 -0.4075530767440796
-0.4031152129173279 10.00308609008789 -0.3745918273925781
-1.1838672161102295 9.749990463256836 -0.3674980103969574
-2.718017578125 9.38370132446289 -0.3655451834201813
-3.5225682258605957 9.28823184967041 -0.3716958463191986
-6.443637371063232 9.335185050964355 -0.42442914843559265
-7.84166955947876 9.6043062210083 -0.463936448097229
3.6136767864227295 12.475858688354492 -0.6302022933959961
1.3129003047943115 10.812675476074219 -0.528477132320404
0.4173681437969208 10.356943130493164 -0.502920389175415
-1.183862328529358 9.749979972839355 -0.4765376150608063
-1.9489550590515137 9.546610832214355 -0.4727499186992645
-3.5225682258605957 9.28823184967041 -0.48198118805885315
-9.955009460449219 10.3642578125 -0.697262704372406
27.65237808227539 9.231719017028809 -1.7384700775146484
5.610981464385986 14.794901847839355 -0.9435885548591614
3.6136815547943115 12.475858688354492 -0.7745585441589355
2.338310480117798 11.453749656677246 -0.6971139311790466
-1.1838672161102295 9.749990463256836 -0.5856947302818298
-1.9489550590515137 9.546610832214355 -0.5810394287109375
-2.718017578125 9.38370132446289 -0.5825825333595276
-4.377880573272705 9.226181030273438 -0.6089861989021301
-4.972275257110596 8.61221694946289 -0.5930241346359253
-6.443637371063232 9.335185050964355 -0.6764277219772339
5.610981464385986 14.794901847839355 -1.1196800470352173
3.6136767864227295 12.475858688354492 -0.9191052317619324
1.3129003047943115 10.812675476074219 -0.7707464694976807
-0.4031103551387787 10.00307559967041 -0.7084129452705383
-1.9489599466323853 9.546610832214355 -0.6894723176956177
-2.718017578125 9.38370132446289 -0.6913033723831177
-4.377880573272705 9.226181030273438 -0.7226342558860779
-4.972275257110596 8.61221694946289 -0.7036930918693542
-6.443637371063232 9.335185050964355 -0.8026620149612427
-7.84166955947876 9.6043062210083 -0.8773766756057739
-9.955018997192383 10.364267349243164 -1.016908884048462
27.712005615234375 9.251649856567383 -2.392993927001953
25.37834358215332 13.319589614868164 -2.347599983215332
21.453304290771484 19.005985260009766 -2.347599983215332
18.126737594604492 22.20122528076172 -2.347599983215332
16.281484603881836 23.587812423706055 -2.347599983215332
14.33065414428711 24.821414947509766 -2.347599983215332
3.6136767864227295 12.475858688354492 -1.0638799667358398
2.338310480117798 11.453749656677246 -0.9575077891349792
0.41737791895866394 10.356943130493164 -0.8490081429481506
-0.4031103551387787 10.00307559967041 -0.8199999928474426
-1.1838672161102295 9.749990463256836 -0.804469883441925
-2.718017578125 9.38370132446289 -0.800195574760437
-4.377880573272705 9.226181030273438 -0.8364611864089966
-4.972275257110596 8.61221694946289 -0.8145423531532288
-6.443637371063232 9.335185050964355 -0.9290949702262878
-21.453310012817383 19.005985260009766 -2.347599983215332
26.860029220581055 0.0003613281296566129 -2.5
26.77305030822754 2.1613476276397705 -2.5
26.5123233795166 4.308681488037109 -2.5
14.840951919555664 3.6579785346984863 -1.4226559400558472
24.710790634155273 10.528300285339355 -2.5
22.33365249633789 11.72159194946289 -2.347599983215332
18.879501342773438 16.72579002380371 -2.347599983215332
17.472415924072266 18.190732955932617 -2.347599983215332
15.951976776123047 19.53766632080078 -2.347599983215332
10.812811851501465 22.787519454956055 -2.347599983215332
3.6136767864227295 12.475858688354492 -1.2089169025421143
-0.4031103551387787 10.00307559967041 -0.9317893981933594
-1.9489599466323853 9.546610832214355 -0.9068762063980103
-2.718017578125 9.38370132446289 -0.9092844724655151
-4.377880573272705 9.226181030273438 -0.9504945278167725
-4.972275257110596 8.61221694946289 -0.9255828857421875
-6.443642616271973 9.335185050964355 -1.0557568073272705
-7.8416748046875 9.6043062210083 -1.154030680656433
-20.164159774780273 15.152372360229492 -2.347599983215332
-24.71079444885254 10.528261184692383 -2.5
-25.477840423583984 8.505722045898438 -2.5
23.89981460571289 1.9294042587280273 -2.5
23.667064666748047 3.846269369125366 -2.5
19.936830520629883 10.4636812210083 -2.347599983215332
18.000165939331055 13.52626895904541 -2.347599983215332
5.610976219177246 14.794921875 -1.6497893333435059
2.338310480117798 11.453749656677246 -1.2188477516174316
-1.1838672161102295 9.749990463256836 -1.0240401029586792
-1.9489550590515137 9.546610832214355 -1.015899658203125
-2.718017578125 9.38370132446289 -1.0185989141464233
-3.5225682258605957 9.28823184967041 -1.0357377529144287
-4.972275257110596 8.61221694946289 -1.036858320236206
-6.443642616271973 9.335195541381836 -1.1826801300048828
-7.8416748046875 9.6043062210083 -1.2927683591842651
-16.8533878326416 14.930790901184082 -2.347599983215332
-19.03022003173828 12.033954620361328 -2.347599983215332
-22.058876037597656 9.398388862609863 -2.5
-22.743602752685547 7.592909812927246 -2.5
-23.280853271484375 5.738193035125732 -2.5
-23.89981460571289 1.9293651580810547 -2.5
21.648895263671875 9.765624781721272e-06 -2.5
14.641127586364746 3.608710765838623 -1.7413480281829834
20.534765243530273 6.855517387390137 -2.5
19.916542053222656 8.4856538772583 -2.5
17.891586303710938 9.39022445678711 -2.333383560180664
14.082514762878418 14.661455154418945 -2.347599983215332
12.857094764709473 15.747089385986328 -2.347599983215332
11.5482759475708 16.730594635009766 -2.347599983215332
10.164594650268555 17.6055850982666 -2.347599983215332
8.714950561523438 18.366376876831055 -2.347599983215332
5.610981464385986 14.794901847839355 -1.8272486925125122
1.3129003047943115 10.812675476074219 -1.2578115463256836
-1.1838672161102295 9.749990463256836 -1.1341915130615234
-2.718017578125 9.38370132446289 -1.1281652450561523
-3.5225682258605957 9.28823184967041 -1.147147536277771
-7.8416748046875 9.6043062210083 -1.4318256378173828
-9.955009460449219 10.3642578125 -1.659532070159912
-15.216601371765137 13.480741500854492 -2.347599983215332
-16.25202178955078 12.212577819824219 -2.347599983215332
-19.16915512084961 10.060712814331055 -2.5
-20.534765243530273 6.855478286743164 -2.5
-21.36854362487793 3.472724437713623 -2.5
-21.578685760498047 1.7419921159744263 -2.5
19.72799301147461 9.765624781721272e-06 -2.5
18.14933967590332 7.732714653015137 -2.5
16.403398513793945 8.609179496765137 -2.347599983215332
14.809965133666992 11.128984451293945 -2.347599983215332
12.83297348022461 13.360536575317383 -2.347599983215332
10.523598670959473 15.24609375 -2.347599983215332
7.94167947769165 16.73674774169922 -2.347599983215332
3.6136717796325684 12.475869178771973 -1.6459710597991943
0.4173681437969208 10.356943130493164 -1.3135344982147217
-1.1838672161102295 9.749990463256836 -1.2446274757385254
-3.5225682258605957 9.28823184967041 -1.2588447332382202
-4.972275257110596 8.61221694946289 -1.2602086067199707
-6.443637371063232 9.335185050964355 -1.4374396800994873
-9.9550142288208 10.364267349243164 -1.8211212158203125
-13.866433143615723 12.284599304199219 -2.347599983215332
-18.712718963623047 6.247206687927246 -2.5
-19.154720306396484 4.721200942993164 -2.5
-19.66400909423828 1.5874218940734863 -2.5
18.11605453491211 1.9531249563442543e-05 -2.5
18.05731964111328 1.4577441215515137 -2.5
17.881460189819336 2.9060254096984863 -2.5
14.624853134155273 3.6046972274780273 -2.078617572784424
17.183740615844727 5.736786842346191 -2.5
16.66639518737793 7.100888729095459 -2.5
14.378114700317383 9.092177391052246 -2.347599983215332
13.599872589111328 10.219657897949219 -2.347599983215332
12.733437538146973 11.280839920043945 -2.347599983215332
10.7589693069458 13.177343368530273 -2.347599983215332
5.610981464385986 14.794921875 -2.1835832595825195
3.6136717796325684 12.475869178771973 -1.7924262285232544
2.338305711746216 11.453749656677246 -1.6132100820541382
0.4173681437969208 10.356943130493164 -1.4304102659225464
-0.4031103551387787 10.00307559967041 -1.3815374374389648
-1.1838672161102295 9.749990463256836 -1.3553717136383057
-1.9489599466323853 9.546610832214355 -1.3445994853973389
-2.718017578125 9.38370132446289 -1.3481703996658325
-4.377880573272705 9.226181030273438 -1.4092708826065063
-6.443637371063232 9.335185050964355 -1.5653406381607056
-7.84166955947876 9.6043062210083 -1.7110482454299927
-12.733437538146973 11.28084945678711 -2.347599983215332
-13.59988784790039 10.21962833404541 -2.347599983215332
-14.378129959106445 9.092147827148438 -2.347599983215332
-16.017948150634766 8.406835556030273 -2.4964113235473633
-17.183740615844727 5.736767292022705 -2.5
16.689462661743164 1.347314476966858 -2.5
16.25721549987793 4.007050514221191 -2.5
15.40392017364502 6.562997817993164 -2.5
14.791420936584473 7.763144493103027 -2.494192361831665
13.288969039916992 8.403447151184082 -2.347599983215332
12.569686889648438 9.445517539978027 -2.347599983215332
11.768877029418945 10.426298141479492 -2.347599983215332
5.575409889221191 14.701278686523438 -2.347599983215332
-2.718017578125 9.38370132446289 -1.4586646556854248
-4.377880573272705 9.226181030273438 -1.5247728824615479
-6.443642616271973 9.335185050964355 -1.6936335563659668
15.510629653930664 1.2521483898162842 -2.5
13.758920669555664 7.221250057220459 -2.4964189529418945
11.681845664978027 8.778349876403809 -2.347599983215332
10.1224365234375 10.538544654846191 -2.347599983215332
8.30081558227539 12.025830268859863 -2.347599983215332
7.306249618530273 12.65477466583252 -2.347599983215332
5.18166971206665 13.6628999710083 -2.347599983215332
2.338310480117798 11.453749656677246 -1.8780823945999146
1.3129003047943115 10.812665939331055 -1.7498912811279297
0.41737303137779236 10.356943130493164 -1.6652685403823853
-1.9489550590515137 9.546610832214355 -1.5653681755065918
-2.718017578125 9.38370132446289 -1.5695258378982544
-4.377880573272705 9.226181030273438 -1.6406583786010742
-4.972275257110596 8.61221694946289 -1.5976613759994507
-7.8416748046875 9.6043062210083 -1.9919838905334473
-9.9550142288208 10.364267349243164 -2.308773994445801
-11.681864738464355 8.7783203125 -2.347599983215332
-12.350326538085938 7.809863090515137 -2.347599983215332
-13.753588676452637 7.218417644500732 -2.4954495429992676
-14.315888404846191 6.099413871765137 -2.5
-15.10891056060791 3.724003791809082 -2.5
14.5310640335083 0.0 -2.5
14.34288501739502 2.330937385559082 -2.5
14.108818054199219 3.4774999618530273 -2.5
10.213607788085938 9.048476219177246 -2.347599983215332
7.751381874084473 11.229814529418945 -2.347599983215332
6.82262659072876 11.817118644714355 -2.347599983215332
4.838681697845459 12.758515357971191 -2.347599983215332
3.6136767864227295 12.475858688354492 -2.2346417903900146
2.338315486907959 11.453749656677246 -2.0112102031707764
0.41737303137779236 10.356943130493164 -1.7833107709884644
-3.5225682258605957 9.28823184967041 -1.7090619802474976
-4.377880573272705 9.226181030273438 -1.7569564580917358
-4.972275257110596 8.61221694946289 -1.710913062095642
-6.443642616271973 9.335195541381836 -1.9515306949615479
-14.342875480651855 2.330947160720825 -2.5
-14.483935356140137 1.1692675352096558 -2.5
13.6256685256958 9.765624781721272e-06 -2.5
13.229745864868164 3.2608397006988525 -2.5
12.924452781677246 4.314824104309082 -2.5
12.535341262817383 5.340810298919678 -2.5
10.814252853393555 6.838525295257568 -2.347599983215332
9.577231407165527 8.4846773147583 -2.347599983215332
8.863451957702637 9.227802276611328 -2.347599983215332
7.268417835235596 10.53011703491211 -2.347599983215332
5.485141277313232 11.559687614440918 -2.347599983215332
3.559804677963257 12.289873123168945 -2.347599983215332
-0.4031103551387787 10.00307559967041 -1.8368271589279175
-1.9489599466323853 9.546610832214355 -1.7877166271209717
-2.718017578125 9.38370132446289 -1.7924641370773315
-3.5225682258605957 9.28823184967041 -1.8226238489151
-4.972275257110596 8.61221694946289 -1.8245959281921387
-6.443642616271973 9.335185050964355 -2.081202983856201
-7.8416748046875 9.6043062210083 -2.2749292850494385
-8.863447189331055 9.227812767028809 -2.347599983215332
-9.577226638793945 8.484686851501465 -2.347599983215332
12.781869888305664 1.0318456888198853 -2.5
12.657392501831055 2.057021379470825 -2.5
11.354594230651855 5.95934534072876 -2.5
6.02086877822876 10.428446769714355 -2.347599983215332
5.162201881408691 10.879091262817383 -2.347599983215332
0.4173681437969208 10.356943130493164 -2.0207815170288086
-1.1838672161102295 9.749990463256836 -1.9147731065750122
-2.718017578125 9.38370132446289 -1.9045988321304321
-3.5225682258605957 9.28823184967041 -1.9366455078125
-4.377880573272705 9.226181030273438 -1.9909179210662842
-7.615736961364746 9.327588081359863 -2.347599983215332
-9.013359069824219 7.985146522521973 -2.347599983215332
-9.626679420471191 7.233974456787109 -2.347599983215332
-10.177557945251465 6.435888290405273 -2.347599983215332
-11.347016334533691 5.955361366271973 -2.498328447341919
-12.450824737548828 3.068837881088257 -2.5
-12.65738296508789 2.0570311546325684 -2.5
12.068256378173828 0.9742480516433716 -2.5
11.950732231140137 1.9421581029891968 -2.5
11.138667106628418 4.745741844177246 -2.5
10.720673561096191 5.626650333404541 -2.5
9.089208602905273 6.83010721206665 -2.347599983215332
7.875893592834473 8.199658393859863 -2.347599983215332
4.031669616699219 10.630605697631836 -2.347599983215332
3.1631786823272705 10.920546531677246 -2.347599983215332
1.3129003047943115 10.812675476074219 -2.249035358428955
-0.4031103551387787 10.00307559967041 -2.0671470165252686
-1.9489599466323853 9.546610832214355 -2.0118777751922607
-2.718017578125 9.38369083404541 -2.017221212387085
-3.5225682258605957 9.28823184967041 -2.0511622428894043
-4.377880573272705 9.226181030273438 -2.1086440086364746
-4.972275257110596 8.61221694946289 -2.05338191986084
-6.443637371063232 9.335185050964355 -2.342165231704712
-7.190556526184082 8.806825637817383 -2.347599983215332
-7.875888347625732 8.199667930603027 -2.347599983215332
-8.510136604309082 7.539326190948486 -2.347599983215332
-11.484418869018555 3.83404278755188 -2.5
-11.755693435668945 2.897509813308716 -2.5
-12.068265914916992 0.9742285013198853 -2.5
11.427348136901855 0.92249995470047 -2.5
11.316059112548828 1.8390429019927979 -2.5
11.131386756896973 2.74365234375 -2.5
10.547123908996582 4.493700981140137 -2.5
9.099013328552246 5.753867149353027 -2.347599983215332
8.606508255004883 6.467372894287109 -2.347599983215332
6.115581035614014 8.859941482543945 -2.347599983215332
5.382826805114746 9.323290824890137 -2.347599983215332
4.615151405334473 9.726210594177246 -2.347599983215332
3.817558526992798 10.066035270690918 -2.347599983215332
2.1534178256988525 10.548066139221191 -2.347599983215332
1.297646403312683 10.687138557434082 -2.347599983215332
-0.4031152129173279 10.00308609008789 -2.183084011077881
-1.9489550590515137 9.546610832214355 -2.1247153282165527
-4.377880573272705 9.226181030273438 -2.226909875869751
-6.115585803985596 8.859941482543945 -2.347599983215332
-6.808681488037109 8.339111328125 -2.347599983215332
-8.606513023376465 6.467372894287109 -2.347599983215332
-9.09902286529541 5.753857135772705 -2.347599983215332
-10.151323318481445 5.327802658081055 -2.5
-10.547119140625 4.493691444396973 -2.5
-11.131376266479492 2.7436327934265137 -2.5
-11.316054344177246 1.8390331268310547 -2.5
-11.427338600158691 0.9224902391433716 -2.5
10.567445755004883 2.604628801345825 -2.5
10.323593139648438 3.446523427963257 -2.5
10.01278305053711 4.266035079956055 -2.5
9.637041091918945 5.057909965515137 -2.5
8.96158218383789 5.666953086853027 -2.435529947280884
8.170488357543945 6.139716625213623 -2.347599983215332
4.381337642669678 9.233466148376465 -2.347599983215332
2.84344220161438 9.8167085647583 -2.347599983215332
2.0443115234375 10.013671875 -2.347599983215332
-0.4031103551387787 10.00307559967041 -2.29958438873291
-1.9489599466323853 9.546610832214355 -2.2381021976470947
-2.718017578125 9.38370132446289 -2.244046211242676
-7.649950981140137 6.777245998382568 -2.347599983215332
-8.170488357543945 6.139707088470459 -2.347599983215332
-8.638041496276855 5.462363243103027 -2.347599983215332
-9.637041091918945 5.057900428771973 -2.5
-10.567450523376465 2.6046385765075684 -2.5
10.356351852416992 9.765624781721272e-06 -2.5
10.222250938415527 1.6612695455551147 -2.5
10.055424690246582 2.4784374237060547 -2.5
9.823383331298828 3.279531240463257 -2.5
9.527631759643555 4.059345722198486 -2.5
9.170097351074219 4.812822341918945 -2.5
8.729902267456055 5.520449161529541 -2.493377208709717
4.862524509429932 8.422119140625 -2.347599983215332
2.7056689262390137 9.341073989868164 -2.347599983215332
1.9452636241912842 9.528486251831055 -2.347599983215332
1.1722265481948853 9.654120445251465 -2.347599983215332
-1.1722216606140137 9.654120445251465 -2.347599983215332
-2.7056736946105957 9.341064453125 -2.347599983215332
-4.169043064117432 8.786073684692383 -2.347599983215332
-4.862514495849609 8.422119140625 -2.347599983215332
-5.524453163146973 8.003524780273438 -2.347599983215332
-6.150551795959473 7.533056259155273 -2.347599983215332
-7.774609088897705 5.842236042022705 -2.347599983215332
-8.505205154418945 5.378359317779541 -2.4291980266571045
-9.527636528015137 4.059326171875 -2.5
-9.823378562927246 3.2795214653015137 -2.5
9.875311851501465 0.0 -2.5
8.331128120422363 5.268290996551514 -2.495393991470337
6.941166877746582 6.149345397949219 -2.347599983215332
6.423847675323486 6.687919616699219 -2.347599983215332
5.267836570739746 7.631777286529541 -2.347599983215332
4.636664867401123 8.03090763092041 -2.347599983215332
3.975395441055298 8.377959251403809 -2.347599983215332
2.5799951553344727 8.907177925109863 -2.347599983215332
1.1177783012390137 9.205683708190918 -2.347599983215332
-0.37339842319488525 9.26578140258789 -2.347599983215332
-1.1177685260772705 9.205693244934082 -2.347599983215332
-3.97540020942688 8.377968788146973 -2.347599983215332
-6.941166877746582 6.149335861206055 -2.347599983215332
-7.413476467132568 5.570859432220459 -2.347599983215332
-8.3239107131958 5.263720512390137 -2.4932329654693604
-8.744150161743164 4.589257717132568 -2.5
-9.843280792236328 0.7946093678474426 -2.5
9.43460464477539 0.0 -2.5
9.404013633728027 0.75916987657547 -2.5
9.312431335449219 1.5134081840515137 -2.5
8.94906234741211 2.9876365661621094 -2.5
8.679633140563965 3.6980369091033936 -2.5
7.965742111206055 5.037236213684082 -2.4974019527435303
7.0826416015625 5.322265625 -2.347599983215332
5.603134632110596 6.86257791519165 -2.347599983215332
5.032748699188232 7.291191101074219 -2.347599983215332
4.429740905761719 7.672509670257568 -2.347599983215332
3.7979979515075684 8.004072189331055 -2.347599983215332
3.141611337661743 8.283740043640137 -2.347599983215332
1.7721288204193115 8.680419921875 -2.347599983215332
-0.3567284941673279 8.852274894714355 -2.347599983215332
-1.7721142768859863 8.680429458618164 -2.347599983215332
-3.141606330871582 8.283740043640137 -2.347599983215332
-3.7979931831359863 8.004091262817383 -2.347599983215332
-5.032758712768555 7.291181564331055 -2.347599983215332
-6.137167930603027 6.389462947845459 -2.347599983215332
-7.959165096282959 5.033066272735596 -2.495339870452881
-8.353930473327637 4.384462833404541 -2.5
-8.679643630981445 3.6980369091033936 -2.5
-9.312421798706055 1.5134179592132568 -2.5
9.029287338256836 9.765624781721272e-06 -2.5
8.912358283996582 1.448388695716858 -2.5
8.7669038772583 2.160839796066284 -2.5
8.306753158569336 3.5391697883605957 -2.5
7.995028972625732 4.196103572845459 -2.5
6.778354167938232 5.093603610992432 -2.347599983215332
6.346513748168945 5.622509479522705 -2.347599983215332
5.873515605926514 6.114970684051514 -2.347599983215332
4.239423751831055 7.342900276184082 -2.347599983215332
3.634829044342041 7.660214900970459 -2.347599983215332
1.6959911584854126 8.307499885559082 -2.347599983215332
1.022011637687683 8.417040824890137 -2.347599983215332
0.3414062559604645 8.471962928771973 -2.347599983215332
-3.006640672683716 7.927861213684082 -2.347599983215332
-4.816537857055664 6.977939128875732 -2.347599983215332
-5.873505592346191 6.114960670471191 -2.347599983215332
-6.346513748168945 5.622509479522705 -2.347599983215332
-7.623339653015137 4.820693016052246 -2.497342348098755
-8.306753158569336 3.5391600131988525 -2.5
-8.56459903717041 2.859267473220825 -2.5
-8.766908645629883 2.1608495712280273 -2.5
-8.912343978881836 1.448388695716858 -2.5
8.655156135559082 0.0 -2.5
8.543075561523438 1.3883886337280273 -2.5
8.403656959533691 2.0713086128234863 -2.5
7.962568283081055 3.392529249191284 -2.5
7.315248966217041 4.625878810882568 -2.5
6.696215629577637 5.031884670257568 -2.4193978309631348
6.083549499511719 5.389550685882568 -2.347599983215332
5.630146503448486 5.861591815948486 -2.347599983215332
4.616962909698486 6.688827991485596 -2.347599983215332
3.4842138290405273 7.342841625213623 -2.347599983215332
2.261225461959839 7.806650161743164 -2.347599983215332
1.6257177591323853 7.963261604309082 -2.347599983215332
0.9796728491783142 8.06827163696289 -2.347599983215332
0.3272656202316284 8.12093734741211 -2.347599983215332
-0.32725584506988525 8.120946884155273 -2.347599983215332
-2.261220693588257 7.806640625 -2.347599983215332
-2.8820555210113525 7.599374771118164 -2.347599983215332
-3.4842138290405273 7.342822074890137 -2.347599983215332
-4.063769340515137 7.038642406463623 -2.347599983215332
-5.140219688415527 6.295615196228027 -2.347599983215332
-5.630141258239746 5.86160135269165 -2.347599983215332
-7.663769245147705 4.022236347198486 -2.5
-7.962573051452637 3.392509698867798 -2.5
-8.209726333618164 2.740790843963623 -2.5
-8.403642654418945 2.0713086128234863 -2.5
-8.627079963684082 0.6964355111122131 -2.5
8.308686256408691 0.0 -2.5
8.281733512878418 0.6685644388198853 -2.5
7.881083965301514 2.6310839653015137 -2.5
7.643813133239746 3.256718635559082 -2.5
7.356972694396973 3.8612401485443115 -2.5
7.022411823272705 4.440693378448486 -2.5
6.623017311096191 4.976884841918945 -2.492737293243408
4.432138442993164 6.421064376831055 -2.347599983215332
3.9010937213897705 6.756875038146973 -2.347599983215332
2.7666943073272705 7.295156002044678 -2.347599983215332
2.170707941055298 7.494130611419678 -2.347599983215332
1.560644507408142 7.644492149353027 -2.347599983215332
-1.560634732246399 7.644492149353027 -2.347599983215332
-2.170703172683716 7.494130611419678 -2.347599983215332
-3.9010839462280273 6.756884574890137 -2.347599983215332
-7.022411823272705 4.440712928771973 -2.5
-7.356972694396973 3.861220598220825 -2.5
-7.881083965301514 2.6310839653015137 -2.5
-8.067235946655273 1.9883984327316284 -2.5
-8.20108413696289 1.3328124284744263 -2.5
7.986821174621582 9.765624781721272e-06 -2.5
7.960922718048096 0.6426659822463989 -2.5
7.754731178283691 1.9113671779632568 -2.5
7.575795650482178 2.5291600227355957 -2.5
7.347709655761719 3.130566358566284 -2.5
7.071972370147705 3.711660146713257 -2.5
6.750380516052246 4.268691539764404 -2.5
4.260454177856445 6.172324180603027 -2.347599983215332
3.215165853500366 6.775820255279541 -2.347599983215332
2.6595213413238525 7.012548446655273 -2.347599983215332
2.086616277694702 7.203818321228027 -2.347599983215332
1.5001903772354126 7.348369121551514 -2.347599983215332
-0.9040185213088989 7.445253849029541 -2.347599983215332
-2.6595115661621094 7.01256799697876 -2.347599983215332
-3.2151708602905273 6.775810241699219 -2.347599983215332
-3.7499656677246094 6.495126724243164 -2.347599983215332
-4.260454177856445 6.172294616699219 -2.347599983215332
-4.743300437927246 5.809482097625732 -2.347599983215332
-5.195390701293945 5.408974647521973 -2.347599983215332
-5.613779067993164 4.973369121551514 -2.347599983215332
-6.750375747680664 4.268671989440918 -2.5
-7.347709655761719 3.130546808242798 -2.5
-7.883388519287109 1.2811717987060547 -2.5
-7.960903167724609 0.6426464915275574 -2.5
7.686972618103027 0.0 -2.5
7.291371822357178 2.434208869934082 -2.5
6.806479454040527 3.5723142623901367 -2.5
6.496953010559082 4.108417987823486 -2.5
6.137778282165527 4.612236022949219 -2.4969427585601807
5.000341892242432 5.205898284912109 -2.347599983215332
4.100497722625732 5.940595626831055 -2.347599983215332
3.609194278717041 6.251279354095459 -2.347599983215332
2.5596728324890137 6.749277114868164 -2.347599983215332
2.0082762241363525 6.93337869644165 -2.347599983215332
0.2906543016433716 7.212509632110596 -2.347599983215332
-0.2906494140625 7.212509632110596 -2.347599983215332
-1.4438623189926147 7.072490215301514 -2.347599983215332
-2.0082762241363525 6.933369159698486 -2.347599983215332
-2.5596678256988525 6.749277114868164 -2.347599983215332
-6.49694299697876 4.108417987823486 -2.5
-6.806474685668945 3.5723047256469727 -2.5
-7.071850299835205 3.013017416000366 -2.5
-7.587416648864746 1.2330760955810547 -2.5
-7.662031173706055 0.6185449361801147 -2.5
7.406879901885986 0.0 -2.5
7.382856369018555 0.595996081829071 -2.5
7.025693416595459 2.345517635345459 -2.5
6.814174652099609 2.9032323360443115 -2.5
6.558461666107178 3.442138671875 -2.5
6.260219573974609 3.9587109088897705 -2.5
5.918735027313232 4.447646617889404 -2.4988861083984375
3.9510886669158936 5.72415018081665 -2.347599983215332
3.4776806831359863 6.023505687713623 -2.347599983215332
2.4664111137390137 6.503368854522705 -2.347599983215332
0.2800634801387787 6.949716567993164 -2.347599983215332
-0.8383691310882568 6.904638290405273 -2.347599983215332
-1.9350926876068115 6.680742263793945 -2.347599983215332
-2.981703996658325 6.283798694610596 -2.347599983215332
-4.398876667022705 5.387636661529541 -2.347599983215332
-6.558461666107178 3.442128896713257 -2.5
-7.310952186584473 1.1881444454193115 -2.5
-7.382856369018555 0.595996081829071 -2.5
7.144589900970459 9.765624781721272e-06 -2.5
7.121420860290527 0.574902355670929 -2.5
7.052070140838623 1.1460644006729126 -2.5
6.936986923217773 1.7097948789596558 -2.5
6.776908874511719 2.262451171875 -2.5
6.5728759765625 2.800429582595825 -2.5
6.326220512390137 3.320253849029541 -2.5
5.711689472198486 4.292060375213623 -2.5
4.243114948272705 5.196855545043945 -2.347599983215332
3.3545360565185547 5.810204982757568 -2.347599983215332
2.8761279582977295 6.061288833618164 -2.347599983215332
0.8086816072463989 6.660146236419678 -2.347599983215332
0.2701416015625 6.703593730926514 -2.347599983215332
-0.8086816072463989 6.660136699676514 -2.347599983215332
-1.8665771484375 6.444169998168945 -2.347599983215332
-2.8761229515075684 6.061288833618164 -2.347599983215332
-3.8111767768859863 5.521435260772705 -2.347599983215332
-4.243110179901123 5.196865081787109 -2.347599983215332
-4.647519588470459 4.838573932647705 -2.347599983215332
-5.7099609375 4.290751934051514 -2.499241590499878
-6.326215744018555 3.320244073867798 -2.5
-6.776899337768555 2.262451171875 -2.5
-7.052060604095459 1.1460741758346558 -2.5
-7.121416091918945 0.5748925805091858 -2.5
6.898412704467773 9.765624781721272e-06 -2.5
6.876044750213623 0.5550878643989563 -2.5
6.809091567993164 1.1065722703933716 -2.5
6.697958946228027 1.65087890625 -2.5
6.543398380279541 2.184501886367798 -2.5
6.346396446228027 2.7039549350738525 -2.5
6.108237266540527 3.2058398723602295 -2.5
4.487387657165527 4.671855449676514 -2.347599983215332
4.096913814544678 5.017792701721191 -2.347599983215332
2.2970945835113525 6.056904315948486 -2.347599983215332
1.2957372665405273 6.346972465515137 -2.347599983215332
0.2608398497104645 6.472626686096191 -2.347599983215332
-0.2608349621295929 6.472626686096191 -2.347599983215332
-0.7808203101158142 6.430654048919678 -2.347599983215332
-1.2957470417022705 6.346962928771973 -2.347599983215332
-1.8022558689117432 6.222128868103027 -2.347599983215332
-2.7770166397094727 5.852441310882568 -2.347599983215332
-3.6798534393310547 5.331181526184082 -2.347599983215332
-4.487382888793945 4.671864986419678 -2.347599983215332
-5.514882564544678 4.144160270690918 -2.5
-5.830468654632568 3.686962842941284 -2.5
-6.543393611907959 2.184501886367798 -2.5
-6.876035213470459 0.5550878643989563 -2.5
6.666850566864014 -9.765624781721272e-06 -2.5
6.645229339599609 0.5364648103713989 -2.5
6.580517292022705 1.069433569908142 -2.5
6.323754787445068 2.111152410507202 -2.5
5.9031982421875 3.0982322692871094 -2.5
5.634746074676514 3.5632030963897705 -2.5
2.2199902534484863 5.853603363037109 -2.347599983215332
1.741762638092041 6.013251781463623 -2.347599983215332
1.2522460222244263 6.133915901184082 -2.347599983215332
0.2520849406719208 6.255351543426514 -2.347599983215332
-0.2520849406719208 6.255351543426514 -2.347599983215332
-0.7546044588088989 6.214785099029541 -2.347599983215332
-1.2522411346435547 6.133915901184082 -2.347599983215332
-3.1302196979522705 5.421689510345459 -2.347599983215332
-3.556328058242798 5.152226448059082 -2.347599983215332
-3.9593799114227295 4.849365234375 -2.347599983215332
-5.329760551452637 4.005048751831055 -2.5
-5.634746074676514 3.5631933212280273 -2.5
-6.133354187011719 2.613154172897339 -2.5
-6.473110198974609 1.5954785346984863 -2.5
-6.645224571228027 0.5364550948143005 -2.5
6.427656173706055 0.5188964605331421 -2.5
6.116703987121582 2.042050838470459 -2.5
4.823652267456055 4.273378849029541 -2.4983572959899902
4.393671989440918 4.574296951293945 -2.458919048309326
3.8297412395477295 4.690595626831055 -2.347599983215332
3.439892530441284 4.983534812927246 -2.347599983215332
2.1472997665405273 5.661943435668945 -2.347599983215332
1.2112499475479126 5.933085918426514 -2.347599983215332
0.24382323026657104 6.050537109375 -2.347599983215332
-2.5959277153015137 5.470800876617432 -2.347599983215332
-3.0277342796325684 5.24416971206665 -2.347599983215332
-3.439892530441284 4.983534812927246 -2.347599983215332
-4.821176528930664 4.271181583404541 -2.497079610824585
-5.155258655548096 3.873906135559082 -2.5
-5.450258731842041 3.446523427963257 -2.5
-5.709921836853027 2.9967968463897705 -2.5
-5.932543754577637 2.5276074409484863 -2.5
-6.11669921875 2.042041063308716 -2.5
-6.365053653717041 1.0344140529632568 -2.5
-6.427651405334473 0.5188866853713989 -2.5
6.161586761474609 1.0013574361801147 -2.5
6.061025142669678 1.4939160346984863 -2.5
5.921166896820068 1.9767773151397705 -2.5
5.527387619018555 2.9009861946105957 -2.5
5.276034832000732 3.336357355117798 -2.5
4.672524452209473 4.139472484588623 -2.5
4.312963962554932 4.490253925323486 -2.493457794189453
1.6308789253234863 5.630449295043945 -2.347599983215332
0.7065722346305847 5.819130897521973 -2.347599983215332
0.23604004085063934 5.857128620147705 -2.347599983215332
-0.23603026568889618 5.857128620147705 -2.347599983215332
-0.7065722346305847 5.819140434265137 -2.347599983215332
-1.6308740377426147 5.630449295043945 -2.347599983215332
-2.512944221496582 5.295907974243164 -2.347599983215332
-2.9309422969818115 5.076533317565918 -2.347599983215332
-3.3299365043640137 4.824228286743164 -2.347599983215332
-4.298046588897705 4.474736213684082 -2.484839677810669
-4.990454196929932 3.750068187713623 -2.5
-5.276025295257568 3.336357355117798 -2.5
-5.921162128448486 1.9767675399780273 -2.5
-6.161586761474609 1.0013476610183716 -2.5
-6.222172737121582 0.5022948980331421 -2.5
6.047377586364746 0.0 -2.5
5.969067096710205 0.9700585603713989 -2.5
5.871654987335205 1.4472265243530273 -2.5
5.736162185668945 1.9150097370147705 -2.5
5.563461780548096 2.370361328125 -2.5
5.354687213897705 2.8103418350219727 -2.5
5.111181735992432 3.232119083404541 -2.5
4.834531307220459 3.6329100131988525 -2.5
4.181430339813232 4.353320121765137 -2.4953813552856445
3.655458927154541 4.477118968963623 -2.3894145488739014
2.839360237121582 4.917919635772705 -2.347599983215332
2.0137059688568115 5.309687614440918 -2.347599983215332
1.579921841621399 5.454501628875732 -2.347599983215332
0.6844921708106995 5.63732385635376 -2.347599983215332
0.22866210341453552 5.674111366271973 -2.347599983215332
-2.4344286918640137 5.130439281463623 -2.347599983215332
-3.225893497467041 4.673495769500732 -2.347599983215332
-3.6104490756988525 4.422001838684082 -2.3599960803985596
-5.111171722412109 3.232109308242798 -2.5
-5.736156940460205 1.9149901866912842 -2.5
-5.871645450592041 1.4472167491912842 -2.5
-6.027763366699219 0.4866015613079071 -2.5
3.8240771293640137 0.3086914122104645 -1.6360327005386353
3.801523447036743 0.6178027391433716 -1.6423825025558472
5.69216775894165 1.4029979705810547 -2.5
5.393398284912109 2.297919988632202 -2.5
4.954946041107178 3.133310556411743 -2.5
2.752573251724243 4.767578125 -2.347599983215332
2.3600096702575684 4.973622798919678 -2.347599983215332
1.9521533250808716 5.147382736206055 -2.347599983215332
0.66357421875 5.464990139007568 -2.347599983215332
-1.5316210985183716 5.287783145904541 -2.347599983215332
-1.9521484375 5.147382736206055 -2.347599983215332
-2.3600146770477295 4.973622798919678 -2.347599983215332
-3.127275228500366 4.530634880065918 -2.347599983215332
-3.5992724895477295 4.408310413360596 -2.426874876022339
-4.954936504364014 3.1333203315734863 -2.5
-5.191005706787109 2.724433422088623 -2.5
-5.560815334320068 1.85647451877594 -2.5
3.666132688522339 0.9036034941673279 -1.65985107421875
5.394350528717041 1.8009082078933716 -2.5
5.231947898864746 2.229130744934082 -2.5
4.806616306304932 3.0395116806030273 -2.5
4.546450138092041 3.4164257049560547 -2.5
4.256806373596191 3.771191358566284 -2.5
3.937944173812866 4.099833965301514 -2.4989850521087646
3.587050676345825 4.39333963394165 -2.4932703971862793
3.0449070930480957 4.411318302154541 -2.3563051223754883
1.8937206268310547 4.993300437927246 -2.347599983215332
1.4857763051986694 5.129492282867432 -2.347599983215332
0.6437109112739563 5.301396369934082 -2.347599983215332
-1.8937108516693115 4.993300437927246 -2.347599983215332
-2.289355516433716 4.82473611831665 -2.347599983215332
-2.670175790786743 4.624873161315918 -2.347599983215332
-3.585829973220825 4.391845703125 -2.4924256801605225
-3.936284065246582 4.098095417022705 -2.497938871383667
-4.256792068481445 3.771191358566284 -2.5
-4.546450138092041 3.4164257049560547 -2.5
-4.806611061096191 3.0395116806030273 -2.5
-5.231943130493164 2.229130744934082 -2.5
-5.613379001617432 0.9122558236122131 -2.5
3.414736270904541 0.0 -1.5464831590652466
3.3909764289855957 0.5510839819908142 -1.5558736324310303
5.236073970794678 1.7480566501617432 -2.5
5.078437328338623 2.163701057434082 -2.5
4.413051605224609 3.3161816596984863 -2.5
2.5918309688568115 4.489169597625732 -2.347599983215332
1.8381541967391968 4.846806526184082 -2.347599983215332
1.4421825408935547 4.978984355926514 -2.347599983215332
-0.20872069895267487 5.179433345794678 -2.347599983215332
-0.6248144507408142 5.145849704742432 -2.347599983215332
-1.0368603467941284 5.078896522521973 -2.347599983215332
-1.4421727657318115 4.978984355926514 -2.347599983215332
-2.5918262004852295 4.489169597625732 -2.347599983215332
-3.001601457595825 4.348544597625732 -2.3929994106292725
-3.4832518100738525 4.266201019287109 -2.494309425354004
-3.8234617710113525 3.980644464492798 -2.499680280685425
-4.413051605224609 3.3161816596984863 -2.5
-4.665580749511719 2.950331926345825 -2.5
-4.887861251831055 2.5653417110443115 -2.5
-5.078427791595459 2.163701057434082 -2.5
-5.359760761260986 1.3210644721984863 -2.5
3.242260694503784 0.2617480456829071 -1.516804814338684
3.1952295303344727 0.7875585556030273 -1.5345499515533447
5.085361003875732 1.6977343559265137 -2.5
4.932265281677246 2.1014256477355957 -2.5
4.747172832489014 2.4914941787719727 -2.5
4.012973308563232 3.555166006088257 -2.5
3.7138867378234863 3.8665428161621094 -2.5
3.027211904525757 4.385683536529541 -2.484947681427002
2.520380735397339 4.365409851074219 -2.3505444526672363
1.785244107246399 4.707294940948486 -2.347599983215332
0.6068359017372131 4.997724533081055 -2.347599983215332
0.20271971821784973 5.030371189117432 -2.347599983215332
-0.20271971821784973 5.030351638793945 -2.347599983215332
-0.6068310141563416 4.997724533081055 -2.347599983215332
-1.4006688594818115 4.835663795471191 -2.347599983215332
-1.7852392196655273 4.707284927368164 -2.347599983215332
-2.1582324504852295 4.548359394073486 -2.347599983215332
-2.5172362327575684 4.359951019287109 -2.347599983215332
-4.012963771820068 3.555166006088257 -2.5
-5.08535623550415 1.6977343559265137 -2.5
-5.291840553283691 0.8600195050239563 -2.5
