ply
format ascii 1.0
element vertex 725
property float x
property float y
property float z
end_header
-6.244228363037109 -16.464618682861328 4.718283653259277
15.922426223754883 -14.105996131896973 5.447935581207275
15.915194511413574 -14.099579811096191 4.698328018188477
-6.232040882110596 -16.432470321655273 3.6796441078186035
15.91042423248291 -14.09536075592041 4.205146789550781
15.908061027526855 -14.09326171875 3.9603166580200195
15.905702590942383 -14.091181755065918 3.7165660858154297
15.903356552124023 -14.08910083770752 3.473832845687866
-6.220170974731445 -16.40119171142578 2.668748617172241
15.90102767944336 -14.087040901184082 3.2320494651794434
15.898700714111328 -14.084970474243164 2.9911510944366455
-24.011981964111328 -10.230536460876465 3.381049156188965
-6.215493202209473 -16.388866424560547 2.270538091659546
-23.99769401550293 -10.22445297241211 3.0855352878570557
-6.213173866271973 -16.38274383544922 2.072551727294922
15.89406681060791 -14.0808687210083 2.511749267578125
-23.983455657958984 -10.218388557434082 2.7911436557769775
-6.208544731140137 -16.37053680419922 1.678525686264038
15.8894624710083 -14.076786994934082 2.035127878189087
-6.206249713897705 -16.364471435546875 1.4823434352874756
-16.0015869140625 -23.18233299255371 2.071713447570801
5.430776119232178 -26.6016788482666 1.9968209266662598
-23.92698097229004 -10.194315910339355 1.62327241897583
-6.20166015625 -16.352373123168945 1.0915606021881104
-23.912948608398438 -10.188339233398438 1.3333470821380615
15.678805351257324 -22.714628219604492 1.4158037900924683
-23.898969650268555 -10.182392120361328 1.0440911054611206
-6.197089672088623 -16.34033203125 0.7023806571960449
5.430776119232178 -26.601659774780273 1.0913763046264648
-23.885009765625 -10.176445007324219 0.755430281162262
5.430776119232178 -26.601659774780273 0.7899706959724426
5.430776119232178 -26.601659774780273 0.48909637331962585
5.430776119232178 -26.601659774780273 -0.11282394081354141
-6.185717582702637 -16.310361862182617 -0.26581040024757385
5.430776119232178 -26.601659774780273 -0.4138513207435608
-23.80164909362793 -10.140917778015137 -0.968138575553894
-6.181196212768555 -16.298398971557617 -0.6522212028503418
5.430766582489014 -26.601669311523438 -1.317318081855774
21.771728515625 -5.366230487823486 -1.0879638195037842
-25.380170822143555 -13.320507049560547 -1.709289789199829
-6.176650047302246 -16.286436080932617 -1.0387067794799805
5.430776119232178 -26.601659774780273 -1.6190667152404785
21.243637084960938 -5.236073970794678 -1.3047417402267456
-17.81771469116211 -1.4383885860443115 -1.264920711517334
-17.162137985229492 -2.78912091255188 -1.2303617000579834
-14.643085479736328 -17.93450164794922 -1.6383618116378784
-6.174375057220459 -16.280458450317383 -1.2321193218231201
1.1300585269927979 -9.306914329528809 -0.66341233253479
23.588197708129883 -14.916239738464355 -1.9748783111572266
24.844364166259766 -10.585175514221191 -1.9109923839569092
22.50724220275879 -3.657783031463623 -1.6135528087615967
-17.667016983032227 -1.4262304306030273 -1.4517773389816284
-27.186317443847656 -9.076123237609863 -2.347599983215332
-22.755496978759766 -9.695195198059082 -2.0259833335876465
-25.37837791442871 -13.319628715515137 -2.347599983215332
-23.008310317993164 -17.289648056030273 -2.3573546409606934
-19.99588394165039 -20.81791877746582 -2.364323616027832
-14.840307235717773 -18.17607307434082 -1.9219727516174316
-9.211122512817383 -19.412078857421875 -1.75992751121521
-3.49236798286438 -28.762332916259766 -2.3731768131256104
0.34315428137779236 -8.515332221984863 -0.698040783405304
0.9784960746765137 -8.058612823486328 -0.6649135947227478
5.411796569824219 -26.50874900817871 -2.216071367263794
8.0650634765625 -27.843778610229492 -2.3743810653686523
7.516909122467041 -19.820438385009766 -1.7362902164459229
18.257017135620117 -22.360742568969727 -2.3644680976867676
15.204111099243164 -15.8291015625 -1.7977426052093506
21.542705535888672 -19.08516502380371 -2.357375383377075
23.646753311157227 -14.95327091217041 -2.2916293144226074
25.37838363647461 -13.319599151611328 -2.347599983215332
24.844911575317383 -10.585410118103027 -2.2120397090911865
27.186317443847656 -9.076112747192383 -2.347599983215332
20.226057052612305 -4.985263347625732 -1.7062615156173706
-18.881229400634766 9.765624781721272e-06 -1.7573645114898682
-17.53907585144043 -1.4158984422683716 -1.6377538442611694
-16.5389404296875 -2.6878318786621094 -1.55955171585083
-23.92471694946289 -7.987246036529541 -2.347599983215332
-22.333642959594727 -11.721611022949219 -2.347599983215332
-21.318021774291992 -13.480712890625 -2.347599983215332
-20.16413116455078 -15.1524019241333 -2.347599983215332
-15.990370750427246 -19.584667205810547 -2.3532466888427734
-12.651689529418945 -21.913387298583984 -2.3551063537597656
-9.289970397949219 -19.578250885009766 -2.0169756412506104
-6.177065372467041 -16.287519454956055 -1.6213124990463257
-7.05394983291626 -24.353153228759766 -2.3598320484161377
-3.0584521293640137 -25.188690185546875 -2.3616509437561035
0.9773241877555847 -8.04898452758789 -0.7546581625938416
3.10430645942688 -15.205878257751465 -1.444474458694458
7.564750671386719 -19.94660186767578 -1.9855544567108154
12.66043472290039 -21.928485870361328 -2.356729030609131
15.979415893554688 -19.57120132446289 -2.351630449295044
15.245180130004883 -13.505986213684082 -1.8956807851791382
-17.490713119506836 -1.4119824171066284 -1.8295835256576538
-16.363706588745117 -2.659355401992798 -1.7285293340682983
-22.74363136291504 -7.592929363250732 -2.5
-21.251039505004883 -9.054218292236328 -2.4084460735321045
-19.93685531616211 -10.463671684265137 -2.347599983215332
-19.030223846435547 -12.0339937210083 -2.347599983215332
-16.853374481201172 -14.93080997467041 -2.347599983215332
-12.790458679199219 -18.530214309692383 -2.347599983215332
-6.178520202636719 -16.291357040405273 -1.8166533708572388
-2.7198779582977295 -22.40032196044922 -2.3527047634124756
-0.3573974668979645 -8.8689546585083 -0.925463080406189
0.3181249797344208 -7.894218444824219 -0.8237499594688416
0.9761523008346558 -8.039355278015137 -0.8443713188171387
1.6844629049301147 -8.251025199890137 -0.8780286908149719
6.274667739868164 -21.66259765625 -2.351473569869995
7.587470531463623 -20.00650405883789 -2.230938673019409
12.79049301147461 -18.53020477294922 -2.347599983215332
14.24010181427002 -17.440927505493164 -2.347599983215332
14.640531539916992 -15.242353439331055 -2.2035884857177734
19.936840057373047 -10.463651657104492 -2.347599983215332
-18.79512596130371 9.765624781721272e-06 -2.1704490184783936
-17.513647079467773 -1.41384756565094 -2.0290424823760986
-16.73580551147461 -4.125 -1.990478754043579
-17.374902725219727 -10.987226486206055 -2.3739540576934814
-4.838364124298096 -16.703916549682617 -2.0082430839538574
-2.4504051208496094 -20.180946350097656 -2.347599983215332
0.9749804735183716 -8.029736518859863 -0.9340780377388
1.6821093559265137 -8.239501953125 -0.9711166024208069
5.655947208404541 -19.52652359008789 -2.347599983215332
8.714980125427246 -18.36638641357422 -2.347599983215332
11.548300743103027 -16.730566024780273 -2.347599983215332
14.082526206970215 -14.661455154418945 -2.347599983215332
15.151927947998047 -13.423378944396973 -2.337618589401245
17.726083755493164 -11.209267616271973 -2.4219353199005127
9.833402633666992 -1.5980761051177979 -1.1504528522491455
-19.664003372192383 -1.587441325187683 -2.5
-16.350200653076172 -2.657158136367798 -2.099138021469116
-18.712709426879883 -6.247216701507568 -2.5
-17.46826171875 -9.16805648803711 -2.5
-16.673891067504883 -10.543935775756836 -2.5
-15.581865310668945 -11.709023475646973 -2.469956874847412
-13.927470207214355 -12.3386812210083 -2.3579351902008057
-12.832968711853027 -13.360527038574219 -2.347599983215332
-11.716279029846191 -14.349833488464355 -2.347599983215332
-4.830039024353027 -16.6751651763916 -2.199993133544922
-0.33827635645866394 -8.394384384155273 -1.0646286010742188
0.3170507848262787 -7.867392539978027 -0.9977932572364807
5.154091835021973 -17.793926239013672 -2.347599983215332
7.941694259643555 -16.736738204956055 -2.347599983215332
9.2626953125 -16.04341697692871 -2.347599983215332
10.523622512817383 -15.246064186096191 -2.347599983215332
12.832968711853027 -13.360536575317383 -2.347599983215332
15.738974571228027 -11.82705020904541 -2.494859457015991
18.149337768554688 -7.732705116271973 -2.5
9.736928939819336 -1.5823925733566284 -1.2500865459442139
-18.057313919067383 -1.4577343463897705 -2.5
-17.881454467773438 -2.906015634536743 -2.5
-17.58963394165039 -4.33544921875 -2.5
-16.040956497192383 -8.418964385986328 -2.5
-14.482738494873047 -10.883085250854492 -2.5
-13.556180953979492 -12.009736061096191 -2.499284505844116
-8.505844116210938 -14.732548713684082 -2.347599983215332
-5.873007774353027 -15.485761642456055 -2.285541534423828
-4.656508922576904 -16.076074600219727 -2.309670925140381
-3.402773380279541 -16.667890548706055 -2.347599983215332
-2.050527334213257 -16.88765525817871 -2.347599983215332
-0.33097654581069946 -8.213319778442383 -1.134350299835205
0.9727148413658142 -8.010986328125 -1.1136295795440674
4.732954025268555 -16.340038299560547 -2.347599983215332
10.985649108886719 -13.454940795898438 -2.397056818008423
12.511933326721191 -13.02627944946289 -2.492527961730957
13.560065269470215 -12.01317310333252 -2.5
15.311515808105469 -9.682401657104492 -2.5
16.66639518737793 -7.100869178771973 -2.5
8.962798118591309 -2.9922070503234863 -1.3039644956588745
-16.689462661743164 -1.3473047018051147 -2.5
-16.257205963134766 -4.007040977478027 -2.5
-15.40392017364502 -6.56298828125 -2.5
-14.825854301452637 -7.781220436096191 -2.5
-12.532876014709473 -11.10317325592041 -2.5
-11.5988130569458 -12.075624465942383 -2.5
-9.392963409423828 -13.608095169067383 -2.4688377380371094
-8.031498908996582 -13.910985946655273 -2.398360252380371
-5.575448989868164 -14.701308250427246 -2.347599983215332
-4.37441873550415 -15.102274894714355 -2.347599983215332
0.9715917706489563 -8.001738548278809 -1.203510046005249
6.777695178985596 -14.283652305603027 -2.3606009483337402
8.115239143371582 -14.05599594116211 -2.423360586166382
9.484891891479492 -13.74120044708252 -2.4929919242858887
12.532880783081055 -11.103154182434082 -2.5
13.385685920715332 -10.058671951293945 -2.5
14.151664733886719 -8.948954582214355 -2.5
8.603569030761719 -2.1205859184265137 -1.3230394124984741
9.539511680603027 -1.5503125190734863 -1.4430261850357056
10.906425476074219 -0.8804491758346558 -1.6337310075759888
-15.108930587768555 -3.7240331172943115 -2.5
-14.760263442993164 -4.927695274353027 -2.5
-14.315878868103027 -6.099423885345459 -2.5
-11.647626876831055 -10.3189058303833 -2.5
-10.779545783996582 -11.222695350646973 -2.5
-8.83968734741211 -12.806513786315918 -2.5
-7.780541896820068 -13.476298332214355 -2.5
-6.655693054199219 -14.026611328125 -2.4942984580993652
-5.434003829956055 -14.328349113464355 -2.461937427520752
-4.195224285125732 -14.483710289001465 -2.422558307647705
-2.980659008026123 -14.60024356842041 -2.394014835357666
-0.9757958650588989 -8.0364351272583 -1.3005924224853516
-0.31868162751197815 -7.907998085021973 -1.2715060710906982
0.3154345750808716 -7.827207088470459 -1.2585182189941406
1.6727148294448853 -8.19350528717041 -1.3434970378875732
4.218447208404541 -14.56371021270752 -2.435941696166992
5.472846508026123 -14.430692672729492 -2.479523181915283
6.6612548828125 -14.038251876831055 -2.4963715076446533
8.839712142944336 -12.806513786315918 -2.5
10.779545783996582 -11.222684860229492 -2.5
8.619882583618164 -2.8777246475219727 -1.4599813222885132
8.474535942077637 -2.0887792110443115 -1.4022420644760132
9.407949447631836 -1.5289355516433716 -1.5312838554382324
10.90359878540039 -0.8802245855331421 -1.7574410438537598
-14.5310640335083 0.0 -2.5
-14.108808517456055 -3.4775097370147705 -2.5
-13.783231735229492 -4.601523399353027 -2.5
-11.616738319396973 -8.729423522949219 -2.5
-10.876660346984863 -9.635869026184082 -2.5
-8.25455093383789 -11.958807945251465 -2.5
-4.042773246765137 -13.957353591918945 -2.5
-2.9047605991363525 -14.22850513458252 -2.4984421730041504
-0.30924803018569946 -7.674042701721191 -1.3213549852371216
0.3148730397224426 -7.813457012176514 -1.3453603982925415
5.152792930603027 -13.586767196655273 -2.5
6.22936487197876 -13.12807559967041 -2.5
7.265527248382568 -12.584257125854492 -2.5
9.190102577209473 -11.255810737609863 -2.5
10.066015243530273 -10.47982406616211 -2.5
11.616752624511719 -8.72940444946289 -2.5
12.86661148071289 -6.752910137176514 -2.5
8.53548812866211 -2.849550724029541 -1.5481643676757812
8.3643798828125 -2.0616209506988525 -1.4821209907531738
10.905644416809082 -0.8803905844688416 -1.8823691606521606
-13.6256685256958 9.765624781721272e-06 -2.5
-13.449228286743164 -2.1857128143310547 -2.5
-12.924452781677246 -4.314814567565918 -2.5
-12.535341262817383 -5.340800762176514 -2.5
-12.06493091583252 -6.332167625427246 -2.5
-11.51626968383789 -7.282451152801514 -2.5
-9.438838005065918 -9.826865196228027 -2.5
-8.617480278015137 -10.554511070251465 -2.5
-7.740239143371582 -11.21371078491211 -2.5
-6.812836647033691 -11.800175666809082 -2.5
-0.9161328077316284 -7.54503870010376 -1.394511103630066
1.6697558164596558 -8.179022789001465 -1.5316170454025269
4.831728458404541 -12.740214347839355 -2.5
5.841230392456055 -12.310107231140137 -2.5
6.812841415405273 -11.800155639648438 -2.5
7.740273475646973 -11.213690757751465 -2.5
8.617499351501465 -10.5545015335083 -2.5
10.892958641052246 -8.185507774353027 -2.5
12.535341262817383 -5.340800762176514 -2.5
8.494619369506836 -2.8359081745147705 -1.6431310176849365
9.253192901611328 -1.5037890672683716 -1.7200241088867188
10.903910636901855 -0.8802539110183716 -2.007127285003662
-12.7818603515625 -1.031835913658142 -2.5
-12.657397270202637 -2.057021379470825 -2.5
-12.450824737548828 -3.06884765625 -2.5
-12.1635103225708 -4.060771465301514 -2.5
-9.598495483398438 -8.503515243530273 -2.5
-8.883119583129883 -9.248310089111328 -2.5
-8.110126495361328 -9.933115005493164 -2.5
-7.2845458984375 -10.553485870361328 -2.5
-6.411713600158691 -11.105429649353027 -2.5
-0.9132421612739563 -7.521288871765137 -1.4770853519439697
-0.30632323026657104 -7.601454734802246 -1.4831472635269165
0.9681054353713989 -7.973056316375732 -1.5658074617385864
1.6699316501617432 -8.179872512817383 -1.6276021003723145
4.547260761260986 -11.990117073059082 -2.5
5.497323989868164 -11.585331916809082 -2.5
7.284560203552246 -10.553476333618164 -2.5
8.110136985778809 -9.933095932006836 -2.5
10.251615524291992 -7.703583717346191 -2.5
11.797308921813965 -5.026347637176514 -2.5
8.284253120422363 -2.041874885559082 -1.6633944511413574
-11.755693435668945 -2.897509813308716 -2.5
-10.720673561096191 -5.626650333404541 -2.5
-10.233144760131836 -6.47106409072876 -2.5
-8.387177467346191 -8.731963157653809 -2.5
-7.657338619232178 -9.378535270690918 -2.5
-6.877841472625732 -9.964286804199219 -2.5
-6.053750038146973 -10.485419273376465 -2.5
-5.190380573272705 -10.938525199890137 -2.5
-3.3685107231140137 -11.629472732543945 -2.5
0.9567236304283142 -7.879296779632568 -1.6388955116271973
1.6701464653015137 -8.180869102478027 -1.7240575551986694
4.293393611907959 -11.32070255279541 -2.5
5.190410137176514 -10.938525199890137 -2.5
6.053764343261719 -10.485400199890137 -2.5
8.387163162231445 -8.731963157653809 -2.5
10.233159065246582 -6.471035003662109 -2.5
10.720673561096191 -5.626640319824219 -2.5
8.471166610717773 -2.8280858993530273 -1.8440574407577515
8.267763137817383 -2.0378026962280273 -1.7582470178604126
9.216259956359863 -1.4977831840515137 -1.9279721975326538
10.887216567993164 -0.8788964748382568 -2.255342960357666
-11.464521408081055 9.765624781721272e-06 -2.5
-11.42733383178711 -0.92249995470047 -2.5
-11.131376266479492 -2.7436327934265137 -2.5
-9.165224075317383 -6.887216567993164 -2.5
-8.581308364868164 -7.602382659912109 -2.5
-7.941747665405273 -8.268232345581055 -2.5
-4.914741039276123 -10.357617378234863 -2.5
-4.065366268157959 -10.719511032104492 -2.5
-3.1896092891693115 -11.011855125427246 -2.5
-1.51174795627594 -7.405038833618164 -1.6480796337127686
-0.8803905844688416 -7.250654220581055 -1.5927224159240723
-0.3060351610183716 -7.594208717346191 -1.6573700904846191
0.31371092796325684 -7.784511566162109 -1.698903203010559
0.9459814429283142 -7.790849208831787 -1.7113829851150513
1.631933569908142 -7.993740081787109 -1.7791024446487427
3.189638614654541 -11.011855125427246 -2.5
6.512597560882568 -9.435087203979492 -2.5
8.581317901611328 -7.602372646331787 -2.5
9.165224075317383 -6.887197017669678 -2.5
8.248330116271973 -2.033017635345459 -1.8524956703186035
11.11754322052002 -0.8974902033805847 -2.4322245121002197
-10.883706092834473 0.0 -2.5
-10.84841251373291 -0.8757714629173279 -2.5
-9.637030601501465 -5.057909965515137 -2.5
-7.539409160614014 -7.849355220794678 -2.5
-6.18264627456665 -8.95711898803711 -2.5
-5.441840648651123 -9.425556182861328 -2.5
-3.028022289276123 -10.453984260559082 -2.5
3.8594188690185547 -10.17642593383789 -2.5
4.665766716003418 -9.832870483398438 -2.5
5.441864967346191 -9.425556182861328 -2.5
6.182651042938232 -8.957098960876465 -2.5
8.146567344665527 -7.217216491699219 -2.5
8.700898170471191 -6.538290977478027 -2.5
9.198798179626465 -5.816953182220459 -2.5
9.637041091918945 -5.057900428771973 -2.5
10.01278305053711 -4.266035079956055 -2.5
8.460429191589355 -2.8245019912719727 -2.048811197280884
-10.356362342834473 0.0 -2.5
-10.222241401672363 -1.6612597703933716 -2.5
-9.82338809967041 -3.2795214653015137 -2.5
-9.170092582702637 -4.812831878662109 -2.5
-8.753090858459473 -5.535117149353027 -2.5
-8.279315948486328 -6.221503734588623 -2.5
-7.174096584320068 -7.46902322769165 -2.5
-2.881298780441284 -9.947461128234863 -2.5
-1.460634708404541 -7.154648303985596 -1.7627413272857666
0.94911128282547 -7.816650390625 -1.900780439376831
2.8813230991363525 -9.947470664978027 -2.5
5.178178787231445 -8.968856811523438 -2.5
5.883076190948486 -8.52310562133789 -2.5
6.54983377456665 -8.022079467773438 -2.5
7.17410135269165 -7.469013690948486 -2.5
8.75308609008789 -5.535107135772705 -2.5
9.1701021194458 -4.812831878662109 -2.5
8.460375785827637 -2.8244824409484863 -2.1531221866607666
9.223241806030273 -1.4989160299301147 -2.2556793689727783
-9.8753023147583 9.765624781721272e-06 -2.5
-9.843280792236328 -0.794628918170929 -2.5
-9.588349342346191 -2.3633203506469727 -2.5
-9.367084503173828 -3.127187490463257 -2.5
-7.894731044769287 -5.932509422302246 -2.5
-7.391767501831055 -6.548534870147705 -2.5
-5.609809398651123 -8.127206802368164 -2.5
-4.937641620635986 -8.552265167236328 -2.5
-4.233466625213623 -8.921835899353027 -2.5
-0.8764111399650574 -7.217929363250732 -1.8406907320022583
-0.30592772364616394 -7.591533184051514 -1.92340886592865
0.31166014075279236 -7.733710765838623 -1.9594300985336304
1.6239794492721558 -7.954755783081055 -2.0553407669067383
5.609819412231445 -8.127197265625 -2.5
7.391762733459473 -6.548525333404541 -2.5
9.0850830078125 -3.8707714080810547 -2.5
9.206767082214355 -3.073662042617798 -2.457213878631592
8.271254539489746 -2.0386717319488525 -2.1565916538238525
9.747421264648438 -1.5841015577316284 -2.5
-9.404013633728027 -0.7591601610183716 -2.5
-7.974038124084473 -5.042470455169678 -2.5
-7.542421817779541 -5.667763710021973 -2.5
-7.061899185180664 -6.256298542022705 -2.5
-6.535575866699219 -6.804247856140137 -2.5
-5.359457969665527 -7.764511585235596 -2.5
-4.044531345367432 -8.523700714111328 -2.5
-2.6248583793640137 -9.06209945678711 -2.5
-1.4623290300369263 -7.162949085235596 -1.9372038841247559
-0.8767382502555847 -7.220614910125732 -1.9273861646652222
-0.2991113066673279 -7.422577857971191 -1.9684487581253052
1.6239452362060547 -7.95458984375 -2.151301145553589
4.044560432434082 -8.523681640625 -2.5
5.359467506408691 -7.764511585235596 -2.5
6.535581111907959 -6.804247856140137 -2.5
7.061899185180664 -6.256298542022705 -2.5
7.542436122894287 -5.66775369644165 -2.5
7.974042892456055 -5.042470455169678 -2.5
8.35390567779541 -4.384472370147705 -2.5
9.160449028015137 -2.2578320503234863 -2.5
9.312426567077637 -1.5134081840515137 -2.5
9.404013633728027 -0.7591503858566284 -2.5
-9.029281616210938 9.765624781721272e-06 -2.5
-9.000004768371582 -0.7265527248382568 -2.5
-8.56459903717041 -2.8592772483825684 -2.5
-8.306747436523438 -3.5391697883605957 -2.5
-7.995028972625732 -4.196113109588623 -2.5
-5.129213809967041 -7.430947303771973 -2.5
-4.5146484375 -7.819570064544678 -2.5
-1.4695947170257568 -7.198525428771973 -2.0342187881469727
-0.2991113066673279 -7.422587871551514 -2.0568125247955322
0.3635839819908142 -9.021943092346191 -2.5
0.9411669969558716 -7.751220703125 -2.1618988513946533
3.201835870742798 -8.442519187927246 -2.5
4.514643669128418 -7.819570064544678 -2.5
5.129228591918945 -7.430947303771973 -2.5
5.710536956787109 -6.994121074676514 -2.5
6.758510589599609 -5.987509727478027 -2.5
7.218393325805664 -5.424257755279541 -2.5
7.995028972625732 -4.196103572845459 -2.5
8.306747436523438 -3.5391600131988525 -2.5
8.912348747253418 -1.448388695716858 -2.5
9.0 -0.7265429496765137 -2.5
-8.543081283569336 -1.3883886337280273 -2.5
-8.209721565246582 -2.7408103942871094 -2.5
-7.315253734588623 -4.625878810882568 -2.5
-4.916679382324219 -7.123046875 -2.5
-3.710400342941284 -7.819501876831055 -2.5
-1.7312499284744263 -8.480224609375 -2.5
-0.8772363066673279 -7.224658012390137 -2.1021347045898438
0.946582019329071 -7.795800685882568 -2.2683184146881104
3.069164991378784 -8.092695236206055 -2.5
5.995639324188232 -6.242109298706055 -2.5
8.209731101989746 -2.740800619125366 -2.5
8.40365219116211 -2.071298837661743 -2.5
-8.30868148803711 9.765624781721272e-06 -2.5
-8.28173828125 -0.6685644388198853 -2.5
-8.067245483398438 -1.9883886575698853 -2.5
-7.881083965301514 -2.6310839653015137 -2.5
-7.022411823272705 -4.44070291519165 -2.5
-6.219135761260986 -5.509667873382568 -2.5
-5.755624771118164 -5.992236137390137 -2.5
-5.254785060882568 -6.435946941375732 -2.5
-4.719872951507568 -6.837910175323486 -2.5
-2.9462890625 -7.768749713897705 -2.5
-1.6619433164596558 -8.140761375427246 -2.5
-0.33455076813697815 -8.301933288574219 -2.5
1.6619579792022705 -8.140751838684082 -2.5
2.311635732650757 -7.980615139007568 -2.5
2.9463133811950684 -7.768740177154541 -2.5
4.154345512390137 -7.195517539978027 -2.5
4.719872951507568 -6.837890625 -2.5
5.254794597625732 -6.435927391052246 -2.5
5.755624771118164 -5.992236137390137 -2.5
6.219140529632568 -5.509667873382568 -2.5
7.643818378448486 -3.256708860397339 -2.5
7.881088733673096 -2.6310741901397705 -2.5
8.067245483398438 -1.988378882408142 -2.5
8.28173828125 -0.6685546636581421 -2.5
-7.98681640625 9.765624781721272e-06 -2.5
-7.754735946655273 -1.9113671779632568 -2.5
-7.575786113739014 -2.529179573059082 -2.5
-7.071972370147705 -3.7116503715515137 -2.5
-5.978212833404541 -5.296230316162109 -2.5
-5.051230430603027 -6.186621189117432 -2.5
-4.53701639175415 -6.573017597198486 -2.5
-3.993408203125 -6.91677713394165 -2.5
-3.42388653755188 -7.215683460235596 -2.5
-0.8766503930091858 -7.219912052154541 -2.27654767036438
-0.32158201932907104 -7.980331897735596 -2.5
1.5975682735443115 -7.825400352478027 -2.5
2.2220799922943115 -7.671464443206787 -2.5
3.423906087875366 -7.215673446655273 -2.5
3.993422746658325 -6.91677713394165 -2.5
4.537035942077637 -6.573007583618164 -2.5
5.051230430603027 -6.186611175537109 -2.5
5.978212833404541 -5.296240329742432 -2.5
6.38500452041626 -4.798007488250732 -2.5
7.071972370147705 -3.7116503715515137 -2.5
7.754726409912109 -1.9113574028015137 -2.5
7.960917949676514 -0.6426562070846558 -2.5
-7.587421894073486 -1.2330663204193115 -2.5
-7.463603496551514 -1.8396190404891968 -2.5
-7.071855545043945 -3.012939453125 -2.5
-6.145283222198486 -4.617880821228027 -2.5
-5.753774166107178 -5.097402095794678 -2.5
-5.324951171875 -5.543857097625732 -2.5
-4.366684436798096 -6.326220512390137 -2.5
-3.29534649848938 -6.944785118103027 -2.5
-2.725830078125 -7.187421798706055 -2.5
-1.5375878810882568 -7.531601428985596 -2.5
0.9265673756599426 -7.630908012390137 -2.5
2.1386523246765137 -7.383456707000732 -2.5
2.7258496284484863 -7.187431335449219 -2.5
3.295356273651123 -6.944775104522705 -2.5
4.861591815948486 -5.954345703125 -2.5
5.753774166107178 -5.097392559051514 -2.5
6.806469440460205 -3.5723047256469727 -2.5
7.291367053985596 -2.434208869934082 -2.5
7.662040710449219 -0.6185351610183716 -2.5
-7.191640377044678 -1.7725683450698853 -2.5
-7.025693416595459 -2.345507860183716 -2.5
-6.558461666107178 -3.4421582221984863 -2.5
-4.207582950592041 -6.09573221206665 -2.5
-3.1752734184265137 -6.691738128662109 -2.5
-1.4815624952316284 -7.257177352905273 -2.5
-0.2982275187969208 -7.400859355926514 -2.5
0.2982519567012787 -7.400868892669678 -2.5
0.8928124904632568 -7.352851390838623 -2.5
1.4815673828125 -7.257177352905273 -2.5
2.060727596282959 -7.114433288574219 -2.5
2.626523494720459 -6.925537109375 -2.5
3.175283193588257 -6.691738128662109 -2.5
3.703442335128784 -6.414540767669678 -2.5
5.544120788574219 -4.911660194396973 -2.5
7.025683403015137 -2.345517635345459 -2.5
7.310961723327637 -1.1881444454193115 -2.5
7.382856369018555 -0.595996081829071 -2.5
-7.121425628662109 -0.5748925805091858 -2.5
-6.936982154846191 -1.709804654121399 -2.5
-6.5728759765625 -2.800429582595825 -2.5
-6.326220512390137 -3.320253849029541 -2.5
-6.038530349731445 -3.818535089492798 -2.5
-5.711689472198486 -4.292060375213623 -2.5
-5.34780740737915 -4.737734317779541 -2.5
-4.949238300323486 -5.152685642242432 -2.5
-4.518569469451904 -5.534228324890137 -2.5
-2.533505916595459 -6.680302619934082 -2.5
-1.4290869235992432 -7.000185489654541 -2.5
-0.28767088055610657 -7.138779163360596 -2.5
0.8611913919448853 -7.092490196228027 -2.5
1.4290966987609863 -7.000195026397705 -2.5
2.533515453338623 -6.68029260635376 -2.5
4.05859375 -5.879872798919678 -2.5
4.518574237823486 -5.534228324890137 -2.5
5.711689472198486 -4.292050838470459 -2.5
6.038544654846191 -3.8185253143310547 -2.5
6.5728759765625 -2.800429582595825 -2.5
6.936982154846191 -1.709804654121399 -2.5
7.052070140838623 -1.1460644006729126 -2.5
7.121420860290527 -0.5748925805091858 -2.5
-6.898227214813232 0.0007519531063735485 -2.5
-6.876049518585205 -0.5550780892372131 -2.5
-6.80908203125 -1.1065722703933716 -2.5
-6.346405982971191 -2.7039451599121094 -2.5
-6.108232498168945 -3.2058496475219727 -2.5
-5.514882564544678 -4.144169807434082 -2.5
-5.163535118103027 -4.574482440948486 -2.5
-4.778700828552246 -4.975136756896973 -2.5
-3.9187450408935547 -5.677285194396973 -2.5
-3.449213743209839 -5.974199295043945 -2.5
-2.9572949409484863 -6.232372760772705 -2.5
-2.4462108612060547 -6.450126647949219 -2.5
-1.9192479848861694 -6.626044750213623 -2.5
-0.27775877714157104 -6.892812252044678 -2.5
0.27778318524360657 -6.892802715301514 -2.5
2.446225643157959 -6.450107097625732 -2.5
2.9573094844818115 -6.232363224029541 -2.5
4.778700828552246 -4.975146293640137 -2.5
5.514882564544678 -4.144160270690918 -2.5
6.346396446228027 -2.703935384750366 -2.5
6.543398380279541 -2.184501886367798 -2.5
6.80907678604126 -1.1065820455551147 -2.5
6.876044750213623 -0.5550780892372131 -2.5
-6.666845321655273 9.765624781721272e-06 -2.5
-6.323744773864746 -2.1111717224121094 -2.5
-6.133359432220459 -2.613173723220825 -2.5
-5.329760551452637 -4.005048751831055 -2.5
-4.990200042724609 -4.420937538146973 -2.5
-4.618281364440918 -4.80813455581665 -2.5
-4.216411113739014 -5.164150238037109 -2.5
-3.7871923446655273 -5.486708641052246 -2.5
-1.854824185371399 -6.403613090515137 -2.5
-0.8035937547683716 -6.618222713470459 -2.5
0.8036083579063416 -6.618222713470459 -2.5
1.8548437356948853 -6.403603553771973 -2.5
4.216415882110596 -5.164150238037109 -2.5
5.634750843048096 -3.563183546066284 -2.5
6.133359432220459 -2.6131834983825684 -2.5
6.323740005493164 -2.1111717224121094 -2.5
6.473119735717773 -1.5954687595367432 -2.5
6.580512523651123 -1.069423794746399 -2.5
-6.365058422088623 -1.0344140529632568 -2.5
-6.116703987121582 -2.042050838470459 -2.5
-5.932548522949219 -2.5276269912719727 -2.5
-5.155253887176514 -3.873915910720825 -2.5
-4.826821327209473 -4.276181697845459 -2.5
-4.467074871063232 -4.650712966918945 -2.5
-3.6631932258605957 -5.307060241699219 -2.5
-1.794106364250183 -6.193954944610596 -2.5
-1.2898778915405273 -6.318242073059082 -2.5
-0.7772802710533142 -6.401542663574219 -2.5
-0.25966307520866394 -6.443329811096191 -2.5
0.7772997617721558 -6.401552677154541 -2.5
2.286699056625366 -6.029501914978027 -2.5
3.663203001022339 -5.307050704956055 -2.5
4.078369140625 -4.995087623596191 -2.5
5.155258655548096 -3.873915910720825 -2.5
5.450263500213623 -3.446523427963257 -2.5
5.709921836853027 -2.9967870712280273 -2.5
5.932548522949219 -2.5276074409484863 -2.5
6.11669397354126 -2.042060613632202 -2.5
6.427651405334473 -0.5188769698143005 -2.5
-6.222182273864746 -0.5022948980331421 -2.5
-6.161591529846191 -1.0013378858566284 -2.5
-6.061025142669678 -1.4939062595367432 -2.5
-5.921166896820068 -1.9767773151397705 -2.5
-5.742895603179932 -2.4468066692352295 -2.5
-5.527402400970459 -2.9010252952575684 -2.5
-5.276025295257568 -3.336357355117798 -2.5
-4.990454196929932 -3.7500877380371094 -2.5
-4.672524452209473 -4.139482498168945 -2.5
-3.947993040084839 -4.835410118103027 -2.5
-3.121210813522339 -5.406084060668945 -2.5
-2.676079034805298 -5.639716625213623 -2.5
-2.2135984897613525 -5.836757659912109 -2.5
-1.7367479801177979 -5.995956897735596 -2.5
-1.2486523389816284 -6.116250038146973 -2.5
-0.75244140625 -6.19689416885376 -2.5
0.2513720691204071 -6.237353324890137 -2.5
1.2486523389816284 -6.116259574890137 -2.5
2.2136034965515137 -5.836748123168945 -2.5
3.5461082458496094 -5.137402057647705 -2.5
3.947993040084839 -4.835390567779541 -2.5
4.324282169342041 -4.502040863037109 -2.5
4.990454196929932 -3.750077962875366 -2.5
5.921162128448486 -1.9767675399780273 -2.5
6.061025142669678 -1.493896484375 -2.5
6.161581993103027 -1.0013476610183716 -2.5
-6.027773380279541 -0.4866015613079071 -2.5
-5.871650218963623 -1.4472265243530273 -2.5
-5.563466548919678 -2.370361328125 -2.5
-5.354687213897705 -2.810351610183716 -2.5
-4.834526062011719 -3.6329197883605957 -2.5
-3.824638605117798 -4.684316158294678 -2.5
-3.435302734375 -4.976884841918945 -2.5
-0.7289257645606995 -6.003271579742432 -2.5
0.24350585043430328 -6.042460918426514 -2.5
1.2096385955810547 -5.925156116485596 -2.5
2.1444385051727295 -5.654384613037109 -2.5
3.435302734375 -4.976874828338623 -2.5
3.82464337348938 -4.684316158294678 -2.5
5.111181735992432 -3.232109308242798 -2.5
5.736156940460205 -1.9149999618530273 -2.5
5.871650218963623 -1.4472167491912842 -2.5
6.027763366699219 -0.4866015613079071 -2.5
-5.843520164489746 -0.47172850370407104 -2.5
-5.786601543426514 -0.9404101371765137 -2.5
-5.560810565948486 -1.8564647436141968 -2.5
-5.393403053283691 -2.297910213470459 -2.5
-5.191005706787109 -2.7244529724121094 -2.5
-4.686743259429932 -3.521865129470825 -2.5
-4.388164043426514 -3.8875584602355957 -2.5
-3.7077245712280273 -4.541142463684082 -2.5
-2.931269407272339 -5.077089786529541 -2.5
-2.5132176876068115 -5.296474456787109 -2.5
-2.078871965408325 -5.481552600860596 -2.5
-1.1726561784744263 -5.744042873382568 -2.5
-0.7066552639007568 -5.819775104522705 -2.5
-0.2360546886920929 -5.857753753662109 -2.5
0.23605956137180328 -5.857753753662109 -2.5
1.172646403312683 -5.744042873382568 -2.5
2.0788867473602295 -5.481533050537109 -2.5
3.3302977085113525 -4.824746131896973 -2.5
4.388164043426514 -3.8875584602355957 -2.5
4.954946041107178 -3.133310556411743 -2.5
5.191000938415527 -2.724433422088623 -2.5
5.56082010269165 -1.8564647436141968 -2.5
5.843510627746582 -0.47172850370407104 -2.5
-5.668583869934082 -0.4576074182987213 -2.5
-5.521772384643555 -1.3609960079193115 -2.5
-5.394345760345459 -1.8008886575698853 -2.5
-5.035614967346191 -2.642890453338623 -2.5
-4.806611061096191 -3.0395116806030273 -2.5
-4.546445369720459 -3.4164257049560547 -2.5
-4.256801605224609 -3.771191358566284 -2.5
-3.59673810005188 -4.405185222625732 -2.5
-2.843510627746582 -4.925087928771973 -2.5
-2.43798828125 -5.137939453125 -2.5
-2.0166454315185547 -5.317451000213623 -2.5
-1.1375585794448853 -5.572089672088623 -2.5
-0.22899413108825684 -5.68240213394165 -2.5
0.22899413108825684 -5.682412147521973 -2.5
0.6854931712150574 -5.645546913146973 -2.5
1.1375536918640137 -5.572089672088623 -2.5
1.5822265148162842 -5.462480545043945 -2.5
2.43798828125 -5.137939453125 -2.5
3.230605363845825 -4.680322170257568 -2.5
3.596733331680298 -4.405185222625732 -2.5
4.256801605224609 -3.771181583404541 -2.5
5.035614967346191 -2.642880916595459 -2.5
5.231943130493164 -2.229120969772339 -2.5
5.521772384643555 -1.360986351966858 -2.5
5.613373756408691 -0.9122558236122131 -2.5
5.668588638305664 -0.4576074182987213 -2.5
-5.520155906677246 9.765624781721272e-06 -2.5
-5.236073970794678 -1.748046875 -2.5
-5.078437328338623 -2.163710832595825 -2.5
-4.887861251831055 -2.5653417110443115 -2.5
-4.131899356842041 -3.660537004470825 -2.5
-3.4912109375 -4.275937557220459 -2.5
-3.135815382003784 -4.543007850646973 -2.5
-2.366445302963257 -4.987187385559082 -2.5
-1.9574755430221558 -5.161425590515137 -2.5
0.22226561605930328 -5.515683650970459 -2.5
0.6653808355331421 -5.479902267456055 -2.5
1.1041796207427979 -5.408583641052246 -2.5
1.9574657678604126 -5.161435604095459 -2.5
2.366445302963257 -4.987177848815918 -2.5
4.887861251831055 -2.5653417110443115 -2.5
5.078442096710205 -2.163701057434082 -2.5
5.236079216003418 -1.748046875 -2.5
5.359760761260986 -1.321044921875 -2.5
5.448671817779541 -0.885498046875 -2.5
5.502260684967041 -0.44416990876197815 -2.5
-5.361269474029541 0.0 -2.5
-5.343886375427246 -0.4314062297344208 -2.5
-5.291840553283691 -0.85999995470047 -2.5
-5.20547342300415 -1.2830272912979126 -2.5
-4.932260513305664 -2.101435422897339 -2.5
-4.747172832489014 -2.491503953933716 -2.5
-4.531289100646973 -2.865410089492798 -2.5
-4.012963771820068 -3.555166006088257 -2.5
-3.3907225131988525 -4.152871131896973 -2.5
-1.491601586341858 -5.149589538574219 -2.5
-1.0723974704742432 -5.252910137176514 -2.5
-0.2158789038658142 -5.356914043426514 -2.5
0.2158789038658142 -5.356914043426514 -2.5
0.6462304592132568 -5.322167873382568 -2.5
1.9011328220367432 -5.012861251831055 -2.5
2.298330068588257 -4.843632698059082 -2.5
3.0455517768859863 -4.412226676940918 -2.5
4.286035060882568 -3.2207324504852295 -2.5
5.085361003875732 -1.6977343559265137 -2.5
5.205483436584473 -1.2830272912979126 -2.5
