ply
format ascii 1.0
element vertex 740
property float x
property float y
property float z
end_header
2.6492528915405273 -21.81856346130371 5.889199733734131
6.3431396484375 -21.899032592773438 6.109017848968506
8.748910903930664 -23.0689640045166 6.610907554626465
3.0140576362609863 -24.823026657104492 6.404033184051514
6.353374004364014 -21.934383392333984 5.848445892333984
2.8533008098602295 -23.499101638793945 5.783731460571289
3.1151561737060547 -25.65558624267578 6.011821746826172
2.9082469940185547 -23.95157241821289 5.3314056396484375
4.403329849243164 -21.56891632080078 4.864347457885742
6.109086990356445 -21.090986251831055 4.8520002365112305
8.562880516052246 -22.57845687866211 5.055878639221191
4.497739315032959 -22.031375885009766 4.448421478271484
8.3337984085083 -21.974403381347656 4.379343032836914
6.431625843048096 -22.20452117919922 4.043178081512451
3.184443235397339 -26.226308822631836 4.319497585296631
4.633906364440918 -22.698339462280273 3.787728786468506
6.534199237823486 -22.55868148803711 3.839954137802124
8.612524032592773 -22.709325790405273 3.9710302352905273
3.215576171875 -26.482685089111328 4.058736324310303
6.644370079040527 -22.93903350830078 3.6334612369537354
10.716879844665527 -22.58534049987793 3.8034112453460693
8.676318168640137 -22.877588272094727 3.4456048011779785
3.06988263130188 -25.282772064208984 3.2991650104522705
6.349668025970459 -21.92159080505371 2.9564287662506104
9.147685050964355 -24.12044906616211 3.341702699661255
4.889409065246582 -23.94991111755371 2.8914098739624023
8.649428367614746 -22.806650161743164 2.33842134475708
4.782577991485596 -23.426639556884766 2.025106430053711
0.827197253704071 -20.52645492553711 0.36996549367904663
2.3932957649230957 -19.71051788330078 0.13751648366451263
2.3932957649230957 -19.71051788330078 -0.08251174539327621
-0.9679980278015137 -24.02104377746582 -0.3663317859172821
1.1904345750808716 -29.54021453857422 -1.1062136888504028
25.738359451293945 -13.50853443145752 -1.087644338607788
2.7191503047943115 -22.39451026916504 -1.0945467948913574
6.107812404632568 -21.086708068847656 -1.0651671886444092
14.5928955078125 -17.87309455871582 -1.1195263862609863
25.738359451293945 -13.50853443145752 -1.4103612899780273
-21.563411712646484 -16.203895568847656 -1.6084949970245361
-0.9636034965515137 -23.911903381347656 -1.4271047115325928
0.8269628882408142 -20.520545959472656 -1.2247015237808228
2.7191405296325684 -22.39451026916504 -1.3452657461166382
6.107812404632568 -21.086708068847656 -1.3091579675674438
9.426430702209473 -19.8658390045166 -1.3112679719924927
11.157206535339355 -19.32488250732422 -1.3306854963302612
12.980761528015137 -18.805917739868164 -1.362674355506897
14.670970916748047 -17.968690872192383 -1.3833297491073608
23.544437408447266 -14.888593673706055 -1.6612038612365723
-21.760498046875 -16.351972579956055 -1.9261143207550049
-9.749975204467773 -20.54765510559082 -1.6093777418136597
0.8261962532997131 -20.501474380493164 -1.4519033432006836
2.7191405296325684 -22.39451026916504 -1.5963191986083984
4.487524509429932 -21.98149299621582 -1.587537169456482
8.001532554626465 -21.0982608795166 -1.596716284751892
11.157206535339355 -19.32488250732422 -1.5790162086486816
16.718759536743164 -17.406044006347656 -1.7078220844268799
18.57935905456543 -16.459911346435547 -1.7564424276351929
20.79056167602539 -15.623095512390137 -1.8402618169784546
23.24386215209961 -14.698564529418945 -1.9460529088974
7.164047718048096 -3.052314281463623 -0.5510360598564148
7.345317363739014 -1.8104686737060547 -0.5353243947029114
-27.828466415405273 -6.859140396118164 -2.347599983215332
-27.18631362915039 -9.076142311096191 -2.347599983215332
-26.367835998535156 -11.234296798706055 -2.347599983215332
-24.22199249267578 -15.317099571228027 -2.3473803997039795
-22.119441986083984 -16.62171745300293 -2.2662875652313232
-16.354379653930664 -23.693416595458984 -2.3581111431121826
-10.234159469604492 -26.98526382446289 -2.3639323711395264
-0.9636083841323853 -23.911903381347656 -1.9601736068725586
0.8261962532997131 -20.501474380493164 -1.6806025505065918
2.7191503047943115 -22.39451026916504 -1.8477641344070435
7.940185546875 -20.936492919921875 -1.8340568542480469
12.976362228393555 -18.799541473388672 -1.8710427284240723
16.57095718383789 -17.252235412597656 -1.9593666791915894
20.814945220947266 -15.6414155960083 -2.1326329708099365
23.25346565246582 -14.704628944396973 -2.2535245418548584
6.642040729522705 -3.486015558242798 -0.6144152879714966
6.676259517669678 -2.844492197036743 -0.5944050550460815
7.261083602905273 -1.7896971702575684 -0.6125414967536926
-26.86015510559082 -9.765624781721272e-06 -2.5
-26.079633712768555 -6.428075790405273 -2.5
-24.597143173217773 -8.211737632751465 -2.4135823249816895
-21.318017959594727 -13.480712890625 -2.347599983215332
-18.879497528076172 -16.72579002380371 -2.347599983215332
-17.473426818847656 -18.191747665405273 -2.3477346897125244
-15.965180397033691 -19.55379867553711 -2.3495373725891113
-12.639448165893555 -21.892168045043945 -2.3528249263763428
-10.844208717346191 -22.85369110107422 -2.3544178009033203
-7.045717716217041 -24.32470703125 -2.357074737548828
-0.8372313976287842 -20.776308059692383 -1.935317039489746
2.7191405296325684 -22.394521713256836 -2.09967041015625
4.483813285827637 -21.96333885192871 -2.0863945484161377
6.107812404632568 -21.086698532104492 -2.043311357498169
7.983339786529541 -21.050283432006836 -2.0954160690307617
13.11782169342041 -19.004384994506836 -2.1492843627929688
16.5745792388916 -17.25601577758789 -2.226971387863159
20.164159774780273 -15.152372360229492 -2.347599983215332
8.57888126373291 -1.3942186832427979 -0.8089523315429688
26.7730655670166 -2.1613378524780273 -2.5
-23.977596282958984 -1.9531249563442543e-05 -2.5
-23.899818420410156 -1.929384708404541 -2.5
-23.66706085205078 -3.8462791442871094 -2.5
-23.280818939208984 -5.738212585449219 -2.5
-20.059329986572266 -10.527958869934082 -2.362025022506714
-16.853384017944336 -14.930790901184082 -2.347599983215332
-14.240068435668945 -17.440927505493164 -2.347599983215332
-11.257953643798828 -19.499324798583984 -2.347599983215332
-7.990156173706055 -21.068300247192383 -2.3493363857269287
-2.718681573867798 -22.390409469604492 -2.3516621589660645
-0.9083105325698853 -22.539979934692383 -2.3520185947418213
7.956186294555664 -20.97869110107422 -2.3393447399139404
15.597309112548828 -16.238534927368164 -2.347599983215332
16.8533935546875 -14.930819511413574 -2.347599983215332
5.810449123382568 -3.674306631088257 -0.7167866230010986
5.912534236907959 -2.519101619720459 -0.6700849533081055
6.06456995010376 -2.024658203125 -0.6666235327720642
23.899824142456055 -1.929384708404541 -2.5
-21.64889144897461 -2.9296874345163815e-05 -2.5
-21.368534088134766 -3.47271466255188 -2.5
-21.019804000854492 -5.18093729019165 -2.5
-20.534759521484375 -6.855507850646973 -2.5
-19.16913604736328 -10.060751914978027 -2.5
-11.5482759475708 -16.730594635009766 -2.347599983215332
-10.164594650268555 -17.605566024780273 -2.347599983215332
-8.7149658203125 -18.36641502380371 -2.347599983215332
-5.655917644500732 -19.52654266357422 -2.347599983215332
-2.4504003524780273 -20.180946350097656 -2.347599983215332
0.8185790777206421 -20.31270408630371 -2.347599983215332
7.208832740783691 -19.00810432434082 -2.347599983215332
8.7149658203125 -18.366395950317383 -2.347599983215332
14.08250904083252 -14.66146469116211 -2.347599983215332
6.026816368103027 -2.012040853500366 -0.7337325811386108
8.420727729797363 -1.368496060371399 -0.9851778745651245
10.30984878540039 -0.8322851657867432 -1.1944465637207031
-19.66400909423828 -1.587441325187683 -2.5
-19.472509384155273 -3.1645898818969727 -2.5
-19.15471649169922 -4.72122049331665 -2.5
-17.4682559967041 -9.168066024780273 -2.5
-14.28429126739502 -12.65478515625 -2.4183452129364014
-12.832983016967773 -13.360527038574219 -2.347599983215332
-7.941694259643555 -16.736757278442383 -2.347599983215332
-5.154072284698486 -17.793954849243164 -2.347599983215332
-3.7055370807647705 -18.1509952545166 -2.347599983215332
0.7459472417831421 -18.51032257080078 -2.347599983215332
2.232988119125366 -18.390302658081055 -2.347599983215332
3.705556631088257 -18.1509952545166 -2.347599983215332
5.154091835021973 -17.793954849243164 -2.347599983215332
7.941699028015137 -16.736757278442383 -2.347599983215332
10.523622512817383 -15.246073722839355 -2.347599983215332
12.83297348022461 -13.360536575317383 -2.347599983215332
5.112128734588623 -3.8415136337280273 -0.8103464841842651
5.261845588684082 -2.7616307735443115 -0.7530572414398193
8.412782669067383 -1.3672168254852295 -1.0800834894180298
10.30984878540039 -0.8322851657867432 -1.3107497692108154
-18.057313919067383 -1.4577147960662842 -2.5
-17.881454467773438 -2.9060254096984863 -2.5
-17.589628219604492 -4.33547830581665 -2.5
-17.183725357055664 -5.736777305603027 -2.5
-16.04096221923828 -8.4189453125 -2.5
-15.311508178710938 -9.6824312210083 -2.5
-13.560063362121582 -12.01317310333252 -2.5
-12.519145011901855 -13.033808708190918 -2.493964672088623
-11.029516220092773 -13.508729934692383 -2.4066336154937744
-9.663740158081055 -14.000361442565918 -2.347599983215332
-4.732949256896973 -16.34004783630371 -2.347599983215332
-2.0505223274230957 -16.887664794921875 -2.347599983215332
-0.6849804520606995 -16.997900009155273 -2.347599983215332
0.6849902272224426 -16.997900009155273 -2.347599983215332
2.050537109375 -16.887676239013672 -2.347599983215332
9.663759231567383 -14.000350952148438 -2.347599983215332
12.494589805603027 -13.008251190185547 -2.4890730381011963
13.560072898864746 -12.01317310333252 -2.5
4.864580154418945 -3.6554980278015137 -0.8397182822227478
4.946713924407959 -3.128115177154541 -0.8076779246330261
5.012255668640137 -2.6306347846984863 -0.7811639308929443
5.95266580581665 -1.9872949123382568 -0.8660306930541992
6.975575923919678 -1.719326138496399 -0.9914324879646301
10.309853553771973 -0.8322948813438416 -1.42737877368927
-16.743755340576172 -1.9531249563442543e-05 -2.5
-16.689456939697266 -1.347314476966858 -2.5
-16.257205963134766 -4.007060527801514 -2.5
-15.882064819335938 -5.302226543426514 -2.5
-12.532876014709473 -11.10317325592041 -2.5
-11.598817825317383 -12.075634956359863 -2.5
-9.487162590026855 -13.74454116821289 -2.4935946464538574
-8.125551223754883 -14.073857307434082 -2.426441192626953
-5.575473308563232 -14.70131778717041 -2.347599983215332
-4.374423503875732 -15.102294921875 -2.347599983215332
-0.6330907940864563 -15.710302352905273 -2.347599983215332
1.8952099084854126 -15.608427047729492 -2.347599983215332
5.575473308563232 -14.70131778717041 -2.347599983215332
6.75023889541626 -14.225800514221191 -2.351039171218872
8.082900047302246 -13.999979972839355 -2.4137017726898193
10.589526176452637 -12.969804763793945 -2.5
11.598817825317383 -12.075654029846191 -2.5
12.532890319824219 -11.10317325592041 -2.5
4.864580154418945 -3.6554980278015137 -0.9085406064987183
4.718915939331055 -2.9840526580810547 -0.8336321711540222
4.788686275482178 -2.5132908821105957 -0.8074868321418762
5.93700647354126 -1.9820605516433716 -0.9345446825027466
6.970160961151123 -1.7179882526397705 -1.0718551874160767
-15.359564781188965 -2.4961814880371094 -2.5
-15.10891056060791 -3.724013566970825 -2.5
-14.76025390625 -4.927695274353027 -2.5
-13.77865219116211 -7.231591701507568 -2.5
-13.152070045471191 -8.316874504089355 -2.5
-11.647636413574219 -10.318925857543945 -2.5
-10.779541015625 -11.222704887390137 -2.5
-8.839692115783691 -12.806513786315918 -2.5
-7.78054666519165 -13.476298332214355 -2.5
-1.784609317779541 -14.697636604309082 -2.3786213397979736
-0.5933251976966858 -14.723193168640137 -2.367305278778076
0.593066394329071 -14.716581344604492 -2.3662424087524414
4.202387809753418 -14.50830078125 -2.4266715049743652
5.449902057647705 -14.370195388793945 -2.4691274166107178
6.658481121063232 -14.032450675964355 -2.4953360557556152
9.841547966003418 -12.05370044708252 -2.5
11.647645950317383 -10.318915367126465 -2.5
4.864580154418945 -3.6554980278015137 -0.9775912165641785
4.583544731140137 -2.405634641647339 -0.8316383361816406
5.926117897033691 -1.9784374237060547 -1.0037271976470947
6.963593482971191 -1.7163769006729126 -1.1522332429885864
8.3486328125 -1.356787085533142 -1.3588628768920898
-13.783231735229492 -4.601523399353027 -2.5
-12.866605758666992 -6.7529296875 -2.5
-11.573334693908691 -8.696806907653809 -2.490658760070801
-10.876654624938965 -9.635869026184082 -2.5
-10.066010475158691 -10.479833602905273 -2.5
-9.190093040466309 -11.255829811096191 -2.5
-7.265527248382568 -12.584267616271973 -2.5
-6.229355335235596 -13.128095626831055 -2.5
-5.152788162231445 -13.586767196655273 -2.5
2.9049463272094727 -14.229423522949219 -2.4985995292663574
5.152792930603027 -13.586787223815918 -2.5
8.254594802856445 -11.95882797241211 -2.5
10.066020011901855 -10.479843139648438 -2.5
10.876660346984863 -9.635878562927246 -2.5
4.684887409210205 -2.9625487327575684 -0.9536458849906921
4.53369140625 -2.379462718963623 -0.8809002637863159
5.920859336853027 -1.9766699075698853 -1.073923110961914
6.956791877746582 -1.714697241783142 -1.2327033281326294
10.309853553771973 -0.8322948813438416 -1.7795302867889404
-13.229731559753418 -3.2608494758605957 -2.5
-12.924443244934082 -4.314814567565918 -2.5
-12.535331726074219 -5.340810298919678 -2.5
-10.892934799194336 -8.185537338256836 -2.5
-10.198959350585938 -9.035497665405273 -2.5
-8.617485046386719 -10.554521560668945 -2.5
-4.831728458404541 -12.74022388458252 -2.5
-3.7908935546875 -13.087724685668945 -2.5
-2.7254881858825684 -13.350302696228027 -2.5
-0.5486376881599426 -13.614619255065918 -2.5
0.5486523509025574 -13.614619255065918 -2.5
2.7254881858825684 -13.350292205810547 -2.5
5.841225624084473 -12.3101167678833 -2.5
6.812846660614014 -11.80020523071289 -2.5
7.740283012390137 -11.21371078491211 -2.5
8.617505073547363 -10.554521560668945 -2.5
9.4388427734375 -9.826884269714355 -2.5
4.53369140625 -2.379462718963623 -0.9394332766532898
6.954882621765137 -1.7142285108566284 -1.3142516613006592
8.33803653717041 -1.3550585508346558 -1.5499099493026733
-12.823447227478027 -1.9531249563442543e-05 -2.5
-12.7818603515625 -1.0318652391433716 -2.5
-12.657387733459473 -2.0570311546325684 -2.5
-12.450815200805664 -3.068857431411743 -2.5
-11.797304153442383 -5.026376724243164 -2.5
-11.354589462280273 -5.959364891052246 -2.5
-10.838241577148438 -6.853701114654541 -2.5
-9.598481178283691 -8.503515243530273 -2.5
-8.883119583129883 -9.248310089111328 -2.5
-7.28454065322876 -10.553485870361328 -2.5
-6.411723613739014 -11.105439186096191 -2.5
-5.497314453125 -11.58535099029541 -2.5
-4.547255992889404 -11.99013614654541 -2.5
-3.567700147628784 -12.317148208618164 -2.5
-0.5163378715515137 -12.8130464553833 -2.5
3.5677196979522705 -12.317157745361328 -2.5
5.497319221496582 -11.58536148071289 -2.5
6.411728382110596 -11.105439186096191 -2.5
8.8831148147583 -9.248310089111328 -2.5
9.598490715026855 -8.503535270690918 -2.5
4.864580154418945 -3.6554980278015137 -1.1862943172454834
4.53369140625 -2.379462718963623 -0.9982035756111145
5.910815238952637 -1.9733202457427979 -1.214864730834961
8.33060073852539 -1.3538671731948853 -1.645402431488037
12.7818603515625 -1.0318456888198853 -2.5
-12.068251609802246 -0.9742480516433716 -2.5
-11.950712203979492 -1.94216787815094 -2.5
-11.755678176879883 -2.897529125213623 -2.5
-11.484418869018555 -3.834052562713623 -2.5
-9.062597274780273 -8.028769493103027 -2.5
-7.657338619232178 -9.378554344177246 -2.5
-6.877841472625732 -9.964296340942383 -2.5
-6.053759574890137 -10.485429763793945 -2.5
-3.368520498275757 -11.629491806030273 -2.5
-1.459389567375183 -12.019248008728027 -2.5
-0.48750975728034973 -12.097684860229492 -2.5
1.4594042301177979 -12.019238471984863 -2.5
6.053764343261719 -10.485419273376465 -2.5
6.877856254577637 -9.964286804199219 -2.5
7.6573486328125 -9.378544807434082 -2.5
9.062606811523438 -8.028769493103027 -2.5
4.684887409210205 -2.9625487327575684 -1.1445358991622925
6.952016353607178 -1.7135252952575684 -1.4784351587295532
8.323168754577637 -1.352636694908142 -1.7411409616470337
12.068251609802246 -0.97425776720047 -2.5
-11.316054344177246 -1.839052677154541 -2.5
-11.13138198852539 -2.74365234375 -2.5
-10.547103881835938 -4.493710994720459 -2.5
-9.165224075317383 -6.887216567993164 -2.5
-8.581303596496582 -7.602392196655273 -2.5
-7.941747665405273 -8.268241882324219 -2.5
-6.512578010559082 -9.435107231140137 -2.5
-5.732255935668945 -9.928584098815918 -2.5
-3.1896190643310547 -11.01187515258789 -2.5
-2.2931933403015137 -11.23282241821289 -2.5
-1.3818846940994263 -11.38094711303711 -2.5
0.4616406261920929 -11.45522403717041 -2.5
4.914760589599609 -10.357626914978027 -2.5
6.51260232925415 -9.435097694396973 -2.5
7.941752910614014 -8.268251419067383 -2.5
8.581313133239746 -7.602382659912109 -2.5
4.684887409210205 -2.9625487327575684 -1.208728313446045
4.53369140625 -2.379462718963623 -1.1165244579315186
6.112621784210205 -2.0406835079193115 -1.4052621126174927
6.94665002822876 -1.7122167348861694 -1.560149073600769
-10.88370132446289 0.0 -2.5
-10.848407745361328 -0.875781238079071 -2.5
-10.742758750915527 -1.74587881565094 -2.5
-10.567436218261719 -2.6046385765075684 -2.5
-9.637030601501465 -5.057919979095459 -2.5
-9.198798179626465 -5.816953182220459 -2.5
-8.700883865356445 -6.538300514221191 -2.5
-6.182641506195068 -8.957109451293945 -2.5
-5.441850662231445 -9.425576210021973 -2.5
-4.665751934051514 -9.832880973815918 -2.5
-3.8594090938568115 -10.176445007324219 -2.5
-3.028027296066284 -10.45400333404541 -2.5
-1.3118798732757568 -10.80434513092041 -2.5
1.3118896484375 -10.80435562133789 -2.5
2.1770262718200684 -10.663759231567383 -2.5
3.8594236373901367 -10.176445007324219 -2.5
4.665766716003418 -9.832900047302246 -2.5
6.883354187011719 -8.43057632446289 -2.5
4.684887409210205 -2.9625487327575684 -1.273232340812683
6.941171646118164 -1.7108495235443115 -1.6421117782592773
-10.356371879577637 -5.859374869032763e-05 -2.5
-10.222235679626465 -1.6612792015075684 -2.5
-10.055410385131836 -2.4784374237060547 -2.5
-9.170097351074219 -4.812841892242432 -2.5
-8.75308609008789 -5.535107135772705 -2.5
-6.549824237823486 -8.022079467773438 -2.5
-5.178173542022705 -8.968867301940918 -2.5
-2.881303548812866 -9.947480201721191 -2.5
-1.2483203411102295 -10.28084945678711 -2.5
-0.4169970750808716 -10.347968101501465 -2.5
2.071542978286743 -10.147079467773438 -2.5
5.178183555603027 -8.968867301940918 -2.5
5.88308572769165 -8.523115158081055 -2.5
6.54983377456665 -8.022079467773438 -2.5
4.864580154418945 -3.6554980278015137 -1.4688934087753296
4.684887409210205 -2.962538957595825 -1.33806574344635
4.53369140625 -2.379462718963623 -1.2359954118728638
-9.875297546386719 -9.765624781721272e-06 -2.5
-9.843271255493164 -0.7946581840515137 -2.5
-9.747416496276855 -1.5840917825698853 -2.5
-9.58834457397461 -2.3633203506469727 -2.5
-9.367079734802246 -3.127207040786743 -2.5
-9.085078239440918 -3.870790958404541 -2.5
-7.894731044769287 -5.932528972625732 -2.5
-7.391762733459473 -6.548525333404541 -2.5
-6.245585918426514 -7.649453163146973 -2.5
-4.233461856842041 -8.921854972839355 -2.5
-1.9753124713897705 -9.675712585449219 -2.5
-0.39763182401657104 -9.867304801940918 -2.5
0.3976415991783142 -9.867294311523438 -2.5
2.747485399246216 -9.485419273376465 -2.5
3.501840829849243 -9.233583450317383 -2.5
4.233471393585205 -8.921845436096191 -2.5
4.937655925750732 -8.552275657653809 -2.5
5.609828948974609 -8.127226829528809 -2.5
6.840864181518555 -7.122109413146973 -2.5
4.684887409210205 -2.9625487327575684 -1.4032464027404785
4.53369140625 -2.379462718963623 -1.2962042093276978
5.11514139175415 -2.1793456077575684 -1.4075655937194824
5.793612957000732 -1.9341894388198853 -1.5462676286697388
6.939428329467773 -1.7104198932647705 -1.8093386888504028
9.747421264648438 -1.5841113328933716 -2.5
9.843280792236328 -0.7946386337280273 -2.5
-9.434598922729492 9.765624781721272e-06 -2.5
-9.160444259643555 -2.2578516006469727 -2.5
-8.949057579040527 -2.9876463413238525 -2.5
-8.679638862609863 -3.69805645942688 -2.5
-8.353925704956055 -4.384482383728027 -2.5
-7.974023342132568 -5.04248046875 -2.5
-7.542421817779541 -5.667763710021973 -2.5
-7.061894416809082 -6.256298542022705 -2.5
-5.359457969665527 -7.76452112197876 -2.5
-3.3455564975738525 -8.821494102478027 -2.5
-2.6248631477355957 -9.062129020690918 -2.5
-1.8871630430221558 -9.243926048278809 -2.5
-0.3798877000808716 -9.426962852478027 -2.5
1.8871581554412842 -9.243945121765137 -2.5
2.624872922897339 -9.062108993530273 -2.5
4.044550895690918 -8.523700714111328 -2.5
4.717304706573486 -8.170605659484863 -2.5
5.966879844665527 -7.308095455169678 -2.5
6.535585880279541 -6.804267406463623 -2.5
7.061903953552246 -6.256298542022705 -2.5
9.40401840209961 -0.75916987657547 -2.5
-8.56459903717041 -2.8592967987060547 -2.5
-8.306742668151855 -3.539179563522339 -2.5
-7.99502420425415 -4.196132659912109 -2.5
-7.631450176239014 -4.825839519500732 -2.5
-6.254799842834473 -6.511923789978027 -2.5
-5.710517406463623 -6.994140625 -2.5
-5.129213809967041 -7.430956840515137 -2.5
-3.870781183242798 -8.157509803771973 -2.5
-3.2018260955810547 -8.44252872467041 -2.5
-2.512094736099243 -8.672782897949219 -2.5
-1.0883495807647705 -8.963446617126465 -2.5
-0.3635546863079071 -9.021952629089355 -2.5
0.3635790944099426 -9.021963119506836 -2.5
1.0883593559265137 -8.963446617126465 -2.5
1.806093692779541 -8.846816062927246 -2.5
2.5121092796325684 -8.672782897949219 -2.5
4.514638423919678 -7.819580078125 -2.5
5.129218578338623 -7.430966854095459 -2.5
6.254804611206055 -6.511943340301514 -2.5
6.758515357971191 -5.987519264221191 -2.5
4.684887409210205 -2.9625487327575684 -1.534727692604065
4.53369140625 -2.379462718963623 -1.4176561832427979
5.802880764007568 -1.93728506565094 -1.6938549280166626
-8.655146598815918 0.0 -2.5
-8.627079963684082 -0.6964550614356995 -2.5
-8.209726333618164 -2.7408103942871094 -2.5
-7.315244197845459 -4.625878810882568 -2.5
-6.919286727905273 -5.199521541595459 -2.5
-4.916679382324219 -7.123056411743164 -2.5
-4.327578067779541 -7.495595455169678 -2.5
-3.710400342941284 -7.819501876831055 -2.5
-2.408007860183716 -8.313437461853027 -2.5
-1.7312499284744263 -8.480243682861328 -2.5
1.0432616472244263 -8.592041015625 -2.5
2.408017635345459 -8.313417434692383 -2.5
3.069164991378784 -8.092704772949219 -2.5
3.7104101181030273 -7.819521427154541 -2.5
5.473920822143555 -6.704326152801514 -2.5
5.995639324188232 -6.242118835449219 -2.5
6.478481292724609 -5.739443302154541 -2.5
4.53369140625 -2.379462718963623 -1.47893488407135
5.264335632324219 -2.242919921875 -1.6528359651565552
5.807543754577637 -1.9388476610183716 -1.7684922218322754
8.403656959533691 -2.0713281631469727 -2.5
8.627094268798828 -0.6964648365974426 -2.5
-8.308671951293945 0.0 -2.5
-8.281733512878418 -0.6685839891433716 -2.5
-8.201079368591309 -1.332802653312683 -2.5
-8.067231178283691 -1.9884082078933716 -2.5
-7.881073951721191 -2.631093740463257 -2.5
-7.022407054901123 -4.440712928771973 -2.5
-5.755624771118164 -5.992255687713623 -2.5
-5.254775047302246 -6.435956954956055 -2.5
-4.719858169555664 -6.83791971206665 -2.5
-4.154340744018555 -7.195527076721191 -2.5
-2.946298837661743 -7.768759727478027 -2.5
-2.3116111755371094 -7.980654239654541 -2.5
-1.001503825187683 -8.248114585876465 -2.5
0.3345605432987213 -8.301962852478027 -2.5
1.0015087127685547 -8.248095512390137 -2.5
1.661953091621399 -8.14077091217041 -2.5
2.946298837661743 -7.768759727478027 -2.5
3.5618748664855957 -7.50646448135376 -2.5
4.154350280761719 -7.195537090301514 -2.5
4.71987771987915 -6.837900161743164 -2.5
6.21914529800415 -5.509687423706055 -2.5
5.718066215515137 -4.296845436096191 -2.152135133743286
5.810610294342041 -1.9398632049560547 -1.8432137966156006
8.20108413696289 -1.332802653312683 -2.5
8.281733512878418 -0.6685742139816284 -2.5
-7.754721641540527 -1.9113867282867432 -2.5
-7.575780868530273 -2.529179573059082 -2.5
-7.347704887390137 -3.1305761337280273 -2.5
-6.750370979309082 -4.268691539764404 -2.5
-5.978212833404541 -5.296240329742432 -2.5
-5.051225662231445 -6.186630725860596 -2.5
-3.993408203125 -6.916787147521973 -2.5
-2.832163095474243 -7.46780252456665 -2.5
-0.962695300579071 -7.92858362197876 -2.5
0.9627050757408142 -7.92858362197876 -2.5
2.2220752239227295 -7.671483993530273 -2.5
2.8321728706359863 -7.46780252456665 -2.5
3.423891544342041 -7.21569299697876 -2.5
3.993412971496582 -6.916787147521973 -2.5
5.978217601776123 -5.296240329742432 -2.5
6.385009765625 -4.798027038574219 -2.5
7.754731178283691 -1.911376953125 -2.5
-7.662035942077637 -0.6185449361801147 -2.5
-7.587416648864746 -1.2330760955810547 -2.5
-7.463583946228027 -1.8396093845367432 -2.5
-7.291357040405273 -2.434218645095825 -2.5
-7.071840763092041 -3.0130271911621094 -2.5
-6.806464672088623 -3.5723142623901367 -2.5
-6.496938228607178 -4.10842752456665 -2.5
-6.145277976989746 -4.617890357971191 -2.5
-5.324941158294678 -5.543857097625732 -2.5
-4.861591815948486 -5.954355239868164 -2.5
-4.366689205169678 -6.326240062713623 -2.5
-3.2953367233276367 -6.944785118103027 -2.5
-2.1386425495147705 -7.383466720581055 -2.5
-1.5375927686691284 -7.531620979309082 -2.5
-0.9265673756599426 -7.630927562713623 -2.5
-0.3095166087150574 -7.680741786956787 -2.5
0.9265576004981995 -7.630918025970459 -2.5
2.1386523246765137 -7.383466720581055 -2.5
3.29534649848938 -6.944794654846191 -2.5
3.8434813022613525 -6.65709924697876 -2.5
4.36669921875 -6.326259613037109 -2.5
4.861586570739746 -5.954355239868164 -2.5
5.324955940246582 -5.543867111206055 -2.5
6.117402076721191 -3.868417978286743 -2.3539507389068604
5.164028167724609 -2.200185537338257 -1.8255558013916016
7.587426662445068 -1.2330858707427979 -2.5
-7.382851600646973 -0.5960058569908142 -2.5
-7.310946941375732 -1.188134789466858 -2.5
-7.191640377044678 -1.7725878953933716 -2.5
-5.921362400054932 -4.449628829956055 -2.5
-4.684433460235596 -5.737343788146973 -2.5
-3.1752684116363525 -6.691747665405273 -2.5
-2.626513719558716 -6.925556659698486 -2.5
-0.29823729395866394 -7.400868892669678 -2.5
0.2982470691204071 -7.400868892669678 -2.5
0.8928027153015137 -7.352880477905273 -2.5
2.060722589492798 -7.114443302154541 -2.5
3.1752734184265137 -6.691738128662109 -2.5
4.207582950592041 -6.09573221206665 -2.5
4.6844482421875 -5.737402439117432 -2.5
5.544120788574219 -4.911669731140137 -2.5
6.112968444824219 -3.865595579147339 -2.441195011138916
4.53369140625 -2.379462718963623 -1.728179931640625
5.149101257324219 -2.1938183307647705 -1.8891140222549438
7.19164514541626 -1.7725878953933716 -2.5
7.310966491699219 -1.1881542205810547 -2.5
-7.121416091918945 -0.574902355670929 -2.5
-7.052055358886719 -1.1460644006729126 -2.5
-6.936977386474609 -1.7098242044448853 -2.5
-6.326210975646973 -3.3202733993530273 -2.5
-6.038530349731445 -3.818544864654541 -2.5
-4.5185546875 -5.534228324890137 -2.5
-4.058583736419678 -5.879872798919678 -2.5
-2.533505916595459 -6.680322170257568 -2.5
-1.987734317779541 -6.862509727478027 -2.5
-0.28768065571784973 -7.138798713684082 -2.5
0.8611913919448853 -7.092499732971191 -2.5
1.42910635471344 -7.000205039978027 -2.5
1.9877538681030273 -6.862509727478027 -2.5
2.533505916595459 -6.680322170257568 -2.5
3.0628368854522705 -6.454794883728027 -2.5
4.518569469451904 -5.534238338470459 -2.5
5.347802639007568 -4.737743854522705 -2.5
5.808095455169678 -1.9390331506729126 -2.1426053047180176
6.936977386474609 -1.709814429283142 -2.5
7.052070140838623 -1.1460741758346558 -2.5
7.121430397033691 -0.574902355670929 -2.5
-6.697954177856445 -1.65090811252594 -2.5
-6.108232498168945 -3.2058591842651367 -2.5
-5.514882564544678 -4.144169807434082 -2.5
-4.778700828552246 -4.975146293640137 -2.5
-2.957289934158325 -6.232372760772705 -2.5
-0.2777636647224426 -6.892812252044678 -2.5
1.3798681497573853 -6.759003639221191 -2.5
1.9192626476287842 -6.626044750213623 -2.5
2.446220636367798 -6.450136661529541 -2.5
2.9573047161102295 -6.232382774353027 -2.5
3.449208974838257 -5.974199295043945 -2.5
4.778700828552246 -4.975156307220459 -2.5
5.514887809753418 -4.144169807434082 -2.5
5.830463886260986 -3.686962842941284 -2.5
6.108242034912109 -3.2058496475219727 -2.5
-6.323735237121582 -2.1111814975738525 -2.5
-6.133349418640137 -2.6131932735443115 -2.5
-5.903188228607178 -3.0982420444488525 -2.5
-5.329751014709473 -4.005068302154541 -2.5
-3.3334226608276367 -5.773662090301514 -2.5
-2.858022451400757 -6.023163795471191 -2.5
-1.854824185371399 -6.403623104095459 -2.5
0.2684423625469208 -6.661435604095459 -2.5
0.8035986423492432 -6.618251800537109 -2.5
1.8548290729522705 -6.403623104095459 -2.5
2.858027219772339 -6.023163795471191 -2.5
3.3334226608276367 -5.773652076721191 -2.5
4.216425895690918 -5.164169788360596 -2.5
4.618290901184082 -4.808154106140137 -2.5
5.329765319824219 -4.005048751831055 -2.5
5.165097713470459 -2.200634717941284 -2.10532808303833
6.473114967346191 -1.595497965812683 -2.5
6.645224571228027 -0.5364745855331421 -2.5
-6.448559284210205 -9.765624781721272e-06 -2.5
-6.427651405334473 -0.5189062356948853 -2.5
-6.365053653717041 -1.034423828125 -2.5
-6.261176586151123 -1.543251872062683 -2.5
-5.932538986206055 -2.5276172161102295 -2.5
-5.709911823272705 -2.9968066215515137 -2.5
-5.155249118804932 -3.8739354610443115 -2.5
-4.826816082000732 -4.276201248168945 -2.5
-3.6631932258605957 -5.307060241699219 -2.5
-3.2242772579193115 -5.584619045257568 -2.5
-2.7644481658935547 -5.825966835021973 -2.5
-2.286689519882202 -6.029501914978027 -2.5
-1.7940917015075684 -6.19396448135376 -2.5
-0.7772851586341858 -6.401552677154541 -2.5
0.25965818762779236 -6.443329811096191 -2.5
1.2898778915405273 -6.318251609802246 -2.5
2.286699056625366 -6.029511451721191 -2.5
2.764457941055298 -5.82595682144165 -2.5
3.2242918014526367 -5.584619045257568 -2.5
3.6632080078125 -5.307070255279541 -2.5
4.078373908996582 -4.995107173919678 -2.5
4.467080116271973 -4.650732517242432 -2.5
5.155268669128418 -3.8739256858825684 -2.5
5.202246189117432 -2.2164647579193115 -2.1922454833984375
5.794252872467041 -1.9344042539596558 -2.368206262588501
6.427651405334473 -0.5188964605331421 -2.5
-6.161571979522705 -1.0013574361801147 -2.5
-5.921162128448486 -1.9767675399780273 -2.5
-5.527382850646973 -2.901005744934082 -2.5
-5.27603006362915 -3.336367130279541 -2.5
-4.672509670257568 -4.139472484588623 -2.5
-3.546093702316284 -5.137421607971191 -2.5
-2.676074266433716 -5.639716625213623 -2.5
-1.7367430925369263 -5.995947360992432 -2.5
-1.2486425638198853 -6.116259574890137 -2.5
0.7524462938308716 -6.196904182434082 -2.5
1.2486523389816284 -6.116269588470459 -2.5
1.7367528676986694 -5.99596643447876 -2.5
2.676079034805298 -5.639736175537109 -2.5
3.947998046875 -4.835410118103027 -2.5
4.990463733673096 -3.7500877380371094 -2.5
5.788959980010986 -1.93264639377594 -2.4441802501678467
6.06102991104126 -1.4939160346984863 -2.5
-6.047377586364746 0.0 -2.5
-5.354677677154541 -2.810370922088623 -2.5
-5.111181735992432 -3.232119083404541 -2.5
-4.834521293640137 -3.6329197883605957 -2.5
-3.8246238231658936 -4.684326171875 -2.5
-3.023686408996582 -5.237177848815918 -2.5
-2.592456102371216 -5.463505744934082 -2.5
-1.6824755668640137 -5.808603286743164 -2.5
-1.2096288204193115 -5.92516565322876 -2.5
-0.2435009777545929 -6.04248046875 -2.5
0.7289355397224426 -6.003281116485596 -2.5
1.2096385955810547 -5.92516565322876 -2.5
2.592470645904541 -5.463505744934082 -2.5
4.189169883728027 -4.361386775970459 -2.5
5.563461780548096 -2.3703808784484863 -2.5
5.871660232543945 -1.4472362995147705 -2.5
5.969067096710205 -0.9700683355331421 -2.5
6.027768611907959 -0.4866113066673279 -2.5
-5.862519264221191 -9.765624781721272e-06 -2.5
-5.692158222198486 -1.4029979705810547 -2.5
-5.560810565948486 -1.8564647436141968 -2.5
-5.190996170043945 -2.7244529724121094 -2.5
-4.686738014221191 -3.521865129470825 -2.5
-3.707714796066284 -4.541142463684082 -2.5
-0.7066406011581421 -5.819765567779541 -2.5
-0.2360546886920929 -5.857753753662109 -2.5
1.1726561784744263 -5.744052410125732 -2.5
2.0788817405700684 -5.481552600860596 -2.5
3.7077293395996094 -4.541122913360596 -2.5
4.061118125915527 -4.228066444396973 -2.5
4.388164043426514 -3.887587785720825 -2.5
4.686757564544678 -3.5218749046325684 -2.5
4.954941272735596 -3.1333203315734863 -2.5
5.191005706787109 -2.7244627475738525 -2.5
5.393403053283691 -2.297919988632202 -2.5
3.8347020149230957 -0.3095703125 -1.640580654144287
-5.394340515136719 -1.8008984327316284 -2.5
-5.231943130493164 -2.229130744934082 -2.5
-3.230595588684082 -4.680322170257568 -2.5
-2.843500852584839 -4.925107479095459 -2.5
-2.437978506088257 -5.137939453125 -2.5
-2.0166454315185547 -5.317461013793945 -2.5
-1.5822265148162842 -5.462480545043945 -2.5
-1.1375536918640137 -5.572089672088623 -2.5
-0.6854931712150574 -5.645566463470459 -2.5
-0.22898437082767487 -5.682412147521973 -2.5
0.22899901866912842 -5.682431697845459 -2.5
2.016650438308716 -5.317461013793945 -2.5
2.437993049621582 -5.137959003448486 -2.5
2.843515634536743 -4.925107479095459 -2.5
3.230605363845825 -4.680341720581055 -2.5
3.9395458698272705 -4.101503849029541 -2.5
5.035620212554932 -2.642900228500366 -2.5
5.231947898864746 -2.229130744934082 -2.5
5.394355297088623 -1.8009082078933716 -2.5
-5.520165920257568 -9.765624781721272e-06 -2.5
-5.448671817779541 -0.8855175375938416 -2.5
-5.359745979309082 -1.3210644721984863 -2.5
-5.236073970794678 -1.7480566501617432 -2.5
-5.078422546386719 -2.1637303829193115 -2.5
-4.88784646987915 -2.565361261367798 -2.5
-4.665575981140137 -2.9503417015075684 -2.5
-3.8239402770996094 -3.981142520904541 -2.5
-2.366450071334839 -4.987187385559082 -2.5
-1.9574657678604126 -5.161435604095459 -2.5
-0.6653710603713989 -5.479911804199219 -2.5
0.6653808355331421 -5.479902267456055 -2.5
3.491201162338257 -4.275957107543945 -2.5
3.8239550590515137 -3.981152296066284 -2.5
4.131908893585205 -3.6605467796325684 -2.5
4.413056373596191 -3.3162012100219727 -2.5
4.665590763092041 -2.950331926345825 -2.5
5.236079216003418 -1.7480664253234863 -2.5
-5.291831016540527 -0.8600195050239563 -2.5
-5.205478191375732 -1.2830370664596558 -2.5
-4.747168064117432 -2.491513729095459 -2.5
-4.531283855438232 -2.865429639816284 -2.5
-4.286020278930664 -3.2207517623901367 -2.5
-4.012963771820068 -3.555185556411743 -2.5
-3.713876962661743 -3.8665428161621094 -2.5
-3.045546770095825 -4.412246227264404 -2.5
-2.298330068588257 -4.843632698059082 -2.5
-1.9011328220367432 -5.012880802154541 -2.5
-1.0723876953125 -5.2529296875 -2.5
-0.6462206840515137 -5.322177410125732 -2.5
0.21588866412639618 -5.356923580169678 -2.5
0.6462304592132568 -5.322187423706055 -2.5
1.0723974704742432 -5.252919673919678 -2.5
1.49160635471344 -5.149599552154541 -2.5
1.9011377096176147 -5.012870788574219 -2.5
2.29833984375 -4.843652248382568 -2.5
3.0455565452575684 -4.412236213684082 -2.5
3.3907127380371094 -4.15286111831665 -2.5
3.713881731033325 -3.866572141647339 -2.5
4.286030292510986 -3.2207324504852295 -2.5
4.531298637390137 -2.865419864654541 -2.5
4.932255744934082 -2.101435422897339 -2.5
5.085361003875732 -1.6977441310882568 -2.5
5.205488204956055 -1.283046841621399 -2.5
