ply
format ascii 1.0
element vertex 776
property float x
property float y
property float z
end_header
6.353374004364014 -21.934383392333984 5.848445892333984
2.8533008098602295 -23.499101638793945 5.783731460571289
5.980317115783691 -20.646434783935547 5.251923084259033
3.1151561737060547 -25.65558624267578 6.011821746826172
4.222368240356445 -20.68250846862793 4.9103875160217285
6.148476600646973 -21.227001190185547 5.140779495239258
8.544535636901855 -22.530067443847656 5.605177402496338
11.358304977416992 -23.937118530273438 6.163302421569824
2.9082469940185547 -23.95157241821289 5.3314056396484375
6.109086990356445 -21.090986251831055 4.8520002365112305
4.462016582489014 -21.85640525817871 4.670539379119873
6.14358377456665 -21.21009635925293 4.6233696937561035
8.562880516052246 -22.57845687866211 5.055878639221191
4.497739315032959 -22.031375885009766 4.448421478271484
6.312460899353027 -21.79314422607422 4.488609313964844
6.526674747467041 -22.532684326171875 4.371375560760498
6.431625843048096 -22.20452117919922 4.043178081512451
7.971152305603027 -21.0181827545166 3.9315404891967773
10.742392539978027 -22.639101028442383 4.38270378112793
6.534199237823486 -22.55868148803711 3.839954137802124
10.81630802154541 -22.794872283935547 4.1252570152282715
3.215576171875 -26.482685089111328 4.058736324310303
4.708847522735596 -23.065486907958984 3.58162522315979
6.644370079040527 -22.93903350830078 3.6334612369537354
8.726801872253418 -23.01067352294922 3.7442173957824707
10.716879844665527 -22.58534049987793 3.8034112453460693
4.973862171173096 -24.363582611083984 3.501729726791382
6.349668025970459 -21.92159080505371 2.9564287662506104
2.9862987995147705 -24.594316482543945 2.9305663108825684
6.531074047088623 -22.547861099243164 2.776761293411255
8.199697494506836 -21.620819091796875 2.735217332839966
4.870625019073486 -23.857919692993164 2.607037305831909
6.614970684051514 -22.837480545043945 2.5456035137176514
6.394716739654541 -22.07707977294922 2.203517436981201
8.649428367614746 -22.806650161743164 2.33842134475708
4.782577991485596 -23.426639556884766 2.025106430053711
2.465019464492798 -20.301288604736328 1.0490347146987915
2.3932859897613525 -19.710506439208984 0.5777276754379272
2.393300771713257 -19.71051788330078 0.3575781285762787
2.3932957649230957 -19.71051788330078 -0.08251174539327621
-0.9760400056838989 -24.22059440612793 -0.6381105184555054
-0.9713671803474426 -24.104549407958984 -0.9026594161987305
1.1904345750808716 -29.54021453857422 -1.1062136888504028
25.738359451293945 -13.50853443145752 -1.087644338607788
28.103612899780273 -9.382343292236328 -1.1086148023605347
0.9326806664466858 -23.145166397094727 -1.123900294303894
2.7191503047943115 -22.39451026916504 -1.0945467948913574
12.820453643798828 -18.57366180419922 -1.0950180292129517
18.480506896972656 -16.372343063354492 -1.197930932044983
20.664031982421875 -15.528017044067383 -1.2541319131851196
23.24641990661621 -14.700175285339355 -1.3344963788986206
25.738359451293945 -13.50853443145752 -1.4103612899780273
-21.563411712646484 -16.203895568847656 -1.6084949970245361
-0.9636034965515137 -23.911903381347656 -1.4271047115325928
0.8269628882408142 -20.520545959472656 -1.2247015237808228
4.475600719451904 -21.923086166381836 -1.3343124389648438
7.776098251342773 -20.503984451293945 -1.307699203491211
9.426430702209473 -19.8658390045166 -1.3112679719924927
11.157206535339355 -19.32488250732422 -1.3306854963302612
21.2276611328125 -15.951494216918945 -1.583444595336914
7.727216720581055 -3.2922558784484863 -0.500880241394043
7.705780982971191 -2.572577953338623 -0.4844525158405304
-9.749975204467773 -20.54765510559082 -1.6093777418136597
0.8261962532997131 -20.501474380493164 -1.4519033432006836
2.7191405296325684 -22.39451026916504 -1.5963191986083984
6.107812404632568 -21.086698532104492 -1.553471326828003
8.001532554626465 -21.0982608795166 -1.596716284751892
9.4768648147583 -19.972148895263672 -1.5643013715744019
14.670970916748047 -17.968690872192383 -1.6414837837219238
20.79056167602539 -15.623095512390137 -1.8402618169784546
23.24386215209961 -14.698564529418945 -1.9460529088974
7.142255783081055 -3.748544931411743 -0.57077956199646
-27.828466415405273 -6.859140396118164 -2.347599983215332
-19.906845092773438 -20.725204467773438 -2.353800058364868
-18.19332504272461 -22.28289031982422 -2.3562235832214355
-16.354379653930664 -23.693416595458984 -2.3581111431121826
-14.406835556030273 -24.953359603881836 -2.360076427459717
-10.234159469604492 -26.98526382446289 -2.3639323711395264
-8.035097122192383 -27.74043846130371 -2.365567922592163
-3.484565258026123 -28.69806671142578 -2.3678736686706543
2.7191503047943115 -22.39451026916504 -1.8477641344070435
4.475341796875 -21.921825408935547 -1.832613229751587
6.107812404632568 -21.086698532104492 -1.7981700897216797
7.940185546875 -20.936492919921875 -1.8340568542480469
12.976362228393555 -18.799541473388672 -1.8710427284240723
14.670970916748047 -17.968690872192383 -1.9000462293624878
16.57095718383789 -17.252235412597656 -1.9593666791915894
18.57935905456543 -16.459911346435547 -2.033111810684204
20.814945220947266 -15.6414155960083 -2.1326329708099365
23.25346565246582 -14.704628944396973 -2.2535245418548584
6.676259517669678 -2.844492197036743 -0.5944050550460815
6.685414791107178 -2.2319042682647705 -0.577299952507019
7.261083602905273 -1.7896971702575684 -0.6125414967536926
8.6890869140625 -1.4121191501617432 -0.7210443019866943
-26.77305030822754 -2.1613476276397705 -2.5
-26.5123291015625 -4.308691501617432 -2.5
-21.318017959594727 -13.480712890625 -2.347599983215332
-20.16415023803711 -15.152382850646973 -2.347599983215332
-18.879497528076172 -16.72579002380371 -2.347599983215332
-17.473426818847656 -18.191747665405273 -2.3477346897125244
-15.965180397033691 -19.55379867553711 -2.3495373725891113
-12.639448165893555 -21.892168045043945 -2.3528249263763428
-10.844208717346191 -22.85369110107422 -2.3544178009033203
-8.975546836853027 -23.666561126708984 -2.3558502197265625
-3.054887533187866 -25.159326553344727 -2.3588948249816895
-0.8372313976287842 -20.776308059692383 -1.935317039489746
0.8261962532997131 -20.501474380493164 -1.9097158908843994
2.7191405296325684 -22.394521713256836 -2.09967041015625
4.483813285827637 -21.96333885192871 -2.0863945484161377
6.107812404632568 -21.086698532104492 -2.043311357498169
7.983339786529541 -21.050283432006836 -2.0954160690307617
13.11782169342041 -19.004384994506836 -2.1492843627929688
14.670970916748047 -17.968690872192383 -2.1590754985809326
16.5745792388916 -17.25601577758789 -2.226971387863159
6.272148132324219 -2.0939648151397705 -0.6154513359069824
7.178613185882568 -1.769374966621399 -0.6881423592567444
8.57888126373291 -1.3942186832427979 -0.8089523315429688
26.7730655670166 -2.1613378524780273 -2.5
-23.66706085205078 -3.8462791442871094 -2.5
-22.743593215942383 -7.592939376831055 -2.5
-22.017465591430664 -9.380781173706055 -2.4953079223632812
-20.059329986572266 -10.527958869934082 -2.362025022506714
-19.03020477294922 -12.0339937210083 -2.347599983215332
-18.000160217285156 -13.526259422302246 -2.347599983215332
-16.853384017944336 -14.930790901184082 -2.347599983215332
-14.240068435668945 -17.440927505493164 -2.347599983215332
-12.790472984313965 -18.53023338317871 -2.347599983215332
-11.257953643798828 -19.499324798583984 -2.347599983215332
-9.655034065246582 -20.34754753112793 -2.3482413291931152
-7.990156173706055 -21.068300247192383 -2.3493363857269287
-2.718681573867798 -22.390409469604492 -2.3516621589660645
0.9083593487739563 -22.540517807006836 -2.3520750999450684
2.719130754470825 -22.394012451171875 -2.352039098739624
9.4768648147583 -19.972137451171875 -2.3049156665802
12.790497779846191 -18.530223846435547 -2.347599983215332
15.597309112548828 -16.238534927368164 -2.347599983215332
16.8533935546875 -14.930819511413574 -2.347599983215332
18.000181198120117 -13.526229858398438 -2.347599983215332
5.810449123382568 -3.674306631088257 -0.7167866230010986
6.06456995010376 -2.024658203125 -0.6666235327720642
8.48586368560791 -1.3790819644927979 -0.8963781595230103
23.899824142456055 -1.929384708404541 -2.5
-21.368534088134766 -3.47271466255188 -2.5
-17.984033584594727 -11.372421264648438 -2.457181453704834
-16.25200080871582 -12.212616920471191 -2.347599983215332
-14.08251953125 -14.661455154418945 -2.347599983215332
-12.85708999633789 -15.74705982208252 -2.347599983215332
-10.164594650268555 -17.605566024780273 -2.347599983215332
-8.7149658203125 -18.36641502380371 -2.347599983215332
-7.208832740783691 -19.008113861083984 -2.347599983215332
-4.066357135772705 -19.9183292388916 -2.347599983215332
-2.4504003524780273 -20.180946350097656 -2.347599983215332
-0.8185546398162842 -20.312685012817383 -2.347599983215332
0.8185790777206421 -20.31270408630371 -2.347599983215332
2.4504101276397705 -20.180965423583984 -2.347599983215332
4.066357135772705 -19.91834831237793 -2.347599983215332
5.655942440032959 -19.52654266357422 -2.347599983215332
8.7149658203125 -18.366395950317383 -2.347599983215332
10.164599418640137 -17.605575561523438 -2.347599983215332
11.54830551147461 -16.730594635009766 -2.347599983215332
14.08250904083252 -14.66146469116211 -2.347599983215332
15.216606140136719 -13.480751991271973 -2.347599983215332
5.395004749298096 -4.054072380065918 -0.7793066501617432
5.480732440948486 -3.4658007621765137 -0.748838484287262
5.551274299621582 -2.9135351181030273 -0.7239845395088196
5.597714900970459 -2.384960889816284 -0.7026463150978088
7.048085689544678 -1.7372069358825684 -0.8382666110992432
10.30984878540039 -0.8322851657867432 -1.1944465637207031
-19.66400909423828 -1.587441325187683 -2.5
-19.15471649169922 -4.72122049331665 -2.5
-18.14933967590332 -7.732705116271973 -2.5
-17.4682559967041 -9.168066024780273 -2.5
-16.673887252807617 -10.543954849243164 -2.5
-14.28429126739502 -12.65478515625 -2.4183452129364014
-12.832983016967773 -13.360527038574219 -2.347599983215332
-11.716279029846191 -14.349853515625 -2.347599983215332
-9.262685775756836 -16.043447494506836 -2.347599983215332
-7.941694259643555 -16.736757278442383 -2.347599983215332
-6.569184303283691 -17.321523666381836 -2.347599983215332
-5.154072284698486 -17.793954849243164 -2.347599983215332
-3.7055370807647705 -18.1509952545166 -2.347599983215332
0.7459472417831421 -18.51032257080078 -2.347599983215332
2.232988119125366 -18.390302658081055 -2.347599983215332
3.705556631088257 -18.1509952545166 -2.347599983215332
5.154091835021973 -17.793954849243164 -2.347599983215332
6.569194316864014 -17.321523666381836 -2.347599983215332
7.941699028015137 -16.736757278442383 -2.347599983215332
9.262690544128418 -16.04345703125 -2.347599983215332
10.523622512817383 -15.246073722839355 -2.347599983215332
5.19680643081665 -3.286269426345825 -0.7791827321052551
5.261845588684082 -2.7616307735443115 -0.7530572414398193
5.314037799835205 -2.264111280441284 -0.7319869995117188
7.002280235290527 -1.7259081602096558 -0.9139089584350586
-18.11605453491211 -9.765624781721272e-06 -2.5
-17.589628219604492 -4.33547830581665 -2.5
-17.183725357055664 -5.736777305603027 -2.5
-16.04096221923828 -8.4189453125 -2.5
-14.482738494873047 -10.883095741271973 -2.5
-13.560063362121582 -12.01317310333252 -2.5
-11.029516220092773 -13.508729934692383 -2.4066336154937744
-7.292792797088623 -15.369247436523438 -2.347599983215332
-3.402778148651123 -16.667919158935547 -2.347599983215332
0.6849902272224426 -16.997900009155273 -2.347599983215332
2.050537109375 -16.887676239013672 -2.347599983215332
4.732949256896973 -16.340057373046875 -2.347599983215332
6.032436370849609 -15.906229972839355 -2.347599983215332
8.505864143371582 -14.73256778717041 -2.347599983215332
5.01687479019165 -6.144550800323486 -1.0946776866912842
5.752905368804932 -5.989404201507568 -1.146047592163086
4.946713924407959 -3.128115177154541 -0.8076779246330261
5.012255668640137 -2.6306347846984863 -0.7811639308929443
5.95266580581665 -1.9872949123382568 -0.8660306930541992
6.975575923919678 -1.719326138496399 -0.9914324879646301
10.309853553771973 -0.8322948813438416 -1.42737877368927
-16.743755340576172 -1.9531249563442543e-05 -2.5
-16.689456939697266 -1.347314476966858 -2.5
-16.526927947998047 -2.685908079147339 -2.5
-16.257205963134766 -4.007060527801514 -2.5
-15.882064819335938 -5.302226543426514 -2.5
-15.403905868530273 -6.562997817993164 -2.5
-14.825849533081055 -7.781239986419678 -2.5
-14.151650428771973 -8.948974609375 -2.5
-12.532876014709473 -11.10317325592041 -2.5
-6.778789043426514 -14.286005973815918 -2.3609859943389893
-3.14501953125 -15.405312538146973 -2.347599983215332
-0.6330907940864563 -15.710302352905273 -2.347599983215332
0.633105456829071 -15.710302352905273 -2.347599983215332
5.575473308563232 -14.70131778717041 -2.347599983215332
5.700605392456055 -5.934950828552246 -1.2287038564682007
6.537050724029541 -5.791318416595459 -1.303978443145752
4.864580154418945 -3.6554980278015137 -0.9085406064987183
4.718915939331055 -2.9840526580810547 -0.8336321711540222
4.788686275482178 -2.5132908821105957 -0.8074868321418762
5.116318225860596 -2.1798534393310547 -0.8303576707839966
5.93700647354126 -1.9820605516433716 -0.9345446825027466
8.350903511047363 -1.3571484088897705 -1.2632250785827637
10.30984878540039 -0.8322851657867432 -1.5443636178970337
-15.5610933303833 -2.9296874345163815e-05 -2.5
-15.10891056060791 -3.724013566970825 -2.5
-13.77865219116211 -7.231591701507568 -2.5
-10.779541015625 -11.222704887390137 -2.5
-8.839692115783691 -12.806513786315918 -2.5
-5.469648361206055 -14.42227554321289 -2.478074550628662
-4.2142333984375 -14.54921817779541 -2.433516025543213
-2.9887890815734863 -14.640068054199219 -2.4005470275878906
-0.5933251976966858 -14.723193168640137 -2.367305278778076
0.593066394329071 -14.716581344604492 -2.3662424087524414
5.449902057647705 -14.370195388793945 -2.4691274166107178
7.780556678771973 -13.476298332214355 -2.5
4.545712947845459 -6.585595607757568 -1.2855932712554932
4.864580154418945 -3.6554980278015137 -0.9775912165641785
4.583544731140137 -2.405634641647339 -0.8316383361816406
6.963593482971191 -1.7163769006729126 -1.1522332429885864
10.30983829498291 -0.8322948813438416 -1.6617361307144165
-14.483930587768555 -1.1692675352096558 -2.5
-14.108803749084473 -3.4775097370147705 -2.5
-13.783231735229492 -4.601523399353027 -2.5
-10.876654624938965 -9.635869026184082 -2.5
-10.066010475158691 -10.479833602905273 -2.5
-6.229355335235596 -13.128095626831055 -2.5
-2.9054980278015137 -14.232069969177246 -2.4990649223327637
-0.5841259360313416 -14.49520492553711 -2.495854377746582
0.5841162204742432 -14.494579315185547 -2.4957478046417236
4.042802810668945 -13.957353591918945 -2.5
5.152792930603027 -13.586787223815918 -2.5
4.272500038146973 -7.400166034698486 -1.470125436782837
4.409755706787109 -6.388632774353027 -1.3355456590652466
4.886836051940918 -5.985273361206055 -1.3293728828430176
5.116313457489014 -2.1798534393310547 -0.9567996263504028
5.920859336853027 -1.9766699075698853 -1.073923110961914
6.956791877746582 -1.714697241783142 -1.2327033281326294
-13.581483840942383 -1.0964159965515137 -2.5
-12.535331726074219 -5.340810298919678 -2.5
-9.438833236694336 -9.826884269714355 -2.5
-8.617485046386719 -10.554521560668945 -2.5
-7.740253925323486 -11.213720321655273 -2.5
-6.812802791595459 -11.800175666809082 -2.5
-4.831728458404541 -12.74022388458252 -2.5
-0.5486376881599426 -13.614619255065918 -2.5
0.5486523509025574 -13.614619255065918 -2.5
1.6423925161361694 -13.526337623596191 -2.5
5.841225624084473 -12.3101167678833 -2.5
4.844467639923096 -5.933388710021973 -1.4054150581359863
5.548237323760986 -5.776337623596191 -1.4695239067077637
6.350414752960205 -5.6259765625 -1.556631088256836
4.864580154418945 -3.6554980278015137 -1.1164504289627075
4.53369140625 -2.379462718963623 -0.9394332766532898
5.115766525268555 -2.179628849029541 -1.020267128944397
8.33803653717041 -1.3550585508346558 -1.5499099493026733
10.309858322143555 -0.8322948813438416 -1.8977750539779663
-12.7818603515625 -1.0318652391433716 -2.5
-12.657387733459473 -2.0570311546325684 -2.5
-12.450815200805664 -3.068857431411743 -2.5
-10.25161075592041 -7.703603267669678 -2.5
-9.598481178283691 -8.503515243530273 -2.5
-7.28454065322876 -10.553485870361328 -2.5
-3.567700147628784 -12.317148208618164 -2.5
-0.5163378715515137 -12.8130464553833 -2.5
1.5456883907318115 -12.729950904846191 -2.5
3.4800682067871094 -7.334072113037109 -1.5826177597045898
3.7956931591033936 -6.57433557510376 -1.4799795150756836
4.200097560882568 -6.084872722625732 -1.4414358139038086
5.512768268585205 -5.739413738250732 -1.5514744520187378
6.325952053070068 -5.604306697845459 -1.647641897201538
4.53369140625 -2.379462718963623 -0.9982035756111145
5.910815238952637 -1.9733202457427979 -1.214864730834961
12.7818603515625 -1.0318456888198853 -2.5
-12.10750961303711 -1.9531249563442543e-05 -2.5
-11.950712203979492 -1.94216787815094 -2.5
-11.755678176879883 -2.897529125213623 -2.5
-11.484418869018555 -3.834052562713623 -2.5
-11.138656616210938 -4.745751857757568 -2.5
-10.720664024353027 -5.626659870147705 -2.5
-9.679247856140137 -7.273505687713623 -2.5
-9.062597274780273 -8.028769493103027 -2.5
-7.657338619232178 -9.378554344177246 -2.5
-6.877841472625732 -9.964296340942383 -2.5
-6.053759574890137 -10.485429763793945 -2.5
-5.190400123596191 -10.938544273376465 -2.5
-4.293378829956055 -11.320732116699219 -2.5
-3.368520498275757 -11.629491806030273 -2.5
-2.421811580657959 -11.862832069396973 -2.5
-1.459389567375183 -12.019248008728027 -2.5
-0.48750975728034973 -12.097684860229492 -2.5
1.4594042301177979 -12.019238471984863 -2.5
2.421816349029541 -11.862841606140137 -2.5
4.293393611907959 -11.320732116699219 -2.5
4.769799709320068 -5.841943264007568 -1.5572632551193237
6.30810022354126 -5.588486194610596 -1.740145206451416
4.684887409210205 -2.9625487327575684 -1.1445358991622925
4.53369140625 -2.379462718963623 -1.0572291612625122
5.11514139175415 -2.1793456077575684 -1.1480587720870972
6.041938304901123 -2.01708984375 -1.3152453899383545
8.323168754577637 -1.352636694908142 -1.7411409616470337
-11.46451187133789 -9.765624781721272e-06 -2.5
-11.316054344177246 -1.839052677154541 -2.5
-10.874502182006836 -3.630439281463623 -2.5
-10.547103881835938 -4.493710994720459 -2.5
-10.151318550109863 -5.327822208404541 -2.5
-9.689697265625 -6.127402305603027 -2.5
-9.165224075317383 -6.887216567993164 -2.5
-7.941747665405273 -8.268241882324219 -2.5
-5.732255935668945 -9.928584098815918 -2.5
-4.914745807647705 -10.357636451721191 -2.5
-2.2931933403015137 -11.23282241821289 -2.5
-0.461616188287735 -11.455214500427246 -2.5
1.3818944692611694 -11.3809175491333 -2.5
2.293203115463257 -11.232841491699219 -2.5
3.1818602085113525 -6.705605506896973 -1.6185204982757568
4.081474304199219 -5.913027286529541 -1.5667591094970703
4.753915786743164 -5.822490215301514 -1.6391253471374512
6.287997722625732 -5.570683479309082 -1.8318853378295898
4.864580154418945 -3.6554980278015137 -1.3269107341766357
5.11514139175415 -2.1793456077575684 -1.212448239326477
6.112621784210205 -2.0406835079193115 -1.4052621126174927
6.94665002822876 -1.7122167348861694 -1.560149073600769
8.315688133239746 -1.3514355421066284 -1.8371442556381226
11.427343368530273 -0.9225195050239563 -2.5
-10.88370132446289 0.0 -2.5
-10.742758750915527 -1.74587881565094 -2.5
-9.637030601501465 -5.057919979095459 -2.5
-9.198798179626465 -5.816953182220459 -2.5
-7.539409160614014 -7.849365234375 -2.5
-6.883339881896973 -8.43057632446289 -2.5
-4.665751934051514 -9.832880973815918 -2.5
-3.8594090938568115 -10.176445007324219 -2.5
-2.1770215034484863 -10.663759231567383 -2.5
-1.3118798732757568 -10.80434513092041 -2.5
0.43825194239616394 -10.874873161315918 -2.5
1.3118896484375 -10.80435562133789 -2.5
3.0280418395996094 -10.453984260559082 -2.5
4.53369140625 -2.379462718963623 -1.176108479499817
5.11514139175415 -2.1793456077575684 -1.277151107788086
6.941171646118164 -1.7108495235443115 -1.6421117782592773
-10.356371879577637 -5.859374869032763e-05 -2.5
-10.322768211364746 -0.8333495855331421 -2.5
-10.222235679626465 -1.6612792015075684 -2.5
-10.055410385131836 -2.4784374237060547 -2.5
-8.75308609008789 -5.535107135772705 -2.5
-8.279306411743164 -6.221513748168945 -2.5
-6.549824237823486 -8.022079467773438 -2.5
-5.883070945739746 -8.523115158081055 -2.5
-5.178173542022705 -8.968867301940918 -2.5
-4.439682483673096 -9.356474876403809 -2.5
-2.881303548812866 -9.947480201721191 -2.5
-2.071537971496582 -10.147069931030273 -2.5
-0.4169970750808716 -10.347968101501465 -2.5
0.41700682044029236 -10.3479585647583 -2.5
2.071542978286743 -10.147079467773438 -2.5
2.8813281059265137 -9.947480201721191 -2.5
3.67242169380188 -9.683349609375 -2.5
3.03484845161438 -6.395800590515137 -1.7089251279830933
3.4527783393859863 -5.980390548706055 -1.66698157787323
4.052905082702637 -5.871630668640137 -1.7222673892974854
4.722163200378418 -5.783593654632568 -1.8023961782455444
5.437533855438232 -5.661064147949219 -1.8948475122451782
6.269950866699219 -5.554677486419678 -2.022083044052124
4.53369140625 -2.379462718963623 -1.2359954118728638
10.222250938415527 -1.6612987518310547 -2.5
10.322772979736328 -0.8333398103713989 -2.5
-9.58834457397461 -2.3633203506469727 -2.5
-9.085078239440918 -3.870790958404541 -2.5
-8.744135856628418 -4.589286804199219 -2.5
-8.346498489379883 -5.278037071228027 -2.5
-7.894731044769287 -5.932528972625732 -2.5
-7.391762733459473 -6.548525333404541 -2.5
-6.840864181518555 -7.12209939956665 -2.5
-1.9753124713897705 -9.675712585449219 -2.5
0.3976415991783142 -9.867294311523438 -2.5
1.1903417110443115 -9.80331039428711 -2.5
1.9753124713897705 -9.675732612609863 -2.5
2.747485399246216 -9.485419273376465 -2.5
3.501840829849243 -9.233583450317383 -2.5
2.997270345687866 -6.316601276397705 -1.7699804306030273
3.432621955871582 -5.945458889007568 -1.7379789352416992
4.038661956787109 -5.850996017456055 -1.7998155355453491
5.436723709106445 -5.660234451293945 -1.9868570566177368
6.292426586151123 -5.574599266052246 -2.128185272216797
4.864580154418945 -3.6554980278015137 -1.5404469966888428
4.684887409210205 -2.9625487327575684 -1.4032464027404785
5.11514139175415 -2.1793456077575684 -1.4075655937194824
6.939428329467773 -1.7104198932647705 -1.8093386888504028
-9.434598922729492 9.765624781721272e-06 -2.5
-9.404008865356445 -0.7591796517372131 -2.5
-8.949057579040527 -2.9876463413238525 -2.5
-8.679638862609863 -3.69805645942688 -2.5
-8.353925704956055 -4.384482383728027 -2.5
-7.974023342132568 -5.04248046875 -2.5
-7.061894416809082 -6.256298542022705 -2.5
-6.535585880279541 -6.804267406463623 -2.5
-5.966860294342041 -7.308095455169678 -2.5
-5.359457969665527 -7.76452112197876 -2.5
-4.044536113739014 -8.523691177368164 -2.5
-3.3455564975738525 -8.821494102478027 -2.5
-1.1372119188308716 -9.36581039428711 -2.5
-0.3798877000808716 -9.426962852478027 -2.5
1.8871581554412842 -9.243945121765137 -2.5
3.3455662727355957 -8.821503639221191 -2.5
4.697163105010986 -5.752968788146973 -1.9680140018463135
5.438647270202637 -5.662216663360596 -2.080397367477417
6.3170166015625 -5.596386432647705 -2.236299991607666
4.864580154418945 -3.6554980278015137 -1.6124035120010376
4.53369140625 -2.379462718963623 -1.3567516803741455
5.385605335235596 -2.2945799827575684 -1.5512161254882812
6.93810510635376 -1.7100878953933716 -1.893493413925171
9.312431335449219 -1.513427734375 -2.5
9.40401840209961 -0.75916987657547 -2.5
-9.029281616210938 0.0 -2.5
-9.0 -0.7265625 -2.5
-8.912343978881836 -1.4483691453933716 -2.5
-8.306742668151855 -3.539179563522339 -2.5
-7.99502420425415 -4.196132659912109 -2.5
-5.129213809967041 -7.430956840515137 -2.5
-4.514643669128418 -7.819589614868164 -2.5
-3.2018260955810547 -8.44252872467041 -2.5
-1.8060888051986694 -8.846796989440918 -2.5
-1.0883495807647705 -8.963446617126465 -2.5
0.3635790944099426 -9.021963119506836 -2.5
1.0883593559265137 -8.963446617126465 -2.5
1.806093692779541 -8.846816062927246 -2.5
2.5121092796325684 -8.672782897949219 -2.5
2.9665331840515137 -6.25182580947876 -1.9159740209579468
3.400390625 -5.889628887176514 -1.882973313331604
4.694311618804932 -5.749482154846191 -2.055109739303589
6.407289981842041 -5.676357269287109 -2.37007999420166
5.307148456573486 -2.261162042617798 -1.5972368717193604
6.932602405548096 -1.7087304592132568 -1.9769219160079956
-8.627079963684082 -0.6964550614356995 -2.5
-8.543075561523438 -1.3883886337280273 -2.5
-8.209726333618164 -2.7408103942871094 -2.5
-7.962558269500732 -3.3925390243530273 -2.5
-7.663749694824219 -4.022255897521973 -2.5
-7.315244197845459 -4.625878810882568 -2.5
-6.919286727905273 -5.199521541595459 -2.5
-6.478466510772705 -5.739433288574219 -2.5
-5.47390604019165 -6.704335689544678 -2.5
-3.710400342941284 -7.819501876831055 -2.5
-3.069159984588623 -8.092704772949219 -2.5
-1.7312499284744263 -8.480243682861328 -2.5
0.3485107421875 -8.648144721984863 -2.5
1.7312548160552979 -8.480234146118164 -2.5
2.408017635345459 -8.313417434692383 -2.5
2.9546289443969727 -6.226728439331055 -1.9907692670822144
3.3982129096984863 -5.885869026184082 -1.963112473487854
4.008623123168945 -5.807499885559082 -2.0382726192474365
5.474819183349609 -5.699882507324219 -2.2828316688537598
6.478481292724609 -5.739443302154541 -2.5
4.864580154418945 -3.6554980278015137 -1.7576100826263428
4.53369140625 -2.379462718963623 -1.47893488407135
5.807543754577637 -1.9388476610183716 -1.7684922218322754
8.627094268798828 -0.6964648365974426 -2.5
-8.281733512878418 -0.6685839891433716 -2.5
-7.881073951721191 -2.631093740463257 -2.5
-6.642304420471191 -4.991386413574219 -2.5
-6.219135761260986 -5.509677410125732 -2.5
-5.755624771118164 -5.992255687713623 -2.5
-3.5618700981140137 -7.506484031677246 -2.5
-1.001503825187683 -8.248114585876465 -2.5
-0.33455076813697815 -8.301942825317383 -2.5
0.3345605432987213 -8.301962852478027 -2.5
2.951914072036743 -6.221025466918945 -2.071883201599121
3.398613214492798 -5.886572360992432 -2.045215606689453
4.72585916519165 -5.788125038146973 -2.248354196548462
5.755620002746582 -5.992255687713623 -2.5
4.53369140625 -2.379462718963623 -1.5406075716018677
5.810610294342041 -1.9398632049560547 -1.8432137966156006
8.067245483398438 -1.9884179830551147 -2.5
-7.960912704467773 -0.6426757574081421 -2.5
-7.883383750915527 -1.2811815738677979 -2.5
-7.575780868530273 -2.529179573059082 -2.5
-7.347704887390137 -3.1305761337280273 -2.5
-5.532656192779541 -5.760107517242432 -2.5
-5.051225662231445 -6.186630725860596 -2.5
-2.832163095474243 -7.46780252456665 -2.5
2.2220752239227295 -7.671483993530273 -2.5
2.8321728706359863 -7.46780252456665 -2.5
2.9544677734375 -6.226377010345459 -2.1572370529174805
3.3987693786621094 -5.88683557510376 -2.127734899520874
4.008578777313232 -5.807412147521973 -2.2088091373443604
5.532665729522705 -5.76012659072876 -2.5
5.978217601776123 -5.296240329742432 -2.5
6.385009765625 -4.798027038574219 -2.5
4.684887409210205 -2.9625487327575684 -1.7350454330444336
4.53369140625 -2.379462718963623 -1.6026930809020996
5.812665939331055 -1.9405566453933716 -1.9181721210479736
-7.662035942077637 -0.6185449361801147 -2.5
-7.463583946228027 -1.8396093845367432 -2.5
-7.071840763092041 -3.0130271911621094 -2.5
-5.753769397735596 -5.097412109375 -2.5
-4.861591815948486 -5.954355239868164 -2.5
-2.725834846496582 -7.187431335449219 -2.5
-1.5375927686691284 -7.531620979309082 -2.5
-0.9265673756599426 -7.630927562713623 -2.5
0.30952635407447815 -7.680732250213623 -2.5
1.53759765625 -7.53161096572876 -2.5
2.1386523246765137 -7.383466720581055 -2.5
2.725834846496582 -7.187431335449219 -2.5
3.3985447883605957 -5.886455059051514 -2.210585355758667
4.36669921875 -6.326259613037109 -2.5
4.861586570739746 -5.954355239868164 -2.5
5.324955940246582 -5.543867111206055 -2.5
5.164028167724609 -2.200185537338257 -1.8255558013916016
5.812875747680664 -1.940615177154541 -1.993064522743225
7.587426662445068 -1.2330858707427979 -2.5
7.662045955657959 -0.6185449361801147 -2.5
-7.406865119934082 -9.765624781721272e-06 -2.5
-7.382851600646973 -0.5960058569908142 -2.5
-7.310946941375732 -1.188134789466858 -2.5
-7.191640377044678 -1.7725878953933716 -2.5
-6.558446884155273 -3.4421582221984863 -2.5
-4.684433460235596 -5.737343788146973 -2.5
-4.207572937011719 -6.095742225646973 -2.5
-3.1752684116363525 -6.691747665405273 -2.5
-2.626513719558716 -6.925556659698486 -2.5
-2.0607128143310547 -7.114443302154541 -2.5
-1.4815624952316284 -7.25719690322876 -2.5
-0.29823729395866394 -7.400868892669678 -2.5
2.060722589492798 -7.114443302154541 -2.5
2.626523494720459 -6.925546646118164 -2.5
3.1752734184265137 -6.691738128662109 -2.5
3.398012638092041 -5.88552713394165 -2.293823480606079
4.207582950592041 -6.09573221206665 -2.5
4.6844482421875 -5.737402439117432 -2.5
5.130927562713623 -5.341865062713623 -2.5
5.544120788574219 -4.911669731140137 -2.5
5.92138147354126 -4.449628829956055 -2.5
6.112968444824219 -3.865595579147339 -2.441195011138916
7.19164514541626 -1.7725878953933716 -2.5
7.382861137390137 -0.5960156321525574 -2.5
-7.052055358886719 -1.1460644006729126 -2.5
-6.038530349731445 -3.818544864654541 -2.5
-4.949228286743164 -5.152705192565918 -2.5
-4.058583736419678 -5.879872798919678 -2.5
-2.533505916595459 -6.680322170257568 -2.5
-1.987734317779541 -6.862509727478027 -2.5
1.42910635471344 -7.000205039978027 -2.5
3.0628368854522705 -6.454794883728027 -2.5
4.518569469451904 -5.534238338470459 -2.5
5.347802639007568 -4.737743854522705 -2.5
5.711694240570068 -4.292050838470459 -2.5
5.808095455169678 -1.9390331506729126 -2.1426053047180176
7.052070140838623 -1.1460741758346558 -2.5
-6.898407936096191 0.0 -2.5
-6.876035213470459 -0.5550976395606995 -2.5
-6.809072017669678 -1.106591820716858 -2.5
-6.543388366699219 -2.184511661529541 -2.5
-6.108232498168945 -3.2058591842651367 -2.5
-5.514882564544678 -4.144169807434082 -2.5
-3.9187304973602295 -5.677285194396973 -2.5
-3.4491991996765137 -5.974189281463623 -2.5
-2.4462060928344727 -6.450126647949219 -2.5
-0.2777636647224426 -6.892812252044678 -2.5
0.8315087556838989 -6.848114967346191 -2.5
1.9192626476287842 -6.626044750213623 -2.5
2.446220636367798 -6.450136661529541 -2.5
3.449208974838257 -5.974199295043945 -2.5
6.697963714599609 -1.650917887687683 -2.5
6.809091567993164 -1.106591820716858 -2.5
6.876039981842041 -0.5550976395606995 -2.5
-6.666835784912109 0.0 -2.5
-6.580497741699219 -1.0694433450698853 -2.5
-6.473105430603027 -1.5954785346984863 -2.5
-6.133349418640137 -2.6131932735443115 -2.5
-5.903188228607178 -3.0982420444488525 -2.5
-5.329751014709473 -4.005068302154541 -2.5
-4.990204811096191 -4.420937538146973 -2.5
-4.216411113739014 -5.164179801940918 -2.5
-3.787187337875366 -5.486718654632568 -2.5
-3.3334226608276367 -5.773662090301514 -2.5
-2.858022451400757 -6.023163795471191 -2.5
-2.364091634750366 -6.233603477478027 -2.5
-1.854824185371399 -6.403623104095459 -2.5
-1.3335301876068115 -6.532109260559082 -2.5
-0.8035888671875 -6.618222713470459 -2.5
-0.2684375047683716 -6.661435604095459 -2.5
0.2684423625469208 -6.661435604095459 -2.5
0.8035986423492432 -6.618251800537109 -2.5
1.3335448503494263 -6.53209924697876 -2.5
2.858027219772339 -6.023163795471191 -2.5
3.3334226608276367 -5.773652076721191 -2.5
4.216425895690918 -5.164169788360596 -2.5
4.618290901184082 -4.808154106140137 -2.5
4.990210056304932 -4.420947074890137 -2.5
5.329765319824219 -4.005048751831055 -2.5
5.634750843048096 -3.5631933212280273 -2.5
6.580512523651123 -1.0694531202316284 -2.5
-6.448559284210205 -9.765624781721272e-06 -2.5
-5.709911823272705 -2.9968066215515137 -2.5
-5.450253963470459 -3.446542978286743 -2.5
-5.155249118804932 -3.8739354610443115 -2.5
-4.46707010269165 -4.650732517242432 -2.5
-3.6631932258605957 -5.307060241699219 -2.5
-3.2242772579193115 -5.584619045257568 -2.5
-2.7644481658935547 -5.825966835021973 -2.5
-2.286689519882202 -6.029501914978027 -2.5
-1.7940917015075684 -6.19396448135376 -2.5
-1.2898778915405273 -6.318242073059082 -2.5
-0.7772851586341858 -6.401552677154541 -2.5
-0.2596484422683716 -6.443329811096191 -2.5
1.2898778915405273 -6.318251609802246 -2.5
1.7941112518310547 -6.193974494934082 -2.5
2.764457941055298 -5.82595682144165 -2.5
3.2242918014526367 -5.584619045257568 -2.5
4.078373908996582 -4.995107173919678 -2.5
5.155268669128418 -3.8739256858825684 -2.5
5.202246189117432 -2.2164647579193115 -2.1922454833984375
5.794252872467041 -1.9344042539596558 -2.368206262588501
6.261186599731445 -1.543251872062683 -2.5
-6.222172737121582 -0.5022948980331421 -2.5
-5.921162128448486 -1.9767675399780273 -2.5
-5.527382850646973 -2.901005744934082 -2.5
-4.324277400970459 -4.502040863037109 -2.5
-3.9479784965515137 -4.835410118103027 -2.5
-3.121210813522339 -5.406113147735596 -2.5
-2.2135937213897705 -5.836767673492432 -2.5
-1.7367430925369263 -5.995947360992432 -2.5
0.25136229395866394 -6.237363338470459 -2.5
0.7524462938308716 -6.196904182434082 -2.5
1.2486523389816284 -6.116269588470459 -2.5
1.7367528676986694 -5.99596643447876 -2.5
2.2135937213897705 -5.836767673492432 -2.5
2.676079034805298 -5.639736175537109 -2.5
3.1212158203125 -5.406093597412109 -2.5
3.5461082458496094 -5.137412071228027 -2.5
4.672519207000732 -4.139492034912109 -2.5
5.276034832000732 -3.336367130279541 -2.5
5.527387619018555 -2.900995969772339 -2.5
5.286850452423096 -2.252509832382202 -2.301471471786499
5.788959980010986 -1.93264639377594 -2.4441802501678467
6.06102991104126 -1.4939160346984863 -2.5
6.161591529846191 -1.001367211341858 -2.5
6.222182273864746 -0.5023144483566284 -2.5
-6.027758598327637 -0.4866308569908142 -2.5
-5.871640682220459 -1.4472265243530273 -2.5
-5.736152172088623 -1.9150097370147705 -2.5
-5.563457012176514 -2.370371103286743 -2.5
-4.834521293640137 -3.6329197883605957 -2.5
-4.52651834487915 -4.010146617889404 -2.5
-3.8246238231658936 -4.684326171875 -2.5
-3.435302734375 -4.976894378662109 -2.5
-3.023686408996582 -5.237177848815918 -2.5
-2.592456102371216 -5.463505744934082 -2.5
-2.1444287300109863 -5.654384613037109 -2.5
-1.6824755668640137 -5.808603286743164 -2.5
-0.7289257645606995 -6.003281116485596 -2.5
0.7289355397224426 -6.003281116485596 -2.5
1.2096385955810547 -5.92516565322876 -2.5
2.592470645904541 -5.463505744934082 -2.5
3.023691415786743 -5.237196922302246 -2.5
3.435302734375 -4.976884841918945 -2.5
3.824638605117798 -4.684335708618164 -2.5
4.189169883728027 -4.361386775970459 -2.5
4.526528358459473 -4.010146617889404 -2.5
4.834536075592041 -3.6329197883605957 -2.5
5.111186504364014 -3.232119083404541 -2.5
5.969067096710205 -0.9700683355331421 -2.5
-5.862519264221191 -9.765624781721272e-06 -2.5
-5.843510627746582 -0.4717382788658142 -2.5
-5.692158222198486 -1.4029979705810547 -2.5
-5.393388748168945 -2.297919988632202 -2.5
-4.388149261474609 -3.887568235397339 -2.5
-2.9312596321105957 -5.077079772949219 -2.5
-2.5132129192352295 -5.296513557434082 -2.5
-1.6310546398162842 -5.631044864654541 -2.5
1.1726561784744263 -5.744052410125732 -2.5
2.931269407272339 -5.077099323272705 -2.5
4.388164043426514 -3.887587785720825 -2.5
4.686757564544678 -3.5218749046325684 -2.5
4.954941272735596 -3.1333203315734863 -2.5
5.191005706787109 -2.7244627475738525 -2.5
5.560815334320068 -1.85647451877594 -2.5
5.786601543426514 -0.9404101371765137 -2.5
3.8347020149230957 -0.3095703125 -1.640580654144287
-5.687021255493164 -9.765624781721272e-06 -2.5
-5.6685791015625 -0.45762693881988525 -2.5
-5.521767616271973 -1.3609960079193115 -2.5
-5.394340515136719 -1.8008984327316284 -2.5
-5.231943130493164 -2.229130744934082 -2.5
-5.035605430603027 -2.642890453338623 -2.5
-4.806601524353027 -3.0395214557647705 -2.5
-2.437978506088257 -5.137939453125 -2.5
-1.1375536918640137 -5.572089672088623 -2.5
0.22899901866912842 -5.682431697845459 -2.5
0.685498058795929 -5.645556449890137 -2.5
1.137548804283142 -5.572099685668945 -2.5
1.5822314023971558 -5.462480545043945 -2.5
2.016650438308716 -5.317461013793945 -2.5
2.437993049621582 -5.137959003448486 -2.5
2.843515634536743 -4.925107479095459 -2.5
4.806621074676514 -3.0395214557647705 -2.5
5.035620212554932 -2.642900228500366 -2.5
5.613373756408691 -0.9122655987739563 -2.5
-5.502255916595459 -0.4441894292831421 -2.5
-5.448671817779541 -0.8855175375938416 -2.5
-5.359745979309082 -1.3210644721984863 -2.5
-5.236073970794678 -1.7480566501617432 -2.5
-5.078422546386719 -2.1637303829193115 -2.5
-4.88784646987915 -2.565361261367798 -2.5
-4.665575981140137 -2.9503417015075684 -2.5
-4.131894588470459 -3.660537004470825 -2.5
-3.4911913871765137 -4.275937557220459 -2.5
-3.135795831680298 -4.54299783706665 -2.5
-1.53579580783844 -5.302226543426514 -2.5
-1.1041796207427979 -5.408603191375732 -2.5
-0.22227050364017487 -5.515673637390137 -2.5
0.22228026390075684 -5.515683650970459 -2.5
0.6653808355331421 -5.479902267456055 -2.5
1.5358153581619263 -5.302216529846191 -2.5
2.366455078125 -4.987187385559082 -2.5
2.760082960128784 -4.780595779418945 -2.5
3.135815382003784 -4.54299783706665 -2.5
3.8239550590515137 -3.981152296066284 -2.5
4.413056373596191 -3.3162012100219727 -2.5
4.887861251831055 -2.5653417110443115 -2.5
5.078442096710205 -2.1637206077575684 -2.5
5.236079216003418 -1.7480664253234863 -2.5
3.4489598274230957 -0.5605175495147705 -1.5824764966964722
3.4194531440734863 -0.2760546803474426 -1.553655982017517
-5.291831016540527 -0.8600195050239563 -2.5
-4.932246208190918 -2.101445198059082 -2.5
-4.286020278930664 -3.2207517623901367 -2.5
-2.6806297302246094 -4.642997741699219 -2.5
-2.298330068588257 -4.843632698059082 -2.5
-1.9011328220367432 -5.012880802154541 -2.5
-1.4915966987609863 -5.149589538574219 -2.5
-0.6462206840515137 -5.322177410125732 -2.5
-0.21586425602436066 -5.356923580169678 -2.5
1.0723974704742432 -5.252919673919678 -2.5
2.29833984375 -4.843652248382568 -2.5
3.3907127380371094 -4.15286111831665 -2.5
3.713881731033325 -3.866572141647339 -2.5
4.531298637390137 -2.865419864654541 -2.5
4.932255744934082 -2.101435422897339 -2.5
5.085361003875732 -1.6977441310882568 -2.5
3.251664876937866 -0.5284570455551147 -1.5361663103103638
3.245556592941284 -0.26201170682907104 -1.5183510780334473
