ply
format ascii 1.0
element vertex 942
property float x
property float y
property float z
end_header
9.304540634155273 19.608924865722656 5.8156938552856445
5.679951190948486 19.609432220458984 5.470308780670166
2.7497899532318115 13.469335556030273 3.683539390563965
1.4466650485992432 11.914316177368164 3.2158758640289307
-0.45066893100738525 11.18350601196289 2.999042272567749
-3.8244481086730957 10.084267616271973 2.889862060546875
-6.843163967132568 9.914042472839355 3.2278337478637695
-7.800546646118164 9.553955078125 3.304873466491699
-16.38130760192871 14.512587547302246 5.8641204833984375
0.47102048993110657 11.687958717346191 2.995795249938965
-0.45066893100738525 11.18350601196289 2.866494655609131
-1.3120604753494263 10.805849075317383 2.7877745628356934
-2.1436619758605957 10.500370979309082 2.7446818351745605
-2.969716787338257 10.252646446228027 2.7337048053741455
-3.8244481086730957 10.084267616271973 2.7621405124664307
-4.725287914276123 9.95833969116211 2.822951555252075
-6.843163967132568 9.914042472839355 3.085175037384033
-7.800546646118164 9.553955078125 3.1588072776794434
-10.2264404296875 10.646864891052246 3.7808141708374023
-16.38130760192871 14.512578010559082 5.604950428009033
-7.82665491104126 5.881367206573486 2.5073230266571045
1.4466650485992432 11.914316177368164 2.932412624359131
-1.3120604753494263 10.805849075317383 2.659597158432007
-3.0299413204193115 10.460556030273438 2.660898447036743
-3.9294238090515137 10.361044883728027 2.707470655441284
-5.731742858886719 9.927656173706055 2.8008880615234375
-6.843153953552246 9.914023399353027 2.943323850631714
-7.800546646118164 9.553955078125 3.0135717391967773
-10.2264404296875 10.646855354309082 3.6069767475128174
-7.826440334320068 5.881210803985596 2.391974925994873
6.389697074890137 22.059736251831055 5.3424553871154785
1.4466650485992432 11.914316177368164 2.791856050491333
0.47102048993110657 11.687958717346191 2.721055746078491
-3.183359384536743 10.990204811096191 2.6616241931915283
-6.058896541595459 10.494316101074219 2.8188395500183105
-10.226445198059082 10.646864891052246 3.43408203125
2.7497899532318115 13.46932601928711 3.0376806259155273
1.4466699361801147 11.91429615020752 2.6520190238952637
0.47102048993110657 11.687958717346191 2.584764003753662
-0.4593896269798279 11.399911880493164 2.5210602283477783
-1.3987743854522705 11.519980430603027 2.56424617767334
-6.423666954040527 11.12612247467041 2.8388524055480957
-7.427226543426514 10.760205268859863 2.889073371887207
-7.800546646118164 9.553955078125 2.725417375564575
4.560385704040527 15.744218826293945 3.431924343109131
2.7497899532318115 13.46932601928711 2.878286123275757
0.47508788108825684 11.78905200958252 2.4703166484832764
-0.4825536906719208 11.974706649780273 2.50921893119812
-2.4949755668640137 12.221210479736328 2.611574411392212
-3.541010618209839 12.224980354309082 2.664795398712158
-5.731342792510986 12.078544616699219 2.799187660217285
-7.910439491271973 11.460253715515137 2.915579080581665
-7.800546646118164 9.553955078125 2.5824034214019775
-10.226445198059082 10.646864891052246 3.090906858444214
-16.38130760192871 14.512578010559082 4.582181930541992
-7.8258056640625 5.880722522735596 2.049574613571167
4.560380935668945 15.744218826293945 3.242748975753784
2.7497851848602295 13.469305992126465 2.719630002975464
1.4466650485992432 11.914316177368164 2.374347686767578
-2.628852367401123 12.876972198486328 2.600027084350586
-3.7520017623901367 12.9534273147583 2.6679437160491943
-7.800546646118164 9.553955078125 2.440052032470703
-7.825605392456055 5.880566120147705 1.9365487098693848
2.7497801780700684 13.469316482543945 2.561668634414673
-0.5357470512390137 13.294726371765137 2.479376792907715
-2.7824363708496094 13.629267692565918 2.5920913219451904
-3.912123918533325 13.506200790405273 2.620227575302124
-5.266611099243164 13.886933326721191 2.767566442489624
-6.564120769500732 13.833593368530273 2.8532609939575195
-7.93044900894165 13.735946655273438 2.955552816390991
-9.230459213256836 13.372626304626465 3.0278637409210205
-7.800546646118164 9.553955078125 2.298334836959839
-11.60081958770752 12.07772445678711 3.1206066608428955
-7.825395107269287 5.880410194396973 1.8240227699279785
1.4466650485992432 11.914316177368164 2.0991039276123047
0.5545654296875 13.761093139648438 2.4087560176849365
-0.56494140625 14.019121170043945 2.4539217948913574
-1.7325927019119263 14.269237518310547 2.514005422592163
-2.956606388092041 14.482500076293945 2.585221290588379
-7.132695198059082 15.031835556030273 2.910012722015381
-8.67141056060791 15.0193452835083 3.0332438945770264
-7.800546646118164 9.553955078125 2.157196283340454
-16.381303787231445 14.512568473815918 3.8277013301849365
-7.82519006729126 5.880253791809082 1.7119659185409546
4.560380935668945 15.744218826293945 2.6799938678741455
2.8273582458496094 13.849287033081055 2.311068296432495
1.4466650485992432 11.914316177368164 1.9622955322265625
0.5859521627426147 14.53994083404541 2.3792130947113037
-0.5990673899650574 14.865976333618164 2.4325621128082275
-4.560385704040527 15.744277000427246 2.680004119873047
-6.132958889007568 16.17127799987793 2.8277673721313477
-7.894692420959473 16.6376953125 3.010976552963257
-9.713418006896973 16.824140548706055 3.176292657852173
-11.299345016479492 16.369932174682617 3.252173900604248
-7.800546646118164 9.553955078125 2.0165998935699463
-16.381298065185547 14.512568473815918 3.5782341957092285
-7.824985027313232 5.880097389221191 1.6003488302230835
-3.3538084030151367 16.428085327148438 2.5509674549102783
-4.910366058349609 16.952558517456055 2.68522572517395
-11.164291381835938 23.52823257446289 3.9621989727020264
-11.77386474609375 20.392929077148438 3.582615375518799
4.560380935668945 15.744218826293945 2.3082897663116455
1.4466650485992432 11.914316177368164 1.6901333332061768
-3.5775439739227295 17.523984909057617 2.5186877250671387
-12.594474792480469 26.542255401611328 4.137218475341797
-13.854362487792969 23.996463775634766 3.9020378589630127
-7.800546646118164 9.553955078125 1.7369091510772705
-17.574691772460938 18.29720687866211 3.5727477073669434
-16.381303787231445 14.512568473815918 3.0819482803344727
-7.82457971572876 5.879804611206055 1.3783154487609863
1.4466650485992432 11.914316177368164 1.554707646369934
0.6977782845497131 17.314891815185547 2.2447807788848877
-0.7110449075698853 17.644794464111328 2.2875490188598633
-16.381303787231445 14.512568473815918 2.8349931240081787
0.7400341629981995 18.363407135009766 2.1739275455474854
-2.2456982135772705 18.495086669921875 2.203806161880493
-16.381303787231445 14.512568473815918 2.588747501373291
-7.824164867401123 5.879482269287109 1.157684564590454
5.309828758239746 18.331621170043945 2.043354034423828
1.4466699361801147 11.91429615020752 1.2849758863449097
0.7840478420257568 19.455469131469727 2.08469557762146
-0.7969628572463989 19.77669906616211 2.1191155910491943
5.712084770202637 19.72039031982422 1.9682964086532593
4.099555492401123 20.080976486206055 1.9648631811141968
-0.8405566215515137 20.85869026184082 2.001326322555542
-7.800546646118164 9.553955078125 1.182452917098999
-7.823403358459473 5.878925800323486 0.9381872415542603
1.4466650485992432 11.914316177368164 1.0165191888809204
-2.2456982135772705 18.495086669921875 1.5779955387115479
-16.381303787231445 14.512568473815918 1.8536254167556763
-7.822983264923096 5.878603458404541 0.8288134336471558
-0.8405566215515137 20.85869026184082 1.5353264808654785
-2.2456982135772705 18.495086669921875 1.3702431917190552
-7.800546646118164 9.553955078125 0.9071276783943176
-7.822563171386719 5.878300666809082 0.7196563482284546
1.4466650485992432 11.914316177368164 0.7490807771682739
1.0232470035552979 25.391082763671875 1.5860439538955688
-0.8405615091323853 20.858661651611328 1.3029253482818604
-2.2456982135772705 18.49507713317871 1.1628292798995972
-9.849775314331055 25.971708297729492 1.7336574792861938
-7.8221435546875 5.877968788146973 0.6106896996498108
-0.8405566215515137 20.858671188354492 1.0708434581756592
-5.641762733459473 27.635272979736328 1.4468337297439575
-7.902590274810791 27.282875061035156 1.4570459127426147
-11.164294242858887 23.52821159362793 1.3358972072601318
1.4466650485992432 11.914316177368164 0.4823739528656006
-0.8405615091323853 20.858680725097656 0.8390267491340637
-7.902592658996582 27.282880783081055 1.1416219472885132
-11.164291381835938 23.528223037719727 1.046700119972229
-7.800546646118164 9.553955078125 0.4957238733768463
-16.919198989868164 17.614755630493164 0.9816506505012512
1.4466650485992432 11.914316177368164 0.3492159843444824
-0.8405566215515137 20.858671188354492 0.6074203252792358
-2.2456982135772705 18.49507713317871 0.5421035885810852
-9.849770545959473 25.97172737121582 0.8082189559936523
-11.164291381835938 23.528223037719727 0.7577605843544006
-7.800546646118164 9.553955078125 0.3588806092739105
-10.980575561523438 11.432002067565918 0.46122434735298157
-16.381303787231445 14.512568473815918 0.636792004108429
-7.820883750915527 5.877031326293945 0.2846536338329315
1.4466650485992432 11.914316177368164 0.2161431908607483
-2.2456982135772705 18.49507713317871 0.3355267345905304
-7.987880706787109 16.8341007232666 0.33556821942329407
-7.800546646118164 9.553955078125 0.22212523221969604
1.4466699361801147 11.91429615020752 0.08312378078699112
-0.8405566215515137 20.858671188354492 0.1445828229188919
-2.2457029819488525 18.49507713317871 0.1290377825498581
-6.250649452209473 16.48162078857422 0.12208373844623566
-7.987885475158691 16.8341007232666 0.12905150651931763
-5.80565881729126 10.055703163146973 0.08041930943727493
-7.800546646118164 9.553955078125 0.08542388677597046
1.4466650485992432 11.914316177368164 -0.04987533390522003
-6.250649452209473 16.48162078857422 -0.07325225323438644
-7.800546646118164 9.553955078125 -0.05125579610466957
-10.226445198059082 10.646864891052246 -0.06134841963648796
-7.819638729095459 5.876083850860596 -0.04064788669347763
-0.8405566215515137 20.858671188354492 -0.3181074559688568
-2.2456982135772705 18.49507713317871 -0.2839021384716034
-2.969716787338257 10.252655982971191 -0.1626533418893814
-3.8244481086730957 10.084267616271973 -0.16434508562088013
-5.708915710449219 9.888134956359863 -0.17398680746555328
-6.843153953552246 9.914023399353027 -0.18356536328792572
-7.800546646118164 9.553955078125 -0.18794646859169006
-16.381303787231445 14.512568473815918 -0.33348846435546875
-7.819223403930664 5.875771522521973 -0.1490420550107956
1.4466699361801147 11.91429615020752 -0.3159402310848236
-0.8405566215515137 20.858671188354492 -0.5495287775993347
-2.969716787338257 10.252646446228027 -0.2809889018535614
-3.8244481086730957 10.084267616271973 -0.28391265869140625
-4.725287914276123 9.95833969116211 -0.290162056684494
-5.708915710449219 9.888134956359863 -0.30056747794151306
-7.818803310394287 5.875468730926514 -0.2574610710144043
0.47102048993110657 11.687958717346191 -0.43768736720085144
-0.45066404342651367 11.18350601196289 -0.41879621148109436
-2.969716787338257 10.252646446228027 -0.39939558506011963
-3.824453115463257 10.084267616271973 -0.40355026721954346
-4.725283145904541 9.95833969116211 -0.4124346971511841
-6.843153953552246 9.914023399353027 -0.45074522495269775
-7.800546646118164 9.553955078125 -0.4615040421485901
-10.226445198059082 10.646855354309082 -0.552379310131073
2.7497851848602295 13.46932601928711 -0.6670026779174805
1.4466650485992432 11.914316177368164 -0.5823199152946472
0.471015602350235 11.687958717346191 -0.5675526261329651
-2.969716787338257 10.252646446228027 -0.517899751663208
-5.708915710449219 9.888134956359863 -0.5539857149124146
-10.226445198059082 10.646864891052246 -0.7162746787071228
18.312118530273438 2.976005792617798 -1.106339693069458
1.4466650485992432 11.914316177368164 -0.7157081365585327
-0.45066404342651367 11.18350601196289 -0.6674503684043884
-1.3120604753494263 10.805849075317383 -0.6491212248802185
-3.8244481086730957 10.084267616271973 -0.6431524753570557
-4.725283145904541 9.95833969116211 -0.6573116779327393
-5.708915710449219 9.888134956359863 -0.68088299036026
-7.800546646118164 9.553955078125 -0.7355149388313293
-10.226449966430664 10.64687442779541 -0.8803466558456421
-16.381303787231445 14.512568473815918 -1.3050915002822876
-7.817553520202637 5.874521255493164 -0.5831425189971924
17.570112228393555 2.855419874191284 -1.2596077919006348
4.560375690460205 15.744208335876465 -1.159886121749878
2.7497851848602295 13.46932601928711 -0.9727756977081299
-3.8244481086730957 10.084267616271973 -0.7631763815879822
-5.708915710449219 9.888134956359863 -0.8079485893249512
-10.226449966430664 10.64687442779541 -1.0446356534957886
-7.817138671875 5.874198913574219 -0.6919227242469788
16.98042869567871 2.759599447250366 -1.4090847969055176
25.378353118896484 13.319589614868164 -2.347599983215332
22.913095474243164 17.218076705932617 -2.347599983215332
18.12676239013672 22.20122528076172 -2.347599983215332
14.330702781677246 24.82145881652832 -2.347599983215332
10.16348648071289 26.79884147644043 -2.347599983215332
2.7497899532318115 13.46932601928711 -1.1260027885437012
1.4466650485992432 11.914316177368164 -0.9830474853515625
0.47102048993110657 11.687958717346191 -0.958117663860321
-0.45066404342651367 11.18350601196289 -0.9167614579200745
-2.1436619758605957 10.500370979309082 -0.8778068423271179
-3.8244481086730957 10.084267616271973 -0.8833898901939392
-5.708910942077637 9.888134956359863 -0.9352145195007324
-6.843153953552246 9.914023399353027 -0.9867023825645447
-7.800546646118164 9.553955078125 -1.010251760482788
-16.381303787231445 14.512568473815918 -1.7925798892974854
-7.816713809967041 5.87389612197876 -0.8008065819740295
26.86016082763672 0.0 -2.5
26.77305030822754 2.1613574028015137 -2.5
21.31802749633789 13.480712890625 -2.347599983215332
18.879507064819336 16.72579002380371 -2.347599983215332
15.95205020904541 19.53766632080078 -2.347599983215332
10.81283187866211 22.787538528442383 -2.347599983215332
8.94412612915039 23.58367156982422 -2.347599983215332
4.560375690460205 15.744208335876465 -1.5256210565567017
2.7497851848602295 13.46932601928711 -1.2795110940933228
0.47102048993110657 11.687958717346191 -1.0887360572814941
-0.45066404342651367 11.18350601196289 -1.0417449474334717
-1.3120604753494263 10.805849075317383 -1.0131372213363647
-2.1436619758605957 10.500370979309082 -0.99747633934021
-2.969716787338257 10.252646446228027 -0.9934869408607483
-4.725283145904541 9.95833969116211 -1.0259208679199219
-5.708915710449219 9.888134956359863 -1.0627111196517944
-7.800546646118164 9.553955078125 -1.1479789018630981
-10.226445198059082 10.646864891052246 -1.3740296363830566
-25.47783088684082 8.50576114654541 -2.5
-26.079652786254883 6.428046703338623 -2.5
-26.5123291015625 4.308681488037109 -2.5
22.743602752685547 7.592919826507568 -2.5
20.714183807373047 8.825507164001465 -2.347599983215332
19.03023338317871 12.034013748168945 -2.347599983215332
18.000181198120117 13.526259422302246 -2.347599983215332
16.85340690612793 14.930819511413574 -2.347599983215332
15.597304344177246 16.238525390625 -2.347599983215332
12.790483474731445 18.53023338317871 -2.347599983215332
11.257953643798828 19.49935531616211 -2.347599983215332
9.652406692504883 20.342010498046875 -2.347599983215332
7.984262466430664 21.052724838256836 -2.347599983215332
4.560385704040527 15.744208335876465 -1.7090320587158203
2.7497851848602295 13.46932601928711 -1.4333324432373047
1.4466650485992432 11.914316177368164 -1.2513582706451416
0.47102048993110657 11.687958717346191 -1.2196241617202759
-0.45066404342651367 11.18350601196289 -1.166982650756836
-2.1436619758605957 10.500370979309082 -1.1173919439315796
-2.969716787338257 10.252646446228027 -1.112924337387085
-3.824453115463257 10.084267616271973 -1.1245003938674927
-4.725283145904541 9.95833969116211 -1.1492568254470825
-6.843153953552246 9.914023399353027 -1.2560107707977295
-7.800546646118164 9.553955078125 -1.2859878540039062
-10.226445198059082 10.646864891052246 -1.53921377658844
-16.381298065185547 14.512568473815918 -2.281832695007324
-19.03023910522461 12.033974647521973 -2.347599983215332
-22.058876037597656 9.398398399353027 -2.5
-23.899818420410156 1.9293944835662842 -2.5
21.648895263671875 9.765624781721272e-06 -2.5
21.01980972290039 5.180927753448486 -2.5
20.534759521484375 6.855507850646973 -2.5
18.70242691040039 7.968358993530273 -2.347599983215332
12.857109069824219 15.747079849243164 -2.347599983215332
7.208842754364014 19.00810432434082 -2.347599983215332
0.471015602350235 11.687958717346191 -1.3508132696151733
-2.969716787338257 10.252646446228027 -1.2326363325119019
-5.708915710449219 9.888134956359863 -1.318523645401001
-6.843153953552246 9.914023399353027 -1.3911141157150269
-15.216606140136719 13.480741500854492 -2.347599983215332
-7.815463542938232 5.872949123382568 -1.128966212272644
-19.169139862060547 10.060742378234863 -2.5
-20.534765243530273 6.855517387390137 -2.5
-21.019819259643555 5.180917739868164 -2.5
-21.36854362487793 3.472724437713623 -2.5
-21.578691482543945 1.7420018911361694 -2.5
19.664018630981445 1.587441325187683 -2.5
19.154726028442383 4.721200942993164 -2.5
18.712718963623047 6.247226238250732 -2.5
16.403398513793945 8.609169960021973 -2.347599983215332
15.657455444335938 9.901171684265137 -2.347599983215332
14.809975624084473 11.1289644241333 -2.347599983215332
13.866439819335938 12.284608840942383 -2.347599983215332
12.832968711853027 13.360556602478027 -2.347599983215332
10.523603439331055 15.246073722839355 -2.347599983215332
9.262709617614746 16.043447494506836 -2.347599983215332
6.569223403930664 17.321514129638672 -2.347599983215332
2.7497851848602295 13.469335556030273 -1.7420858144760132
1.4466650485992432 11.914316177368164 -1.5209118127822876
0.47102048993110657 11.687958717346191 -1.4823415279388428
-2.1436619758605957 10.500370979309082 -1.3580896854400635
-7.800546646118164 9.553955078125 -1.5630029439926147
-13.866425514221191 12.284599304199219 -2.347599983215332
-18.14933967590332 7.732714653015137 -2.5
-18.71271514892578 6.247226238250732 -2.5
18.057313919067383 1.4577441215515137 -2.5
17.881460189819336 2.9060351848602295 -2.5
15.063115119934082 7.905751705169678 -2.347599983215332
12.733447074890137 11.28084945678711 -2.347599983215332
10.758984565734863 13.177352905273438 -2.347599983215332
7.292744159698486 15.369208335876465 -2.347599983215332
6.032431602478027 15.906200408935547 -2.347599983215332
4.560375690460205 15.744208335876465 -2.261993646621704
1.4466650485992432 11.914316177368164 -1.6562397480010986
-0.45066404342651367 11.18350601196289 -1.544565200805664
-1.3120604753494263 10.805849075317383 -1.5021493434906006
-3.8244481086730957 10.084267616271973 -1.488336443901062
-4.725287914276123 9.95833969116211 -1.5211031436920166
-5.708915710449219 9.888134956359863 -1.5756511688232422
-6.843153953552246 9.914023399353027 -1.6623969078063965
-12.733442306518555 11.28084945678711 -2.347599983215332
-7.814614295959473 5.872323989868164 -1.3489185571670532
-17.183740615844727 5.736786842346191 -2.5
16.689462661743164 1.3473241329193115 -2.5
13.922075271606445 7.306865215301514 -2.347599983215332
13.28897476196289 8.403437614440918 -2.347599983215332
12.569686889648438 9.445508003234863 -2.347599983215332
10.891742706298828 11.33951187133789 -2.347599983215332
9.943949699401855 12.179150581359863 -2.347599983215332
7.861542701721191 13.616561889648438 -2.347599983215332
6.7403564453125 14.205009460449219 -2.347599983215332
5.575664043426514 14.701356887817383 -2.347599983215332
1.4466650485992432 11.914316177368164 -1.7919824123382568
-1.3120604753494263 10.805849075317383 -1.6252634525299072
-2.1436619758605957 10.500370979309082 -1.6001404523849487
-7.800546646118164 9.553955078125 -1.8415751457214355
-10.226445198059082 10.646864891052246 -2.2042031288146973
-14.815004348754883 7.77550745010376 -2.4981696605682373
-15.403915405273438 6.562978267669678 -2.5
-16.25721549987793 4.007050514221191 -2.5
-16.689456939697266 1.3472949266433716 -2.5
15.510624885559082 1.252138614654541 -2.5
12.350326538085938 7.809882640838623 -2.347599983215332
11.68185043334961 8.778349876403809 -2.347599983215332
10.937612533569336 9.689863204956055 -2.347599983215332
9.241606712341309 11.3189058303833 -2.347599983215332
7.306249618530273 12.65477466583252 -2.347599983215332
6.264267444610596 13.20166015625 -2.347599983215332
5.181664943695068 13.6628999710083 -2.347599983215332
4.065654277801514 14.035605430603027 -2.347599983215332
2.7497851848602295 13.46932601928711 -2.2085776329040527
0.47102048993110657 11.687958717346191 -1.8792780637741089
-0.45066404342651367 11.18350601196289 -1.7981666326522827
-2.1436619758605957 10.500370979309082 -1.7217539548873901
-2.969716787338257 10.252646446228027 -1.7148679494857788
-3.8244481086730957 10.084267616271973 -1.7327054738998413
-4.725287914276123 9.95833969116211 -1.7708523273468018
-5.708915710449219 9.888134956359863 -1.834356665611267
-7.800546646118164 9.553955078125 -1.9815376996994019
-7.813764572143555 5.871679782867432 -1.570211410522461
-15.359575271606445 2.4961814880371094 -2.5
-15.510624885559082 1.2521483898162842 -2.5
14.531054496765137 0.0 -2.5
14.483935356140137 1.1692675352096558 -2.5
14.108813285827637 3.4775097370147705 -2.5
13.78323745727539 4.601532936096191 -2.5
12.082260131835938 6.341269493103027 -2.347599983215332
11.532821655273438 7.292919635772705 -2.347599983215332
10.908597946166992 8.197275161743164 -2.347599983215332
10.213618278503418 9.048476219177246 -2.347599983215332
9.452392578125 9.840995788574219 -2.347599983215332
8.629878044128418 10.56966781616211 -2.347599983215332
7.751376628875732 11.229814529418945 -2.347599983215332
3.7963523864746094 13.1065034866333 -2.347599983215332
2.7294042110443115 13.36947250366211 -2.347599983215332
1.4466650485992432 11.914316177368164 -2.0648550987243652
-0.45066404342651367 11.18350601196289 -1.925629734992981
-1.3120604753494263 10.805849075317383 -1.8727490901947021
-2.1436619758605957 10.500370979309082 -1.843800663948059
-2.969716787338257 10.252646446228027 -1.8364263772964478
-7.800546646118164 9.553955078125 -2.121999502182007
-9.452397346496582 9.840986251831055 -2.347599983215332
-7.753437519073486 5.826337814331055 -1.6685917377471924
-12.858271598815918 6.74853515625 -2.498380184173584
-13.783231735229492 4.601532936096191 -2.5
-14.108813285827637 3.4775097370147705 -2.5
13.581493377685547 1.0964257717132568 -2.5
13.229741096496582 3.2608494758605957 -2.5
12.924443244934082 4.314824104309082 -2.5
10.228920936584473 7.6865234375 -2.347599983215332
9.577240943908691 8.484686851501465 -2.347599983215332
8.863447189331055 9.227831840515137 -2.347599983215332
8.092177391052246 9.911093711853027 -2.347599983215332
7.268422603607178 10.53011703491211 -2.347599983215332
6.397533893585205 11.080839157104492 -2.347599983215332
5.485146522521973 11.559697151184082 -2.347599983215332
4.537197113037109 11.963574409484863 -2.347599983215332
3.559819221496582 12.28988265991211 -2.347599983215332
2.559340715408325 12.536474227905273 -2.347599983215332
1.4466650485992432 11.914316177368164 -2.2020585536956787
0.471015602350235 11.687958717346191 -2.146214246749878
-1.3120604753494263 10.805849075317383 -1.997187614440918
-2.1436619758605957 10.500370979309082 -1.9663151502609253
-2.969716787338257 10.252646446228027 -1.9584509134292603
-4.725283145904541 9.95833969116211 -2.0223872661590576
-6.843153953552246 9.914023399353027 -2.210245370864868
-10.81424331665039 6.838515281677246 -2.347599983215332
-12.535346031188965 5.340810298919678 -2.5
-12.924448013305664 4.314814567565918 -2.5
-13.22972583770752 3.2608397006988525 -2.5
-13.449223518371582 2.1857030391693115 -2.5
12.82345199584961 9.765624781721272e-06 -2.5
12.781865119934082 1.0318750143051147 -2.5
12.657387733459473 2.0570311546325684 -2.5
11.331405639648438 5.947196960449219 -2.494893789291382
9.62667465209961 7.233994007110596 -2.347599983215332
8.341601371765137 8.684531211853027 -2.347599983215332
7.615736961364746 9.327577590942383 -2.347599983215332
6.840463638305664 9.910184860229492 -2.347599983215332
3.350229501724243 11.566298484802246 -2.347599983215332
2.4086570739746094 11.798368453979492 -2.347599983215332
1.4466650485992432 11.914316177368164 -2.3398170471191406
-0.4506591558456421 11.18349552154541 -2.1820526123046875
-1.3120604753494263 10.805849075317383 -2.1221296787261963
-2.1436619758605957 10.500370979309082 -2.0893259048461914
-4.725283145904541 9.95833969116211 -2.1489059925079346
-5.708915710449219 9.888134956359863 -2.2259678840637207
-6.84048318862915 9.910146713256836 -2.347599983215332
-9.013359069824219 7.985156059265137 -2.347599983215332
-7.724340438842773 5.80447244644165 -1.8836909532546997
-11.354589462280273 5.95934534072876 -2.5
-11.797308921813965 5.026376724243164 -2.5
-12.450824737548828 3.06884765625 -2.5
12.068256378173828 0.97425776720047 -2.5
11.755693435668945 2.897538900375366 -2.5
11.484418869018555 3.8340721130371094 -2.5
11.138667106628418 4.745751857757568 -2.5
10.710888862609863 5.621523380279541 -2.497718572616577
9.089213371276855 6.830097675323486 -2.347599983215332
8.51015567779541 7.539326190948486 -2.347599983215332
7.875893592834473 8.199677467346191 -2.347599983215332
7.190556526184082 8.806825637817383 -2.347599983215332
6.458579063415527 9.356884956359863 -2.347599983215332
5.68472146987915 9.846230506896973 -2.347599983215332
4.031669616699219 10.630615234375 -2.347599983215332
3.1631834506988525 10.920546531677246 -2.347599983215332
2.274179697036743 11.139677047729492 -2.347599983215332
1.3704394102096558 11.286552429199219 -2.347599983215332
-2.1436619758605957 10.500370979309082 -2.212871551513672
-4.725283145904541 9.958330154418945 -2.2759742736816406
-7.190541744232178 8.806836128234863 -2.347599983215332
-7.87588357925415 8.199677467346191 -2.347599983215332
-9.609331130981445 6.076591491699219 -2.347599983215332
-10.720664024353027 5.626640319824219 -2.5
-11.138656616210938 4.745741844177246 -2.5
-11.755682945251465 2.897509813308716 -2.5
-11.950712203979492 1.9421972036361694 -2.5
-12.068242073059082 0.9742480516433716 -2.5
11.131376266479492 2.743642568588257 -2.5
10.874516487121582 3.630449056625366 -2.5
10.547119140625 4.493720531463623 -2.5
10.151328086853027 5.327841758728027 -2.5
9.099013328552246 5.753867149353027 -2.347599983215332
6.808686256408691 8.339120864868164 -2.347599983215332
5.382826805114746 9.323320388793945 -2.347599983215332
3.817558526992798 10.066035270690918 -2.347599983215332
2.9952001571655273 10.340585708618164 -2.347599983215332
0.43349120020866394 10.756903648376465 -2.347599983215332
-1.2976512908935547 10.687148094177246 -2.347599983215332
-2.969716787338257 10.252646446228027 -2.3276355266571045
-4.615151405334473 9.72622013092041 -2.347599983215332
-5.3828125 9.323320388793945 -2.347599983215332
-6.115585803985596 8.859941482543945 -2.347599983215332
-7.457616806030273 7.764199256896973 -2.347599983215332
-8.058188438415527 7.138935565948486 -2.347599983215332
-7.702563285827637 5.788125038146973 -2.101033926010132
-10.151318550109863 5.327841758728027 -2.5
-11.13138198852539 2.743642568588257 -2.5
-11.316044807434082 1.839052677154541 -2.5
10.883706092834473 -9.765624781721272e-06 -2.5
10.848407745361328 0.8757714629173279 -2.5
10.742768287658691 1.74587881565094 -2.5
10.323598861694336 3.446523427963257 -2.5
8.638036727905273 5.462363243103027 -2.347599983215332
7.079804420471191 7.370859146118164 -2.347599983215332
5.805756568908691 8.411084175109863 -2.347599983215332
5.110121726989746 8.85097599029541 -2.347599983215332
4.381342887878418 9.233476638793945 -2.347599983215332
3.624155282974243 9.556083679199219 -2.347599983215332
2.843456983566284 9.816718101501465 -2.347599983215332
2.044316291809082 10.013681411743164 -2.347599983215332
0.41154295206069946 10.211942672729492 -2.347599983215332
-0.41151854395866394 10.211953163146973 -2.347599983215332
-2.044301748275757 10.013690948486328 -2.347599983215332
-2.84344220161438 9.816718101501465 -2.347599983215332
-3.624140501022339 9.556074142456055 -2.347599983215332
-5.110107421875 8.850996017456055 -2.347599983215332
-6.463720321655273 7.916640281677246 -2.347599983215332
-7.691659927368164 5.779921531677246 -2.2100274562835693
-8.820805549621582 5.577939510345459 -2.3972737789154053
-9.637036323547363 5.057919979095459 -2.5
-10.848407745361328 0.8757714629173279 -2.5
10.322782516479492 0.8333398103713989 -2.5
10.222250938415527 1.6612695455551147 -2.5
9.823383331298828 3.279531240463257 -2.5
9.527636528015137 4.059335708618164 -2.5
8.547333717346191 5.404999732971191 -2.441234588623047
7.279306411743164 6.448896408081055 -2.347599983215332
5.524447917938232 8.003554344177246 -2.347599983215332
4.169047832489014 8.786084175109863 -2.347599983215332
3.448554515838623 9.093066215515137 -2.347599983215332
2.705678701400757 9.341073989868164 -2.347599983215332
0.39159178733825684 9.717158317565918 -2.347599983215332
-1.172216773033142 9.65414047241211 -2.347599983215332
-1.9452489614486694 9.528495788574219 -2.347599983215332
-2.7056689262390137 9.341073989868164 -2.347599983215332
-3.4485349655151367 9.093056678771973 -2.347599983215332
-4.169047832489014 8.786073684692383 -2.347599983215332
-4.862514495849609 8.422119140625 -2.347599983215332
-6.150546550750732 7.533066272735596 -2.347599983215332
-9.527631759643555 4.059335708618164 -2.5
-9.823378562927246 3.279531240463257 -2.5
-10.055419921875 2.4784374237060547 -2.5
-10.222235679626465 1.6612889766693115 -2.5
9.843280792236328 0.7946191430091858 -2.5
9.747426986694336 1.5841015577316284 -2.5
9.367084503173828 3.1271777153015137 -2.5
9.085078239440918 3.870790958404541 -2.5
7.41348123550415 5.570868968963623 -2.347599983215332
6.941166877746582 6.149325847625732 -2.347599983215332
6.423847675323486 6.687929630279541 -2.347599983215332
5.86486291885376 7.183144569396973 -2.347599983215332
5.267836570739746 7.631777286529541 -2.347599983215332
3.975395441055298 8.377968788146973 -2.347599983215332
3.2883594036102295 8.670683860778809 -2.347599983215332
2.580004930496216 8.907167434692383 -2.347599983215332
0.37340331077575684 9.26578140258789 -2.347599983215332
-3.97540020942688 8.377959251403809 -2.347599983215332
-4.636645317077637 8.030927658081055 -2.347599983215332
-5.864858150482178 7.183164119720459 -2.347599983215332
-6.423842430114746 6.687919616699219 -2.347599983215332
-8.328847885131836 5.266845703125 -2.494711399078369
-8.744140625 4.589296817779541 -2.5
-9.747411727905273 1.5841211080551147 -2.5
-9.843280792236328 0.7946386337280273 -2.5
8.679638862609863 3.69805645942688 -2.5
8.353930473327637 4.384472370147705 -2.5
7.9608154296875 5.034111022949219 -2.495856285095215
6.137167930603027 6.389482498168945 -2.347599983215332
5.032753944396973 7.291210651397705 -2.347599983215332
3.797988176345825 8.004091262817383 -2.347599983215332
3.1416211128234863 8.283730506896973 -2.347599983215332
1.067895531654358 8.794862747192383 -2.347599983215332
-0.3567236363887787 8.852285385131836 -2.347599983215332
-1.7721142768859863 8.680429458618164 -2.347599983215332
-2.464858293533325 8.509687423706055 -2.347599983215332
-3.141606330871582 8.2837495803833 -2.347599983215332
-3.7979931831359863 8.004101753234863 -2.347599983215332
-4.429726600646973 7.672529220581055 -2.347599983215332
-5.032748699188232 7.291191101074219 -2.347599983215332
-5.603125095367432 6.862597465515137 -2.347599983215332
-6.137163162231445 6.389482498168945 -2.347599983215332
-7.963534832000732 5.035839557647705 -2.4967095851898193
-8.949067115783691 2.9876463413238525 -2.5
-9.160444259643555 2.2578516006469727 -2.5
-9.312421798706055 1.5134375095367432 -2.5
-9.404004096984863 0.7591796517372131 -2.5
9.029281616210938 0.0 -2.5
8.564604759216309 2.8592772483825684 -2.5
8.306753158569336 3.5391697883605957 -2.5
7.995034217834473 4.196113109588623 -2.5
7.625165939331055 4.821865081787109 -2.497938394546509
6.778359413146973 5.093593597412109 -2.347599983215332
6.346518516540527 5.622519493103027 -2.347599983215332
4.239428520202637 7.342909812927246 -2.347599983215332
3.634819269180298 7.660233974456787 -2.347599983215332
3.00665020942688 7.927870750427246 -2.347599983215332
2.3589744567871094 8.1441011428833 -2.347599983215332
-0.3414013683795929 8.471991539001465 -2.347599983215332
-3.006640672683716 7.927861213684082 -2.347599983215332
-3.63482403755188 7.660233974456787 -2.347599983215332
-4.816533088684082 6.977958679199219 -2.347599983215332
-5.873505592346191 6.114970684051514 -2.347599983215332
-6.346508502960205 5.622519493103027 -2.347599983215332
-8.306753158569336 3.539179563522339 -2.5
-8.56459903717041 2.8592772483825684 -2.5
-8.766899108886719 2.160839796066284 -2.5
-8.912353515625 1.4483983516693115 -2.5
8.627089500427246 0.6964452862739563 -2.5
8.40365219116211 2.0713086128234863 -2.5
8.209731101989746 2.7408103942871094 -2.5
7.315000057220459 4.625712871551514 -2.499913454055786
6.5701904296875 4.937167644500732 -2.3738627433776855
6.083549499511719 5.389560222625732 -2.347599983215332
5.630151271820068 5.86160135269165 -2.347599983215332
5.140229225158691 6.295615196228027 -2.347599983215332
4.063769340515137 7.038661956787109 -2.347599983215332
2.882080078125 7.599374771118164 -2.347599983215332
1.6257177591323853 7.963300704956055 -2.347599983215332
0.9796728491783142 8.068281173706055 -2.347599983215332
0.3272705078125 8.120946884155273 -2.347599983215332
-0.32725584506988525 8.12093734741211 -2.347599983215332
-0.9796581864356995 8.068281173706055 -2.347599983215332
-2.261220693588257 7.806650161743164 -2.347599983215332
-3.4842185974121094 7.342832088470459 -2.347599983215332
-4.616962909698486 6.688847541809082 -2.347599983215332
-6.083544731140137 5.389550685882568 -2.347599983215332
-7.315248966217041 4.625888347625732 -2.5
-8.209726333618164 2.7408201694488525 -2.5
-8.403647422790527 2.0713086128234863 -2.5
8.067245483398438 1.9883984327316284 -2.5
7.881093502044678 2.6310839653015137 -2.5
7.022417068481445 4.44070291519165 -2.5
5.404765605926514 5.626962661743164 -2.347599983215332
4.934462547302246 6.043612957000732 -2.347599983215332
4.432143688201904 6.421073913574219 -2.347599983215332
3.9010887145996094 6.756884574890137 -2.347599983215332
3.344736337661743 7.048867225646973 -2.347599983215332
2.7666990756988525 7.295166015625 -2.347599983215332
2.170707941055298 7.494140625 -2.347599983215332
0.9404540657997131 7.745292663574219 -2.347599983215332
0.31416991353034973 7.795859336853027 -2.347599983215332
-0.94044429063797 7.745292663574219 -2.347599983215332
-1.5606298446655273 7.644511699676514 -2.347599983215332
-3.344736337661743 7.048886775970459 -2.347599983215332
-5.404755592346191 5.626962661743164 -2.347599983215332
-5.840004920959473 5.173808574676514 -2.347599983215332
-6.604917049407959 4.963281154632568 -2.4859297275543213
-7.022407054901123 4.440722465515137 -2.5
-8.067240715026855 1.9883984327316284 -2.5
-8.201079368591309 1.3328124284744263 -2.5
-8.281733512878418 0.6685742139816284 -2.5
7.960922718048096 0.6426757574081421 -2.5
7.754731178283691 1.9113671779632568 -2.5
7.575795650482178 2.5291600227355957 -2.5
7.071972370147705 3.711660146713257 -2.5
6.750380516052246 4.268671989440918 -2.5
6.368930339813232 4.785927772521973 -2.4937050342559814
5.195390701293945 5.408974647521973 -2.347599983215332
3.7499706745147705 6.495136737823486 -2.347599983215332
3.215161085128784 6.775820255279541 -2.347599983215332
2.086621046066284 7.203827857971191 -2.347599983215332
0.9040185213088989 7.445253849029541 -2.347599983215332
-0.30198729038238525 7.493857383728027 -2.347599983215332
-2.6595115661621094 7.012558460235596 -2.347599983215332
-3.215165853500366 6.775820255279541 -2.347599983215332
-3.7499656677246094 6.495136737823486 -2.347599983215332
-4.260448932647705 6.172324180603027 -2.347599983215332
-5.195380687713623 5.408974647521973 -2.347599983215332
-6.370424747467041 4.787070274353027 -2.494295358657837
-6.750370979309082 4.268671989440918 -2.5
-7.071967601776123 3.711660146713257 -2.5
-7.575786113739014 2.5291600227355957 -2.5
-7.883383750915527 1.2811815738677979 -2.5
-7.960912704467773 0.6426855325698853 -2.5
7.686967372894287 0.0 -2.5
7.662045955657959 0.6185449361801147 -2.5
7.587426662445068 1.2330760955810547 -2.5
7.463603496551514 1.8396190404891968 -2.5
7.291367053985596 2.434218645095825 -2.5
6.496953010559082 4.10842752456665 -2.5
6.134838581085205 4.610019207000732 -2.49574875831604
5.403027057647705 4.786669731140137 -2.347599983215332
4.100507736206055 5.940605163574219 -2.347599983215332
3.0944578647613525 6.521435260772705 -2.347599983215332
2.0082812309265137 6.933369159698486 -2.347599983215332
1.4438672065734863 7.072499752044678 -2.347599983215332
-0.8700780868530273 7.165751934051514 -2.347599983215332
-1.4438623189926147 7.072490215301514 -2.347599983215332
-2.0082714557647705 6.933369159698486 -2.347599983215332
-2.5596678256988525 6.74929666519165 -2.347599983215332
-3.609184503555298 6.251298904418945 -2.347599983215332
-4.100497722625732 5.940595626831055 -2.347599983215332
-4.56521463394165 5.591376781463623 -2.347599983215332
-5.000327110290527 5.205908298492432 -2.347599983215332
-5.403027057647705 4.786660194396973 -2.347599983215332
-6.1363525390625 4.611191272735596 -2.4963667392730713
-6.496938228607178 4.108417987823486 -2.5
-6.806464672088623 3.57232403755188 -2.5
-7.071845531463623 3.0130467414855957 -2.5
-7.587416648864746 1.233095645904541 -2.5
-7.662026405334473 0.6185449361801147 -2.5
7.406874656677246 -9.765624781721272e-06 -2.5
7.310961723327637 1.1881542205810547 -2.5
7.191650390625 1.7725781202316284 -2.5
7.025698184967041 2.345507860183716 -2.5
6.814174652099609 2.903261661529541 -2.5
6.558461666107178 3.442128896713257 -2.5
6.260219573974609 3.9587206840515137 -2.5
5.9161376953125 4.445693492889404 -2.4977877140045166
5.283783912658691 4.681005954742432 -2.382603406906128
3.9510886669158936 5.724140644073486 -2.347599983215332
0.8383740186691284 6.904628753662109 -2.347599983215332
0.2800634801387787 6.94970703125 -2.347599983215332
-0.2800537049770355 6.949697017669678 -2.347599983215332
-0.8383691310882568 6.904638290405273 -2.347599983215332
-1.3912402391433716 6.814785003662109 -2.347599983215332
-1.935097575187683 6.680742263793945 -2.347599983215332
-2.4664013385772705 6.503359317779541 -2.347599983215332
-3.477675676345825 6.023515701293945 -2.347599983215332
-3.9510838985443115 5.724140644073486 -2.347599983215332
-4.398871898651123 5.387646198272705 -2.347599983215332
-5.91750955581665 4.446718692779541 -2.4983694553375244
-6.558461666107178 3.442148447036743 -2.5
-6.814174652099609 2.9032421112060547 -2.5
-7.191640377044678 1.7725781202316284 -2.5
-7.382856369018555 0.595996081829071 -2.5
6.936992168426514 1.709814429283142 -2.5
6.776904106140137 2.2624707221984863 -2.5
6.326225280761719 3.320253849029541 -2.5
6.038539886474609 3.818535089492798 -2.5
5.711010456085205 4.29153299331665 -2.4997000694274902
5.263114929199219 4.662704944610596 -2.4604082107543945
4.647529125213623 4.838583946228027 -2.347599983215332
4.243114948272705 5.196865081787109 -2.347599983215332
3.8111815452575684 5.521454811096191 -2.347599983215332
3.3545312881469727 5.810204982757568 -2.347599983215332
2.3790721893310547 6.27306604385376 -2.347599983215332
-0.8086816072463989 6.660136699676514 -2.347599983215332
-1.8665771484375 6.444169998168945 -2.347599983215332
-2.3790576457977295 6.273085594177246 -2.347599983215332
-3.3545215129852295 5.810224533081055 -2.347599983215332
-4.243105411529541 5.196884632110596 -2.347599983215332
-5.303061485290527 4.698105335235596 -2.47908616065979
-5.711684226989746 4.292070388793945 -2.5
-6.038535118103027 3.818535089492798 -2.5
-6.326215744018555 3.320263624191284 -2.5
-6.776899337768555 2.262460947036743 -2.5
-7.052065372467041 1.1460644006729126 -2.5
-7.121420860290527 0.574902355670929 -2.5
6.898417949676514 1.9531249563442543e-05 -2.5
6.80908203125 1.1065820455551147 -2.5
6.346401214599609 2.7039549350738525 -2.5
5.83047342300415 3.6869726181030273 -2.5
5.150292873382568 4.562763690948486 -2.4935853481292725
4.487392425537109 4.671855449676514 -2.347599983215332
4.096913814544678 5.017792701721191 -2.347599983215332
3.6798534393310547 5.331201076507568 -2.347599983215332
2.777026414871216 5.852441310882568 -2.347599983215332
1.8022704124450684 6.222128868103027 -2.347599983215332
1.2957470417022705 6.346982479095459 -2.347599983215332
0.7808251976966858 6.430654048919678 -2.347599983215332
0.26084959506988525 6.472617149353027 -2.347599983215332
-0.7808154225349426 6.4306640625 -2.347599983215332
-1.2957372665405273 6.346962928771973 -2.347599983215332
-1.8022656440734863 6.222128868103027 -2.347599983215332
-2.2970898151397705 6.056933403015137 -2.347599983215332
-2.7770214080810547 5.852441310882568 -2.347599983215332
-3.6798582077026367 5.331191062927246 -2.347599983215332
-4.487387657165527 4.671864986419678 -2.347599983215332
-5.151278972625732 4.563652038574219 -2.4940669536590576
-5.830468654632568 3.686962842941284 -2.5
-6.346391677856445 2.7039451599121094 -2.5
-6.80907678604126 1.106591820716858 -2.5
-6.876035213470459 0.5550878643989563 -2.5
6.666845321655273 9.765624781721272e-06 -2.5
6.645229339599609 0.5364648103713989 -2.5
6.580507755279541 1.069433569908142 -2.5
6.473119735717773 1.5954785346984863 -2.5
6.323750019073486 2.1111717224121094 -2.5
6.133359432220459 2.6131834983825684 -2.5
5.9031982421875 3.0982322692871094 -2.5
5.634750843048096 3.5632128715515137 -2.5
5.329765319824219 4.005058288574219 -2.5
3.556337833404541 5.152235984802246 -2.347599983215332
3.1302244663238525 5.421699047088623 -2.347599983215332
1.2522509098052979 6.133925437927246 -2.347599983215332
0.7546142339706421 6.214804649353027 -2.347599983215332
0.2520849406719208 6.255351543426514 -2.347599983215332
-0.2520800828933716 6.255361080169678 -2.347599983215332
-1.2522460222244263 6.13390588760376 -2.347599983215332
-2.219975471496582 5.853613376617432 -2.347599983215332
-5.634746074676514 3.5632030963897705 -2.5
-6.133349418640137 2.613163948059082 -2.5
-6.473114967346191 1.5954687595367432 -2.5
-6.580512523651123 1.069433569908142 -2.5
6.365063190460205 1.034423828125 -2.5
6.11669921875 2.042060613632202 -2.5
5.709921836853027 2.9967870712280273 -2.5
5.450258731842041 3.446533203125 -2.5
4.338393688201904 4.516747951507568 -2.427983045578003
3.0277342796325684 5.244189262390137 -2.347599983215332
1.6847362518310547 5.816376686096191 -2.347599983215332
1.2112499475479126 5.933095455169678 -2.347599983215332
0.2438378781080246 6.050546646118164 -2.347599983215332
-1.2112352848052979 5.933075904846191 -2.347599983215332
-1.6847362518310547 5.816376686096191 -2.347599983215332
-2.147289991378784 5.661972522735596 -2.347599983215332
-2.5959277153015137 5.470800876617432 -2.347599983215332
-3.8297460079193115 4.690585613250732 -2.347599983215332
-4.822773456573486 4.272616863250732 -2.497905969619751
-5.155253887176514 3.8739354610443115 -2.5
-5.709917068481445 2.9968066215515137 -2.5
-6.261181354522705 1.54324209690094 -2.5
-6.365053653717041 1.034423828125 -2.5
6.242421627044678 0.0 -2.5
6.161591529846191 1.001367211341858 -2.5
6.06103515625 1.49392569065094 -2.5
5.92117166519165 1.9767773151397705 -2.5
5.276034832000732 3.336357355117798 -2.5
4.990458965301514 3.750077962875366 -2.5
3.7073192596435547 4.540644645690918 -2.347599983215332
3.3299314975738525 4.824238300323486 -2.347599983215332
2.512953996658325 5.295917987823486 -2.347599983215332
0.23604004085063934 5.857138633728027 -2.347599983215332
-0.7065673470497131 5.819140434265137 -2.347599983215332
-2.0786523818969727 5.480966567993164 -2.347599983215332
-2.512944221496582 5.295937538146973 -2.347599983215332
-2.9309375286102295 5.076542854309082 -2.347599983215332
-3.3299267292022705 4.824228286743164 -2.347599983215332
-4.672006607055664 4.139042854309082 -2.499727249145508
-4.990458965301514 3.7500975131988525 -2.5
-5.527387619018555 2.901005744934082 -2.5
-5.742895603179932 2.4468164443969727 -2.5
-5.921162128448486 1.9767675399780273 -2.5
-6.161577224731445 1.0013574361801147 -2.5
-6.222182273864746 0.5022363066673279 -2.5
6.047382831573486 0.0 -2.5
6.027773380279541 0.4866015613079071 -2.5
5.969067096710205 0.9700781106948853 -2.5
5.354692459106445 2.81036114692688 -2.5
4.526533126831055 4.010146617889404 -2.5
4.180068492889404 4.351894378662109 -2.494568109512329
3.225893497467041 4.673515319824219 -2.347599983215332
2.4344334602355957 5.130458831787109 -2.347599983215332
0.2286669909954071 5.674120903015137 -2.347599983215332
-0.6844921708106995 5.63732385635376 -2.347599983215332
-1.1358838081359863 5.563954830169678 -2.347599983215332
-1.579921841621399 5.454511642456055 -2.347599983215332
-2.0137059688568115 5.309697151184082 -2.347599983215332
-2.839370012283325 4.917929649353027 -2.347599983215332
-3.225883722305298 4.673515319824219 -2.347599983215332
-3.6410887241363525 4.459531307220459 -2.3800244331359863
-4.180756568908691 4.352646350860596 -2.4949841499328613
-4.526528358459473 4.010156154632568 -2.5
-5.111181735992432 3.232128858566284 -2.5
-5.354677677154541 2.810351610183716 -2.5
-5.736152172088623 1.9150195121765137 -2.5
-5.871654987335205 1.4472362995147705 -2.5
5.843510627746582 0.471748024225235 -2.5
5.692172527313232 1.4029979705810547 -2.5
5.56082010269165 1.8564647436141968 -2.5
5.393403053283691 2.297910213470459 -2.5
5.191005706787109 2.7244627475738525 -2.5
4.954941272735596 3.1333203315734863 -2.5
4.686752796173096 3.521855354309082 -2.5
4.388164043426514 3.8875584602355957 -2.5
1.5316308736801147 5.287783145904541 -2.347599983215332
1.1011767387390137 5.393896579742432 -2.347599983215332
0.66357421875 5.465009689331055 -2.347599983215332
0.22167479991912842 5.500683307647705 -2.347599983215332
-1.101162075996399 5.393886566162109 -2.347599983215332
-2.3600194454193115 4.9736328125 -2.347599983215332
-4.388159275054932 3.887578010559082 -2.5
-4.686738014221191 3.521855354309082 -2.5
-4.954936504364014 3.1333203315734863 -2.5
-5.786591529846191 0.9404199123382568 -2.5
-5.843510627746582 0.47172850370407104 -2.5
5.668588638305664 0.4576171636581421 -2.5
5.231947898864746 2.229140520095825 -2.5
5.035610198974609 2.642890453338623 -2.5
4.806616306304932 3.0395214557647705 -2.5
4.546454906463623 3.416435480117798 -2.5
3.9367527961730957 4.098603248596191 -2.498234272003174
3.5862059593200684 4.392304420471191 -2.4926798343658447
3.0336570739746094 4.39501953125 -2.347599983215332
2.670175790786743 4.624882698059082 -2.347599983215332
2.289365291595459 4.82473611831665 -2.347599983215332
0.21504394710063934 5.336015701293945 -2.347599983215332
-0.2150292992591858 5.335996150970459 -2.347599983215332
-0.6437011361122131 5.301415920257568 -2.347599983215332
-1.0682079792022705 5.232402324676514 -2.347599983215332
-2.670161008834839 4.624882698059082 -2.347599983215332
-3.0336570739746094 4.395009517669678 -2.347599983215332
-3.586669921875 4.392890453338623 -2.4930100440979004
-3.9373486042022705 4.099228382110596 -2.498610496520996
-4.806611061096191 3.0395312309265137 -2.5
-5.231938362121582 2.229120969772339 -2.5
-5.394350528717041 1.8008984327316284 -2.5
5.520161151885986 9.765624781721272e-06 -2.5
5.502265453338623 0.4441796839237213 -2.5
5.359755516052246 1.3210546970367432 -2.5
5.236073970794678 1.7480566501617432 -2.5
5.078437328338623 2.1637206077575684 -2.5
4.887856483459473 2.5653417110443115 -2.5
4.413056373596191 3.316171884536743 -2.5
4.131899356842041 3.660537004470825 -2.5
2.5918262004852295 4.489179611206055 -2.347599983215332
2.2221972942352295 4.683164119720459 -2.347599983215332
1.8381541967391968 4.846796989440918 -2.347599983215332
0.6248193383216858 5.145869255065918 -2.347599983215332
0.20873045921325684 5.179433345794678 -2.347599983215332
-1.0368554592132568 5.078896522521973 -2.347599983215332
-1.4421825408935547 4.978993892669678 -2.347599983215332
-1.8381445407867432 4.846806526184082 -2.347599983215332
-2.2221922874450684 4.683164119720459 -2.347599983215332
-3.0210399627685547 4.376748085021973 -2.4085021018981934
-5.078427791595459 2.163710832595825 -2.5
-5.236073970794678 1.7480664253234863 -2.5
-5.502255916595459 0.44419920444488525 -2.5
5.343896389007568 0.4314062297344208 -2.5
5.291850566864014 0.85999995470047 -2.5
5.085366249084473 1.6977441310882568 -2.5
4.747172832489014 2.491503953933716 -2.5
4.531293869018555 2.865419864654541 -2.5
3.713881731033325 3.8665623664855957 -2.5
3.3857274055480957 4.14675760269165 -2.4963247776031494
2.9991307258605957 4.344980239868164 -2.461894989013672
2.1582324504852295 4.548378944396973 -2.347599983215332
1.7852489948272705 4.70730447769165 -2.347599983215332
1.4006786346435547 4.835663795471191 -2.347599983215332
0.6068359017372131 4.997734069824219 -2.347599983215332
-0.20270995795726776 5.030361175537109 -2.347599983215332
-0.6068310141563416 4.997744083404541 -2.347599983215332
-1.7852294445037842 4.707314491271973 -2.347599983215332
-3.0123095512390137 4.364101409912109 -2.47271728515625
-4.012963771820068 3.555185556411743 -2.5
-4.286020278930664 3.2207422256469727 -2.5
-4.9322509765625 2.101445198059082 -2.5
-5.085361003875732 1.6977343559265137 -2.5
-5.205478191375732 1.2830370664596558 -2.5
-5.291831016540527 0.8600097298622131 -2.5
-5.343881607055664 0.43141600489616394 -2.5
