ply
format ascii 1.0
element vertex 744
property float x
property float y
property float z
end_header
5.420507907867432 -26.551366806030273 2.2952229976654053
-6.339526176452637 -16.715927124023438 1.3148455619812012
-6.333178520202637 -16.699169158935547 1.1146984100341797
-6.326845645904541 -16.682479858398438 0.915228545665741
-6.31423807144165 -16.64921760559082 0.5181106328964233
-6.307953834533691 -16.632675170898438 0.320360392332077
-6.301694393157959 -16.61614227294922 0.12308074533939362
-6.289194107055664 -16.583232879638672 -0.2702586352825165
-24.598451614379883 -10.480429649353027 -0.703862726688385
-6.282973289489746 -16.56680679321289 -0.46641936898231506
-24.58414077758789 -10.474326133728027 -0.9998841881752014
-23.431180953979492 -9.765624781721272e-06 -1.1368671655654907
-24.569833755493164 -10.468222618103027 -1.2958035469055176
-6.270532131195068 -16.534013748168945 -0.8579725623130798
-24.55552101135254 -10.462138175964355 -1.5916961431503296
-21.575258255004883 -16.212793350219727 -1.6093777418136597
15.616630554199219 -6.653613090515137 -1.012274146080017
-22.6238956451416 0.0 -1.6009130477905273
-23.429847717285156 -9.982528686523438 -1.802152395248413
-21.233129501342773 -15.955702781677246 -1.879433274269104
-14.765459060668945 -18.08440399169922 -1.6520544290542603
13.26317310333252 -19.21500015258789 -1.65215003490448
15.516005516052246 -6.610751628875732 -1.1934432983398438
-28.62013053894043 -4.651230335235596 -2.3749780654907227
-23.429847717285156 -9.982539176940918 -2.0860230922698975
-25.378368377685547 -13.319619178771973 -2.347599983215332
-24.2528076171875 -15.33657169342041 -2.35036563873291
-22.995878219604492 -17.28032112121582 -2.356081247329712
-5.21533203125 -6.387636661529541 -0.6754379272460938
-4.762670993804932 -6.899950981140137 -0.6867210268974304
-14.433549880981445 -24.99966812133789 -2.364452838897705
-9.31344223022461 -19.627723693847656 -1.7794766426086426
-6.251928806304932 -16.484941482543945 -1.4440926313400269
-3.4921483993530273 -28.76056671142578 -2.3730294704437256
-1.167270541191101 -28.966171264648438 -2.3744919300079346
1.1678760051727295 -28.979774475097656 -2.3756070137023926
5.800805568695068 -28.414257049560547 -2.3753671646118164
8.0676851272583 -27.85283088684082 -2.375152587890625
10.27676773071289 -27.097557067871094 -2.3737707138061523
14.470307350158691 -25.063261032104492 -2.3704657554626465
12.949951171875 -18.761220932006836 -1.8672280311584473
18.26308250427246 -22.368173599243164 -2.365253448486328
21.55157470703125 -19.093027114868164 -2.3583450317382812
22.977529525756836 -17.2664737701416 -2.354200839996338
15.008551597595215 -7.877099514007568 -1.3883492946624756
-22.53199577331543 -9.765624781721272e-06 -2.097158193588257
-26.011587142944336 -6.411288738250732 -2.4934756755828857
-23.924707412719727 -7.987246036529541 -2.347599983215332
-23.204418182373047 -9.886484146118164 -2.347599983215332
-22.333646774291992 -11.721631050109863 -2.347599983215332
-20.16413116455078 -15.152411460876465 -2.347599983215332
-5.961723327636719 -6.20681619644165 -0.8010183572769165
-12.647602081298828 -21.90631866455078 -2.354344367980957
-9.39016056060791 -19.789413452148438 -2.038729429244995
-6.245732307434082 -16.46859359741211 -1.6393362283706665
-7.053227424621582 -24.350643157958984 -2.3595879077911377
-4.143710613250732 -20.29729461669922 -1.928130030632019
3.0606884956359863 -25.20701026916504 -2.363369941711426
7.060751914978027 -24.376493453979492 -2.3620948791503906
12.663554191589355 -21.93390655517578 -2.3573098182678223
13.881393432617188 -14.45199203491211 -1.8651046752929688
15.080507278442383 -13.360116958618164 -1.875205636024475
20.164165496826172 -15.152362823486328 -2.347599983215332
14.46407413482666 -7.591347694396973 -1.520390272140503
15.330964088439941 -6.531904220581055 -1.5510387420654297
24.199005126953125 -8.078818321228027 -2.3745150566101074
-23.977596282958984 -9.765624781721272e-06 -2.5
-22.743627548217773 -7.592939376831055 -2.5
-19.93685531616211 -10.463690757751465 -2.347599983215332
-18.00019073486328 -13.526298522949219 -2.347599983215332
-15.738348960876465 -13.942977905273438 -2.1922812461853027
-5.947787761688232 -6.192314147949219 -0.8952181935310364
-4.562119007110596 -6.609394550323486 -0.8373437523841858
-11.2579345703125 -19.499345779418945 -2.347599983215332
-9.501503944396973 -20.024072647094727 -2.3109047412872314
0.9088818430900574 -22.55313491821289 -2.3533852100372314
9.658891677856445 -20.35567283630371 -2.3491744995117188
14.077899932861328 -7.388661861419678 -1.6576987504959106
15.311518669128418 -6.523622989654541 -1.7353014945983887
23.667098999023438 -3.8462791442871094 -2.5
23.899824142456055 -1.929384708404541 -2.5
-21.648881912231445 0.0 -2.5
-21.578685760498047 -1.7420116662979126 -2.5
-21.368539810180664 -3.472724437713623 -2.5
-19.15251350402832 -10.052041053771973 -2.4978320598602295
-17.6011905670166 -11.130341529846191 -2.4048728942871094
-16.251996994018555 -12.212616920471191 -2.347599983215332
-15.21657657623291 -13.480741500854492 -2.347599983215332
-5.196879863739014 -6.365029335021973 -0.9489074349403381
-4.542328834533691 -6.580722332000732 -0.9233892560005188
-5.932695388793945 -15.643193244934082 -1.9320110082626343
-4.066342830657959 -19.91834831237793 -2.347599983215332
-2.4504051208496094 -20.180946350097656 -2.347599983215332
-0.8185400366783142 -20.312694549560547 -2.347599983215332
0.8185888528823853 -20.31267547607422 -2.347599983215332
2.4504246711730957 -20.180965423583984 -2.347599983215332
5.655951976776123 -19.52654266357422 -2.347599983215332
7.208842754364014 -19.008094787597656 -2.347599983215332
8.714984893798828 -18.36641502380371 -2.347599983215332
10.164604187011719 -17.6055850982666 -2.347599983215332
11.548310279846191 -16.730575561523438 -2.347599983215332
12.857118606567383 -15.74705982208252 -2.347599983215332
13.742284774780273 -14.307177543640137 -2.2908787727355957
14.987262725830078 -13.277519226074219 -2.3122146129608154
16.252025604248047 -12.212597846984863 -2.347599983215332
17.482969284057617 -11.055526733398438 -2.38871693611145
14.04006290435791 -7.368798732757568 -1.8310760259628296
15.30377197265625 -6.520322322845459 -1.9209868907928467
20.534767150878906 -6.855517387390137 -2.5
8.823803901672363 -2.174873113632202 -1.0494621992111206
9.426587104797363 -1.5319628715515137 -1.1028574705123901
21.578699111938477 -1.7420116662979126 -2.5
-19.66400909423828 -1.587441325187683 -2.5
-19.472515106201172 -3.1645898818969727 -2.5
-18.712709426879883 -6.247236251831055 -2.5
-18.14933967590332 -7.732724666595459 -2.5
-17.4682559967041 -9.168066024780273 -2.5
-15.728055953979492 -11.8189058303833 -2.4931321144104004
-14.077641487121582 -12.471728324890137 -2.383359670639038
-5.190722465515137 -6.357500076293945 -1.0400700569152832
-9.262675285339355 -16.043437957763672 -2.347599983215332
-7.325673580169678 -15.438495635986328 -2.1654951572418213
-5.154052734375 -17.7939453125 -2.347599983215332
-3.7055320739746094 -18.150976181030273 -2.347599983215332
-0.745922863483429 -18.51034164428711 -2.347599983215332
0.7459570169448853 -18.51034164428711 -2.347599983215332
3.705561399459839 -18.150976181030273 -2.347599983215332
5.154101371765137 -17.7939453125 -2.347599983215332
6.56920862197876 -17.321514129638672 -2.347599983215332
13.99813461303711 -12.401259422302246 -2.3698954582214355
16.67390251159668 -10.543915748596191 -2.5
14.027384757995605 -7.362138271331787 -2.0075528621673584
15.30352783203125 -6.520224571228027 -2.1080002784729004
9.3341064453125 -1.516933560371399 -1.1983693838119507
-18.11604881286621 -9.765624781721272e-06 -2.5
-17.881450653076172 -2.9060254096984863 -2.5
-17.589628219604492 -4.335458755493164 -2.5
-17.183734893798828 -5.736777305603027 -2.5
-15.311508178710938 -9.6824312210083 -2.5
-14.482738494873047 -10.883095741271973 -2.5
-7.021245002746582 -6.220293045043945 -1.2944715023040771
-5.914565086364746 -6.157724380493164 -1.178253412246704
-4.521914005279541 -6.551132678985596 -1.0985010862350464
-7.285942077636719 -15.354745864868164 -2.3453826904296875
-4.433168888092041 -15.305146217346191 -2.1989285945892334
-2.0505175590515137 -16.88765525817871 -2.347599983215332
-0.6849657893180847 -16.99789047241211 -2.347599983215332
3.402787923812866 -16.66790008544922 -2.347599983215332
6.032441139221191 -15.906210899353027 -2.347599983215332
7.292797565460205 -15.36922836303711 -2.347599983215332
8.505864143371582 -14.73256778717041 -2.347599983215332
9.663763999938965 -14.000350952148438 -2.347599983215332
12.3844575881958 -12.893583297729492 -2.467134952545166
13.560065269470215 -12.013163566589355 -2.5
14.482758522033691 -10.883085250854492 -2.5
14.049418449401855 -7.373701095581055 -2.1896145343780518
8.424335479736328 -2.8124608993530273 -1.225625991821289
8.27541446685791 -2.0397069454193115 -1.1761764287948608
9.244843482971191 -1.50244140625 -1.2925176620483398
-16.743759155273438 -9.765624781721272e-06 -2.5
-16.689462661743164 -1.347314476966858 -2.5
-15.882055282592773 -5.302216529846191 -2.5
-15.403905868530273 -6.56298828125 -2.5
-14.8258638381958 -7.781230449676514 -2.5
-6.715712547302246 -5.949618816375732 -1.339619517326355
-5.903520584106445 -6.146210670471191 -1.2724387645721436
-8.082021713256836 -13.998496055603027 -2.413444995880127
-5.575453758239746 -14.701327323913574 -2.347599983215332
-1.8951903581619263 -15.608417510986328 -2.347599983215332
-0.6330859065055847 -15.710302352905273 -2.347599983215332
1.8848876953125 -15.523407936096191 -2.3348135948181152
4.374448299407959 -15.102274894714355 -2.347599983215332
6.740370750427246 -14.205009460449219 -2.347599983215332
8.054067611694336 -13.9500093460083 -2.405089855194092
10.586098670959473 -12.965585708618164 -2.4991891384124756
11.598817825317383 -12.075634956359863 -2.5
15.403923034667969 -6.562978267669678 -2.5
8.12247085571289 -2.002011775970459 -1.249056100845337
-15.108901023864746 -3.7240233421325684 -2.5
-14.760263442993164 -4.927704811096191 -2.5
-13.778647422790527 -7.231611251831055 -2.5
-13.152079582214355 -8.316884994506836 -2.5
-7.688603401184082 -5.777626991271973 -1.5451120138168335
-5.892055511474609 -6.134286880493164 -1.3664898872375488
-4.510087966918945 -6.534013748168945 -1.2755202054977417
-7.780527114868164 -13.476298332214355 -2.5
-5.455424785614014 -14.384833335876465 -2.4716403484344482
-1.7840771675109863 -14.693339347839355 -2.3779289722442627
0.5931298732757568 -14.717822074890137 -2.366442918777466
1.782509684562683 -14.680214881896973 -2.3758041858673096
2.982241153717041 -14.607929229736328 -2.3952746391296387
6.657060623168945 -14.02944278717041 -2.4948010444641113
9.841552734375 -12.053690910339355 -2.5
11.647650718688965 -10.318915367126465 -2.5
12.440199851989746 -9.3482027053833 -2.5
13.778666496276855 -7.231611251831055 -2.5
8.108691215515137 -2.707080125808716 -1.3733984231948853
8.046113014221191 -1.98318350315094 -1.331351637840271
-14.531044960021973 9.765624781721272e-06 -2.5
-14.342875480651855 -2.330947160720825 -2.5
-13.368270874023438 -5.695693016052246 -2.5
-12.281494140625 -7.766366958618164 -2.5
-7.326557636260986 -5.505566120147705 -1.5767241716384888
-5.163959980010986 -6.324716567993164 -1.4047622680664062
-4.042768478393555 -13.9573335647583 -2.5
-1.7493114471435547 -14.407011032104492 -2.4968631267547607
0.5841259360313416 -14.494696617126465 -2.4957690238952637
1.7492187023162842 -14.405966758728027 -2.4966838359832764
4.042807579040527 -13.9573335647583 -2.5
6.229360103607178 -13.12807559967041 -2.5
7.265536785125732 -12.584257125854492 -2.5
8.254590034484863 -11.958818435668945 -2.5
10.066020011901855 -10.479833602905273 -2.5
10.876649856567383 -9.635869026184082 -2.5
7.968110084533691 -2.660146474838257 -1.445253610610962
8.929643630981445 -1.451210856437683 -1.5564597845077515
-13.229731559753418 -3.2608494758605957 -2.5
-12.535326957702637 -5.340810298919678 -2.5
-11.516279220581055 -7.282470703125 -2.5
-6.639169692993164 -5.881806373596191 -1.6274137496948242
-5.161298751831055 -6.321455001831055 -1.4973315000534058
-4.498661994934082 -6.51745080947876 -1.4530068635940552
-6.812836647033691 -11.800185203552246 -2.5
-4.831723690032959 -12.74022388458252 -2.5
-3.7908787727355957 -13.0877046585083 -2.5
-1.6423876285552979 -13.526328086853027 -2.5
-0.5486279129981995 -13.614619255065918 -2.5
2.7254979610443115 -13.350302696228027 -2.5
3.7909131050109863 -13.0877046585083 -2.5
5.841235160827637 -12.3101167678833 -2.5
8.617505073547363 -10.554511070251465 -2.5
9.4388427734375 -9.826874732971191 -2.5
10.198959350585938 -9.035478591918945 -2.5
10.892953872680664 -8.185526847839355 -2.5
11.516288757324219 -7.282451152801514 -2.5
12.535346031188965 -5.340810298919678 -2.5
7.882143497467041 -1.9427733421325684 -1.4894750118255615
8.832704544067383 -1.4354588985443115 -1.641862154006958
10.393515586853027 -0.8390527367591858 -1.91317617893219
-12.823442459106445 -9.765624781721272e-06 -2.5
-12.403129577636719 -3.0570409297943115 -2.490422010421753
-12.1635103225708 -4.060771465301514 -2.5
-11.797314643859863 -5.026376724243164 -2.5
-10.838247299194336 -6.853701114654541 -2.5
-7.29149866104126 -5.479228496551514 -1.7781378030776978
-4.497783184051514 -6.516181468963623 -1.5436065196990967
-4.5472412109375 -11.99013614654541 -2.5
-3.567700147628784 -12.317148208618164 -2.5
0.5163671970367432 -12.813055992126465 -2.5
4.547275066375732 -11.990126609802246 -2.5
5.497338771820068 -11.58535099029541 -2.5
7.284560203552246 -10.553485870361328 -2.5
9.598490715026855 -8.503515243530273 -2.5
10.251626014709473 -7.703583717346191 -2.5
7.791303634643555 -1.9203710556030273 -1.564414381980896
10.390092849731445 -0.8387694954872131 -2.032193183898926
-12.107504844665527 0.0 -2.5
-11.95071792602539 -1.942177653312683 -2.5
-10.72066879272461 -5.626659870147705 -2.5
-6.635034084320068 -5.878144264221191 -1.8303338289260864
-5.873461723327637 -6.114931583404541 -1.7507296800613403
-4.498593807220459 -6.517373085021973 -1.635177731513977
-6.053750038146973 -10.4854097366333 -2.5
-3.3685057163238525 -11.62948226928711 -2.5
-2.421806573867798 -11.862821578979492 -2.5
-1.45937979221344 -12.019238471984863 -2.5
-0.48750486969947815 -12.097684860229492 -2.5
3.368540048599243 -11.62948226928711 -2.5
4.293398380279541 -11.32071304321289 -2.5
6.053769588470459 -10.4854097366333 -2.5
7.6573486328125 -9.378535270690918 -2.5
8.387177467346191 -8.731963157653809 -2.5
9.679277420043945 -7.273496150970459 -2.5
10.233149528503418 -6.471054553985596 -2.5
11.13866138458252 -4.745732307434082 -2.5
7.814511775970459 -2.6088671684265137 -1.701111078262329
7.755698204040527 -1.9116113185882568 -1.6493505239486694
8.791083335876465 -1.4286913871765137 -1.8390285968780518
-11.316044807434082 -1.8390429019927979 -2.5
-11.131376266479492 -2.743642568588257 -2.5
-10.151323318481445 -5.327841758728027 -2.5
-6.635995864868164 -5.878993988037109 -1.9332692623138428
-5.0211181640625 -6.149765491485596 -1.7312577962875366
-4.499028205871582 -6.517988204956055 -1.7270537614822388
-5.732245922088623 -9.928564071655273 -2.5
-4.914751052856445 -10.357626914978027 -2.5
-3.1896092891693115 -11.01186466217041 -2.5
-2.2931785583496094 -11.23282241821289 -2.5
-1.3818798065185547 -11.380927085876465 -2.5
-0.4616113305091858 -11.45522403717041 -2.5
4.065390586853027 -10.719501495361328 -2.5
5.732270240783691 -9.928564071655273 -2.5
6.51260232925415 -9.435107231140137 -2.5
7.941752910614014 -8.268232345581055 -2.5
8.581317901611328 -7.602392196655273 -2.5
9.689702033996582 -6.127382755279541 -2.5
10.15133285522461 -5.327831745147705 -2.5
7.804755687713623 -2.605605363845825 -1.794277310371399
7.757055282592773 -1.9119433164596558 -1.7421592473983765
-10.848407745361328 -0.875781238079071 -2.5
-10.5674409866333 -2.6046483516693115 -2.5
-9.637041091918945 -5.057929515838623 -2.5
-9.1987886428833 -5.816972732543945 -2.5
-6.492831707000732 -5.752158164978027 -1.992506504058838
-5.870463848114014 -6.11181640625 -1.9465926885604858
-5.023076057434082 -6.152148246765137 -1.8243566751480103
-5.441840648651123 -9.425556182861328 -2.5
-1.311865210533142 -10.80434513092041 -2.5
-0.43821775913238525 -10.874873161315918 -2.5
1.3119043111801147 -10.80434513092041 -2.5
3.8594236373901367 -10.176445007324219 -2.5
4.665771484375 -9.832880973815918 -2.5
6.182661056518555 -8.957098960876465 -2.5
6.883354187011719 -8.43056583404541 -2.5
7.539413928985596 -7.849345684051514 -2.5
8.146567344665527 -7.217236042022705 -2.5
8.700898170471191 -6.538300514221191 -2.5
10.012787818908691 -4.266044616699219 -2.5
8.789408683776855 -1.4284276962280273 -2.0454251766204834
10.494770050048828 -0.8472265601158142 -2.418503522872925
-10.356351852416992 0.0 -2.5
-10.322772979736328 -0.8333495855331421 -2.5
-9.823373794555664 -3.279531240463257 -2.5
-8.753090858459473 -5.535136699676514 -2.5
-7.751840591430664 -6.86754846572876 -2.5
-5.024941444396973 -6.154443264007568 -1.9179657697677612
-4.499726295471191 -6.518993854522705 -1.9121485948562622
-4.439677715301514 -9.356454849243164 -2.5
-3.6724021434783936 -9.683359146118164 -2.5
-2.0715184211730957 -10.147050857543945 -2.5
-0.4169921875 -10.347949028015137 -2.5
2.071547746658325 -10.14706039428711 -2.5
3.672436475753784 -9.683349609375 -2.5
4.439712047576904 -9.356454849243164 -2.5
5.178188323974609 -8.968867301940918 -2.5
8.279315948486328 -6.221513748168945 -2.5
9.1701021194458 -4.812841892242432 -2.5
9.527641296386719 -4.059335708618164 -2.5
7.78701639175415 -2.5996971130371094 -1.981756567955017
10.32277774810791 -0.8333398103713989 -2.5
-9.875297546386719 -9.765624781721272e-06 -2.5
-9.843280792236328 -0.794628918170929 -2.5
-9.367079734802246 -3.127207040786743 -2.5
-8.346503257751465 -5.278027057647705 -2.5
-7.293891429901123 -5.481015682220459 -2.3097336292266846
-4.410102367401123 -6.389150142669678 -1.965353012084961
-4.937641620635986 -8.552255630493164 -2.5
-3.5018162727355957 -9.233573913574219 -2.5
-1.1903173923492432 -9.803300857543945 -2.5
0.39765623211860657 -9.867294311523438 -2.5
1.975317358970642 -9.675732612609863 -2.5
2.747490167617798 -9.485419273376465 -2.5
3.501845598220825 -9.23355484008789 -2.5
4.937661170959473 -8.552265167236328 -2.5
5.609819412231445 -8.127206802368164 -2.5
6.840868949890137 -7.12209939956665 -2.5
7.391772270202637 -6.548554420471191 -2.5
7.894741058349609 -5.932509422302246 -2.5
9.085078239440918 -3.870790958404541 -2.5
7.787050724029541 -2.5996971130371094 -2.0782997608184814
8.791298866271973 -1.4287304878234863 -2.2547760009765625
9.843280792236328 -0.794628918170929 -2.5
-9.434609413146973 -9.765624781721272e-06 -2.5
-9.404013633728027 -0.75916987657547 -2.5
-9.312426567077637 -1.5134179592132568 -2.5
-8.679633140563965 -3.6980466842651367 -2.5
-7.974038124084473 -5.04248046875 -2.5
-7.061899185180664 -6.256308555603027 -2.5
-6.535585880279541 -6.804257869720459 -2.5
-5.027153015136719 -6.157157897949219 -2.106278419494629
-4.410595417022705 -6.389873027801514 -2.057386875152588
-4.044531345367432 -8.523700714111328 -2.5
-1.887148380279541 -9.243935585021973 -2.5
-1.1372021436691284 -9.36581039428711 -2.5
1.1372119188308716 -9.365819931030273 -2.5
1.8871679306030273 -9.243935585021973 -2.5
4.044560432434082 -8.523700714111328 -2.5
5.359477519989014 -7.76452112197876 -2.5
5.966879844665527 -7.308085918426514 -2.5
7.542431354522705 -5.667763710021973 -2.5
7.974042892456055 -5.042470455169678 -2.5
8.353925704956055 -4.384491920471191 -2.5
8.679643630981445 -3.6980466842651367 -2.5
7.756674766540527 -1.9118456840515137 -2.116892099380493
-9.029281616210938 9.765624781721272e-06 -2.5
-9.0 -0.7265625 -2.5
-8.912353515625 -1.4483983516693115 -2.5
-8.56459903717041 -2.8592772483825684 -2.5
-8.306747436523438 -3.539179563522339 -2.5
-7.995028972625732 -4.196113109588623 -2.5
-7.631459712982178 -4.825849533081055 -2.5
-7.218393325805664 -5.424286842346191 -2.5
-6.758505821228027 -5.987519264221191 -2.5
-5.026049613952637 -6.155800819396973 -2.200345516204834
-5.129213809967041 -7.430956840515137 -2.5
-4.514638423919678 -7.819589614868164 -2.5
-3.8707714080810547 -8.157500267028809 -2.5
-3.2018065452575684 -8.442519187927246 -2.5
-2.512089729309082 -8.672782897949219 -2.5
-1.806069254875183 -8.846796989440918 -2.5
-1.088344693183899 -8.9634370803833 -2.5
0.3635839819908142 -9.021963119506836 -2.5
1.0883740186691284 -8.963446617126465 -2.5
2.5121190547943115 -8.672773361206055 -2.5
3.201835870742798 -8.44252872467041 -2.5
3.870795726776123 -8.157509803771973 -2.5
7.218398094177246 -5.424267292022705 -2.5
7.631459712982178 -4.825829982757568 -2.5
7.995038986206055 -4.196123123168945 -2.5
8.306757926940918 -3.5391697883605957 -2.5
8.564604759216309 -2.8592772483825684 -2.5
7.775932312011719 -1.916591763496399 -2.2174103260040283
8.912358283996582 -1.448388695716858 -2.5
-8.655156135559082 0.0 -2.5
-8.543070793151855 -1.3883788585662842 -2.5
-8.403647422790527 -2.0713183879852295 -2.5
-8.209726333618164 -2.740800619125366 -2.5
-7.663759708404541 -4.022255897521973 -2.5
-6.919301509857178 -5.199521541595459 -2.5
-6.478461742401123 -5.739433288574219 -2.5
-5.024379730224609 -6.153759479522705 -2.294693946838379
-4.916684627532959 -7.123056411743164 -2.5
-3.71038556098938 -7.819501876831055 -2.5
-2.4079980850219727 -8.313437461853027 -2.5
-1.7312499284744263 -8.480243682861328 -2.5
-1.0432567596435547 -8.592050552368164 -2.5
-0.34849119186401367 -8.648134231567383 -2.5
0.34852537512779236 -8.648134231567383 -2.5
1.0432714223861694 -8.592041015625 -2.5
2.408022403717041 -8.313427925109863 -2.5
3.0691795349121094 -8.092704772949219 -2.5
4.327587604522705 -7.495585918426514 -2.5
4.916694164276123 -7.123046875 -2.5
6.91930627822876 -5.199521541595459 -2.5
7.663764476776123 -4.02224588394165 -2.5
7.962568283081055 -3.392529249191284 -2.5
8.543075561523438 -1.3883886337280273 -2.5
-8.067240715026855 -1.9884082078933716 -2.5
-7.881078720092773 -2.631093740463257 -2.5
-7.35696268081665 -3.8612499237060547 -2.5
-6.642309188842773 -4.991376876831055 -2.5
-5.022392272949219 -6.151318073272705 -2.389436960220337
-4.719853401184082 -6.837910175323486 -2.5
-4.154335975646973 -7.195527076721191 -2.5
-3.5618603229522705 -7.506484031677246 -2.5
-2.3116111755371094 -7.980634689331055 -2.5
-1.6619433164596558 -8.140761375427246 -2.5
-1.001489281654358 -8.248095512390137 -2.5
-0.33454588055610657 -8.301942825317383 -2.5
1.0015136003494263 -8.248095512390137 -2.5
2.3116307258605957 -7.980644226074219 -2.5
3.561879873275757 -7.506474494934082 -2.5
4.71987771987915 -6.837910175323486 -2.5
6.219140529632568 -5.509677410125732 -2.5
7.022417068481445 -4.44070291519165 -2.5
7.643823146820068 -3.256718635559082 -2.5
8.067245483398438 -1.9883886575698853 -2.5
8.281747817993164 -0.6685742139816284 -2.5
-7.98681640625 0.0 -2.5
-7.754726409912109 -1.911376953125 -2.5
-7.575786113739014 -2.529169797897339 -2.5
-7.071967601776123 -3.711669921875 -2.5
-6.38500452041626 -4.798017501831055 -2.5
-5.978212833404541 -5.296240329742432 -2.5
-5.532656192779541 -5.760117053985596 -2.5
-3.993403196334839 -6.91677713394165 -2.5
-3.42388653755188 -7.21569299697876 -2.5
-2.8321533203125 -7.467792987823486 -2.5
-2.222055673599243 -7.671474456787109 -2.5
-1.59756338596344 -7.825409889221191 -2.5
-0.9626904129981995 -7.92858362197876 -2.5
2.2220799922943115 -7.671483993530273 -2.5
2.8321776390075684 -7.46780252456665 -2.5
3.423906087875366 -7.21569299697876 -2.5
4.537035942077637 -6.573017597198486 -2.5
5.978212833404541 -5.296240329742432 -2.5
6.38500452041626 -4.798007488250732 -2.5
7.347714900970459 -3.130556583404541 -2.5
7.575790882110596 -2.529169797897339 -2.5
7.754741191864014 -1.911376953125 -2.5
7.883388519287109 -1.2811717987060547 -2.5
7.960922718048096 -0.6426757574081421 -2.5
-7.686957836151123 0.0 -2.5
-7.587416648864746 -1.2330760955810547 -2.5
-7.291371822357178 -2.4342284202575684 -2.5
-5.753769397735596 -5.097402095794678 -2.5
-5.324951171875 -5.543857097625732 -2.5
-4.366689205169678 -6.326259613037109 -2.5
-3.8434863090515137 -6.657118797302246 -2.5
-3.295341730117798 -6.944804668426514 -2.5
0.3095361292362213 -7.680732250213623 -2.5
0.9265722632408142 -7.630918025970459 -2.5
1.53759765625 -7.531620979309082 -2.5
2.1386570930480957 -7.383456707000732 -2.5
3.8434910774230957 -6.65709924697876 -2.5
4.366703987121582 -6.326240062713623 -2.5
5.324946403503418 -5.543867111206055 -2.5
5.753774166107178 -5.097392559051514 -2.5
6.806469440460205 -3.5723142623901367 -2.5
7.071855545043945 -3.0130369663238525 -2.5
-7.406874656677246 -9.765624781721272e-06 -2.5
-7.310961723327637 -1.1881444454193115 -2.5
-6.558461666107178 -3.4421582221984863 -2.5
-5.921371936798096 -4.449628829956055 -2.5
-5.544120788574219 -4.911669731140137 -2.5
-5.130918025970459 -5.341855525970459 -2.5
-4.207582950592041 -6.095742225646973 -2.5
-3.703437328338623 -6.414540767669678 -2.5
-3.1752734184265137 -6.691757678985596 -2.5
-2.626513719558716 -6.925556659698486 -2.5
-1.4815527200698853 -7.257187366485596 -2.5
-0.8927929401397705 -7.352870941162109 -2.5
0.8928027153015137 -7.352860927581787 -2.5
2.060732364654541 -7.114443302154541 -2.5
2.626528263092041 -6.925537109375 -2.5
3.175287961959839 -6.691738128662109 -2.5
3.7034521102905273 -6.414540767669678 -2.5
4.207592487335205 -6.095742225646973 -2.5
4.6844482421875 -5.737411975860596 -2.5
5.130932331085205 -5.341855525970459 -2.5
6.260219573974609 -3.9587206840515137 -2.5
7.19164514541626 -1.7725878953933716 -2.5
7.382865905761719 -0.5960058569908142 -2.5
-6.776899337768555 -2.262460947036743 -2.5
-6.57287073135376 -2.8004491329193115 -2.5
-6.038530349731445 -3.818544864654541 -2.5
-5.711679458618164 -4.292070388793945 -2.5
-3.5722949504852295 -6.187392234802246 -2.5
-3.0628318786621094 -6.454784870147705 -2.5
-2.533500909805298 -6.680312156677246 -2.5
-1.9877440929412842 -6.862509727478027 -2.5
-1.4290918111801147 -7.000195026397705 -2.5
-0.8611767292022705 -7.092499732971191 -2.5
0.28770017623901367 -7.138798713684082 -2.5
1.987758755683899 -6.862509727478027 -2.5
4.949238300323486 -5.152695178985596 -2.5
5.347802639007568 -4.737743854522705 -2.5
6.776908874511719 -2.262460947036743 -2.5
7.121425628662109 -0.574902355670929 -2.5
-6.898407936096191 0.0 -2.5
-6.876039981842041 -0.5550878643989563 -2.5
-6.346396446228027 -2.7039451599121094 -2.5
-4.778700828552246 -4.975156307220459 -2.5
-4.362871170043945 -5.343554496765137 -2.5
-2.4462060928344727 -6.450126647949219 -2.5
-1.9192479848861694 -6.626054763793945 -2.5
-0.27775877714157104 -6.892822265625 -2.5
0.8315234184265137 -6.848105430603027 -2.5
1.3798681497573853 -6.759003639221191 -2.5
2.446225643157959 -6.450126647949219 -2.5
3.449213743209839 -5.974199295043945 -2.5
3.9187498092651367 -5.677265644073486 -2.5
4.362871170043945 -5.343544960021973 -2.5
4.778706073760986 -4.975156307220459 -2.5
5.163539886474609 -4.57449197769165 -2.5
5.514887809753418 -4.144169807434082 -2.5
5.83047342300415 -3.686962842941284 -2.5
6.80907678604126 -1.106601595878601 -2.5
6.876049518585205 -0.5550878643989563 -2.5
-6.645229339599609 -0.5364550948143005 -2.5
-6.323744773864746 -2.1111814975738525 -2.5
-5.634746074676514 -3.5632030963897705 -2.5
-5.329755783081055 -4.005068302154541 -2.5
-4.618281364440918 -4.808154106140137 -2.5
-2.3640966415405273 -6.233613014221191 -2.5
-1.8548192977905273 -6.403623104095459 -2.5
-0.8035839796066284 -6.618232250213623 -2.5
0.8036132454872131 -6.618232250213623 -2.5
1.8548486232757568 -6.403613090515137 -2.5
2.3641014099121094 -6.233613014221191 -2.5
2.858036994934082 -6.023163795471191 -2.5
3.33343243598938 -5.773652076721191 -2.5
3.7872118949890137 -5.486699104309082 -2.5
4.216420650482178 -5.164169788360596 -2.5
4.618290901184082 -4.808154106140137 -2.5
4.990210056304932 -4.420937538146973 -2.5
5.329765319824219 -4.005048751831055 -2.5
5.634755611419678 -3.5631933212280273 -2.5
5.9031982421875 -3.0982322692871094 -2.5
6.473119735717773 -1.5954785346984863 -2.5
6.580517292022705 -1.0694433450698853 -2.5
-6.427656173706055 -0.5189062356948853 -2.5
-6.365048885345459 -1.0344140529632568 -2.5
-6.261176586151123 -1.54324209690094 -2.5
-6.11669921875 -2.042050838470459 -2.5
-5.932548522949219 -2.5276269912719727 -2.5
-5.709917068481445 -2.9968066215515137 -2.5
-5.450258731842041 -3.446542978286743 -2.5
-4.078359127044678 -4.995097637176514 -2.5
-3.2242724895477295 -5.584619045257568 -2.5
-2.7644481658935547 -5.82595682144165 -2.5
-2.286684513092041 -6.029501914978027 -2.5
-1.2898730039596558 -6.318251609802246 -2.5
-0.7772802710533142 -6.401552677154541 -2.5
-0.2596386671066284 -6.443329811096191 -2.5
0.777294933795929 -6.401542663574219 -2.5
1.2898876667022705 -6.318242073059082 -2.5
1.7941112518310547 -6.193954944610596 -2.5
2.2867040634155273 -6.029511451721191 -2.5
3.2242918014526367 -5.584619045257568 -2.5
4.078373908996582 -4.995087623596191 -2.5
5.155263423919678 -3.8739256858825684 -2.5
5.450273513793945 -3.446523427963257 -2.5
5.932553768157959 -2.5276269912719727 -2.5
6.116708755493164 -2.042050838470459 -2.5
6.261181354522705 -1.54324209690094 -2.5
-6.24242639541626 0.0 -2.5
-6.222177505493164 -0.5023144483566284 -2.5
-5.921162128448486 -1.9767773151397705 -2.5
-5.527377605438232 -2.900995969772339 -2.5
-5.27603006362915 -3.336357355117798 -2.5
-4.990454196929932 -3.7500877380371094 -2.5
-3.947988271713257 -4.835410118103027 -2.5
-3.546098470687866 -5.137421607971191 -2.5
-3.121210813522339 -5.406093597412109 -2.5
-1.7367479801177979 -5.995956897735596 -2.5
-1.2486474514007568 -6.116269588470459 -2.5
-0.75244140625 -6.196904182434082 -2.5
-0.2513427734375 -6.237363338470459 -2.5
0.2513720691204071 -6.237363338470459 -2.5
2.2136034965515137 -5.836767673492432 -2.5
3.121225595474243 -5.406103610992432 -2.5
3.5461082458496094 -5.137412071228027 -2.5
4.990458965301514 -3.7500975131988525 -2.5
5.276034832000732 -3.336357355117798 -2.5
5.527392387390137 -2.900995969772339 -2.5
5.921166896820068 -1.9767773151397705 -2.5
6.061039924621582 -1.4939062595367432 -2.5
6.161591529846191 -1.0013574361801147 -2.5
6.222182273864746 -0.5022948980331421 -2.5
-6.047382831573486 -9.765624781721272e-06 -2.5
-6.027763366699219 -0.4866113066673279 -2.5
-5.969057559967041 -0.9700683355331421 -2.5
-5.736152172088623 -1.9150097370147705 -2.5
-5.111171722412109 -3.232119083404541 -2.5
-4.189169883728027 -4.361396312713623 -2.5
-3.8246335983276367 -4.684326171875 -2.5
-3.435297727584839 -4.976913928985596 -2.5
-3.023686408996582 -5.237196922302246 -2.5
-2.592460870742798 -5.463505744934082 -2.5
-2.144423723220825 -5.654404163360596 -2.5
-1.6824804544448853 -5.80862283706665 -2.5
-1.2096288204193115 -5.92516565322876 -2.5
-0.7289257645606995 -6.003281116485596 -2.5
0.24351073801517487 -6.042470455169678 -2.5
0.7289404273033142 -6.003281116485596 -2.5
1.2096385955810547 -5.92516565322876 -2.5
1.6825000047683716 -5.808603286743164 -2.5
2.1444385051727295 -5.654394626617432 -2.5
3.023696184158325 -5.237177848815918 -2.5
3.82464337348938 -4.684326171875 -2.5
4.189169883728027 -4.361386775970459 -2.5
4.526533126831055 -4.010156154632568 -2.5
4.834536075592041 -3.6329100131988525 -2.5
5.354697227478027 -2.81036114692688 -2.5
5.736162185668945 -1.9150195121765137 -2.5
5.871650218963623 -1.4472265243530273 -2.5
5.969072341918945 -0.9700781106948853 -2.5
-5.862524509429932 0.0 -2.5
-5.786601543426514 -0.9404101371765137 -2.5
-5.560810565948486 -1.85647451877594 -2.5
-5.393398284912109 -2.297910213470459 -2.5
-4.954941272735596 -3.1333203315734863 -2.5
-3.7077245712280273 -4.541142463684082 -2.5
-2.9312548637390137 -5.077099323272705 -2.5
-2.5132176876068115 -5.296504020690918 -2.5
-2.0788817405700684 -5.481562614440918 -2.5
-1.6310497522354126 -5.631064414978027 -2.5
-1.1726512908935547 -5.744052410125732 -2.5
0.7066601514816284 -5.819775104522705 -2.5
1.631069302558899 -5.631054401397705 -2.5
2.513232469558716 -5.296494007110596 -2.5
2.9312596321105957 -5.077089786529541 -2.5
3.3302977085113525 -4.824746131896973 -2.5
4.061118125915527 -4.22805643081665 -2.5
4.388168811798096 -3.887568235397339 -2.5
4.686757564544678 -3.521855354309082 -2.5
4.954946041107178 -3.133310556411743 -2.5
5.191000938415527 -2.7244529724121094 -2.5
5.393403053283691 -2.297919988632202 -2.5
5.786606311798096 -0.9404101371765137 -2.5
5.843510627746582 -0.471748024225235 -2.5
-5.687016487121582 9.765624781721272e-06 -2.5
-5.613383769989014 -0.9122655987739563 -2.5
-5.231947898864746 -2.229120969772339 -2.5
-5.035600662231445 -2.642890453338623 -2.5
-4.806616306304932 -3.0395312309265137 -2.5
-4.546450138092041 -3.416435480117798 -2.5
-3.9395408630371094 -4.101503849029541 -2.5
-3.5967283248901367 -4.405195236206055 -2.5
-3.2305908203125 -4.680331707000732 -2.5
-2.0166454315185547 -5.317470550537109 -2.5
-1.5822265148162842 -5.462490081787109 -2.5
-0.6854833960533142 -5.645556449890137 -2.5
-0.22898437082767487 -5.682412147521973 -2.5
1.1375536918640137 -5.572089672088623 -2.5
1.5822362899780273 -5.462490081787109 -2.5
4.256801605224609 -3.771191358566284 -2.5
5.035610198974609 -2.642890453338623 -2.5
5.394355297088623 -1.8009082078933716 -2.5
5.668593406677246 -0.4576171636581421 -2.5
-5.502255916595459 -0.4441894292831421 -2.5
-5.359755516052246 -1.3210644721984863 -2.5
-4.413042068481445 -3.3162012100219727 -2.5
-4.131894588470459 -3.6605565547943115 -2.5
-3.8239452838897705 -3.981152296066284 -2.5
-3.491201162338257 -4.275947093963623 -2.5
-1.9574755430221558 -5.161445140838623 -2.5
-1.1041698455810547 -5.408593654632568 -2.5
-0.22227539122104645 -5.515683650970459 -2.5
0.6653808355331421 -5.479921817779541 -2.5
2.366450071334839 -4.987196922302246 -2.5
2.760087728500366 -4.780595779418945 -2.5
3.135815382003784 -4.54299783706665 -2.5
3.8239598274230957 -3.981152296066284 -2.5
4.665585994720459 -2.950331926345825 -2.5
5.236073970794678 -1.748046875 -2.5
5.359760761260986 -1.3210644721984863 -2.5
5.448686599731445 -0.885498046875 -2.5
5.502270221710205 -0.4441894292831421 -2.5
-5.361264705657959 0.0 -2.5
-5.343886375427246 -0.4314062297344208 -2.5
-5.291840553283691 -0.8600097298622131 -2.5
-4.747168064117432 -2.491513729095459 -2.5
-4.286025524139404 -3.2207517623901367 -2.5
-3.713876962661743 -3.8665525913238525 -2.5
-3.390702962875366 -4.15286111831665 -2.5
-3.0455517768859863 -4.412246227264404 -2.5
-2.2983202934265137 -4.843632698059082 -2.5
-1.9011279344558716 -5.012870788574219 -2.5
-1.4915966987609863 -5.149599552154541 -2.5
-0.21586912870407104 -5.356923580169678 -2.5
0.21587401628494263 -5.356923580169678 -2.5
0.6462353467941284 -5.322187423706055 -2.5
1.0723925828933716 -5.2529296875 -2.5
1.9011377096176147 -5.012880802154541 -2.5
2.29833984375 -4.843642234802246 -2.5
3.3907177448272705 -4.15286111831665 -2.5
3.7138867378234863 -3.8665623664855957 -2.5
4.012973308563232 -3.555185556411743 -2.5
4.531298637390137 -2.865410089492798 -2.5
4.747162818908691 -2.491513729095459 -2.5
5.205488204956055 -1.2830370664596558 -2.5
5.291845798492432 -0.8600097298622131 -2.5
