ply
format ascii 1.0
element vertex 695
property float x
property float y
property float z
end_header
-21.456117630004883 -11.261034965515137 6.492863655090332
-18.108379364013672 -11.451034545898438 4.983925819396973
-18.13599967956543 -11.468524932861328 4.492715358734131
-18.13446807861328 -11.467538833618164 4.244714260101318
-18.131439208984375 -11.4656343460083 3.7520244121551514
-18.126943588256836 -11.46279239654541 3.020559072494507
-18.125457763671875 -11.461854934692383 2.7775139808654785
-18.123973846435547 -11.460917472839355 2.5370779037475586
-18.119951248168945 -11.458369255065918 1.8158260583877563
-18.119306564331055 -11.457968711853027 1.5767065286636353
-18.117979049682617 -11.457109451293945 1.0996227264404297
-18.116640090942383 -11.456278800964355 0.8615118265151978
-18.115306854248047 -11.455429077148438 0.6236468553543091
-18.112646102905273 -11.453749656677246 0.1484246850013733
-18.111328125 -11.452909469604492 -0.08905029296875
-18.109989166259766 -11.452070236206055 -0.32650986313819885
-18.108652114868164 -11.4512300491333 -0.5640148520469666
-18.107328414916992 -11.450390815734863 -0.8016281127929688
-18.105995178222656 -11.449541091918945 -1.0394011735916138
-18.104673385620117 -11.448710441589355 -1.2773960828781128
22.10919952392578 -16.614042282104492 -1.6492071151733398
-18.10332489013672 -11.447851181030273 -1.5156701803207397
7.129447937011719 -15.024980545043945 -1.1768200397491455
11.621333122253418 -20.128740310668945 -1.6447001695632935
16.916643142700195 -17.612079620361328 -1.7280410528182983
-28.3817138671875 -4.612480163574219 -2.3551924228668213
-27.828481674194336 -6.859111309051514 -2.347599983215332
-26.367835998535156 -11.23428726196289 -2.347599983215332
-20.694520950317383 -10.861318588256836 -1.9143282175064087
-23.024194717407227 -17.301591873168945 -2.3589837551116943
-16.74211883544922 -17.430389404296875 -1.9795973300933838
-16.43667984008789 -23.812646865844727 -2.369976043701172
-10.970229148864746 -19.001005172729492 -1.7971078157424927
-12.394271850585938 -26.120418548583984 -2.3681182861328125
-1.166176676750183 -28.93889617919922 -2.3722598552703857
3.493705987930298 -28.772987365722656 -2.3740551471710205
5.79601526260376 -20.010156631469727 -1.7063682079315186
16.41613006591797 -23.7828311920166 -2.3670103549957275
18.25484848022461 -22.35808563232422 -2.3641905784606934
19.9672794342041 -20.788114547729492 -2.360945463180542
17.503400802612305 -13.15291976928711 -1.7933363914489746
27.186323165893555 -9.076112747192383 -2.347599983215332
-26.77305030822754 -2.1613476276397705 -2.5
-23.20443344116211 -9.886474609375 -2.347599983215332
-20.715194702148438 -10.872167587280273 -2.1774773597717285
-18.01689338684082 -11.393193244934082 -1.9840645790100098
-20.164140701293945 -15.152392387390137 -2.347599983215332
-18.879501342773438 -16.72579002380371 -2.347599983215332
-12.139310836791992 -14.867948532104492 -1.7864980697631836
-11.069442749023438 -19.1728515625 -2.060572862625122
-8.982523918151855 -23.685028076171875 -2.3576879501342773
-1.0214990377426147 -25.348915100097656 -2.361257314682007
3.0590574741363525 -25.193456649780273 -2.362095832824707
5.076132774353027 -24.86448097229004 -2.3619883060455322
8.991372108459473 -23.708271026611328 -2.360001564025879
14.369242668151855 -20.817411422729492 -2.3543295860290527
15.979043006896973 -19.570741653442383 -2.3515753746032715
18.879507064819336 -16.725770950317383 -2.347599983215332
17.535079956054688 -13.176708221435547 -2.0415091514587402
19.038801193237305 -12.039345741271973 -2.0966029167175293
22.333654403686523 -11.72158145904541 -2.347599983215332
23.20442771911621 -9.886474609375 -2.347599983215332
24.076385498046875 -8.037871360778809 -2.362482786178589
26.079654693603516 -6.428056716918945 -2.5
26.5123233795166 -4.308671951293945 -2.5
-23.97759246826172 0.0 -2.5
-23.667064666748047 -3.846269369125366 -2.5
-22.743602752685547 -7.592919826507568 -2.5
-21.310306549072266 -9.079472541809082 -2.4151644706726074
-19.936824798583984 -10.463671684265137 -2.347599983215332
-17.99227523803711 -11.377636909484863 -2.2195510864257812
-18.000165939331055 -13.52626895904541 -2.347599983215332
-11.115507125854492 -19.252626419067383 -2.3178999423980713
-9.658681869506836 -20.35527229309082 -2.349133014678955
-7.992157936096191 -21.073633193969727 -2.3499319553375244
-4.511850357055664 -22.100605010986328 -2.351827383041382
-2.7196483612060547 -22.39839744567871 -2.3525023460388184
-0.9086669683456421 -22.548906326293945 -2.3529489040374756
2.719980478286743 -22.400907516479492 -2.3527660369873047
4.5128173828125 -22.105224609375 -2.3523199558258057
7.993197917938232 -21.076269149780273 -2.3502273559570312
14.2401123046875 -17.440927505493164 -2.347599983215332
17.398590087890625 -13.074150085449219 -2.269139289855957
18.927106857299805 -11.968710899353027 -2.3348779678344727
19.936847686767578 -10.463642120361328 -2.347599983215332
21.740713119506836 -9.26285171508789 -2.463942050933838
-21.368539810180664 -3.4727048873901367 -2.5
-20.534759521484375 -6.85549783706665 -2.5
-19.12565803527832 -10.03792953491211 -2.4943301677703857
-16.25200653076172 -12.212607383728027 -2.347599983215332
-14.08251953125 -14.661444664001465 -2.347599983215332
-11.548280715942383 -16.7305850982666 -2.347599983215332
-8.714950561523438 -18.366395950317383 -2.347599983215332
-7.208818435668945 -19.00810432434082 -2.347599983215332
-5.655908107757568 -19.526533126831055 -2.347599983215332
-1.9383398294448853 -15.963427543640137 -1.8569831848144531
0.8185937404632568 -20.312685012817383 -2.347599983215332
2.4504246711730957 -20.18095588684082 -2.347599983215332
5.655947208404541 -19.526533126831055 -2.347599983215332
7.208837509155273 -19.008094787597656 -2.347599983215332
7.047094345092773 -14.85140609741211 -1.8983126878738403
12.857109069824219 -15.7470703125 -2.347599983215332
14.082524299621582 -14.661444664001465 -2.347599983215332
15.216618537902832 -13.480731964111328 -2.347599983215332
16.252017974853516 -12.212597846984863 -2.347599983215332
19.168893814086914 -10.060575485229492 -2.4999654293060303
-19.72798728942871 9.765624781721272e-06 -2.5
-19.664003372192383 -1.587441325187683 -2.5
-19.47249984741211 -3.1645801067352295 -2.5
-18.712705612182617 -6.247216701507568 -2.5
-18.14934539794922 -7.73269510269165 -2.5
-15.582250595092773 -11.709325790405273 -2.470020055770874
-11.716279029846191 -14.349833488464355 -2.347599983215332
-7.94167947769165 -16.73674774169922 -2.347599983215332
-5.154062271118164 -17.7939453125 -2.347599983215332
-1.9383398294448853 -15.963427543640137 -2.037796974182129
-0.745922863483429 -18.510332107543945 -2.347599983215332
6.569199085235596 -17.321502685546875 -2.347599983215332
9.26269245147705 -16.043426513671875 -2.347599983215332
10.523622512817383 -15.246054649353027 -2.347599983215332
11.716296195983887 -14.349814414978027 -2.347599983215332
12.832978248596191 -13.360527038574219 -2.347599983215332
14.165458679199219 -12.549491882324219 -2.398224353790283
15.739381790161133 -11.827372550964355 -2.4949238300323486
17.46827507019043 -9.168036460876465 -2.5
18.712717056274414 -6.247206687927246 -2.5
19.154727935791016 -4.721200942993164 -2.5
19.664012908935547 -1.58743155002594 -2.5
-18.11603546142578 -9.765624781721272e-06 -2.5
-17.881444931030273 -2.906015634536743 -2.5
-17.58963394165039 -4.335458755493164 -2.5
-17.183734893798828 -5.736757755279541 -2.5
-16.666391372680664 -7.100878715515137 -2.5
-14.482733726501465 -10.883095741271973 -2.5
-12.326542854309082 -12.833291053771973 -2.4555976390838623
-7.292783260345459 -15.369218826293945 -2.347599983215332
-6.032412052154541 -15.906210899353027 -2.347599983215332
2.050546884536743 -16.887636184692383 -2.347599983215332
6.032441139221191 -15.906210899353027 -2.347599983215332
7.047475337982178 -14.852216720581055 -2.268629789352417
9.663763999938965 -14.000341415405273 -2.347599983215332
10.988927841186523 -13.458954811096191 -2.3977720737457275
12.511962890625 -13.026298522949219 -2.4925334453582764
13.560068130493164 -12.013163566589355 -2.5
15.31151294708252 -9.682412147521973 -2.5
16.04097557067871 -8.418935775756836 -2.5
-16.743755340576172 0.0 -2.5
-15.882055282592773 -5.302196979522705 -2.5
-14.151650428771973 -8.948965072631836 -2.5
-11.598808288574219 -12.075634956359863 -2.5
-9.393891334533691 -13.609403610229492 -2.4690794944763184
-5.575453758239746 -14.701308250427246 -2.347599983215332
-4.374413967132568 -15.102265357971191 -2.347599983215332
-3.1449949741363525 -15.405292510986328 -2.347599983215332
-1.8951952457427979 -15.608417510986328 -2.347599983215332
-0.6248730421066284 -15.5061616897583 -2.317094564437866
1.895229458808899 -15.60838794708252 -2.347599983215332
4.374438285827637 -15.10228443145752 -2.347599983215332
6.776664733886719 -14.281503677368164 -2.360243797302246
8.114843368530273 -14.055302619934082 -2.42324161529541
10.589526176452637 -12.969775199890137 -2.5
11.598817825317383 -12.075634956359863 -2.5
14.1516695022583 -8.948954582214355 -2.5
14.825868606567383 -7.781210899353027 -2.5
15.403915405273438 -6.56298828125 -2.5
15.882075309753418 -5.302206993103027 -2.5
16.526918411254883 -2.685839891433716 -2.5
16.689462661743164 -1.3473047018051147 -2.5
-15.561083793640137 0.0 -2.5
-15.510624885559082 -1.252138614654541 -2.5
-14.760263442993164 -4.927685260772705 -2.5
-13.152079582214355 -8.316864967346191 -2.5
-10.779541015625 -11.222695350646973 -2.5
-9.841547966003418 -12.05370044708252 -2.5
-8.839692115783691 -12.806513786315918 -2.5
-7.780527114868164 -13.476298332214355 -2.5
-4.194296836853027 -14.480429649353027 -2.4220125675201416
-0.5932958722114563 -14.722850799560547 -2.3672523498535156
1.7866357564926147 -14.714139938354492 -2.3812952041625977
2.991992235183716 -14.655673027038574 -2.4031054973602295
5.471972465515137 -14.428359031677246 -2.479123115539551
6.661147117614746 -14.038026809692383 -2.4963319301605225
7.780556678771973 -13.476288795471191 -2.5
10.779562950134277 -11.222684860229492 -2.5
12.440202713012695 -9.3482027053833 -2.5
13.15208911895752 -8.316864967346191 -2.5
13.778671264648438 -7.231581687927246 -2.5
14.315888404846191 -6.099413871765137 -2.5
14.760265350341797 -4.927695274353027 -2.5
15.10891342163086 -3.724013566970825 -2.5
15.35958480834961 -2.496161937713623 -2.5
-14.531049728393555 9.765624781721272e-06 -2.5
-14.342870712280273 -2.330937385559082 -2.5
-13.783231735229492 -4.601513385772705 -2.5
-13.368261337280273 -5.69567346572876 -2.5
-12.866586685180664 -6.752910137176514 -2.5
-12.281494140625 -7.766347408294678 -2.5
-9.190093040466309 -11.255820274353027 -2.5
-5.152773380279541 -13.586767196655273 -2.5
-2.9047069549560547 -14.228281021118164 -2.498398780822754
-1.7491601705551147 -14.405693054199219 -2.4966371059417725
-0.5841259360313416 -14.495156288146973 -2.495849132537842
2.905810594558716 -14.233573913574219 -2.4993317127227783
5.152797698974609 -13.586776733398438 -2.5
6.229360103607178 -13.12808609008789 -2.5
9.190112113952637 -11.255810737609863 -2.5
10.066024780273438 -10.479814529418945 -2.5
12.866618156433105 -6.752910137176514 -2.5
13.368273735046387 -5.695683479309082 -2.5
13.783244132995605 -4.601503849029541 -2.5
14.4839448928833 -1.1692675352096558 -2.5
-13.581483840942383 -1.0964062213897705 -2.5
-13.22972583770752 -3.2608397006988525 -2.5
-11.516279220581055 -7.282451152801514 -2.5
-10.892929077148438 -8.185517311096191 -2.5
-6.812817096710205 -11.800185203552246 -2.5
-5.841206073760986 -12.3101167678833 -2.5
-4.831713676452637 -12.740214347839355 -2.5
-3.790888547897339 -13.0877046585083 -2.5
1.6424120664596558 -13.526317596435547 -2.5
3.790908098220825 -13.087695121765137 -2.5
4.831737995147705 -12.740165710449219 -2.5
5.841239929199219 -12.310107231140137 -2.5
6.812846660614014 -11.800166130065918 -2.5
9.438844680786133 -9.826855659484863 -2.5
10.198965072631836 -9.03548812866211 -2.5
12.06493854522705 -6.332158088684082 -2.5
12.535341262817383 -5.340810298919678 -2.5
12.924443244934082 -4.314804553985596 -2.5
13.229750633239746 -3.2608397006988525 -2.5
13.449230194091797 -2.1856932640075684 -2.5
-12.7818603515625 -1.0318652391433716 -2.5
-12.163505554199219 -4.060771465301514 -2.5
-11.797304153442383 -5.0263671875 -2.5
-11.354594230651855 -5.959355354309082 -2.5
-10.838247299194336 -6.853691101074219 -2.5
-9.59847640991211 -8.503524780273438 -2.5
-8.8831148147583 -9.248300552368164 -2.5
-5.497304439544678 -11.585341453552246 -2.5
-4.5472412109375 -11.990126609802246 -2.5
-1.5456883907318115 -12.729941368103027 -2.5
2.5650291442871094 -12.564276695251465 -2.5
4.547265529632568 -11.990117073059082 -2.5
5.497338771820068 -11.585331916809082 -2.5
6.411733150482178 -11.105420112609863 -2.5
8.8831148147583 -9.248291015625 -2.5
10.25161361694336 -7.703583717346191 -2.5
11.354606628417969 -5.959335803985596 -2.5
11.797314643859863 -5.026357173919678 -2.5
12.16351318359375 -4.060771465301514 -2.5
12.45082950592041 -3.068837881088257 -2.5
12.781867027282715 -1.0318554639816284 -2.5
-12.107500076293945 9.765624781721272e-06 -2.5
-11.755678176879883 -2.897509813308716 -2.5
-10.720664024353027 -5.626640319824219 -2.5
-6.877846717834473 -9.964296340942383 -2.5
-4.29336404800415 -11.320722579956055 -2.5
-3.3685057163238525 -11.629472732543945 -2.5
-1.45937979221344 -12.019218444824219 -2.5
3.3685302734375 -11.629472732543945 -2.5
4.293398380279541 -11.32070255279541 -2.5
5.190419673919678 -10.938525199890137 -2.5
6.053769588470459 -10.485400199890137 -2.5
7.657362937927246 -9.378524780273438 -2.5
9.062612533569336 -8.028759956359863 -2.5
10.233160972595215 -6.471044540405273 -2.5
10.720673561096191 -5.626630783081055 -2.5
11.138667106628418 -4.745732307434082 -2.5
11.484414100646973 -3.834052562713623 -2.5
11.755698204040527 -2.897509813308716 -2.5
11.950739860534668 -1.942177653312683 -2.5
12.068256378173828 -0.9742480516433716 -2.5
-11.464516639709473 0.0 -2.5
-11.427338600158691 -0.92249995470047 -2.5
-10.874502182006836 -3.630439281463623 -2.5
-10.547119140625 -4.493710994720459 -2.5
-10.151318550109863 -5.327831745147705 -2.5
-9.689692497253418 -6.127392292022705 -2.5
-9.165214538574219 -6.887216567993164 -2.5
-8.581298828125 -7.602382659912109 -2.5
-7.941747665405273 -8.268232345581055 -2.5
-7.250683307647705 -8.880468368530273 -2.5
-6.512582778930664 -9.4351167678833 -2.5
-4.065351486206055 -10.719491958618164 -2.5
-2.2931785583496094 -11.23281192779541 -2.5
-0.4616113305091858 -11.455204963684082 -2.5
3.189638614654541 -11.011855125427246 -2.5
4.914765357971191 -10.357606887817383 -2.5
6.512592792510986 -9.435087203979492 -2.5
8.581317901611328 -7.602363109588623 -2.5
10.151328086853027 -5.327822208404541 -2.5
10.874521255493164 -3.630439281463623 -2.5
11.131386756896973 -2.7436327934265137 -2.5
11.42734146118164 -0.9225097298622131 -2.5
-10.883706092834473 0.0 -2.5
-10.012773513793945 -4.266044616699219 -2.5
-9.637030601501465 -5.057919979095459 -2.5
-9.198793411254883 -5.816962718963623 -2.5
-8.146562576293945 -7.217226505279541 -2.5
-7.539403915405273 -7.849365234375 -2.5
-6.18264627456665 -8.95711898803711 -2.5
-3.028017520904541 -10.453993797302246 -2.5
-2.177006721496582 -10.663740158081055 -2.5
-0.4382275342941284 -10.874862670898438 -2.5
0.4382714629173279 -10.874862670898438 -2.5
1.3119043111801147 -10.804326057434082 -2.5
2.1770360469818115 -10.663740158081055 -2.5
3.0280418395996094 -10.453974723815918 -2.5
4.665781021118164 -9.832870483398438 -2.5
5.441864967346191 -9.425556182861328 -2.5
6.182656288146973 -8.9570894241333 -2.5
6.883364200592041 -8.430546760559082 -2.5
8.700907707214355 -6.538300514221191 -2.5
9.198805809020996 -5.816962718963623 -2.5
10.012787818908691 -4.266035079956055 -2.5
10.567448616027832 -2.604628801345825 -2.5
10.74277114868164 -1.745849609375 -2.5
-10.055410385131836 -2.4784374237060547 -2.5
-9.823378562927246 -3.2795214653015137 -2.5
-8.753090858459473 -5.535117149353027 -2.5
-7.751835823059082 -6.867538928985596 -2.5
-7.174086570739746 -7.46902322769165 -2.5
-6.549824237823486 -8.022079467773438 -2.5
-2.517773389816284 -3.6476268768310547 -1.0699214935302734
-2.8813085556030273 -9.947461128234863 -2.5
-2.071523427963257 -10.147040367126465 -2.5
-0.4169921875 -10.347949028015137 -2.5
1.248329997062683 -10.280839920043945 -2.5
5.88308572769165 -8.52310562133789 -2.5
7.751840591430664 -6.867528915405273 -2.5
9.527636528015137 -4.059345722198486 -2.5
9.823392868041992 -3.2795214653015137 -2.5
-9.843280792236328 -0.794628918170929 -2.5
-9.747416496276855 -1.5841015577316284 -2.5
-9.085073471069336 -3.870790958404541 -2.5
-8.3464937210083 -5.278007507324219 -2.5
-7.894736289978027 -5.932519435882568 -2.5
-7.391762733459473 -6.548534870147705 -2.5
-2.763320207595825 -3.3844432830810547 -1.1061080694198608
-2.345829963684082 -3.398515462875366 -1.0454151630401611
-2.028920888900757 -3.5142087936401367 -1.027274250984192
-1.7622557878494263 -3.7138867378234863 -1.0406734943389893
-1.1903222799301147 -9.803290367126465 -2.5
-0.39762693643569946 -9.867284774780273 -2.5
1.1903417110443115 -9.803300857543945 -2.5
1.9753271341323853 -9.675712585449219 -2.5
2.747490167617798 -9.485400199890137 -2.5
3.501840829849243 -9.23355484008789 -2.5
4.233486175537109 -8.921826362609863 -2.5
5.609824180603027 -8.127206802368164 -2.5
7.894741058349609 -5.932519435882568 -2.5
8.346513748168945 -5.277997970581055 -2.5
8.744150161743164 -4.589267253875732 -2.5
9.588335037231445 -2.3633105754852295 -2.5
-9.434598922729492 9.765624781721272e-06 -2.5
-9.312421798706055 -1.5134179592132568 -2.5
-6.535575866699219 -6.804257869720459 -2.5
-1.93777334690094 -3.356328010559082 -1.026954174041748
-1.6840673685073853 -3.5491015911102295 -1.0409542322158813
-1.4429785013198853 -3.804824113845825 -1.0782824754714966
-2.6248533725738525 -9.06209945678711 -2.5
-1.13720703125 -9.365800857543945 -2.5
-0.3798828125 -9.426933288574219 -2.5
1.1372265815734863 -9.365790367126465 -2.5
1.8871679306030273 -9.243926048278809 -2.5
2.624882698059082 -9.06209945678711 -2.5
3.3455564975738525 -8.821503639221191 -2.5
4.717309474945068 -8.170595169067383 -2.5
5.359482288360596 -7.764501571655273 -2.5
5.966879844665527 -7.308066368103027 -2.5
6.535595417022705 -6.804247856140137 -2.5
7.542431354522705 -5.667763710021973 -2.5
8.679643630981445 -3.6980369091033936 -2.5
8.94906234741211 -2.9876365661621094 -2.5
9.160453796386719 -2.2578418254852295 -2.5
-9.029276847839355 9.765624781721272e-06 -2.5
-8.999995231628418 -0.7265429496765137 -2.5
-8.564589500427246 -2.8592772483825684 -2.5
-7.631450176239014 -4.825839519500732 -2.5
-7.2183837890625 -5.424267292022705 -2.5
-6.758525371551514 -5.98757791519165 -2.5
-2.1460301876068115 -3.1090526580810547 -1.0459847450256348
-1.6169580221176147 -3.407665967941284 -1.0443346500396729
-1.388369083404541 -3.6608495712280273 -1.0840508937835693
-1.8060741424560547 -8.846786499023438 -2.5
1.8060985803604126 -8.846786499023438 -2.5
3.870795726776123 -8.157489776611328 -2.5
5.129228591918945 -7.43093729019165 -2.5
6.254809379577637 -6.511913776397705 -2.5
7.218388557434082 -5.424267292022705 -2.5
7.63146448135376 -4.825829982757568 -2.5
7.995028972625732 -4.196103572845459 -2.5
8.306757926940918 -3.5391697883605957 -2.5
-8.6551513671875 0.0 -2.5
-8.403647422790527 -2.0713086128234863 -2.5
-8.209726333618164 -2.740800619125366 -2.5
-7.663749694824219 -4.022255897521973 -2.5
-6.919291973114014 -5.199521541595459 -2.5
-6.478466510772705 -5.739443302154541 -2.5
-2.854311466217041 -2.9716503620147705 -1.1901637315750122
-1.804238200187683 -3.1250293254852295 -1.0422934293746948
-1.142421841621399 -3.944091796875 -1.1860604286193848
-1.0432567596435547 -8.592041015625 -2.5
-0.34849119186401367 -8.648115158081055 -2.5
0.3485204875469208 -8.648134231567383 -2.5
1.731264591217041 -8.480224609375 -2.5
3.069169759750366 -8.09268569946289 -2.5
3.7104198932647705 -7.819491863250732 -2.5
5.473930358886719 -6.704306602478027 -2.5
7.663769245147705 -4.02224588394165 -2.5
8.209731101989746 -2.740800619125366 -2.5
8.543081283569336 -1.388369083404541 -2.5
-8.30868148803711 0.0 -2.5
-8.067235946655273 -1.9883984327316284 -2.5
-7.881083965301514 -2.631093740463257 -2.5
-7.022407054901123 -4.44070291519165 -2.5
-1.5049315690994263 -3.171562433242798 -1.0562782287597656
0.3345703184604645 -8.301933288574219 -2.5
1.0015136003494263 -8.248095512390137 -2.5
1.661953091621399 -8.140751838684082 -2.5
2.3116259574890137 -7.980624675750732 -2.5
3.561884641647339 -7.50646448135376 -2.5
4.154350280761719 -7.195527076721191 -2.5
6.219135761260986 -5.509657859802246 -2.5
6.642309188842773 -4.991366863250732 -2.5
8.067251205444336 -1.9883886575698853 -2.5
-7.98681640625 1.9531249563442543e-05 -2.5
-7.960903167724609 -0.6426757574081421 -2.5
-7.575780868530273 -2.5291600227355957 -2.5
-7.347695350646973 -3.130566358566284 -2.5
-5.978202819824219 -5.296230316162109 -2.5
-2.7669334411621094 -2.880683422088623 -1.2502729892730713
-1.7183642387390137 -2.9762890338897705 -1.0757508277893066
-1.597558617591858 -7.825400352478027 -2.5
0.32161131501197815 -7.980331897735596 -2.5
0.9627196788787842 -7.928574085235596 -2.5
2.8321776390075684 -7.467782974243164 -2.5
3.993412971496582 -6.916767597198486 -2.5
4.537035942077637 -6.572998046875 -2.5
5.051239967346191 -6.186601638793945 -2.5
5.978222370147705 -5.296220779418945 -2.5
6.38500452041626 -4.798007488250732 -2.5
7.960917949676514 -0.6426659822463989 -2.5
-7.686957836151123 9.765624781721272e-06 -2.5
-7.587411880493164 -1.2330663204193115 -2.5
-7.463588714599609 -1.8396190404891968 -2.5
-7.291371822357178 -2.434218645095825 -2.5
-7.071845531463623 -3.0130369663238525 -2.5
-6.49694299697876 -4.108417987823486 -2.5
-2.745556592941284 -2.8584179878234863 -1.2890046834945679
-2.359023332595825 -2.8892674446105957 -1.213095784187317
-2.0155224800109863 -2.91998028755188 -1.1539169549942017
-1.033388614654541 -3.5676755905151367 -1.207998275756836
-0.8143554329872131 -3.989023447036743 -1.3240944147109985
-0.9265673756599426 -7.630908012390137 -2.5
0.30953124165534973 -7.680722713470459 -2.5
1.53759765625 -7.531601428985596 -2.5
2.1386523246765137 -7.383456707000732 -2.5
3.8434910774230957 -6.657079696655273 -2.5
4.366708755493164 -6.326240062713623 -2.5
4.86160135269165 -5.954335689544678 -2.5
5.324960708618164 -5.543847560882568 -2.5
5.7537841796875 -5.097402095794678 -2.5
6.145287990570068 -4.617880821228027 -2.5
6.496957778930664 -4.108417987823486 -2.5
6.806474685668945 -3.5723047256469727 -2.5
7.463603496551514 -1.8396093845367432 -2.5
7.662040710449219 -0.6185449361801147 -2.5
-7.382856369018555 -0.595996081829071 -2.5
-6.814165115356445 -2.9032421112060547 -2.5
-6.558452129364014 -3.4421582221984863 -2.5
-6.260214805603027 -3.9587109088897705 -2.5
-3.162299633026123 -2.801562547683716 -1.4259722232818604
-2.7235107421875 -2.8354785442352295 -1.327010154724121
-2.0019969940185547 -2.900400400161743 -1.1895205974578857
-1.197534203529358 -3.157646417617798 -1.1398546695709229
-0.7902734279632568 -3.871025323867798 -1.3335143327713013
-0.8927978277206421 -7.352860927581787 -2.5
0.2982421815395355 -7.400859355926514 -2.5
0.8928124904632568 -7.352860927581787 -2.5
2.060732364654541 -7.114423751831055 -2.5
2.626518487930298 -6.925527095794678 -2.5
3.703447103500366 -6.414531230926514 -2.5
4.684453010559082 -5.737402439117432 -2.5
5.130932331085205 -5.341855525970459 -2.5
6.814174652099609 -2.9032421112060547 -2.5
7.025698184967041 -2.345517635345459 -2.5
-7.144584655761719 9.765624781721272e-06 -2.5
-7.052065372467041 -1.1460644006729126 -2.5
-6.936972618103027 -1.709804654121399 -2.5
-6.776894569396973 -2.262451171875 -2.5
-6.57287073135376 -2.800429582595825 -2.5
-5.711679458618164 -4.292050838470459 -2.5
-3.1269969940185547 -2.7702832221984863 -1.4618160724639893
-1.9885594844818115 -2.880927562713623 -1.2249115705490112
-1.3851269483566284 -2.9191014766693115 -1.1305991411209106
-1.1673583984375 -3.0780858993530273 -1.1519253253936768
-0.7674511671066284 -3.759228467941284 -1.3425450325012207
1.9877636432647705 -6.862499713897705 -2.5
2.533520460128784 -6.68029260635376 -2.5
3.0628466606140137 -6.454775333404541 -2.5
3.5722997188568115 -6.187392234802246 -2.5
6.038539886474609 -3.818535089492798 -2.5
6.326225280761719 -3.320244073867798 -2.5
6.776904106140137 -2.2624707221984863 -2.5
6.936982154846191 -1.709804654121399 -2.5
-6.809072017669678 -1.1065820455551147 -2.5
-6.697954177856445 -1.6508984565734863 -2.5
-6.543393611907959 -2.1844921112060547 -2.5
-5.830463886260986 -3.686953067779541 -2.5
-2.3108348846435547 -2.830263614654541 -1.3241527080535889
-1.6594579219818115 -2.874277353286743 -1.2027887105941772
-1.1446630954742432 -3.0182323455810547 -1.1698365211486816
-0.956835925579071 -3.303408145904541 -1.2463746070861816
-0.7459667921066284 -3.6540234088897705 -1.3515411615371704
-0.5018017292022705 -4.132890701293945 -1.50877845287323
1.3798681497573853 -6.758984088897705 -2.5
2.446225643157959 -6.450107097625732 -2.5
4.778691291809082 -4.975136756896973 -2.5
5.514887809753418 -4.144169807434082 -2.5
6.108246803283691 -3.2058398723602295 -2.5
-6.580507755279541 -1.069433569908142 -2.5
-6.473114967346191 -1.5954687595367432 -2.5
-6.133354187011719 -2.613173723220825 -2.5
-5.903188228607178 -3.0982322692871094 -2.5
-5.634750843048096 -3.5631933212280273 -2.5
-3.0654492378234863 -2.7157421112060547 -1.535732388496399
-1.9616552591323853 -2.8419432640075684 -1.2949265241622925
-1.6523925065994263 -2.8620312213897705 -1.239263892173767
-1.1249804496765137 -2.9663379192352295 -1.1896593570709229
-0.2684375047683716 -6.661425590515137 -2.5
0.26844725012779236 -6.661425590515137 -2.5
0.8035986423492432 -6.618222713470459 -2.5
1.8548437356948853 -6.403613090515137 -2.5
2.3640966415405273 -6.233593463897705 -2.5
2.858027219772339 -6.023154258728027 -2.5
3.3334226608276367 -5.773652076721191 -2.5
3.7872021198272705 -5.486689567565918 -2.5
4.216411113739014 -5.164169788360596 -2.5
4.990200042724609 -4.42092752456665 -2.5
5.634755611419678 -3.5631933212280273 -2.5
6.323750019073486 -2.1111717224121094 -2.5
6.580512523651123 -1.069423794746399 -2.5
6.645234107971191 -0.5364453196525574 -2.5
-6.448564529418945 0.0 -2.5
-6.427656173706055 -0.5188769698143005 -2.5
-5.709921836853027 -2.9967968463897705 -2.5
-5.155253887176514 -3.8739354610443115 -2.5
-1.9481395483016968 -2.8223631381988525 -1.3295328617095947
-1.3644726276397705 -2.875566244125366 -1.2339471578598022
-1.1045215129852295 -2.912402391433716 -1.207558274269104
-0.9120849370956421 -3.1488866806030273 -1.2709496021270752
-0.7033007740974426 -3.4450488090515137 -1.3631365299224854
-0.1605273336172104 -3.983476400375366 -1.545580506324768
0.25966307520866394 -6.443339824676514 -2.5
1.2898778915405273 -6.31823205947876 -2.5
2.764457941055298 -5.825947284698486 -2.5
3.2242822647094727 -5.584619045257568 -2.5
3.663203001022339 -5.307060241699219 -2.5
4.078378677368164 -4.995078086853027 -2.5
4.467080116271973 -4.650722503662109 -2.5
4.826816082000732 -4.276181697845459 -2.5
5.709926605224609 -2.996777296066284 -2.5
5.932553768157959 -2.5276074409484863 -2.5
6.261186599731445 -1.5432324409484863 -2.5
-6.242416858673096 9.765624781721272e-06 -2.5
-6.22216796875 -0.5022948980331421 -2.5
-5.742900371551514 -2.4468164443969727 -2.5
-5.527382850646973 -2.9009861946105957 -2.5
-2.610048770904541 -2.717343807220459 -1.5089517831802368
-2.262587785720825 -2.7711620330810547 -1.4327455759048462
-1.9346826076507568 -2.8028807640075684 -1.3639575242996216
-1.35888671875 -2.8637890815734863 -1.2694766521453857
-0.43931639194488525 -3.6181347370147705 -1.4596608877182007
1.2486474514007568 -6.116259574890137 -2.5
2.2135937213897705 -5.836757659912109 -2.5
2.676084041595459 -5.639707088470459 -2.5
3.121210813522339 -5.406084060668945 -2.5
4.324277400970459 -4.502040863037109 -2.5
4.990463733673096 -3.7500877380371094 -2.5
5.276034832000732 -3.336357355117798 -2.5
5.527402400970459 -2.9009861946105957 -2.5
5.742900371551514 -2.4468164443969727 -2.5
6.161586761474609 -1.0013281106948853 -2.5
6.222182273864746 -0.5023046731948853 -2.5
-6.027758598327637 -0.4866113066673279 -2.5
-5.969057559967041 -0.9700585603713989 -2.5
-5.736162185668945 -1.9149999618530273 -2.5
-4.834536075592041 -3.6329197883605957 -2.5
-2.998056650161743 -2.6560449600219727 -1.655829906463623
-2.584096670150757 -2.690312385559082 -1.542130708694458
-2.243603467941284 -2.7479002475738525 -1.4665447473526
-1.3532910346984863 -2.8520116806030273 -1.3050293922424316
-1.0826513767242432 -2.854726552963257 -1.2621732950210571
-0.6702831983566284 -3.283271312713623 -1.385308861732483
-0.4245654344558716 -3.4966113567352295 -1.4561258554458618
0.1580468714237213 -3.9218456745147705 -1.622618317604065
0.7289257645606995 -6.003281116485596 -2.5
1.209633708000183 -5.925156116485596 -2.5
2.1444334983825684 -5.654384613037109 -2.5
2.592470645904541 -5.463486194610596 -2.5
3.023691415786743 -5.237177848815918 -2.5
3.435312509536743 -4.976884841918945 -2.5
4.526523113250732 -4.010156154632568 -2.5
5.111186504364014 -3.232109308242798 -2.5
5.736156940460205 -1.9150097370147705 -2.5
5.871660232543945 -1.4472167491912842 -2.5
5.969072341918945 -0.9700585603713989 -2.5
-5.843505859375 -0.4717382788658142 -2.5
-5.692152976989746 -1.402978539466858 -2.5
-5.560805320739746 -1.8564647436141968 -2.5
-4.954941272735596 -3.133310556411743 -2.5
-4.686733245849609 -3.521855354309082 -2.5
-2.2227537631988525 -2.7223730087280273 -1.4987307786941528
-1.911928653717041 -2.769912004470825 -1.4352620840072632
-1.6241064071655273 -2.81304669380188 -1.385168433189392
-1.3472607135772705 -2.839287042617798 -1.3401774168014526
-1.0776562690734863 -2.841562509536743 -1.2959730625152588
-0.6539990305900574 -3.2035155296325684 -1.3942826986312866
-0.14388182759284973 -3.570566415786743 -1.523863673210144
1.1726561784744263 -5.744042873382568 -2.5
1.6310546398162842 -5.631054401397705 -2.5
2.0788769721984863 -5.481543064117432 -2.5
2.931264638900757 -5.077079772949219 -2.5
3.3302977085113525 -4.824755668640137 -2.5
4.061113357543945 -4.22805643081665 -2.5
4.686743259429932 -3.521855354309082 -2.5
4.954946041107178 -3.133310556411743 -2.5
5.191010475158691 -2.724433422088623 -2.5
5.560824871063232 -1.8564647436141968 -2.5
5.69216775894165 -1.402978539466858 -2.5
-5.687021255493164 9.765624781721272e-06 -2.5
-5.668588638305664 -0.4576171636581421 -2.5
-5.613379001617432 -0.9122558236122131 -2.5
-5.521762371063232 -1.360986351966858 -2.5
-5.035600662231445 -2.642890453338623 -2.5
-4.806611061096191 -3.0395116806030273 -2.5
-2.967226505279541 -2.628740072250366 -1.742646336555481
-2.202094793319702 -2.697070360183716 -1.5306217670440674
-1.8932616710662842 -2.742861270904541 -1.465104341506958
-1.617031216621399 -2.80078125 -1.4216893911361694
-1.3408154249191284 -2.8257031440734863 -1.3749204874038696
-1.072670817375183 -2.828418016433716 -1.3297802209854126
-0.8332421779632568 -2.8766698837280273 -1.3165615797042847
-0.6380615234375 -3.125429630279541 -1.40227210521698
0.14616699516773224 -3.6271777153015137 -1.5957951545715332
0.685498058795929 -5.645546913146973 -2.5
1.1375536918640137 -5.572089672088623 -2.5
2.016650438308716 -5.317461013793945 -2.5
3.230600595474243 -4.680312633514404 -2.5
3.596733331680298 -4.405185222625732 -2.5
3.9395408630371094 -4.101474285125732 -2.5
4.256796836853027 -3.771191358566284 -2.5
4.546445369720459 -3.416435480117798 -2.5
4.806611061096191 -3.0395116806030273 -2.5
5.394355297088623 -1.8008886575698853 -2.5
5.613383769989014 -0.9122558236122131 -2.5
5.668583869934082 -0.4576074182987213 -2.5
-5.520165920257568 9.765624781721272e-06 -2.5
-5.502255916595459 -0.4441796839237213 -2.5
-5.359750747680664 -1.3210546970367432 -2.5
-5.236064434051514 -1.748046875 -2.5
-5.078427791595459 -2.1637303829193115 -2.5
-2.9522948265075684 -2.6155078411102295 -1.786285400390625
-1.0676854848861694 -2.815253734588623 -1.3636016845703125
-0.823291003704071 -2.842334032058716 -1.3401674032211304
-0.1354638636112213 -3.3615429401397705 -1.523630142211914
0.46226561069488525 -3.8070311546325684 -1.7368117570877075
2.366450071334839 -4.987187385559082 -2.5
2.760077953338623 -4.780605316162109 -2.5
3.4912109375 -4.275927543640137 -2.5
3.8239500522613525 -3.981152296066284 -2.5
4.665590763092041 -2.950322151184082 -2.5
4.887861251831055 -2.5653319358825684 -2.5
5.448676586151123 -0.8854882717132568 -2.5
-5.361274242401123 0.0 -2.5
-5.343876838684082 -0.43138670921325684 -2.5
-5.205483436584473 -1.2830272912979126 -2.5
-4.531298637390137 -2.865410089492798 -2.5
-2.928764581680298 -2.594658136367798 -1.824563980102539
-1.860082983970642 -2.694814443588257 -1.5268958806991577
-1.062685489654541 -2.802079916000366 -1.3974465131759644
-0.608447253704071 -2.9803709983825684 -1.4184331893920898
-0.3815966844558716 -3.1427342891693115 -1.4762487411499023
0.13694335520267487 -3.3981151580810547 -1.5858553647994995
1.0723925828933716 -5.252910137176514 -2.5
1.9011328220367432 -5.012861251831055 -2.5
2.29833984375 -4.843632698059082 -2.5
2.6806347370147705 -4.642997741699219 -2.5
3.0455565452575684 -4.412226676940918 -2.5
3.7138867378234863 -3.8665525913238525 -2.5
4.012973308563232 -3.55517578125 -2.5
4.286035060882568 -3.2207422256469727 -2.5
4.531283855438232 -2.8654003143310547 -2.5
5.205488204956055 -1.2830272912979126 -2.5
