ply
format ascii 1.0
element vertex 904
property float x
property float y
property float z
end_header
3.911269426345825 19.15862274169922 5.239414691925049
2.4342236518859863 20.047489166259766 5.411157608032227
-0.8206835985183716 20.36512565612793 5.461243629455566
-2.5726611614227295 12.601679801940918 3.446253538131714
-9.215521812438965 11.286972045898438 3.904352903366089
-17.701322555541992 18.42902374267578 6.846951961517334
2.5284862518310547 20.82390594482422 5.372311115264893
0.8467138409614563 21.010848999023438 5.3853864669799805
-0.5598779320716858 13.89322280883789 3.56103253364563
-1.5978857278823853 13.159696578979492 3.395040273666382
-2.5726611614227295 12.601679801940918 3.2939422130584717
-3.5262792110443115 12.174091339111328 3.246023416519165
-5.484652996063232 11.558661460876465 3.2766027450561523
-6.558119773864746 11.358993530273438 3.35915470123291
-11.136801719665527 11.59463882446289 4.117380142211914
3.911269426345825 19.15861701965332 4.777604103088379
0.8807324171066284 21.85515594482422 5.344232559204102
-3.5262792110443115 12.174091339111328 3.0967767238616943
-6.558119773864746 11.358993530273438 3.204706907272339
-7.766205787658691 11.2512788772583 3.340334892272949
-9.215521812438965 11.286972045898438 3.560213565826416
-11.136811256408691 11.59463882446289 3.9280712604522705
2.732739210128784 22.50608253479004 5.273805618286133
0.6015185117721558 14.926366806030273 3.4749810695648193
-1.5978857278823853 13.159696578979492 3.083686351776123
-3.5262792110443115 12.174091339111328 2.9483349323272705
-4.486860275268555 11.8308687210083 2.9433610439300537
-6.558119773864746 11.358993530273438 3.0510923862457275
-7.766210556030273 11.2512788772583 3.1802196502685547
3.911269426345825 19.158641815185547 4.3207688331604
2.850341796875 23.474584579467773 5.225234031677246
-0.5598828196525574 13.89322280883789 3.072449207305908
-1.5978857278823853 13.159696578979492 2.9292314052581787
-2.5726611614227295 12.601679801940918 2.84200382232666
-5.484652996063232 11.558661460876465 2.827043294906616
-6.558110237121582 11.358993530273438 2.898268461227417
-7.766210556030273 11.2512788772583 3.0209295749664307
-14.850736618041992 13.156600952148438 4.384091854095459
3.9112744331359863 19.158632278442383 4.094046115875244
2.9720263481140137 24.47677230834961 5.162425994873047
-0.5598730444908142 13.89322280883789 2.9112303256988525
-6.558115005493164 11.358993530273438 2.746190071105957
-7.766210556030273 11.2512788772583 2.8624157905578613
-9.215527534484863 11.286962509155273 3.050832986831665
-11.136801719665527 11.59463882446289 3.366054058074951
3.911269426345825 19.15863800048828 3.868375778198242
2.0224413871765137 16.656259536743164 3.319350481033325
0.6015087962150574 14.92635726928711 2.9553136825561523
-0.5598828196525574 13.89322280883789 2.750761032104492
-1.5978857278823853 13.159696578979492 2.622537136077881
-2.5726611614227295 12.601679801940918 2.5444424152374268
-7.766210556030273 11.2512788772583 2.7046337127685547
-11.136801719665527 11.594618797302246 3.1805145740509033
0.6015087962150574 14.92635726928711 2.783665657043457
-0.5598828196525574 13.89322280883789 2.5909929275512695
-1.5978857278823853 13.159696578979492 2.47021484375
-2.5726611614227295 12.601679801940918 2.3966569900512695
-4.77041482925415 12.578554153442383 2.5068154335021973
-5.909394264221191 12.453779220581055 2.568666696548462
-8.214956283569336 11.901415824890137 2.6947479248046875
-9.336577415466309 11.435224533081055 2.7509045600891113
-14.850712776184082 13.156572341918945 3.6970934867858887
-0.5598779320716858 13.893232345581055 2.431882619857788
-1.6132323741912842 13.286093711853027 2.3407914638519287
-3.8905858993530273 13.43179702758789 2.445774555206299
-6.328647136688232 13.337333679199219 2.581974983215332
-7.593090534210205 13.151611328125 2.656047821044922
-10.134516716003418 12.412528991699219 2.8026416301727295
-11.292978286743164 11.75723648071289 2.851249933242798
-14.850722312927246 13.156591415405273 3.470062255859375
3.911269426345825 19.158641815185547 3.1970508098602295
2.0224461555480957 16.656240463256836 2.743300676345825
-0.561108410358429 13.923837661743164 2.278395414352417
-1.7117773294448853 14.09765625 2.3218982219696045
-2.907304525375366 14.24086856842041 2.376410722732544
-6.814165115356445 14.360536575317383 2.598870277404785
-8.262041091918945 14.310273170471191 2.7016899585723877
-9.680834770202637 14.025068283081055 2.7863292694091797
-11.124829292297363 13.625438690185547 2.8759984970092773
-14.8507080078125 13.156572341918945 3.243899345397949
3.911269426345825 19.158641815185547 2.9749701023101807
2.0224413871765137 16.65625 2.5527381896972656
-0.596020519733429 14.790263175964355 2.25205659866333
-3.106333017349243 15.215800285339355 2.362722158432007
-4.45510721206665 15.380790710449219 2.436260938644409
-5.875688552856445 15.492929458618164 2.520956039428711
-7.019706726074219 14.793720245361328 2.4912874698638916
-12.344374656677246 15.119120597839355 2.9695959091186523
-13.762309074401855 14.328075408935547 3.0226073265075684
-14.9779052734375 13.269248008728027 3.044414520263672
0.6235595345497131 15.473427772521973 2.180790424346924
-0.6354736089706421 15.769091606140137 2.22245717048645
-1.9400683641433716 15.9778413772583 2.2665796279907227
-6.363700866699219 16.77969741821289 2.5271992683410645
-8.190077781677246 17.260204315185547 2.690396785736084
-12.346869468688965 17.887489318847656 3.0607872009277344
-14.216196060180664 17.411680221557617 3.1654484272003174
-16.84956932067871 14.927421569824219 3.170046329498291
3.911269426345825 19.158641815185547 2.5329864025115967
2.0224413871765137 16.65625 2.1734845638275146
-0.6773925423622131 16.809404373168945 2.1792449951171875
-3.554511547088623 17.411142349243164 2.3019464015960693
-5.143363952636719 17.756864547729492 2.3947625160217285
-6.962348461151123 18.35822296142578 2.543389320373535
-13.431611061096191 23.26422882080078 3.479841947555542
3.911269426345825 19.158641815185547 2.3129706382751465
2.0979833602905273 17.27840805053711 2.0588326454162598
0.7116552591323853 17.659549713134766 2.0906012058258057
-2.222236394882202 18.301708221435547 2.180765390396118
-5.586347579956055 19.286264419555664 2.37508225440979
-13.431611061096191 23.264238357543945 3.177586078643799
3.911269426345825 19.158641815185547 2.0935332775115967
-2.3703367710113525 19.521366119384766 2.105410099029541
-4.060327053070068 19.888729095458984 2.1733129024505615
-13.431611061096191 23.264238357543945 2.8761162757873535
2.4167089462280273 19.903348922729492 1.9221385717391968
-0.8238183259963989 20.442733764648438 1.961426019668579
-2.5224902629852295 20.77436065673828 2.0062549114227295
-5.749858379364014 28.164588928222656 2.75581955909729
-13.431611061096191 23.26422882080078 2.575364589691162
3.911269426345825 19.158641815185547 1.656160831451416
2.617851495742798 21.55982780456543 1.8394783735275269
-5.749858379364014 28.164588928222656 2.434678316116333
3.911269426345825 19.15863800048828 1.4381170272827148
2.840409994125366 23.392812728881836 1.7331002950668335
0.9480956792831421 23.526708602905273 1.7317166328430176
-0.9498291015625 23.56966781616211 1.7348785400390625
-5.749853610992432 28.164588928222656 2.1141390800476074
-13.431611061096191 23.26422882080078 1.9757018089294434
3.1109471321105957 25.62086296081543 1.6108431816101074
1.0305322408676147 25.57242202758789 1.597371220588684
-1.0209276676177979 25.33418846130371 1.5824898481369019
-5.586357116699219 19.28626823425293 1.2532137632369995
3.52825665473938 29.057708740234375 1.5015112161636353
1.1354882717132568 28.176952362060547 1.4465535879135132
-5.586347579956055 19.286264419555664 1.0299749374389648
-12.648163795471191 26.65540885925293 1.513454556465149
-13.431618690490723 23.264238357543945 1.3779915571212769
3.911269426345825 19.158641815185547 0.7859054207801819
-1.1714892387390137 29.070175170898438 1.1693313121795654
-12.648163795471191 26.65540885925293 1.1858196258544922
3.52825665473938 29.057708740234375 0.8517004251480103
-2.896914005279541 23.85806655883789 0.6992931962013245
-5.749853610992432 28.164588928222656 0.8364068269729614
-5.586362361907959 19.28626823425293 0.5842382907867432
-12.648163795471191 26.65540885925293 0.8584765195846558
-19.7359619140625 20.54728889465332 0.8289816379547119
3.52825665473938 29.057708740234375 0.527148425579071
-2.89690899848938 23.85806655883789 0.43284332752227783
-11.015165328979492 19.078847885131836 0.39674925804138184
-19.7359619140625 20.54728889465332 0.5130890011787415
-14.850747108459473 13.156600952148438 0.3573104739189148
3.52825665473938 29.057708740234375 0.202728271484375
-2.89690899848938 23.85804557800293 0.16648009419441223
-5.749853610992432 28.164588928222656 0.19908447563648224
-5.586357116699219 19.28626823425293 0.13906554877758026
-10.580805778503418 18.326494216918945 0.14656372368335724
-16.543664932250977 23.96758270263672 0.2017022669315338
-11.136786460876465 11.594609260559082 0.11134643107652664
-14.850747108459473 13.156600952148438 0.1374136358499527
3.911269426345825 19.158641815185547 -0.08125762641429901
-5.749853610992432 28.164588928222656 -0.11945678293704987
-8.46200180053711 17.833290100097656 -0.08202880620956421
-10.580795288085938 18.326494216918945 -0.0879405215382576
-14.81860065460205 21.46839714050293 -0.10840484499931335
-9.215517044067383 11.286962509155273 -0.06055312976241112
-11.136786460876465 11.594609260559082 -0.06680953502655029
-14.850751876831055 13.156611442565918 -0.08244948834180832
3.52825665473938 29.057708740234375 -0.44603607058525085
-5.586357116699219 19.286283493041992 -0.3059677183628082
-6.558115005493164 11.358993530273438 -0.19986708462238312
-11.136786460876465 11.594609260559082 -0.24498030543327332
3.911269426345825 19.158641815185547 -0.5147369503974915
-5.749853610992432 28.164588928222656 -0.7567142844200134
-5.380483150482178 18.57550811767578 -0.5090888738632202
-4.486850261688232 11.830859184265137 -0.33308517932891846
-7.766205787658691 11.2512788772583 -0.35988950729370117
-11.136786460876465 11.594609260559082 -0.42321136593818665
-14.850736618041992 13.156600952148438 -0.5222882032394409
3.911269426345825 19.158641815185547 -0.7316516041755676
3.52825665473938 29.057708740234375 -1.0952404737472534
-4.486850261688232 11.830859184265137 -0.47344541549682617
-7.766205787658691 11.2512788772583 -0.5115441679954529
-9.215521812438965 11.286962509155273 -0.5452172756195068
-11.136786460876465 11.594609260559082 -0.601550281047821
-14.850736618041992 13.156600952148438 -0.7423731684684753
3.52825665473938 29.057708740234375 -1.4202213287353516
-0.5598828196525574 13.89322280883789 -0.6746371388435364
-1.5978857278823853 13.159696578979492 -0.6431893706321716
-2.5726561546325684 12.601669311523438 -0.6240357756614685
-3.5262744426727295 12.174091339111328 -0.6149583458900452
-4.486850261688232 11.830859184265137 -0.6139204502105713
-5.484643459320068 11.558661460876465 -0.6207516193389893
-6.558115005493164 11.358993530273438 -0.6363909840583801
-7.766205787658691 11.2512788772583 -0.663324236869812
-9.215521812438965 11.286962509155273 -0.706987738609314
-11.136786460876465 11.594618797302246 -0.7800352573394775
-14.850751876831055 13.156611442565918 -0.9626420140266418
-25.12684440612793 2.028437376022339 -1.2231022119522095
2.0224363803863525 16.656230926513672 -1.000562071800232
-4.486850261688232 11.830859184265137 -0.7545468211174011
-5.484643459320068 11.558661460876465 -0.7629424929618835
-6.558119773864746 11.358993530273438 -0.7821642756462097
-11.136786460876465 11.594609260559082 -0.9587122797966003
-14.850747108459473 13.156611442565918 -1.1831480264663696
-26.471479415893555 13.893290519714355 -1.782790184020996
3.911269426345825 19.15863800048828 -1.3836638927459717
2.0224363803863525 16.656230926513672 -1.1872851848602295
-4.486860275268555 11.8308687210083 -0.8953591585159302
-5.484643459320068 11.558661460876465 -0.9053216576576233
-7.766205787658691 11.2512788772583 -0.9674105644226074
-9.215521812438965 11.286972045898438 -1.0310909748077393
-11.136781692504883 11.594609260559082 -1.1376254558563232
-14.85073184967041 13.156600952148438 -1.4039440155029297
-26.356107711791992 4.283310413360596 -1.8894805908203125
17.949935913085938 2.9296874345163815e-05 -1.4702478647232056
15.977484703063965 1.2898436784744263 -1.31294584274292
26.36784553527832 11.234306335449219 -2.347599983215332
24.224262237548828 15.318514823913574 -2.347599983215332
22.9130802154541 17.21810531616211 -2.347599983215332
21.45332908630371 19.005990982055664 -2.347599983215332
19.854379653930664 20.670629501342773 -2.347599983215332
7.974091529846191 27.52974510192871 -2.347599983215332
3.911269426345825 19.158641815185547 -1.6016191244125366
0.6015087962150574 14.92635726928711 -1.2235828638076782
-1.5978857278823853 13.159696578979492 -1.0858044624328613
-2.5726561546325684 12.601669311523438 -1.0534700155258179
-4.486860275268555 11.8308687210083 -1.0363937616348267
-6.558115005493164 11.358993530273438 -1.0743272304534912
-7.766205787658691 11.2512788772583 -1.1197947263717651
-9.215521812438965 11.286962509155273 -1.1935055255889893
-11.136781692504883 11.594609260559082 -1.3168209791183472
-26.326093673706055 13.81698226928711 -2.435271739959717
-24.743886947631836 1.9975292682647705 -2.0333220958709717
17.1434326171875 9.765624781721272e-06 -1.5956193208694458
24.48982810974121 6.036230564117432 -2.347599983215332
23.924701690673828 7.987226486206055 -2.347599983215332
22.333646774291992 11.721620559692383 -2.347599983215332
20.16414451599121 15.152392387390137 -2.347599983215332
17.472415924072266 18.19074249267578 -2.347599983215332
14.328120231628418 20.757938385009766 -2.347599983215332
10.812817573547363 22.787538528442383 -2.347599983215332
7.017436504364014 24.22694206237793 -2.347599983215332
3.911269426345825 19.15863800048828 -1.8199619054794312
2.0224363803863525 16.656230926513672 -1.5616596937179565
-1.5978857278823853 13.159696578979492 -1.2338303327560425
-3.5262744426727295 12.174091339111328 -1.1796743869781494
-9.215521812438965 11.286962509155273 -1.356213927268982
-14.850747108459473 13.156611442565918 -1.8466360569000244
-20.164159774780273 15.152392387390137 -2.347599983215332
-21.31802749633789 13.480712890625 -2.347599983215332
-24.710800170898438 10.528271675109863 -2.5
-26.079652786254883 6.428056716918945 -2.5
-26.5123233795166 4.308691501617432 -2.5
15.802953720092773 0.0 -1.647680640220642
15.2349853515625 1.2299120426177979 -1.5936297178268433
23.667064666748047 3.8462889194488525 -2.5
19.03023910522461 12.034013748168945 -2.347599983215332
18.00016975402832 13.526259422302246 -2.347599983215332
16.853397369384766 14.930819511413574 -2.347599983215332
15.59731388092041 16.238544464111328 -2.347599983215332
12.790449142456055 18.530214309692383 -2.347599983215332
11.257948875427246 19.49933624267578 -2.347599983215332
-0.5598828196525574 13.89322280883789 -1.449737787246704
-3.5262792110443115 12.174091339111328 -1.3214950561523438
-4.486860275268555 11.8308687210083 -1.319263219833374
-6.558115005493164 11.358993530273438 -1.3675516843795776
-18.00017547607422 13.526240348815918 -2.347599983215332
-19.030248641967773 12.0339937210083 -2.347599983215332
-22.74359893798828 7.592919826507568 -2.5
-23.280853271484375 5.738212585449219 -2.5
-23.667070388793945 3.8462791442871094 -2.5
15.176215171813965 1.2251659631729126 -1.7582411766052246
17.182016372680664 10.865273475646973 -2.347599983215332
15.2166109085083 13.480741500854492 -2.347599983215332
12.856996536254883 15.747079849243164 -2.347599983215332
11.548285484313965 16.73060417175293 -2.347599983215332
10.164589881896973 17.605594635009766 -2.347599983215332
7.208823204040527 19.008113861083984 -2.347599983215332
-6.558110237121582 11.358993530273438 -1.5146528482437134
-11.136786460876465 11.594618797302246 -1.8565365076065063
-19.16914939880371 10.060751914978027 -2.5
-20.534780502319336 6.85549783706665 -2.5
-21.578685760498047 1.7420214414596558 -2.5
15.491987228393555 1.9531249563442543e-05 -1.9631998538970947
15.152016639709473 1.2232128381729126 -1.9263635873794556
18.94818878173828 4.670331954956055 -2.4730427265167236
17.57198715209961 5.866415977478027 -2.347599983215332
17.042943954467773 7.26134729385376 -2.347599983215332
14.809985160827637 11.12899398803711 -2.347599983215332
13.866435050964355 12.284599304199219 -2.347599983215332
12.832968711853027 13.360556602478027 -2.347599983215332
11.716288566589355 14.349863052368164 -2.347599983215332
7.941684246063232 16.736766815185547 -2.347599983215332
5.154106140136719 17.793964385986328 -2.347599983215332
3.705561399459839 18.150985717773438 -2.347599983215332
2.0224316120147705 16.656240463256836 -2.12623929977417
-1.5978857278823853 13.159696578979492 -1.6798914670944214
-3.5262744426727295 12.174081802368164 -1.6061567068099976
-5.484652996063232 11.558661460876465 -1.6212869882583618
-11.1367769241333 11.594609260559082 -2.0373055934906006
-15.657455444335938 9.901190757751465 -2.347599983215332
-17.468271255493164 9.168046951293945 -2.5
-19.472515106201172 3.16460919380188 -2.5
-19.664012908935547 1.5874511003494263 -2.5
17.881450653076172 2.906054735183716 -2.5
15.0631103515625 7.905751705169678 -2.347599983215332
13.599882125854492 10.219657897949219 -2.347599983215332
9.663740158081055 14.000380516052246 -2.347599983215332
8.505815505981445 14.732587814331055 -2.347599983215332
6.032436370849609 15.906229972839355 -2.347599983215332
4.732944011688232 16.34004783630371 -2.347599983215332
3.40276837348938 16.667919158935547 -2.347599983215332
2.0224363803863525 16.656230926513672 -2.315427541732788
0.6015087962150574 14.92635726928711 -2.0614938735961914
-0.5598779320716858 13.893232345581055 -1.9188083410263062
-3.5262792110443115 12.174091339111328 -1.749069333076477
-4.486850261688232 11.830859184265137 -1.746117115020752
-5.484652996063232 11.558661460876465 -1.7655460834503174
-9.215521812438965 11.286962509155273 -2.010819911956787
-11.136786460876465 11.594609260559082 -2.2185823917388916
-12.733442306518555 11.28084945678711 -2.347599983215332
-14.378129959106445 9.092167854309082 -2.347599983215332
-16.029409408569336 8.412880897521973 -2.4981956481933594
-16.666406631469727 7.100898265838623 -2.5
-17.183734893798828 5.736786842346191 -2.5
-18.05730438232422 1.4577441215515137 -2.5
15.9217529296875 9.765624781721272e-06 -2.3772671222686768
16.257211685180664 4.007050514221191 -2.5
14.913890838623047 4.97900390625 -2.347599983215332
13.922075271606445 7.306894302368164 -2.347599983215332
13.288969039916992 8.403456687927246 -2.347599983215332
12.569682121276855 9.445517539978027 -2.347599983215332
11.768872261047363 10.4263277053833 -2.347599983215332
10.891742706298828 11.339521408081055 -2.347599983215332
9.943979263305664 12.179169654846191 -2.347599983215332
7.861527919769287 13.616572380065918 -2.347599983215332
5.575341701507568 14.70131778717041 -2.347599983215332
4.374462604522705 15.102313995361328 -2.347599983215332
3.145029306411743 15.405312538146973 -2.347599983215332
0.6015087962150574 14.92635726928711 -2.2304515838623047
-0.5598828196525574 13.89322280883789 -2.07607102394104
-1.5978857278823853 13.159696578979492 -1.9792968034744263
-2.5726561546325684 12.601669311523438 -1.920355200767517
-7.766205787658691 11.2512788772583 -2.0412566661834717
-9.215527534484863 11.286962509155273 -2.175624370574951
-10.891752243041992 11.33951187133789 -2.347599983215332
-11.768881797790527 10.426318168640137 -2.347599983215332
-14.808412551879883 7.772060394287109 -2.497056484222412
-16.257211685180664 4.007050514221191 -2.5
-16.526933670043945 2.6858983039855957 -2.5
15.561088562011719 1.9531249563442543e-05 -2.5
15.10891056060791 3.724013566970825 -2.5
13.96080493927002 4.660820007324219 -2.3645918369293213
11.68185043334961 8.778368949890137 -2.347599983215332
9.241606712341309 11.318915367126465 -2.347599983215332
8.300825119018555 12.025858879089355 -2.347599983215332
7.306249618530273 12.654794692993164 -2.347599983215332
6.264257907867432 13.201669692993164 -2.347599983215332
4.065380573272705 14.035566329956055 -2.347599983215332
-1.5978857278823853 13.159696578979492 -2.1297266483306885
-2.5726561546325684 12.601669311523438 -2.06630539894104
-3.5262792110443115 12.174091339111328 -2.036247491836548
-4.486850261688232 11.830859184265137 -2.032811164855957
-6.558115005493164 11.358993530273438 -2.107215166091919
-7.766205787658691 11.2512788772583 -2.1963958740234375
-10.122426986694336 10.538564682006836 -2.347599983215332
-10.937606811523438 9.689872741699219 -2.347599983215332
-11.68185043334961 8.778349876403809 -2.347599983215332
-15.108920097351074 3.7240233421325684 -2.5
-15.510639190673828 1.2521483898162842 -2.5
14.531059265136719 2.9296874345163815e-05 -2.5
14.108813285827637 3.477529287338257 -2.5
13.767152786254883 4.596171855926514 -2.497081995010376
12.082260131835938 6.341259479522705 -2.347599983215332
10.908583641052246 8.197284698486328 -2.347599983215332
8.629867553710938 10.569686889648438 -2.347599983215332
7.751381874084473 11.229833602905273 -2.347599983215332
5.849609375 12.327812194824219 -2.347599983215332
2.7294092178344727 13.369491577148438 -2.347599983215332
0.5494384765625 13.63417911529541 -2.347599983215332
-0.5493115186691284 13.63418960571289 -2.347599983215332
-2.5726561546325684 12.601669311523438 -2.212775468826294
-4.486850261688232 11.830859184265137 -2.176907539367676
-5.48464822769165 11.5586519241333 -2.20112943649292
-6.558115005493164 11.358993530273438 -2.2565853595733643
-7.751391410827637 11.229804039001465 -2.347599983215332
-8.629878044128418 10.569677352905273 -2.347599983215332
-11.532821655273438 7.292919635772705 -2.347599983215332
-12.853324890136719 6.745946884155273 -2.497417449951172
-13.783231735229492 4.601513385772705 -2.5
-6.620102405548096 1.0758788585662842 -1.15390145778656
13.449233055114746 2.185742139816284 -2.5
11.32945728302002 5.946181297302246 -2.347599983215332
10.814252853393555 6.838534832000732 -2.347599983215332
9.57723617553711 8.484697341918945 -2.347599983215332
8.863451957702637 9.2278413772583 -2.347599983215332
6.397524356842041 11.080849647521973 -2.347599983215332
3.559804677963257 12.289892196655273 -2.347599983215332
2.5593504905700684 12.536474227905273 -2.347599983215332
1.5422801971435547 12.701766967773438 -2.347599983215332
-1.5422801971435547 12.701766967773438 -2.347599983215332
-4.486850261688232 11.830859184265137 -2.3215558528900146
-5.484643459320068 11.558661460876465 -2.3473870754241943
-10.814252853393555 6.838525295257568 -2.347599983215332
-12.056899070739746 6.327949047088623 -2.498332977294922
-12.535346031188965 5.340810298919678 -2.5
-6.37560510635376 0.514697253704071 -1.1735841035842896
12.7818603515625 1.0318750143051147 -2.5
12.657387733459473 2.0570311546325684 -2.5
12.450815200805664 3.0688672065734863 -2.5
10.662421226501465 5.596093654632568 -2.347599983215332
10.177543640136719 6.43590784072876 -2.347599983215332
9.0133638381958 7.985156059265137 -2.347599983215332
8.341596603393555 8.684540748596191 -2.347599983215332
6.840468406677246 9.910175323486328 -2.347599983215332
4.270053386688232 11.259228706359863 -2.347599983215332
3.350209951400757 11.56630802154541 -2.347599983215332
-0.48487791419029236 12.031962394714355 -2.347599983215332
-1.451479434967041 11.95394515991211 -2.347599983215332
-2.4086523056030273 11.798368453979492 -2.347599983215332
-3.3502392768859863 11.566298484802246 -2.347599983215332
-4.270053386688232 11.259228706359863 -2.347599983215332
-5.162207126617432 10.879111289978027 -2.347599983215332
-6.020859241485596 10.428457260131836 -2.347599983215332
-6.840502738952637 9.910146713256836 -2.347599983215332
-8.341601371765137 8.684531211853027 -2.347599983215332
-9.626684188842773 7.233974456787109 -2.347599983215332
-11.797319412231445 5.0263671875 -2.5
-12.450824737548828 3.068857431411743 -2.5
-6.276904106140137 1.020107388496399 -1.239770531654358
12.107514381408691 1.9531249563442543e-05 -2.5
12.068256378173828 0.9742675423622131 -2.5
11.95071792602539 1.9422069787979126 -2.5
11.755688667297363 2.897538900375366 -2.5
11.484418869018555 3.8340818881988525 -2.5
11.105116844177246 4.731454849243164 -2.4924709796905518
9.476889610290527 4.973866939544678 -2.209956407546997
9.089213371276855 6.830126762390137 -2.347599983215332
7.875888347625732 8.199687004089355 -2.347599983215332
7.190556526184082 8.806836128234863 -2.347599983215332
6.458579063415527 9.356874465942383 -2.347599983215332
5.684731483459473 9.8462495803833 -2.347599983215332
4.873979568481445 10.271747589111328 -2.347599983215332
4.031640529632568 10.630634307861328 -2.347599983215332
3.1631834506988525 10.92055606842041 -2.347599983215332
2.274184465408325 11.139677047729492 -2.347599983215332
0.4577978551387787 11.360224723815918 -2.347599983215332
-0.45780760049819946 11.360214233398438 -2.347599983215332
-1.3704394102096558 11.286542892456055 -2.347599983215332
-3.1631834506988525 10.92055606842041 -2.347599983215332
-4.031655311584473 10.630615234375 -2.347599983215332
-4.873993873596191 10.271738052368164 -2.347599983215332
-5.68472146987915 9.846240043640137 -2.347599983215332
-7.190556526184082 8.806816101074219 -2.347599983215332
-7.875893592834473 8.199667930603027 -2.347599983215332
-8.510141372680664 7.539345741271973 -2.347599983215332
-9.089223861694336 6.83010721206665 -2.347599983215332
-11.755688667297363 2.897529125213623 -2.5
-6.148549556732178 0.9992480278015137 -1.2862293720245361
-6.11498498916626 0.4936620891094208 -1.2667500972747803
11.427348136901855 0.9225292801856995 -2.5
10.874506950378418 3.6304588317871094 -2.5
9.462983131408691 4.966562271118164 -2.3304779529571533
9.099003791809082 5.753886699676514 -2.347599983215332
8.058197975158691 7.138955116271973 -2.347599983215332
7.457622051239014 7.764228343963623 -2.347599983215332
6.808681488037109 8.339130401611328 -2.347599983215332
4.61514139175415 9.726240158081055 -2.347599983215332
2.1533007621765137 10.548075675964355 -2.347599983215332
1.297670841217041 10.687138557434082 -2.347599983215332
0.43349120020866394 10.756903648376465 -2.347599983215332
-0.4334814250469208 10.756914138793945 -2.347599983215332
-1.2976512908935547 10.68715763092041 -2.347599983215332
-2.995190382003784 10.340585708618164 -2.347599983215332
-3.8175437450408936 10.06606388092041 -2.347599983215332
-4.615151405334473 9.72622013092041 -2.347599983215332
-7.457626819610596 7.764208793640137 -2.347599983215332
-8.05819320678711 7.138935565948486 -2.347599983215332
-10.15133285522461 5.327822208404541 -2.5
-10.874521255493164 3.630449056625366 -2.5
-6.1793212890625 1.5230566263198853 -1.3878146409988403
-6.037270545959473 0.9811620712280273 -1.3337838649749756
10.848402976989746 0.8757910132408142 -2.5
10.742758750915527 1.745888590812683 -2.5
10.567436218261719 2.6046581268310547 -2.5
10.323588371276855 3.4465527534484863 -2.5
10.0106782913208 4.26516580581665 -2.499474048614502
8.170488357543945 6.139746189117432 -2.347599983215332
5.110116958618164 8.85098648071289 -2.347599983215332
2.84344220161438 9.816728591918945 -2.347599983215332
2.0443115234375 10.013700485229492 -2.347599983215332
0.4115283191204071 10.211942672729492 -2.347599983215332
-0.4115234315395355 10.211942672729492 -2.347599983215332
-2.044316291809082 10.013681411743164 -2.347599983215332
-2.843456983566284 9.816718101501465 -2.347599983215332
-3.624155282974243 9.556083679199219 -2.347599983215332
-4.381337642669678 9.233476638793945 -2.347599983215332
-5.805766582489014 8.411084175109863 -2.347599983215332
-6.46373987197876 7.916650295257568 -2.347599983215332
-7.079804420471191 7.370869159698486 -2.347599983215332
-8.695287704467773 5.49856424331665 -2.3631553649902344
-10.012787818908691 4.266044616699219 -2.5
-10.323593139648438 3.446523427963257 -2.5
-5.930942058563232 0.9638769030570984 -1.380218744277954
10.32277774810791 0.8333495855331421 -2.5
10.055415153503418 2.478466749191284 -2.5
9.823373794555664 3.279541015625 -2.5
9.527631759643555 4.059365272521973 -2.5
8.851166725158691 4.645449161529541 -2.4130501747131348
7.279286861419678 6.448896408081055 -2.347599983215332
5.524447917938232 8.00356388092041 -2.347599983215332
4.862514495849609 8.422138214111328 -2.347599983215332
2.7056689262390137 9.341064453125 -2.347599983215332
1.1722314357757568 9.654130935668945 -2.347599983215332
0.39158689975738525 9.717158317565918 -2.347599983215332
-0.39158689975738525 9.717158317565918 -2.347599983215332
-1.1722314357757568 9.654130935668945 -2.347599983215332
-1.9452636241912842 9.528505325317383 -2.347599983215332
-4.169052600860596 8.786084175109863 -2.347599983215332
-6.150551795959473 7.533056259155273 -2.347599983215332
-6.736767292022705 7.013720512390137 -2.347599983215332
-7.27929162979126 6.448876857757568 -2.347599983215332
-7.774613857269287 5.842246055603027 -2.347599983215332
-8.638593673706055 5.462724685668945 -2.4672985076904297
-9.1701021194458 4.812841892242432 -2.5
-9.527636528015137 4.059345722198486 -2.5
9.875297546386719 9.765624781721272e-06 -2.5
9.843276023864746 0.7946484088897705 -2.5
9.747416496276855 1.5841405391693115 -2.5
9.367079734802246 3.127197265625 -2.5
9.085073471069336 3.870800733566284 -2.5
8.720341682434082 4.576797008514404 -2.4931933879852295
6.941171646118164 6.149335861206055 -2.347599983215332
6.423837661743164 6.687949180603027 -2.347599983215332
4.636655330657959 8.030927658081055 -2.347599983215332
3.975395441055298 8.377968788146973 -2.347599983215332
3.2883594036102295 8.670693397521973 -2.347599983215332
1.854897379875183 9.085907936096191 -2.347599983215332
1.1177783012390137 9.205693244934082 -2.347599983215332
-4.636655330657959 8.030927658081055 -2.347599983215332
-5.267846584320068 7.631767272949219 -2.347599983215332
-5.864858150482178 7.183154106140137 -2.347599983215332
-6.423842430114746 6.687939167022705 -2.347599983215332
-6.941166877746582 6.149345397949219 -2.347599983215332
-7.413471698760986 5.570868968963623 -2.347599983215332
-8.32669448852539 5.265478610992432 -2.4940621852874756
-9.367094993591309 3.127197265625 -2.5
-9.58834457397461 2.3633203506469727 -2.5
9.3124361038208 1.5134375095367432 -2.5
9.160444259643555 2.257871150970459 -2.5
8.679643630981445 3.69805645942688 -2.5
7.487939357757568 4.735087871551514 -2.347599983215332
7.082631587982178 5.322275161743164 -2.347599983215332
3.797983407974243 8.004111289978027 -2.347599983215332
1.7721190452575684 8.680429458618164 -2.347599983215332
-1.067895531654358 8.794873237609863 -2.347599983215332
-2.4648633003234863 8.50966739654541 -2.347599983215332
-3.141611337661743 8.283759117126465 -2.347599983215332
-3.7979931831359863 8.004091262817383 -2.347599983215332
-4.429731369018555 7.672529220581055 -2.347599983215332
-5.032758712768555 7.291201114654541 -2.347599983215332
-6.137167930603027 6.389482498168945 -2.347599983215332
-7.0826416015625 5.322265625 -2.347599983215332
-8.353930473327637 4.384491920471191 -2.5
9.029281616210938 2.9296874345163815e-05 -2.5
8.912348747253418 1.4484374523162842 -2.5
8.56459903717041 2.8592967987060547 -2.5
7.237983226776123 4.577031135559082 -2.3711023330688477
5.873510837554932 6.114990234375 -2.347599983215332
5.362411975860596 6.567773342132568 -2.347599983215332
4.239423751831055 7.342919826507568 -2.347599983215332
1.0220214128494263 8.4170503616333 -2.347599983215332
-1.0220165252685547 8.417040824890137 -2.347599983215332
-1.6960009336471558 8.307509422302246 -2.347599983215332
-2.3589696884155273 8.1441011428833 -2.347599983215332
-3.006645441055298 7.927861213684082 -2.347599983215332
-5.873520374298096 6.114980220794678 -2.347599983215332
-6.778364181518555 5.093623161315918 -2.347599983215332
-8.306753158569336 3.5391697883605957 -2.5
-8.564594268798828 2.8592870235443115 -2.5
-5.444970607757568 0.4395703077316284 -1.5124926567077637
8.543070793151855 1.3883886337280273 -2.5
8.403647422790527 2.071337938308716 -2.5
8.209731101989746 2.7408299446105957 -2.5
7.663759708404541 4.022265434265137 -2.5
6.083544731140137 5.389579772949219 -2.347599983215332
5.140224456787109 6.295654296875 -2.347599983215332
4.616967678070068 6.688847541809082 -2.347599983215332
3.4842138290405273 7.342841625213623 -2.347599983215332
2.8820652961730957 7.59939432144165 -2.347599983215332
1.6257226467132568 7.963271141052246 -2.347599983215332
0.32725584506988525 8.120956420898438 -2.347599983215332
-0.9796728491783142 8.068290710449219 -2.347599983215332
-2.882070302963257 7.599384784698486 -2.347599983215332
-4.063774108886719 7.038642406463623 -2.347599983215332
-4.616977214813232 6.688817977905273 -2.347599983215332
-5.140229225158691 6.295644283294678 -2.347599983215332
-5.630146503448486 5.861611366271973 -2.347599983215332
-6.083549499511719 5.389560222625732 -2.347599983215332
-6.58397912979126 4.947548866271973 -2.378842830657959
-7.962573051452637 3.392529249191284 -2.5
-8.209731101989746 2.7408103942871094 -2.5
-5.284584999084473 1.3025487661361694 -1.5721102952957153
-5.310727596282959 0.42873045802116394 -1.5389690399169922
8.308676719665527 1.9531249563442543e-05 -2.5
8.281733512878418 0.6685937643051147 -2.5
8.067240715026855 1.9884179830551147 -2.5
7.881083965301514 2.631113290786743 -2.5
7.643818378448486 3.2567479610443115 -2.5
6.237387657165527 4.687129020690918 -2.347599983215332
5.840014457702637 5.173808574676514 -2.347599983215332
3.9010887145996094 6.756884574890137 -2.347599983215332
2.7666845321655273 7.295166015625 -2.347599983215332
2.170707941055298 7.494140625 -2.347599983215332
-1.560634732246399 7.644511699676514 -2.347599983215332
-2.170707941055298 7.494130611419678 -2.347599983215332
-2.7666893005371094 7.295175552368164 -2.347599983215332
-3.9010937213897705 6.756904125213623 -2.347599983215332
-4.934453010559082 6.043622970581055 -2.347599983215332
-5.404770374298096 5.626953125 -2.347599983215332
-6.552524089813232 4.923915863037109 -2.4662070274353027
-7.643813133239746 3.256728410720825 -2.5
-5.143383502960205 1.2677440643310547 -1.5939096212387085
-5.174340724945068 0.417724609375 -1.5619741678237915
7.960912704467773 0.6426855325698853 -2.5
7.575795650482178 2.529189348220825 -2.5
7.347700119018555 3.1305859088897705 -2.5
7.071967601776123 3.711679697036743 -2.5
6.741933345794678 4.263369083404541 -2.496873378753662
6.011909008026123 4.517685413360596 -2.3539209365844727
4.743295669555664 5.809501647949219 -2.347599983215332
4.260444164276123 6.172343730926514 -2.347599983215332
3.215156078338623 6.775820255279541 -2.347599983215332
2.086606502532959 7.203827857971191 -2.347599983215332
-1.5001806020736694 7.348378658294678 -2.347599983215332
-2.6595213413238525 7.01256799697876 -2.347599983215332
-3.7499656677246094 6.49514627456665 -2.347599983215332
-4.260454177856445 6.172324180603027 -2.347599983215332
-4.743305683135986 5.809492111206055 -2.347599983215332
-5.195395469665527 5.408974647521973 -2.347599983215332
-6.750375747680664 4.268681526184082 -2.5
-7.071977615356445 3.711669921875 -2.5
-7.347704887390137 3.1305761337280273 -2.5
-5.044116020202637 0.4071972668170929 -1.5840258598327637
7.686967372894287 1.9531249563442543e-05 -2.5
7.071850299835205 3.0130467414855957 -2.5
5.988588809967041 4.500146389007568 -2.4362502098083496
3.609184503555298 6.251298904418945 -2.347599983215332
2.5596678256988525 6.749316215515137 -2.347599983215332
2.0082762241363525 6.933398246765137 -2.347599983215332
0.8700829744338989 7.165741920471191 -2.347599983215332
0.2906591594219208 7.21251916885376 -2.347599983215332
-0.2906494140625 7.21251916885376 -2.347599983215332
-0.8700829744338989 7.165732383728027 -2.347599983215332
-2.0082859992980957 6.933388710021973 -2.347599983215332
-2.5596728324890137 6.749287128448486 -2.347599983215332
-3.0944578647613525 6.521454811096191 -2.347599983215332
-3.6091794967651367 6.251298904418945 -2.347599983215332
-4.565224647521973 5.591396331787109 -2.347599983215332
-6.13516092300415 4.610282897949219 -2.4958794116973877
-6.4969482421875 4.10842752456665 -2.5
-6.806469440460205 3.57232403755188 -2.5
-4.91274881362915 0.7983984351158142 -1.6187139749526978
-4.934330940246582 0.3983496129512787 -1.6099902391433716
7.406869888305664 9.765624781721272e-06 -2.5
7.191640377044678 1.7725976705551147 -2.5
6.5584716796875 3.4421582221984863 -2.5
5.905239105224609 4.437519550323486 -2.4931907653808594
4.818139553070068 5.016240119934082 -2.347599983215332
3.9510886669158936 5.72415018081665 -2.347599983215332
3.477670907974243 6.023505687713623 -2.347599983215332
1.9350926876068115 6.680751800537109 -2.347599983215332
0.28007322549819946 6.949716567993164 -2.347599983215332
-0.2800585925579071 6.949726581573486 -2.347599983215332
-1.3912549018859863 6.814804553985596 -2.347599983215332
-1.9351024627685547 6.680751800537109 -2.347599983215332
-3.9510984420776367 5.72415018081665 -2.347599983215332
-4.398876667022705 5.387646198272705 -2.347599983215332
-5.916264533996582 4.445790767669678 -2.49784255027771
-7.025698184967041 2.345507860183716 -2.5
-4.811811447143555 1.1860058307647705 -1.6727091073989868
-4.811435222625732 0.7819433212280273 -1.6452817916870117
-4.8302001953125 0.3899316191673279 -1.635614275932312
7.052060604095459 1.146093726158142 -2.5
6.936977386474609 1.7098339796066284 -2.5
6.5728759765625 2.8004393577575684 -2.5
6.326225280761719 3.3202733993530273 -2.5
6.038539886474609 3.818554639816284 -2.5
4.647529125213623 4.838603496551514 -2.347599983215332
3.3545262813568115 5.810214519500732 -2.347599983215332
1.3419774770736694 6.573476314544678 -2.347599983215332
0.8086913824081421 6.660146236419678 -2.347599983215332
0.2701464891433716 6.70361328125 -2.347599983215332
-0.2701464891433716 6.70361328125 -2.347599983215332
-2.3790576457977295 6.273085594177246 -2.347599983215332
-3.3545360565185547 5.810204982757568 -2.347599983215332
-3.8111767768859863 5.521454811096191 -2.347599983215332
-4.647533893585205 4.838573932647705 -2.347599983215332
-5.71117639541626 4.291669845581055 -2.49977445602417
-6.572885513305664 2.8004393577575684 -2.5
-4.750058650970459 1.1707910299301147 -1.7118631601333618
-4.739887714385986 0.38264647126197815 -1.6639550924301147
6.898407936096191 1.9531249563442543e-05 -2.5
6.876044750213623 0.5551074147224426 -2.5
6.697954177856445 1.650917887687683 -2.5
6.543388366699219 2.184521436691284 -2.5
6.108237266540527 3.2058591842651367 -2.5
5.02346658706665 4.450429439544678 -2.4321842193603516
4.487387657165527 4.671884536743164 -2.347599983215332
4.096909046173096 5.017802715301514 -2.347599983215332
1.8022607564926147 6.222128868103027 -2.347599983215332
1.2957470417022705 6.346972465515137 -2.347599983215332
0.7808300852775574 6.430654048919678 -2.347599983215332
0.26084470748901367 6.472646236419678 -2.347599983215332
-0.2608349621295929 6.472626686096191 -2.347599983215332
-1.2957372665405273 6.346982479095459 -2.347599983215332
-1.8022704124450684 6.222138404846191 -2.347599983215332
-2.2970945835113525 6.056933403015137 -2.347599983215332
-2.7770166397094727 5.852460861206055 -2.347599983215332
-3.238945245742798 5.610019207000732 -2.347599983215332
-3.67986798286438 5.331201076507568 -2.347599983215332
-5.514882564544678 4.144179821014404 -2.5
-5.830468654632568 3.6869823932647705 -2.5
-6.108246803283691 3.2058496475219727 -2.5
-6.346401214599609 2.7039549350738525 -2.5
-6.543403148651123 2.184511661529541 -2.5
-4.687631607055664 0.7618261575698853 -1.7210946083068848
-4.692378044128418 0.3788085877895355 -1.7060636281967163
6.666840553283691 9.765624781721272e-06 -2.5
6.580507755279541 1.0694531202316284 -2.5
6.473119735717773 1.595497965812683 -2.5
6.323740005493164 2.1111912727355957 -2.5
5.329755783081055 4.005068302154541 -2.5
3.9593799114227295 4.849365234375 -2.347599983215332
3.1302196979522705 5.421709060668945 -2.347599983215332
2.219980478286743 5.853603363037109 -2.347599983215332
1.2522411346435547 6.133925437927246 -2.347599983215332
0.7546093463897705 6.214785099029541 -2.347599983215332
0.2520849406719208 6.255351543426514 -2.347599983215332
-0.2520751953125 6.25537109375 -2.347599983215332
-0.7546191215515137 6.214785099029541 -2.347599983215332
-1.2522509098052979 6.133915901184082 -2.347599983215332
-2.6838035583496094 5.655995845794678 -2.347599983215332
-3.1302146911621094 5.421699047088623 -2.347599983215332
-4.351694107055664 4.530576229095459 -2.3556854724884033
-5.903188228607178 3.0982518196105957 -2.5
-6.133364200592041 2.6131834983825684 -2.5
-6.323740005493164 2.1111912727355957 -2.5
-4.647128582000732 0.7552441358566284 -1.765491008758545
6.448559284210205 1.9531249563442543e-05 -2.5
6.427646160125732 0.5189160108566284 -2.5
6.11669397354126 2.042070150375366 -2.5
5.932538986206055 2.527646541595459 -2.5
5.450253963470459 3.446542978286743 -2.5
5.155258655548096 3.8739452362060547 -2.5
4.817304611206055 4.267773151397705 -2.495074510574341
4.240590572357178 4.414931774139404 -2.373246192932129
3.0277295112609863 5.244189262390137 -2.347599983215332
1.684731364250183 5.816386699676514 -2.347599983215332
1.211245059967041 5.933085918426514 -2.347599983215332
0.7299169898033142 6.011318206787109 -2.347599983215332
0.24382811784744263 6.050556659698486 -2.347599983215332
-0.24382811784744263 6.050556659698486 -2.347599983215332
-1.2112499475479126 5.933095455169678 -2.347599983215332
-1.6847411394119263 5.816376686096191 -2.347599983215332
-2.1473095417022705 5.661952972412109 -2.347599983215332
-3.439897298812866 4.983544826507568 -2.347599983215332
-3.8297507762908936 4.690595626831055 -2.347599983215332
-4.336352348327637 4.514599323272705 -2.426832914352417
-4.822016716003418 4.271943092346191 -2.497511148452759
-5.155258655548096 3.8739256858825684 -2.5
-5.709917068481445 2.9968066215515137 -2.5
-5.932548522949219 2.5276172161102295 -2.5
-6.11669921875 2.042050838470459 -2.5
-4.606997013092041 0.7487109303474426 -1.8094887733459473
-4.601674556732178 0.3714843690395355 -1.789797067642212
6.161581993103027 1.001376986503601 -2.5
5.742900371551514 2.446826219558716 -2.5
5.527387619018555 2.901015520095825 -2.5
4.990454196929932 3.7500877380371094 -2.5
4.667236328125 4.134824275970459 -2.497173309326172
2.512949228286743 5.29592752456665 -2.347599983215332
1.6308836936950684 5.630449295043945 -2.347599983215332
0.7065722346305847 5.819150447845459 -2.347599983215332
-1.172524333000183 5.743417739868164 -2.347599983215332
-1.6308836936950684 5.630458831787109 -2.347599983215332
-2.512953996658325 5.29592752456665 -2.347599983215332
-3.3299412727355957 4.824228286743164 -2.347599983215332
-3.707329034805298 4.540654182434082 -2.347599983215332
-4.990454196929932 3.7500975131988525 -2.5
-5.27603006362915 3.336367130279541 -2.5
-5.527397155761719 2.9009861946105957 -2.5
-4.612475395202637 1.136875033378601 -1.9025143384933472
-4.584218502044678 0.74500972032547 -1.8600003719329834
6.047377586364746 1.9531249563442543e-05 -2.5
5.563461780548096 2.3704004287719727 -2.5
4.834526062011719 3.6329197883605957 -2.5
4.525019645690918 4.008828163146973 -2.4991626739501953
3.225883722305298 4.673505783081055 -2.347599983215332
1.579921841621399 5.454531192779541 -2.347599983215332
0.684497058391571 5.637333869934082 -2.347599983215332
-0.684497058391571 5.637333869934082 -2.347599983215332
-1.579921841621399 5.454521179199219 -2.347599983215332
-2.4344334602355957 5.130458831787109 -2.347599983215332
-3.225893497467041 4.673515319824219 -2.347599983215332
-3.6250927448272705 4.43994140625 -2.3695664405822754
-4.526528358459473 4.010156154632568 -2.5
-5.111176490783691 3.232128858566284 -2.5
-5.563466548919678 2.370361328125 -2.5
-4.604403972625732 1.1348828077316284 -1.960436224937439
-4.583588600158691 0.7449120879173279 -1.9197238683700562
5.862514495849609 2.9296874345163815e-05 -2.5
5.560810565948486 1.8564940690994263 -2.5
5.393393516540527 2.297919988632202 -2.5
5.191000938415527 2.7244627475738525 -2.5
4.954946041107178 3.1333398818969727 -2.5
4.686752796173096 3.5218846797943115 -2.5
4.388164043426514 3.887578010559082 -2.5
4.053173542022705 4.219804763793945 -2.495119333267212
2.7525634765625 4.767597675323486 -2.347599983215332
2.3600146770477295 4.9736328125 -2.347599983215332
1.5316259860992432 5.287792682647705 -2.347599983215332
1.101162075996399 5.393886566162109 -2.347599983215332
0.22166991233825684 5.500683307647705 -2.347599983215332
-0.22167479991912842 5.500673770904541 -2.347599983215332
-1.1011767387390137 5.393896579742432 -2.347599983215332
-1.9521533250808716 5.147402286529541 -2.347599983215332
-2.3600146770477295 4.973622798919678 -2.347599983215332
-2.7525634765625 4.767587661743164 -2.347599983215332
-3.613784074783325 4.426103591918945 -2.4366655349731445
-4.055346488952637 4.222070217132568 -2.496453285217285
-4.388164043426514 3.887578010559082 -2.5
-4.686752796173096 3.521865129470825 -2.5
-4.954946041107178 3.1333301067352295 -2.5
-4.88418436050415 1.6305761337280273 -2.19580340385437
-4.595341682434082 1.132656216621399 -2.0182759761810303
-4.558422565460205 0.3680078089237213 -1.9502085447311401
5.687026023864746 2.9296874345163815e-05 -2.5
5.6685791015625 0.4576367139816284 -2.5
5.613379001617432 0.9122949242591858 -2.5
5.394345760345459 1.8009179830551147 -2.5
5.231938362121582 2.229140520095825 -2.5
4.546445369720459 3.416455030441284 -2.5
3.934946298599243 4.096728324890137 -2.4970834255218506
3.556596517562866 4.356044769287109 -2.4721031188964844
3.0336523056030273 4.395009517669678 -2.347599983215332
2.670170783996582 4.624873161315918 -2.347599983215332
1.893715739250183 4.993310451507568 -2.347599983215332
0.6437060236930847 5.301415920257568 -2.347599983215332
-0.21503905951976776 5.336005687713623 -2.347599983215332
-0.6437060236930847 5.301415920257568 -2.347599983215332
-1.0682079792022705 5.232421875 -2.347599983215332
-1.4857860803604126 5.129501819610596 -2.347599983215332
-2.289370059967041 4.824746131896973 -2.347599983215332
-2.670170783996582 4.624873161315918 -2.347599983215332
-3.586249828338623 4.392353534698486 -2.492711067199707
-5.035614967346191 2.642900228500366 -2.5
-5.231953144073486 2.229130744934082 -2.5
-4.582290172576904 0.7446972727775574 -2.040788412094116
-4.551156997680664 0.36741209030151367 -2.0071895122528076
5.520161151885986 1.9531249563442543e-05 -2.5
5.502260684967041 0.4442089796066284 -2.5
5.359760761260986 1.3210742473602295 -2.5
5.236073970794678 1.74807608127594 -2.5
5.078437328338623 2.1637401580810547 -2.5
4.665580749511719 2.9503514766693115 -2.5
4.131889343261719 3.6605565547943115 -2.5
3.4825146198272705 4.265302658081055 -2.493777275085449
2.5918211936950684 4.489179611206055 -2.347599983215332
2.2221875190734863 4.683183670043945 -2.347599983215332
0.6248242259025574 5.145878791809082 -2.347599983215332
0.20872558653354645 5.179443359375 -2.347599983215332
-1.036865234375 5.078916072845459 -2.347599983215332
-1.8381494283676147 4.846806526184082 -2.347599983215332
-2.2222020626068115 4.683173656463623 -2.347599983215332
-3.0107274055480957 4.361796855926514 -2.4002771377563477
-3.4836277961730957 4.266679763793945 -2.4945812225341797
-3.8239402770996094 3.981152296066284 -2.499992847442627
-4.131899356842041 3.6605565547943115 -2.5
-4.665590763092041 2.9503417015075684 -2.5
-4.887856483459473 2.565361261367798 -2.5
-4.54092264175415 0.36659178137779236 -2.0632076263427734
5.361264705657959 9.765624781721272e-06 -2.5
5.343881607055664 0.4314062297344208 -2.5
4.747172832489014 2.491513729095459 -2.5
4.531283855438232 2.865419864654541 -2.5
4.012963771820068 3.555185556411743 -2.5
2.986088752746582 4.326103210449219 -2.4511916637420654
2.517221689224243 4.359951019287109 -2.347599983215332
1.4006688594818115 4.835673809051514 -2.347599983215332
0.6068310141563416 4.997744083404541 -2.347599983215332
0.20271484553813934 5.030371189117432 -2.347599983215332
-1.007021427154541 4.932724475860596 -2.347599983215332
-1.400673747062683 4.835663795471191 -2.347599983215332
-1.7852392196655273 4.707284927368164 -2.347599983215332
-3.7138867378234863 3.8665623664855957 -2.5
-4.012963771820068 3.555185556411743 -2.5
-4.286030292510986 3.2207517623901367 -2.5
-4.531293869018555 2.865419864654541 -2.5
-4.747172832489014 2.491513729095459 -2.5
-4.932255744934082 2.101435422897339 -2.5
-5.08535623550415 1.6977343559265137 -2.5
-4.553149223327637 1.122255802154541 -2.186706304550171
