ply
format ascii 1.0
element vertex 941
property float x
property float y
property float z
end_header
-4.601366996765137 -5.635640621185303 1.949463129043579
-1.0375243425369263 -25.745555877685547 6.9041008949279785
3.1274657249450684 -25.75712013244629 6.952287673950195
5.259541034698486 -25.763031005859375 7.045567989349365
7.377152919769287 -25.468908309936523 7.104885101318359
12.091327667236328 -25.48199462890625 7.55755615234375
8.661561965942383 -7.673503398895264 3.1006431579589844
7.577895164489746 -5.694441795349121 2.5398900508880615
7.680859088897705 -4.85710334777832 2.4350576400756836
9.652250289916992 -4.112451076507568 2.811275005340576
27.17945671081543 -6.699169635772705 7.500674724578857
-5.238447189331055 -25.659513473510742 6.707122802734375
7.377143383026123 -25.46890640258789 6.790876388549805
8.767783164978027 -7.767617225646973 2.9999516010284424
7.799018383026123 -5.860600471496582 2.4984750747680664
7.761757850646973 -4.908262729644775 2.3519506454467773
11.642889976501465 -4.96058464050293 3.241192579269409
12.337372779846191 -3.0409069061279297 3.254253387451172
25.979082107543945 -2.097259521484375 6.6750688552856445
-4.591943264007568 -5.624089241027832 1.7739895582199097
-7.365331649780273 -25.427982330322266 6.468234539031982
-3.0889549255371094 -25.439857482910156 6.261411190032959
1.0377197265625 -25.751317977905273 6.296963214874268
3.1274805068969727 -25.75712013244629 6.339497089385986
9.775365829467773 -25.77556800842285 6.735477924346924
12.091327667236328 -25.481996536254883 6.891416072845459
9.922699928283691 -7.456457138061523 3.032656192779541
7.955580711364746 -5.030833721160889 2.299844264984131
25.31437873840332 -8.451193809509277 6.520681381225586
25.62686538696289 -4.164795875549316 6.343599796295166
-3.0889549255371094 -25.43987274169922 5.961279392242432
-1.0219335556030273 -25.359262466430664 5.903853416442871
1.022128939628601 -25.364938735961914 5.905174255371094
3.1274707317352295 -25.75712013244629 6.03562068939209
12.091327667236328 -25.481996536254883 6.561081409454346
9.073793411254883 -8.038718223571777 2.8199310302734375
9.494486808776855 -7.134660720825195 2.762683629989624
9.881088256835938 -4.209949970245361 2.498471975326538
10.711723327636719 -3.5761120319366455 2.6269586086273193
11.001137733459473 -2.711557626724243 2.6356773376464844
26.485746383666992 -2.138160467147827 6.18115234375
-5.192421913146973 -25.434022903442383 5.736032485961914
-3.0889647006988525 -25.439863204956055 5.662687301635742
-1.028110384941101 -25.51192855834961 5.641900062561035
1.0283056497573853 -25.51763916015625 5.643162727355957
9.77535629272461 -25.77556800842285 6.091422080993652
12.091327667236328 -25.481996536254883 6.232449054718018
9.810185432434082 -6.203610897064209 2.5648040771484375
9.9198579788208 -4.226473331451416 2.382641553878784
10.207533836364746 -3.4077868461608887 2.3779234886169434
25.86289405822754 -4.203150749206543 5.789856910705566
-7.365331649780273 -25.427989959716797 5.54278564453125
-3.0889549255371094 -25.43985939025879 5.365555763244629
-1.028110384941101 -25.51192855834961 5.345855712890625
3.0990819931030273 -25.523372650146484 5.383164405822754
9.6866455078125 -25.541662216186523 5.719412803649902
11.434828758239746 -8.59273910522461 2.9947803020477295
11.020395278930664 -6.968903541564941 2.7300219535827637
10.335585594177246 -3.4505395889282227 2.281414031982422
24.528696060180664 -6.045810222625732 5.289361000061035
26.30860710144043 -4.275584697723389 5.580593109130859
26.844701766967773 -2.1671385765075684 5.638855457305908
-4.574833869934082 -5.603141784667969 1.4310308694839478
-1.028110384941101 -25.511926651000977 5.051187038421631
3.0990867614746094 -25.523372650146484 5.086441516876221
7.377148151397705 -25.468910217285156 5.245691299438477
9.6866455078125 -25.541662216186523 5.404152870178223
10.817231178283691 -3.611332893371582 2.256115674972534
-7.365341663360596 -25.427995681762695 4.933076858520508
-5.238388538360596 -25.659170150756836 4.880007743835449
-3.0889647006988525 -25.439863204956055 4.775336265563965
3.1183886528015137 -25.682363510131836 4.820857048034668
11.236425399780273 -3.7512829303741455 2.2074270248413086
25.186492919921875 -6.20794153213501 4.833770751953125
-14.7766695022583 -6.295729637145996 2.8092150688171387
-4.573593616485596 -5.601624488830566 1.2647976875305176
-7.365331649780273 -25.427995681762695 4.630138397216797
-5.238379001617432 -25.659170150756836 4.580331325531006
-3.0889647006988525 -25.439863204956055 4.482088088989258
9.74698257446289 -25.700748443603516 4.807441711425781
14.754570007324219 -25.555727005004883 5.161131381988525
11.545981407165527 -3.8546276092529297 2.1289501190185547
25.543256759643555 -6.295876502990723 4.601198673248291
-4.573896408081055 -5.601993083953857 1.1824438571929932
1.0347216129302979 -25.67694091796875 4.201593399047852
5.236386775970459 -25.649572372436523 4.28021240234375
7.377138614654541 -25.468910217285156 4.335341930389404
11.536865234375 -4.915411472320557 2.0503556728363037
25.13974952697754 -8.392900466918945 4.333370208740234
26.266536712646484 -6.47415018081665 4.423117637634277
26.89787483215332 -4.371348857879639 4.455510139465332
28.85581398010254 -2.329490900039673 4.733283519744873
-7.365331649780273 -25.427997589111328 4.027705192565918
-3.0889647006988525 -25.439863204956055 3.8989195823669434
-1.0375243425369263 -25.74557113647461 3.920182466506958
25.742610931396484 -8.594157218933105 4.129049777984619
25.701351165771484 -6.334846019744873 4.027304172515869
-4.575722694396973 -5.604230880737305 1.0188506841659546
-5.238447189331055 -25.65953254699707 3.687991142272949
7.377148151397705 -25.468910217285156 3.7340495586395264
14.824110984802246 -25.676177978515625 4.175175666809082
26.032489776611328 -8.690932273864746 3.864888906478882
26.19685935974121 -6.456979751586914 3.799542188644409
29.1568546295166 -4.738475322723389 4.1598405838012695
-4.579482555389404 -5.608836650848389 0.9379806518554688
1.0377246141433716 -25.751333236694336 3.338517904281616
3.1274609565734863 -25.757125854492188 3.3610680103302
5.25955057144165 -25.76304054260254 3.40616512298584
9.775361061096191 -25.775577545166016 3.5710082054138184
26.496322631835938 -8.845778465270996 3.618541717529297
27.249135971069336 -2.1997876167297363 3.541321277618408
-4.583232402801514 -5.613437175750732 0.8572106957435608
-7.365331649780273 -25.42799949645996 3.1314549446105957
-3.0889549255371094 -25.43985939025879 3.0313236713409424
1.0377197265625 -25.751333236694336 3.048537015914917
3.1274707317352295 -25.757125854492188 3.069127082824707
7.377148151397705 -25.468908309936523 3.136492967605591
12.091322898864746 -25.481996536254883 3.3363261222839355
27.793354034423828 -9.278793334960938 3.465984344482422
26.604686737060547 -6.557497501373291 3.2411913871765137
26.11433982849121 -4.244013786315918 3.1295323371887207
27.686176300048828 -2.235069513320923 3.285587787628174
-4.585888385772705 -5.616688251495361 0.7763332724571228
-5.238456726074219 -25.65953254699707 2.8039073944091797
-3.0889549255371094 -25.439863204956055 2.7437310218811035
5.259545803070068 -25.76304054260254 2.815220832824707
7.377148151397705 -25.468908309936523 2.838923215866089
9.775361061096191 -25.775577545166016 2.9514665603637695
26.89363670349121 -6.628715515136719 2.965549945831299
-7.365331649780273 -25.42799949645996 2.5379772186279297
-3.0889647006988525 -25.43985939025879 2.456822156906128
7.377148151397705 -25.468908309936523 2.542060136795044
14.889697074890137 -25.789762496948242 2.85494327545166
27.183528900146484 -4.417773246765137 2.6402666568756104
-7.364003658294678 -25.42336654663086 2.241811990737915
-3.0883984565734863 -25.43523597717285 2.1701292991638184
1.0254442691802979 -25.446645736694336 2.157021999359131
7.375810146331787 -25.464269638061523 2.245418071746826
12.05028247833252 -25.395544052124023 2.380809783935547
-4.586064338684082 -5.616901874542236 0.5333102345466614
-7.363994121551514 -25.42336654663086 1.9466650485992432
-5.191464900970459 -25.42939567565918 1.9088265895843506
7.375805377960205 -25.464269638061523 1.9497966766357422
9.659696578979492 -25.470609664916992 2.003473997116089
14.713544845581055 -25.484636306762695 2.1642699241638184
-3.0641307830810547 -25.235301971435547 1.5866039991378784
-1.0171923637390137 -25.240976333618164 1.576668620109558
1.0173876285552979 -25.246618270874023 1.5770211219787598
3.066166877746582 -25.252302169799805 1.5876727104187012
7.375810146331787 -25.464269638061523 1.6546560525894165
9.65969181060791 -25.470609664916992 1.7002078294754028
12.089130401611328 -25.477352142333984 1.7600778341293335
14.71352481842041 -25.484636306762695 1.8366634845733643
-4.586191177368164 -5.617042064666748 0.3719766139984131
-7.3603515625 -25.410831451416016 1.3570687770843506
-3.088388681411743 -25.43523597717285 1.3143236637115479
-1.0252490043640137 -25.440954208374023 1.306093692779541
9.619853019714355 -25.36549186706543 1.3915941715240479
14.59788990020752 -25.284313201904297 1.4976458549499512
-7.363994121551514 -25.42336654663086 1.0638128519058228
-5.191464900970459 -25.429393768310547 1.0431346893310547
-3.0883984565734863 -25.43523406982422 1.0297967195510864
5.197319030761719 -25.45822525024414 1.0443172454833984
7.375805377960205 -25.464269638061523 1.0655242204666138
9.659696578979492 -25.470611572265625 1.0948578119277954
12.089125633239746 -25.477352142333984 1.1334105730056763
-7.363994121551514 -25.42336654663086 0.7701495289802551
-3.088388681411743 -25.435232162475586 0.7455236911773682
-1.0252490043640137 -25.44095802307129 0.7408553957939148
1.0254442691802979 -25.446651458740234 0.7410213947296143
12.089125633239746 -25.477352142333984 0.8205367922782898
3.1107373237609863 -25.619367599487305 0.46477386355400085
5.231420993804932 -25.62526512145996 0.47101011872291565
9.723075866699219 -25.63771629333496 0.493804931640625
14.791610717773438 -25.619848251342773 0.5327715873718262
-10.21133804321289 -6.457245826721191 0.08367675542831421
-3.1055078506469727 -25.57615089416504 0.17843963205814362
-1.0319775342941284 -25.60787010192871 0.17750243842601776
1.0321630239486694 -25.61360740661621 0.17754210531711578
3.1107373237609863 -25.619367599487305 0.17874114215373993
5.231420993804932 -25.625255584716797 0.1811395287513733
9.723075866699219 -25.63771629333496 0.18990600109100342
14.810077667236328 -25.65183448791504 0.20514708757400513
-10.21133804321289 -6.457245826721191 -0.050207365304231644
-4.596601486206055 -5.62980842590332 -0.030202483758330345
-5.213720798492432 -25.53836441040039 -0.10831786692142487
-3.101630687713623 -25.544227600097656 -0.10693282634019852
5.224892616271973 -25.59329605102539 -0.10855071991682053
12.089125633239746 -25.477352142333984 -0.1171899363398552
14.791610717773438 -25.619848251342773 -0.12293792515993118
-10.211347579956055 -6.457245826721191 -0.1841026246547699
-5.220234394073486 -25.57028579711914 -0.3976808190345764
-3.105517625808716 -25.57615089416504 -0.3925958275794983
-1.0319628715515137 -25.607877731323242 -0.39053359627723694
3.1107373237609863 -25.61937141418457 -0.3932594358921051
12.089125633239746 -25.477352142333984 -0.4297167956829071
14.810077667236328 -25.65183448791504 -0.4513570964336395
9.741347312927246 -6.160085201263428 -0.17562910914421082
-10.21133804321289 -6.457245826721191 -0.318043053150177
-3.105517625808716 -25.57615089416504 -0.6782218813896179
1.0321727991104126 -25.61360740661621 -0.6748101711273193
12.089125633239746 -25.477352142333984 -0.7423492074012756
9.706937789916992 -6.138325214385986 -0.3023339807987213
-5.220234394073486 -25.57028579711914 -0.976506769657135
-3.1055078506469727 -25.57615089416504 -0.9640203714370728
-1.0319726467132568 -25.607872009277344 -0.9589563012123108
5.231420993804932 -25.62526512145996 -0.9786062240600586
9.6652193069458 -6.111928462982178 -0.4278884828090668
-4.612656116485596 -5.649458885192871 -0.3538673222064972
-6.841073989868164 -23.61806869506836 -1.1930373907089233
3.1107420921325684 -25.61937141418457 -1.252165675163269
5.231420993804932 -25.62526512145996 -1.2689669132232666
7.424199104309082 -25.63134002685547 -1.2947351932525635
4.814272403717041 -10.145875930786133 -0.544879138469696
6.62075662612915 -9.591840744018555 -0.5654908418655396
9.6282958984375 -6.088579177856445 -0.5527265667915344
-6.832089900970459 -23.58704376220703 -1.4643917083740234
-5.220234394073486 -25.57028579711914 -1.5562939643859863
-1.0252490043640137 -25.440963745117188 -1.5183616876602173
1.0254442691802979 -25.446657180786133 -1.518701195716858
3.090463876724243 -25.452377319335938 -1.5289584398269653
5.197324275970459 -25.45822525024414 -1.5494729280471802
5.509770393371582 -9.543231964111328 -0.657133936882019
6.587568283081055 -9.543757438659668 -0.6915395855903625
9.592460632324219 -6.065922737121582 -0.6768078207969666
-6.837968826293945 -23.607351303100586 -1.7391700744628906
-1.0252392292022705 -25.440963745117188 -1.8017163276672363
1.0254393815994263 -25.446657180786133 -1.8021188974380493
5.197324275970459 -25.45822525024414 -1.8386338949203491
4.161337852478027 -10.972556114196777 -0.8304013013839722
4.5260009765625 -9.53835391998291 -0.7470839023590088
5.485385417938232 -9.500988960266113 -0.7763157486915588
6.554887771606445 -9.496408462524414 -0.8165228366851807
9.556708335876465 -6.043315410614014 -0.800119161605835
-4.622656345367432 -5.661719799041748 -0.5986790060997009
-14.33072280883789 -24.821502685546875 -2.347599983215332
-12.28685474395752 -25.894088745117188 -2.347599983215332
-10.163496017456055 -26.798828125 -2.347599983215332
-1.0252490043640137 -25.440963745117188 -2.0855112075805664
3.090458869934082 -25.452377319335938 -2.100066661834717
7.375805377960205 -25.464269638061523 -2.171468496322632
5.461323261260986 -9.459333419799805 -0.8946558833122253
6.522524356842041 -9.449530601501465 -0.9404739141464233
19.854389190673828 -20.670654296875 -2.347599983215332
9.530531883239746 -6.026760101318359 -0.9236140251159668
28.481801986694336 -4.628754615783691 -2.3634986877441406
-26.860164642333984 8.544921911379788e-06 -2.5
-26.773075103759766 -2.1613402366638184 -2.5
-26.512332916259766 -4.308676719665527 -2.5
-26.079627990722656 -6.4280686378479 -2.5
-24.710790634155273 -10.528276443481445 -2.5
-22.701913833618164 -14.355839729309082 -2.5
-21.473182678222656 -16.136016845703125 -2.5
-18.606698989868164 -19.371599197387695 -2.5
-4.625800609588623 -5.665565013885498 -0.6807597279548645
-12.611376762390137 -21.843544006347656 -2.347599983215332
-8.944130897521973 -23.583681106567383 -2.347599983215332
-5.045224666595459 -24.713016510009766 -2.347599983215332
-3.040273427963257 -25.038856506347656 -2.347599983215332
1.0155956745147705 -25.202301025390625 -2.347599983215332
5.045175552368164 -24.71302032470703 -2.347599983215332
3.8194432258605957 -10.07106876373291 -1.0025078058242798
4.484853267669678 -9.451642990112305 -0.9737205505371094
5.437734127044678 -9.418463706970215 -1.0122339725494385
17.837440490722656 -18.57076644897461 -2.39664626121521
21.4731388092041 -16.136028289794922 -2.5
9.519584655761719 -6.019841194152832 -1.0483250617980957
23.78348159790039 -12.482531547546387 -2.5
24.710765838623047 -10.528278350830078 -2.5
22.12430191040039 -7.386186122894287 -2.170938014984131
20.003334045410156 -4.93040132522583 -1.9175273180007935
26.512304306030273 -4.308680534362793 -2.5
-23.899843215942383 -1.929390788078308 -2.5
-23.6671085357666 -3.846285343170166 -2.5
-23.28084945678711 -5.738227367401123 -2.5
-22.743602752685547 -7.592934608459473 -2.5
-22.058856964111328 -9.398398399353027 -2.5
-20.265644073486328 -12.81521224975586 -2.5
-19.168729782104492 -14.404350280761719 -2.5
-16.609872817993164 -17.292692184448242 -2.5
-4.630732536315918 -5.671597957611084 -0.763412594795227
-13.620820045471191 -19.733165740966797 -2.5
-7.984277248382568 -21.052745819091797 -2.347599983215332
-6.264326095581055 -21.626943588256836 -2.347599983215332
-4.503769397735596 -22.060894012451172 -2.347599983215332
2.7139744758605957 -22.351749420166016 -2.347599983215332
4.503759860992432 -22.06088638305664 -2.347599983215332
3.039907217025757 -10.49501895904541 -1.1392312049865723
3.737499952316284 -9.855002403259277 -1.0989344120025635
4.464497089385986 -9.4087495803833 -1.0858302116394043
6.459150314331055 -9.357709884643555 -1.1855307817459106
16.609832763671875 -17.292709350585938 -2.5
21.42647933959961 -7.153215408325195 -2.355220079421997
20.28951072692871 -5.000938415527344 -2.1787800788879395
23.899808883666992 -1.9293920993804932 -2.5
-21.019832611083984 -5.180932521820068 -2.5
-19.169139862060547 -10.060736656188965 -2.5
-17.30706024169922 -13.005399703979492 -2.5
-14.996718406677246 -15.613224983215332 -2.5
-4.636376857757568 -5.67851448059082 -0.8465621471405029
-12.297978401184082 -17.81668472290039 -2.5
-8.889697074890137 -18.73462677001953 -2.394667387008667
-5.655937194824219 -19.526535034179688 -2.347599983215332
-2.4504101276397705 -20.180952072143555 -2.347599983215332
2.4504003524780273 -20.18095588684082 -2.347599983215332
3.586557626724243 -9.456987380981445 -1.1679868698120117
4.444282054901123 -9.3661470413208 -1.1971838474273682
5.391000747680664 -9.33752155303955 -1.2451035976409912
6.435019493103027 -9.322749137878418 -1.3081481456756592
16.20439910888672 -14.355878829956055 -2.5
17.307035446166992 -13.005407333374023 -2.5
19.16913604736328 -10.060739517211914 -2.5
19.802490234375 -4.880896091461182 -2.355220079421997
-17.46826171875 -9.168044090270996 -2.5
-16.67389678955078 -10.543932914733887 -2.5
-15.771395683288574 -11.851425170898438 -2.5
-14.7666015625 -13.082077026367188 -2.5
-4.645273208618164 -5.689423561096191 -0.9307757616043091
-11.206796646118164 -16.235803604125977 -2.5
-9.864013671875 -17.084928512573242 -2.5
-6.981210708618164 -18.40790557861328 -2.494840145111084
-3.7910544872283936 -18.56981086730957 -2.4017715454101562
-0.7486913800239563 -18.5782470703125 -2.3562135696411133
0.7486474514007568 -18.578248977661133 -2.356213331222534
2.708193302154541 -13.265644073486328 -1.7157446146011353
2.7827000617980957 -9.607026100158691 -1.267479658126831
3.550048828125 -9.360739707946777 -1.2686691284179688
4.424199104309082 -9.32381820678711 -1.3078163862228394
5.37075662612915 -9.30245590209961 -1.361208200454712
6.424306392669678 -9.307233810424805 -1.4331334829330444
12.476855278015137 -15.28139877319336 -2.5
13.666029930114746 -14.227872848510742 -2.5
14.766581535339355 -13.082079887390137 -2.5
9.474658012390137 -5.991430759429932 -1.420585036277771
19.66399383544922 -1.5874462127685547 -2.5
-18.1160831451416 4.882812390860636e-06 -2.5
-16.04097557067871 -8.418937683105469 -2.5
-14.48275375366211 -10.883069038391113 -2.5
-10.291112899780273 -14.909213066101074 -2.5
-6.424052715301514 -16.93880271911621 -2.5
-5.040205001831055 -17.400794982910156 -2.5
-2.183657169342041 -17.983957290649414 -2.5
-0.7294726371765137 -18.101348876953125 -2.5
0.7294384837150574 -18.101354598999023 -2.5
2.667167901992798 -13.06469440460205 -1.840104341506958
3.527597665786743 -9.301535606384277 -1.3728142976760864
4.414721488952637 -9.303842544555664 -1.4211318492889404
5.370292663574219 -9.301645278930664 -1.4821962118148804
6.743515491485596 -9.769684791564941 -1.638195276260376
11.457392692565918 -14.032785415649414 -2.5
13.560038566589355 -12.01317310333252 -2.5
14.482738494873047 -10.883075714111328 -2.5
15.114785194396973 -7.932861328125 -2.3556571006774902
15.70119571685791 -6.689653396606445 -2.355220079421997
16.188573837280273 -5.404541015625 -2.355220079421997
17.589618682861328 -4.335464954376221 -2.5
17.881444931030273 -2.9060277938842773 -2.5
18.05730438232422 -1.457739233970642 -2.5
-16.743778228759766 4.882812390860636e-06 -2.5
-15.882080078125 -5.302206993103027 -2.5
-13.385663986206055 -10.058676719665527 -2.5
-12.53287124633789 -11.103161811828613 -2.5
-4.666698932647705 -5.715649127960205 -1.101722240447998
-9.51156234741211 -13.77983570098877 -2.5
-5.937431335449219 -15.655675888061523 -2.5
-4.658417701721191 -16.082672119140625 -2.5
-3.349189281463623 -16.405370712280273 -2.5
2.0182225704193115 -16.62166976928711 -2.5
3.5230908393859863 -9.289648056030273 -1.4834308624267578
6.400727272033691 -9.273076057434082 -1.6823627948760986
10.589487075805664 -12.969804763793945 -2.5
12.532865524291992 -11.103168487548828 -2.5
13.385668754577637 -10.058683395385742 -2.5
9.437539100646973 -5.967961311340332 -1.6672183275222778
14.511820793151855 -6.182905197143555 -2.355220079421997
14.9622802734375 -4.995151042938232 -2.355220079421997
16.52690887451172 -2.6858935356140137 -2.5
-15.510634422302246 -1.2521460056304932 -2.5
-15.108915328979492 -3.7240209579467773 -2.5
-14.315868377685547 -6.099416255950928 -2.5
-13.77865219116211 -7.231591701507568 -2.5
-10.0435152053833 -6.351115703582764 -1.9091068506240845
-10.779560089111328 -11.222684860229492 -2.5
-8.839735984802246 -12.806523323059082 -2.5
-7.78054666519165 -13.476293563842773 -2.5
-6.67092752456665 -14.058669090270996 -2.5
-5.518046855926514 -14.54986572265625 -2.5
-4.329365253448486 -14.946701049804688 -2.5
-3.112617015838623 -15.24660587310791 -2.5
0.6265575885772705 -15.548471450805664 -2.5
1.8756639957427979 -15.4476318359375 -2.5
2.707221508026123 -9.346454620361328 -1.5632967948913574
6.400727272033691 -9.273076057434082 -1.8102251291275024
9.841513633728027 -12.053695678710938 -2.5
7.194672584533691 -7.490483283996582 -1.668599247932434
11.64761734008789 -10.318918228149414 -2.5
12.440190315246582 -9.3482027053833 -2.5
12.980697631835938 -6.81279993057251 -2.355220079421997
11.506366729736328 -4.902409553527832 -2.009373664855957
13.905458450317383 -4.642323017120361 -2.355220079421997
15.108881950378418 -3.724022150039673 -2.5
-14.531054496765137 3.662109293145477e-06 -2.5
-14.4839448928833 -1.1692626476287842 -2.5
-14.342880249023438 -2.3309483528137207 -2.5
-14.108808517456055 -3.4775171279907227 -2.5
-13.368281364440918 -5.6956787109375 -2.5
-12.866591453552246 -6.752910137176514 -2.5
-10.876669883728027 -9.635873794555664 -2.5
-4.670878887176514 -5.720781326293945 -1.2706260681152344
-8.254599571228027 -11.958818435668945 -2.5
-7.265536785125732 -12.58425521850586 -2.5
-1.7515331506729126 -14.425102233886719 -2.5
2.906572103500366 -14.237387657165527 -2.5
3.5168066024780273 -9.273076057434082 -1.7062702178955078
4.415029048919678 -9.304489135742188 -1.7718671560287476
5.374843597412109 -9.309538841247559 -1.8494410514831543
9.19008731842041 -11.25582504272461 -2.5
10.876626014709473 -9.635876655578613 -2.5
9.000722885131836 -6.763661861419678 -1.9370174407958984
10.301220893859863 -5.406516075134277 -2.0015475749969482
13.78322696685791 -4.60151481628418 -2.5
14.108793258666992 -3.477518320083618 -2.5
14.342875480651855 -2.330950975418091 -2.5
-13.625673294067383 3.662109293145477e-06 -2.5
-13.581483840942383 -1.096408724784851 -2.5
-13.449228286743164 -2.18571400642395 -2.5
-12.064921379089355 -6.332158088684082 -2.5
-10.003934860229492 -6.326086521148682 -2.171687364578247
-10.198984146118164 -9.03548526763916 -2.5
-9.438847541809082 -9.82686710357666 -2.5
-4.673710823059082 -5.724247932434082 -1.3558765649795532
-7.740283012390137 -11.213698387145996 -2.5
-6.812851428985596 -11.8001708984375 -2.5
-5.841230392456055 -12.310114860534668 -2.5
-4.831728458404541 -12.740226745605469 -2.5
-3.790908098220825 -13.0877046585083 -2.5
-2.7254881858825684 -13.350297927856445 -2.5
-1.6424071788787842 -13.526317596435547 -2.5
1.6423778533935547 -13.526317596435547 -2.5
2.7254834175109863 -13.350297927856445 -2.5
2.696889638900757 -9.310791015625 -1.7785382270812988
6.400732040405273 -9.273076057434082 -2.0673534870147705
8.617480278015137 -10.554516792297363 -2.5
7.194672584533691 -7.490478515625 -1.905609369277954
10.301220893859863 -5.406516075134277 -2.1345436573028564
13.229721069335938 -3.2608447074890137 -2.5
13.44920825958252 -2.185716390609741 -2.5
13.581474304199219 -1.096411108970642 -2.5
-12.823447227478027 2.441406195430318e-06 -2.5
-12.781865119934082 -1.031854271888733 -2.5
-12.65738296508789 -2.057023763656616 -2.5
-12.450819969177246 -3.0688536167144775 -2.5
-10.697060585021973 -5.614230632781982 -2.355220079421997
-9.958505630493164 -6.297360897064209 -2.297069549560547
-9.657929420471191 -7.257451057434082 -2.355220079421997
-8.883134841918945 -9.248295783996582 -2.5
-4.681376934051514 -5.733625411987305 -1.443058729171753
-2.565019369125366 -12.564291954040527 -2.5
-1.5457079410552979 -12.72995376586914 -2.5
0.5163232088088989 -12.8130464553833 -2.5
2.565004825592041 -12.564291954040527 -2.5
3.516801595687866 -9.273076057434082 -1.9334814548492432
6.400732040405273 -9.273076057434082 -2.196685314178467
9.015341758728027 -6.774606704711914 -2.198521614074707
8.992846488952637 -5.686755180358887 -2.0743353366851807
10.195961952209473 -5.3512864112854 -2.2449073791503906
12.4508056640625 -3.068857431411743 -2.5
12.657377243041992 -2.0570287704467773 -2.5
-11.484453201293945 -3.8340611457824707 -2.5
-11.138671875 -4.745741844177246 -2.5
-10.099833488464355 -5.300783634185791 -2.355220079421997
-9.640546798706055 -6.096296310424805 -2.355220079421997
-8.387187004089355 -8.73195743560791 -2.5
-4.693105220794678 -5.747990608215332 -1.5322186946868896
-6.877851486206055 -9.964282035827637 -2.5
-4.293378829956055 -11.32071304321289 -2.5
-3.3685154914855957 -11.62947940826416 -2.5
-1.4594188928604126 -12.019232749938965 -2.5
2.703994035720825 -9.335314750671387 -2.0068211555480957
4.411982536315918 -9.298080444335938 -2.1250739097595215
8.537763595581055 -7.563806056976318 -2.355220079421997
10.0997896194458 -5.300792217254639 -2.355220079421997
11.48439884185791 -3.8340587615966797 -2.5
11.755668640136719 -2.897526741027832 -2.5
12.068232536315918 -0.9742480516433716 -2.5
-11.316093444824219 -1.8390368223190308 -2.5
-10.547147750854492 -4.493702411651611 -2.5
-9.563467025756836 -5.019279479980469 -2.355220079421997
-7.676552772521973 -5.768542289733887 -2.0939314365386963
-8.084364891052246 -7.162111759185791 -2.355220079421997
-7.481835842132568 -7.789401531219482 -2.355220079421997
-4.914755821228027 -10.357617378234863 -2.5
-3.1896190643310547 -11.01186466217041 -2.5
-2.293212890625 -11.232816696166992 -2.5
-0.4616406261920929 -11.455214500427246 -2.5
0.4616064429283142 -11.455212593078613 -2.5
2.2931785583496094 -11.232819557189941 -2.5
3.516801595687866 -9.273076057434082 -2.162663459777832
4.914721488952637 -10.357622146606445 -2.5
5.732231140136719 -9.92856216430664 -2.5
7.250663757324219 -8.88046646118164 -2.5
7.194672584533691 -7.490478515625 -2.2648332118988037
8.084341049194336 -7.162114143371582 -2.355220079421997
8.634438514709473 -6.488364219665527 -2.355220079421997
9.56344223022461 -5.019282341003418 -2.355220079421997
11.316035270690918 -1.8390405178070068 -2.5
-10.883740425109863 2.441406195430318e-06 -2.5
-10.742793083190918 -1.7458691596984863 -2.5
-10.567461013793945 -2.6046483516693115 -2.5
-10.323613166809082 -3.446514844894409 -2.5
-10.012802124023438 -4.266042232513428 -2.5
-7.684765338897705 -5.774711608886719 -2.208033800125122
-7.674785137176514 -6.799264907836914 -2.355220079421997
-7.102792739868164 -7.394780158996582 -2.355220079421997
-6.182656288146973 -8.957104682922363 -2.5
-3.8594043254852295 -10.176443099975586 -2.5
-3.0280370712280273 -10.453989028930664 -2.5
-2.1770312786102295 -10.663749694824219 -2.5
0.43821775913238525 -10.87487506866455 -2.5
2.177011728286743 -10.663749694824219 -2.5
3.028017520904541 -10.453989028930664 -2.5
4.665747165679932 -9.832887649536133 -2.5
6.182626724243164 -8.957109451293945 -2.5
7.102768421173096 -7.394787311553955 -2.355220079421997
5.437788009643555 -4.817482948303223 -1.6687418222427368
8.666069030761719 -5.480091571807861 -2.355220079421997
10.012763023376465 -4.266042232513428 -2.5
10.567421913146973 -2.6046459674835205 -2.5
10.848393440246582 -0.8757714629173279 -2.5
-10.356386184692383 1.586914004292339e-05 -2.5
-10.322802543640137 -0.8333373665809631 -2.5
-10.222274780273438 -1.6612805128097534 -2.5
-10.055438995361328 -2.478440999984741 -2.5
-9.527666091918945 -4.059343338012695 -2.5
-8.246191024780273 -5.214570045471191 -2.355220079421997
-7.746874809265137 -5.821383953094482 -2.339221477508545
-7.302909851074219 -6.4698166847229 -2.355220079421997
-4.439687252044678 -9.356450080871582 -2.5
-2.8813085556030273 -9.947463035583496 -2.5
-0.8970947265625 -7.388149261474609 -1.7965806722640991
-0.4170214831829071 -10.347953796386719 -2.5
0.4169872999191284 -10.347956657409668 -2.5
2.071523427963257 -10.14706039428711 -2.5
2.881303548812866 -9.947465896606445 -2.5
3.5168066024780273 -9.273076057434082 -2.394075632095337
3.530229330062866 -7.439850807189941 -1.9878917932510376
6.170497894287109 -7.557509422302246 -2.355220079421997
5.437788009643555 -4.817482948303223 -1.7537155151367188
9.527626991271973 -4.059344291687012 -2.5
-9.747441291809082 -1.584112524986267 -2.5
-9.367109298706055 -3.127189874649048 -2.5
-9.085087776184082 -3.8707847595214844 -2.5
-7.863163948059082 -4.972352027893066 -2.355220079421997
-6.963710784912109 -6.169289588928223 -2.355220079421997
-4.25732421875 -6.16778039932251 -1.8972582817077637
-4.24462890625 -7.351903915405273 -2.149111032485962
-0.3976415991783142 -9.867289543151855 -2.5
0.3976123034954071 -9.867289543151855 -2.5
1.1903173923492432 -9.803296089172363 -2.5
4.233451843261719 -8.92184066772461 -2.5
5.284912109375 -7.65654993057251 -2.355220079421997
5.437792778015137 -4.817481517791748 -1.8391441106796265
7.437524318695068 -5.588943958282471 -2.355220079421997
7.863134384155273 -4.972355842590332 -2.355220079421997
9.085067749023438 -3.87078595161438 -2.5
9.367074966430664 -3.127189874649048 -2.5
9.588335037231445 -2.363321542739868 -2.5
9.843252182006836 -0.7946301102638245 -2.5
-9.4346284866333 6.103515261202119e-06 -2.5
-9.404032707214355 -0.7591626048088074 -2.5
-9.312460899353027 -1.5134167671203613 -2.5
-9.160468101501465 -2.2578489780426025 -2.5
-8.353944778442383 -4.384472370147705 -2.5
-7.512246131896973 -4.750453948974609 -2.355220079421997
-5.027802467346191 -5.234487056732178 -1.923237919807434
-4.733242034912109 -5.797160625457764 -1.9831303358078003
-4.27273416519165 -6.190107345581055 -1.9930739402770996
-3.3455467224121094 -8.821501731872559 -2.5
-1.5168554782867432 -7.429963111877441 -2.0094149112701416
-0.3799072206020355 -9.426947593688965 -2.5
0.37986814975738525 -9.426947593688965 -2.5
1.887148380279541 -9.243932723999023 -2.5
2.6248583793640137 -9.062102317810059 -2.5
3.3455419540405273 -8.82149887084961 -2.5
5.621298789978027 -6.884860515594482 -2.355220079421997
7.105605125427246 -5.339530944824219 -2.355220079421997
8.949057579040527 -2.9876317977905273 -2.5
9.404004096984863 -0.759167492389679 -2.5
-9.000019073486328 -0.7265527248382568 -2.5
-8.766923904418945 -2.160850763320923 -2.5
-8.564619064331055 -2.859283447265625 -2.5
-7.310615062713623 -4.622942924499512 -2.394890785217285
-6.800380706787109 -5.110138893127441 -2.355220079421997
-4.682431697845459 -4.874932765960693 -1.8715370893478394
-4.734072208404541 -5.798171043395996 -2.0725133419036865
-4.27273416519165 -6.190107345581055 -2.0825421810150146
-3.0163965225219727 -7.953596115112305 -2.355220079421997
-2.512089729309082 -8.672780990600586 -2.5
-0.8970947265625 -7.388149261474609 -2.06063175201416
-0.36357420682907104 -9.021952629089355 -2.5
1.088344693183899 -8.963444709777832 -2.5
1.8060741424560547 -8.846796989440918 -2.5
3.0163867473602295 -7.953603267669678 -2.355220079421997
2.986396312713623 -6.293718338012695 -1.92881178855896
4.253178596496582 -7.366735458374023 -2.355220079421997
5.379804611206055 -6.5890793800354 -2.355220079421997
7.310585975646973 -4.622941970825195 -2.3948898315429688
7.995019435882568 -4.196113109588623 -2.5
8.7669038772583 -2.160853147506714 -2.5
8.999990463256836 -0.7265527248382568 -2.5
-8.65517520904541 3.662109293145477e-06 -2.5
-8.62710952758789 -0.6964465379714966 -2.5
-8.403671264648438 -2.071317195892334 -2.5
-8.209746360778809 -2.740809202194214 -2.5
-7.962577819824219 -3.392526865005493 -2.5
-7.663779258728027 -4.022248268127441 -2.5
-7.283066272735596 -4.60551643371582 -2.4889934062957764
-6.518613338470459 -4.898398399353027 -2.355220079421997
-5.027802467346191 -5.234487056732178 -2.096437454223633
-4.27273416519165 -6.190104961395264 -2.1725621223449707
-4.076952934265137 -7.061493873596191 -2.355220079421997
-2.891406297683716 -7.624045372009277 -2.355220079421997
-1.6310057640075684 -7.98913049697876 -2.355220079421997
-0.3485156297683716 -8.648127555847168 -2.5
0.3485204875469208 -8.648127555847168 -2.5
1.043247103691101 -8.592041015625 -2.5
1.6309814453125 -7.98913049697876 -2.355220079421997
2.8914012908935547 -7.624045372009277 -2.355220079421997
2.981923818588257 -6.284299373626709 -2.009176254272461
5.648393630981445 -5.880624771118164 -2.355220079421997
6.518568992614746 -4.898402214050293 -2.355220079421997
8.209721565246582 -2.740809202194214 -2.5
8.403637886047363 -2.0713183879852295 -2.5
8.543061256408691 -1.3883862495422363 -2.5
8.627079963684082 -0.6964489817619324 -2.5
-8.281747817993164 -0.6685656309127808 -2.5
-7.881103515625 -2.6310925483703613 -2.5
-7.64382791519165 -3.2567198276519775 -2.5
-7.356982231140137 -3.8612353801727295 -2.5
-7.022431373596191 -4.44070291519165 -2.5
-6.257666110992432 -4.702311992645264 -2.355220079421997
-5.844716548919678 -5.177950382232666 -2.3494789600372314
-5.027802467346191 -5.234487056732178 -2.183858871459961
-4.274013519287109 -5.234713077545166 -2.0333874225616455
-2.772773265838623 -4.802587985992432 -1.6686022281646729
-3.355585813522339 -7.071762561798096 -2.355220079421997
-2.7756640911102295 -7.31884241104126 -2.355220079421997
-1.5657176971435547 -7.669316291809082 -2.355220079421997
-0.8970947265625 -7.3881516456604 -2.239349126815796
2.7756590843200684 -7.318845272064209 -2.355220079421997
2.979570150375366 -6.279328346252441 -2.091304063796997
4.446523189544678 -6.441906452178955 -2.355220079421997
4.950444221496582 -6.063217639923096 -2.355220079421997
6.257627010345459 -4.702310562133789 -2.355220079421997
7.022402286529541 -4.440704345703125 -2.5
7.643803596496582 -3.256718635559082 -2.5
7.881073951721191 -2.631091356277466 -2.5
8.201064109802246 -1.3328088521957397 -2.5
-7.9609375 -0.642669677734375 -2.5
-7.57580041885376 -2.5291662216186523 -2.5
-7.347714900970459 -3.130558967590332 -2.5
-7.071991920471191 -3.7116575241088867 -2.5
-4.959482192993164 -5.163349628448486 -2.2409911155700684
-3.986523389816284 -4.882613182067871 -1.973050832748413
-3.2255859375 -6.797814846038818 -2.355220079421997
-1.5050585269927979 -7.372214317321777 -2.355220079421997
0.3029443323612213 -7.518180847167969 -2.355220079421997
0.9069335460662842 -7.469419002532959 -2.355220079421997
1.50503408908844 -7.372216701507568 -2.355220079421997
2.093374013900757 -7.227204322814941 -2.355220079421997
2.6681346893310547 -7.035326957702637 -2.355220079421997
2.9771971702575684 -6.274335861206055 -2.173851251602173
3.7621335983276367 -6.516213417053223 -2.355220079421997
4.274277210235596 -6.192358493804932 -2.355220079421997
4.758691310882568 -5.828347206115723 -2.355220079421997
5.212226390838623 -5.426530838012695 -2.355220079421997
7.347695350646973 -3.130558967590332 -2.5
7.575771331787109 -2.5291662216186523 -2.5
7.960903167724609 -0.6426672339439392 -2.5
-7.58743143081665 -1.2330774068832397 -2.5
-7.463613033294678 -1.8396117687225342 -2.5
-6.806484222412109 -3.572308301925659 -2.5
-6.496953010559082 -4.108416557312012 -2.5
-3.104501962661743 -6.542600154876709 -2.355220079421997
-2.5679588317871094 -6.771191120147705 -2.355220079421997
-2.0148143768310547 -6.95587158203125 -2.355220079421997
-1.4485546350479126 -7.095439434051514 -2.355220079421997
-0.8729150295257568 -7.18899393081665 -2.355220079421997
-0.2916015684604645 -7.235925197601318 -2.355220079421997
0.2915722727775574 -7.235922813415527 -2.355220079421997
1.448525309562683 -7.095444202423096 -2.355220079421997
2.014780282974243 -6.955873966217041 -2.355220079421997
2.5679588317871094 -6.771196365356445 -2.355220079421997
2.9748144149780273 -6.269311428070068 -2.256840705871582
3.6208887100219727 -6.271576881408691 -2.355220079421997
4.113803386688232 -5.959875583648682 -2.355220079421997
6.806455135345459 -3.572308301925659 -2.5
7.587411880493164 -1.2330774068832397 -2.5
-7.025712966918945 -2.345517635345459 -2.5
-6.814179420471191 -2.9032397270202637 -2.5
-6.55846643447876 -3.4421422481536865 -2.5
-3.37548828125 -4.890233039855957 -2.0055956840515137
-2.772773265838623 -4.802587985992432 -1.8717586994171143
-2.9913768768310547 -6.304206371307373 -2.355220079421997
-2.4744043350219727 -6.52446985244751 -2.355220079421997
-1.9413915872573853 -6.702419281005859 -2.355220079421997
-0.8411083817481995 -6.927045822143555 -2.355220079421997
0.2809472680091858 -6.972265243530273 -2.355220079421997
1.395751953125 -6.836904048919678 -2.355220079421997
3.488955020904541 -6.043056488037109 -2.355220079421997
3.9639060497283936 -5.742719650268555 -2.355220079421997
4.413158893585205 -5.40513277053833 -2.355220079421997
5.229965686798096 -4.633368015289307 -2.358348846435547
6.260200023651123 -3.958721876144409 -2.5
6.558446884155273 -3.442143440246582 -2.5
6.814159870147705 -2.903247117996216 -2.5
7.025678634643555 -2.3455188274383545 -2.5
7.382846355438232 -0.5960021615028381 -2.5
-7.052080154418945 -1.1460741758346558 -2.5
-6.776914119720459 -2.262460947036743 -2.5
-6.572890281677246 -2.8004393577575684 -2.5
-6.326230525970459 -3.3202526569366455 -2.5
-6.038544654846191 -3.81853985786438 -2.5
-4.662617206573486 -4.854287147521973 -2.355220079421997
-4.220390319824219 -5.169025897979736 -2.335022211074829
-2.386767625808716 -6.293427467346191 -2.355220079421997
-1.8726415634155273 -6.465080261230469 -2.355220079421997
-1.346352458000183 -6.594799518585205 -2.355220079421997
-0.8113183379173279 -6.681750297546387 -2.355220079421997
-0.2710253894329071 -6.725368499755859 -2.355220079421997
0.2710009813308716 -6.72537088394165 -2.355220079421997
0.588305652141571 -4.845339298248291 -1.7079110145568848
1.3463232517242432 -6.594799518585205 -2.355220079421997
1.872622013092041 -6.46508264541626 -2.355220079421997
2.386777400970459 -6.293432712554932 -2.355220079421997
2.885444164276123 -6.080966472625732 -2.355220079421997
3.365410089492798 -5.8290696144104 -2.355220079421997
3.823539972305298 -5.539361476898193 -2.355220079421997
4.256875038146973 -5.213737487792969 -2.355220079421997
4.662602424621582 -4.854292869567871 -2.355220079421997
5.71166467666626 -4.29205322265625 -2.5
6.038510799407959 -3.81853985786438 -2.5
6.572861194610596 -2.800438165664673 -2.5
6.936962604522705 -1.7098205089569092 -2.5
-6.898427486419678 3.662109293145477e-06 -2.5
-6.876054763793945 -0.5550891160964966 -2.5
-6.809091567993164 -1.1065832376480103 -2.5
-6.697968482971191 -1.6509008407592773 -2.5
-6.108261585235596 -3.205848217010498 -2.5
-5.830468654632568 -3.686965227127075 -2.5
-5.514892578125 -4.144161224365234 -2.5
-5.163535118103027 -4.574488639831543 -2.5
-2.772773265838623 -4.802587985992432 -2.009721279144287
-2.7860350608825684 -5.871440410614014 -2.355220079421997
-2.304560422897339 -6.076577186584473 -2.355220079421997
-0.7833642363548279 -6.451520919799805 -2.355220079421997
-0.2616894543170929 -6.493632793426514 -2.355220079421997
1.2999316453933716 -6.367563247680664 -2.355220079421997
4.501948356628418 -4.687033653259277 -2.355220079421997
5.514863014221191 -4.144161224365234 -2.5
6.108222484588623 -3.2058591842651367 -2.5
6.346376895904541 -2.703943967819214 -2.5
6.697939395904541 -1.6509045362472534 -2.5
6.809067249298096 -1.1065832376480103 -2.5
6.876029968261719 -0.5550891160964966 -2.5
-6.666855335235596 3.662109293145477e-06 -2.5
-6.645234107971191 -0.5364513993263245 -2.5
-6.580517292022705 -1.0694372653961182 -2.5
-6.473134517669678 -1.5954846143722534 -2.5
-6.323750019073486 -2.111173152923584 -2.5
-6.133368968963623 -2.613176107406616 -2.5
-4.990204811096191 -4.420928955078125 -2.5
-4.43896484375 -4.621452331542969 -2.4029321670532227
-3.567880868911743 -5.168954849243164 -2.355220079421997
-2.772773265838623 -4.802587985992432 -2.0795278549194336
-1.4151073694229126 -4.885458946228027 -1.9073036909103394
-1.256323218345642 -6.153815746307373 -2.355220079421997
-0.7570703029632568 -6.234951019287109 -2.355220079421997
0.588305652141571 -4.845337867736816 -1.830299735069275
1.2562987804412842 -6.153815746307373 -2.355220079421997
1.7473974227905273 -6.032768249511719 -2.355220079421997
2.227167844772339 -5.872602462768555 -2.355220079421997
3.567866086959839 -5.168957233428955 -2.355220079421997
4.438960075378418 -4.621453762054443 -2.402930736541748
6.133339881896973 -2.613177537918091 -2.5
6.323720455169678 -2.1111743450164795 -2.5
6.473100662231445 -1.595485806465149 -2.5
6.645209789276123 -0.5364550948143005 -2.5
-6.427665710449219 -0.5188915729522705 -2.5
-6.365068435668945 -1.0344226360321045 -2.5
-6.261191368103027 -1.5432469844818115 -2.5
-5.932558536529541 -2.5276196002960205 -2.5
-5.450273513793945 -3.446535587310791 -2.5
-5.155263423919678 -3.8739233016967773 -2.5
-4.42581033706665 -4.607753753662109 -2.476905584335327
-3.451064348220825 -4.999719142913818 -2.355220079421997
-1.69021475315094 -5.835253715515137 -2.355220079421997
-1.2151952981948853 -5.95233154296875 -2.355220079421997
-0.7322802543640137 -6.030812740325928 -2.355220079421997
-0.24462401866912842 -6.070180416107178 -2.355220079421997
0.1975439339876175 -4.902544021606445 -1.902177095413208
0.5883105397224426 -4.845340251922607 -1.8922547101974487
1.2151610851287842 -5.952333927154541 -2.355220079421997
2.154252767562866 -5.68032693862915 -2.355220079421997
2.6043357849121094 -5.488562107086182 -2.355220079421997
3.842167854309082 -4.705812931060791 -2.355220079421997
5.709902286529541 -2.996793031692505 -2.5
6.261157035827637 -1.5432469844818115 -2.5
6.365038871765137 -1.0344226360321045 -2.5
-6.161591529846191 -1.0013549327850342 -2.5
-6.06103515625 -1.4939135313034058 -2.5
-5.92117166519165 -1.9767712354660034 -2.5
-5.527392387390137 -2.9009971618652344 -2.5
-4.990468502044678 -3.750084161758423 -2.5
-4.672529220581055 -4.139485836029053 -2.5
-4.324286937713623 -4.5020432472229 -2.5
-3.7751660346984863 -4.623742580413818 -2.3905653953552246
-2.5210936069488525 -5.313108921051025 -2.355220079421997
-1.6361767053604126 -5.648714542388916 -2.355220079421997
0.9967138171195984 -4.882328987121582 -1.9956344366073608
1.41543447971344 -4.886721134185791 -2.0375072956085205
2.5210838317871094 -5.313111305236816 -2.355220079421997
3.3407275676727295 -4.839892387390137 -2.355220079421997
4.324267387390137 -4.502049446105957 -2.5
4.672504901885986 -4.139489650726318 -2.5
4.990434646606445 -3.7500853538513184 -2.5
5.276010513305664 -3.3363585472106934 -2.5
5.742880821228027 -2.4468164443969727 -2.5
5.921142578125 -1.9767712354660034 -2.5
-6.04739236831665 0.0 -2.5
-6.027773380279541 -0.4866125285625458 -2.5
-5.969072341918945 -0.9700671434402466 -2.5
-5.871660232543945 -1.4472362995147705 -2.5
-5.736162185668945 -1.9150060415267944 -2.5
-5.563466548919678 -2.370366096496582 -2.5
-5.111191272735596 -3.23211407661438 -2.5
-4.526523113250732 -4.010152339935303 -2.5
-4.189169883728027 -4.36137580871582 -2.5
-2.772773265838623 -4.802587985992432 -2.2925446033477783
-2.442324161529541 -5.147101879119873 -2.355220079421997
-2.020253896713257 -5.326932430267334 -2.355220079421997
-1.5850634574890137 -5.472221374511719 -2.355220079421997
-0.6867235898971558 -5.655618667602539 -2.355220079421997
-0.1974218636751175 -4.898862361907959 -2.026846170425415
0.2293749898672104 -5.69253396987915 -2.355220079421997
0.5883105397224426 -4.845341682434082 -2.017789125442505
2.020219564437866 -5.326938152313232 -2.355220079421997
2.442319393157959 -5.147104263305664 -2.355220079421997
2.84856915473938 -4.933882713317871 -2.355220079421997
3.2363524436950684 -4.688668251037598 -2.355220079421997
4.189150333404541 -4.361381530761719 -2.5
4.834531307220459 -3.632913827896118 -2.5
5.111156940460205 -3.2321178913116455 -2.5
5.354667663574219 -2.810353994369507 -2.5
5.871625900268555 -1.4472362995147705 -2.5
-5.862529277801514 3.662109293145477e-06 -2.5
-5.843515396118164 -0.4717382788658142 -2.5
-5.69216775894165 -1.4029955863952637 -2.5
-5.560810565948486 -1.8564696311950684 -2.5
-5.191015720367432 -2.724447011947632 -2.5
-4.954941272735596 -3.133312940597534 -2.5
-4.686748027801514 -3.5218591690063477 -2.5
-3.190927743911743 -4.622852802276611 -2.3953821659088135
-2.7615039348602295 -4.783061504364014 -2.355220079421997
-1.5366162061691284 -5.304949760437012 -2.355220079421997
-1.104760766029358 -5.411387920379639 -2.355220079421997
-0.6657323837280273 -5.482735633850098 -2.355220079421997
-0.22239746153354645 -5.518527507781982 -2.355220079421997
0.5883105397224426 -4.845343112945557 -2.081414222717285
1.1047265529632568 -5.411386489868164 -2.355220079421997
1.958471655845642 -5.164102554321289 -2.355220079421997
2.3676609992980957 -4.989768028259277 -2.355220079421997
3.19091796875 -4.62285041809082 -2.3953797817230225
4.388154029846191 -3.88757061958313 -2.5
4.954931735992432 -3.1333141326904297 -2.5
5.692143440246582 -1.4029955863952637 -2.5
5.843491077423096 -0.4717370569705963 -2.5
-5.521777153015137 -1.360998511314392 -2.5
-4.806621074676514 -3.0395164489746094 -2.5
-4.256796836853027 -3.7711901664733887 -2.5
-3.182324171066284 -4.610396862030029 -2.4626479148864746
-2.296801805496216 -4.84039306640625 -2.355220079421997
-1.4906103610992432 -5.146144866943359 -2.355220079421997
-1.071679711341858 -5.249400615692139 -2.355220079421997
-0.645800769329071 -5.318614482879639 -2.355220079421997
-0.21573729813098907 -5.353327751159668 -2.355220079421997
0.21570800244808197 -5.353327751159668 -2.355220079421997
0.588305652141571 -4.845339298248291 -2.1456432342529297
1.0716552734375 -5.249400615692139 -2.355220079421997
1.4905908107757568 -5.146143913269043 -2.355220079421997
1.899843692779541 -5.009516716003418 -2.355220079421997
2.2967822551727295 -4.840394020080566 -2.355220079421997
3.5967235565185547 -4.405197620391846 -2.5
4.256792068481445 -3.7711973190307617 -2.5
4.806616306304932 -3.0395190715789795 -2.5
-5.448681354522705 -0.8854956030845642 -2.5
-5.359755516052246 -1.3210644721984863 -2.5
-5.236073970794678 -1.7480541467666626 -2.5
-5.078437328338623 -2.1637158393859863 -2.5
-4.413056373596191 -3.3161888122558594 -2.5
-4.131894588470459 -3.6605420112609863 -2.5
-3.8239452838897705 -3.9811511039733887 -2.5
-3.491201162338257 -4.275937557220459 -2.5
-3.135810375213623 -4.54299783706665 -2.5
-2.229418992996216 -4.698370456695557 -2.355220079421997
-1.8441210985183716 -4.862527847290039 -2.355220079421997
-1.4468798637390137 -4.995151042938232 -2.355220079421997
-0.6268505454063416 -5.162558555603027 -2.355220079421997
0.5883105397224426 -4.845340251922607 -2.2105021476745605
1.0402098894119263 -5.095376968383789 -2.355220079421997
2.6668357849121094 -4.619114875793457 -2.415555000305176
3.135795831680298 -4.543000221252441 -2.5
3.4911913871765137 -4.275940895080566 -2.5
3.8239355087280273 -3.981154680252075 -2.5
4.131889343261719 -3.6605443954467773 -2.5
4.413046836853027 -3.316192626953125 -2.5
4.665580749511719 -2.950335741043091 -2.5
4.887841701507568 -2.5653440952301025 -2.5
5.448652267456055 -0.8854943513870239 -2.5
-5.361279010772705 2.441406195430318e-06 -2.5
-5.343896389007568 -0.4314050078392029 -2.5
-5.085371017456055 -1.6977416276931763 -2.5
-4.932265281677246 -2.101435422897339 -2.5
-4.286025524139404 -3.2207372188568115 -2.5
-4.012959003448486 -3.55517578125 -2.5
-3.045546770095825 -4.412232398986816 -2.5
-2.6598827838897705 -4.607059001922607 -2.480654001235962
-2.194326162338257 -4.624431133270264 -2.3868584632873535
-1.7910497188568115 -4.722564697265625 -2.355220079421997
-1.010292887687683 -4.94871187210083 -2.355220079421997
-0.6088183522224426 -5.01395845413208 -2.355220079421997
-0.20337890088558197 -5.04669189453125 -2.355220079421997
0.5883105397224426 -4.845341682434082 -2.276015043258667
1.791015625 -4.722565650939941 -2.355220079421997
2.1943066120147705 -4.624428749084473 -2.386857509613037
3.713871955871582 -3.866563558578491 -2.5
4.286025524139404 -3.2207372188568115 -2.5
4.531289100646973 -2.8654162883758545 -2.5
5.085336685180664 -1.6977429389953613 -2.5
5.205458641052246 -1.2830382585525513 -2.5
5.291826248168945 -0.8600072860717773 -2.5
