ply
format ascii 1.0
element vertex 867
property float x
property float y
property float z
end_header
-1.153540015220642 28.624467849731445 7.676122665405273
-3.3750293254852295 27.79584503173828 7.502569198608398
-5.488173484802246 26.882816314697266 7.351799964904785
-7.531054496765137 26.000150680541992 7.253081321716309
-9.532588005065918 25.135351181030273 7.203074932098389
-6.359633445739746 13.402694702148438 3.9750237464904785
-18.188188552856445 22.276473999023438 7.705812931060791
-7.531054496765137 26.000150680541992 6.932522296905518
-6.357177734375 13.3975191116333 3.797874689102173
-18.167539596557617 22.251161575317383 7.356877326965332
-5.488173484802246 26.882816314697266 6.703794002532959
-7.531054496765137 26.000150680541992 6.613775253295898
-6.35473108291626 13.392377853393555 3.62186336517334
-16.022308349609375 23.212284088134766 6.8913750648498535
-18.167539596557617 22.251161575317383 7.018620491027832
-3.4199461936950684 28.16568374633789 6.600009441375732
-5.611166954040527 27.485273361206055 6.525489330291748
-6.352309226989746 13.3872652053833 3.446937084197998
-13.831313133239746 23.956527709960938 6.434865474700928
-15.952553749084473 23.1112060546875 6.532476425170898
-18.167539596557617 22.251161575317383 6.682191848754883
-3.4647607803344727 28.5347900390625 6.35159158706665
-9.88277816772461 26.058734893798828 6.158339500427246
-6.349902153015137 13.382182121276855 3.2730424404144287
-7.758466720581055 26.785282135009766 5.838644981384277
-6.347495079040527 13.377128601074219 3.1001274585723877
-13.991494178771973 24.23395538330078 5.858887672424316
-18.188779830932617 22.27718734741211 6.021456241607666
-3.4769530296325684 28.635194778442383 5.706578731536865
-5.653901100158691 27.694602966308594 5.5919013023376465
-6.345117092132568 13.37210464477539 2.9281444549560547
-14.013690948486328 24.272401809692383 5.544722557067871
-16.02284049987793 23.213031768798828 5.255955696105957
-18.188779830932617 22.27718734741211 5.359090328216553
19.844085693359375 12.548676490783691 4.1064300537109375
-3.4769482612609863 28.635194778442383 5.045050144195557
-7.758466720581055 26.785282135009766 4.877284526824951
-18.18876838684082 22.27718734741211 5.029994010925293
-3.4769580364227295 28.635194778442383 4.716245651245117
-5.653901100158691 27.694602966308594 4.621469497680664
-7.758466720581055 26.785282135009766 4.559414386749268
-9.88277816772461 26.058734893798828 4.55672025680542
-16.02284049987793 23.213031768798828 4.61168098449707
-3.4769482612609863 28.635194778442383 4.388633728027344
-7.708671569824219 26.613388061523438 4.215468883514404
-9.762319564819336 25.741092681884766 4.188504695892334
-6.335683345794678 13.352240562438965 2.248539447784424
-13.837221145629883 23.966747283935547 4.210461139678955
-15.90676212310791 23.04486846923828 4.260241508483887
-18.188779830932617 22.27718734741211 4.3755364418029785
-3.468559503555298 28.56605339050293 4.052314281463623
-7.758466720581055 26.785282135009766 3.927042245864868
-9.820444107055664 25.89436912536621 3.899967670440674
-6.333354473114014 13.347329139709473 2.080484628677368
-13.925302505493164 24.119306564331055 3.922013521194458
-16.02284049987793 23.213031768798828 3.972059965133667
-18.14485740661621 22.22340202331543 4.040221691131592
-1.1937255859375 29.6216983795166 3.8402891159057617
-3.4769482612609863 28.635194778442383 3.736626386642456
-16.02284049987793 23.213031768798828 3.6537797451019287
23.325162887573242 5.749189376831055 2.8416528701782227
21.80103302001953 9.288549423217773 2.8030974864959717
-3.4769678115844727 28.635189056396484 3.4120678901672363
-5.653901100158691 27.694602966308594 3.3434972763061523
-7.758466720581055 26.785282135009766 3.298602819442749
-9.839961051940918 25.945804595947266 3.2823686599731445
-6.328725337982178 13.337563514709473 1.7462682723999023
-18.18876838684082 22.27718734741211 3.401883363723755
-1.1937353610992432 29.6216983795166 3.174028158187866
-3.4769628047943115 28.635194778442383 3.088350772857666
-5.653901100158691 27.694602966308594 3.0262866020202637
-6.326416015625 13.3326997756958 1.58001708984375
-14.01370620727539 24.27240753173828 3.0007567405700684
-1.1937353610992432 29.6216983795166 2.8421239852905273
-3.4769530296325684 28.635194778442383 2.76540470123291
-5.653901100158691 27.694602966308594 2.709831476211548
-7.758466720581055 26.785282135009766 2.6734459400177
-9.839961051940918 25.945804595947266 2.660288095474243
-6.324116230010986 13.327856063842773 1.4142833948135376
-14.013700485229492 24.272411346435547 2.686971426010132
-16.022851943969727 23.21302604675293 2.704092264175415
-18.188779830932617 22.27718734741211 2.757153272628784
-5.653901100158691 27.694602966308594 2.3940484523773193
-6.321825981140137 13.323026657104492 1.2490209341049194
-14.01370620727539 24.27240753173828 2.3738532066345215
-3.4769580364227295 28.635194778442383 2.121492862701416
-5.653891563415527 27.694608688354492 2.078859806060791
-16.022851943969727 23.213031768798828 2.074456214904785
2.1350536346435547 17.583831787109375 1.1055392026901245
0.7096630930900574 17.610483169555664 1.1000347137451172
-1.1937353610992432 29.6216983795166 1.8503081798553467
-3.4769482612609863 28.635194778442383 1.800362229347229
-5.653901100158691 27.694602966308594 1.764182448387146
-9.88277816772461 26.058734893798828 1.7394652366638184
-6.3172607421875 13.313403129577637 0.9197421073913574
-16.02284049987793 23.213031768798828 1.7604458332061768
-18.188779830932617 22.27718734741211 1.794988989830017
0.708984375 17.593759536743164 0.9032345414161682
-1.1937353610992432 29.6216983795166 1.520723819732666
-3.4769530296325684 28.635194778442383 1.47967529296875
-5.653901100158691 27.694602966308594 1.4499402046203613
-6.314985275268555 13.308608055114746 0.7556430101394653
-13.92529296875 24.119300842285156 1.4286389350891113
2.1325879096984863 17.563446044921875 0.7110928297042847
-1.1885350942611694 29.492733001708984 1.1863280534744263
-3.4578709602355957 28.478017807006836 1.1529889106750488
-5.61767578125 27.51713752746582 1.1287750005722046
-7.715883731842041 26.638261795043945 1.114648461341858
-13.84371566772461 23.978012084960938 1.1128076314926147
-16.022851943969727 23.21302604675293 1.1336486339569092
-18.08893585205078 22.154911041259766 1.1495486497879028
2.132578134536743 17.563446044921875 0.5147979855537415
-1.1937255859375 29.6216983795166 0.8626006841659546
-3.4769580364227295 28.635194778442383 0.8393157720565796
-5.646274089813232 27.657255172729492 0.8213406205177307
-7.758466720581055 26.785282135009766 0.8114058971405029
-6.310444355010986 13.299042701721191 0.42831480503082275
-13.977797508239746 24.21021842956543 0.8134222030639648
-18.18876838684082 22.27718734741211 0.8368111848831177
2.132578134536743 17.563446044921875 0.3186291456222534
0.708984375 17.59376335144043 0.31710904836654663
-1.1937353610992432 29.6216983795166 0.533896803855896
-5.646274089813232 27.657255172729492 0.508359968662262
-7.758466720581055 26.785287857055664 0.5022106766700745
-9.839956283569336 25.945804595947266 0.49973875284194946
-13.977787971496582 24.210229873657227 0.5034576058387756
-18.188779830932617 22.27718734741211 0.5179348587989807
2.132578134536743 17.563446044921875 0.12253844738006592
-7.758466720581055 26.785282135009766 0.19313842058181763
-16.02284049987793 23.213031768798828 0.19535216689109802
-18.188779830932617 22.27718734741211 0.1991857886314392
-1.1937353610992432 29.6216983795166 -0.12319763004779816
-3.4769482612609863 28.635194778442383 -0.11987213045358658
-7.758466720581055 26.785282135009766 -0.11588577181100845
-6.303661823272705 13.284735679626465 -0.06110595539212227
-16.02284049987793 23.213031768798828 -0.11721435189247131
-1.1937353610992432 29.6216983795166 -0.4517461955547333
-5.646274089813232 27.657255172729492 -0.43013808131217957
-7.758466720581055 26.785282135009766 -0.42493560910224915
-9.88277816772461 26.058734893798828 -0.4246845841407776
-6.3013916015625 13.279979705810547 -0.22398772835731506
-13.977797508239746 24.21021842956543 -0.42599213123321533
8.012045860290527 16.885068893432617 -0.4919903576374054
2.1325879096984863 17.563446044921875 -0.46574124693870544
0.708984375 17.593759536743164 -0.463519424200058
-3.4769482612609863 28.635194778442383 -0.7593401670455933
-5.646274089813232 27.657255172729492 -0.7430770993232727
-7.758466720581055 26.785282135009766 -0.7340894937515259
-9.867114067077637 26.017446517944336 -0.7324932813644409
-6.299130916595459 13.275218963623047 -0.38680723309516907
-16.02284049987793 23.213031768798828 -0.7425045371055603
-18.18876838684082 22.27718734741211 -0.757074236869812
7.950614929199219 16.755624771118164 -0.6939509510993958
4.35403299331665 21.327489852905273 -0.8144763112068176
-1.1937353610992432 29.6216983795166 -1.1092642545700073
-5.646284103393555 27.657255172729492 -1.0562057495117188
-6.296884536743164 13.270453453063965 -0.5496084690093994
-18.18876838684082 22.27718734741211 -1.0761007070541382
5.240195274353027 18.091312408447266 -0.91385817527771
3.298598527908325 16.15766143798828 -0.8001264929771423
-1.1908299922943115 29.5496826171875 -1.4348950386047363
-2.370781183242798 19.52503776550293 -0.9542986750602722
-7.723002910614014 26.662832260131836 -1.3468393087387085
-13.977787971496582 24.210229873657227 -1.356385350227356
-15.955810546875 23.115907669067383 -1.362809419631958
-18.12492561340332 22.198978424072266 -1.3904900550842285
5.240190505981445 18.09130859375 -1.1231895685195923
2.1325879096984863 17.563446044921875 -1.055058240890503
0.6150488257408142 15.262636184692383 -0.9108993411064148
-5.653896331787109 27.694602966308594 -1.6855852603912354
-6.292367935180664 13.260936737060547 -0.8753028512001038
-16.02284049987793 23.213031768798828 -1.682015299797058
2.1325879096984863 17.563446044921875 -1.2519516944885254
-0.6536523103713989 16.219940185546875 -1.1486859321594238
-2.3707714080810547 19.525033950805664 -1.3917772769927979
-9.820444107055664 25.89436912536621 -1.9596853256225586
-13.977797508239746 24.21021842956543 -1.9781917333602905
-16.022851943969727 23.21302604675293 -1.995910406112671
14.330676078796387 24.821489334106445 -2.347599983215332
10.1634521484375 26.79886245727539 -2.347599983215332
5.240195274353027 18.091312408447266 -1.5427345037460327
3.267519474029541 16.005395889282227 -1.338012933731079
0.6150488257408142 15.262636184692383 -1.251147747039795
-6.287846565246582 13.251410484313965 -1.2013903856277466
-18.12676239013672 22.201234817504883 -2.347599983215332
-19.85443878173828 20.670644760131836 -2.347599983215332
-21.453344345092773 19.006019592285156 -2.347599983215332
-22.913124084472656 17.218109130859375 -2.347599983215332
26.86016082763672 3.9062499126885086e-05 -2.5
26.773061752319336 2.161367177963257 -2.5
26.512325286865234 4.308686256408691 -2.5
25.477834701538086 8.505776405334473 -2.5
24.710779190063477 10.528310775756836 -2.5
23.783483505249023 12.482558250427246 -2.5
22.701929092407227 14.355863571166992 -2.5
18.87950325012207 16.725811004638672 -2.347599983215332
15.952028274536133 19.537700653076172 -2.347599983215332
12.611376762390137 21.843568801879883 -2.347599983215332
8.944101333618164 23.583709716796875 -2.347599983215332
-0.6524609327316284 16.19039535522461 -1.5081374645233154
-2.370781183242798 19.52503776550293 -1.8306325674057007
-5.045175552368164 24.71304702758789 -2.347599983215332
-7.017412185668945 24.2269287109375 -2.347599983215332
-6.285575866699219 13.2466402053833 -1.364683985710144
-12.611371994018555 21.84355926513672 -2.347599983215332
-15.952040672302246 19.53766632080078 -2.347599983215332
-18.879507064819336 16.72579002380371 -2.347599983215332
-20.164154052734375 15.152377128601074 -2.347599983215332
-25.477840423583984 8.505746841430664 -2.5
-26.079647064208984 6.428041934967041 -2.5
23.97757339477539 2.9296874345163815e-05 -2.5
23.280847549438477 5.738227367401123 -2.5
22.743621826171875 7.592958927154541 -2.5
22.058866500854492 9.398432731628418 -2.5
18.000150680541992 13.52627944946289 -2.347599983215332
16.853397369384766 14.930834770202637 -2.347599983215332
15.597311973571777 16.238534927368164 -2.347599983215332
14.240087509155273 17.44095230102539 -2.347599983215332
9.65237808227539 20.342010498046875 -2.347599983215332
7.984238147735596 21.052762985229492 -2.347599983215332
0.6150488257408142 15.262636184692383 -1.5926358699798584
-0.6524609327316284 16.190399169921875 -1.6894441843032837
-2.2518749237060547 18.545795440673828 -1.9478617906570435
-6.264316082000732 21.626937866210938 -2.347599983215332
-7.984355449676514 21.052650451660156 -2.347599983215332
-6.283310413360596 13.241860389709473 -1.528193473815918
-11.257885932922363 19.499418258666992 -2.347599983215332
-14.240097045898438 17.440942764282227 -2.347599983215332
-16.8533878326416 14.93080997467041 -2.347599983215332
-20.265625 12.815204620361328 -2.5
-22.743637084960938 7.592939376831055 -2.5
-23.667064666748047 3.8462986946105957 -2.5
9.458832740783691 0.7636035084724426 -1.0958536863327026
9.127997398376465 1.4834569692611694 -1.0679244995117188
19.91653823852539 8.485663414001465 -2.5
14.082511901855469 14.66146469116211 -2.347599983215332
10.690409660339355 15.487763404846191 -2.1732099056243896
7.208808422088623 19.008129119873047 -2.347599983215332
4.895361423492432 16.900815963745117 -2.0319180488586426
1.8908642530441284 15.572724342346191 -1.8115339279174805
0.6150488257408142 15.262636184692383 -1.7639487981796265
-0.6524609327316284 16.19039535522461 -1.8711724281311035
-4.066352367401123 19.918344497680664 -2.347599983215332
-8.1781587600708 14.165034294128418 -1.8888195753097534
-11.548319816589355 16.730560302734375 -2.347599983215332
-15.2166109085083 13.480741500854492 -2.347599983215332
-19.91653823852539 8.485644340515137 -2.5
19.72799301147461 2.9296874345163815e-05 -2.5
9.094365119934082 0.734179675579071 -1.156219720840454
18.149337768554688 7.732734203338623 -2.5
17.43846321105957 9.152436256408691 -2.4957356452941895
15.657450675964355 9.901190757751465 -2.347599983215332
14.809958457946777 11.12899398803711 -2.347599983215332
12.832968711853027 13.360551834106445 -2.347599983215332
6.569174766540527 17.321533203125 -2.347599983215332
1.8527636528015137 15.258886337280273 -1.9478617906570435
0.6150488257408142 15.262636184692383 -1.9357045888900757
-0.6311815977096558 15.6624116897583 -1.986406683921814
-3.7055859565734863 18.150957107543945 -2.347599983215332
-5.941054344177246 12.520483016967773 -1.7561990022659302
-6.985448837280273 12.099194526672363 -1.7704435586929321
-10.523633003234863 15.246073722839355 -2.347599983215332
-12.832968711853027 13.360541343688965 -2.347599983215332
-13.866439819335938 12.284584999084473 -2.347599983215332
-14.809980392456055 11.1289644241333 -2.347599983215332
-15.657465934753418 9.901185989379883 -2.347599983215332
-17.468265533447266 9.16805648803711 -2.5
-18.712718963623047 6.24722146987915 -2.5
-19.15473175048828 4.721200942993164 -2.5
-19.47249984741211 3.16460919380188 -2.5
8.5685396194458 1.3925292491912842 -1.1979644298553467
16.66639518737793 7.100913047790527 -2.5
13.59987735748291 10.219672203063965 -2.347599983215332
12.733427047729492 11.280858993530273 -2.347599983215332
9.663735389709473 14.000370979309082 -2.347599983215332
8.505834579467773 14.732572555541992 -2.347599983215332
7.292773246765137 15.369237899780273 -2.347599983215332
4.732934474945068 16.34005355834961 -2.347599983215332
0.5993847250938416 14.873964309692383 -2.0542590618133545
-2.050541877746582 16.887676239013672 -2.347599983215332
-4.732924461364746 16.340078353881836 -2.347599983215332
-6.032436370849609 15.906220436096191 -2.347599983215332
-5.951728343963623 12.543036460876465 -1.9159047603607178
-6.985448837280273 12.099194526672363 -1.9279742240905762
-9.663793563842773 14.00033187866211 -2.347599983215332
-10.7589693069458 13.177352905273438 -2.347599983215332
-12.733447074890137 11.280844688415527 -2.347599983215332
-13.599867820739746 10.2196626663208 -2.347599983215332
-14.3781099319458 9.092177391052246 -2.347599983215332
-16.04097557067871 8.418954849243164 -2.5
16.743764877319336 2.9296874345163815e-05 -2.5
8.559345245361328 0.6909960508346558 -1.2821485996246338
8.376728057861328 1.361367106437683 -1.2671334743499756
14.817960739135742 7.777089595794678 -2.4986681938171387
13.28896427154541 8.403456687927246 -2.347599983215332
12.569677352905273 9.44552230834961 -2.347599983215332
11.768866539001465 10.426337242126465 -2.347599983215332
9.943974494934082 12.179179191589355 -2.347599983215332
8.931703567504883 12.939833641052246 -2.347599983215332
7.861518383026123 13.6165771484375 -2.347599983215332
6.740341663360596 14.205009460449219 -2.347599983215332
5.57546854019165 14.70131778717041 -2.347599983215332
4.374413967132568 15.102290153503418 -2.347599983215332
3.145014524459839 15.405317306518555 -2.347599983215332
0.5993847250938416 14.873964309692383 -2.2226240634918213
-0.6311815977096558 15.662416458129883 -2.340441942214966
-1.8951952457427979 15.608437538146973 -2.347599983215332
-3.1449804306030273 15.405341148376465 -2.347599983215332
-4.374433517456055 15.102290153503418 -2.347599983215332
-5.57546854019165 14.701327323913574 -2.347599983215332
-5.951728343963623 12.543036460876465 -2.072929859161377
-6.985448837280273 12.099194526672363 -2.0859885215759277
-10.89174747467041 11.339516639709473 -2.347599983215332
-13.288984298706055 8.403432846069336 -2.347599983215332
-16.257230758666992 4.007040977478027 -2.5
9.496191024780273 2.3406152725219727 -1.5712896585464478
14.760255813598633 4.927704811096191 -2.5
13.778447151184082 7.231503963470459 -2.4999618530273438
11.681836128234863 8.778359413146973 -2.347599983215332
10.937597274780273 9.689887046813965 -2.347599983215332
7.306240081787109 12.654794692993164 -2.347599983215332
6.264257907867432 13.20166015625 -2.347599983215332
5.181654930114746 13.662924766540527 -2.347599983215332
4.065434455871582 14.035566329956055 -2.347599983215332
2.9228711128234863 14.317177772521973 -2.347599983215332
-0.5883983969688416 14.600629806518555 -2.347599983215332
-2.922856330871582 14.317192077636719 -2.347599983215332
-4.890200138092041 12.894453048706055 -2.21555757522583
-5.910585880279541 12.45633316040039 -2.215057849884033
-8.300848960876465 12.025835037231445 -2.347599983215332
-10.122421264648438 10.538569450378418 -2.347599983215332
-11.681845664978027 8.77834415435791 -2.347599983215332
-13.77865219116211 7.231601238250732 -2.5
-14.760263442993164 4.927700042724609 -2.5
-15.510629653930664 1.2521483898162842 -2.5
8.1307373046875 0.6563964486122131 -1.403406023979187
8.030835151672363 1.3051464557647705 -1.3997942209243774
13.783234596252441 4.601542949676514 -2.5
13.368268966674805 5.69570779800415 -2.5
12.866605758666992 6.752939224243164 -2.5
10.908583641052246 8.197295188903809 -2.347599983215332
10.213598251342773 9.048480987548828 -2.347599983215332
8.629862785339355 10.569682121276855 -2.347599983215332
6.822617053985596 11.81712818145752 -2.347599983215332
5.849599361419678 12.327807426452637 -2.347599983215332
4.838662147521973 12.758529663085938 -2.347599983215332
2.7293896675109863 13.369477272033691 -2.347599983215332
1.644741177558899 13.545751571655273 -2.347599983215332
-3.7963476181030273 13.106508255004883 -2.347599983215332
-7.751391410827637 11.229814529418945 -2.347599983215332
-10.213613510131836 9.048476219177246 -2.347599983215332
-10.908588409423828 8.197279930114746 -2.347599983215332
-12.866605758666992 6.752919673919678 -2.5
-13.368270874023438 5.695683479309082 -2.5
-13.783246994018555 4.601523399353027 -2.5
-14.342870712280273 2.3309667110443115 -2.5
13.625676155090332 2.9296874345163815e-05 -2.5
8.116215705871582 0.6552148461341858 -1.4939864873886108
7.95385217666626 1.2926366329193115 -1.478496789932251
12.535341262817383 5.3408203125 -2.5
12.064936637878418 6.332192420959473 -2.5
9.577221870422363 8.48470687866211 -2.347599983215332
6.397524356842041 11.080849647521973 -2.347599983215332
5.48513650894165 11.559711456298828 -2.347599983215332
3.5597996711730957 12.289887428283691 -2.347599983215332
2.559335947036743 12.536474227905273 -2.347599983215332
1.54226553440094 12.701766967773438 -2.347599983215332
0.5151904225349426 12.784677505493164 -2.347599983215332
-3.5598340034484863 12.289873123168945 -2.347599983215332
-4.537207126617432 11.963574409484863 -2.347599983215332
-5.485190391540527 11.559662818908691 -2.347599983215332
-6.397529125213623 11.08084487915039 -2.347599983215332
-12.064936637878418 6.332167625427246 -2.5
-13.449223518371582 2.185727596282959 -2.5
-13.581499099731445 1.0963964462280273 -2.5
12.823447227478027 1.9531249563442543e-05 -2.5
8.11464786529541 0.6550976634025574 -1.5871413946151733
12.163505554199219 4.060786247253418 -2.5
11.797304153442383 5.026376724243164 -2.5
10.1775484085083 6.4359130859375 -2.347599983215332
9.013359069824219 7.985166072845459 -2.347599983215332
8.341596603393555 8.684531211853027 -2.347599983215332
6.840478420257568 9.910161018371582 -2.347599983215332
6.020859241485596 10.428451538085938 -2.347599983215332
3.350209951400757 11.56630802154541 -2.347599983215332
2.4086523056030273 11.798383712768555 -2.347599983215332
0.4848583936691284 12.031967163085938 -2.347599983215332
-0.48488280177116394 12.03197193145752 -2.347599983215332
-1.4514843225479126 11.953935623168945 -2.347599983215332
-2.4086523056030273 11.798383712768555 -2.347599983215332
-4.270058631896973 11.2592134475708 -2.347599983215332
-5.162201881408691 10.879111289978027 -2.347599983215332
-6.0208740234375 10.428446769714355 -2.347599983215332
-6.840497970581055 9.910146713256836 -2.347599983215332
-7.615736961364746 9.327588081359863 -2.347599983215332
-9.013368606567383 7.985151290893555 -2.347599983215332
-11.354609489440918 5.959360122680664 -2.5
-11.797308921813965 5.0263671875 -2.5
-12.1635103225708 4.060771465301514 -2.5
-12.657392501831055 2.0570409297943115 -2.5
12.107519149780273 9.765624781721272e-06 -2.5
8.102875709533691 0.6541405916213989 -1.6785534620285034
11.484418869018555 3.8340771198272705 -2.5
9.609335899353027 6.076601505279541 -2.347599983215332
8.510146141052246 7.539345741271973 -2.347599983215332
7.875888347625732 8.199667930603027 -2.347599983215332
4.873989105224609 10.271728515625 -2.347599983215332
1.3704345226287842 11.286552429199219 -2.347599983215332
0.4577929675579071 11.360224723815918 -2.347599983215332
-0.45780760049819946 11.360224723815918 -2.347599983215332
-1.370449185371399 11.286547660827637 -2.347599983215332
-3.163203001022339 10.920536994934082 -2.347599983215332
-4.873993873596191 10.271733283996582 -2.347599983215332
-7.1905517578125 8.806836128234863 -2.347599983215332
-8.510146141052246 7.53933572769165 -2.347599983215332
-9.089208602905273 6.830111980438232 -2.347599983215332
-10.207563400268555 6.454877853393555 -2.493748664855957
-10.720664024353027 5.626645565032959 -2.5
-11.138667106628418 4.745751857757568 -2.5
-11.48440933227539 3.8340721130371094 -2.5
-11.755693435668945 2.897514581680298 -2.5
-11.950722694396973 1.9421874284744263 -2.5
-12.068256378173828 0.9742480516433716 -2.5
7.90652322769165 1.2849414348602295 -1.7467504739761353
10.87451171875 3.6304638385772705 -2.5
5.382817268371582 9.32332992553711 -2.347599983215332
2.995180606842041 10.340595245361328 -2.347599983215332
2.153398275375366 10.548075675964355 -2.347599983215332
0.4334765672683716 10.756909370422363 -2.347599983215332
-0.4334765672683716 10.756914138793945 -2.347599983215332
-2.1534080505371094 10.548075675964355 -2.347599983215332
-3.8175389766693115 10.066059112548828 -2.347599983215332
-4.615146160125732 9.72623062133789 -2.347599983215332
-5.382822036743164 9.323325157165527 -2.347599983215332
-7.457631587982178 7.764199256896973 -2.347599983215332
-8.05819320678711 7.13894510269165 -2.347599983215332
-8.606518745422363 6.467372894287109 -2.347599983215332
-9.670868873596191 6.115492820739746 -2.495142698287964
-10.151337623596191 5.327822208404541 -2.5
-10.547123908996582 4.493705749511719 -2.5
-11.13138198852539 2.7436277866363525 -2.5
-11.427343368530273 0.9225097298622131 -2.5
10.88370132446289 1.9531249563442543e-05 -2.5
8.065126419067383 0.6510937213897705 -1.8585962057113647
7.884902000427246 1.2814257144927979 -1.8349344730377197
9.04110336303711 2.228442430496216 -2.138906717300415
10.323588371276855 3.446533203125 -2.5
10.012778282165527 4.266054630279541 -2.5
7.649955749511719 6.777275085449219 -2.347599983215332
5.805742263793945 8.41109848022461 -2.347599983215332
5.110112190246582 8.850981712341309 -2.347599983215332
3.624140501022339 9.556093215942383 -2.347599983215332
1.2319189310073853 10.145727157592773 -2.347599983215332
0.41151854395866394 10.21194839477539 -2.347599983215332
-0.4115380644798279 10.211953163146973 -2.347599983215332
-2.0443115234375 10.01369571685791 -2.347599983215332
-2.843451976776123 9.816728591918945 -2.347599983215332
-3.624150276184082 9.5560884475708 -2.347599983215332
-4.381342887878418 9.233481407165527 -2.347599983215332
-5.805766582489014 8.411078453063965 -2.347599983215332
-6.46373987197876 7.916645526885986 -2.347599983215332
-7.079809188842773 7.370859146118164 -2.347599983215332
-7.649950981140137 6.777280330657959 -2.347599983215332
-9.637041091918945 5.057924747467041 -2.5
-10.012787818908691 4.266064167022705 -2.5
-10.323588371276855 3.446523427963257 -2.5
-10.848407745361328 0.8757714629173279 -2.5
8.063672065734863 0.6509765386581421 -1.9528850317001343
10.055419921875 2.478447198867798 -2.5
9.823378562927246 3.279545783996582 -2.5
9.527626991271973 4.059350490570068 -2.5
8.730151176452637 5.5206298828125 -2.4934475421905518
7.774604320526123 5.842250823974609 -2.347599983215332
6.736767292022705 7.013725280761719 -2.347599983215332
5.524438381195068 8.003554344177246 -2.347599983215332
4.862504959106445 8.422133445739746 -2.347599983215332
3.4485349655151367 9.093066215515137 -2.347599983215332
2.7056639194488525 9.341078758239746 -2.347599983215332
1.9452587366104126 9.5285005569458 -2.347599983215332
1.172216773033142 9.654130935668945 -2.347599983215332
-1.9452685117721558 9.528495788574219 -2.347599983215332
-2.705678701400757 9.341073989868164 -2.347599983215332
-7.27929162979126 6.448896408081055 -2.347599983215332
-7.774604320526123 5.842250823974609 -2.347599983215332
-8.747812271118164 5.531777381896973 -2.4984920024871826
-9.170097351074219 4.812836647033691 -2.5
-10.222241401672363 1.6612889766693115 -2.5
-10.32277774810791 0.8333398103713989 -2.5
9.8753023147583 0.0 -2.5
7.894184589385986 1.2829394340515137 -2.024685859680176
8.330693244934082 5.268022537231445 -2.4952621459960938
5.86486291885376 7.183154106140137 -2.347599983215332
5.267827033996582 7.631791591644287 -2.347599983215332
3.9753904342651367 8.377978324890137 -2.347599983215332
2.5799901485443115 8.907182693481445 -2.347599983215332
1.854897379875183 9.085907936096191 -2.347599983215332
1.117773413658142 9.205693244934082 -2.347599983215332
0.3733886778354645 9.265786170959473 -2.347599983215332
-0.3734081983566284 9.26578140258789 -2.347599983215332
-1.8549022674560547 9.085907936096191 -2.347599983215332
-2.580004930496216 8.907172203063965 -2.347599983215332
-3.2883594036102295 8.670702934265137 -2.347599983215332
-3.975395441055298 8.377978324890137 -2.347599983215332
-5.864858150482178 7.183154106140137 -2.347599983215332
-7.413491249084473 5.570859432220459 -2.347599983215332
-8.346513748168945 5.278022289276123 -2.5
-8.744150161743164 4.589286804199219 -2.5
-9.588349342346191 2.3633105754852295 -2.5
-9.747416496276855 1.5841211080551147 -2.5
-9.843280792236328 0.7946386337280273 -2.5
9.434598922729492 1.9531249563442543e-05 -2.5
7.928681373596191 1.2885448932647705 -2.1285219192504883
8.679643630981445 3.698051691055298 -2.5
7.9649658203125 5.036747932434082 -2.497157096862793
7.08263635635376 5.322260856628418 -2.347599983215332
5.603134632110596 6.862592697143555 -2.347599983215332
3.797978401184082 8.004096031188965 -2.347599983215332
2.464848518371582 8.509687423706055 -2.347599983215332
1.7721190452575684 8.680424690246582 -2.347599983215332
-1.0678906440734863 8.79488754272461 -2.347599983215332
-1.77212393283844 8.680429458618164 -2.347599983215332
-3.141606330871582 8.283759117126465 -2.347599983215332
-4.429736137390137 7.672533988952637 -2.347599983215332
-5.603134632110596 6.862587928771973 -2.347599983215332
-6.137172698974609 6.389477252960205 -2.347599983215332
-7.974042892456055 5.042475700378418 -2.5
-8.353930473327637 4.384482383728027 -2.5
-8.679643630981445 3.698051691055298 -2.5
-9.160453796386719 2.2578418254852295 -2.5
-9.404004096984863 0.75916987657547 -2.5
9.0 0.7265625 -2.5
7.959057331085205 1.2934863567352295 -2.2325918674468994
8.306747436523438 3.539189338684082 -2.5
6.778354167938232 5.093623161315918 -2.347599983215332
6.346508502960205 5.622529029846191 -2.347599983215332
3.6348142623901367 7.660233974456787 -2.347599983215332
2.358950138092041 8.144096374511719 -2.347599983215332
1.695986270904541 8.307509422302246 -2.347599983215332
0.3413964807987213 8.471977233886719 -2.347599983215332
-0.34141111373901367 8.471991539001465 -2.347599983215332
-2.3589696884155273 8.144096374511719 -2.347599983215332
-3.006640672683716 7.927875995635986 -2.347599983215332
-4.239433288574219 7.342905044555664 -2.347599983215332
-5.362416744232178 6.567763328552246 -2.347599983215332
-6.346513748168945 5.622519493103027 -2.347599983215332
-7.11562967300415 5.347055435180664 -2.4644105434417725
-8.766913414001465 2.160844564437866 -2.5
8.6551513671875 9.765624781721272e-06 -2.5
7.962568283081055 3.3925437927246094 -2.5
7.663759708404541 4.022260665893555 -2.5
6.083544731140137 5.389575004577637 -2.347599983215332
2.2612156867980957 7.806650161743164 -2.347599983215332
0.32726073265075684 8.120946884155273 -2.347599983215332
-0.3272705078125 8.120951652526855 -2.347599983215332
-0.9796679615974426 8.068281173706055 -2.347599983215332
-1.6257226467132568 7.96328592300415 -2.347599983215332
-2.26123046875 7.806654930114746 -2.347599983215332
-4.616977214813232 6.68883752822876 -2.347599983215332
-5.140219688415527 6.295629978179932 -2.347599983215332
-5.630146503448486 5.86160135269165 -2.347599983215332
-6.902260780334473 5.186723709106445 -2.4938437938690186
-8.543075561523438 1.3883984088897705 -2.5
-8.62709903717041 0.6964550614356995 -2.5
8.30868148803711 9.765624781721272e-06 -2.5
8.281733512878418 0.6685839891433716 -2.5
8.201088905334473 1.3328222036361694 -2.5
7.881088733673096 2.631108283996582 -2.5
7.643818378448486 3.2567431926727295 -2.5
5.404760837554932 5.626962661743164 -2.347599983215332
4.934453010559082 6.04360818862915 -2.347599983215332
3.9010937213897705 6.756889343261719 -2.347599983215332
2.7666893005371094 7.295180320739746 -2.347599983215332
2.1706981658935547 7.494150161743164 -2.347599983215332
0.31416013836860657 7.795859336853027 -2.347599983215332
-0.9404540657997131 7.745297908782959 -2.347599983215332
-2.170703172683716 7.494140625 -2.347599983215332
-2.7666943073272705 7.295170783996582 -2.347599983215332
-3.3447461128234863 7.048886775970459 -2.347599983215332
-3.9010937213897705 6.756889343261719 -2.347599983215332
-4.934462547302246 6.043612957000732 -2.347599983215332
-6.631513595581055 4.983261585235596 -2.4959352016448975
-7.881083965301514 2.631093740463257 -2.5
-8.067251205444336 1.9883984327316284 -2.5
-8.281743049621582 0.6685839891433716 -2.5
7.98681640625 9.765624781721272e-06 -2.5
7.883388519287109 1.2811815738677979 -2.5
7.347704887390137 3.130571126937866 -2.5
6.750380516052246 4.268691539764404 -2.5
6.370097637176514 4.786835670471191 -2.494164228439331
5.613789081573486 4.973388671875 -2.347599983215332
5.195390701293945 5.408984184265137 -2.347599983215332
4.743300437927246 5.809501647949219 -2.347599983215332
4.260448932647705 6.172333717346191 -2.347599983215332
3.7499656677246094 6.49514627456665 -2.347599983215332
3.215161085128784 6.775835037231445 -2.347599983215332
2.086596727371216 7.203832626342773 -2.347599983215332
0.9040136337280273 7.445258617401123 -2.347599983215332
0.30198240280151367 7.493857383728027 -2.347599983215332
-0.9040234088897705 7.445263385772705 -2.347599983215332
-2.086611270904541 7.203837871551514 -2.347599983215332
-3.215165853500366 6.775829792022705 -2.347599983215332
-3.7499706745147705 6.495141506195068 -2.347599983215332
-4.260454177856445 6.172333717346191 -2.347599983215332
-4.743300437927246 5.809501647949219 -2.347599983215332
-5.195390701293945 5.408984184265137 -2.347599983215332
-5.613789081573486 4.973388671875 -2.347599983215332
-6.379599571228027 4.793954849243164 -2.4978816509246826
-6.750390529632568 4.2686767578125 -2.5
-7.754741191864014 1.9113671779632568 -2.5
-7.883388519287109 1.2811717987060547 -2.5
7.686962604522705 1.9531249563442543e-05 -2.5
7.662040710449219 0.6185546517372131 -2.5
7.291371822357178 2.434218645095825 -2.5
3.609184503555298 6.251303672790527 -2.347599983215332
3.0944628715515137 6.521450042724609 -2.347599983215332
-0.29066404700279236 7.21251916885376 -2.347599983215332
-0.8700780868530273 7.165741920471191 -2.347599983215332
-1.4438574314117432 7.072494983673096 -2.347599983215332
-2.0082762241363525 6.93337869644165 -2.347599983215332
-2.5596678256988525 6.749301433563232 -2.347599983215332
-3.0944676399230957 6.521440505981445 -2.347599983215332
-3.60918927192688 6.251293659210205 -2.347599983215332
-4.100512504577637 5.940600395202637 -2.347599983215332
-5.000341892242432 5.205913066864014 -2.347599983215332
-6.4969482421875 4.108422756195068 -2.5
-6.806479454040527 3.5723142623901367 -2.5
-7.071855545043945 3.0130369663238525 -2.5
-7.463603496551514 1.8396093845367432 -2.5
-7.662040710449219 0.6185546517372131 -2.5
7.382856369018555 0.5960156321525574 -2.5
7.310961723327637 1.1881542205810547 -2.5
7.19164514541626 1.7725878953933716 -2.5
7.025693416595459 2.345527410507202 -2.5
6.55846643447876 3.4421582221984863 -2.5
4.398876667022705 5.387656211853027 -2.347599983215332
3.9510886669158936 5.72415018081665 -2.347599983215332
2.981699228286743 6.283823013305664 -2.347599983215332
2.4663963317871094 6.503368854522705 -2.347599983215332
1.3912451267242432 6.814789772033691 -2.347599983215332
0.2800585925579071 6.949716567993164 -2.347599983215332
-1.3912451267242432 6.814799785614014 -2.347599983215332
-1.9351024627685547 6.680747032165527 -2.347599983215332
-3.9510936737060547 5.724140644073486 -2.347599983215332
-4.398881912231445 5.387656211853027 -2.347599983215332
-4.81814432144165 5.016220569610596 -2.347599983215332
-5.527411937713623 4.896870136260986 -2.492464542388916
-6.260224342346191 3.9587254524230957 -2.5
-6.558461666107178 3.442153215408325 -2.5
-6.814174652099609 2.903251886367798 -2.5
-7.025693416595459 2.3455419540405273 -2.5
-7.191640377044678 1.7725781202316284 -2.5
-7.310966491699219 1.1881542205810547 -2.5
-7.382861137390137 0.5960156321525574 -2.5
7.121420860290527 0.574902355670929 -2.5
7.052074909210205 1.146093726158142 -2.5
6.936982154846191 1.7098242044448853 -2.5
6.776904106140137 2.262465715408325 -2.5
6.5728759765625 2.8004491329193115 -2.5
6.326220512390137 3.320268392562866 -2.5
5.711352348327637 4.291816234588623 -2.4998526573181152
4.647529125213623 4.838598728179932 -2.347599983215332
2.8761181831359863 6.06130838394165 -2.347599983215332
2.3790624141693115 6.273080825805664 -2.347599983215332
1.8665722608566284 6.444174766540527 -2.347599983215332
1.341982364654541 6.573471546173096 -2.347599983215332
0.8086913824081421 6.660146236419678 -2.347599983215332
-0.27015623450279236 6.703618049621582 -2.347599983215332
-0.8086864948272705 6.660146236419678 -2.347599983215332
-1.3419872522354126 6.573471546173096 -2.347599983215332
-2.3790721893310547 6.273085594177246 -2.347599983215332
-2.8761229515075684 6.06130838394165 -2.347599983215332
-3.8111815452575684 5.521435260772705 -2.347599983215332
-4.243110179901123 5.196875095367432 -2.347599983215332
-4.647529125213623 4.838593482971191 -2.347599983215332
-6.038535118103027 3.81853985786438 -2.5
-6.326220512390137 3.320253849029541 -2.5
-6.5728759765625 2.8004443645477295 -2.5
-6.776908874511719 2.262465715408325 -2.5
-7.052080154418945 1.146083950996399 -2.5
6.898412704467773 1.9531249563442543e-05 -2.5
6.80908203125 1.106601595878601 -2.5
6.543398380279541 2.184516668319702 -2.5
5.514882564544678 4.144179821014404 -2.5
4.487387657165527 4.671879768371582 -2.347599983215332
4.096909046173096 5.017807483673096 -2.347599983215332
3.2389402389526367 5.610024452209473 -2.347599983215332
2.7770166397094727 5.85244607925415 -2.347599983215332
2.2970800399780273 6.056933403015137 -2.347599983215332
1.8022509813308716 6.222128868103027 -2.347599983215332
0.7808203101158142 6.430654048919678 -2.347599983215332
-1.8022607564926147 6.222124099731445 -2.347599983215332
-2.2970848083496094 6.056938171386719 -2.347599983215332
-3.238945245742798 5.610004901885986 -2.347599983215332
-3.679872989654541 5.331196308135986 -2.347599983215332
-4.096913814544678 5.017797946929932 -2.347599983215332
-4.518749713897705 4.704535961151123 -2.364009141921997
-5.514892578125 4.1441650390625 -2.5
-5.830468654632568 3.686967611312866 -2.5
-6.108242034912109 3.2058544158935547 -2.5
-6.543393611907959 2.184506893157959 -2.5
-6.697963714599609 1.65090811252594 -2.5
-6.80908203125 1.106591820716858 -2.5
-6.876044750213623 0.5550878643989563 -2.5
6.666840553283691 1.9531249563442543e-05 -2.5
6.645224571228027 0.5364648103713989 -2.5
6.473119735717773 1.59548819065094 -2.5
6.323750019073486 2.1111814975738525 -2.5
6.133354187011719 2.6131885051727295 -2.5
5.9031982421875 3.0982518196105957 -2.5
5.634746074676514 3.5632078647613525 -2.5
2.219975471496582 5.853613376617432 -2.347599983215332
1.7417528629302979 6.013266563415527 -2.347599983215332
1.2522460222244263 6.133925437927246 -2.347599983215332
0.2520703077316284 6.255356311798096 -2.347599983215332
-0.19151854515075684 4.752353191375732 -1.7835288047790527
-0.7546142339706421 6.214789867401123 -2.347599983215332
-1.2522460222244263 6.133920669555664 -2.347599983215332
-1.7417675256729126 6.013271331787109 -2.347599983215332
-2.6837987899780273 5.655991077423096 -2.347599983215332
-3.55633282661438 5.152235984802246 -2.347599983215332
-3.9593846797943115 4.849365234375 -2.347599983215332
-4.501909255981445 4.686992168426514 -2.437001943588257
-4.987055778503418 4.418159008026123 -2.498424530029297
-5.329765319824219 4.005058288574219 -2.5
-5.634750843048096 3.5631980895996094 -2.5
-5.903203010559082 3.0982420444488525 -2.5
-6.133354187011719 2.6131885051727295 -2.5
6.448559284210205 9.765624781721272e-06 -2.5
6.427656173706055 0.5189062356948853 -2.5
6.365053653717041 1.034423828125 -2.5
6.11669397354126 2.042050838470459 -2.5
5.932548522949219 2.5276269912719727 -2.5
5.709926605224609 2.9967968463897705 -2.5
5.450263500213623 3.446547746658325 -2.5
3.8297507762908936 4.690600395202637 -2.347599983215332
3.439892530441284 4.983554363250732 -2.347599983215332
3.0277295112609863 5.244194030761719 -2.347599983215332
2.5959277153015137 5.470815181732178 -2.347599983215332
2.147294759750366 5.661967754364014 -2.347599983215332
0.24381835758686066 6.050556659698486 -2.347599983215332
-1.2112499475479126 5.933090686798096 -2.347599983215332
-1.6847362518310547 5.816386699676514 -2.347599983215332
-2.5959277153015137 5.470810413360596 -2.347599983215332
-3.027724504470825 5.244189262390137 -2.347599983215332
-3.439897298812866 4.98354959487915 -2.347599983215332
-5.709921836853027 2.9968066215515137 -2.5
-6.116703987121582 2.042050838470459 -2.5
-6.261186599731445 1.54324209690094 -2.5
-6.365068435668945 1.0344336032867432 -2.5
-6.427656173706055 0.5188964605331421 -2.5
6.222187519073486 0.5023144483566284 -2.5
5.921166896820068 1.9767773151397705 -2.5
5.527392387390137 2.9010009765625 -2.5
4.990448951721191 3.7500927448272705 -2.5
1.172519564628601 5.743427753448486 -2.347599983215332
0.7065624594688416 5.819150447845459 -2.347599983215332
0.2360253781080246 5.857133865356445 -2.347599983215332
-0.7065820097923279 5.819140434265137 -2.347599983215332
-1.6308836936950684 5.630449295043945 -2.347599983215332
-2.9309473037719727 5.076542854309082 -2.347599983215332
-3.726513624191284 4.564159870147705 -2.359754800796509
-4.672524452209473 4.139502048492432 -2.5
-4.990468502044678 3.7500877380371094 -2.5
-5.527387619018555 2.900995969772339 -2.5
-6.161586761474609 1.001367211341858 -2.5
5.871654987335205 1.4472265243530273 -2.5
5.563461780548096 2.3703808784484863 -2.5
5.354692459106445 2.81036114692688 -2.5
5.111181735992432 3.232128858566284 -2.5
4.834526062011719 3.632924795150757 -2.5
4.526523113250732 4.010165691375732 -2.5
3.604926586151123 4.415239334106445 -2.3563859462738037
2.839360237121582 4.917924880981445 -2.347599983215332
2.4344236850738525 5.130458831787109 -2.347599983215332
2.0137059688568115 5.309706687927246 -2.347599983215332
1.135888695716858 5.563969612121582 -2.347599983215332
-0.18402831256389618 4.56640625 -1.8892948627471924
-0.6845019459724426 5.6373291015625 -2.347599983215332
-1.1358935832977295 5.563979148864746 -2.347599983215332
-1.5799365043640137 5.454521179199219 -2.347599983215332
-2.0137109756469727 5.309711933135986 -2.347599983215332
-2.8393797874450684 4.917929649353027 -2.347599983215332
-4.526528358459473 4.010151386260986 -2.5
-4.834531307220459 3.6329197883605957 -2.5
-5.111186504364014 3.232123851776123 -2.5
-5.354687213897705 2.81036114692688 -2.5
-5.56347131729126 2.3703808784484863 -2.5
-5.871654987335205 1.4472362995147705 -2.5
-5.969062328338623 0.9700781106948853 -2.5
5.69216775894165 1.4029979705810547 -2.5
5.56082010269165 1.85647451877594 -2.5
5.393398284912109 2.297919988632202 -2.5
5.191000938415527 2.7244677543640137 -2.5
4.954941272735596 3.1333250999450684 -2.5
4.686743259429932 3.5218799114227295 -2.5
4.054755687713623 4.221455097198486 -2.4960901737213135
2.752568244934082 4.767602443695068 -2.347599983215332
1.9521484375 5.147407054901123 -2.347599983215332
1.1011669635772705 5.393896579742432 -2.347599983215332
0.66357421875 5.465009689331055 -2.347599983215332
0.22166503965854645 5.500683307647705 -2.347599983215332
-1.1011767387390137 5.393891334533691 -2.347599983215332
-1.9521533250808716 5.147402286529541 -2.347599983215332
-2.3600146770477295 4.973622798919678 -2.347599983215332
-3.1272900104522705 4.5306396484375 -2.347599983215332
-4.058735370635986 4.225581169128418 -2.4985342025756836
-4.388149261474609 3.887583017349243 -2.5
-4.686752796173096 3.5218701362609863 -2.5
-4.954946041107178 3.1333250999450684 -2.5
-5.393408298492432 2.297910213470459 -2.5
-5.692172527313232 1.4029979705810547 -2.5
5.394350528717041 1.8009082078933716 -2.5
5.035610198974609 2.642895460128784 -2.5
4.546445369720459 3.416455030441284 -2.5
3.936293840408325 4.098120212554932 -2.4979379177093506
3.0336570739746094 4.39501953125 -2.347599983215332
2.670161008834839 4.624882698059082 -2.347599983215332
0.6437011361122131 5.301411151885986 -2.347599983215332
0.2150244116783142 5.336020469665527 -2.347599983215332
-1.0682079792022705 5.232431411743164 -2.347599983215332
-1.4857763051986694 5.129506587982178 -2.347599983215332
-2.289365291595459 4.824740886688232 -2.347599983215332
-3.074697256088257 4.454452991485596 -2.3793509006500244
-3.588696241378784 4.395356178283691 -2.4944136142730713
-3.9395360946655273 4.101499080657959 -2.5
-4.256796836853027 3.7712011337280273 -2.5
-5.035614967346191 2.642890453338623 -2.5
-5.394350528717041 1.8008984327316284 -2.5
5.448681354522705 0.8855078220367432 -2.5
5.359755516052246 1.3210742473602295 -2.5
5.078432559967041 2.1637256145477295 -2.5
4.413051605224609 3.3162059783935547 -2.5
3.823486328125 3.9806737899780273 -2.499696969985962
3.483144521713257 4.266083717346191 -2.494229316711426
2.995073080062866 4.339126110076904 -2.3877992630004883
2.5918262004852295 4.489184379577637 -2.347599983215332
0.20872069895267487 5.179448127746582 -2.347599983215332
-0.6248242259025574 5.145864009857178 -2.347599983215332
-1.036865234375 5.078901290893555 -2.347599983215332
-1.4421825408935547 4.978999137878418 -2.347599983215332
-1.8381494283676147 4.8468017578125 -2.347599983215332
-2.2222020626068115 4.683178424835205 -2.347599983215332
-2.5918262004852295 4.489179611206055 -2.347599983215332
-3.485956907272339 4.269511699676514 -2.4962399005889893
-3.8239452838897705 3.9811668395996094 -2.5
-4.131904125213623 3.6605517864227295 -2.5
-4.665590763092041 2.9503369331359863 -2.5
-5.236073970794678 1.7480664253234863 -2.5
-5.359760761260986 1.3210644721984863 -2.5
-5.502265453338623 0.44419920444488525 -2.5
5.343891620635986 0.4314062297344208 -2.5
5.291840553283691 0.8600195050239563 -2.5
5.205483436584473 1.283046841621399 -2.5
5.085361003875732 1.6977441310882568 -2.5
4.531289100646973 2.865419864654541 -2.5
4.286025524139404 3.2207422256469727 -2.5
3.713876962661743 3.866572141647339 -2.5
2.1582324504852295 4.548383712768555 -2.347599983215332
0.6068359017372131 4.997748851776123 -2.347599983215332
0.20270507037639618 5.030371189117432 -2.347599983215332
-1.0070263147354126 4.932704925537109 -2.347599983215332
-3.3879735469818115 4.149516582489014 -2.497981548309326
-3.713881731033325 3.866567373275757 -2.5
-4.531303405761719 2.86541485786438 -2.5
-5.085361003875732 1.69775390625 -2.5
-5.205492973327637 1.2830370664596558 -2.5
-5.343881607055664 0.4314062297344208 -2.5
