ply
format ascii 1.0
element vertex 946
property float x
property float y
property float z
end_header
-14.288036346435547 -2.3220410346984863 3.8786938190460205
-15.21056079864502 -7.983118534088135 4.60288667678833
-6.036952972412109 -3.817535400390625 1.9138845205307007
-16.103628158569336 -23.330116271972656 7.595878601074219
-13.36404800415039 -23.14719581604004 7.161782264709473
-7.465073108673096 -15.732325553894043 4.665961265563965
-8.777212142944336 -23.143598556518555 6.632299423217773
-4.727114200592041 -23.154842376708984 6.332291126251221
1.1238573789596558 -27.888456344604492 7.478751182556152
5.557343482971191 -27.221689224243164 7.444474697113037
3.328920841217041 -3.4657886028289795 1.2876442670822144
19.44652557373047 -6.492193222045898 5.4933905601501465
18.62479019165039 -3.0268261432647705 5.055971622467041
-12.726381301879883 -1.0273852348327637 3.2699151039123535
-13.062255859375 -2.1228320598602295 3.3892204761505127
-12.778456687927246 -4.266080379486084 3.4502086639404297
-12.260127067565918 -6.434610366821289 3.546085834503174
-6.036235332489014 -3.8170788288116455 1.8290798664093018
-16.16780662536621 -23.423086166381836 7.289101600646973
-8.777212142944336 -23.143598556518555 6.339179039001465
1.091098666191101 -27.0753116607666 6.939797401428223
3.3320116996765137 -3.4690074920654297 1.231878638267517
19.785844802856445 -6.605472087860107 5.342219352722168
18.493181228637695 -4.558167457580566 4.877976417541504
18.86333656311035 -3.0655932426452637 4.894411087036133
19.905452728271484 -1.606929898262024 5.114505290985107
-16.350204467773438 -2.441406195430318e-06 3.9948649406433105
-14.904330253601074 -1.2032067775726318 3.65343976020813
-13.285795211791992 -2.159161329269409 3.288724184036255
-11.29128360748291 -4.810762882232666 2.998775005340576
-12.927665710449219 -6.78495979309082 3.5672380924224854
-16.167802810668945 -23.423086166381836 6.953959941864014
-13.36404800415039 -23.147201538085938 6.530505180358887
-11.103334426879883 -23.399770736694336 6.3282928466796875
-8.777212142944336 -23.143598556518555 6.047713279724121
-4.727104187011719 -23.154842376708984 5.774148941040039
1.1243700981140137 -27.901113510131836 6.822649955749512
5.654731273651123 -27.69869041442871 6.907248497009277
19.145246505737305 -3.1114025115966797 4.7391557693481445
-12.083271026611328 -4.033990383148193 2.963308572769165
-12.753779411315918 -5.433882713317871 3.2248332500457764
-13.034711837768555 -6.841141223907471 3.4243688583374023
-6.03481912612915 -3.816182851791382 1.6609491109848022
-13.364052772521973 -23.147192001342773 6.217482566833496
-11.1033296585083 -23.399770736694336 6.024953365325928
-8.777216911315918 -23.143598556518555 5.757821083068848
-6.705312252044678 -23.14934539794922 5.60634183883667
5.761220455169678 -28.220321655273438 6.7000017166137695
19.162555694580078 -6.397391319274902 4.69943904876709
19.590801239013672 -4.828707218170166 4.693593502044678
20.517070770263672 -1.6563048362731934 4.7881999015808105
-12.828803062438965 -2.0848913192749023 2.8719475269317627
-12.82860279083252 -4.28281831741333 2.988511800765991
-14.873998641967773 -7.806475639343262 3.711845636367798
-13.304828643798828 -23.04469108581543 5.879902362823486
-11.0103120803833 -23.2037353515625 5.675229549407959
-8.777212142944336 -23.14358901977539 5.46942138671875
-6.705312252044678 -23.14933967590332 5.3255295753479
19.404987335205078 -6.478323936462402 4.520527362823486
19.251949310302734 -4.745186805725098 4.38138484954834
-13.336776733398438 -1.0766613483428955 2.8014495372772217
-12.964506149291992 -2.1069469451904297 2.750034809112549
-13.512324333190918 -3.33050274848938 2.9137914180755615
-13.336854934692383 -5.682303428649902 3.035266160964966
-8.777212142944336 -23.14358901977539 5.182425022125244
1.140834927558899 -28.30958366394043 5.9320831298828125
3.2890625 -27.0880126953125 5.713163375854492
3.344189405441284 -3.48168683052063 1.010770559310913
19.77272605895996 -1.5962145328521729 4.153351306915283
-14.749740600585938 -3.662109293145477e-06 2.9179766178131104
-16.271244049072266 -5.432144641876221 3.3936309814453125
-16.0068302154541 -23.18986701965332 5.574487209320068
-13.364062309265137 -23.147216796875 5.287692546844482
-6.77050256729126 -23.374427795410156 4.814302444458008
-4.727114200592041 -23.15483856201172 4.675266742706299
-1.1648144721984863 -28.904090881347656 5.722810745239258
3.3463330268859863 -3.483919620513916 0.9556683301925659
19.5567569732666 -4.820315837860107 3.9847545623779297
21.074647903442383 -1.7013170719146729 4.182817459106445
-14.858505249023438 -3.662109293145477e-06 2.7687652111053467
-13.73061466217041 -1.1084545850753784 2.5669145584106445
-15.999369621276855 -3.943502187728882 3.0705809593200684
-14.144423484802246 -6.026368141174316 2.864955425262451
-6.032021522521973 -3.814415216445923 1.3299016952514648
-16.0068359375 -23.18986701965332 5.250712871551514
-13.364067077636719 -23.147220611572266 4.980574607849121
-11.085619926452637 -23.36244010925293 4.8186469078063965
-8.777212142944336 -23.14358901977539 4.612357139587402
3.4176220893859863 -28.14681625366211 5.28346061706543
22.01556396484375 -7.34986686706543 4.325009822845459
19.83846092224121 -4.88975191116333 3.8073766231536865
20.336429595947266 -3.3049914836883545 3.839250326156616
21.124563217163086 -1.7053465843200684 3.949202299118042
-15.0618257522583 -2.441406195430318e-06 2.6342973709106445
-13.957347869873047 -1.1267577409744263 2.4490671157836914
-13.427387237548828 -2.182171583175659 2.3792479038238525
-16.089691162109375 -23.30990219116211 4.9537811279296875
-13.364062309265137 -23.14723014831543 4.674722671508789
-11.085619926452637 -23.36244010925293 4.522737979888916
-8.777212142944336 -23.14358901977539 4.329113006591797
-6.759311199188232 -23.335790634155273 4.249173641204834
3.3937060832977295 -27.94988250732422 4.924310207366943
3.350600481033325 -3.4883618354797363 0.8459612727165222
22.921693801879883 -3.725135326385498 4.061575412750244
-14.231049537658691 -1.1488561630249023 2.3343493938446045
-16.34798240661621 -4.029425144195557 2.7528905868530273
-14.606273651123047 -4.876297473907471 2.5176963806152344
-6.030644416809082 -3.8135435581207275 1.1666152477264404
-13.364067077636719 -23.147226333618164 4.370054721832275
-11.067309379577637 -23.323843002319336 4.220988750457764
-8.777212142944336 -23.14358901977539 4.046969890594482
1.1289647817611694 -28.01506233215332 4.584183216094971
3.4689793586730957 -28.569746017456055 4.7054667472839355
3.352729320526123 -3.4905736446380615 0.7913287281990051
21.10377311706543 -5.201624870300293 3.553738832473755
20.18697738647461 -1.6296569108963013 3.311312675476074
-15.174570083618164 -2.441406195430318e-06 2.308697462081909
-14.853842735290527 -1.1991320848464966 2.2672553062438965
-14.122797966003418 -2.2951879501342773 2.176870107650757
-26.53437042236328 -6.540154933929443 4.157832622528076
-16.089691162109375 -23.30990219116211 4.309239864349365
-11.121039390563965 -23.437089920043945 3.9468493461608887
-8.777212142944336 -23.14358901977539 3.765850782394409
3.434267520904541 -28.283926010131836 4.334799289703369
3.354848623275757 -3.4927818775177 0.7368249297142029
21.90252113342285 -7.312127590179443 3.513108968734741
21.60625648498535 -5.325477123260498 3.3856170177459717
20.013744354248047 -3.2525486946105957 3.084894895553589
20.44137191772461 -1.6501928567886353 3.120123863220215
-6.029272556304932 -3.8126769065856934 1.004582166671753
-6.759316444396973 -23.335790634155273 3.421304941177368
-4.727114200592041 -23.15483283996582 3.328001022338867
3.355473518371582 -3.4934375286102295 0.6821328401565552
19.394643783569336 -4.780357360839844 2.8129608631134033
20.21983528137207 -3.286043643951416 2.884784460067749
20.61104393005371 -1.6638915538787842 2.911961078643799
-28.186229705810547 3.662109293145477e-06 3.6512248516082764
-18.263090133666992 -2.9680540561676025 2.3968276977539062
-27.79833984375 -6.851700305938721 3.708749294281006
-6.02859354019165 -3.8122472763061523 0.9239810109138489
-13.364062309265137 -23.147226333618164 3.462343692779541
3.67559552192688 -3.2563023567199707 0.6361089944839478
20.482973098754883 -1.6535509824752808 2.661982297897339
-13.364067077636719 -23.147226333618164 3.161607503890991
-11.121045112609863 -23.437089920043945 3.0685856342315674
-6.759311199188232 -23.335790634155273 2.87380051612854
-4.727104187011719 -23.15483283996582 2.795424699783325
1.1849365234375 -29.404125213623047 3.4809672832489014
3.5551366806030273 -29.27927589416504 3.4888153076171875
3.3555662631988525 -3.4935338497161865 0.5729888677597046
3.676401376724243 -3.2570226192474365 0.5809850692749023
20.849130630493164 -6.960454940795898 2.6000008583068848
20.17664909362793 -4.973106384277344 2.4580764770507812
20.598962783813477 -3.34765625 2.4685699939727783
20.99954605102539 -1.695253849029541 2.49206805229187
-29.13558006286621 3.662109293145477e-06 3.11940860748291
-6.027235984802246 -3.8113903999328613 0.7635064721107483
-16.167821884155273 -23.4230899810791 3.047205686569214
-11.121039390563965 -23.437089920043945 2.7774603366851807
-8.777216911315918 -23.14358901977539 2.6500885486602783
-4.727109432220459 -23.15483283996582 2.53021240234375
3.3556151390075684 -3.493581533432007 0.5186343193054199
3.6772117614746094 -3.2577390670776367 0.5259811282157898
-6.026562213897705 -3.8109631538391113 0.6835913062095642
-18.873271942138672 -23.115575790405273 2.860910654067993
-16.16781234741211 -23.4230899810791 2.728564500808716
-8.744497299194336 -23.057342529296875 2.3641276359558105
-4.726166725158691 -23.150203704833984 2.26517915725708
3.355659008026123 -3.493628978729248 0.4644073247909546
3.6780271530151367 -3.2584569454193115 0.4710836708545685
23.2287540435791 -3.7750377655029297 2.256148099899292
-29.00653839111328 -2.3416528701782227 2.464780330657959
-6.025893211364746 -3.8105359077453613 0.603863537311554
-15.901644706726074 -23.037485122680664 2.3709118366241455
-10.976679801940918 -23.132850646972656 2.1686851978302
-8.775453567504883 -23.13896369934082 2.096024751663208
22.094257354736328 -7.376136302947998 1.9728628396987915
21.156869888305664 -5.214713096618652 1.8455679416656494
-6.025219440460205 -3.8101134300231934 0.5243029594421387
-15.957934379577637 -23.119028091430664 2.0660555362701416
-13.35196304321289 -23.126258850097656 1.9639867544174194
-8.775453567504883 -23.13896369934082 1.820070743560791
-6.703969478607178 -23.144710540771484 1.772188425064087
3.679638624191284 -3.2598865032196045 0.3615524172782898
-6.024550437927246 -3.8096885681152344 0.44488951563835144
-18.869497299194336 -23.110946655273438 1.8621703386306763
-13.35196304321289 -23.126264572143555 1.666697382926941
-10.881903648376465 -22.933115005493164 1.5843114852905273
3.3518261909484863 -3.4896373748779297 0.30199798941612244
-6.023876667022705 -3.8092639446258545 0.3656039237976074
-18.70657730102539 -22.911405563354492 1.5172598361968994
-15.820146560668945 -22.91941261291504 1.4285677671432495
-13.32872486114502 -23.08601951599121 1.3674359321594238
-6.703964710235596 -23.144716262817383 1.2360470294952393
3.3503124713897705 -3.4880638122558594 0.24809294939041138
-15.957934379577637 -23.11903190612793 1.1290576457977295
-13.35196304321289 -23.126264572143555 1.073278784751892
-10.976679801940918 -23.132850646972656 1.0291118621826172
-8.775453567504883 -23.13896369934082 0.9946319460868835
-4.726166725158691 -23.150209426879883 0.9496404528617859
3.348808526992798 -3.4864940643310547 0.19429808855056763
-18.8695068359375 -23.110952377319336 0.8681304454803467
-15.957929611206055 -23.119028091430664 0.8173840045928955
-13.35196304321289 -23.126264572143555 0.7770025730133057
-10.976675033569336 -23.132850646972656 0.7450274229049683
-4.726161956787109 -23.150209426879883 0.6874945163726807
-6.021874904632568 -3.8079967498779297 0.1283136010169983
-16.072938919067383 -23.28564453125 0.5095565915107727
-5.182822227478027 -25.387020111083984 0.466631144285202
-13.448187828063965 -23.29292869567871 0.18628203868865967
-11.0557861328125 -23.299570083618164 0.17861662805080414
-8.838696479797363 -23.305721282958984 0.17263182997703552
-6.752280235290527 -23.31150245666504 0.16809050738811493
23.20496940612793 -3.7711730003356934 0.16282348334789276
-6.020541667938232 -3.807152032852173 -0.029601439833641052
23.160831451416016 -3.764002561569214 -0.0975094586610794
-6.019873142242432 -3.806732177734375 -0.10853332281112671
-16.072938919067383 -23.28564453125 -0.4311511218547821
-6.752280235290527 -23.31150245666504 -0.3698260486125946
-5.174155235290527 -25.344608306884766 -0.3941712975502014
3.3581883907318115 -3.4962573051452637 -0.07387145608663559
3.706904172897339 -3.2840416431427 -0.07546493411064148
-21.67387580871582 -7.235804080963135 -0.6015074253082275
-16.07294464111328 -23.28564453125 -0.7448270916938782
-13.448187828063965 -23.29292869567871 -0.7080304026603699
-11.055790901184082 -23.29957389831543 -0.6788943409919739
-8.838701248168945 -23.305721282958984 -0.656148374080658
-5.174164772033691 -25.344608306884766 -0.680942952632904
3.3616161346435547 -3.499829053878784 -0.12774565815925598
-16.07294464111328 -23.28564453125 -1.0586931705474854
-11.0557861328125 -23.29957389831543 -0.9649761915206909
-5.174155235290527 -25.344608306884766 -0.9678881764411926
3.367934465408325 -3.50640606880188 -0.18191802501678467
3.7188572883605957 -3.294631242752075 -0.18590208888053894
17.349679946899414 -13.037445068359375 -0.8120388388633728
23.108633041381836 -3.755516290664673 -0.8760057091712952
-23.106000900268555 -3.755096435546875 -1.1357969045639038
-20.65190315246582 -10.838943481445312 -1.1316392421722412
-11.055781364440918 -23.29957389831543 -1.25129234790802
3.3759374618530273 -3.514739990234375 -0.2364555299282074
17.033823013305664 -12.800093650817871 -1.033807635307312
18.861169815063477 -11.927088737487793 -1.0827528238296509
-23.103368759155273 -3.754669189453125 -1.395806908607483
-20.851781845092773 -6.961343765258789 -1.3109257221221924
-18.8695068359375 -23.110946655273438 -1.7792083024978638
-15.957929611206055 -23.119028091430664 -1.675203561782837
-13.351957321166992 -23.126258850097656 -1.592443823814392
-6.7430419921875 -23.27959442138672 -1.445304036140442
-5.174160003662109 -25.344608306884766 -1.5425585508346558
3.383989095687866 -3.5231237411499023 -0.2913118004798889
3.729799747467041 -3.304326057434082 -0.29715055227279663
17.195886611938477 -12.921873092651367 -1.2827035188674927
18.785335540771484 -11.879143714904785 -1.3254215717315674
-16.2431583404541 -4.003592491149902 -1.1837961673736572
-18.573129653930664 -7.913265228271484 -1.4285885095596313
-15.957934379577637 -23.119028091430664 -1.9878273010253906
-13.351957321166992 -23.12625503540039 -1.8896231651306152
-6.703969478607178 -23.144716262817383 -1.7050879001617432
-5.174155235290527 -25.344608306884766 -1.8304286003112793
3.386728525161743 -3.525972843170166 -0.34595534205436707
18.766618728637695 -11.867310523986816 -1.571202039718628
23.131505966186523 -3.7592320442199707 -1.6583062410354614
-20.829627990722656 -6.953948974609375 -1.7986845970153809
-20.09184455871582 -10.545013427734375 -1.8585717678070068
-22.91312026977539 -17.21809196472168 -2.347599983215332
-18.126768112182617 -22.20127296447754 -2.347599983215332
-10.976675033569336 -23.13284683227539 -2.097261667251587
-5.174145221710205 -25.344608306884766 -2.1187496185302734
-3.4547412395477295 -28.452392578125 -2.347599983215332
1.1540673971176147 -28.63813018798828 -2.347599983215332
3.4547362327575684 -28.452430725097656 -2.347599983215332
3.3893847465515137 -3.5287389755249023 -0.4007630944252014
3.7405028343200684 -3.3138110637664795 -0.4093165397644043
18.74698257446289 -11.854893684387207 -1.8167884349822998
20.568889617919922 -5.069798469543457 -1.7351785898208618
23.153995513916016 -3.7628893852233887 -1.9213826656341553
28.66115379333496 -2.3137707710266113 -2.355220079421997
-26.86014175415039 6.103515261202119e-06 -2.5
-26.77303695678711 -2.161344051361084 -2.5
-18.501718521118164 -7.882845401763916 -1.8718262910842896
-20.09184455871582 -10.545013427734375 -2.111952781677246
-6.015190124511719 -3.8037731647491455 -0.6624088883399963
-21.422510147094727 -16.097957611083984 -2.4941024780273438
-12.611376762390137 -21.84354019165039 -2.347599983215332
-10.812807083129883 -22.787519454956055 -2.347599983215332
-6.703964710235596 -23.144716262817383 -2.2427351474761963
-4.859414100646973 -23.802885055541992 -2.2611427307128906
-3.0402636528015137 -25.038843154907227 -2.347599983215332
9.524731636047363 -25.114667892456055 -2.5
11.51473617553711 -24.26681137084961 -2.5
13.43008041381836 -23.261571884155273 -2.5
15.258307456970215 -22.105472564697266 -2.5
17.170331954956055 -12.902671813964844 -1.9990463256835938
18.746978759765625 -11.854893684387207 -2.0644712448120117
23.783477783203125 -12.482532501220703 -2.5
20.568891525268555 -5.069796085357666 -1.9717379808425903
22.84356117248535 -3.712437629699707 -2.154050827026367
-23.899837493896484 -1.9293932914733887 -2.5
-15.776273727416992 -2.5638999938964844 -1.6664776802062988
-16.3034610748291 -4.018450736999512 -1.7507351636886597
-22.74361801147461 -7.592940330505371 -2.5
-20.091840744018555 -10.545013427734375 -2.365849018096924
-6.0145263671875 -3.8033483028411865 -0.7419605851173401
-17.930971145629883 -15.885462760925293 -2.497704029083252
-15.597329139709473 -16.238529205322266 -2.347599983215332
-11.257973670959473 -19.499353408813477 -2.347599983215332
-4.503779411315918 -22.060882568359375 -2.347599983215332
0.9066210985183716 -22.49765968322754 -2.347599983215332
4.788535118103027 -23.455814361572266 -2.4960408210754395
10.278998374938965 -21.662572860717773 -2.5
11.988808631896973 -20.765199661254883 -2.5
3.746337890625 -3.3189783096313477 -0.5218470692634583
19.16869354248047 -14.404316902160645 -2.5
18.746990203857422 -11.854888916015625 -2.312662363052368
22.05889320373535 -9.398408889770508 -2.5
15.557479858398438 -5.193856239318848 -1.7100930213928223
20.568889617919922 -5.069798469543457 -2.208778142929077
-21.648900985717773 3.662109293145477e-06 -2.5
-21.578670501708984 -1.7420141696929932 -2.5
-6.013852596282959 -3.8029234409332275 -0.8216790556907654
-17.307044982910156 -13.005403518676758 -2.5
-16.204423904418945 -14.355870246887207 -2.5
-13.237910270690918 -16.2135066986084 -2.4171359539031982
-8.714961051940918 -18.366392135620117 -2.347599983215332
-7.208823204040527 -19.008100509643555 -2.347599983215332
-5.655942440032959 -19.526538848876953 -2.347599983215332
-2.4504051208496094 -20.18095588684082 -2.347599983215332
-0.8185790777206421 -20.31268310546875 -2.347599983215332
0.8185693025588989 -20.312694549560547 -2.347599983215332
2.4504148960113525 -20.180950164794922 -2.347599983215332
4.326283931732178 -21.191553115844727 -2.497663736343384
6.02310037612915 -20.79414939880371 -2.5
7.67678689956665 -20.24207305908203 -2.5
9.280702590942383 -19.558704376220703 -2.5
3.387026309967041 -3.526280403137207 -0.5646284222602844
17.307043075561523 -13.005411148071289 -2.5
18.297433853149414 -11.570591926574707 -2.5
19.916534423828125 -8.48564338684082 -2.5
15.499245643615723 -2.5188794136047363 -1.813324213027954
-19.727996826171875 3.662109293145477e-06 -2.5
-19.66400909423828 -1.5874438285827637 -2.5
-15.776273727416992 -2.5638999938964844 -2.025453805923462
-6.013173580169678 -3.8024961948394775 -0.9015852212905884
-15.771401405334473 -11.851428985595703 -2.5
-14.766606330871582 -13.082080841064453 -2.5
-12.476855278015137 -15.281394958496094 -2.5
-9.3655366897583 -16.221555709838867 -2.3736658096313477
-7.941669940948486 -16.736738204956055 -2.347599983215332
-6.569199085235596 -17.321514129638672 -2.347599983215332
-0.7459472417831421 -18.510332107543945 -2.347599983215332
3.94610333442688 -19.32929039001465 -2.5
8.457221031188965 -17.823257446289062 -2.5
9.863993644714355 -17.084932327270508 -2.5
11.20677661895752 -16.235801696777344 -2.5
12.476869583129883 -15.281397819519043 -2.5
3.7517919540405273 -3.3238110542297363 -0.6351823210716248
15.771395683288574 -11.851436614990234 -2.5
16.67388153076172 -10.543949127197266 -2.5
17.468259811401367 -9.168047904968262 -2.5
18.14933967590332 -7.732706069946289 -2.5
18.045434951782227 -4.447813510894775 -2.355220079421997
19.66400909423828 -1.5874487161636353 -2.5
-18.11604881286621 2.441406195430318e-06 -2.5
-18.05729866027832 -1.4577429294586182 -2.5
-15.836898803710938 -3.9034581184387207 -2.250882863998413
-16.1885929107666 -5.404547214508057 -2.355220079421997
-16.666385650634766 -7.100884914398193 -2.5
-14.482748985290527 -10.883074760437012 -2.5
-12.54942798614502 -13.065340042114258 -2.5
-10.291093826293945 -14.909219741821289 -2.5
-9.058032035827637 -15.688953399658203 -2.5
-7.688315391540527 -16.202802658081055 -2.4749269485473633
-6.15062952041626 -16.217864990234375 -2.393597364425659
-4.732954025268555 -16.34004020690918 -2.347599983215332
-3.402778148651123 -16.66790199279785 -2.347599983215332
0.7021093368530273 -17.422807693481445 -2.4062845706939697
2.183183431625366 -17.980144500732422 -2.4994685649871826
5.040200233459473 -17.40079689025879 -2.5
7.766201019287109 -16.366960525512695 -2.5
10.291093826293945 -14.909219741821289 -2.5
15.311506271362305 -9.68242073059082 -2.5
16.66639518737793 -7.100884914398193 -2.5
-16.743755340576172 3.662109293145477e-06 -2.5
-15.569828987121582 -2.5303478240966797 -2.355220079421997
-15.315717697143555 -3.774996280670166 -2.355220079421997
-14.962299346923828 -4.995152473449707 -2.355220079421997
-12.0112886428833 -5.117537498474121 -1.9493895769119263
-14.8258638381958 -7.781214237213135 -2.5
-6.011821269989014 -3.8016393184661865 -1.062033772468567
-12.53287124633789 -11.103164672851562 -2.5
-11.5988130569458 -12.07563304901123 -2.5
-10.589516639709473 -12.96980094909668 -2.5
-9.511542320251465 -13.779834747314453 -2.5
-7.177909851074219 -15.127159118652344 -2.5
-3.309575080871582 -16.211326599121094 -2.4704298973083496
-1.9870946407318115 -16.365116119384766 -2.461412191390991
0.6742041110992432 -16.730175018310547 -2.5
4.658403396606445 -16.082674026489258 -2.5
5.937417030334473 -15.655689239501953 -2.5
10.58951187133789 -12.969802856445312 -2.5
3.3808445930480957 -3.5198473930358887 -0.7287057042121887
3.7570409774780273 -3.3284618854522705 -0.7494375705718994
13.38568115234375 -10.058687210083008 -2.5
14.15164566040039 -8.948975563049316 -2.5
14.82585620880127 -7.781214237213135 -2.5
14.962299346923828 -4.995152473449707 -2.355220079421997
15.456928253173828 -2.512003183364868 -2.338141679763794
-15.5610933303833 3.662109293145477e-06 -2.5
-15.510629653930664 -1.2521471977233887 -2.5
-14.470067977905273 -2.3516197204589844 -2.355220079421997
-13.778661727905273 -7.231597900390625 -2.5
-6.011142253875732 -3.8012096881866455 -1.14262056350708
-12.440195083618164 -9.348198890686035 -2.5
-11.647656440734863 -10.318914413452148 -2.5
-9.841537475585938 -12.053694725036621 -2.5
-8.839706420898438 -12.806519508361816 -2.5
-7.780541896820068 -13.476289749145508 -2.5
-6.670922756195068 -14.058670043945312 -2.5
-4.329370021820068 -14.946707725524902 -2.5
-1.8756933212280273 -15.447632789611816 -2.5
-0.6265918016433716 -15.548470497131348 -2.5
3.112612247467041 -15.246612548828125 -2.5
5.518036842346191 -14.549871444702148 -2.5
7.780531883239746 -13.476292610168457 -2.5
8.839692115783691 -12.806527137756348 -2.5
9.841532707214355 -12.053702354431152 -2.5
3.38152813911438 -3.5205602645874023 -0.7842475771903992
3.7735400199890137 -3.34307599067688 -0.8099363446235657
14.315878868103027 -6.099420070648193 -2.5
15.510629653930664 -1.2521495819091797 -2.5
-14.531054496765137 3.662109293145477e-06 -2.5
-14.483925819396973 -1.1692638397216797 -2.5
-13.291728019714355 -3.276127815246582 -2.355220079421997
-12.98500919342041 -4.335032939910889 -2.355220079421997
-12.594077110290527 -5.365836143493652 -2.355220079421997
-12.866605758666992 -6.75291109085083 -2.5
-6.010448932647705 -3.8007774353027344 -1.2234758138656616
-10.066020011901855 -10.47983455657959 -2.5
-9.19009780883789 -11.255824089050293 -2.5
-7.265522480010986 -12.584260940551758 -2.5
-2.9065771102905273 -14.237383842468262 -2.5
-1.7515331506729126 -14.425106048583984 -2.5
2.9065818786621094 -14.237391471862793 -2.5
5.152778148651123 -13.58676815032959 -2.5
7.26553201675415 -12.584260940551758 -2.5
8.254565238952637 -11.958821296691895 -2.5
3.383852481842041 -3.522979736328125 -0.8404157757759094
3.785405158996582 -3.3535852432250977 -0.8700759410858154
12.98501968383789 -4.335037708282471 -2.355220079421997
13.927374839782715 -2.263425350189209 -2.4275760650634766
14.483930587768555 -1.1692675352096558 -2.5
-13.625663757324219 2.441406195430318e-06 -2.5
-13.44921875 -2.18571400642395 -2.5
-9.731493949890137 -5.107481479644775 -2.0164811611175537
-9.438838005065918 -9.826869010925293 -2.5
-7.74026346206665 -11.213702201843262 -2.5
-6.812846660614014 -11.800174713134766 -2.5
-4.831733226776123 -12.740227699279785 -2.5
-3.790903329849243 -13.087708473205566 -2.5
-2.7254834175109863 -13.350296020507812 -2.5
-1.6424071788787842 -13.52631950378418 -2.5
0.5486425757408142 -13.614615440368652 -2.5
1.6423925161361694 -13.52631950378418 -2.5
7.740253925323486 -11.213702201843262 -2.5
8.617485046386719 -10.554508209228516 -2.5
3.386186361312866 -3.525411367416382 -0.8968777060508728
3.7973875999450684 -3.364201545715332 -0.9308263659477234
10.8929443359375 -8.18552303314209 -2.5
11.516279220581055 -7.282464504241943 -2.5
9.8092622756958 -5.14830207824707 -2.0325980186462402
-12.823442459106445 2.441406195430318e-06 -2.5
-11.72977066040039 -2.8911399841308594 -2.355220079421997
-11.459101676940918 -3.825604200363159 -2.355220079421997
-11.114106178283691 -4.735274314880371 -2.355220079421997
-6.009472370147705 -3.800157308578491 -1.3862099647521973
-10.251615524291992 -7.703585147857666 -2.5
-7.2845458984375 -10.553489685058594 -2.5
-5.497319221496582 -11.585345268249512 -2.5
-3.5677099227905273 -12.317153930664062 -2.5
-1.5457079410552979 -12.729947090148926 -2.5
-0.516357421875 -12.813047409057617 -2.5
5.497314453125 -11.585347175598145 -2.5
6.411723613739014 -11.105427742004395 -2.5
8.110116958618164 -9.933106422424316 -2.5
10.25161075592041 -7.703589916229248 -2.5
10.697035789489746 -5.614236831665039 -2.355220079421997
11.114110946655273 -4.73527193069458 -2.355220079421997
12.657387733459473 -2.057029962539673 -2.5
-10.493603706359863 -4.47089958190918 -2.355220079421997
-10.09981918334961 -5.300792217254639 -2.355220079421997
-9.679266929626465 -7.273492336273193 -2.5
-8.387158393859863 -8.731961250305176 -2.5
-7.657323837280273 -9.378539085388184 -2.5
-6.053769588470459 -10.485410690307617 -2.5
-4.293383598327637 -11.32071590423584 -2.5
-3.368520498275757 -11.629478454589844 -2.5
0.4875146448612213 -12.09769344329834 -2.5
3.3685107231140137 -11.629481315612793 -2.5
5.190390586853027 -10.938535690307617 -2.5
6.053754806518555 -10.485418319702148 -2.5
6.877851486206055 -9.964285850524902 -2.5
7.657329082489014 -9.378539085388184 -2.5
3.8147313594818115 -3.3795690536499023 -1.0523290634155273
9.679262161254883 -7.273492336273193 -2.5
10.233144760131836 -6.471053123474121 -2.5
10.8193359375 -3.612022638320923 -2.355220079421997
10.486132621765137 -2.584609270095825 -2.230011224746704
-11.464521408081055 2.441406195430318e-06 -2.5
-11.427338600158691 -0.9225097298622131 -2.5
-11.316054344177246 -1.8390392065048218 -2.5
-9.936318397521973 -4.233462810516357 -2.355220079421997
-6.008749961853027 -3.7996983528137207 -1.5502926111221313
-9.165228843688965 -6.887215614318848 -2.5
-5.731513500213623 -5.077669620513916 -1.6697622537612915
-7.941747665405273 -8.268240928649902 -2.5
-7.250669002532959 -8.88046932220459 -2.5
-6.512597560882568 -9.43510627746582 -2.5
-4.914755821228027 -10.357623100280762 -2.5
-4.065375804901123 -10.719512939453125 -2.5
-3.189628839492798 -11.011871337890625 -2.5
-1.3819042444229126 -11.380921363830566 -2.5
2.293203115463257 -11.232820510864258 -2.5
4.065361022949219 -10.719514846801758 -2.5
4.914745807647705 -10.357625961303711 -2.5
3.397465705871582 -3.537156820297241 -1.0694977045059204
9.689687728881836 -6.12739372253418 -2.5
9.563437461853027 -5.019283294677734 -2.355220079421997
10.2447509765625 -3.420198917388916 -2.355220079421997
-10.883710861206055 1.220703097715159e-06 -2.5
-9.432924270629883 -4.018985271453857 -2.355220079421997
-9.07894515991211 -4.76499605178833 -2.355220079421997
-6.008383750915527 -3.799466371536255 -1.6329247951507568
-8.700902938842773 -6.538297176361084 -2.5
-5.731513500213623 -5.077669620513916 -1.7588696479797363
-7.539403915405273 -7.849354267120361 -2.5
-6.883359432220459 -8.430582046508789 -2.5
-6.182661056518555 -8.957107543945312 -2.5
-3.8594138622283936 -10.176444053649902 -2.5
-3.0280370712280273 -10.45398998260498 -2.5
-2.1770360469818115 -10.663750648498535 -2.5
-1.3118994235992432 -10.80435848236084 -2.5
-0.43824705481529236 -10.874881744384766 -2.5
0.4382373094558716 -10.87488842010498 -2.5
1.3118847608566284 -10.804356575012207 -2.5
2.1770262718200684 -10.663750648498535 -2.5
6.182651042938232 -8.957091331481934 -2.5
6.883349418640137 -8.430582046508789 -2.5
3.403749942779541 -3.5436949729919434 -1.128653883934021
3.822397470474243 -3.386362314224243 -1.1730090379714966
8.666069030761719 -5.480096340179443 -2.355220079421997
9.078930854797363 -4.764993667602539 -2.355220079421997
9.432909965515137 -4.01899528503418 -2.355220079421997
10.742758750915527 -1.7458739280700684 -2.5
10.84841251373291 -0.8757750988006592 -2.5
-10.35635757446289 2.441406195430318e-06 -2.5
-10.322782516479492 -0.8333398103713989 -2.5
-9.4730806350708 -2.3349132537841797 -2.355220079421997
-7.529506683349609 -2.513723134994507 -1.9162237644195557
-8.97586441040039 -3.824256420135498 -2.355220079421997
-5.88528299331665 -3.7216222286224365 -1.6809145212173462
-8.279311180114746 -6.221495151519775 -2.5
-6.549838542938232 -8.022086143493652 -2.5
-4.439692497253418 -9.356451034545898 -2.5
-3.6724071502685547 -9.68336009979248 -2.5
-1.2483251094818115 -10.280845642089844 -2.5
2.071542978286743 -10.147061347961426 -2.5
4.439677715301514 -9.35645580291748 -2.5
5.883076190948486 -8.523111343383789 -2.5
3.4100828170776367 -3.5502891540527344 -1.188333511352539
3.830888509750366 -3.393882989883423 -1.2354772090911865
8.246176719665527 -5.214571475982666 -2.355220079421997
8.6390380859375 -4.534110069274902 -2.355220079421997
8.97586441040039 -3.824254035949707 -2.355220079421997
9.473085403442383 -2.334914445877075 -2.355220079421997
-9.843276023864746 -0.794628918170929 -2.5
-9.203930854797363 -2.268571615219116 -2.3997726440429688
-7.529506683349609 -2.513723134994507 -2.009568691253662
-6.024872779846191 -2.5669567584991455 -1.657902479171753
-8.237744331359863 -4.323502063751221 -2.355220079421997
-7.43752908706665 -5.588948726654053 -2.355220079421997
-5.731513500213623 -5.077669620513916 -1.9384738206863403
-6.840873718261719 -7.122088432312012 -2.5
-4.141830921173096 -5.072825908660889 -1.657902479171753
-3.5018310546875 -9.233565330505371 -2.5
-0.3976464867591858 -9.867291450500488 -2.5
1.1903369426727295 -9.80329704284668 -2.5
2.7474706172943115 -9.485405921936035 -2.5
4.937646389007568 -8.55225944519043 -2.5
5.609809398651123 -8.127218246459961 -2.5
3.411210775375366 -3.5514636039733887 -1.2466328144073486
3.8394579887390137 -3.4014782905578613 -1.2985605001449585
7.863134384155273 -4.972357273101807 -2.355220079421997
8.82460880279541 -2.946096181869507 -2.355220079421997
9.203930854797363 -2.268575429916382 -2.399770975112915
9.843276023864746 -0.79463130235672 -2.5
-9.312426567077637 -1.5134203433990479 -2.5
-7.529506683349609 -2.513723134994507 -2.1034369468688965
-5.885156154632568 -2.5074291229248047 -1.6951024532318115
-5.862113952636719 -3.7069690227508545 -1.8378701210021973
-7.10561990737915 -5.339534759521484 -2.355220079421997
-4.117992877960205 -5.043629169464111 -1.7253559827804565
-5.359472751617432 -7.764527320861816 -2.5
-4.044536113739014 -8.523690223693848 -2.5
-3.3455564975738525 -8.821504592895508 -2.5
-2.6248631477355957 -9.062100410461426 -2.5
-1.887182593345642 -9.243931770324707 -2.5
-0.37989744544029236 -9.426949501037598 -2.5
0.3798877000808716 -9.426949501037598 -2.5
1.1372168064117432 -9.365814208984375 -2.5
1.8871630430221558 -9.24393367767334 -2.5
2.624882698059082 -9.062100410461426 -2.5
4.124477386474609 -5.051580905914307 -1.7280770540237427
3.411625862121582 -3.5518932342529297 -1.3050220012664795
7.105634689331055 -5.339537143707275 -2.355220079421997
7.512226581573486 -4.750452995300293 -2.355220079421997
7.870126724243164 -4.130557537078857 -2.355220079421997
8.176977157592773 -3.4838855266571045 -2.355220079421997
9.312426567077637 -1.5134228467941284 -2.5
-8.912348747253418 -1.448403239250183 -2.5
-8.766899108886719 -2.1608519554138184 -2.5
-5.852968692779541 -3.7011876106262207 -1.917372226715088
-5.731513500213623 -5.077672004699707 -2.1201040744781494
-3.2018260955810547 -8.442525863647461 -2.5
-2.5121045112609863 -8.672781944274902 -2.5
-1.8061034679412842 -8.846800804138184 -2.5
0.36356931924819946 -9.021956443786621 -2.5
1.806093692779541 -8.846793174743652 -2.5
3.2018163204193115 -8.442530632019043 -2.5
3.8707761764526367 -8.157515525817871 -2.5
4.514638423919678 -7.819591045379639 -2.5
5.129218578338623 -7.430953025817871 -2.5
4.124477386474609 -5.051580905914307 -1.805649995803833
3.4132080078125 -3.5535411834716797 -1.3642362356185913
7.189511775970459 -4.546365737915039 -2.355220079421997
7.532016277313232 -3.953104257583618 -2.355220079421997
7.82568359375 -3.3342113494873047 -2.355220079421997
8.068598747253418 -2.693695068359375 -2.355220079421997
8.999990463256836 -0.7265539169311523 -2.5
-8.6551513671875 1.220703097715159e-06 -2.5
-8.403637886047363 -2.0713183879852295 -2.5
-7.529506683349609 -2.513723134994507 -2.292865037918091
-5.843789100646973 -3.6953845024108887 -1.9971222877502441
-5.731513500213623 -5.077669620513916 -2.211747169494629
-4.907362937927246 -5.109105110168457 -2.046221971511841
-4.916684627532959 -7.123050212860107 -2.5
-4.327573299407959 -7.495582103729248 -2.5
-2.408012628555298 -8.313433647155762 -2.5
-1.0432714223861694 -8.592040061950684 -2.5
0.3485058546066284 -8.648131370544434 -2.5
1.0432616472244263 -8.592044830322266 -2.5
1.7312597036361694 -8.480230331420898 -2.5
4.327573299407959 -7.49558687210083 -2.5
4.916684627532959 -7.123050212860107 -2.5
4.124472618103027 -5.051580905914307 -1.883699655532837
3.4153709411621094 -3.5557920932769775 -1.4241083860397339
3.8706493377685547 -3.4291064739227295 -1.493656873703003
6.518593788146973 -4.898404598236084 -2.355220079421997
6.891611099243164 -4.357991695404053 -2.355220079421997
8.403642654418945 -2.0713207721710205 -2.5
-8.281733512878418 -0.6685680747032166 -2.5
-8.067231178283691 -1.9884008169174194 -2.5
-7.424663066864014 -2.478721857070923 -2.355220079421997
-5.83458948135376 -3.6895642280578613 -2.077127456665039
-6.257651329040527 -4.70231294631958 -2.355220079421997
-4.117992877960205 -5.043629169464111 -1.9591623544692993
-4.719872951507568 -6.837906360626221 -2.5
-4.154340744018555 -7.195526123046875 -2.5
-2.4219141006469727 -5.10410737991333 -1.6998989582061768
-2.946293830871582 -7.76875114440918 -2.5
-2.3116111755371094 -7.980638027191162 -2.5
-1.0015087127685547 -8.248101234436035 -2.5
-0.3345605432987213 -8.301941871643066 -2.5
2.3116259574890137 -7.980638027191162 -2.5
4.124472618103027 -5.051580905914307 -1.9622509479522705
6.257646560668945 -4.702315330505371 -2.355220079421997
6.615736961364746 -4.183538913726807 -2.355220079421997
6.930917739868164 -3.6376256942749023 -2.355220079421997
6.045497894287109 -2.5757434368133545 -1.9772509336471558
7.4246826171875 -2.478719472885132 -2.355220079421997
8.067231178283691 -1.9884033203125 -2.5
8.281728744506836 -0.6685717701911926 -2.5
-7.754731178283691 -1.911375641822815 -2.5
-6.662431716918945 -3.4967100620269775 -2.355220079421997
-5.632006645202637 -4.989522457122803 -2.355220079421997
-5.212255954742432 -5.426534175872803 -2.355220079421997
-4.537031173706055 -6.57301139831543 -2.5
-3.993408203125 -6.916778564453125 -2.5
-2.4219141006469727 -5.10410737991333 -1.7684035301208496
-2.222060441970825 -7.671478271484375 -2.5
-1.5975780487060547 -7.825403690338135 -2.5
-0.9627148509025574 -7.928582668304443 -2.5
2.2220799922943115 -7.671480655670166 -2.5
2.397040843963623 -5.051651477813721 -1.750229001045227
3.993398427963257 -6.916785717010498 -2.5
4.537031173706055 -6.573016166687012 -2.5
3.425971508026123 -3.5668296813964844 -1.5480687618255615
6.922197341918945 -2.9492688179016113 -2.355220079421997
7.754726409912109 -1.911375641822815 -2.5
-5.816459655761719 -3.6781041622161865 -2.2381515502929688
-5.42056131362915 -4.802200794219971 -2.355220079421997
-5.016567230224609 -5.222804069519043 -2.355220079421997
-2.4219141006469727 -5.10410737991333 -1.8373847007751465
-2.725830078125 -7.187432765960693 -2.5
-2.1386570930480957 -7.383467674255371 -2.5
-1.5376074314117432 -7.531612396240234 -2.5
-0.9265673756599426 -7.630918979644775 -2.5
-0.30952635407447815 -7.680733680725098 -2.5
0.30952146649360657 -7.680730819702148 -2.5
2.1386570930480957 -7.383467674255371 -2.5
3.5395848751068115 -5.127994060516357 -2.0264737606048584
4.124477386474609 -5.051580905914307 -2.1209568977355957
5.789399147033691 -4.350455284118652 -2.355220079421997
6.412299633026123 -3.365429639816284 -2.355220079421997
6.662309646606445 -2.838543653488159 -2.355220079421997
6.869115829467773 -2.2932446002960205 -2.355220079421997
7.463608264923096 -1.8396203517913818 -2.5
7.587407112121582 -1.2330797910690308 -2.5
-7.4068603515625 0.0 -2.5
-6.786777019500732 -2.2657556533813477 -2.414983034133911
-6.178652286529541 -3.242802619934082 -2.355220079421997
-5.807353496551514 -3.672339916229248 -2.3191494941711426
-5.578456878662109 -4.191934585571289 -2.355220079421997
-5.223056316375732 -4.627220153808594 -2.355220079421997
-4.833779335021973 -5.032498836517334 -2.355220079421997
-2.4219141006469727 -5.10410737991333 -1.9068658351898193
-2.060737371444702 -7.114434719085693 -2.5
-1.4815771579742432 -7.257181167602539 -2.5
-0.8928076028823853 -7.352867126464844 -2.5
0.2982421815395355 -7.400867938995361 -2.5
0.8927929401397705 -7.352872371673584 -2.5
2.626518487930298 -6.925548076629639 -2.5
2.397040843963623 -5.051651477813721 -1.8872684240341187
2.9581592082977295 -5.12370491027832 -1.996908187866211
4.124477386474609 -5.051580905914307 -2.2011609077453613
6.178647518157959 -3.242802619934082 -2.355220079421997
6.786782264709473 -2.2657580375671387 -2.4149837493896484
7.191650390625 -1.7725902795791626 -2.5
7.310961723327637 -1.188146948814392 -2.5
-7.052050590515137 -1.1460741758346558 -2.5
-6.936982154846191 -1.7098193168640137 -2.5
-6.745946884155273 -2.252126455307007 -2.488579511642456
-5.885156154632568 -2.5074291229248047 -2.238424062728882
-5.688832759857178 -3.5974011421203613 -2.355220079421997
-5.380922794342041 -4.043489933013916 -2.355220079421997
-4.662612438201904 -4.85429048538208 -2.355220079421997
-3.82354474067688 -5.539366245269775 -2.355220079421997
-3.5722899436950684 -6.18739128112793 -2.5
-2.533500909805298 -6.680301189422607 -2.5
-1.987758755683899 -6.862503528594971 -2.5
-1.0445067882537842 -5.116272926330566 -1.8271868228912354
-0.2876855432987213 -7.138792514801025 -2.5
0.2876855432987213 -7.138792514801025 -2.5
2.397040843963623 -5.051651477813721 -1.9565517902374268
3.5722851753234863 -6.18739128112793 -2.5
3.82354474067688 -5.539368629455566 -2.355220079421997
4.0045166015625 -2.532308340072632 -1.657902479171753
5.959853172302246 -3.1279711723327637 -2.355220079421997
6.936986923217773 -1.7098205089569092 -2.5
7.121430397033691 -0.5749047994613647 -2.5
-6.898422718048096 0.0 -2.5
-6.876054763793945 -0.5550951957702637 -2.5
-6.697958946228027 -1.650905728340149 -2.5
-6.543398380279541 -2.184504270553589 -2.5
-5.856396198272705 -2.495175838470459 -2.3069756031036377
-5.754506587982178 -3.020197629928589 -2.355220079421997
-5.492812156677246 -3.4734435081481934 -2.355220079421997
-3.6918017864227295 -5.348502159118652 -2.355220079421997
-3.24944806098938 -5.62822151184082 -2.355220079421997
-2.4462010860443115 -6.45012092590332 -2.5
-1.9192675352096558 -6.626043319702148 -2.5
-0.6214892268180847 -5.118336200714111 -1.868519902229309
0.2777734398841858 -6.892813682556152 -2.5
0.8315087556838989 -6.848114013671875 -2.5
1.0451366901397705 -5.119402885437012 -1.8935503959655762
1.9192626476287842 -6.626046180725098 -2.5
2.397040843963623 -5.051651477813721 -2.026374101638794
4.094995021820068 -5.015474796295166 -2.3465089797973633
3.460927724838257 -3.6032261848449707 -1.8106049299240112
3.9414989948272705 -3.491874933242798 -1.908333420753479
5.195502758026123 -3.9041662216186523 -2.355220079421997
3.9458348751068115 -2.4952001571655273 -1.691904902458191
4.943881511688232 -2.5947508811950684 -2.023446798324585
6.697958946228027 -1.650905728340149 -2.5
6.80908203125 -1.1065856218338013 -2.5
-6.580507755279541 -1.0694396495819092 -2.5
-5.561337947845459 -2.9188122749328613 -2.355220079421997
-5.308437347412109 -3.356846809387207 -2.355220079421997
-5.021103382110596 -3.773108959197998 -2.355220079421997
-3.56787109375 -5.16895866394043 -2.355220079421997
-2.364091634750366 -6.233599662780762 -2.5
-1.3335497379302979 -6.532103061676025 -2.5
-0.26844725012779236 -6.661431789398193 -2.5
0.26844725012779236 -6.661431789398193 -2.5
2.397040843963623 -5.051651477813721 -2.0967588424682617
3.140371084213257 -5.439292907714844 -2.355220079421997
2.9992430210113525 -4.34516716003418 -1.9798589944839478
3.46929669380188 -3.6119372844696045 -1.8780262470245361
3.9375975131988525 -3.4884214401245117 -1.9726672172546387
4.121449947357178 -3.097073793411255 -1.9332245588302612
3.9458348751068115 -2.495201349258423 -1.75067138671875
6.323750019073486 -2.1111743450164795 -2.5
6.580512523651123 -1.0694408416748047 -2.5
-6.427660942077637 -0.5188977122306824 -2.5
-6.261181354522705 -1.5432482957839966 -2.5
-5.588979244232178 -2.381240129470825 -2.355220079421997
-4.058334827423096 -2.566342830657959 -1.8615355491638184
-4.856709003448486 -3.649573802947998 -2.355220079421997
-4.547285079956055 -4.028543472290039 -2.355220079421997
-4.208378791809082 -4.381387710571289 -2.355220079421997
-3.842177629470825 -4.705813884735107 -2.355220079421997
-3.451054573059082 -4.999720573425293 -2.355220079421997
-3.037553548812866 -5.261202335357666 -2.355220079421997
-2.4219141006469727 -5.10410737991333 -2.1902425289154053
-1.7941112518310547 -6.193953514099121 -2.5
-0.777294933795929 -6.401541709899902 -2.5
-0.25966307520866394 -6.443326473236084 -2.5
0.25965818762779236 -6.443331241607666 -2.5
0.7772851586341858 -6.401544094085693 -2.5
2.397040843963623 -5.051651477813721 -2.1677327156066895
3.037548780441284 -5.261204719543457 -2.355220079421997
2.9992430210113525 -4.34516716003418 -2.046875476837158
3.721074104309082 -4.557501316070557 -2.28098726272583
3.4699363708496094 -3.6125988960266113 -1.9419509172439575
3.9370603561401367 -3.4879443645477295 -2.039163827896118
6.365058422088623 -1.0344250202178955 -2.5
-6.24242639541626 0.0 -2.5
-6.222187519073486 -0.5023083090782166 -2.5
-5.921162128448486 -1.9767736196517944 -2.5
-4.701449871063232 -3.5329089164733887 -2.355220079421997
-4.401918888092041 -3.899761915206909 -2.355220079421997
-4.073847770690918 -4.241322040557861 -2.355220079421997
-3.719350576400757 -4.555384635925293 -2.355220079421997
-2.9404492378234863 -5.093013763427734 -2.355220079421997
-2.0854101181030273 -5.498746395111084 -2.355220079421997
-1.6361767053604126 -5.648719310760498 -2.355220079421997
-1.2486572265625 -6.116261005401611 -2.5
-0.25136229395866394 -6.237349510192871 -2.5
1.6361767053604126 -5.64872407913208 -2.355220079421997
2.085405111312866 -5.498748779296875 -2.355220079421997
2.397040843963623 -5.051651477813721 -2.2393176555633545
4.121449947357178 -3.097073793411255 -2.064664363861084
3.9458348751068115 -2.4952001571655273 -1.869700312614441
5.207284927368164 -2.7329955101013184 -2.355220079421997
5.410322189331055 -2.305119514465332 -2.355220079421997
5.921166896820068 -1.9767712354660034 -2.5
6.06102991104126 -1.4939160346984863 -2.5
6.222182273864746 -0.5023095607757568 -2.5
-6.047387599945068 0.0 -2.5
-5.969067096710205 -0.9700695872306824 -2.5
-5.871650218963623 -1.447237491607666 -2.5
-5.736156940460205 -1.915008544921875 -2.5
-5.327133655548096 -2.269676446914673 -2.393803834915161
-5.044589519500732 -2.647603750228882 -2.355220079421997
-4.815180778503418 -3.044936418533325 -2.355220079421997
-4.554555416107178 -3.4225218296051025 -2.355220079421997
-4.264384746551514 -3.777916193008423 -2.355220079421997
-3.9465575218200684 -4.108804702758789 -2.355220079421997
-2.84856915473938 -4.933882713317871 -2.355220079421997
-2.020253896713257 -5.326937198638916 -2.355220079421997
-1.1395848989486694 -5.582025051116943 -2.355220079421997
-0.6867235898971558 -5.65562629699707 -2.355220079421997
-0.2294042855501175 -5.692542552947998 -2.355220079421997
0.2293994128704071 -5.692542552947998 -2.355220079421997
1.1395800113677979 -5.582025051116943 -2.355220079421997
1.5850536823272705 -5.472227573394775 -2.355220079421997
2.0202441215515137 -5.326941967010498 -2.355220079421997
2.9992430210113525 -4.345164775848389 -2.182666301727295
3.4702391624450684 -3.6129186153411865 -2.070964813232422
5.044579982757568 -2.647603750228882 -2.355220079421997
5.969062328338623 -0.9700695872306824 -2.5
6.027773380279541 -0.48661619424819946 -2.5
-5.862519264221191 1.220703097715159e-06 -2.5
-5.843515396118164 -0.4717395007610321 -2.5
-5.786606311798096 -0.940417468547821 -2.5
-5.69216775894165 -1.4030004739761353 -2.5
-5.560815334320068 -1.8564709424972534 -2.5
-5.29983377456665 -2.2580418586730957 -2.4566280841827393
-4.890380859375 -2.566671133041382 -2.355220079421997
-4.415331840515137 -3.317903995513916 -2.355220079421997
-3.825917959213257 -3.9832067489624023 -2.355220079421997
-3.492997884750366 -4.27815055847168 -2.355220079421997
-2.367666006088257 -4.989766597747803 -2.355220079421997
-1.95849609375 -5.164102554321289 -2.355220079421997
-1.5366064310073853 -5.304947376251221 -2.355220079421997
0.22238768637180328 -5.518528938293457 -2.355220079421997
0.6657274961471558 -5.482745170593262 -2.355220079421997
1.1047461032867432 -5.411392688751221 -2.355220079421997
1.5366015434265137 -5.304949760437012 -2.355220079421997
1.9584912061691284 -5.16410493850708 -2.355220079421997
4.121445178985596 -3.097073793411255 -2.198458433151245
5.29983377456665 -2.258044481277466 -2.4566283226013184
5.786606311798096 -0.9404162168502808 -2.5
-5.687031269073486 -1.220703097715159e-06 -2.5
-5.668588638305664 -0.45761838555336 -2.5
-5.231943130493164 -2.229120969772339 -2.5
-4.283154010772705 -3.218581438064575 -2.355220079421997
-4.010273456573486 -3.5527942180633545 -2.355220079421997
-3.388427734375 -4.150081634521484 -2.355220079421997
-2.6788330078125 -4.63987922668457 -2.355220079421997
-1.899868130683899 -5.009512901306152 -2.355220079421997
-1.071679711341858 -5.24940299987793 -2.355220079421997
-0.6457958817481995 -5.318612098693848 -2.355220079421997
0.6457958817481995 -5.318612098693848 -2.355220079421997
1.0716748237609863 -5.24940299987793 -2.355220079421997
1.4906054735183716 -5.146146297454834 -2.355220079421997
1.8998632431030273 -5.009517669677734 -2.355220079421997
2.296801805496216 -4.840396404266357 -2.355220079421997
2.9249560832977295 -4.237542629241943 -2.2634830474853516
2.977060556411743 -3.0994603633880615 -1.8892202377319336
3.508232355117798 -3.108036994934082 -2.0603723526000977
5.231947898864746 -2.229120969772339 -2.5
5.394350528717041 -1.8009008169174194 -2.5
5.521767616271973 -1.360998511314392 -2.5
-5.520161151885986 2.441406195430318e-06 -2.5
-5.448676586151123 -0.8854967951774597 -2.5
-5.359750747680664 -1.3210644721984863 -2.5
-4.604794979095459 -2.4167797565460205 -2.355220079421997
-3.8926122188568115 -3.4485533237457275 -2.355220079421997
-3.602490186691284 -3.750591993331909 -2.355220079421997
-2.2293944358825684 -4.698372840881348 -2.355220079421997
-1.0402343273162842 -5.095376968383789 -2.355220079421997
0.20939452946186066 -5.196258544921875 -2.355220079421997
1.0402294397354126 -5.09537935256958 -2.355220079421997
1.4468700885772705 -4.995152473449707 -2.355220079421997
2.2294139862060547 -4.698372840881348 -2.355220079421997
2.6002490520477295 -4.503741264343262 -2.355220079421997
2.9249560832977295 -4.237545013427734 -2.331904411315918
2.9869678020477295 -3.6583800315856934 -2.1389284133911133
2.977055549621582 -3.0994603633880615 -1.9463279247283936
4.604789733886719 -2.4167821407318115 -2.355220079421997
5.078437328338623 -2.163717031478882 -2.5
5.502260684967041 -0.44419065117836 -2.5
-5.361269474029541 1.220703097715159e-06 -2.5
-5.085361003875732 -1.6977441310882568 -2.5
-4.219086647033691 -2.667999267578125 -2.3277549743652344
-3.7805614471435547 -3.3492894172668457 -2.355220079421997
-3.498793840408325 -3.6426353454589844 -2.355220079421997
-1.7910399436950684 -4.722564697265625 -2.355220079421997
-0.20337890088558197 -5.046690464019775 -2.355220079421997
1.010288119316101 -4.94871187210083 -2.355220079421997
2.525405168533325 -4.374107360839844 -2.355220079421997
2.977055549621582 -3.0994603633880615 -2.0040102005004883
4.932255744934082 -2.101435422897339 -2.5
5.085366249084473 -1.6977441310882568 -2.5
5.205478191375732 -1.2830407619476318 -2.5
5.343886375427246 -0.43140745162963867 -2.5
