ply
format ascii 1.0
element vertex 893
property float x
property float y
property float z
end_header
13.942094802856445 8.816459655761719 4.420037746429443
9.577871322631836 16.589380264282227 5.132768630981445
-0.9482763409614563 4.644975662231445 1.2702898979187012
-7.599750995635986 26.23733901977539 7.319250106811523
-11.919838905334473 25.1204833984375 7.450340270996094
13.941713333129883 8.8162202835083 4.224575042724609
-3.405825138092041 28.049407958984375 7.236403465270996
-0.9482519030570984 4.644843578338623 1.214111566543579
-7.599750995635986 26.237342834472656 6.995767116546631
-11.971498489379883 25.229379653930664 7.151930332183838
-16.164209365844727 23.417837142944336 7.28747034072876
-18.24942398071289 22.35145378112793 7.390039443969727
13.94133472442627 8.815980911254883 4.0302276611328125
9.563833236694336 16.565048217773438 4.673488616943359
-0.9482226371765137 4.644706726074219 1.1582543849945068
-7.599750995635986 26.23733901977539 6.674111366271973
-9.619545936584473 25.364648818969727 6.62809944152832
-11.971503257751465 25.229373931884766 6.823096752166748
-16.16419792175293 23.4178409576416 6.9524054527282715
13.940966606140137 8.815747261047363 3.8369407653808594
9.556884765625 16.553007125854492 4.446237087249756
-0.9481884837150574 4.644526481628418 1.1026928424835205
-7.893754482269287 27.25233268737793 6.600010395050049
-14.186445236206055 8.97097110748291 3.9044816493988037
9.549975395202637 16.54104995727539 4.220481872558594
-0.9481298327445984 4.644248008728027 1.047397494316101
-9.954081535339355 26.246732711791992 6.2027716636657715
-11.971894264221191 25.230194091796875 6.170864105224609
9.54311466217041 16.5291690826416 3.9961535930633545
-3.5146484375 28.945648193359375 6.104959011077881
-0.9480712413787842 4.643964767456055 0.9923779368400574
-7.876410961151123 27.192489624023438 5.927408695220947
-11.971894264221191 25.230194091796875 5.847064018249512
-16.164731979370117 23.41859245300293 5.9578776359558105
13.939858436584473 8.815048217773438 3.2628862857818604
9.536298751831055 16.517358779907227 3.773181676864624
-0.9480175375938416 4.643686294555664 0.9376208186149597
-7.876415729522705 27.192489624023438 5.600686073303223
-16.164731979370117 23.41859245300293 5.629471778869629
9.529520988464355 16.505619049072266 3.5515012741088867
0.7640575766563416 18.96044921875 3.536001443862915
-3.514658212661743 28.94563865661621 5.433408260345459
-0.9479589462280273 4.643408298492432 0.8831103444099426
-14.048612594604492 24.332895278930664 5.235693454742432
-16.164731979370117 23.41859245300293 5.30250358581543
9.522772789001465 16.49394416809082 3.331049680709839
0.763232409954071 18.93973159790039 3.3152341842651367
-3.5298047065734863 29.070526123046875 5.1217498779296875
-0.9479052424430847 4.643134593963623 0.8288293480873108
-9.969740867614746 26.288026809692383 4.917295455932617
-11.971894264221191 25.230194091796875 4.884316444396973
-14.048603057861328 24.332895278930664 4.914174556732178
-16.164731979370117 23.41859245300293 4.976881504058838
13.938759803771973 8.814350128173828 2.696425676345825
9.516069412231445 16.482324600219727 3.111760139465332
-0.9478515386581421 4.642866134643555 0.7747650146484375
-9.969740867614746 26.288026809692383 4.596817493438721
-11.971894264221191 25.230194091796875 4.565987586975098
-14.048612594604492 24.332895278930664 4.59390115737915
13.938395500183105 8.81412124633789 2.509053945541382
9.509394645690918 16.47077178955078 2.893573045730591
-0.9477929472923279 4.642573356628418 0.7209036350250244
-18.349857330322266 22.474456787109375 4.414285659790039
13.93803882598877 8.813891410827637 2.322313070297241
9.502753257751465 16.45926284790039 2.6764237880706787
-3.499340772628784 28.819618225097656 4.08828592300415
-0.9477343559265137 4.642314434051514 0.6672301888465881
-7.827167987823486 27.022470474243164 3.961817502975464
-11.971894264221191 25.23019027709961 3.932704448699951
-14.048603057861328 24.332895278930664 3.9567461013793945
-16.164731979370117 23.41859245300293 4.007235527038574
-20.522729873657227 21.36642074584961 4.172045707702637
13.93767261505127 8.813672065734863 2.136204242706299
9.496147155761719 16.447813034057617 2.460249185562134
0.7631689310073853 18.938241958618164 2.455242156982422
-0.947680652141571 4.642035961151123 0.613728940486908
-7.827172756195068 27.022470474243164 3.6443591117858887
-9.9074068069458 26.123666763305664 3.6192333698272705
-11.97188949584961 25.23018455505371 3.61757755279541
-16.164731979370117 23.41859245300293 3.6861376762390137
-18.3498477935791 22.474462509155273 3.758467435836792
0.7465380430221558 18.525619506835938 2.1931350231170654
-3.514658212661743 28.94563865661621 3.44905948638916
-9.926918983459473 26.17510223388672 3.31137752532959
-11.97188949584961 25.23018455505371 3.3033573627471924
-16.16474151611328 23.41859245300293 3.3659605979919434
-18.3498477935791 22.474462509155273 3.432009220123291
-3.514653205871582 28.94563865661621 3.1218340396881104
-7.842587947845459 27.0756778717041 3.018021821975708
-11.97188949584961 25.23018455505371 2.9899566173553467
-16.164731979370117 23.41859245300293 3.046621561050415
-18.349857330322266 22.474456787109375 3.106401205062866
0.7683447003364563 19.0666446685791 1.8293893337249756
-3.5146484375 28.94564437866211 2.795389413833618
-0.947509765625 4.641220569610596 0.4541296362876892
-7.842577934265137 27.0756778717041 2.7024309635162354
-14.048612594604492 24.332895278930664 2.6936676502227783
-16.16474151611328 23.41859245300293 2.728039503097534
13.936246871948242 8.812763214111328 1.3966457843780518
9.469965934753418 16.402475357055664 1.6041686534881592
0.7715868949890137 19.147138595581055 1.6230370998382568
-3.514638662338257 28.945648193359375 2.4696333408355713
-0.9474608898162842 4.640952110290527 0.4011853039264679
-14.048623085021973 24.332889556884766 2.3797686100006104
-18.3498477935791 22.474462509155273 2.4574272632598877
9.463471412658691 16.391239166259766 1.3920165300369263
-14.048612594604492 24.332895278930664 2.0664587020874023
-18.3498477935791 22.474462509155273 2.1338930130004883
13.935351371765137 8.812196731567383 1.0290719270706177
0.7034521102905273 17.45634651184082 1.0904067754745483
-3.514643430709839 28.945648193359375 1.819881796836853
-9.969740867614746 26.288026809692383 1.7547719478607178
-14.048612594604492 24.332895278930664 1.753658413887024
-18.349857330322266 22.474456787109375 1.8108855485916138
13.934616088867188 8.811728477478027 0.8457257151603699
2.187382698059082 18.01478385925293 0.9308865070343018
0.7029833793640137 17.444671630859375 0.8955801129341125
-3.5077390670776367 28.888763427734375 1.4927788972854614
-0.9472900032997131 4.640146255493164 0.24293334782123566
-7.827182292938232 27.022470474243164 1.443137764930725
-14.048612594604492 24.332895278930664 1.4412904977798462
-18.349857330322266 22.474456787109375 1.488324522972107
13.933876991271973 8.811259269714355 0.662605881690979
9.444120407104492 16.35771942138672 0.759153425693512
0.7029833793640137 17.444671630859375 0.7017037868499756
-0.9472411870956421 4.639887809753418 0.19033141434192657
-7.827172756195068 27.022470474243164 1.1307250261306763
-11.97188949584961 25.23018455505371 1.1224157810211182
-16.16474151611328 23.41859245300293 1.1436880826950073
-18.25001335144043 22.352182388305664 1.1597851514816284
-20.548540115356445 21.393266677856445 1.1922234296798706
13.933136940002441 8.810800552368164 0.47967010736465454
2.187382698059082 18.014789581298828 0.5280269980430603
-0.740966796875 18.38677215576172 0.535435140132904
-3.507744073867798 28.88875961303711 0.8467486500740051
-0.9471825957298279 4.639614105224609 0.13778258860111237
-7.853896141052246 27.114730834960938 0.8213860988616943
-14.048612594604492 24.332895278930664 0.8175433278083801
-18.3498477935791 22.474462509155273 0.8442217707633972
13.932401657104492 8.810332298278809 0.29687070846557617
-0.7409716844558716 18.386781692504883 0.3314022719860077
-3.514643430709839 28.945648193359375 0.5251171588897705
-0.9471240043640137 4.639345645904541 0.08527404814958572
-9.92691421508789 26.17510223388672 0.5041552782058716
-16.164731979370117 23.41859245300293 0.5124661326408386
2.187387704849243 18.014789581298828 0.12568755447864532
0.7029833793640137 17.444671630859375 0.12092040479183197
-3.514638662338257 28.945648193359375 0.20194701850414276
-16.164731979370117 23.41859245300293 0.1970812976360321
-14.184809684753418 8.969922065734863 0.11623778939247131
13.930936813354492 8.809399604797363 -0.06849578768014908
2.187392473220825 18.014789581298828 -0.0754113718867302
0.7029833793640137 17.444671630859375 -0.07255157083272934
-0.9470165967941284 4.638813495635986 -0.019675597548484802
-7.876415729522705 27.192489624023438 -0.11764800548553467
-14.048612594604492 24.332895278930664 -0.11676238477230072
-16.164731979370117 23.41859245300293 -0.11825194954872131
-18.3498477935791 22.474462509155273 -0.12057281285524368
-14.180131912231445 8.966962814331055 -0.06972122192382812
9.41213321685791 16.302309036254883 -0.28684723377227783
2.187387704849243 18.014789581298828 -0.27652662992477417
-0.740966796875 18.386781692504883 -0.28040632605552673
-3.529799699783325 29.070526123046875 -0.44623473286628723
-7.876415729522705 27.192489624023438 -0.43139585852622986
-16.164731979370117 23.41859245300293 -0.4336135685443878
-18.349857330322266 22.474456787109375 -0.44212156534194946
-14.1754732131958 8.964018821716309 -0.25557342171669006
9.40576171875 16.291269302368164 -0.4952020049095154
0.7029833793640137 17.444671630859375 -0.4595913589000702
-3.5298047065734863 29.070526123046875 -0.7708845138549805
-0.94691401720047 4.638281345367432 -0.12461929023265839
-7.864037990570068 27.1497802734375 -0.7440789341926575
-11.971879959106445 25.23018455505371 -0.7351477146148682
13.928725242614746 8.808002471923828 -0.6166372299194336
9.399394035339355 16.28023910522461 -0.7034008502960205
2.187382698059082 18.014789581298828 -0.6790145635604858
0.7029833793640137 17.444671630859375 -0.6532617211341858
-3.5242724418640137 29.024858474731445 -1.094009280204773
-9.969740867614746 26.288026809692383 -1.0519901514053345
-14.048612594604492 24.332895278930664 -1.05132257938385
-16.164731979370117 23.41859245300293 -1.064738154411316
-14.169306755065918 8.96010684967041 -0.6272874474525452
9.39303207397461 16.269224166870117 -0.9114884734153748
3.7514843940734863 18.376001358032227 -0.9099807739257812
-7.794037818908691 26.908084869384766 -1.3592281341552734
-9.863149642944336 26.00699234008789 -1.3495407104492188
-16.10259246826172 23.328548431396484 -1.375346064567566
-29.81448745727539 2.406850576400757 -1.4512863159179688
13.927250862121582 8.807074546813965 -0.9826532006263733
9.386670112609863 16.258197784423828 -1.1195176839828491
3.751479387283325 18.375995635986328 -1.1184239387512207
2.187387704849243 18.014789581298828 -1.0821715593338013
0.6244970560073853 15.496923446655273 -0.9248829483985901
-0.740966796875 18.38676643371582 -1.0973536968231201
-0.9467529058456421 4.637475490570068 -0.28225311636924744
-7.827167987823486 27.022470474243164 -1.6776783466339111
-11.97188949584961 25.23018455505371 -1.6653499603271484
-16.164731979370117 23.41859245300293 -1.6969109773635864
-18.3498477935791 22.474462509155273 -1.7302082777023315
-28.573909759521484 2.306704044342041 -1.709501028060913
13.926513671875 8.80660629272461 -1.1659725904464722
0.6244921684265137 15.496923446655273 -1.0974831581115723
-0.6481640338897705 16.083906173706055 -1.139052391052246
-2.060976505279541 16.97366714477539 -1.20991051197052
-0.9466943144798279 4.637216567993164 -0.3349069058895111
-7.827172756195068 27.022470474243164 -1.9907641410827637
-9.9074068069458 26.123666763305664 -1.977038860321045
-11.971894264221191 25.23018455505371 -1.9761347770690918
-16.16474151611328 23.41859245300293 -2.0135858058929443
-14.165546417236328 8.957743644714355 -1.18598473072052
18.126726150512695 22.201210021972656 -2.347599983215332
9.373945236206055 16.23616600036621 -1.5356063842773438
1.9022216796875 15.666244506835938 -1.292618989944458
-2.060976505279541 16.97366714477539 -1.4004933834075928
-7.827167987823486 27.022470474243164 -2.3043410778045654
-11.971894264221191 25.23019027709961 -2.287407636642456
-14.048612594604492 24.332895278930664 -2.3013908863067627
-16.164731979370117 23.41859245300293 -2.3307604789733887
-22.913114547729492 17.218095779418945 -2.347599983215332
26.86016082763672 1.9531249563442543e-05 -2.5
26.77305793762207 2.1613574028015137 -2.5
12.707959175109863 3.1322314739227295 -1.2181867361068726
24.71078872680664 10.528300285339355 -2.5
13.92503833770752 8.805673599243164 -1.5334635972976685
20.164152145385742 15.152392387390137 -2.347599983215332
10.912348747253418 15.809287071228027 -1.7879363298416138
9.36758804321289 16.225135803222656 -1.7437697649002075
8.1021728515625 17.074989318847656 -1.759088397026062
8.944106101989746 23.583696365356445 -2.347599983215332
0.6244921684265137 15.496923446655273 -1.443541169166565
-0.6389746069908142 15.855868339538574 -1.4769768714904785
-2.060976505279541 16.973661422729492 -1.5914205312728882
-7.017397403717041 24.2269287109375 -2.347599983215332
-12.610268592834473 21.844369888305664 -2.347599983215332
-14.328217506408691 20.75788116455078 -2.347599983215332
-17.472415924072266 18.190711975097656 -2.347599983215332
-18.879507064819336 16.725780487060547 -2.347599983215332
-25.47783660888672 8.505742073059082 -2.5
-26.07964324951172 6.428031921386719 -2.5
23.977577209472656 2.9296874345163815e-05 -2.5
22.058876037597656 9.398417472839355 -2.5
21.231081008911133 11.142949104309082 -2.5
13.873663902282715 8.773183822631836 -1.7114776372909546
16.853403091430664 14.930825233459473 -2.347599983215332
14.240087509155273 17.440946578979492 -2.347599983215332
8.8008394241333 15.243515014648438 -1.835224986076355
7.984242916107178 21.052753448486328 -2.347599983215332
-0.6389794945716858 15.855868339538574 -1.654537320137024
-0.946533203125 4.636401176452637 -0.4933813512325287
-12.79042911529541 18.530258178710938 -2.347599983215332
-14.24013614654541 17.440902709960938 -2.347599983215332
-18.00016975402832 13.526240348815918 -2.347599983215332
-21.2310791015625 11.14293384552002 -2.5
-22.05887222290039 9.398393630981445 -2.5
-23.667055130004883 3.8462841510772705 -2.5
21.648895263671875 1.9531249563442543e-05 -2.5
21.57869529724121 1.7420116662979126 -2.5
21.368549346923828 3.472734212875366 -2.5
19.916534423828125 8.485649108886719 -2.5
16.25200080871582 12.212616920471191 -2.347599983215332
10.817353248596191 15.671640396118164 -2.1990084648132324
8.1021728515625 17.07498550415039 -2.1825313568115234
3.36669921875 16.491195678710938 -1.9436721801757812
1.9022216796875 15.666244506835938 -1.822414755821228
0.6244921684265137 15.496923446655273 -1.7910271883010864
-0.6389746069908142 15.855868339538574 -1.832511067390442
-2.0331785678863525 16.744638442993164 -1.9478617906570435
-0.9464697241783142 4.636132717132568 -0.5464208722114563
-5.655927658081055 19.52654266357422 -2.347599983215332
-7.076601505279541 14.913710594177246 -1.906272530555725
-10.164569854736328 17.605594635009766 -2.347599983215332
-12.85707950592041 15.747079849243164 -2.347599983215332
-14.082514762878418 14.661444664001465 -2.347599983215332
-15.216606140136719 13.480731964111328 -2.347599983215332
-19.16913604736328 10.060742378234863 -2.5
-21.01982307434082 5.180908203125 -2.5
-21.36854362487793 3.472729444503784 -2.5
-21.578691482543945 1.7420018911361694 -2.5
19.72798728942871 1.9531249563442543e-05 -2.5
19.664012908935547 1.5874511003494263 -2.5
12.142290115356445 2.992802619934082 -1.5847641229629517
15.156145095825195 5.059867858886719 -2.024845838546753
13.841208457946777 8.752655982971191 -2.0752806663513184
14.80996322631836 11.128984451293945 -2.347599983215332
12.832968711853027 13.360536575317383 -2.347599983215332
8.738656997680664 15.135809898376465 -2.214789628982544
7.941684246063232 16.736757278442383 -2.347599983215332
6.569174766540527 17.321523666381836 -2.347599983215332
5.154077053070068 17.79395866394043 -2.347599983215332
3.2248144149780273 15.796186447143555 -2.043037176132202
-0.9464208483695984 4.635859489440918 -0.5995905995368958
-5.154047966003418 17.793970108032227 -2.347599983215332
-6.056288719177246 12.763407707214355 -1.790272831916809
-7.108188152313232 12.311762809753418 -1.8015499114990234
-13.866435050964355 12.284589767456055 -2.347599983215332
-18.71271514892578 6.247201919555664 -2.5
-19.472509384155273 3.1645848751068115 -2.5
-19.66400909423828 1.5874218940734863 -2.5
18.116058349609375 1.9531249563442543e-05 -2.5
18.057313919067383 1.4577441215515137 -2.5
12.725492477416992 2.0680956840515137 -1.779146432876587
12.117650985717773 2.9867334365844727 -1.7222704887390137
15.156145095825195 5.059867858886719 -2.205012321472168
9.663740158081055 14.000361442565918 -2.347599983215332
8.505844116210938 14.73256778717041 -2.347599983215332
7.292783260345459 15.369233131408691 -2.347599983215332
6.032426834106445 15.90621566772461 -2.347599983215332
0.5956494212150574 14.781195640563965 -2.0414481163024902
-1.9677783250808716 16.206064224243164 -2.2528491020202637
-0.9463622570037842 4.635590553283691 -0.6529026627540588
-4.732958793640137 16.340044021606445 -2.347599983215332
-9.663774490356445 14.000341415405273 -2.347599983215332
-12.733427047729492 11.280854225158691 -2.347599983215332
-13.59987735748291 10.219648361206055 -2.347599983215332
-16.666406631469727 7.100893497467041 -2.5
-17.589643478393555 4.335434436798096 -2.5
-17.881460189819336 2.906020402908325 -2.5
-18.057310104370117 1.4577147960662842 -2.5
16.689456939697266 1.3473436832427979 -2.5
12.715604782104492 2.0664892196655273 -1.9234668016433716
15.186984062194824 5.070166110992432 -2.390587091445923
15.403910636901855 6.562993049621582 -2.5
14.8258638381958 7.781225204467773 -2.5
13.288959503173828 8.403481483459473 -2.347599983215332
12.56967544555664 9.445536613464355 -2.347599983215332
9.943974494934082 12.17916488647461 -2.347599983215332
8.931708335876465 12.939828872680664 -2.347599983215332
7.861523151397705 13.616572380065918 -2.347599983215332
5.575473308563232 14.701313018798828 -2.347599983215332
1.8447802066802979 15.193148612976074 -2.2851409912109375
-0.6048974394798279 15.010326385498047 -2.24300217628479
-1.8952343463897705 15.6083984375 -2.347599983215332
-0.9463085532188416 4.635317325592041 -0.7063724994659424
-5.575473308563232 14.701313018798828 -2.347599983215332
-6.056298732757568 12.763402938842773 -2.1093509197235107
-7.108188152313232 12.311762809753418 -2.122638702392578
-8.93172836303711 12.939814567565918 -2.347599983215332
-9.943984031677246 12.179155349731445 -2.347599983215332
-10.89174747467041 11.339506149291992 -2.347599983215332
-11.768872261047363 10.426318168640137 -2.347599983215332
-12.569682121276855 9.4454927444458 -2.347599983215332
-14.825849533081055 7.781205654144287 -2.5
-15.403910636901855 6.56298303604126 -2.5
-15.882060050964355 5.302202224731445 -2.5
15.5610933303833 1.9531249563442543e-05 -2.5
15.510631561279297 1.2521483898162842 -2.5
12.105141639709473 2.983647346496582 -2.0029807090759277
14.760263442993164 4.927704811096191 -2.5
11.681840896606445 8.778359413146973 -2.347599983215332
10.937602043151855 9.6898775100708 -2.347599983215332
10.122416496276855 10.538569450378418 -2.347599983215332
9.24160099029541 11.3189058303833 -2.347599983215332
7.306240081787109 12.654780387878418 -2.347599983215332
5.181654930114746 13.662909507751465 -2.347599983215332
4.065444469451904 14.035561561584473 -2.347599983215332
0.58837890625 14.600629806518555 -2.347599983215332
-0.5883837938308716 14.600634574890137 -2.347599983215332
-5.181654930114746 13.662909507751465 -2.347599983215332
-6.015161037445068 12.676698684692383 -2.254246950149536
-7.059902191162109 12.228119850158691 -2.2684473991394043
-8.300848960876465 12.025830268859863 -2.347599983215332
-9.241591453552246 11.318901062011719 -2.347599983215332
-10.122426986694336 10.538549423217773 -2.347599983215332
-11.681845664978027 8.778339385986328 -2.347599983215332
-15.359564781188965 2.4961767196655273 -2.5
-15.510629653930664 1.2521288394927979 -2.5
14.48393726348877 1.1692675352096558 -2.5
12.815192222595215 2.0826709270477295 -2.233719825744629
13.78323745727539 4.601523399353027 -2.5
11.532821655273438 7.292919635772705 -2.347599983215332
10.908588409423828 8.19728946685791 -2.347599983215332
10.213607788085938 9.048476219177246 -2.347599983215332
9.452383041381836 9.840981483459473 -2.347599983215332
8.629867553710938 10.569677352905273 -2.347599983215332
5.84960412979126 12.327802658081055 -2.347599983215332
4.838666915893555 12.758520126342773 -2.347599983215332
3.796328067779541 13.106493949890137 -2.347599983215332
2.7293994426727295 13.369482040405273 -2.347599983215332
0.5494238138198853 13.634169578552246 -2.347599983215332
-3.7963671684265137 13.106484413146973 -2.347599983215332
-5.849594593048096 12.327807426452637 -2.347599983215332
-7.751386642456055 11.229799270629883 -2.347599983215332
-8.6298828125 10.569658279418945 -2.347599983215332
-9.452383041381836 9.840981483459473 -2.347599983215332
-10.908583641052246 8.197270393371582 -2.347599983215332
-13.368270874023438 5.69567346572876 -2.5
-13.78323745727539 4.601508617401123 -2.5
-14.483940124511719 1.1692479848861694 -2.5
12.064936637878418 6.332167625427246 -2.5
8.863447189331055 9.227822303771973 -2.347599983215332
8.092172622680664 9.911112785339355 -2.347599983215332
4.537187576293945 11.963579177856445 -2.347599983215332
3.5597996711730957 12.289877891540527 -2.347599983215332
0.515185534954071 12.78466796875 -2.347599983215332
-0.515209972858429 12.784672737121582 -2.347599983215332
-1.542260766029358 12.701762199401855 -2.347599983215332
-0.9461327791213989 4.634487152099609 -0.8678634166717529
-4.537187576293945 11.963574409484863 -2.347599983215332
-9.577221870422363 8.484692573547363 -2.347599983215332
-12.924443244934082 4.314804553985596 -2.5
-13.229736328125 3.2608251571655273 -2.5
12.82345199584961 1.9531249563442543e-05 -2.5
12.781879425048828 1.0318652391433716 -2.5
11.797314643859863 5.026371955871582 -2.5
11.354594230651855 5.959355354309082 -2.5
10.177553176879883 6.43590784072876 -2.347599983215332
9.62667465209961 7.233989238739014 -2.347599983215332
7.615727424621582 9.327588081359863 -2.347599983215332
6.840478420257568 9.910151481628418 -2.347599983215332
6.020859241485596 10.428442001342773 -2.347599983215332
5.162187576293945 10.879101753234863 -2.347599983215332
4.270053386688232 11.259208679199219 -2.347599983215332
3.350214719772339 11.566298484802246 -2.347599983215332
-0.9460790753364563 4.634218692779541 -0.9221015572547913
-4.270072937011719 11.259203910827637 -2.347599983215332
-6.840497970581055 9.910136222839355 -2.347599983215332
-9.013359069824219 7.985146522521973 -2.347599983215332
-10.1775484085083 6.435893535614014 -2.347599983215332
-11.354594230651855 5.959355354309082 -2.5
-12.163500785827637 4.060776233673096 -2.5
-12.450819969177246 3.0688328742980957 -2.5
-12.781865119934082 1.0318554639816284 -2.5
12.107523918151855 1.9531249563442543e-05 -2.5
11.950722694396973 1.9421874284744263 -2.5
11.484418869018555 3.8340721130371094 -2.5
11.13866138458252 4.745741844177246 -2.5
10.720664024353027 5.626645565032959 -2.5
10.02432632446289 6.33901834487915 -2.4489853382110596
9.089208602905273 6.830117225646973 -2.347599983215332
8.510146141052246 7.539340496063232 -2.347599983215332
7.875893592834473 8.199663162231445 -2.347599983215332
5.68472146987915 9.846220016479492 -2.347599983215332
4.031655311584473 10.630605697631836 -2.347599983215332
1.3704345226287842 11.286542892456055 -2.347599983215332
-0.9460253715515137 4.63394021987915 -0.9765682816505432
-5.684726238250732 9.846220016479492 -2.347599983215332
-8.510141372680664 7.539330959320068 -2.347599983215332
-9.089218139648438 6.830097675323486 -2.347599983215332
-9.609335899353027 6.076571941375732 -2.347599983215332
-10.720673561096191 5.626640319824219 -2.5
-11.138667106628418 4.745737075805664 -2.5
-11.755688667297363 2.8975000381469727 -2.5
-11.95071792602539 1.942177653312683 -2.5
-12.068251609802246 0.9742285013198853 -2.5
10.874516487121582 3.6304588317871094 -2.5
8.606513023376465 6.467377662658691 -2.347599983215332
8.058197975158691 7.13894510269165 -2.347599983215332
7.457631587982178 7.764204025268555 -2.347599983215332
5.382826805114746 9.323315620422363 -2.347599983215332
4.61514139175415 9.72622013092041 -2.347599983215332
3.8175437450408936 10.066044807434082 -2.347599983215332
2.995185375213623 10.340590476989746 -2.347599983215332
1.2976512908935547 10.687138557434082 -2.347599983215332
0.4334814250469208 10.7568941116333 -2.347599983215332
-1.297646403312683 10.687138557434082 -2.347599983215332
-0.9459667801856995 4.633656978607178 -1.0312777757644653
-2.995190382003784 10.340585708618164 -2.347599983215332
-4.615151405334473 9.726215362548828 -2.347599983215332
-5.382817268371582 9.323315620422363 -2.347599983215332
-6.115585803985596 8.859930992126465 -2.347599983215332
-8.606508255004883 6.467377662658691 -2.347599983215332
-9.484121322631836 5.997392654418945 -2.4469594955444336
-10.874516487121582 3.630434513092041 -2.5
-11.131376266479492 2.7436327934265137 -2.5
10.883706092834473 9.765624781721272e-06 -2.5
10.742773056030273 1.7458691596984863 -2.5
10.323588371276855 3.446523427963257 -2.5
10.012787818908691 4.266054630279541 -2.5
9.637041091918945 5.057919979095459 -2.5
7.649955749511719 6.777275085449219 -2.347599983215332
7.079809188842773 7.370859146118164 -2.347599983215332
3.624140501022339 9.556078910827637 -2.347599983215332
0.4115234315395355 10.21193790435791 -2.347599983215332
-1.231909155845642 10.14571762084961 -2.347599983215332
-0.9459081888198853 4.633388519287109 -1.0862470865249634
-2.84344220161438 9.816718101501465 -2.347599983215332
-5.110121726989746 8.850981712341309 -2.347599983215332
-5.805766582489014 8.411073684692383 -2.347599983215332
-6.46373987197876 7.916630744934082 -2.347599983215332
-9.1743745803833 5.801523208618164 -2.493361234664917
-9.637036323547363 5.057909965515137 -2.5
-10.01278305053711 4.266039848327637 -2.5
-10.323588371276855 3.446523427963257 -2.5
-10.74276351928711 1.74587881565094 -2.5
-10.848398208618164 0.8757616877555847 -2.5
10.322772979736328 0.8333398103713989 -2.5
10.222246170043945 1.6612792015075684 -2.5
10.055419921875 2.478442430496216 -2.5
9.82338809967041 3.2795214653015137 -2.5
9.527631759643555 4.059350490570068 -2.5
9.1701021194458 4.812841892242432 -2.5
5.52444314956665 8.003549575805664 -2.347599983215332
4.169043064117432 8.786088943481445 -2.347599983215332
2.705683469772339 9.341073989868164 -2.347599983215332
1.9452587366104126 9.528495788574219 -2.347599983215332
-0.39158201217651367 9.717138290405273 -2.347599983215332
-3.448539972305298 9.093056678771973 -2.347599983215332
-6.150546550750732 7.533046722412109 -2.347599983215332
-6.736767292022705 7.013710975646973 -2.347599983215332
-7.774609088897705 5.842226505279541 -2.347599983215332
-8.736308097839355 5.524492263793945 -2.4952051639556885
-9.170097351074219 4.812831878662109 -2.5
-9.527636528015137 4.059340953826904 -2.5
-9.82338809967041 3.279492139816284 -2.5
-10.055419921875 2.4784326553344727 -2.5
9.875307083129883 9.765624781721272e-06 -2.5
9.843280792236328 0.794628918170929 -2.5
8.744145393371582 4.589282035827637 -2.5
7.413471698760986 5.570873737335205 -2.347599983215332
5.864858150482178 7.183144569396973 -2.347599983215332
3.2883543968200684 8.67068862915039 -2.347599983215332
1.1177783012390137 9.2056884765625 -2.347599983215332
-0.37339842319488525 9.26578140258789 -2.347599983215332
-1.117773413658142 9.2056884765625 -2.347599983215332
-0.9457958936691284 4.632817268371582 -1.1970216035842896
-3.975395441055298 8.377968788146973 -2.347599983215332
-4.636655330657959 8.030913352966309 -2.347599983215332
-5.86486291885376 7.183139324188232 -2.347599983215332
-6.423847675323486 6.687924861907959 -2.347599983215332
-6.94115686416626 6.149335861206055 -2.347599983215332
-7.413476467132568 5.570854187011719 -2.347599983215332
-8.336787223815918 5.271855354309082 -2.4970874786376953
-9.085078239440918 3.87078595161438 -2.5
-9.367079734802246 3.127192258834839 -2.5
-9.747416496276855 1.5841113328933716 -2.5
-9.843276023864746 0.7946191430091858 -2.5
9.434609413146973 9.765624781721272e-06 -2.5
9.404013633728027 0.7591796517372131 -2.5
9.1604585647583 2.2578516006469727 -2.5
8.949067115783691 2.9876463413238525 -2.5
7.974032878875732 5.04248046875 -2.5
7.0826416015625 5.322255611419678 -2.347599983215332
6.631415843963623 5.874911785125732 -2.347599983215332
5.603129863739014 6.862587928771973 -2.347599983215332
5.032748699188232 7.291205883026123 -2.347599983215332
3.141611337661743 8.283744812011719 -2.347599983215332
1.77212393283844 8.680424690246582 -2.347599983215332
1.0678906440734863 8.794873237609863 -2.347599983215332
-0.9457373023033142 4.632529258728027 -1.2528584003448486
-2.464858293533325 8.50967788696289 -2.347599983215332
-3.141606330871582 8.283744812011719 -2.347599983215332
-4.429736137390137 7.672519207000732 -2.347599983215332
-6.137167930603027 6.389467716217041 -2.347599983215332
-6.631406307220459 5.87490701675415 -2.347599983215332
-7.970253944396973 5.040078163146973 -2.498814344406128
-8.94906234741211 2.9876365661621094 -2.5
-9.1604585647583 2.257827043533325 -2.5
-9.404013633728027 0.7591601610183716 -2.5
9.029292106628418 0.0 -2.5
8.912358283996582 1.4483983516693115 -2.5
8.766913414001465 2.1608495712280273 -2.5
7.995034217834473 4.196117877960205 -2.5
6.974409103393555 5.240932464599609 -2.415496826171875
6.346513748168945 5.622519493103027 -2.347599983215332
5.362421989440918 6.567758560180664 -2.347599983215332
4.816533088684082 6.977963924407959 -2.347599983215332
3.0066356658935547 7.927870750427246 -2.347599983215332
-0.34141111373901367 8.471977233886719 -2.347599983215332
-1.022011637687683 8.417031288146973 -2.347599983215332
-0.9456835985183716 4.632250785827637 -1.3090178966522217
-2.3589696884155273 8.144086837768555 -2.347599983215332
-3.634819269180298 7.660224437713623 -2.347599983215332
-4.816537857055664 6.977958679199219 -2.347599983215332
-5.362407207489014 6.567768573760986 -2.347599983215332
-5.873505592346191 6.114965915679932 -2.347599983215332
-6.346513748168945 5.622514724731445 -2.347599983215332
-6.818041801452637 5.123427391052246 -2.3613440990448
-7.631454944610596 4.82583475112915 -2.5
-8.306742668151855 3.5391697883605957 -2.5
-8.766908645629883 2.160835027694702 -2.5
-8.912358283996582 1.4483983516693115 -2.5
8.543070793151855 1.3883886337280273 -2.5
7.663759708404541 4.022250652313232 -2.5
4.61697244644165 6.68883752822876 -2.347599983215332
2.8820605278015137 7.599374771118164 -2.347599983215332
2.261220693588257 7.806640625 -2.347599983215332
1.6257177591323853 7.963281154632568 -2.347599983215332
0.32725584506988525 8.12093734741211 -2.347599983215332
-0.3272656202316284 8.120932579040527 -2.347599983215332
-0.979663074016571 8.06827163696289 -2.347599983215332
-0.9456201195716858 4.631962776184082 -1.3655169010162354
-5.630141258239746 5.861596584320068 -2.347599983215332
-7.315253734588623 4.625874042510986 -2.5
-7.962563514709473 3.392534017562866 -2.5
-8.627094268798828 0.6964452862739563 -2.5
8.201088905334473 1.3327929973602295 -2.5
8.067245483398438 1.9883984327316284 -2.5
7.356972694396973 3.8612401485443115 -2.5
6.628368854522705 4.980898380279541 -2.4947524070739746
4.934453010559082 6.043612957000732 -2.347599983215332
4.432143688201904 6.421069145202637 -2.347599983215332
3.9010984897613525 6.756889343261719 -2.347599983215332
2.7666943073272705 7.295166015625 -2.347599983215332
2.170703172683716 7.49413537979126 -2.347599983215332
1.5606396198272705 7.644506454467773 -2.347599983215332
0.9404491782188416 7.745287895202637 -2.347599983215332
0.31416502594947815 7.795854091644287 -2.347599983215332
-0.945556640625 4.631674766540527 -1.4223705530166626
-2.170712947845459 7.494130611419678 -2.347599983215332
-3.344731330871582 7.048886775970459 -2.347599983215332
-4.432148456573486 6.421064376831055 -2.347599983215332
-4.934453010559082 6.043603420257568 -2.347599983215332
-7.643808364868164 3.256723642349243 -2.5
-8.067240715026855 1.9883984327316284 -2.5
-8.201079368591309 1.3328124284744263 -2.5
-8.28173828125 0.6685546636581421 -2.5
7.883388519287109 1.2811717987060547 -2.5
7.754731178283691 1.9113671779632568 -2.5
7.575795650482178 2.529169797897339 -2.5
6.750380516052246 4.268686294555664 -2.5
5.195395469665527 5.408969402313232 -2.347599983215332
3.215165853500366 6.775815486907959 -2.347599983215332
2.086606502532959 7.203823089599609 -2.347599983215332
1.5001806020736694 7.348369121551514 -2.347599983215332
0.9040185213088989 7.445253849029541 -2.347599983215332
0.30198729038238525 7.493852138519287 -2.347599983215332
-0.9040185213088989 7.445249080657959 -2.347599983215332
-0.9455029368400574 4.63137674331665 -1.479597568511963
-2.086611270904541 7.203813552856445 -2.347599983215332
-3.2151756286621094 6.775820255279541 -2.347599983215332
-3.7499656677246094 6.495131492614746 -2.347599983215332
-4.260454177856445 6.172324180603027 -2.347599983215332
-4.743305683135986 5.809492111206055 -2.347599983215332
-5.61376953125 4.973383903503418 -2.347599983215332
-6.750375747680664 4.2686767578125 -2.5
-7.754731178283691 1.9113671779632568 -2.5
7.686977386474609 0.0 -2.5
7.587426662445068 1.2330760955810547 -2.5
7.071855545043945 3.0130419731140137 -2.5
6.806469440460205 3.5723094940185547 -2.5
6.4969482421875 4.10842752456665 -2.5
6.141737937927246 4.615214824676514 -2.498555898666382
5.484946250915527 4.859238147735596 -2.3831939697265625
5.000346660614014 5.205903053283691 -2.347599983215332
4.565234184265137 5.591396331787109 -2.347599983215332
3.609184503555298 6.251298904418945 -2.347599983215332
2.5596678256988525 6.749287128448486 -2.347599983215332
2.0082714557647705 6.933369159698486 -2.347599983215332
1.4438574314117432 7.072490215301514 -2.347599983215332
0.2906494140625 7.212509632110596 -2.347599983215332
-0.8700780868530273 7.165741920471191 -2.347599983215332
-2.0082762241363525 6.933369159698486 -2.347599983215332
-3.0944676399230957 6.521440505981445 -2.347599983215332
-4.100507736206055 5.940595626831055 -2.347599983215332
-6.13891077041626 4.613085746765137 -2.497405529022217
-6.496953010559082 4.108413219451904 -2.5
-6.806464672088623 3.5723094940185547 -2.5
-7.463593482971191 1.839599609375 -2.5
-7.587416648864746 1.2330760955810547 -2.5
-7.662035942077637 0.6185253858566284 -2.5
7.406884670257568 9.765624781721272e-06 -2.5
7.310971736907959 1.1881444454193115 -2.5
7.025698184967041 2.345522403717041 -2.5
6.814174652099609 2.9032421112060547 -2.5
5.921376705169678 4.449628829956055 -2.5
5.461899280548096 4.838823318481445 -2.4629220962524414
4.81814432144165 5.016220569610596 -2.347599983215332
3.9510886669158936 5.724145412445068 -2.347599983215332
3.4776806831359863 6.023505687713623 -2.347599983215332
2.4664013385772705 6.503364086151123 -2.347599983215332
1.9351024627685547 6.680742263793945 -2.347599983215332
1.3912500143051147 6.814785003662109 -2.347599983215332
0.83837890625 6.904633522033691 -2.347599983215332
0.2800585925579071 6.94970703125 -2.347599983215332
-0.8383740186691284 6.904633522033691 -2.347599983215332
-1.935097575187683 6.680737018585205 -2.347599983215332
-2.9817090034484863 6.28380823135376 -2.347599983215332
-3.4776806831359863 6.023505687713623 -2.347599983215332
-4.398876667022705 5.387641429901123 -2.347599983215332
-5.374701976776123 4.761572360992432 -2.4236035346984863
-5.9197998046875 4.448432445526123 -2.4993345737457275
-6.558461666107178 3.442143440246582 -2.5
-7.025698184967041 2.345517635345459 -2.5
-7.19164514541626 1.7725683450698853 -2.5
-7.310956954956055 1.1881444454193115 -2.5
-7.382856369018555 0.595996081829071 -2.5
7.052074909210205 1.1460644006729126 -2.5
6.936982154846191 1.709804654121399 -2.5
6.776914119720459 2.262460947036743 -2.5
6.038539886474609 3.818544864654541 -2.5
5.711689472198486 4.292060375213623 -2.5
4.647524356842041 4.838583946228027 -2.347599983215332
2.3790576457977295 6.273076057434082 -2.347599983215332
1.3419872522354126 6.573471546173096 -2.347599983215332
-0.8086913824081421 6.660131454467773 -2.347599983215332
-0.9417040944099426 4.612788200378418 -1.647377848625183
-2.3790674209594727 6.2730712890625 -2.347599983215332
-2.8761229515075684 6.061293601989746 -2.347599983215332
-3.3545262813568115 5.81020975112915 -2.347599983215332
-4.243110179901123 5.196860313415527 -2.347599983215332
-4.647524356842041 4.838579177856445 -2.347599983215332
-5.332036018371582 4.72378396987915 -2.4926345348358154
-6.038539886474609 3.8185300827026367 -2.5
-6.326220512390137 3.320253849029541 -2.5
-6.572885513305664 2.800429582595825 -2.5
-6.936977386474609 1.709804654121399 -2.5
-7.052065372467041 1.146083950996399 -2.5
-7.121420860290527 0.5748925805091858 -2.5
6.876044750213623 0.5550878643989563 -2.5
6.697963714599609 1.65087890625 -2.5
6.108242034912109 3.2058496475219727 -2.5
5.514892578125 4.144174575805664 -2.5
5.154501914978027 4.566484451293945 -2.4956252574920654
4.487392425537109 4.671864986419678 -2.347599983215332
-0.7808251976966858 6.430649280548096 -2.347599983215332
-2.2970848083496094 6.05691385269165 -2.347599983215332
-2.7770068645477295 5.852441310882568 -2.347599983215332
-3.2389354705810547 5.610009670257568 -2.347599983215332
-3.6798582077026367 5.331191062927246 -2.347599983215332
-4.096909046173096 5.017792701721191 -2.347599983215332
-4.487387657165527 4.671860218048096 -2.347599983215332
-5.152411937713623 4.564648151397705 -2.4946157932281494
-5.830468654632568 3.686953067779541 -2.5
-6.108237266540527 3.2058398723602295 -2.5
-6.346391677856445 2.7039403915405273 -2.5
-6.543393611907959 2.184501886367798 -2.5
-6.697954177856445 1.6508984565734863 -2.5
6.645229339599609 0.5364648103713989 -2.5
6.133364200592041 2.6131834983825684 -2.5
5.634750843048096 3.5632078647613525 -2.5
5.329760551452637 4.005053520202637 -2.5
1.7417528629302979 6.013256549835205 -2.347599983215332
1.2522460222244263 6.1339111328125 -2.347599983215332
0.2520849406719208 6.255351543426514 -2.347599983215332
-0.2520800828933716 6.255351543426514 -2.347599983215332
-0.7546142339706421 6.214780330657959 -2.347599983215332
-1.7417675256729126 6.013251781463623 -2.347599983215332
-3.1302196979522705 5.421684265136719 -2.347599983215332
-3.55633282661438 5.152231216430664 -2.347599983215332
-3.9593799114227295 4.849365234375 -2.347599983215332
-4.983173847198486 4.414711952209473 -2.4964823722839355
-5.329755783081055 4.005053520202637 -2.5
-5.634746074676514 3.563188314437866 -2.5
-6.323744773864746 2.1111717224121094 -2.5
-6.473110198974609 1.5954785346984863 -2.5
6.427670955657959 0.5189062356948853 -2.5
6.116703987121582 2.042050838470459 -2.5
5.932548522949219 2.5276269912719727 -2.5
5.709926605224609 2.9967968463897705 -2.5
5.450268268585205 3.446542978286743 -2.5
4.825415134429932 4.274936199188232 -2.499270439147949
4.440029144287109 4.622563362121582 -2.4848618507385254
3.439892530441284 4.98354959487915 -2.347599983215332
3.0277392864227295 5.244179725646973 -2.347599983215332
2.1472997665405273 5.661952972412109 -2.347599983215332
1.6847362518310547 5.816381931304932 -2.347599983215332
-0.2438330054283142 6.050541877746582 -2.347599983215332
-0.729907214641571 6.011303424835205 -2.347599983215332
-2.147294759750366 5.661948204040527 -2.347599983215332
-2.5959277153015137 5.470805644989014 -2.347599983215332
-3.439897298812866 4.983544826507568 -2.347599983215332
-4.387431621551514 4.567792892456055 -2.455425262451172
-5.155253887176514 3.873915910720825 -2.5
-5.932543754577637 2.5276219844818115 -2.5
-6.116703987121582 2.042050838470459 -2.5
-6.261186599731445 1.5432324409484863 -2.5
-6.365053653717041 1.034423828125 -2.5
-6.427651405334473 0.5188866853713989 -2.5
6.222187519073486 0.5023046731948853 -2.5
6.161586761474609 1.0013574361801147 -2.5
5.527392387390137 2.9010009765625 -2.5
4.990458965301514 3.7500877380371094 -2.5
4.672524452209473 4.139487266540527 -2.5
4.314223766326904 4.4915771484375 -2.4941844940185547
3.707329034805298 4.5406494140625 -2.347599983215332
3.3299365043640137 4.824233055114746 -2.347599983215332
2.9309473037719727 5.076542854309082 -2.347599983215332
1.6308789253234863 5.630444049835205 -2.347599983215332
1.1725292205810547 5.743412971496582 -2.347599983215332
0.7065771222114563 5.819135665893555 -2.347599983215332
-0.23603515326976776 5.857123851776123 -2.347599983215332
-0.9305761456489563 4.558261394500732 -1.8631752729415894
-1.6308789253234863 5.630434513092041 -2.347599983215332
-2.0786523818969727 5.480942249298096 -2.347599983215332
-2.512949228286743 5.295912742614746 -2.347599983215332
-2.9309375286102295 5.0765380859375 -2.347599983215332
-3.7073192596435547 4.540634632110596 -2.347599983215332
-4.990454196929932 3.750073194503784 -2.5
-5.27603006362915 3.3363475799560547 -2.5
-5.527387619018555 2.900991201400757 -2.5
-6.161577224731445 1.0013574361801147 -2.5
5.969072341918945 0.9700683355331421 -2.5
5.871654987335205 1.4472362995147705 -2.5
5.56347131729126 2.370371103286743 -2.5
5.354697227478027 2.810370922088623 -2.5
4.526533126831055 4.010151386260986 -2.5
3.679926633834839 4.507080078125 -2.4054038524627686
3.22588849067688 4.673505783081055 -2.347599983215332
2.8393750190734863 4.917919635772705 -2.347599983215332
2.4344236850738525 5.130444049835205 -2.347599983215332
1.1358935832977295 5.56396484375 -2.347599983215332
0.684497058391571 5.63732385635376 -2.347599983215332
-1.579931616783142 5.454521179199219 -2.347599983215332
-2.4344286918640137 5.130449295043945 -2.347599983215332
-3.225883722305298 4.673501014709473 -2.347599983215332
-4.1812744140625 4.35317850112915 -2.4952948093414307
-4.834526062011719 3.6329150199890137 -2.5
-5.563457012176514 2.370366096496582 -2.5
-5.736152172088623 1.9150097370147705 -2.5
-5.871650218963623 1.4472167491912842 -2.5
5.862529277801514 9.765624781721272e-06 -2.5
5.843520164489746 0.47172850370407104 -2.5
5.786606311798096 0.9404101371765137 -2.5
5.393403053283691 2.297910213470459 -2.5
5.191010475158691 2.7244529724121094 -2.5
4.388164043426514 3.887563467025757 -2.5
4.057719707489014 4.224531173706055 -2.4979119300842285
2.752578020095825 4.767587661743164 -2.347599983215332
1.9521484375 5.147392272949219 -2.347599983215332
1.5316259860992432 5.287783145904541 -2.347599983215332
0.66357421875 5.464999675750732 -2.347599983215332
0.22167479991912842 5.500678539276123 -2.347599983215332
-0.22167479991912842 5.500669002532959 -2.347599983215332
-0.9281737804412842 4.546513557434082 -1.9787962436676025
-1.9521435499191284 5.147392272949219 -2.347599983215332
-2.3600146770477295 4.973622798919678 -2.347599983215332
-2.752568244934082 4.767573356628418 -2.347599983215332
-3.6301023960113525 4.44607400894165 -2.4476654529571533
-4.056440353393555 4.223217487335205 -2.4971299171447754
-4.686748027801514 3.521855354309082 -2.5
-4.954946041107178 3.133315324783325 -2.5
-5.393393516540527 2.297910213470459 -2.5
-5.843510627746582 0.47172850370407104 -2.5
5.687026023864746 0.0 -2.5
5.668588638305664 0.45762693881988525 -2.5
5.035610198974609 2.642890453338623 -2.5
4.806616306304932 3.0395214557647705 -2.5
3.938969612121582 4.100903034210205 -2.4996373653411865
3.587714672088623 4.394145488739014 -2.493729829788208
3.057319164276123 4.429291725158691 -2.365906000137329
1.893715739250183 4.993295669555664 -2.347599983215332
1.4857763051986694 5.129497051239014 -2.347599983215332
1.068212866783142 5.232411861419678 -2.347599983215332
0.6437157988548279 5.301405906677246 -2.347599983215332
-0.21503417193889618 5.336010456085205 -2.347599983215332
-0.6437060236930847 5.301396369934082 -2.347599983215332
-0.9269677400588989 4.540571212768555 -2.037193775177002
-1.893715739250183 4.993305683135986 -2.347599983215332
-2.289360284805298 4.824726581573486 -2.347599983215332
-2.670170783996582 4.624867916107178 -2.347599983215332
-3.0366504192352295 4.39932107925415 -2.3499019145965576
-4.546440124511719 3.4164304733276367 -2.5
-4.806616306304932 3.039506673812866 -2.5
-5.035610198974609 2.642890453338623 -2.5
-5.394345760345459 1.8009082078933716 -2.5
-5.613383769989014 0.9122558236122131 -2.5
-5.668583869934082 0.4576074182987213 -2.5
5.520165920257568 -9.765624781721272e-06 -2.5
5.448681354522705 0.8854882717132568 -2.5
5.359760761260986 1.3210546970367432 -2.5
5.236073970794678 1.748046875 -2.5
5.078437328338623 2.1637256145477295 -2.5
4.665590763092041 2.950322151184082 -2.5
4.413051605224609 3.3162012100219727 -2.5
3.8239598274230957 3.981157064437866 -2.5
3.484975576400757 4.268305778503418 -2.4955382347106934
3.048330068588257 4.416259765625 -2.430253744125366
2.5918262004852295 4.489169597625732 -2.347599983215332
1.4421874284744263 4.978993892669678 -2.347599983215332
0.20872558653354645 5.179443359375 -2.347599983215332
-0.6248242259025574 5.145854473114014 -2.347599983215332
-0.9257421493530273 4.534589767456055 -2.0960118770599365
-2.2221875190734863 4.683168888092041 -2.347599983215332
-2.5918211936950684 4.489179611206055 -2.347599983215332
-3.02483868598938 4.382226467132568 -2.4115304946899414
-3.484062433242798 4.267197132110596 -2.494889974594116
-4.413046836853027 3.3161962032318115 -2.5
-4.887856483459473 2.5653514862060547 -2.5
-5.236069202423096 1.748046875 -2.5
-5.448671817779541 0.885498046875 -2.5
-5.502260684967041 0.4441894292831421 -2.5
5.085366249084473 1.6977441310882568 -2.5
4.747172832489014 2.491508722305298 -2.5
4.286025524139404 3.2207422256469727 -2.5
4.012973308563232 3.555180549621582 -2.5
3.3871240615844727 4.148471355438232 -2.4973530769348145
2.5237889289855957 4.371318340301514 -2.3537168502807617
2.1582274436950684 4.54836893081665 -2.347599983215332
1.007021427154541 4.932704925537109 -2.347599983215332
-0.20271484553813934 5.030361175537109 -2.347599983215332
-0.9245116710662842 4.528569221496582 -2.155263662338257
-1.400673747062683 4.835669040679932 -2.347599983215332
-1.7852392196655273 4.707284927368164 -2.347599983215332
-2.1582324504852295 4.54836893081665 -2.347599983215332
-2.517221689224243 4.359946250915527 -2.347599983215332
-4.012959003448486 3.55517578125 -2.5
-4.286030292510986 3.2207372188568115 -2.5
-4.531289100646973 2.865410089492798 -2.5
-4.747168064117432 2.491503953933716 -2.5
-4.932255744934082 2.101435422897339 -2.5
-5.205483436584473 1.2830370664596558 -2.5
-5.291840553283691 0.85999995470047 -2.5
-5.343886375427246 0.43138670921325684 -2.5
